%TF.GenerationSoftware,KiCad,Pcbnew,(6.0.9)*%
%TF.CreationDate,2022-12-14T23:02:15+01:00*%
%TF.ProjectId,pcb-hotswap,7063622d-686f-4747-9377-61702e6b6963,1.0*%
%TF.SameCoordinates,Original*%
%TF.FileFunction,Drillmap*%
%TF.FilePolarity,Positive*%
%FSLAX45Y45*%
G04 Gerber Fmt 4.5, Leading zero omitted, Abs format (unit mm)*
G04 Created by KiCad (PCBNEW (6.0.9)) date 2022-12-14 23:02:15*
%MOMM*%
%LPD*%
G01*
G04 APERTURE LIST*
%ADD10C,0.250000*%
%ADD11C,0.200000*%
%ADD12C,0.030000*%
%ADD13C,0.040000*%
%ADD14C,0.100000*%
%ADD15C,0.175000*%
%ADD16C,0.300000*%
%ADD17C,0.304800*%
%ADD18C,0.398780*%
%ADD19C,0.400000*%
G04 APERTURE END LIST*
D10*
X17625634Y-8108994D02*
G75*
G03*
X17475634Y-8259000I6J-150006D01*
G01*
X7658140Y-13331500D02*
G75*
G03*
X7808134Y-13481500I149990J-10D01*
G01*
X26340634Y-8259000D02*
G75*
G03*
X27000634Y-8259000I330000J0D01*
G01*
X26940034Y-17459000D02*
G75*
G03*
X26280034Y-17459000I-330000J0D01*
G01*
X36158130Y-8309000D02*
G75*
G03*
X35958134Y-8109000I-200000J0D01*
G01*
X36158134Y-17409000D02*
X36158134Y-14230900D01*
X36158140Y-10592100D02*
G75*
G03*
X36008134Y-10442100I-150010J-10D01*
G01*
X7658134Y-12386500D02*
X7658134Y-13331500D01*
X35958134Y-17609004D02*
G75*
G03*
X36158134Y-17409000I-4J200004D01*
G01*
X16815634Y-8259000D02*
G75*
G03*
X17475634Y-8259000I330000J0D01*
G01*
X15275934Y-17459000D02*
G75*
G03*
X14615934Y-17459000I-330000J0D01*
G01*
X7808134Y-12236494D02*
G75*
G03*
X7658134Y-12386500I6J-150006D01*
G01*
X15425934Y-17609000D02*
X26130034Y-17609000D01*
X36158140Y-14230900D02*
G75*
G03*
X36008134Y-14080900I-150010J-10D01*
G01*
X7658140Y-11426500D02*
G75*
G03*
X7808134Y-11576500I149990J-10D01*
G01*
X36158134Y-9632100D02*
X36158134Y-8309000D01*
X36008134Y-9782094D02*
G75*
G03*
X36158134Y-9632100I6J149994D01*
G01*
X7858134Y-8109004D02*
G75*
G03*
X7658134Y-8309000I-4J-199996D01*
G01*
X27090034Y-17609000D02*
X35958134Y-17609000D01*
X16665634Y-8109000D02*
X7858134Y-8109000D01*
X36158134Y-13270900D02*
X36158134Y-10592100D01*
X26130034Y-17608994D02*
G75*
G03*
X26280034Y-17459000I6J149994D01*
G01*
X16815640Y-8259000D02*
G75*
G03*
X16665634Y-8109000I-150010J-10D01*
G01*
X36008134Y-9782100D02*
G75*
G03*
X36008134Y-10442100I-4J-330000D01*
G01*
X27150634Y-8108994D02*
G75*
G03*
X27000634Y-8259000I6J-150006D01*
G01*
X26940040Y-17459000D02*
G75*
G03*
X27090034Y-17609000I149990J-10D01*
G01*
X14465934Y-17608994D02*
G75*
G03*
X14615934Y-17459000I6J149994D01*
G01*
X36008134Y-13420894D02*
G75*
G03*
X36158134Y-13270900I6J149994D01*
G01*
X7658134Y-14291500D02*
X7658134Y-17409000D01*
X7858134Y-17609000D02*
X14465934Y-17609000D01*
X7808134Y-12236500D02*
G75*
G03*
X7808134Y-11576500I0J330000D01*
G01*
X26340640Y-8259000D02*
G75*
G03*
X26190634Y-8109000I-150010J-10D01*
G01*
X7658134Y-8309000D02*
X7658134Y-11426500D01*
X15275940Y-17459000D02*
G75*
G03*
X15425934Y-17609000I149990J-10D01*
G01*
X36008134Y-13420900D02*
G75*
G03*
X36008134Y-14080900I-4J-330000D01*
G01*
X7658130Y-17409000D02*
G75*
G03*
X7858134Y-17609000I200000J0D01*
G01*
X7808134Y-14141500D02*
G75*
G03*
X7808134Y-13481500I0J330000D01*
G01*
X35958134Y-8109000D02*
X27150634Y-8109000D01*
X7808134Y-14141494D02*
G75*
G03*
X7658134Y-14291500I6J-150006D01*
G01*
X26190634Y-8109000D02*
X17625634Y-8109000D01*
D11*
D12*
X21560160Y-11494375D02*
X21590160Y-11524375D01*
X21590160Y-11494375D02*
X21560160Y-11524375D01*
X21726330Y-11328205D02*
X21756330Y-11358205D01*
X21756330Y-11328205D02*
X21726330Y-11358205D01*
X21726330Y-11494375D02*
X21756330Y-11524375D01*
X21756330Y-11494375D02*
X21726330Y-11524375D01*
X21726330Y-11660545D02*
X21756330Y-11690545D01*
X21756330Y-11660545D02*
X21726330Y-11690545D01*
X21892500Y-11162035D02*
X21922500Y-11192035D01*
X21922500Y-11162035D02*
X21892500Y-11192035D01*
X21892500Y-11328205D02*
X21922500Y-11358205D01*
X21922500Y-11328205D02*
X21892500Y-11358205D01*
X21892500Y-11494375D02*
X21922500Y-11524375D01*
X21922500Y-11494375D02*
X21892500Y-11524375D01*
X21892500Y-11660545D02*
X21922500Y-11690545D01*
X21922500Y-11660545D02*
X21892500Y-11690545D01*
X21892500Y-11826715D02*
X21922500Y-11856715D01*
X21922500Y-11826715D02*
X21892500Y-11856715D01*
X22058670Y-11328205D02*
X22088670Y-11358205D01*
X22088670Y-11328205D02*
X22058670Y-11358205D01*
X22058670Y-11494375D02*
X22088670Y-11524375D01*
X22088670Y-11494375D02*
X22058670Y-11524375D01*
X22058670Y-11660545D02*
X22088670Y-11690545D01*
X22088670Y-11660545D02*
X22058670Y-11690545D01*
X22224840Y-11494375D02*
X22254840Y-11524375D01*
X22254840Y-11494375D02*
X22224840Y-11524375D01*
D13*
X7878125Y-8969375D02*
G75*
G03*
X7878125Y-8969375I-20000J0D01*
G01*
X7918900Y-16707900D02*
G75*
G03*
X7918900Y-16707900I-20000J0D01*
G01*
X8350900Y-11935500D02*
G75*
G03*
X8350900Y-11935500I-20000J0D01*
G01*
X8354375Y-10874375D02*
G75*
G03*
X8354375Y-10874375I-20000J0D01*
G01*
X8354375Y-12620625D02*
G75*
G03*
X8354375Y-12620625I-20000J0D01*
G01*
X8513125Y-16271875D02*
G75*
G03*
X8513125Y-16271875I-20000J0D01*
G01*
X8806000Y-11653000D02*
G75*
G03*
X8806000Y-11653000I-20000J0D01*
G01*
X8857700Y-13250400D02*
G75*
G03*
X8857700Y-13250400I-20000J0D01*
G01*
X8938400Y-16222800D02*
G75*
G03*
X8938400Y-16222800I-20000J0D01*
G01*
X8985800Y-9628500D02*
G75*
G03*
X8985800Y-9628500I-20000J0D01*
G01*
X9022000Y-9481000D02*
G75*
G03*
X9022000Y-9481000I-20000J0D01*
G01*
X9070200Y-14338700D02*
G75*
G03*
X9070200Y-14338700I-20000J0D01*
G01*
X9575000Y-13167000D02*
G75*
G03*
X9575000Y-13167000I-20000J0D01*
G01*
X9783125Y-8969375D02*
G75*
G03*
X9783125Y-8969375I-20000J0D01*
G01*
X10576875Y-10715625D02*
G75*
G03*
X10576875Y-10715625I-20000J0D01*
G01*
X10577700Y-11896514D02*
G75*
G03*
X10577700Y-11896514I-20000J0D01*
G01*
X10894375Y-16271875D02*
G75*
G03*
X10894375Y-16271875I-20000J0D01*
G01*
X11211875Y-12779375D02*
G75*
G03*
X11211875Y-12779375I-20000J0D01*
G01*
X11688125Y-8969375D02*
G75*
G03*
X11688125Y-8969375I-20000J0D01*
G01*
X12323125Y-14366875D02*
G75*
G03*
X12323125Y-14366875I-20000J0D01*
G01*
X12639400Y-11858762D02*
G75*
G03*
X12639400Y-11858762I-20000J0D01*
G01*
X12640625Y-10874375D02*
G75*
G03*
X12640625Y-10874375I-20000J0D01*
G01*
X12958125Y-16271875D02*
G75*
G03*
X12958125Y-16271875I-20000J0D01*
G01*
X13116875Y-12779375D02*
G75*
G03*
X13116875Y-12779375I-20000J0D01*
G01*
X13593125Y-8969375D02*
G75*
G03*
X13593125Y-8969375I-20000J0D01*
G01*
X14228125Y-14366875D02*
G75*
G03*
X14228125Y-14366875I-20000J0D01*
G01*
X14545625Y-10874375D02*
G75*
G03*
X14545625Y-10874375I-20000J0D01*
G01*
X14545800Y-11821010D02*
G75*
G03*
X14545800Y-11821010I-20000J0D01*
G01*
X14693000Y-12041000D02*
G75*
G03*
X14693000Y-12041000I-20000J0D01*
G01*
X15021875Y-12779375D02*
G75*
G03*
X15021875Y-12779375I-20000J0D01*
G01*
X15498125Y-8969375D02*
G75*
G03*
X15498125Y-8969375I-20000J0D01*
G01*
X16133125Y-14366875D02*
G75*
G03*
X16133125Y-14366875I-20000J0D01*
G01*
X16450625Y-10874375D02*
G75*
G03*
X16450625Y-10874375I-20000J0D01*
G01*
X16450900Y-11783258D02*
G75*
G03*
X16450900Y-11783258I-20000J0D01*
G01*
X16926875Y-12779375D02*
G75*
G03*
X16926875Y-12779375I-20000J0D01*
G01*
X17403125Y-8969375D02*
G75*
G03*
X17403125Y-8969375I-20000J0D01*
G01*
X18038125Y-14366875D02*
G75*
G03*
X18038125Y-14366875I-20000J0D01*
G01*
X18355300Y-11745506D02*
G75*
G03*
X18355300Y-11745506I-20000J0D01*
G01*
X18355625Y-10874375D02*
G75*
G03*
X18355625Y-10874375I-20000J0D01*
G01*
X18508000Y-12035000D02*
G75*
G03*
X18508000Y-12035000I-20000J0D01*
G01*
X18532000Y-9634400D02*
G75*
G03*
X18532000Y-9634400I-20000J0D01*
G01*
X18831875Y-12779375D02*
G75*
G03*
X18831875Y-12779375I-20000J0D01*
G01*
X19308125Y-8969375D02*
G75*
G03*
X19308125Y-8969375I-20000J0D01*
G01*
X19943125Y-14366875D02*
G75*
G03*
X19943125Y-14366875I-20000J0D01*
G01*
X20260100Y-11707754D02*
G75*
G03*
X20260100Y-11707754I-20000J0D01*
G01*
X20260625Y-10874375D02*
G75*
G03*
X20260625Y-10874375I-20000J0D01*
G01*
X20425400Y-9634400D02*
G75*
G03*
X20425400Y-9634400I-20000J0D01*
G01*
X20620000Y-11300000D02*
G75*
G03*
X20620000Y-11300000I-20000J0D01*
G01*
X20712000Y-9962550D02*
G75*
G03*
X20712000Y-9962550I-20000J0D01*
G01*
X20736875Y-12779375D02*
G75*
G03*
X20736875Y-12779375I-20000J0D01*
G01*
X21020500Y-9332500D02*
G75*
G03*
X21020500Y-9332500I-20000J0D01*
G01*
X21021000Y-15156402D02*
G75*
G03*
X21021000Y-15156402I-20000J0D01*
G01*
X21021663Y-12114337D02*
G75*
G03*
X21021663Y-12114337I-20000J0D01*
G01*
X21131900Y-9446100D02*
G75*
G03*
X21131900Y-9446100I-20000J0D01*
G01*
X21213125Y-8969375D02*
G75*
G03*
X21213125Y-8969375I-20000J0D01*
G01*
X21216000Y-16242300D02*
G75*
G03*
X21216000Y-16242300I-20000J0D01*
G01*
X21228100Y-11617400D02*
G75*
G03*
X21228100Y-11617400I-20000J0D01*
G01*
X21245300Y-10814900D02*
G75*
G03*
X21245300Y-10814900I-20000J0D01*
G01*
X21276600Y-10198000D02*
G75*
G03*
X21276600Y-10198000I-20000J0D01*
G01*
X21426600Y-11144200D02*
G75*
G03*
X21426600Y-11144200I-20000J0D01*
G01*
X21426800Y-11336700D02*
G75*
G03*
X21426800Y-11336700I-20000J0D01*
G01*
X21428279Y-11237619D02*
G75*
G03*
X21428279Y-11237619I-20000J0D01*
G01*
X21450900Y-9971600D02*
G75*
G03*
X21450900Y-9971600I-20000J0D01*
G01*
X21454600Y-10808700D02*
G75*
G03*
X21454600Y-10808700I-20000J0D01*
G01*
X21460485Y-11520377D02*
G75*
G03*
X21460485Y-11520377I-20000J0D01*
G01*
X21498000Y-12027014D02*
G75*
G03*
X21498000Y-12027014I-20000J0D01*
G01*
X21498500Y-13807300D02*
G75*
G03*
X21498500Y-13807300I-20000J0D01*
G01*
X21547500Y-11161400D02*
G75*
G03*
X21547500Y-11161400I-20000J0D01*
G01*
X21576038Y-11065159D02*
G75*
G03*
X21576038Y-11065159I-20000J0D01*
G01*
X21700407Y-11108201D02*
G75*
G03*
X21700407Y-11108201I-20000J0D01*
G01*
X21743770Y-10132230D02*
G75*
G03*
X21743770Y-10132230I-20000J0D01*
G01*
X21753324Y-10918440D02*
G75*
G03*
X21753324Y-10918440I-20000J0D01*
G01*
X21843811Y-12026294D02*
G75*
G03*
X21843811Y-12026294I-20000J0D01*
G01*
X21848125Y-14366875D02*
G75*
G03*
X21848125Y-14366875I-20000J0D01*
G01*
X21922696Y-10942210D02*
G75*
G03*
X21922696Y-10942210I-20000J0D01*
G01*
X21923365Y-11042158D02*
G75*
G03*
X21923365Y-11042158I-20000J0D01*
G01*
X21929330Y-12078318D02*
G75*
G03*
X21929330Y-12078318I-20000J0D01*
G01*
X21958000Y-10582000D02*
G75*
G03*
X21958000Y-10582000I-20000J0D01*
G01*
X22013223Y-12015293D02*
G75*
G03*
X22013223Y-12015293I-20000J0D01*
G01*
X22105007Y-12001939D02*
G75*
G03*
X22105007Y-12001939I-20000J0D01*
G01*
X22170000Y-10500000D02*
G75*
G03*
X22170000Y-10500000I-20000J0D01*
G01*
X22195400Y-10911100D02*
G75*
G03*
X22195400Y-10911100I-20000J0D01*
G01*
X22210367Y-12012973D02*
G75*
G03*
X22210367Y-12012973I-20000J0D01*
G01*
X22219300Y-11919700D02*
G75*
G03*
X22219300Y-11919700I-20000J0D01*
G01*
X22235377Y-10278700D02*
G75*
G03*
X22235377Y-10278700I-20000J0D01*
G01*
X22315012Y-11896888D02*
G75*
G03*
X22315012Y-11896888I-20000J0D01*
G01*
X22320000Y-10200000D02*
G75*
G03*
X22320000Y-10200000I-20000J0D01*
G01*
X22335200Y-9634900D02*
G75*
G03*
X22335200Y-9634900I-20000J0D01*
G01*
X22355852Y-11203676D02*
G75*
G03*
X22355852Y-11203676I-20000J0D01*
G01*
X22363300Y-12509800D02*
G75*
G03*
X22363300Y-12509800I-20000J0D01*
G01*
X22397000Y-11502000D02*
G75*
G03*
X22397000Y-11502000I-20000J0D01*
G01*
X22437000Y-11705000D02*
G75*
G03*
X22437000Y-11705000I-20000J0D01*
G01*
X22537500Y-11114400D02*
G75*
G03*
X22537500Y-11114400I-20000J0D01*
G01*
X22538000Y-10982600D02*
G75*
G03*
X22538000Y-10982600I-20000J0D01*
G01*
X22544000Y-10389000D02*
G75*
G03*
X22544000Y-10389000I-20000J0D01*
G01*
X22631400Y-12336200D02*
G75*
G03*
X22631400Y-12336200I-20000J0D01*
G01*
X22653000Y-12770000D02*
G75*
G03*
X22653000Y-12770000I-20000J0D01*
G01*
X22666770Y-11696230D02*
G75*
G03*
X22666770Y-11696230I-20000J0D01*
G01*
X22693000Y-10598700D02*
G75*
G03*
X22693000Y-10598700I-20000J0D01*
G01*
X22860208Y-11740575D02*
G75*
G03*
X22860208Y-11740575I-20000J0D01*
G01*
X22949479Y-11785527D02*
G75*
G03*
X22949479Y-11785527I-20000J0D01*
G01*
X23038750Y-11830479D02*
G75*
G03*
X23038750Y-11830479I-20000J0D01*
G01*
X23060000Y-12961000D02*
G75*
G03*
X23060000Y-12961000I-20000J0D01*
G01*
X23122000Y-8966000D02*
G75*
G03*
X23122000Y-8966000I-20000J0D01*
G01*
X23123100Y-11182750D02*
G75*
G03*
X23123100Y-11182750I-20000J0D01*
G01*
X23138700Y-11875431D02*
G75*
G03*
X23138700Y-11875431I-20000J0D01*
G01*
X23144950Y-10102000D02*
G75*
G03*
X23144950Y-10102000I-20000J0D01*
G01*
X23227228Y-11921831D02*
G75*
G03*
X23227228Y-11921831I-20000J0D01*
G01*
X23259200Y-11113600D02*
G75*
G03*
X23259200Y-11113600I-20000J0D01*
G01*
X23270000Y-10200000D02*
G75*
G03*
X23270000Y-10200000I-20000J0D01*
G01*
X23290200Y-11544700D02*
G75*
G03*
X23290200Y-11544700I-20000J0D01*
G01*
X23322288Y-11965335D02*
G75*
G03*
X23322288Y-11965335I-20000J0D01*
G01*
X23362770Y-10278700D02*
G75*
G03*
X23362770Y-10278700I-20000J0D01*
G01*
X23449450Y-11230502D02*
G75*
G03*
X23449450Y-11230502I-20000J0D01*
G01*
X23521000Y-12579000D02*
G75*
G03*
X23521000Y-12579000I-20000J0D01*
G01*
X23748900Y-11547200D02*
G75*
G03*
X23748900Y-11547200I-20000J0D01*
G01*
X23753125Y-14366875D02*
G75*
G03*
X23753125Y-14366875I-20000J0D01*
G01*
X24070625Y-10874375D02*
G75*
G03*
X24070625Y-10874375I-20000J0D01*
G01*
X24072800Y-11884383D02*
G75*
G03*
X24072800Y-11884383I-20000J0D01*
G01*
X24240700Y-9638300D02*
G75*
G03*
X24240700Y-9638300I-20000J0D01*
G01*
X24546875Y-12779375D02*
G75*
G03*
X24546875Y-12779375I-20000J0D01*
G01*
X24601000Y-9956000D02*
G75*
G03*
X24601000Y-9956000I-20000J0D01*
G01*
X24608000Y-9520000D02*
G75*
G03*
X24608000Y-9520000I-20000J0D01*
G01*
X24730000Y-10056000D02*
G75*
G03*
X24730000Y-10056000I-20000J0D01*
G01*
X25023125Y-8969375D02*
G75*
G03*
X25023125Y-8969375I-20000J0D01*
G01*
X25181000Y-11536900D02*
G75*
G03*
X25181000Y-11536900I-20000J0D01*
G01*
X25658125Y-14366875D02*
G75*
G03*
X25658125Y-14366875I-20000J0D01*
G01*
X25975500Y-11846631D02*
G75*
G03*
X25975500Y-11846631I-20000J0D01*
G01*
X25975625Y-10874375D02*
G75*
G03*
X25975625Y-10874375I-20000J0D01*
G01*
X26148200Y-9633100D02*
G75*
G03*
X26148200Y-9633100I-20000J0D01*
G01*
X26451875Y-12779375D02*
G75*
G03*
X26451875Y-12779375I-20000J0D01*
G01*
X26928125Y-8969375D02*
G75*
G03*
X26928125Y-8969375I-20000J0D01*
G01*
X27087600Y-11537700D02*
G75*
G03*
X27087600Y-11537700I-20000J0D01*
G01*
X27563125Y-14366875D02*
G75*
G03*
X27563125Y-14366875I-20000J0D01*
G01*
X27878600Y-11808879D02*
G75*
G03*
X27878600Y-11808879I-20000J0D01*
G01*
X27880625Y-10874375D02*
G75*
G03*
X27880625Y-10874375I-20000J0D01*
G01*
X28356875Y-12779375D02*
G75*
G03*
X28356875Y-12779375I-20000J0D01*
G01*
X28833125Y-8969375D02*
G75*
G03*
X28833125Y-8969375I-20000J0D01*
G01*
X28991100Y-11537700D02*
G75*
G03*
X28991100Y-11537700I-20000J0D01*
G01*
X29312200Y-16238100D02*
G75*
G03*
X29312200Y-16238100I-20000J0D01*
G01*
X29468125Y-14366875D02*
G75*
G03*
X29468125Y-14366875I-20000J0D01*
G01*
X29783800Y-11771127D02*
G75*
G03*
X29783800Y-11771127I-20000J0D01*
G01*
X29785625Y-10874375D02*
G75*
G03*
X29785625Y-10874375I-20000J0D01*
G01*
X30261875Y-12779375D02*
G75*
G03*
X30261875Y-12779375I-20000J0D01*
G01*
X30738125Y-8969375D02*
G75*
G03*
X30738125Y-8969375I-20000J0D01*
G01*
X30899400Y-11529500D02*
G75*
G03*
X30899400Y-11529500I-20000J0D01*
G01*
X31690625Y-10874375D02*
G75*
G03*
X31690625Y-10874375I-20000J0D01*
G01*
X31690800Y-16240700D02*
G75*
G03*
X31690800Y-16240700I-20000J0D01*
G01*
X31691600Y-11733375D02*
G75*
G03*
X31691600Y-11733375I-20000J0D01*
G01*
X32087500Y-14366875D02*
G75*
G03*
X32087500Y-14366875I-20000J0D01*
G01*
X33356100Y-12436600D02*
G75*
G03*
X33356100Y-12436600I-20000J0D01*
G01*
X33595625Y-8969375D02*
G75*
G03*
X33595625Y-8969375I-20000J0D01*
G01*
X33807000Y-13543000D02*
G75*
G03*
X33807000Y-13543000I-20000J0D01*
G01*
X34052000Y-9745000D02*
G75*
G03*
X34052000Y-9745000I-20000J0D01*
G01*
X34071875Y-10874375D02*
G75*
G03*
X34071875Y-10874375I-20000J0D01*
G01*
X34071875Y-11747500D02*
G75*
G03*
X34071875Y-11747500I-20000J0D01*
G01*
X34230625Y-16271875D02*
G75*
G03*
X34230625Y-16271875I-20000J0D01*
G01*
X34389375Y-14366875D02*
G75*
G03*
X34389375Y-14366875I-20000J0D01*
G01*
X35052000Y-11270000D02*
G75*
G03*
X35052000Y-11270000I-20000J0D01*
G01*
X35667000Y-15193000D02*
G75*
G03*
X35667000Y-15193000I-20000J0D01*
G01*
D14*
X22655000Y-9544000D02*
X22655000Y-9644000D01*
X22605000Y-9594000D02*
X22705000Y-9594000D01*
X22655000Y-9798000D02*
X22655000Y-9898000D01*
X22605000Y-9848000D02*
X22705000Y-9848000D01*
X22655000Y-10052000D02*
X22655000Y-10152000D01*
X22605000Y-10102000D02*
X22705000Y-10102000D01*
X22909000Y-9544000D02*
X22909000Y-9644000D01*
X22859000Y-9594000D02*
X22959000Y-9594000D01*
X22909000Y-9798000D02*
X22909000Y-9898000D01*
X22859000Y-9848000D02*
X22959000Y-9848000D01*
X22909000Y-10052000D02*
X22909000Y-10152000D01*
X22859000Y-10102000D02*
X22959000Y-10102000D01*
D15*
X8126372Y-9110622D02*
X8126372Y-8986878D01*
X8002628Y-8986878D01*
X8002628Y-9110622D01*
X8126372Y-9110622D01*
X8602622Y-11015622D02*
X8602622Y-10891878D01*
X8478878Y-10891878D01*
X8478878Y-11015622D01*
X8602622Y-11015622D01*
X8602622Y-16730622D02*
X8602622Y-16606878D01*
X8478878Y-16606878D01*
X8478878Y-16730622D01*
X8602622Y-16730622D01*
X8840747Y-12920622D02*
X8840747Y-12796878D01*
X8717003Y-12796878D01*
X8717003Y-12920622D01*
X8840747Y-12920622D01*
X9142372Y-9110622D02*
X9142372Y-8986878D01*
X9018628Y-8986878D01*
X9018628Y-9110622D01*
X9142372Y-9110622D01*
X9316997Y-14825622D02*
X9316997Y-14701878D01*
X9193253Y-14701878D01*
X9193253Y-14825622D01*
X9316997Y-14825622D01*
X9618622Y-11015622D02*
X9618622Y-10891878D01*
X9494878Y-10891878D01*
X9494878Y-11015622D01*
X9618622Y-11015622D01*
X9618622Y-16730622D02*
X9618622Y-16606878D01*
X9494878Y-16606878D01*
X9494878Y-16730622D01*
X9618622Y-16730622D01*
X9856747Y-12920622D02*
X9856747Y-12796878D01*
X9733003Y-12796878D01*
X9733003Y-12920622D01*
X9856747Y-12920622D01*
X10031372Y-9110622D02*
X10031372Y-8986878D01*
X9907628Y-8986878D01*
X9907628Y-9110622D01*
X10031372Y-9110622D01*
X10332997Y-14825622D02*
X10332997Y-14701878D01*
X10209253Y-14701878D01*
X10209253Y-14825622D01*
X10332997Y-14825622D01*
X10983872Y-11015622D02*
X10983872Y-10891878D01*
X10860128Y-10891878D01*
X10860128Y-11015622D01*
X10983872Y-11015622D01*
X10983872Y-16730622D02*
X10983872Y-16606878D01*
X10860128Y-16606878D01*
X10860128Y-16730622D01*
X10983872Y-16730622D01*
X11047372Y-9110622D02*
X11047372Y-8986878D01*
X10923628Y-8986878D01*
X10923628Y-9110622D01*
X11047372Y-9110622D01*
X11460122Y-12920622D02*
X11460122Y-12796878D01*
X11336378Y-12796878D01*
X11336378Y-12920622D01*
X11460122Y-12920622D01*
X11936372Y-9110622D02*
X11936372Y-8986878D01*
X11812628Y-8986878D01*
X11812628Y-9110622D01*
X11936372Y-9110622D01*
X11999872Y-11015622D02*
X11999872Y-10891878D01*
X11876128Y-10891878D01*
X11876128Y-11015622D01*
X11999872Y-11015622D01*
X11999872Y-16730622D02*
X11999872Y-16606878D01*
X11876128Y-16606878D01*
X11876128Y-16730622D01*
X11999872Y-16730622D01*
X12412622Y-14825622D02*
X12412622Y-14701878D01*
X12288878Y-14701878D01*
X12288878Y-14825622D01*
X12412622Y-14825622D01*
X12476122Y-12920622D02*
X12476122Y-12796878D01*
X12352378Y-12796878D01*
X12352378Y-12920622D01*
X12476122Y-12920622D01*
X12888872Y-11015622D02*
X12888872Y-10891878D01*
X12765128Y-10891878D01*
X12765128Y-11015622D01*
X12888872Y-11015622D01*
X12952372Y-9110622D02*
X12952372Y-8986878D01*
X12828628Y-8986878D01*
X12828628Y-9110622D01*
X12952372Y-9110622D01*
X13365122Y-12920622D02*
X13365122Y-12796878D01*
X13241378Y-12796878D01*
X13241378Y-12920622D01*
X13365122Y-12920622D01*
X13365122Y-16730622D02*
X13365122Y-16606878D01*
X13241378Y-16606878D01*
X13241378Y-16730622D01*
X13365122Y-16730622D01*
X13428622Y-14825622D02*
X13428622Y-14701878D01*
X13304878Y-14701878D01*
X13304878Y-14825622D01*
X13428622Y-14825622D01*
X13841372Y-9110622D02*
X13841372Y-8986878D01*
X13717628Y-8986878D01*
X13717628Y-9110622D01*
X13841372Y-9110622D01*
X13904872Y-11015622D02*
X13904872Y-10891878D01*
X13781128Y-10891878D01*
X13781128Y-11015622D01*
X13904872Y-11015622D01*
X14317622Y-14825622D02*
X14317622Y-14701878D01*
X14193878Y-14701878D01*
X14193878Y-14825622D01*
X14317622Y-14825622D01*
X14381122Y-12920622D02*
X14381122Y-12796878D01*
X14257378Y-12796878D01*
X14257378Y-12920622D01*
X14381122Y-12920622D01*
X14381122Y-16730622D02*
X14381122Y-16606878D01*
X14257378Y-16606878D01*
X14257378Y-16730622D01*
X14381122Y-16730622D01*
X14793872Y-11015622D02*
X14793872Y-10891878D01*
X14670128Y-10891878D01*
X14670128Y-11015622D01*
X14793872Y-11015622D01*
X14857372Y-9110622D02*
X14857372Y-8986878D01*
X14733628Y-8986878D01*
X14733628Y-9110622D01*
X14857372Y-9110622D01*
X15270122Y-12920622D02*
X15270122Y-12796878D01*
X15146378Y-12796878D01*
X15146378Y-12920622D01*
X15270122Y-12920622D01*
X15333622Y-14825622D02*
X15333622Y-14701878D01*
X15209878Y-14701878D01*
X15209878Y-14825622D01*
X15333622Y-14825622D01*
X15746372Y-9110622D02*
X15746372Y-8986878D01*
X15622628Y-8986878D01*
X15622628Y-9110622D01*
X15746372Y-9110622D01*
X15809872Y-11015622D02*
X15809872Y-10891878D01*
X15686128Y-10891878D01*
X15686128Y-11015622D01*
X15809872Y-11015622D01*
X16222622Y-14825622D02*
X16222622Y-14701878D01*
X16098878Y-14701878D01*
X16098878Y-14825622D01*
X16222622Y-14825622D01*
X16286122Y-12920622D02*
X16286122Y-12796878D01*
X16162378Y-12796878D01*
X16162378Y-12920622D01*
X16286122Y-12920622D01*
X16698872Y-11015622D02*
X16698872Y-10891878D01*
X16575128Y-10891878D01*
X16575128Y-11015622D01*
X16698872Y-11015622D01*
X16762372Y-9110622D02*
X16762372Y-8986878D01*
X16638628Y-8986878D01*
X16638628Y-9110622D01*
X16762372Y-9110622D01*
X17175122Y-12920622D02*
X17175122Y-12796878D01*
X17051378Y-12796878D01*
X17051378Y-12920622D01*
X17175122Y-12920622D01*
X17238622Y-14825622D02*
X17238622Y-14701878D01*
X17114878Y-14701878D01*
X17114878Y-14825622D01*
X17238622Y-14825622D01*
X17651372Y-9110622D02*
X17651372Y-8986878D01*
X17527628Y-8986878D01*
X17527628Y-9110622D01*
X17651372Y-9110622D01*
X17714872Y-11015622D02*
X17714872Y-10891878D01*
X17591128Y-10891878D01*
X17591128Y-11015622D01*
X17714872Y-11015622D01*
X18127622Y-14825622D02*
X18127622Y-14701878D01*
X18003878Y-14701878D01*
X18003878Y-14825622D01*
X18127622Y-14825622D01*
X18191122Y-12920622D02*
X18191122Y-12796878D01*
X18067378Y-12796878D01*
X18067378Y-12920622D01*
X18191122Y-12920622D01*
X18603872Y-11015622D02*
X18603872Y-10891878D01*
X18480128Y-10891878D01*
X18480128Y-11015622D01*
X18603872Y-11015622D01*
X18667372Y-9110622D02*
X18667372Y-8986878D01*
X18543628Y-8986878D01*
X18543628Y-9110622D01*
X18667372Y-9110622D01*
X19080122Y-12920622D02*
X19080122Y-12796878D01*
X18956378Y-12796878D01*
X18956378Y-12920622D01*
X19080122Y-12920622D01*
X19143622Y-14825622D02*
X19143622Y-14701878D01*
X19019878Y-14701878D01*
X19019878Y-14825622D01*
X19143622Y-14825622D01*
X19556372Y-9110622D02*
X19556372Y-8986878D01*
X19432628Y-8986878D01*
X19432628Y-9110622D01*
X19556372Y-9110622D01*
X19619872Y-11015622D02*
X19619872Y-10891878D01*
X19496128Y-10891878D01*
X19496128Y-11015622D01*
X19619872Y-11015622D01*
X20032622Y-14825622D02*
X20032622Y-14701878D01*
X19908878Y-14701878D01*
X19908878Y-14825622D01*
X20032622Y-14825622D01*
X20096122Y-12920622D02*
X20096122Y-12796878D01*
X19972378Y-12796878D01*
X19972378Y-12920622D01*
X20096122Y-12920622D01*
X20508872Y-11015622D02*
X20508872Y-10891878D01*
X20385128Y-10891878D01*
X20385128Y-11015622D01*
X20508872Y-11015622D01*
X20572372Y-9110622D02*
X20572372Y-8986878D01*
X20448628Y-8986878D01*
X20448628Y-9110622D01*
X20572372Y-9110622D01*
X20985122Y-12920622D02*
X20985122Y-12796878D01*
X20861378Y-12796878D01*
X20861378Y-12920622D01*
X20985122Y-12920622D01*
X21048622Y-14825622D02*
X21048622Y-14701878D01*
X20924878Y-14701878D01*
X20924878Y-14825622D01*
X21048622Y-14825622D01*
X21461372Y-9110622D02*
X21461372Y-8986878D01*
X21337628Y-8986878D01*
X21337628Y-9110622D01*
X21461372Y-9110622D01*
X21461372Y-16730622D02*
X21461372Y-16606878D01*
X21337628Y-16606878D01*
X21337628Y-16730622D01*
X21461372Y-16730622D01*
X21524872Y-11015622D02*
X21524872Y-10891878D01*
X21401128Y-10891878D01*
X21401128Y-11015622D01*
X21524872Y-11015622D01*
X21937622Y-14825622D02*
X21937622Y-14701878D01*
X21813878Y-14701878D01*
X21813878Y-14825622D01*
X21937622Y-14825622D01*
X22001122Y-12920622D02*
X22001122Y-12796878D01*
X21877378Y-12796878D01*
X21877378Y-12920622D01*
X22001122Y-12920622D01*
X22413872Y-11015622D02*
X22413872Y-10891878D01*
X22290128Y-10891878D01*
X22290128Y-11015622D01*
X22413872Y-11015622D01*
X22477372Y-9110622D02*
X22477372Y-8986878D01*
X22353628Y-8986878D01*
X22353628Y-9110622D01*
X22477372Y-9110622D01*
X22477372Y-16730622D02*
X22477372Y-16606878D01*
X22353628Y-16606878D01*
X22353628Y-16730622D01*
X22477372Y-16730622D01*
X22890122Y-12920622D02*
X22890122Y-12796878D01*
X22766378Y-12796878D01*
X22766378Y-12920622D01*
X22890122Y-12920622D01*
X22953622Y-14825622D02*
X22953622Y-14701878D01*
X22829878Y-14701878D01*
X22829878Y-14825622D01*
X22953622Y-14825622D01*
X23366372Y-9110622D02*
X23366372Y-8986878D01*
X23242628Y-8986878D01*
X23242628Y-9110622D01*
X23366372Y-9110622D01*
X23429872Y-11015622D02*
X23429872Y-10891878D01*
X23306128Y-10891878D01*
X23306128Y-11015622D01*
X23429872Y-11015622D01*
X23842622Y-14825622D02*
X23842622Y-14701878D01*
X23718878Y-14701878D01*
X23718878Y-14825622D01*
X23842622Y-14825622D01*
X23906122Y-12920622D02*
X23906122Y-12796878D01*
X23782378Y-12796878D01*
X23782378Y-12920622D01*
X23906122Y-12920622D01*
X24318872Y-11015622D02*
X24318872Y-10891878D01*
X24195128Y-10891878D01*
X24195128Y-11015622D01*
X24318872Y-11015622D01*
X24382372Y-9110622D02*
X24382372Y-8986878D01*
X24258628Y-8986878D01*
X24258628Y-9110622D01*
X24382372Y-9110622D01*
X24795122Y-12920622D02*
X24795122Y-12796878D01*
X24671378Y-12796878D01*
X24671378Y-12920622D01*
X24795122Y-12920622D01*
X24858622Y-14825622D02*
X24858622Y-14701878D01*
X24734878Y-14701878D01*
X24734878Y-14825622D01*
X24858622Y-14825622D01*
X25271372Y-9110622D02*
X25271372Y-8986878D01*
X25147628Y-8986878D01*
X25147628Y-9110622D01*
X25271372Y-9110622D01*
X25334872Y-11015622D02*
X25334872Y-10891878D01*
X25211128Y-10891878D01*
X25211128Y-11015622D01*
X25334872Y-11015622D01*
X25747622Y-14825622D02*
X25747622Y-14701878D01*
X25623878Y-14701878D01*
X25623878Y-14825622D01*
X25747622Y-14825622D01*
X25811122Y-12920622D02*
X25811122Y-12796878D01*
X25687378Y-12796878D01*
X25687378Y-12920622D01*
X25811122Y-12920622D01*
X26223872Y-11015622D02*
X26223872Y-10891878D01*
X26100128Y-10891878D01*
X26100128Y-11015622D01*
X26223872Y-11015622D01*
X26287372Y-9110622D02*
X26287372Y-8986878D01*
X26163628Y-8986878D01*
X26163628Y-9110622D01*
X26287372Y-9110622D01*
X26700122Y-12920622D02*
X26700122Y-12796878D01*
X26576378Y-12796878D01*
X26576378Y-12920622D01*
X26700122Y-12920622D01*
X26763622Y-14825622D02*
X26763622Y-14701878D01*
X26639878Y-14701878D01*
X26639878Y-14825622D01*
X26763622Y-14825622D01*
X27176372Y-9110622D02*
X27176372Y-8986878D01*
X27052628Y-8986878D01*
X27052628Y-9110622D01*
X27176372Y-9110622D01*
X27239872Y-11015622D02*
X27239872Y-10891878D01*
X27116128Y-10891878D01*
X27116128Y-11015622D01*
X27239872Y-11015622D01*
X27652622Y-14825622D02*
X27652622Y-14701878D01*
X27528878Y-14701878D01*
X27528878Y-14825622D01*
X27652622Y-14825622D01*
X27716122Y-12920622D02*
X27716122Y-12796878D01*
X27592378Y-12796878D01*
X27592378Y-12920622D01*
X27716122Y-12920622D01*
X28128872Y-11015622D02*
X28128872Y-10891878D01*
X28005128Y-10891878D01*
X28005128Y-11015622D01*
X28128872Y-11015622D01*
X28192372Y-9110622D02*
X28192372Y-8986878D01*
X28068628Y-8986878D01*
X28068628Y-9110622D01*
X28192372Y-9110622D01*
X28605122Y-12920622D02*
X28605122Y-12796878D01*
X28481378Y-12796878D01*
X28481378Y-12920622D01*
X28605122Y-12920622D01*
X28668622Y-14825622D02*
X28668622Y-14701878D01*
X28544878Y-14701878D01*
X28544878Y-14825622D01*
X28668622Y-14825622D01*
X29081372Y-9110622D02*
X29081372Y-8986878D01*
X28957628Y-8986878D01*
X28957628Y-9110622D01*
X29081372Y-9110622D01*
X29144872Y-11015622D02*
X29144872Y-10891878D01*
X29021128Y-10891878D01*
X29021128Y-11015622D01*
X29144872Y-11015622D01*
X29557622Y-14825622D02*
X29557622Y-14701878D01*
X29433878Y-14701878D01*
X29433878Y-14825622D01*
X29557622Y-14825622D01*
X29557622Y-16730622D02*
X29557622Y-16606878D01*
X29433878Y-16606878D01*
X29433878Y-16730622D01*
X29557622Y-16730622D01*
X29621122Y-12920622D02*
X29621122Y-12796878D01*
X29497378Y-12796878D01*
X29497378Y-12920622D01*
X29621122Y-12920622D01*
X30033872Y-11015622D02*
X30033872Y-10891878D01*
X29910128Y-10891878D01*
X29910128Y-11015622D01*
X30033872Y-11015622D01*
X30097372Y-9110622D02*
X30097372Y-8986878D01*
X29973628Y-8986878D01*
X29973628Y-9110622D01*
X30097372Y-9110622D01*
X30510122Y-12920622D02*
X30510122Y-12796878D01*
X30386378Y-12796878D01*
X30386378Y-12920622D01*
X30510122Y-12920622D01*
X30573622Y-14825622D02*
X30573622Y-14701878D01*
X30449878Y-14701878D01*
X30449878Y-14825622D01*
X30573622Y-14825622D01*
X30573622Y-16730622D02*
X30573622Y-16606878D01*
X30449878Y-16606878D01*
X30449878Y-16730622D01*
X30573622Y-16730622D01*
X30986372Y-9110622D02*
X30986372Y-8986878D01*
X30862628Y-8986878D01*
X30862628Y-9110622D01*
X30986372Y-9110622D01*
X31049872Y-11015622D02*
X31049872Y-10891878D01*
X30926128Y-10891878D01*
X30926128Y-11015622D01*
X31049872Y-11015622D01*
X31526122Y-12920622D02*
X31526122Y-12796878D01*
X31402378Y-12796878D01*
X31402378Y-12920622D01*
X31526122Y-12920622D01*
X31938872Y-11015622D02*
X31938872Y-10891878D01*
X31815128Y-10891878D01*
X31815128Y-11015622D01*
X31938872Y-11015622D01*
X31938872Y-16730622D02*
X31938872Y-16606878D01*
X31815128Y-16606878D01*
X31815128Y-16730622D01*
X31938872Y-16730622D01*
X32002372Y-9110622D02*
X32002372Y-8986878D01*
X31878628Y-8986878D01*
X31878628Y-9110622D01*
X32002372Y-9110622D01*
X32176997Y-14825622D02*
X32176997Y-14701878D01*
X32053253Y-14701878D01*
X32053253Y-14825622D01*
X32176997Y-14825622D01*
X32954872Y-11015622D02*
X32954872Y-10891878D01*
X32831128Y-10891878D01*
X32831128Y-11015622D01*
X32954872Y-11015622D01*
X32954872Y-16730622D02*
X32954872Y-16606878D01*
X32831128Y-16606878D01*
X32831128Y-16730622D01*
X32954872Y-16730622D01*
X33192997Y-14825622D02*
X33192997Y-14701878D01*
X33069253Y-14701878D01*
X33069253Y-14825622D01*
X33192997Y-14825622D01*
X33605747Y-12920622D02*
X33605747Y-12796878D01*
X33482003Y-12796878D01*
X33482003Y-12920622D01*
X33605747Y-12920622D01*
X33843872Y-9110622D02*
X33843872Y-8986878D01*
X33720128Y-8986878D01*
X33720128Y-9110622D01*
X33843872Y-9110622D01*
X34320122Y-11015622D02*
X34320122Y-10891878D01*
X34196378Y-10891878D01*
X34196378Y-11015622D01*
X34320122Y-11015622D01*
X34320122Y-16730622D02*
X34320122Y-16606878D01*
X34196378Y-16606878D01*
X34196378Y-16730622D01*
X34320122Y-16730622D01*
X34621747Y-12920622D02*
X34621747Y-12796878D01*
X34498003Y-12796878D01*
X34498003Y-12920622D01*
X34621747Y-12920622D01*
X34796372Y-14825622D02*
X34796372Y-14701878D01*
X34672628Y-14701878D01*
X34672628Y-14825622D01*
X34796372Y-14825622D01*
X34859872Y-9110622D02*
X34859872Y-8986878D01*
X34736128Y-8986878D01*
X34736128Y-9110622D01*
X34859872Y-9110622D01*
X35336122Y-11015622D02*
X35336122Y-10891878D01*
X35212378Y-10891878D01*
X35212378Y-11015622D01*
X35336122Y-11015622D01*
X35336122Y-16730622D02*
X35336122Y-16606878D01*
X35212378Y-16606878D01*
X35212378Y-16730622D01*
X35336122Y-16730622D01*
X35812372Y-14825622D02*
X35812372Y-14701878D01*
X35688628Y-14701878D01*
X35688628Y-14825622D01*
X35812372Y-14825622D01*
D11*
X7957500Y-11053600D02*
X8057500Y-10953600D01*
X7957500Y-10853600D01*
X7857500Y-10953600D01*
X7957500Y-11053600D01*
X10120700Y-16768600D02*
X10220700Y-16668600D01*
X10120700Y-16568600D01*
X10020700Y-16668600D01*
X10120700Y-16768600D01*
X11906500Y-14863500D02*
X12006500Y-14763500D01*
X11906500Y-14663500D01*
X11806500Y-14763500D01*
X11906500Y-14863500D01*
X14945000Y-16768200D02*
X15045000Y-16668200D01*
X14945000Y-16568200D01*
X14845000Y-16668200D01*
X14945000Y-16768200D01*
X18094700Y-11146900D02*
X18194700Y-11046900D01*
X18094700Y-10946900D01*
X17994700Y-11046900D01*
X18094700Y-11146900D01*
X25718200Y-11145300D02*
X25818200Y-11045300D01*
X25718200Y-10945300D01*
X25618200Y-11045300D01*
X25718200Y-11145300D01*
X26609400Y-16768100D02*
X26709400Y-16668100D01*
X26609400Y-16568100D01*
X26509400Y-16668100D01*
X26609400Y-16768100D01*
X31313000Y-14929500D02*
X31413000Y-14829500D01*
X31313000Y-14729500D01*
X31213000Y-14829500D01*
X31313000Y-14929500D01*
X33575500Y-11053100D02*
X33675500Y-10953100D01*
X33575500Y-10853100D01*
X33475500Y-10953100D01*
X33575500Y-11053100D01*
X33694500Y-16768200D02*
X33794500Y-16668200D01*
X33694500Y-16568200D01*
X33594500Y-16668200D01*
X33694500Y-16768200D01*
D16*
X8041500Y-8644750D02*
X8341500Y-8944750D01*
X8341500Y-8644750D02*
X8041500Y-8944750D01*
X8341500Y-8794750D02*
G75*
G03*
X8341500Y-8794750I-150000J0D01*
G01*
X8517750Y-10549750D02*
X8817750Y-10849750D01*
X8817750Y-10549750D02*
X8517750Y-10849750D01*
X8817750Y-10699750D02*
G75*
G03*
X8817750Y-10699750I-150000J0D01*
G01*
X8517750Y-16264750D02*
X8817750Y-16564750D01*
X8817750Y-16264750D02*
X8517750Y-16564750D01*
X8817750Y-16414750D02*
G75*
G03*
X8817750Y-16414750I-150000J0D01*
G01*
X8676500Y-8390750D02*
X8976500Y-8690750D01*
X8976500Y-8390750D02*
X8676500Y-8690750D01*
X8976500Y-8540750D02*
G75*
G03*
X8976500Y-8540750I-150000J0D01*
G01*
X8755875Y-12454750D02*
X9055875Y-12754750D01*
X9055875Y-12454750D02*
X8755875Y-12754750D01*
X9055875Y-12604750D02*
G75*
G03*
X9055875Y-12604750I-150000J0D01*
G01*
X9152750Y-10295750D02*
X9452750Y-10595750D01*
X9452750Y-10295750D02*
X9152750Y-10595750D01*
X9452750Y-10445750D02*
G75*
G03*
X9452750Y-10445750I-150000J0D01*
G01*
X9152750Y-16010750D02*
X9452750Y-16310750D01*
X9452750Y-16010750D02*
X9152750Y-16310750D01*
X9452750Y-16160750D02*
G75*
G03*
X9452750Y-16160750I-150000J0D01*
G01*
X9232125Y-14359750D02*
X9532125Y-14659750D01*
X9532125Y-14359750D02*
X9232125Y-14659750D01*
X9532125Y-14509750D02*
G75*
G03*
X9532125Y-14509750I-150000J0D01*
G01*
X9390875Y-12200750D02*
X9690875Y-12500750D01*
X9690875Y-12200750D02*
X9390875Y-12500750D01*
X9690875Y-12350750D02*
G75*
G03*
X9690875Y-12350750I-150000J0D01*
G01*
X9867125Y-14105750D02*
X10167125Y-14405750D01*
X10167125Y-14105750D02*
X9867125Y-14405750D01*
X10167125Y-14255750D02*
G75*
G03*
X10167125Y-14255750I-150000J0D01*
G01*
X9946500Y-8644750D02*
X10246500Y-8944750D01*
X10246500Y-8644750D02*
X9946500Y-8944750D01*
X10246500Y-8794750D02*
G75*
G03*
X10246500Y-8794750I-150000J0D01*
G01*
X10581500Y-8390750D02*
X10881500Y-8690750D01*
X10881500Y-8390750D02*
X10581500Y-8690750D01*
X10881500Y-8540750D02*
G75*
G03*
X10881500Y-8540750I-150000J0D01*
G01*
X10899000Y-10549750D02*
X11199000Y-10849750D01*
X11199000Y-10549750D02*
X10899000Y-10849750D01*
X11199000Y-10699750D02*
G75*
G03*
X11199000Y-10699750I-150000J0D01*
G01*
X10899000Y-16264750D02*
X11199000Y-16564750D01*
X11199000Y-16264750D02*
X10899000Y-16564750D01*
X11199000Y-16414750D02*
G75*
G03*
X11199000Y-16414750I-150000J0D01*
G01*
X11375250Y-12454750D02*
X11675250Y-12754750D01*
X11675250Y-12454750D02*
X11375250Y-12754750D01*
X11675250Y-12604750D02*
G75*
G03*
X11675250Y-12604750I-150000J0D01*
G01*
X11534000Y-10295750D02*
X11834000Y-10595750D01*
X11834000Y-10295750D02*
X11534000Y-10595750D01*
X11834000Y-10445750D02*
G75*
G03*
X11834000Y-10445750I-150000J0D01*
G01*
X11534000Y-16010750D02*
X11834000Y-16310750D01*
X11834000Y-16010750D02*
X11534000Y-16310750D01*
X11834000Y-16160750D02*
G75*
G03*
X11834000Y-16160750I-150000J0D01*
G01*
X11851500Y-8644750D02*
X12151500Y-8944750D01*
X12151500Y-8644750D02*
X11851500Y-8944750D01*
X12151500Y-8794750D02*
G75*
G03*
X12151500Y-8794750I-150000J0D01*
G01*
X12010250Y-12200750D02*
X12310250Y-12500750D01*
X12310250Y-12200750D02*
X12010250Y-12500750D01*
X12310250Y-12350750D02*
G75*
G03*
X12310250Y-12350750I-150000J0D01*
G01*
X12327750Y-14359750D02*
X12627750Y-14659750D01*
X12627750Y-14359750D02*
X12327750Y-14659750D01*
X12627750Y-14509750D02*
G75*
G03*
X12627750Y-14509750I-150000J0D01*
G01*
X12486500Y-8390750D02*
X12786500Y-8690750D01*
X12786500Y-8390750D02*
X12486500Y-8690750D01*
X12786500Y-8540750D02*
G75*
G03*
X12786500Y-8540750I-150000J0D01*
G01*
X12804000Y-10549750D02*
X13104000Y-10849750D01*
X13104000Y-10549750D02*
X12804000Y-10849750D01*
X13104000Y-10699750D02*
G75*
G03*
X13104000Y-10699750I-150000J0D01*
G01*
X12962750Y-14105750D02*
X13262750Y-14405750D01*
X13262750Y-14105750D02*
X12962750Y-14405750D01*
X13262750Y-14255750D02*
G75*
G03*
X13262750Y-14255750I-150000J0D01*
G01*
X13280250Y-12454750D02*
X13580250Y-12754750D01*
X13580250Y-12454750D02*
X13280250Y-12754750D01*
X13580250Y-12604750D02*
G75*
G03*
X13580250Y-12604750I-150000J0D01*
G01*
X13280250Y-16264750D02*
X13580250Y-16564750D01*
X13580250Y-16264750D02*
X13280250Y-16564750D01*
X13580250Y-16414750D02*
G75*
G03*
X13580250Y-16414750I-150000J0D01*
G01*
X13439000Y-10295750D02*
X13739000Y-10595750D01*
X13739000Y-10295750D02*
X13439000Y-10595750D01*
X13739000Y-10445750D02*
G75*
G03*
X13739000Y-10445750I-150000J0D01*
G01*
X13756500Y-8644750D02*
X14056500Y-8944750D01*
X14056500Y-8644750D02*
X13756500Y-8944750D01*
X14056500Y-8794750D02*
G75*
G03*
X14056500Y-8794750I-150000J0D01*
G01*
X13915250Y-12200750D02*
X14215250Y-12500750D01*
X14215250Y-12200750D02*
X13915250Y-12500750D01*
X14215250Y-12350750D02*
G75*
G03*
X14215250Y-12350750I-150000J0D01*
G01*
X13915250Y-16010750D02*
X14215250Y-16310750D01*
X14215250Y-16010750D02*
X13915250Y-16310750D01*
X14215250Y-16160750D02*
G75*
G03*
X14215250Y-16160750I-150000J0D01*
G01*
X14232750Y-14359750D02*
X14532750Y-14659750D01*
X14532750Y-14359750D02*
X14232750Y-14659750D01*
X14532750Y-14509750D02*
G75*
G03*
X14532750Y-14509750I-150000J0D01*
G01*
X14391500Y-8390750D02*
X14691500Y-8690750D01*
X14691500Y-8390750D02*
X14391500Y-8690750D01*
X14691500Y-8540750D02*
G75*
G03*
X14691500Y-8540750I-150000J0D01*
G01*
X14709000Y-10549750D02*
X15009000Y-10849750D01*
X15009000Y-10549750D02*
X14709000Y-10849750D01*
X15009000Y-10699750D02*
G75*
G03*
X15009000Y-10699750I-150000J0D01*
G01*
X14867750Y-14105750D02*
X15167750Y-14405750D01*
X15167750Y-14105750D02*
X14867750Y-14405750D01*
X15167750Y-14255750D02*
G75*
G03*
X15167750Y-14255750I-150000J0D01*
G01*
X15185250Y-12454750D02*
X15485250Y-12754750D01*
X15485250Y-12454750D02*
X15185250Y-12754750D01*
X15485250Y-12604750D02*
G75*
G03*
X15485250Y-12604750I-150000J0D01*
G01*
X15344000Y-10295750D02*
X15644000Y-10595750D01*
X15644000Y-10295750D02*
X15344000Y-10595750D01*
X15644000Y-10445750D02*
G75*
G03*
X15644000Y-10445750I-150000J0D01*
G01*
X15661500Y-8644750D02*
X15961500Y-8944750D01*
X15961500Y-8644750D02*
X15661500Y-8944750D01*
X15961500Y-8794750D02*
G75*
G03*
X15961500Y-8794750I-150000J0D01*
G01*
X15820250Y-12200750D02*
X16120250Y-12500750D01*
X16120250Y-12200750D02*
X15820250Y-12500750D01*
X16120250Y-12350750D02*
G75*
G03*
X16120250Y-12350750I-150000J0D01*
G01*
X16137750Y-14359750D02*
X16437750Y-14659750D01*
X16437750Y-14359750D02*
X16137750Y-14659750D01*
X16437750Y-14509750D02*
G75*
G03*
X16437750Y-14509750I-150000J0D01*
G01*
X16296500Y-8390750D02*
X16596500Y-8690750D01*
X16596500Y-8390750D02*
X16296500Y-8690750D01*
X16596500Y-8540750D02*
G75*
G03*
X16596500Y-8540750I-150000J0D01*
G01*
X16614000Y-10549750D02*
X16914000Y-10849750D01*
X16914000Y-10549750D02*
X16614000Y-10849750D01*
X16914000Y-10699750D02*
G75*
G03*
X16914000Y-10699750I-150000J0D01*
G01*
X16772750Y-14105750D02*
X17072750Y-14405750D01*
X17072750Y-14105750D02*
X16772750Y-14405750D01*
X17072750Y-14255750D02*
G75*
G03*
X17072750Y-14255750I-150000J0D01*
G01*
X17090250Y-12454750D02*
X17390250Y-12754750D01*
X17390250Y-12454750D02*
X17090250Y-12754750D01*
X17390250Y-12604750D02*
G75*
G03*
X17390250Y-12604750I-150000J0D01*
G01*
X17249000Y-10295750D02*
X17549000Y-10595750D01*
X17549000Y-10295750D02*
X17249000Y-10595750D01*
X17549000Y-10445750D02*
G75*
G03*
X17549000Y-10445750I-150000J0D01*
G01*
X17566500Y-8644750D02*
X17866500Y-8944750D01*
X17866500Y-8644750D02*
X17566500Y-8944750D01*
X17866500Y-8794750D02*
G75*
G03*
X17866500Y-8794750I-150000J0D01*
G01*
X17725250Y-12200750D02*
X18025250Y-12500750D01*
X18025250Y-12200750D02*
X17725250Y-12500750D01*
X18025250Y-12350750D02*
G75*
G03*
X18025250Y-12350750I-150000J0D01*
G01*
X18042750Y-14359750D02*
X18342750Y-14659750D01*
X18342750Y-14359750D02*
X18042750Y-14659750D01*
X18342750Y-14509750D02*
G75*
G03*
X18342750Y-14509750I-150000J0D01*
G01*
X18201500Y-8390750D02*
X18501500Y-8690750D01*
X18501500Y-8390750D02*
X18201500Y-8690750D01*
X18501500Y-8540750D02*
G75*
G03*
X18501500Y-8540750I-150000J0D01*
G01*
X18519000Y-10549750D02*
X18819000Y-10849750D01*
X18819000Y-10549750D02*
X18519000Y-10849750D01*
X18819000Y-10699750D02*
G75*
G03*
X18819000Y-10699750I-150000J0D01*
G01*
X18677750Y-14105750D02*
X18977750Y-14405750D01*
X18977750Y-14105750D02*
X18677750Y-14405750D01*
X18977750Y-14255750D02*
G75*
G03*
X18977750Y-14255750I-150000J0D01*
G01*
X18995250Y-12454750D02*
X19295250Y-12754750D01*
X19295250Y-12454750D02*
X18995250Y-12754750D01*
X19295250Y-12604750D02*
G75*
G03*
X19295250Y-12604750I-150000J0D01*
G01*
X19154000Y-10295750D02*
X19454000Y-10595750D01*
X19454000Y-10295750D02*
X19154000Y-10595750D01*
X19454000Y-10445750D02*
G75*
G03*
X19454000Y-10445750I-150000J0D01*
G01*
X19471500Y-8644750D02*
X19771500Y-8944750D01*
X19771500Y-8644750D02*
X19471500Y-8944750D01*
X19771500Y-8794750D02*
G75*
G03*
X19771500Y-8794750I-150000J0D01*
G01*
X19630250Y-12200750D02*
X19930250Y-12500750D01*
X19930250Y-12200750D02*
X19630250Y-12500750D01*
X19930250Y-12350750D02*
G75*
G03*
X19930250Y-12350750I-150000J0D01*
G01*
X19947750Y-14359750D02*
X20247750Y-14659750D01*
X20247750Y-14359750D02*
X19947750Y-14659750D01*
X20247750Y-14509750D02*
G75*
G03*
X20247750Y-14509750I-150000J0D01*
G01*
X20106500Y-8390750D02*
X20406500Y-8690750D01*
X20406500Y-8390750D02*
X20106500Y-8690750D01*
X20406500Y-8540750D02*
G75*
G03*
X20406500Y-8540750I-150000J0D01*
G01*
X20424000Y-10549750D02*
X20724000Y-10849750D01*
X20724000Y-10549750D02*
X20424000Y-10849750D01*
X20724000Y-10699750D02*
G75*
G03*
X20724000Y-10699750I-150000J0D01*
G01*
X20582750Y-14105750D02*
X20882750Y-14405750D01*
X20882750Y-14105750D02*
X20582750Y-14405750D01*
X20882750Y-14255750D02*
G75*
G03*
X20882750Y-14255750I-150000J0D01*
G01*
X20900250Y-12454750D02*
X21200250Y-12754750D01*
X21200250Y-12454750D02*
X20900250Y-12754750D01*
X21200250Y-12604750D02*
G75*
G03*
X21200250Y-12604750I-150000J0D01*
G01*
X21059000Y-10295750D02*
X21359000Y-10595750D01*
X21359000Y-10295750D02*
X21059000Y-10595750D01*
X21359000Y-10445750D02*
G75*
G03*
X21359000Y-10445750I-150000J0D01*
G01*
X21376500Y-8644750D02*
X21676500Y-8944750D01*
X21676500Y-8644750D02*
X21376500Y-8944750D01*
X21676500Y-8794750D02*
G75*
G03*
X21676500Y-8794750I-150000J0D01*
G01*
X21376500Y-16264750D02*
X21676500Y-16564750D01*
X21676500Y-16264750D02*
X21376500Y-16564750D01*
X21676500Y-16414750D02*
G75*
G03*
X21676500Y-16414750I-150000J0D01*
G01*
X21535250Y-12200750D02*
X21835250Y-12500750D01*
X21835250Y-12200750D02*
X21535250Y-12500750D01*
X21835250Y-12350750D02*
G75*
G03*
X21835250Y-12350750I-150000J0D01*
G01*
X21852750Y-14359750D02*
X22152750Y-14659750D01*
X22152750Y-14359750D02*
X21852750Y-14659750D01*
X22152750Y-14509750D02*
G75*
G03*
X22152750Y-14509750I-150000J0D01*
G01*
X22011500Y-8390750D02*
X22311500Y-8690750D01*
X22311500Y-8390750D02*
X22011500Y-8690750D01*
X22311500Y-8540750D02*
G75*
G03*
X22311500Y-8540750I-150000J0D01*
G01*
X22011500Y-16010750D02*
X22311500Y-16310750D01*
X22311500Y-16010750D02*
X22011500Y-16310750D01*
X22311500Y-16160750D02*
G75*
G03*
X22311500Y-16160750I-150000J0D01*
G01*
X22329000Y-10549750D02*
X22629000Y-10849750D01*
X22629000Y-10549750D02*
X22329000Y-10849750D01*
X22629000Y-10699750D02*
G75*
G03*
X22629000Y-10699750I-150000J0D01*
G01*
X22487750Y-14105750D02*
X22787750Y-14405750D01*
X22787750Y-14105750D02*
X22487750Y-14405750D01*
X22787750Y-14255750D02*
G75*
G03*
X22787750Y-14255750I-150000J0D01*
G01*
X22805250Y-12454750D02*
X23105250Y-12754750D01*
X23105250Y-12454750D02*
X22805250Y-12754750D01*
X23105250Y-12604750D02*
G75*
G03*
X23105250Y-12604750I-150000J0D01*
G01*
X22964000Y-10295750D02*
X23264000Y-10595750D01*
X23264000Y-10295750D02*
X22964000Y-10595750D01*
X23264000Y-10445750D02*
G75*
G03*
X23264000Y-10445750I-150000J0D01*
G01*
X23281500Y-8644750D02*
X23581500Y-8944750D01*
X23581500Y-8644750D02*
X23281500Y-8944750D01*
X23581500Y-8794750D02*
G75*
G03*
X23581500Y-8794750I-150000J0D01*
G01*
X23440250Y-12200750D02*
X23740250Y-12500750D01*
X23740250Y-12200750D02*
X23440250Y-12500750D01*
X23740250Y-12350750D02*
G75*
G03*
X23740250Y-12350750I-150000J0D01*
G01*
X23757750Y-14359750D02*
X24057750Y-14659750D01*
X24057750Y-14359750D02*
X23757750Y-14659750D01*
X24057750Y-14509750D02*
G75*
G03*
X24057750Y-14509750I-150000J0D01*
G01*
X23916500Y-8390750D02*
X24216500Y-8690750D01*
X24216500Y-8390750D02*
X23916500Y-8690750D01*
X24216500Y-8540750D02*
G75*
G03*
X24216500Y-8540750I-150000J0D01*
G01*
X24234000Y-10549750D02*
X24534000Y-10849750D01*
X24534000Y-10549750D02*
X24234000Y-10849750D01*
X24534000Y-10699750D02*
G75*
G03*
X24534000Y-10699750I-150000J0D01*
G01*
X24392750Y-14105750D02*
X24692750Y-14405750D01*
X24692750Y-14105750D02*
X24392750Y-14405750D01*
X24692750Y-14255750D02*
G75*
G03*
X24692750Y-14255750I-150000J0D01*
G01*
X24710250Y-12454750D02*
X25010250Y-12754750D01*
X25010250Y-12454750D02*
X24710250Y-12754750D01*
X25010250Y-12604750D02*
G75*
G03*
X25010250Y-12604750I-150000J0D01*
G01*
X24869000Y-10295750D02*
X25169000Y-10595750D01*
X25169000Y-10295750D02*
X24869000Y-10595750D01*
X25169000Y-10445750D02*
G75*
G03*
X25169000Y-10445750I-150000J0D01*
G01*
X25186500Y-8644750D02*
X25486500Y-8944750D01*
X25486500Y-8644750D02*
X25186500Y-8944750D01*
X25486500Y-8794750D02*
G75*
G03*
X25486500Y-8794750I-150000J0D01*
G01*
X25345250Y-12200750D02*
X25645250Y-12500750D01*
X25645250Y-12200750D02*
X25345250Y-12500750D01*
X25645250Y-12350750D02*
G75*
G03*
X25645250Y-12350750I-150000J0D01*
G01*
X25662750Y-14359750D02*
X25962750Y-14659750D01*
X25962750Y-14359750D02*
X25662750Y-14659750D01*
X25962750Y-14509750D02*
G75*
G03*
X25962750Y-14509750I-150000J0D01*
G01*
X25821500Y-8390750D02*
X26121500Y-8690750D01*
X26121500Y-8390750D02*
X25821500Y-8690750D01*
X26121500Y-8540750D02*
G75*
G03*
X26121500Y-8540750I-150000J0D01*
G01*
X26139000Y-10549750D02*
X26439000Y-10849750D01*
X26439000Y-10549750D02*
X26139000Y-10849750D01*
X26439000Y-10699750D02*
G75*
G03*
X26439000Y-10699750I-150000J0D01*
G01*
X26297750Y-14105750D02*
X26597750Y-14405750D01*
X26597750Y-14105750D02*
X26297750Y-14405750D01*
X26597750Y-14255750D02*
G75*
G03*
X26597750Y-14255750I-150000J0D01*
G01*
X26615250Y-12454750D02*
X26915250Y-12754750D01*
X26915250Y-12454750D02*
X26615250Y-12754750D01*
X26915250Y-12604750D02*
G75*
G03*
X26915250Y-12604750I-150000J0D01*
G01*
X26774000Y-10295750D02*
X27074000Y-10595750D01*
X27074000Y-10295750D02*
X26774000Y-10595750D01*
X27074000Y-10445750D02*
G75*
G03*
X27074000Y-10445750I-150000J0D01*
G01*
X27091500Y-8644750D02*
X27391500Y-8944750D01*
X27391500Y-8644750D02*
X27091500Y-8944750D01*
X27391500Y-8794750D02*
G75*
G03*
X27391500Y-8794750I-150000J0D01*
G01*
X27250250Y-12200750D02*
X27550250Y-12500750D01*
X27550250Y-12200750D02*
X27250250Y-12500750D01*
X27550250Y-12350750D02*
G75*
G03*
X27550250Y-12350750I-150000J0D01*
G01*
X27567750Y-14359750D02*
X27867750Y-14659750D01*
X27867750Y-14359750D02*
X27567750Y-14659750D01*
X27867750Y-14509750D02*
G75*
G03*
X27867750Y-14509750I-150000J0D01*
G01*
X27726500Y-8390750D02*
X28026500Y-8690750D01*
X28026500Y-8390750D02*
X27726500Y-8690750D01*
X28026500Y-8540750D02*
G75*
G03*
X28026500Y-8540750I-150000J0D01*
G01*
X28044000Y-10549750D02*
X28344000Y-10849750D01*
X28344000Y-10549750D02*
X28044000Y-10849750D01*
X28344000Y-10699750D02*
G75*
G03*
X28344000Y-10699750I-150000J0D01*
G01*
X28202750Y-14105750D02*
X28502750Y-14405750D01*
X28502750Y-14105750D02*
X28202750Y-14405750D01*
X28502750Y-14255750D02*
G75*
G03*
X28502750Y-14255750I-150000J0D01*
G01*
X28520250Y-12454750D02*
X28820250Y-12754750D01*
X28820250Y-12454750D02*
X28520250Y-12754750D01*
X28820250Y-12604750D02*
G75*
G03*
X28820250Y-12604750I-150000J0D01*
G01*
X28679000Y-10295750D02*
X28979000Y-10595750D01*
X28979000Y-10295750D02*
X28679000Y-10595750D01*
X28979000Y-10445750D02*
G75*
G03*
X28979000Y-10445750I-150000J0D01*
G01*
X28996500Y-8644750D02*
X29296500Y-8944750D01*
X29296500Y-8644750D02*
X28996500Y-8944750D01*
X29296500Y-8794750D02*
G75*
G03*
X29296500Y-8794750I-150000J0D01*
G01*
X29155250Y-12200750D02*
X29455250Y-12500750D01*
X29455250Y-12200750D02*
X29155250Y-12500750D01*
X29455250Y-12350750D02*
G75*
G03*
X29455250Y-12350750I-150000J0D01*
G01*
X29472750Y-14359750D02*
X29772750Y-14659750D01*
X29772750Y-14359750D02*
X29472750Y-14659750D01*
X29772750Y-14509750D02*
G75*
G03*
X29772750Y-14509750I-150000J0D01*
G01*
X29472750Y-16264750D02*
X29772750Y-16564750D01*
X29772750Y-16264750D02*
X29472750Y-16564750D01*
X29772750Y-16414750D02*
G75*
G03*
X29772750Y-16414750I-150000J0D01*
G01*
X29631500Y-8390750D02*
X29931500Y-8690750D01*
X29931500Y-8390750D02*
X29631500Y-8690750D01*
X29931500Y-8540750D02*
G75*
G03*
X29931500Y-8540750I-150000J0D01*
G01*
X29949000Y-10549750D02*
X30249000Y-10849750D01*
X30249000Y-10549750D02*
X29949000Y-10849750D01*
X30249000Y-10699750D02*
G75*
G03*
X30249000Y-10699750I-150000J0D01*
G01*
X30107750Y-14105750D02*
X30407750Y-14405750D01*
X30407750Y-14105750D02*
X30107750Y-14405750D01*
X30407750Y-14255750D02*
G75*
G03*
X30407750Y-14255750I-150000J0D01*
G01*
X30107750Y-16010750D02*
X30407750Y-16310750D01*
X30407750Y-16010750D02*
X30107750Y-16310750D01*
X30407750Y-16160750D02*
G75*
G03*
X30407750Y-16160750I-150000J0D01*
G01*
X30425250Y-12454750D02*
X30725250Y-12754750D01*
X30725250Y-12454750D02*
X30425250Y-12754750D01*
X30725250Y-12604750D02*
G75*
G03*
X30725250Y-12604750I-150000J0D01*
G01*
X30584000Y-10295750D02*
X30884000Y-10595750D01*
X30884000Y-10295750D02*
X30584000Y-10595750D01*
X30884000Y-10445750D02*
G75*
G03*
X30884000Y-10445750I-150000J0D01*
G01*
X30901500Y-8644750D02*
X31201500Y-8944750D01*
X31201500Y-8644750D02*
X30901500Y-8944750D01*
X31201500Y-8794750D02*
G75*
G03*
X31201500Y-8794750I-150000J0D01*
G01*
X31060250Y-12200750D02*
X31360250Y-12500750D01*
X31360250Y-12200750D02*
X31060250Y-12500750D01*
X31360250Y-12350750D02*
G75*
G03*
X31360250Y-12350750I-150000J0D01*
G01*
X31536500Y-8390750D02*
X31836500Y-8690750D01*
X31836500Y-8390750D02*
X31536500Y-8690750D01*
X31836500Y-8540750D02*
G75*
G03*
X31836500Y-8540750I-150000J0D01*
G01*
X31854000Y-10549750D02*
X32154000Y-10849750D01*
X32154000Y-10549750D02*
X31854000Y-10849750D01*
X32154000Y-10699750D02*
G75*
G03*
X32154000Y-10699750I-150000J0D01*
G01*
X31854000Y-16264750D02*
X32154000Y-16564750D01*
X32154000Y-16264750D02*
X31854000Y-16564750D01*
X32154000Y-16414750D02*
G75*
G03*
X32154000Y-16414750I-150000J0D01*
G01*
X32092125Y-14359750D02*
X32392125Y-14659750D01*
X32392125Y-14359750D02*
X32092125Y-14659750D01*
X32392125Y-14509750D02*
G75*
G03*
X32392125Y-14509750I-150000J0D01*
G01*
X32489000Y-10295750D02*
X32789000Y-10595750D01*
X32789000Y-10295750D02*
X32489000Y-10595750D01*
X32789000Y-10445750D02*
G75*
G03*
X32789000Y-10445750I-150000J0D01*
G01*
X32489000Y-16010750D02*
X32789000Y-16310750D01*
X32789000Y-16010750D02*
X32489000Y-16310750D01*
X32789000Y-16160750D02*
G75*
G03*
X32789000Y-16160750I-150000J0D01*
G01*
X32727125Y-14105750D02*
X33027125Y-14405750D01*
X33027125Y-14105750D02*
X32727125Y-14405750D01*
X33027125Y-14255750D02*
G75*
G03*
X33027125Y-14255750I-150000J0D01*
G01*
X33520875Y-12454750D02*
X33820875Y-12754750D01*
X33820875Y-12454750D02*
X33520875Y-12754750D01*
X33820875Y-12604750D02*
G75*
G03*
X33820875Y-12604750I-150000J0D01*
G01*
X33759000Y-8644750D02*
X34059000Y-8944750D01*
X34059000Y-8644750D02*
X33759000Y-8944750D01*
X34059000Y-8794750D02*
G75*
G03*
X34059000Y-8794750I-150000J0D01*
G01*
X34155875Y-12200750D02*
X34455875Y-12500750D01*
X34455875Y-12200750D02*
X34155875Y-12500750D01*
X34455875Y-12350750D02*
G75*
G03*
X34455875Y-12350750I-150000J0D01*
G01*
X34235250Y-10549750D02*
X34535250Y-10849750D01*
X34535250Y-10549750D02*
X34235250Y-10849750D01*
X34535250Y-10699750D02*
G75*
G03*
X34535250Y-10699750I-150000J0D01*
G01*
X34235250Y-16264750D02*
X34535250Y-16564750D01*
X34535250Y-16264750D02*
X34235250Y-16564750D01*
X34535250Y-16414750D02*
G75*
G03*
X34535250Y-16414750I-150000J0D01*
G01*
X34394000Y-8390750D02*
X34694000Y-8690750D01*
X34694000Y-8390750D02*
X34394000Y-8690750D01*
X34694000Y-8540750D02*
G75*
G03*
X34694000Y-8540750I-150000J0D01*
G01*
X34711500Y-14359750D02*
X35011500Y-14659750D01*
X35011500Y-14359750D02*
X34711500Y-14659750D01*
X35011500Y-14509750D02*
G75*
G03*
X35011500Y-14509750I-150000J0D01*
G01*
X34870250Y-10295750D02*
X35170250Y-10595750D01*
X35170250Y-10295750D02*
X34870250Y-10595750D01*
X35170250Y-10445750D02*
G75*
G03*
X35170250Y-10445750I-150000J0D01*
G01*
X34870250Y-16010750D02*
X35170250Y-16310750D01*
X35170250Y-16010750D02*
X34870250Y-16310750D01*
X35170250Y-16160750D02*
G75*
G03*
X35170250Y-16160750I-150000J0D01*
G01*
X35346500Y-14105750D02*
X35646500Y-14405750D01*
X35646500Y-14105750D02*
X35346500Y-14405750D01*
X35646500Y-14255750D02*
G75*
G03*
X35646500Y-14255750I-150000J0D01*
G01*
D17*
X8416925Y-13912850D02*
X8721725Y-14217650D01*
X8721725Y-13912850D02*
X8416925Y-14217650D01*
X8569325Y-13912850D02*
X8569325Y-14217650D01*
X8416925Y-14065250D02*
X8721725Y-14065250D01*
X10804525Y-13912850D02*
X11109325Y-14217650D01*
X11109325Y-13912850D02*
X10804525Y-14217650D01*
X10956925Y-13912850D02*
X10956925Y-14217650D01*
X10804525Y-14065250D02*
X11109325Y-14065250D01*
X16040100Y-17214850D02*
X16344900Y-17519650D01*
X16344900Y-17214850D02*
X16040100Y-17519650D01*
X16192500Y-17214850D02*
X16192500Y-17519650D01*
X16040100Y-17367250D02*
X16344900Y-17367250D01*
X27470100Y-17214850D02*
X27774900Y-17519650D01*
X27774900Y-17214850D02*
X27470100Y-17519650D01*
X27622500Y-17214850D02*
X27622500Y-17519650D01*
X27470100Y-17367250D02*
X27774900Y-17367250D01*
X32705675Y-12007850D02*
X33010475Y-12312650D01*
X33010475Y-12007850D02*
X32705675Y-12312650D01*
X32858075Y-12007850D02*
X32858075Y-12312650D01*
X32705675Y-12160250D02*
X33010475Y-12160250D01*
X32943800Y-8197850D02*
X33248600Y-8502650D01*
X33248600Y-8197850D02*
X32943800Y-8502650D01*
X33096200Y-8197850D02*
X33096200Y-8502650D01*
X32943800Y-8350250D02*
X33248600Y-8350250D01*
X35093275Y-12007850D02*
X35398075Y-12312650D01*
X35398075Y-12007850D02*
X35093275Y-12312650D01*
X35245675Y-12007850D02*
X35245675Y-12312650D01*
X35093275Y-12160250D02*
X35398075Y-12160250D01*
X35331400Y-8197850D02*
X35636200Y-8502650D01*
X35636200Y-8197850D02*
X35331400Y-8502650D01*
X35483800Y-8197850D02*
X35483800Y-8502650D01*
X35331400Y-8350250D02*
X35636200Y-8350250D01*
D18*
X8369935Y-15389860D02*
X8768715Y-15788640D01*
X8768715Y-15389860D02*
X8369935Y-15788640D01*
X8710316Y-15730241D02*
X8710316Y-15448259D01*
X8428334Y-15448259D01*
X8428334Y-15730241D01*
X8710316Y-15730241D01*
X10757535Y-15389860D02*
X11156315Y-15788640D01*
X11156315Y-15389860D02*
X10757535Y-15788640D01*
X11097916Y-15730241D02*
X11097916Y-15448259D01*
X10815934Y-15448259D01*
X10815934Y-15730241D01*
X11097916Y-15730241D01*
X15993110Y-15643860D02*
X16391890Y-16042640D01*
X16391890Y-15643860D02*
X15993110Y-16042640D01*
X16333491Y-15984241D02*
X16333491Y-15702259D01*
X16051509Y-15702259D01*
X16051509Y-15984241D01*
X16333491Y-15984241D01*
X27423110Y-15643860D02*
X27821890Y-16042640D01*
X27821890Y-15643860D02*
X27423110Y-16042640D01*
X27763491Y-15984241D02*
X27763491Y-15702259D01*
X27481509Y-15702259D01*
X27481509Y-15984241D01*
X27763491Y-15984241D01*
X32658685Y-13484860D02*
X33057465Y-13883640D01*
X33057465Y-13484860D02*
X32658685Y-13883640D01*
X32999066Y-13825241D02*
X32999066Y-13543259D01*
X32717084Y-13543259D01*
X32717084Y-13825241D01*
X32999066Y-13825241D01*
X32896810Y-9674860D02*
X33295590Y-10073640D01*
X33295590Y-9674860D02*
X32896810Y-10073640D01*
X33237191Y-10015241D02*
X33237191Y-9733259D01*
X32955209Y-9733259D01*
X32955209Y-10015241D01*
X33237191Y-10015241D01*
X35046285Y-13484860D02*
X35445065Y-13883640D01*
X35445065Y-13484860D02*
X35046285Y-13883640D01*
X35386666Y-13825241D02*
X35386666Y-13543259D01*
X35104684Y-13543259D01*
X35104684Y-13825241D01*
X35386666Y-13825241D01*
X35284410Y-9674860D02*
X35683190Y-10073640D01*
X35683190Y-9674860D02*
X35284410Y-10073640D01*
X35624791Y-10015241D02*
X35624791Y-9733259D01*
X35342809Y-9733259D01*
X35342809Y-10015241D01*
X35624791Y-10015241D01*
D19*
X8372500Y-8848750D02*
X8772500Y-9248750D01*
X8772500Y-8848750D02*
X8372500Y-9248750D01*
X8572500Y-9248750D02*
X8772500Y-9048750D01*
X8572500Y-8848750D01*
X8372500Y-9048750D01*
X8572500Y-9248750D01*
X8848750Y-10753750D02*
X9248750Y-11153750D01*
X9248750Y-10753750D02*
X8848750Y-11153750D01*
X9048750Y-11153750D02*
X9248750Y-10953750D01*
X9048750Y-10753750D01*
X8848750Y-10953750D01*
X9048750Y-11153750D01*
X8848750Y-16468750D02*
X9248750Y-16868750D01*
X9248750Y-16468750D02*
X8848750Y-16868750D01*
X9048750Y-16868750D02*
X9248750Y-16668750D01*
X9048750Y-16468750D01*
X8848750Y-16668750D01*
X9048750Y-16868750D01*
X9086875Y-12658750D02*
X9486875Y-13058750D01*
X9486875Y-12658750D02*
X9086875Y-13058750D01*
X9286875Y-13058750D02*
X9486875Y-12858750D01*
X9286875Y-12658750D01*
X9086875Y-12858750D01*
X9286875Y-13058750D01*
X9563125Y-14563750D02*
X9963125Y-14963750D01*
X9963125Y-14563750D02*
X9563125Y-14963750D01*
X9763125Y-14963750D02*
X9963125Y-14763750D01*
X9763125Y-14563750D01*
X9563125Y-14763750D01*
X9763125Y-14963750D01*
X10277500Y-8848750D02*
X10677500Y-9248750D01*
X10677500Y-8848750D02*
X10277500Y-9248750D01*
X10477500Y-9248750D02*
X10677500Y-9048750D01*
X10477500Y-8848750D01*
X10277500Y-9048750D01*
X10477500Y-9248750D01*
X11230000Y-10753750D02*
X11630000Y-11153750D01*
X11630000Y-10753750D02*
X11230000Y-11153750D01*
X11430000Y-11153750D02*
X11630000Y-10953750D01*
X11430000Y-10753750D01*
X11230000Y-10953750D01*
X11430000Y-11153750D01*
X11230000Y-16468750D02*
X11630000Y-16868750D01*
X11630000Y-16468750D02*
X11230000Y-16868750D01*
X11430000Y-16868750D02*
X11630000Y-16668750D01*
X11430000Y-16468750D01*
X11230000Y-16668750D01*
X11430000Y-16868750D01*
X11706250Y-12658750D02*
X12106250Y-13058750D01*
X12106250Y-12658750D02*
X11706250Y-13058750D01*
X11906250Y-13058750D02*
X12106250Y-12858750D01*
X11906250Y-12658750D01*
X11706250Y-12858750D01*
X11906250Y-13058750D01*
X12182500Y-8848750D02*
X12582500Y-9248750D01*
X12582500Y-8848750D02*
X12182500Y-9248750D01*
X12382500Y-9248750D02*
X12582500Y-9048750D01*
X12382500Y-8848750D01*
X12182500Y-9048750D01*
X12382500Y-9248750D01*
X12658750Y-14563750D02*
X13058750Y-14963750D01*
X13058750Y-14563750D02*
X12658750Y-14963750D01*
X12858750Y-14963750D02*
X13058750Y-14763750D01*
X12858750Y-14563750D01*
X12658750Y-14763750D01*
X12858750Y-14963750D01*
X13135000Y-10753750D02*
X13535000Y-11153750D01*
X13535000Y-10753750D02*
X13135000Y-11153750D01*
X13335000Y-11153750D02*
X13535000Y-10953750D01*
X13335000Y-10753750D01*
X13135000Y-10953750D01*
X13335000Y-11153750D01*
X13611250Y-12658750D02*
X14011250Y-13058750D01*
X14011250Y-12658750D02*
X13611250Y-13058750D01*
X13811250Y-13058750D02*
X14011250Y-12858750D01*
X13811250Y-12658750D01*
X13611250Y-12858750D01*
X13811250Y-13058750D01*
X13611250Y-16468750D02*
X14011250Y-16868750D01*
X14011250Y-16468750D02*
X13611250Y-16868750D01*
X13811250Y-16868750D02*
X14011250Y-16668750D01*
X13811250Y-16468750D01*
X13611250Y-16668750D01*
X13811250Y-16868750D01*
X14087500Y-8848750D02*
X14487500Y-9248750D01*
X14487500Y-8848750D02*
X14087500Y-9248750D01*
X14287500Y-9248750D02*
X14487500Y-9048750D01*
X14287500Y-8848750D01*
X14087500Y-9048750D01*
X14287500Y-9248750D01*
X14563750Y-14563750D02*
X14963750Y-14963750D01*
X14963750Y-14563750D02*
X14563750Y-14963750D01*
X14763750Y-14963750D02*
X14963750Y-14763750D01*
X14763750Y-14563750D01*
X14563750Y-14763750D01*
X14763750Y-14963750D01*
X15040000Y-10753750D02*
X15440000Y-11153750D01*
X15440000Y-10753750D02*
X15040000Y-11153750D01*
X15240000Y-11153750D02*
X15440000Y-10953750D01*
X15240000Y-10753750D01*
X15040000Y-10953750D01*
X15240000Y-11153750D01*
X15516250Y-12658750D02*
X15916250Y-13058750D01*
X15916250Y-12658750D02*
X15516250Y-13058750D01*
X15716250Y-13058750D02*
X15916250Y-12858750D01*
X15716250Y-12658750D01*
X15516250Y-12858750D01*
X15716250Y-13058750D01*
X15992500Y-8848750D02*
X16392500Y-9248750D01*
X16392500Y-8848750D02*
X15992500Y-9248750D01*
X16192500Y-9248750D02*
X16392500Y-9048750D01*
X16192500Y-8848750D01*
X15992500Y-9048750D01*
X16192500Y-9248750D01*
X16468750Y-14563750D02*
X16868750Y-14963750D01*
X16868750Y-14563750D02*
X16468750Y-14963750D01*
X16668750Y-14963750D02*
X16868750Y-14763750D01*
X16668750Y-14563750D01*
X16468750Y-14763750D01*
X16668750Y-14963750D01*
X16945000Y-10753750D02*
X17345000Y-11153750D01*
X17345000Y-10753750D02*
X16945000Y-11153750D01*
X17145000Y-11153750D02*
X17345000Y-10953750D01*
X17145000Y-10753750D01*
X16945000Y-10953750D01*
X17145000Y-11153750D01*
X17421250Y-12658750D02*
X17821250Y-13058750D01*
X17821250Y-12658750D02*
X17421250Y-13058750D01*
X17621250Y-13058750D02*
X17821250Y-12858750D01*
X17621250Y-12658750D01*
X17421250Y-12858750D01*
X17621250Y-13058750D01*
X17897500Y-8848750D02*
X18297500Y-9248750D01*
X18297500Y-8848750D02*
X17897500Y-9248750D01*
X18097500Y-9248750D02*
X18297500Y-9048750D01*
X18097500Y-8848750D01*
X17897500Y-9048750D01*
X18097500Y-9248750D01*
X18373750Y-14563750D02*
X18773750Y-14963750D01*
X18773750Y-14563750D02*
X18373750Y-14963750D01*
X18573750Y-14963750D02*
X18773750Y-14763750D01*
X18573750Y-14563750D01*
X18373750Y-14763750D01*
X18573750Y-14963750D01*
X18850000Y-10753750D02*
X19250000Y-11153750D01*
X19250000Y-10753750D02*
X18850000Y-11153750D01*
X19050000Y-11153750D02*
X19250000Y-10953750D01*
X19050000Y-10753750D01*
X18850000Y-10953750D01*
X19050000Y-11153750D01*
X19326250Y-12658750D02*
X19726250Y-13058750D01*
X19726250Y-12658750D02*
X19326250Y-13058750D01*
X19526250Y-13058750D02*
X19726250Y-12858750D01*
X19526250Y-12658750D01*
X19326250Y-12858750D01*
X19526250Y-13058750D01*
X19802500Y-8848750D02*
X20202500Y-9248750D01*
X20202500Y-8848750D02*
X19802500Y-9248750D01*
X20002500Y-9248750D02*
X20202500Y-9048750D01*
X20002500Y-8848750D01*
X19802500Y-9048750D01*
X20002500Y-9248750D01*
X20278750Y-14563750D02*
X20678750Y-14963750D01*
X20678750Y-14563750D02*
X20278750Y-14963750D01*
X20478750Y-14963750D02*
X20678750Y-14763750D01*
X20478750Y-14563750D01*
X20278750Y-14763750D01*
X20478750Y-14963750D01*
X20755000Y-10753750D02*
X21155000Y-11153750D01*
X21155000Y-10753750D02*
X20755000Y-11153750D01*
X20955000Y-11153750D02*
X21155000Y-10953750D01*
X20955000Y-10753750D01*
X20755000Y-10953750D01*
X20955000Y-11153750D01*
X21231250Y-12658750D02*
X21631250Y-13058750D01*
X21631250Y-12658750D02*
X21231250Y-13058750D01*
X21431250Y-13058750D02*
X21631250Y-12858750D01*
X21431250Y-12658750D01*
X21231250Y-12858750D01*
X21431250Y-13058750D01*
X21707500Y-8848750D02*
X22107500Y-9248750D01*
X22107500Y-8848750D02*
X21707500Y-9248750D01*
X21907500Y-9248750D02*
X22107500Y-9048750D01*
X21907500Y-8848750D01*
X21707500Y-9048750D01*
X21907500Y-9248750D01*
X21707500Y-16468750D02*
X22107500Y-16868750D01*
X22107500Y-16468750D02*
X21707500Y-16868750D01*
X21907500Y-16868750D02*
X22107500Y-16668750D01*
X21907500Y-16468750D01*
X21707500Y-16668750D01*
X21907500Y-16868750D01*
X22183750Y-14563750D02*
X22583750Y-14963750D01*
X22583750Y-14563750D02*
X22183750Y-14963750D01*
X22383750Y-14963750D02*
X22583750Y-14763750D01*
X22383750Y-14563750D01*
X22183750Y-14763750D01*
X22383750Y-14963750D01*
X22660000Y-10753750D02*
X23060000Y-11153750D01*
X23060000Y-10753750D02*
X22660000Y-11153750D01*
X22860000Y-11153750D02*
X23060000Y-10953750D01*
X22860000Y-10753750D01*
X22660000Y-10953750D01*
X22860000Y-11153750D01*
X23136250Y-12658750D02*
X23536250Y-13058750D01*
X23536250Y-12658750D02*
X23136250Y-13058750D01*
X23336250Y-13058750D02*
X23536250Y-12858750D01*
X23336250Y-12658750D01*
X23136250Y-12858750D01*
X23336250Y-13058750D01*
X23612500Y-8848750D02*
X24012500Y-9248750D01*
X24012500Y-8848750D02*
X23612500Y-9248750D01*
X23812500Y-9248750D02*
X24012500Y-9048750D01*
X23812500Y-8848750D01*
X23612500Y-9048750D01*
X23812500Y-9248750D01*
X24088750Y-14563750D02*
X24488750Y-14963750D01*
X24488750Y-14563750D02*
X24088750Y-14963750D01*
X24288750Y-14963750D02*
X24488750Y-14763750D01*
X24288750Y-14563750D01*
X24088750Y-14763750D01*
X24288750Y-14963750D01*
X24565000Y-10753750D02*
X24965000Y-11153750D01*
X24965000Y-10753750D02*
X24565000Y-11153750D01*
X24765000Y-11153750D02*
X24965000Y-10953750D01*
X24765000Y-10753750D01*
X24565000Y-10953750D01*
X24765000Y-11153750D01*
X25041250Y-12658750D02*
X25441250Y-13058750D01*
X25441250Y-12658750D02*
X25041250Y-13058750D01*
X25241250Y-13058750D02*
X25441250Y-12858750D01*
X25241250Y-12658750D01*
X25041250Y-12858750D01*
X25241250Y-13058750D01*
X25517500Y-8848750D02*
X25917500Y-9248750D01*
X25917500Y-8848750D02*
X25517500Y-9248750D01*
X25717500Y-9248750D02*
X25917500Y-9048750D01*
X25717500Y-8848750D01*
X25517500Y-9048750D01*
X25717500Y-9248750D01*
X25993750Y-14563750D02*
X26393750Y-14963750D01*
X26393750Y-14563750D02*
X25993750Y-14963750D01*
X26193750Y-14963750D02*
X26393750Y-14763750D01*
X26193750Y-14563750D01*
X25993750Y-14763750D01*
X26193750Y-14963750D01*
X26470000Y-10753750D02*
X26870000Y-11153750D01*
X26870000Y-10753750D02*
X26470000Y-11153750D01*
X26670000Y-11153750D02*
X26870000Y-10953750D01*
X26670000Y-10753750D01*
X26470000Y-10953750D01*
X26670000Y-11153750D01*
X26946250Y-12658750D02*
X27346250Y-13058750D01*
X27346250Y-12658750D02*
X26946250Y-13058750D01*
X27146250Y-13058750D02*
X27346250Y-12858750D01*
X27146250Y-12658750D01*
X26946250Y-12858750D01*
X27146250Y-13058750D01*
X27422500Y-8848750D02*
X27822500Y-9248750D01*
X27822500Y-8848750D02*
X27422500Y-9248750D01*
X27622500Y-9248750D02*
X27822500Y-9048750D01*
X27622500Y-8848750D01*
X27422500Y-9048750D01*
X27622500Y-9248750D01*
X27898750Y-14563750D02*
X28298750Y-14963750D01*
X28298750Y-14563750D02*
X27898750Y-14963750D01*
X28098750Y-14963750D02*
X28298750Y-14763750D01*
X28098750Y-14563750D01*
X27898750Y-14763750D01*
X28098750Y-14963750D01*
X28375000Y-10753750D02*
X28775000Y-11153750D01*
X28775000Y-10753750D02*
X28375000Y-11153750D01*
X28575000Y-11153750D02*
X28775000Y-10953750D01*
X28575000Y-10753750D01*
X28375000Y-10953750D01*
X28575000Y-11153750D01*
X28851250Y-12658750D02*
X29251250Y-13058750D01*
X29251250Y-12658750D02*
X28851250Y-13058750D01*
X29051250Y-13058750D02*
X29251250Y-12858750D01*
X29051250Y-12658750D01*
X28851250Y-12858750D01*
X29051250Y-13058750D01*
X29327500Y-8848750D02*
X29727500Y-9248750D01*
X29727500Y-8848750D02*
X29327500Y-9248750D01*
X29527500Y-9248750D02*
X29727500Y-9048750D01*
X29527500Y-8848750D01*
X29327500Y-9048750D01*
X29527500Y-9248750D01*
X29803750Y-14563750D02*
X30203750Y-14963750D01*
X30203750Y-14563750D02*
X29803750Y-14963750D01*
X30003750Y-14963750D02*
X30203750Y-14763750D01*
X30003750Y-14563750D01*
X29803750Y-14763750D01*
X30003750Y-14963750D01*
X29803750Y-16468750D02*
X30203750Y-16868750D01*
X30203750Y-16468750D02*
X29803750Y-16868750D01*
X30003750Y-16868750D02*
X30203750Y-16668750D01*
X30003750Y-16468750D01*
X29803750Y-16668750D01*
X30003750Y-16868750D01*
X30280000Y-10753750D02*
X30680000Y-11153750D01*
X30680000Y-10753750D02*
X30280000Y-11153750D01*
X30480000Y-11153750D02*
X30680000Y-10953750D01*
X30480000Y-10753750D01*
X30280000Y-10953750D01*
X30480000Y-11153750D01*
X30756250Y-12658750D02*
X31156250Y-13058750D01*
X31156250Y-12658750D02*
X30756250Y-13058750D01*
X30956250Y-13058750D02*
X31156250Y-12858750D01*
X30956250Y-12658750D01*
X30756250Y-12858750D01*
X30956250Y-13058750D01*
X31232500Y-8848750D02*
X31632500Y-9248750D01*
X31632500Y-8848750D02*
X31232500Y-9248750D01*
X31432500Y-9248750D02*
X31632500Y-9048750D01*
X31432500Y-8848750D01*
X31232500Y-9048750D01*
X31432500Y-9248750D01*
X32185000Y-10753750D02*
X32585000Y-11153750D01*
X32585000Y-10753750D02*
X32185000Y-11153750D01*
X32385000Y-11153750D02*
X32585000Y-10953750D01*
X32385000Y-10753750D01*
X32185000Y-10953750D01*
X32385000Y-11153750D01*
X32185000Y-16468750D02*
X32585000Y-16868750D01*
X32585000Y-16468750D02*
X32185000Y-16868750D01*
X32385000Y-16868750D02*
X32585000Y-16668750D01*
X32385000Y-16468750D01*
X32185000Y-16668750D01*
X32385000Y-16868750D01*
X32423125Y-14563750D02*
X32823125Y-14963750D01*
X32823125Y-14563750D02*
X32423125Y-14963750D01*
X32623125Y-14963750D02*
X32823125Y-14763750D01*
X32623125Y-14563750D01*
X32423125Y-14763750D01*
X32623125Y-14963750D01*
X33851875Y-12658750D02*
X34251875Y-13058750D01*
X34251875Y-12658750D02*
X33851875Y-13058750D01*
X34051875Y-13058750D02*
X34251875Y-12858750D01*
X34051875Y-12658750D01*
X33851875Y-12858750D01*
X34051875Y-13058750D01*
X34090000Y-8848750D02*
X34490000Y-9248750D01*
X34490000Y-8848750D02*
X34090000Y-9248750D01*
X34290000Y-9248750D02*
X34490000Y-9048750D01*
X34290000Y-8848750D01*
X34090000Y-9048750D01*
X34290000Y-9248750D01*
X34566250Y-10753750D02*
X34966250Y-11153750D01*
X34966250Y-10753750D02*
X34566250Y-11153750D01*
X34766250Y-11153750D02*
X34966250Y-10953750D01*
X34766250Y-10753750D01*
X34566250Y-10953750D01*
X34766250Y-11153750D01*
X34566250Y-16468750D02*
X34966250Y-16868750D01*
X34966250Y-16468750D02*
X34566250Y-16868750D01*
X34766250Y-16868750D02*
X34966250Y-16668750D01*
X34766250Y-16468750D01*
X34566250Y-16668750D01*
X34766250Y-16868750D01*
X35042500Y-14563750D02*
X35442500Y-14963750D01*
X35442500Y-14563750D02*
X35042500Y-14963750D01*
X35242500Y-14963750D02*
X35442500Y-14763750D01*
X35242500Y-14563750D01*
X35042500Y-14763750D01*
X35242500Y-14963750D01*
D11*
X7903253Y-17931976D02*
X7903253Y-17731976D01*
X7950872Y-17731976D01*
X7979443Y-17741500D01*
X7998491Y-17760548D01*
X8008015Y-17779595D01*
X8017539Y-17817690D01*
X8017539Y-17846262D01*
X8008015Y-17884357D01*
X7998491Y-17903405D01*
X7979443Y-17922452D01*
X7950872Y-17931976D01*
X7903253Y-17931976D01*
X8103253Y-17931976D02*
X8103253Y-17798643D01*
X8103253Y-17836738D02*
X8112777Y-17817690D01*
X8122301Y-17808167D01*
X8141348Y-17798643D01*
X8160396Y-17798643D01*
X8227062Y-17931976D02*
X8227062Y-17798643D01*
X8227062Y-17731976D02*
X8217539Y-17741500D01*
X8227062Y-17751024D01*
X8236586Y-17741500D01*
X8227062Y-17731976D01*
X8227062Y-17751024D01*
X8350872Y-17931976D02*
X8331824Y-17922452D01*
X8322301Y-17903405D01*
X8322301Y-17731976D01*
X8455634Y-17931976D02*
X8436586Y-17922452D01*
X8427063Y-17903405D01*
X8427063Y-17731976D01*
X8684205Y-17931976D02*
X8684205Y-17731976D01*
X8750872Y-17874833D01*
X8817539Y-17731976D01*
X8817539Y-17931976D01*
X8998491Y-17931976D02*
X8998491Y-17827214D01*
X8988967Y-17808167D01*
X8969920Y-17798643D01*
X8931824Y-17798643D01*
X8912777Y-17808167D01*
X8998491Y-17922452D02*
X8979444Y-17931976D01*
X8931824Y-17931976D01*
X8912777Y-17922452D01*
X8903253Y-17903405D01*
X8903253Y-17884357D01*
X8912777Y-17865310D01*
X8931824Y-17855786D01*
X8979444Y-17855786D01*
X8998491Y-17846262D01*
X9093729Y-17798643D02*
X9093729Y-17998643D01*
X9093729Y-17808167D02*
X9112777Y-17798643D01*
X9150872Y-17798643D01*
X9169920Y-17808167D01*
X9179444Y-17817690D01*
X9188967Y-17836738D01*
X9188967Y-17893881D01*
X9179444Y-17912929D01*
X9169920Y-17922452D01*
X9150872Y-17931976D01*
X9112777Y-17931976D01*
X9093729Y-17922452D01*
X9274682Y-17912929D02*
X9284205Y-17922452D01*
X9274682Y-17931976D01*
X9265158Y-17922452D01*
X9274682Y-17912929D01*
X9274682Y-17931976D01*
X9274682Y-17808167D02*
X9284205Y-17817690D01*
X9274682Y-17827214D01*
X9265158Y-17817690D01*
X9274682Y-17808167D01*
X9274682Y-17827214D01*
D12*
X7615634Y-18246500D02*
X7645634Y-18276500D01*
X7645634Y-18246500D02*
X7615634Y-18276500D01*
D11*
X7941348Y-18151976D02*
X7960396Y-18151976D01*
X7979443Y-18161500D01*
X7988967Y-18171024D01*
X7998491Y-18190071D01*
X8008015Y-18228167D01*
X8008015Y-18275786D01*
X7998491Y-18313881D01*
X7988967Y-18332929D01*
X7979443Y-18342452D01*
X7960396Y-18351976D01*
X7941348Y-18351976D01*
X7922301Y-18342452D01*
X7912777Y-18332929D01*
X7903253Y-18313881D01*
X7893729Y-18275786D01*
X7893729Y-18228167D01*
X7903253Y-18190071D01*
X7912777Y-18171024D01*
X7922301Y-18161500D01*
X7941348Y-18151976D01*
X8093729Y-18332929D02*
X8103253Y-18342452D01*
X8093729Y-18351976D01*
X8084205Y-18342452D01*
X8093729Y-18332929D01*
X8093729Y-18351976D01*
X8169920Y-18151976D02*
X8293729Y-18151976D01*
X8227062Y-18228167D01*
X8255634Y-18228167D01*
X8274682Y-18237690D01*
X8284205Y-18247214D01*
X8293729Y-18266262D01*
X8293729Y-18313881D01*
X8284205Y-18332929D01*
X8274682Y-18342452D01*
X8255634Y-18351976D01*
X8198491Y-18351976D01*
X8179443Y-18342452D01*
X8169920Y-18332929D01*
X8417539Y-18151976D02*
X8436586Y-18151976D01*
X8455634Y-18161500D01*
X8465158Y-18171024D01*
X8474682Y-18190071D01*
X8484205Y-18228167D01*
X8484205Y-18275786D01*
X8474682Y-18313881D01*
X8465158Y-18332929D01*
X8455634Y-18342452D01*
X8436586Y-18351976D01*
X8417539Y-18351976D01*
X8398491Y-18342452D01*
X8388967Y-18332929D01*
X8379443Y-18313881D01*
X8369920Y-18275786D01*
X8369920Y-18228167D01*
X8379443Y-18190071D01*
X8388967Y-18171024D01*
X8398491Y-18161500D01*
X8417539Y-18151976D01*
X8608015Y-18151976D02*
X8627063Y-18151976D01*
X8646110Y-18161500D01*
X8655634Y-18171024D01*
X8665158Y-18190071D01*
X8674682Y-18228167D01*
X8674682Y-18275786D01*
X8665158Y-18313881D01*
X8655634Y-18332929D01*
X8646110Y-18342452D01*
X8627063Y-18351976D01*
X8608015Y-18351976D01*
X8588967Y-18342452D01*
X8579444Y-18332929D01*
X8569920Y-18313881D01*
X8560396Y-18275786D01*
X8560396Y-18228167D01*
X8569920Y-18190071D01*
X8579444Y-18171024D01*
X8588967Y-18161500D01*
X8608015Y-18151976D01*
X8760396Y-18351976D02*
X8760396Y-18218643D01*
X8760396Y-18237690D02*
X8769920Y-18228167D01*
X8788967Y-18218643D01*
X8817539Y-18218643D01*
X8836586Y-18228167D01*
X8846110Y-18247214D01*
X8846110Y-18351976D01*
X8846110Y-18247214D02*
X8855634Y-18228167D01*
X8874682Y-18218643D01*
X8903253Y-18218643D01*
X8922301Y-18228167D01*
X8931824Y-18247214D01*
X8931824Y-18351976D01*
X9027063Y-18351976D02*
X9027063Y-18218643D01*
X9027063Y-18237690D02*
X9036586Y-18228167D01*
X9055634Y-18218643D01*
X9084205Y-18218643D01*
X9103253Y-18228167D01*
X9112777Y-18247214D01*
X9112777Y-18351976D01*
X9112777Y-18247214D02*
X9122301Y-18228167D01*
X9141348Y-18218643D01*
X9169920Y-18218643D01*
X9188967Y-18228167D01*
X9198491Y-18247214D01*
X9198491Y-18351976D01*
X9588967Y-18142452D02*
X9417539Y-18399595D01*
X9846110Y-18151976D02*
X9865158Y-18151976D01*
X9884205Y-18161500D01*
X9893729Y-18171024D01*
X9903253Y-18190071D01*
X9912777Y-18228167D01*
X9912777Y-18275786D01*
X9903253Y-18313881D01*
X9893729Y-18332929D01*
X9884205Y-18342452D01*
X9865158Y-18351976D01*
X9846110Y-18351976D01*
X9827063Y-18342452D01*
X9817539Y-18332929D01*
X9808015Y-18313881D01*
X9798491Y-18275786D01*
X9798491Y-18228167D01*
X9808015Y-18190071D01*
X9817539Y-18171024D01*
X9827063Y-18161500D01*
X9846110Y-18151976D01*
X9998491Y-18332929D02*
X10008015Y-18342452D01*
X9998491Y-18351976D01*
X9988967Y-18342452D01*
X9998491Y-18332929D01*
X9998491Y-18351976D01*
X10131824Y-18151976D02*
X10150872Y-18151976D01*
X10169920Y-18161500D01*
X10179444Y-18171024D01*
X10188967Y-18190071D01*
X10198491Y-18228167D01*
X10198491Y-18275786D01*
X10188967Y-18313881D01*
X10179444Y-18332929D01*
X10169920Y-18342452D01*
X10150872Y-18351976D01*
X10131824Y-18351976D01*
X10112777Y-18342452D01*
X10103253Y-18332929D01*
X10093729Y-18313881D01*
X10084205Y-18275786D01*
X10084205Y-18228167D01*
X10093729Y-18190071D01*
X10103253Y-18171024D01*
X10112777Y-18161500D01*
X10131824Y-18151976D01*
X10388967Y-18351976D02*
X10274682Y-18351976D01*
X10331824Y-18351976D02*
X10331824Y-18151976D01*
X10312777Y-18180548D01*
X10293729Y-18199595D01*
X10274682Y-18209119D01*
X10579444Y-18351976D02*
X10465158Y-18351976D01*
X10522301Y-18351976D02*
X10522301Y-18151976D01*
X10503253Y-18180548D01*
X10484205Y-18199595D01*
X10465158Y-18209119D01*
X10693729Y-18237690D02*
X10674682Y-18228167D01*
X10665158Y-18218643D01*
X10655634Y-18199595D01*
X10655634Y-18190071D01*
X10665158Y-18171024D01*
X10674682Y-18161500D01*
X10693729Y-18151976D01*
X10731824Y-18151976D01*
X10750872Y-18161500D01*
X10760396Y-18171024D01*
X10769920Y-18190071D01*
X10769920Y-18199595D01*
X10760396Y-18218643D01*
X10750872Y-18228167D01*
X10731824Y-18237690D01*
X10693729Y-18237690D01*
X10674682Y-18247214D01*
X10665158Y-18256738D01*
X10655634Y-18275786D01*
X10655634Y-18313881D01*
X10665158Y-18332929D01*
X10674682Y-18342452D01*
X10693729Y-18351976D01*
X10731824Y-18351976D01*
X10750872Y-18342452D01*
X10760396Y-18332929D01*
X10769920Y-18313881D01*
X10769920Y-18275786D01*
X10760396Y-18256738D01*
X10750872Y-18247214D01*
X10731824Y-18237690D01*
X10846110Y-18151976D02*
X10846110Y-18190071D01*
X10922301Y-18151976D02*
X10922301Y-18190071D01*
X11217539Y-18428167D02*
X11208015Y-18418643D01*
X11188967Y-18390071D01*
X11179444Y-18371024D01*
X11169920Y-18342452D01*
X11160396Y-18294833D01*
X11160396Y-18256738D01*
X11169920Y-18209119D01*
X11179444Y-18180548D01*
X11188967Y-18161500D01*
X11208015Y-18132929D01*
X11217539Y-18123405D01*
X11398491Y-18351976D02*
X11284205Y-18351976D01*
X11341348Y-18351976D02*
X11341348Y-18151976D01*
X11322301Y-18180548D01*
X11303253Y-18199595D01*
X11284205Y-18209119D01*
X11465158Y-18151976D02*
X11588967Y-18151976D01*
X11522301Y-18228167D01*
X11550872Y-18228167D01*
X11569920Y-18237690D01*
X11579443Y-18247214D01*
X11588967Y-18266262D01*
X11588967Y-18313881D01*
X11579443Y-18332929D01*
X11569920Y-18342452D01*
X11550872Y-18351976D01*
X11493729Y-18351976D01*
X11474682Y-18342452D01*
X11465158Y-18332929D01*
X11827062Y-18351976D02*
X11827062Y-18151976D01*
X11912777Y-18351976D02*
X11912777Y-18247214D01*
X11903253Y-18228167D01*
X11884205Y-18218643D01*
X11855634Y-18218643D01*
X11836586Y-18228167D01*
X11827062Y-18237690D01*
X12036586Y-18351976D02*
X12017539Y-18342452D01*
X12008015Y-18332929D01*
X11998491Y-18313881D01*
X11998491Y-18256738D01*
X12008015Y-18237690D01*
X12017539Y-18228167D01*
X12036586Y-18218643D01*
X12065158Y-18218643D01*
X12084205Y-18228167D01*
X12093729Y-18237690D01*
X12103253Y-18256738D01*
X12103253Y-18313881D01*
X12093729Y-18332929D01*
X12084205Y-18342452D01*
X12065158Y-18351976D01*
X12036586Y-18351976D01*
X12217539Y-18351976D02*
X12198491Y-18342452D01*
X12188967Y-18323405D01*
X12188967Y-18151976D01*
X12369920Y-18342452D02*
X12350872Y-18351976D01*
X12312777Y-18351976D01*
X12293729Y-18342452D01*
X12284205Y-18323405D01*
X12284205Y-18247214D01*
X12293729Y-18228167D01*
X12312777Y-18218643D01*
X12350872Y-18218643D01*
X12369920Y-18228167D01*
X12379443Y-18247214D01*
X12379443Y-18266262D01*
X12284205Y-18285310D01*
X12455634Y-18342452D02*
X12474682Y-18351976D01*
X12512777Y-18351976D01*
X12531824Y-18342452D01*
X12541348Y-18323405D01*
X12541348Y-18313881D01*
X12531824Y-18294833D01*
X12512777Y-18285310D01*
X12484205Y-18285310D01*
X12465158Y-18275786D01*
X12455634Y-18256738D01*
X12455634Y-18247214D01*
X12465158Y-18228167D01*
X12484205Y-18218643D01*
X12512777Y-18218643D01*
X12531824Y-18228167D01*
X12608015Y-18428167D02*
X12617539Y-18418643D01*
X12636586Y-18390071D01*
X12646110Y-18371024D01*
X12655634Y-18342452D01*
X12665158Y-18294833D01*
X12665158Y-18256738D01*
X12655634Y-18209119D01*
X12646110Y-18180548D01*
X12636586Y-18161500D01*
X12617539Y-18132929D01*
X12608015Y-18123405D01*
D13*
X7645634Y-18525500D02*
G75*
G03*
X7645634Y-18525500I-20000J0D01*
G01*
D11*
X7941348Y-18415976D02*
X7960396Y-18415976D01*
X7979443Y-18425500D01*
X7988967Y-18435024D01*
X7998491Y-18454071D01*
X8008015Y-18492167D01*
X8008015Y-18539786D01*
X7998491Y-18577881D01*
X7988967Y-18596929D01*
X7979443Y-18606452D01*
X7960396Y-18615976D01*
X7941348Y-18615976D01*
X7922301Y-18606452D01*
X7912777Y-18596929D01*
X7903253Y-18577881D01*
X7893729Y-18539786D01*
X7893729Y-18492167D01*
X7903253Y-18454071D01*
X7912777Y-18435024D01*
X7922301Y-18425500D01*
X7941348Y-18415976D01*
X8093729Y-18596929D02*
X8103253Y-18606452D01*
X8093729Y-18615976D01*
X8084205Y-18606452D01*
X8093729Y-18596929D01*
X8093729Y-18615976D01*
X8274682Y-18482643D02*
X8274682Y-18615976D01*
X8227062Y-18406452D02*
X8179443Y-18549310D01*
X8303253Y-18549310D01*
X8417539Y-18415976D02*
X8436586Y-18415976D01*
X8455634Y-18425500D01*
X8465158Y-18435024D01*
X8474682Y-18454071D01*
X8484205Y-18492167D01*
X8484205Y-18539786D01*
X8474682Y-18577881D01*
X8465158Y-18596929D01*
X8455634Y-18606452D01*
X8436586Y-18615976D01*
X8417539Y-18615976D01*
X8398491Y-18606452D01*
X8388967Y-18596929D01*
X8379443Y-18577881D01*
X8369920Y-18539786D01*
X8369920Y-18492167D01*
X8379443Y-18454071D01*
X8388967Y-18435024D01*
X8398491Y-18425500D01*
X8417539Y-18415976D01*
X8608015Y-18415976D02*
X8627063Y-18415976D01*
X8646110Y-18425500D01*
X8655634Y-18435024D01*
X8665158Y-18454071D01*
X8674682Y-18492167D01*
X8674682Y-18539786D01*
X8665158Y-18577881D01*
X8655634Y-18596929D01*
X8646110Y-18606452D01*
X8627063Y-18615976D01*
X8608015Y-18615976D01*
X8588967Y-18606452D01*
X8579444Y-18596929D01*
X8569920Y-18577881D01*
X8560396Y-18539786D01*
X8560396Y-18492167D01*
X8569920Y-18454071D01*
X8579444Y-18435024D01*
X8588967Y-18425500D01*
X8608015Y-18415976D01*
X8760396Y-18615976D02*
X8760396Y-18482643D01*
X8760396Y-18501690D02*
X8769920Y-18492167D01*
X8788967Y-18482643D01*
X8817539Y-18482643D01*
X8836586Y-18492167D01*
X8846110Y-18511214D01*
X8846110Y-18615976D01*
X8846110Y-18511214D02*
X8855634Y-18492167D01*
X8874682Y-18482643D01*
X8903253Y-18482643D01*
X8922301Y-18492167D01*
X8931824Y-18511214D01*
X8931824Y-18615976D01*
X9027063Y-18615976D02*
X9027063Y-18482643D01*
X9027063Y-18501690D02*
X9036586Y-18492167D01*
X9055634Y-18482643D01*
X9084205Y-18482643D01*
X9103253Y-18492167D01*
X9112777Y-18511214D01*
X9112777Y-18615976D01*
X9112777Y-18511214D02*
X9122301Y-18492167D01*
X9141348Y-18482643D01*
X9169920Y-18482643D01*
X9188967Y-18492167D01*
X9198491Y-18511214D01*
X9198491Y-18615976D01*
X9588967Y-18406452D02*
X9417539Y-18663595D01*
X9846110Y-18415976D02*
X9865158Y-18415976D01*
X9884205Y-18425500D01*
X9893729Y-18435024D01*
X9903253Y-18454071D01*
X9912777Y-18492167D01*
X9912777Y-18539786D01*
X9903253Y-18577881D01*
X9893729Y-18596929D01*
X9884205Y-18606452D01*
X9865158Y-18615976D01*
X9846110Y-18615976D01*
X9827063Y-18606452D01*
X9817539Y-18596929D01*
X9808015Y-18577881D01*
X9798491Y-18539786D01*
X9798491Y-18492167D01*
X9808015Y-18454071D01*
X9817539Y-18435024D01*
X9827063Y-18425500D01*
X9846110Y-18415976D01*
X9998491Y-18596929D02*
X10008015Y-18606452D01*
X9998491Y-18615976D01*
X9988967Y-18606452D01*
X9998491Y-18596929D01*
X9998491Y-18615976D01*
X10131824Y-18415976D02*
X10150872Y-18415976D01*
X10169920Y-18425500D01*
X10179444Y-18435024D01*
X10188967Y-18454071D01*
X10198491Y-18492167D01*
X10198491Y-18539786D01*
X10188967Y-18577881D01*
X10179444Y-18596929D01*
X10169920Y-18606452D01*
X10150872Y-18615976D01*
X10131824Y-18615976D01*
X10112777Y-18606452D01*
X10103253Y-18596929D01*
X10093729Y-18577881D01*
X10084205Y-18539786D01*
X10084205Y-18492167D01*
X10093729Y-18454071D01*
X10103253Y-18435024D01*
X10112777Y-18425500D01*
X10131824Y-18415976D01*
X10388967Y-18615976D02*
X10274682Y-18615976D01*
X10331824Y-18615976D02*
X10331824Y-18415976D01*
X10312777Y-18444548D01*
X10293729Y-18463595D01*
X10274682Y-18473119D01*
X10569920Y-18415976D02*
X10474682Y-18415976D01*
X10465158Y-18511214D01*
X10474682Y-18501690D01*
X10493729Y-18492167D01*
X10541348Y-18492167D01*
X10560396Y-18501690D01*
X10569920Y-18511214D01*
X10579444Y-18530262D01*
X10579444Y-18577881D01*
X10569920Y-18596929D01*
X10560396Y-18606452D01*
X10541348Y-18615976D01*
X10493729Y-18615976D01*
X10474682Y-18606452D01*
X10465158Y-18596929D01*
X10646110Y-18415976D02*
X10779444Y-18415976D01*
X10693729Y-18615976D01*
X10846110Y-18415976D02*
X10846110Y-18454071D01*
X10922301Y-18415976D02*
X10922301Y-18454071D01*
X11217539Y-18692167D02*
X11208015Y-18682643D01*
X11188967Y-18654071D01*
X11179444Y-18635024D01*
X11169920Y-18606452D01*
X11160396Y-18558833D01*
X11160396Y-18520738D01*
X11169920Y-18473119D01*
X11179444Y-18444548D01*
X11188967Y-18425500D01*
X11208015Y-18396929D01*
X11217539Y-18387405D01*
X11398491Y-18615976D02*
X11284205Y-18615976D01*
X11341348Y-18615976D02*
X11341348Y-18415976D01*
X11322301Y-18444548D01*
X11303253Y-18463595D01*
X11284205Y-18473119D01*
X11569920Y-18415976D02*
X11531824Y-18415976D01*
X11512777Y-18425500D01*
X11503253Y-18435024D01*
X11484205Y-18463595D01*
X11474682Y-18501690D01*
X11474682Y-18577881D01*
X11484205Y-18596929D01*
X11493729Y-18606452D01*
X11512777Y-18615976D01*
X11550872Y-18615976D01*
X11569920Y-18606452D01*
X11579443Y-18596929D01*
X11588967Y-18577881D01*
X11588967Y-18530262D01*
X11579443Y-18511214D01*
X11569920Y-18501690D01*
X11550872Y-18492167D01*
X11512777Y-18492167D01*
X11493729Y-18501690D01*
X11484205Y-18511214D01*
X11474682Y-18530262D01*
X11712777Y-18415976D02*
X11731824Y-18415976D01*
X11750872Y-18425500D01*
X11760396Y-18435024D01*
X11769920Y-18454071D01*
X11779443Y-18492167D01*
X11779443Y-18539786D01*
X11769920Y-18577881D01*
X11760396Y-18596929D01*
X11750872Y-18606452D01*
X11731824Y-18615976D01*
X11712777Y-18615976D01*
X11693729Y-18606452D01*
X11684205Y-18596929D01*
X11674682Y-18577881D01*
X11665158Y-18539786D01*
X11665158Y-18492167D01*
X11674682Y-18454071D01*
X11684205Y-18435024D01*
X11693729Y-18425500D01*
X11712777Y-18415976D01*
X12017539Y-18615976D02*
X12017539Y-18415976D01*
X12103253Y-18615976D02*
X12103253Y-18511214D01*
X12093729Y-18492167D01*
X12074682Y-18482643D01*
X12046110Y-18482643D01*
X12027062Y-18492167D01*
X12017539Y-18501690D01*
X12227062Y-18615976D02*
X12208015Y-18606452D01*
X12198491Y-18596929D01*
X12188967Y-18577881D01*
X12188967Y-18520738D01*
X12198491Y-18501690D01*
X12208015Y-18492167D01*
X12227062Y-18482643D01*
X12255634Y-18482643D01*
X12274682Y-18492167D01*
X12284205Y-18501690D01*
X12293729Y-18520738D01*
X12293729Y-18577881D01*
X12284205Y-18596929D01*
X12274682Y-18606452D01*
X12255634Y-18615976D01*
X12227062Y-18615976D01*
X12408015Y-18615976D02*
X12388967Y-18606452D01*
X12379443Y-18587405D01*
X12379443Y-18415976D01*
X12560396Y-18606452D02*
X12541348Y-18615976D01*
X12503253Y-18615976D01*
X12484205Y-18606452D01*
X12474682Y-18587405D01*
X12474682Y-18511214D01*
X12484205Y-18492167D01*
X12503253Y-18482643D01*
X12541348Y-18482643D01*
X12560396Y-18492167D01*
X12569920Y-18511214D01*
X12569920Y-18530262D01*
X12474682Y-18549310D01*
X12646110Y-18606452D02*
X12665158Y-18615976D01*
X12703253Y-18615976D01*
X12722301Y-18606452D01*
X12731824Y-18587405D01*
X12731824Y-18577881D01*
X12722301Y-18558833D01*
X12703253Y-18549310D01*
X12674682Y-18549310D01*
X12655634Y-18539786D01*
X12646110Y-18520738D01*
X12646110Y-18511214D01*
X12655634Y-18492167D01*
X12674682Y-18482643D01*
X12703253Y-18482643D01*
X12722301Y-18492167D01*
X12798491Y-18692167D02*
X12808015Y-18682643D01*
X12827062Y-18654071D01*
X12836586Y-18635024D01*
X12846110Y-18606452D01*
X12855634Y-18558833D01*
X12855634Y-18520738D01*
X12846110Y-18473119D01*
X12836586Y-18444548D01*
X12827062Y-18425500D01*
X12808015Y-18396929D01*
X12798491Y-18387405D01*
D14*
X7595634Y-18739500D02*
X7595634Y-18839500D01*
X7545634Y-18789500D02*
X7645634Y-18789500D01*
D11*
X8008015Y-18879976D02*
X7893729Y-18879976D01*
X7950872Y-18879976D02*
X7950872Y-18679976D01*
X7931824Y-18708548D01*
X7912777Y-18727595D01*
X7893729Y-18737119D01*
X8093729Y-18860929D02*
X8103253Y-18870452D01*
X8093729Y-18879976D01*
X8084205Y-18870452D01*
X8093729Y-18860929D01*
X8093729Y-18879976D01*
X8227062Y-18679976D02*
X8246110Y-18679976D01*
X8265158Y-18689500D01*
X8274682Y-18699024D01*
X8284205Y-18718071D01*
X8293729Y-18756167D01*
X8293729Y-18803786D01*
X8284205Y-18841881D01*
X8274682Y-18860929D01*
X8265158Y-18870452D01*
X8246110Y-18879976D01*
X8227062Y-18879976D01*
X8208015Y-18870452D01*
X8198491Y-18860929D01*
X8188967Y-18841881D01*
X8179443Y-18803786D01*
X8179443Y-18756167D01*
X8188967Y-18718071D01*
X8198491Y-18699024D01*
X8208015Y-18689500D01*
X8227062Y-18679976D01*
X8417539Y-18679976D02*
X8436586Y-18679976D01*
X8455634Y-18689500D01*
X8465158Y-18699024D01*
X8474682Y-18718071D01*
X8484205Y-18756167D01*
X8484205Y-18803786D01*
X8474682Y-18841881D01*
X8465158Y-18860929D01*
X8455634Y-18870452D01*
X8436586Y-18879976D01*
X8417539Y-18879976D01*
X8398491Y-18870452D01*
X8388967Y-18860929D01*
X8379443Y-18841881D01*
X8369920Y-18803786D01*
X8369920Y-18756167D01*
X8379443Y-18718071D01*
X8388967Y-18699024D01*
X8398491Y-18689500D01*
X8417539Y-18679976D01*
X8608015Y-18679976D02*
X8627063Y-18679976D01*
X8646110Y-18689500D01*
X8655634Y-18699024D01*
X8665158Y-18718071D01*
X8674682Y-18756167D01*
X8674682Y-18803786D01*
X8665158Y-18841881D01*
X8655634Y-18860929D01*
X8646110Y-18870452D01*
X8627063Y-18879976D01*
X8608015Y-18879976D01*
X8588967Y-18870452D01*
X8579444Y-18860929D01*
X8569920Y-18841881D01*
X8560396Y-18803786D01*
X8560396Y-18756167D01*
X8569920Y-18718071D01*
X8579444Y-18699024D01*
X8588967Y-18689500D01*
X8608015Y-18679976D01*
X8760396Y-18879976D02*
X8760396Y-18746643D01*
X8760396Y-18765690D02*
X8769920Y-18756167D01*
X8788967Y-18746643D01*
X8817539Y-18746643D01*
X8836586Y-18756167D01*
X8846110Y-18775214D01*
X8846110Y-18879976D01*
X8846110Y-18775214D02*
X8855634Y-18756167D01*
X8874682Y-18746643D01*
X8903253Y-18746643D01*
X8922301Y-18756167D01*
X8931824Y-18775214D01*
X8931824Y-18879976D01*
X9027063Y-18879976D02*
X9027063Y-18746643D01*
X9027063Y-18765690D02*
X9036586Y-18756167D01*
X9055634Y-18746643D01*
X9084205Y-18746643D01*
X9103253Y-18756167D01*
X9112777Y-18775214D01*
X9112777Y-18879976D01*
X9112777Y-18775214D02*
X9122301Y-18756167D01*
X9141348Y-18746643D01*
X9169920Y-18746643D01*
X9188967Y-18756167D01*
X9198491Y-18775214D01*
X9198491Y-18879976D01*
X9588967Y-18670452D02*
X9417539Y-18927595D01*
X9846110Y-18679976D02*
X9865158Y-18679976D01*
X9884205Y-18689500D01*
X9893729Y-18699024D01*
X9903253Y-18718071D01*
X9912777Y-18756167D01*
X9912777Y-18803786D01*
X9903253Y-18841881D01*
X9893729Y-18860929D01*
X9884205Y-18870452D01*
X9865158Y-18879976D01*
X9846110Y-18879976D01*
X9827063Y-18870452D01*
X9817539Y-18860929D01*
X9808015Y-18841881D01*
X9798491Y-18803786D01*
X9798491Y-18756167D01*
X9808015Y-18718071D01*
X9817539Y-18699024D01*
X9827063Y-18689500D01*
X9846110Y-18679976D01*
X9998491Y-18860929D02*
X10008015Y-18870452D01*
X9998491Y-18879976D01*
X9988967Y-18870452D01*
X9998491Y-18860929D01*
X9998491Y-18879976D01*
X10131824Y-18679976D02*
X10150872Y-18679976D01*
X10169920Y-18689500D01*
X10179444Y-18699024D01*
X10188967Y-18718071D01*
X10198491Y-18756167D01*
X10198491Y-18803786D01*
X10188967Y-18841881D01*
X10179444Y-18860929D01*
X10169920Y-18870452D01*
X10150872Y-18879976D01*
X10131824Y-18879976D01*
X10112777Y-18870452D01*
X10103253Y-18860929D01*
X10093729Y-18841881D01*
X10084205Y-18803786D01*
X10084205Y-18756167D01*
X10093729Y-18718071D01*
X10103253Y-18699024D01*
X10112777Y-18689500D01*
X10131824Y-18679976D01*
X10265158Y-18679976D02*
X10388967Y-18679976D01*
X10322301Y-18756167D01*
X10350872Y-18756167D01*
X10369920Y-18765690D01*
X10379444Y-18775214D01*
X10388967Y-18794262D01*
X10388967Y-18841881D01*
X10379444Y-18860929D01*
X10369920Y-18870452D01*
X10350872Y-18879976D01*
X10293729Y-18879976D01*
X10274682Y-18870452D01*
X10265158Y-18860929D01*
X10484205Y-18879976D02*
X10522301Y-18879976D01*
X10541348Y-18870452D01*
X10550872Y-18860929D01*
X10569920Y-18832357D01*
X10579444Y-18794262D01*
X10579444Y-18718071D01*
X10569920Y-18699024D01*
X10560396Y-18689500D01*
X10541348Y-18679976D01*
X10503253Y-18679976D01*
X10484205Y-18689500D01*
X10474682Y-18699024D01*
X10465158Y-18718071D01*
X10465158Y-18765690D01*
X10474682Y-18784738D01*
X10484205Y-18794262D01*
X10503253Y-18803786D01*
X10541348Y-18803786D01*
X10560396Y-18794262D01*
X10569920Y-18784738D01*
X10579444Y-18765690D01*
X10750872Y-18746643D02*
X10750872Y-18879976D01*
X10703253Y-18670452D02*
X10655634Y-18813310D01*
X10779444Y-18813310D01*
X10846110Y-18679976D02*
X10846110Y-18718071D01*
X10922301Y-18679976D02*
X10922301Y-18718071D01*
X11217539Y-18956167D02*
X11208015Y-18946643D01*
X11188967Y-18918071D01*
X11179444Y-18899024D01*
X11169920Y-18870452D01*
X11160396Y-18822833D01*
X11160396Y-18784738D01*
X11169920Y-18737119D01*
X11179444Y-18708548D01*
X11188967Y-18689500D01*
X11208015Y-18660929D01*
X11217539Y-18651405D01*
X11379443Y-18679976D02*
X11341348Y-18679976D01*
X11322301Y-18689500D01*
X11312777Y-18699024D01*
X11293729Y-18727595D01*
X11284205Y-18765690D01*
X11284205Y-18841881D01*
X11293729Y-18860929D01*
X11303253Y-18870452D01*
X11322301Y-18879976D01*
X11360396Y-18879976D01*
X11379443Y-18870452D01*
X11388967Y-18860929D01*
X11398491Y-18841881D01*
X11398491Y-18794262D01*
X11388967Y-18775214D01*
X11379443Y-18765690D01*
X11360396Y-18756167D01*
X11322301Y-18756167D01*
X11303253Y-18765690D01*
X11293729Y-18775214D01*
X11284205Y-18794262D01*
X11636586Y-18879976D02*
X11636586Y-18679976D01*
X11722301Y-18879976D02*
X11722301Y-18775214D01*
X11712777Y-18756167D01*
X11693729Y-18746643D01*
X11665158Y-18746643D01*
X11646110Y-18756167D01*
X11636586Y-18765690D01*
X11846110Y-18879976D02*
X11827062Y-18870452D01*
X11817539Y-18860929D01*
X11808015Y-18841881D01*
X11808015Y-18784738D01*
X11817539Y-18765690D01*
X11827062Y-18756167D01*
X11846110Y-18746643D01*
X11874682Y-18746643D01*
X11893729Y-18756167D01*
X11903253Y-18765690D01*
X11912777Y-18784738D01*
X11912777Y-18841881D01*
X11903253Y-18860929D01*
X11893729Y-18870452D01*
X11874682Y-18879976D01*
X11846110Y-18879976D01*
X12027062Y-18879976D02*
X12008015Y-18870452D01*
X11998491Y-18851405D01*
X11998491Y-18679976D01*
X12179443Y-18870452D02*
X12160396Y-18879976D01*
X12122301Y-18879976D01*
X12103253Y-18870452D01*
X12093729Y-18851405D01*
X12093729Y-18775214D01*
X12103253Y-18756167D01*
X12122301Y-18746643D01*
X12160396Y-18746643D01*
X12179443Y-18756167D01*
X12188967Y-18775214D01*
X12188967Y-18794262D01*
X12093729Y-18813310D01*
X12265158Y-18870452D02*
X12284205Y-18879976D01*
X12322301Y-18879976D01*
X12341348Y-18870452D01*
X12350872Y-18851405D01*
X12350872Y-18841881D01*
X12341348Y-18822833D01*
X12322301Y-18813310D01*
X12293729Y-18813310D01*
X12274682Y-18803786D01*
X12265158Y-18784738D01*
X12265158Y-18775214D01*
X12274682Y-18756167D01*
X12293729Y-18746643D01*
X12322301Y-18746643D01*
X12341348Y-18756167D01*
X12417539Y-18956167D02*
X12427062Y-18946643D01*
X12446110Y-18918071D01*
X12455634Y-18899024D01*
X12465158Y-18870452D01*
X12474682Y-18822833D01*
X12474682Y-18784738D01*
X12465158Y-18737119D01*
X12455634Y-18708548D01*
X12446110Y-18689500D01*
X12427062Y-18660929D01*
X12417539Y-18651405D01*
D15*
X7620006Y-19115372D02*
X7620006Y-18991628D01*
X7496262Y-18991628D01*
X7496262Y-19115372D01*
X7620006Y-19115372D01*
D11*
X8008015Y-19143976D02*
X7893729Y-19143976D01*
X7950872Y-19143976D02*
X7950872Y-18943976D01*
X7931824Y-18972548D01*
X7912777Y-18991595D01*
X7893729Y-19001119D01*
X8093729Y-19124929D02*
X8103253Y-19134452D01*
X8093729Y-19143976D01*
X8084205Y-19134452D01*
X8093729Y-19124929D01*
X8093729Y-19143976D01*
X8169920Y-18943976D02*
X8303253Y-18943976D01*
X8217539Y-19143976D01*
X8474682Y-18943976D02*
X8379443Y-18943976D01*
X8369920Y-19039214D01*
X8379443Y-19029690D01*
X8398491Y-19020167D01*
X8446110Y-19020167D01*
X8465158Y-19029690D01*
X8474682Y-19039214D01*
X8484205Y-19058262D01*
X8484205Y-19105881D01*
X8474682Y-19124929D01*
X8465158Y-19134452D01*
X8446110Y-19143976D01*
X8398491Y-19143976D01*
X8379443Y-19134452D01*
X8369920Y-19124929D01*
X8608015Y-18943976D02*
X8627063Y-18943976D01*
X8646110Y-18953500D01*
X8655634Y-18963024D01*
X8665158Y-18982071D01*
X8674682Y-19020167D01*
X8674682Y-19067786D01*
X8665158Y-19105881D01*
X8655634Y-19124929D01*
X8646110Y-19134452D01*
X8627063Y-19143976D01*
X8608015Y-19143976D01*
X8588967Y-19134452D01*
X8579444Y-19124929D01*
X8569920Y-19105881D01*
X8560396Y-19067786D01*
X8560396Y-19020167D01*
X8569920Y-18982071D01*
X8579444Y-18963024D01*
X8588967Y-18953500D01*
X8608015Y-18943976D01*
X8760396Y-19143976D02*
X8760396Y-19010643D01*
X8760396Y-19029690D02*
X8769920Y-19020167D01*
X8788967Y-19010643D01*
X8817539Y-19010643D01*
X8836586Y-19020167D01*
X8846110Y-19039214D01*
X8846110Y-19143976D01*
X8846110Y-19039214D02*
X8855634Y-19020167D01*
X8874682Y-19010643D01*
X8903253Y-19010643D01*
X8922301Y-19020167D01*
X8931824Y-19039214D01*
X8931824Y-19143976D01*
X9027063Y-19143976D02*
X9027063Y-19010643D01*
X9027063Y-19029690D02*
X9036586Y-19020167D01*
X9055634Y-19010643D01*
X9084205Y-19010643D01*
X9103253Y-19020167D01*
X9112777Y-19039214D01*
X9112777Y-19143976D01*
X9112777Y-19039214D02*
X9122301Y-19020167D01*
X9141348Y-19010643D01*
X9169920Y-19010643D01*
X9188967Y-19020167D01*
X9198491Y-19039214D01*
X9198491Y-19143976D01*
X9588967Y-18934452D02*
X9417539Y-19191595D01*
X9846110Y-18943976D02*
X9865158Y-18943976D01*
X9884205Y-18953500D01*
X9893729Y-18963024D01*
X9903253Y-18982071D01*
X9912777Y-19020167D01*
X9912777Y-19067786D01*
X9903253Y-19105881D01*
X9893729Y-19124929D01*
X9884205Y-19134452D01*
X9865158Y-19143976D01*
X9846110Y-19143976D01*
X9827063Y-19134452D01*
X9817539Y-19124929D01*
X9808015Y-19105881D01*
X9798491Y-19067786D01*
X9798491Y-19020167D01*
X9808015Y-18982071D01*
X9817539Y-18963024D01*
X9827063Y-18953500D01*
X9846110Y-18943976D01*
X9998491Y-19124929D02*
X10008015Y-19134452D01*
X9998491Y-19143976D01*
X9988967Y-19134452D01*
X9998491Y-19124929D01*
X9998491Y-19143976D01*
X10131824Y-18943976D02*
X10150872Y-18943976D01*
X10169920Y-18953500D01*
X10179444Y-18963024D01*
X10188967Y-18982071D01*
X10198491Y-19020167D01*
X10198491Y-19067786D01*
X10188967Y-19105881D01*
X10179444Y-19124929D01*
X10169920Y-19134452D01*
X10150872Y-19143976D01*
X10131824Y-19143976D01*
X10112777Y-19134452D01*
X10103253Y-19124929D01*
X10093729Y-19105881D01*
X10084205Y-19067786D01*
X10084205Y-19020167D01*
X10093729Y-18982071D01*
X10103253Y-18963024D01*
X10112777Y-18953500D01*
X10131824Y-18943976D01*
X10369920Y-18943976D02*
X10331824Y-18943976D01*
X10312777Y-18953500D01*
X10303253Y-18963024D01*
X10284205Y-18991595D01*
X10274682Y-19029690D01*
X10274682Y-19105881D01*
X10284205Y-19124929D01*
X10293729Y-19134452D01*
X10312777Y-19143976D01*
X10350872Y-19143976D01*
X10369920Y-19134452D01*
X10379444Y-19124929D01*
X10388967Y-19105881D01*
X10388967Y-19058262D01*
X10379444Y-19039214D01*
X10369920Y-19029690D01*
X10350872Y-19020167D01*
X10312777Y-19020167D01*
X10293729Y-19029690D01*
X10284205Y-19039214D01*
X10274682Y-19058262D01*
X10503253Y-19029690D02*
X10484205Y-19020167D01*
X10474682Y-19010643D01*
X10465158Y-18991595D01*
X10465158Y-18982071D01*
X10474682Y-18963024D01*
X10484205Y-18953500D01*
X10503253Y-18943976D01*
X10541348Y-18943976D01*
X10560396Y-18953500D01*
X10569920Y-18963024D01*
X10579444Y-18982071D01*
X10579444Y-18991595D01*
X10569920Y-19010643D01*
X10560396Y-19020167D01*
X10541348Y-19029690D01*
X10503253Y-19029690D01*
X10484205Y-19039214D01*
X10474682Y-19048738D01*
X10465158Y-19067786D01*
X10465158Y-19105881D01*
X10474682Y-19124929D01*
X10484205Y-19134452D01*
X10503253Y-19143976D01*
X10541348Y-19143976D01*
X10560396Y-19134452D01*
X10569920Y-19124929D01*
X10579444Y-19105881D01*
X10579444Y-19067786D01*
X10569920Y-19048738D01*
X10560396Y-19039214D01*
X10541348Y-19029690D01*
X10674682Y-19143976D02*
X10712777Y-19143976D01*
X10731824Y-19134452D01*
X10741348Y-19124929D01*
X10760396Y-19096357D01*
X10769920Y-19058262D01*
X10769920Y-18982071D01*
X10760396Y-18963024D01*
X10750872Y-18953500D01*
X10731824Y-18943976D01*
X10693729Y-18943976D01*
X10674682Y-18953500D01*
X10665158Y-18963024D01*
X10655634Y-18982071D01*
X10655634Y-19029690D01*
X10665158Y-19048738D01*
X10674682Y-19058262D01*
X10693729Y-19067786D01*
X10731824Y-19067786D01*
X10750872Y-19058262D01*
X10760396Y-19048738D01*
X10769920Y-19029690D01*
X10846110Y-18943976D02*
X10846110Y-18982071D01*
X10922301Y-18943976D02*
X10922301Y-18982071D01*
X11217539Y-19220167D02*
X11208015Y-19210643D01*
X11188967Y-19182071D01*
X11179444Y-19163024D01*
X11169920Y-19134452D01*
X11160396Y-19086833D01*
X11160396Y-19048738D01*
X11169920Y-19001119D01*
X11179444Y-18972548D01*
X11188967Y-18953500D01*
X11208015Y-18924929D01*
X11217539Y-18915405D01*
X11398491Y-19143976D02*
X11284205Y-19143976D01*
X11341348Y-19143976D02*
X11341348Y-18943976D01*
X11322301Y-18972548D01*
X11303253Y-18991595D01*
X11284205Y-19001119D01*
X11474682Y-18963024D02*
X11484205Y-18953500D01*
X11503253Y-18943976D01*
X11550872Y-18943976D01*
X11569920Y-18953500D01*
X11579443Y-18963024D01*
X11588967Y-18982071D01*
X11588967Y-19001119D01*
X11579443Y-19029690D01*
X11465158Y-19143976D01*
X11588967Y-19143976D01*
X11665158Y-18963024D02*
X11674682Y-18953500D01*
X11693729Y-18943976D01*
X11741348Y-18943976D01*
X11760396Y-18953500D01*
X11769920Y-18963024D01*
X11779443Y-18982071D01*
X11779443Y-19001119D01*
X11769920Y-19029690D01*
X11655634Y-19143976D01*
X11779443Y-19143976D01*
X12017539Y-19143976D02*
X12017539Y-18943976D01*
X12103253Y-19143976D02*
X12103253Y-19039214D01*
X12093729Y-19020167D01*
X12074682Y-19010643D01*
X12046110Y-19010643D01*
X12027062Y-19020167D01*
X12017539Y-19029690D01*
X12227062Y-19143976D02*
X12208015Y-19134452D01*
X12198491Y-19124929D01*
X12188967Y-19105881D01*
X12188967Y-19048738D01*
X12198491Y-19029690D01*
X12208015Y-19020167D01*
X12227062Y-19010643D01*
X12255634Y-19010643D01*
X12274682Y-19020167D01*
X12284205Y-19029690D01*
X12293729Y-19048738D01*
X12293729Y-19105881D01*
X12284205Y-19124929D01*
X12274682Y-19134452D01*
X12255634Y-19143976D01*
X12227062Y-19143976D01*
X12408015Y-19143976D02*
X12388967Y-19134452D01*
X12379443Y-19115405D01*
X12379443Y-18943976D01*
X12560396Y-19134452D02*
X12541348Y-19143976D01*
X12503253Y-19143976D01*
X12484205Y-19134452D01*
X12474682Y-19115405D01*
X12474682Y-19039214D01*
X12484205Y-19020167D01*
X12503253Y-19010643D01*
X12541348Y-19010643D01*
X12560396Y-19020167D01*
X12569920Y-19039214D01*
X12569920Y-19058262D01*
X12474682Y-19077310D01*
X12646110Y-19134452D02*
X12665158Y-19143976D01*
X12703253Y-19143976D01*
X12722301Y-19134452D01*
X12731824Y-19115405D01*
X12731824Y-19105881D01*
X12722301Y-19086833D01*
X12703253Y-19077310D01*
X12674682Y-19077310D01*
X12655634Y-19067786D01*
X12646110Y-19048738D01*
X12646110Y-19039214D01*
X12655634Y-19020167D01*
X12674682Y-19010643D01*
X12703253Y-19010643D01*
X12722301Y-19020167D01*
X12798491Y-19220167D02*
X12808015Y-19210643D01*
X12827062Y-19182071D01*
X12836586Y-19163024D01*
X12846110Y-19134452D01*
X12855634Y-19086833D01*
X12855634Y-19048738D01*
X12846110Y-19001119D01*
X12836586Y-18972548D01*
X12827062Y-18953500D01*
X12808015Y-18924929D01*
X12798491Y-18915405D01*
X13160396Y-19220167D02*
X13150872Y-19210643D01*
X13131824Y-19182071D01*
X13122301Y-19163024D01*
X13112777Y-19134452D01*
X13103253Y-19086833D01*
X13103253Y-19048738D01*
X13112777Y-19001119D01*
X13122301Y-18972548D01*
X13131824Y-18953500D01*
X13150872Y-18924929D01*
X13160396Y-18915405D01*
X13236586Y-19010643D02*
X13236586Y-19143976D01*
X13236586Y-19029690D02*
X13246110Y-19020167D01*
X13265158Y-19010643D01*
X13293729Y-19010643D01*
X13312777Y-19020167D01*
X13322301Y-19039214D01*
X13322301Y-19143976D01*
X13446110Y-19143976D02*
X13427062Y-19134452D01*
X13417539Y-19124929D01*
X13408015Y-19105881D01*
X13408015Y-19048738D01*
X13417539Y-19029690D01*
X13427062Y-19020167D01*
X13446110Y-19010643D01*
X13474682Y-19010643D01*
X13493729Y-19020167D01*
X13503253Y-19029690D01*
X13512777Y-19048738D01*
X13512777Y-19105881D01*
X13503253Y-19124929D01*
X13493729Y-19134452D01*
X13474682Y-19143976D01*
X13446110Y-19143976D01*
X13569920Y-19010643D02*
X13646110Y-19010643D01*
X13598491Y-18943976D02*
X13598491Y-19115405D01*
X13608015Y-19134452D01*
X13627062Y-19143976D01*
X13646110Y-19143976D01*
X13865158Y-19010643D02*
X13865158Y-19210643D01*
X13865158Y-19020167D02*
X13884205Y-19010643D01*
X13922301Y-19010643D01*
X13941348Y-19020167D01*
X13950872Y-19029690D01*
X13960396Y-19048738D01*
X13960396Y-19105881D01*
X13950872Y-19124929D01*
X13941348Y-19134452D01*
X13922301Y-19143976D01*
X13884205Y-19143976D01*
X13865158Y-19134452D01*
X14074682Y-19143976D02*
X14055634Y-19134452D01*
X14046110Y-19115405D01*
X14046110Y-18943976D01*
X14236586Y-19143976D02*
X14236586Y-19039214D01*
X14227062Y-19020167D01*
X14208015Y-19010643D01*
X14169920Y-19010643D01*
X14150872Y-19020167D01*
X14236586Y-19134452D02*
X14217539Y-19143976D01*
X14169920Y-19143976D01*
X14150872Y-19134452D01*
X14141348Y-19115405D01*
X14141348Y-19096357D01*
X14150872Y-19077310D01*
X14169920Y-19067786D01*
X14217539Y-19067786D01*
X14236586Y-19058262D01*
X14303253Y-19010643D02*
X14379443Y-19010643D01*
X14331824Y-18943976D02*
X14331824Y-19115405D01*
X14341348Y-19134452D01*
X14360396Y-19143976D01*
X14379443Y-19143976D01*
X14522301Y-19134452D02*
X14503253Y-19143976D01*
X14465158Y-19143976D01*
X14446110Y-19134452D01*
X14436586Y-19115405D01*
X14436586Y-19039214D01*
X14446110Y-19020167D01*
X14465158Y-19010643D01*
X14503253Y-19010643D01*
X14522301Y-19020167D01*
X14531824Y-19039214D01*
X14531824Y-19058262D01*
X14436586Y-19077310D01*
X14703253Y-19143976D02*
X14703253Y-18943976D01*
X14703253Y-19134452D02*
X14684205Y-19143976D01*
X14646110Y-19143976D01*
X14627062Y-19134452D01*
X14617539Y-19124929D01*
X14608015Y-19105881D01*
X14608015Y-19048738D01*
X14617539Y-19029690D01*
X14627062Y-19020167D01*
X14646110Y-19010643D01*
X14684205Y-19010643D01*
X14703253Y-19020167D01*
X14779443Y-19220167D02*
X14788967Y-19210643D01*
X14808015Y-19182071D01*
X14817539Y-19163024D01*
X14827062Y-19134452D01*
X14836586Y-19086833D01*
X14836586Y-19048738D01*
X14827062Y-19001119D01*
X14817539Y-18972548D01*
X14808015Y-18953500D01*
X14788967Y-18924929D01*
X14779443Y-18915405D01*
X7545634Y-19448500D02*
X7645634Y-19348500D01*
X7545634Y-19248500D01*
X7445634Y-19348500D01*
X7545634Y-19448500D01*
X7893729Y-19258024D02*
X7903253Y-19248500D01*
X7922301Y-19238976D01*
X7969920Y-19238976D01*
X7988967Y-19248500D01*
X7998491Y-19258024D01*
X8008015Y-19277071D01*
X8008015Y-19296119D01*
X7998491Y-19324690D01*
X7884205Y-19438976D01*
X8008015Y-19438976D01*
X8093729Y-19419929D02*
X8103253Y-19429452D01*
X8093729Y-19438976D01*
X8084205Y-19429452D01*
X8093729Y-19419929D01*
X8093729Y-19438976D01*
X8227062Y-19238976D02*
X8246110Y-19238976D01*
X8265158Y-19248500D01*
X8274682Y-19258024D01*
X8284205Y-19277071D01*
X8293729Y-19315167D01*
X8293729Y-19362786D01*
X8284205Y-19400881D01*
X8274682Y-19419929D01*
X8265158Y-19429452D01*
X8246110Y-19438976D01*
X8227062Y-19438976D01*
X8208015Y-19429452D01*
X8198491Y-19419929D01*
X8188967Y-19400881D01*
X8179443Y-19362786D01*
X8179443Y-19315167D01*
X8188967Y-19277071D01*
X8198491Y-19258024D01*
X8208015Y-19248500D01*
X8227062Y-19238976D01*
X8417539Y-19238976D02*
X8436586Y-19238976D01*
X8455634Y-19248500D01*
X8465158Y-19258024D01*
X8474682Y-19277071D01*
X8484205Y-19315167D01*
X8484205Y-19362786D01*
X8474682Y-19400881D01*
X8465158Y-19419929D01*
X8455634Y-19429452D01*
X8436586Y-19438976D01*
X8417539Y-19438976D01*
X8398491Y-19429452D01*
X8388967Y-19419929D01*
X8379443Y-19400881D01*
X8369920Y-19362786D01*
X8369920Y-19315167D01*
X8379443Y-19277071D01*
X8388967Y-19258024D01*
X8398491Y-19248500D01*
X8417539Y-19238976D01*
X8608015Y-19238976D02*
X8627063Y-19238976D01*
X8646110Y-19248500D01*
X8655634Y-19258024D01*
X8665158Y-19277071D01*
X8674682Y-19315167D01*
X8674682Y-19362786D01*
X8665158Y-19400881D01*
X8655634Y-19419929D01*
X8646110Y-19429452D01*
X8627063Y-19438976D01*
X8608015Y-19438976D01*
X8588967Y-19429452D01*
X8579444Y-19419929D01*
X8569920Y-19400881D01*
X8560396Y-19362786D01*
X8560396Y-19315167D01*
X8569920Y-19277071D01*
X8579444Y-19258024D01*
X8588967Y-19248500D01*
X8608015Y-19238976D01*
X8760396Y-19438976D02*
X8760396Y-19305643D01*
X8760396Y-19324690D02*
X8769920Y-19315167D01*
X8788967Y-19305643D01*
X8817539Y-19305643D01*
X8836586Y-19315167D01*
X8846110Y-19334214D01*
X8846110Y-19438976D01*
X8846110Y-19334214D02*
X8855634Y-19315167D01*
X8874682Y-19305643D01*
X8903253Y-19305643D01*
X8922301Y-19315167D01*
X8931824Y-19334214D01*
X8931824Y-19438976D01*
X9027063Y-19438976D02*
X9027063Y-19305643D01*
X9027063Y-19324690D02*
X9036586Y-19315167D01*
X9055634Y-19305643D01*
X9084205Y-19305643D01*
X9103253Y-19315167D01*
X9112777Y-19334214D01*
X9112777Y-19438976D01*
X9112777Y-19334214D02*
X9122301Y-19315167D01*
X9141348Y-19305643D01*
X9169920Y-19305643D01*
X9188967Y-19315167D01*
X9198491Y-19334214D01*
X9198491Y-19438976D01*
X9588967Y-19229452D02*
X9417539Y-19486595D01*
X9846110Y-19238976D02*
X9865158Y-19238976D01*
X9884205Y-19248500D01*
X9893729Y-19258024D01*
X9903253Y-19277071D01*
X9912777Y-19315167D01*
X9912777Y-19362786D01*
X9903253Y-19400881D01*
X9893729Y-19419929D01*
X9884205Y-19429452D01*
X9865158Y-19438976D01*
X9846110Y-19438976D01*
X9827063Y-19429452D01*
X9817539Y-19419929D01*
X9808015Y-19400881D01*
X9798491Y-19362786D01*
X9798491Y-19315167D01*
X9808015Y-19277071D01*
X9817539Y-19258024D01*
X9827063Y-19248500D01*
X9846110Y-19238976D01*
X9998491Y-19419929D02*
X10008015Y-19429452D01*
X9998491Y-19438976D01*
X9988967Y-19429452D01*
X9998491Y-19419929D01*
X9998491Y-19438976D01*
X10131824Y-19238976D02*
X10150872Y-19238976D01*
X10169920Y-19248500D01*
X10179444Y-19258024D01*
X10188967Y-19277071D01*
X10198491Y-19315167D01*
X10198491Y-19362786D01*
X10188967Y-19400881D01*
X10179444Y-19419929D01*
X10169920Y-19429452D01*
X10150872Y-19438976D01*
X10131824Y-19438976D01*
X10112777Y-19429452D01*
X10103253Y-19419929D01*
X10093729Y-19400881D01*
X10084205Y-19362786D01*
X10084205Y-19315167D01*
X10093729Y-19277071D01*
X10103253Y-19258024D01*
X10112777Y-19248500D01*
X10131824Y-19238976D01*
X10265158Y-19238976D02*
X10398491Y-19238976D01*
X10312777Y-19438976D01*
X10503253Y-19324690D02*
X10484205Y-19315167D01*
X10474682Y-19305643D01*
X10465158Y-19286595D01*
X10465158Y-19277071D01*
X10474682Y-19258024D01*
X10484205Y-19248500D01*
X10503253Y-19238976D01*
X10541348Y-19238976D01*
X10560396Y-19248500D01*
X10569920Y-19258024D01*
X10579444Y-19277071D01*
X10579444Y-19286595D01*
X10569920Y-19305643D01*
X10560396Y-19315167D01*
X10541348Y-19324690D01*
X10503253Y-19324690D01*
X10484205Y-19334214D01*
X10474682Y-19343738D01*
X10465158Y-19362786D01*
X10465158Y-19400881D01*
X10474682Y-19419929D01*
X10484205Y-19429452D01*
X10503253Y-19438976D01*
X10541348Y-19438976D01*
X10560396Y-19429452D01*
X10569920Y-19419929D01*
X10579444Y-19400881D01*
X10579444Y-19362786D01*
X10569920Y-19343738D01*
X10560396Y-19334214D01*
X10541348Y-19324690D01*
X10646110Y-19238976D02*
X10779444Y-19238976D01*
X10693729Y-19438976D01*
X10846110Y-19238976D02*
X10846110Y-19277071D01*
X10922301Y-19238976D02*
X10922301Y-19277071D01*
X11217539Y-19515167D02*
X11208015Y-19505643D01*
X11188967Y-19477071D01*
X11179444Y-19458024D01*
X11169920Y-19429452D01*
X11160396Y-19381833D01*
X11160396Y-19343738D01*
X11169920Y-19296119D01*
X11179444Y-19267548D01*
X11188967Y-19248500D01*
X11208015Y-19219929D01*
X11217539Y-19210405D01*
X11398491Y-19438976D02*
X11284205Y-19438976D01*
X11341348Y-19438976D02*
X11341348Y-19238976D01*
X11322301Y-19267548D01*
X11303253Y-19286595D01*
X11284205Y-19296119D01*
X11522301Y-19238976D02*
X11541348Y-19238976D01*
X11560396Y-19248500D01*
X11569920Y-19258024D01*
X11579443Y-19277071D01*
X11588967Y-19315167D01*
X11588967Y-19362786D01*
X11579443Y-19400881D01*
X11569920Y-19419929D01*
X11560396Y-19429452D01*
X11541348Y-19438976D01*
X11522301Y-19438976D01*
X11503253Y-19429452D01*
X11493729Y-19419929D01*
X11484205Y-19400881D01*
X11474682Y-19362786D01*
X11474682Y-19315167D01*
X11484205Y-19277071D01*
X11493729Y-19258024D01*
X11503253Y-19248500D01*
X11522301Y-19238976D01*
X11827062Y-19438976D02*
X11827062Y-19238976D01*
X11912777Y-19438976D02*
X11912777Y-19334214D01*
X11903253Y-19315167D01*
X11884205Y-19305643D01*
X11855634Y-19305643D01*
X11836586Y-19315167D01*
X11827062Y-19324690D01*
X12036586Y-19438976D02*
X12017539Y-19429452D01*
X12008015Y-19419929D01*
X11998491Y-19400881D01*
X11998491Y-19343738D01*
X12008015Y-19324690D01*
X12017539Y-19315167D01*
X12036586Y-19305643D01*
X12065158Y-19305643D01*
X12084205Y-19315167D01*
X12093729Y-19324690D01*
X12103253Y-19343738D01*
X12103253Y-19400881D01*
X12093729Y-19419929D01*
X12084205Y-19429452D01*
X12065158Y-19438976D01*
X12036586Y-19438976D01*
X12217539Y-19438976D02*
X12198491Y-19429452D01*
X12188967Y-19410405D01*
X12188967Y-19238976D01*
X12369920Y-19429452D02*
X12350872Y-19438976D01*
X12312777Y-19438976D01*
X12293729Y-19429452D01*
X12284205Y-19410405D01*
X12284205Y-19334214D01*
X12293729Y-19315167D01*
X12312777Y-19305643D01*
X12350872Y-19305643D01*
X12369920Y-19315167D01*
X12379443Y-19334214D01*
X12379443Y-19353262D01*
X12284205Y-19372310D01*
X12455634Y-19429452D02*
X12474682Y-19438976D01*
X12512777Y-19438976D01*
X12531824Y-19429452D01*
X12541348Y-19410405D01*
X12541348Y-19400881D01*
X12531824Y-19381833D01*
X12512777Y-19372310D01*
X12484205Y-19372310D01*
X12465158Y-19362786D01*
X12455634Y-19343738D01*
X12455634Y-19334214D01*
X12465158Y-19315167D01*
X12484205Y-19305643D01*
X12512777Y-19305643D01*
X12531824Y-19315167D01*
X12608015Y-19515167D02*
X12617539Y-19505643D01*
X12636586Y-19477071D01*
X12646110Y-19458024D01*
X12655634Y-19429452D01*
X12665158Y-19381833D01*
X12665158Y-19343738D01*
X12655634Y-19296119D01*
X12646110Y-19267548D01*
X12636586Y-19248500D01*
X12617539Y-19219929D01*
X12608015Y-19210405D01*
X12969920Y-19515167D02*
X12960396Y-19505643D01*
X12941348Y-19477071D01*
X12931824Y-19458024D01*
X12922301Y-19429452D01*
X12912777Y-19381833D01*
X12912777Y-19343738D01*
X12922301Y-19296119D01*
X12931824Y-19267548D01*
X12941348Y-19248500D01*
X12960396Y-19219929D01*
X12969920Y-19210405D01*
X13046110Y-19305643D02*
X13046110Y-19438976D01*
X13046110Y-19324690D02*
X13055634Y-19315167D01*
X13074682Y-19305643D01*
X13103253Y-19305643D01*
X13122301Y-19315167D01*
X13131824Y-19334214D01*
X13131824Y-19438976D01*
X13255634Y-19438976D02*
X13236586Y-19429452D01*
X13227062Y-19419929D01*
X13217539Y-19400881D01*
X13217539Y-19343738D01*
X13227062Y-19324690D01*
X13236586Y-19315167D01*
X13255634Y-19305643D01*
X13284205Y-19305643D01*
X13303253Y-19315167D01*
X13312777Y-19324690D01*
X13322301Y-19343738D01*
X13322301Y-19400881D01*
X13312777Y-19419929D01*
X13303253Y-19429452D01*
X13284205Y-19438976D01*
X13255634Y-19438976D01*
X13379443Y-19305643D02*
X13455634Y-19305643D01*
X13408015Y-19238976D02*
X13408015Y-19410405D01*
X13417539Y-19429452D01*
X13436586Y-19438976D01*
X13455634Y-19438976D01*
X13674682Y-19305643D02*
X13674682Y-19505643D01*
X13674682Y-19315167D02*
X13693729Y-19305643D01*
X13731824Y-19305643D01*
X13750872Y-19315167D01*
X13760396Y-19324690D01*
X13769920Y-19343738D01*
X13769920Y-19400881D01*
X13760396Y-19419929D01*
X13750872Y-19429452D01*
X13731824Y-19438976D01*
X13693729Y-19438976D01*
X13674682Y-19429452D01*
X13884205Y-19438976D02*
X13865158Y-19429452D01*
X13855634Y-19410405D01*
X13855634Y-19238976D01*
X14046110Y-19438976D02*
X14046110Y-19334214D01*
X14036586Y-19315167D01*
X14017539Y-19305643D01*
X13979443Y-19305643D01*
X13960396Y-19315167D01*
X14046110Y-19429452D02*
X14027062Y-19438976D01*
X13979443Y-19438976D01*
X13960396Y-19429452D01*
X13950872Y-19410405D01*
X13950872Y-19391357D01*
X13960396Y-19372310D01*
X13979443Y-19362786D01*
X14027062Y-19362786D01*
X14046110Y-19353262D01*
X14112777Y-19305643D02*
X14188967Y-19305643D01*
X14141348Y-19238976D02*
X14141348Y-19410405D01*
X14150872Y-19429452D01*
X14169920Y-19438976D01*
X14188967Y-19438976D01*
X14331824Y-19429452D02*
X14312777Y-19438976D01*
X14274682Y-19438976D01*
X14255634Y-19429452D01*
X14246110Y-19410405D01*
X14246110Y-19334214D01*
X14255634Y-19315167D01*
X14274682Y-19305643D01*
X14312777Y-19305643D01*
X14331824Y-19315167D01*
X14341348Y-19334214D01*
X14341348Y-19353262D01*
X14246110Y-19372310D01*
X14512777Y-19438976D02*
X14512777Y-19238976D01*
X14512777Y-19429452D02*
X14493729Y-19438976D01*
X14455634Y-19438976D01*
X14436586Y-19429452D01*
X14427062Y-19419929D01*
X14417539Y-19400881D01*
X14417539Y-19343738D01*
X14427062Y-19324690D01*
X14436586Y-19315167D01*
X14455634Y-19305643D01*
X14493729Y-19305643D01*
X14512777Y-19315167D01*
X14588967Y-19515167D02*
X14598491Y-19505643D01*
X14617539Y-19477071D01*
X14627062Y-19458024D01*
X14636586Y-19429452D01*
X14646110Y-19381833D01*
X14646110Y-19343738D01*
X14636586Y-19296119D01*
X14627062Y-19267548D01*
X14617539Y-19248500D01*
X14598491Y-19219929D01*
X14588967Y-19210405D01*
X7445634Y-19568500D02*
X7645634Y-19768500D01*
X7645634Y-19568500D02*
X7445634Y-19768500D01*
X7645634Y-19668500D02*
G75*
G03*
X7645634Y-19668500I-100000J0D01*
G01*
X7884205Y-19558976D02*
X8008015Y-19558976D01*
X7941348Y-19635167D01*
X7969920Y-19635167D01*
X7988967Y-19644690D01*
X7998491Y-19654214D01*
X8008015Y-19673262D01*
X8008015Y-19720881D01*
X7998491Y-19739929D01*
X7988967Y-19749452D01*
X7969920Y-19758976D01*
X7912777Y-19758976D01*
X7893729Y-19749452D01*
X7884205Y-19739929D01*
X8093729Y-19739929D02*
X8103253Y-19749452D01*
X8093729Y-19758976D01*
X8084205Y-19749452D01*
X8093729Y-19739929D01*
X8093729Y-19758976D01*
X8227062Y-19558976D02*
X8246110Y-19558976D01*
X8265158Y-19568500D01*
X8274682Y-19578024D01*
X8284205Y-19597071D01*
X8293729Y-19635167D01*
X8293729Y-19682786D01*
X8284205Y-19720881D01*
X8274682Y-19739929D01*
X8265158Y-19749452D01*
X8246110Y-19758976D01*
X8227062Y-19758976D01*
X8208015Y-19749452D01*
X8198491Y-19739929D01*
X8188967Y-19720881D01*
X8179443Y-19682786D01*
X8179443Y-19635167D01*
X8188967Y-19597071D01*
X8198491Y-19578024D01*
X8208015Y-19568500D01*
X8227062Y-19558976D01*
X8417539Y-19558976D02*
X8436586Y-19558976D01*
X8455634Y-19568500D01*
X8465158Y-19578024D01*
X8474682Y-19597071D01*
X8484205Y-19635167D01*
X8484205Y-19682786D01*
X8474682Y-19720881D01*
X8465158Y-19739929D01*
X8455634Y-19749452D01*
X8436586Y-19758976D01*
X8417539Y-19758976D01*
X8398491Y-19749452D01*
X8388967Y-19739929D01*
X8379443Y-19720881D01*
X8369920Y-19682786D01*
X8369920Y-19635167D01*
X8379443Y-19597071D01*
X8388967Y-19578024D01*
X8398491Y-19568500D01*
X8417539Y-19558976D01*
X8608015Y-19558976D02*
X8627063Y-19558976D01*
X8646110Y-19568500D01*
X8655634Y-19578024D01*
X8665158Y-19597071D01*
X8674682Y-19635167D01*
X8674682Y-19682786D01*
X8665158Y-19720881D01*
X8655634Y-19739929D01*
X8646110Y-19749452D01*
X8627063Y-19758976D01*
X8608015Y-19758976D01*
X8588967Y-19749452D01*
X8579444Y-19739929D01*
X8569920Y-19720881D01*
X8560396Y-19682786D01*
X8560396Y-19635167D01*
X8569920Y-19597071D01*
X8579444Y-19578024D01*
X8588967Y-19568500D01*
X8608015Y-19558976D01*
X8760396Y-19758976D02*
X8760396Y-19625643D01*
X8760396Y-19644690D02*
X8769920Y-19635167D01*
X8788967Y-19625643D01*
X8817539Y-19625643D01*
X8836586Y-19635167D01*
X8846110Y-19654214D01*
X8846110Y-19758976D01*
X8846110Y-19654214D02*
X8855634Y-19635167D01*
X8874682Y-19625643D01*
X8903253Y-19625643D01*
X8922301Y-19635167D01*
X8931824Y-19654214D01*
X8931824Y-19758976D01*
X9027063Y-19758976D02*
X9027063Y-19625643D01*
X9027063Y-19644690D02*
X9036586Y-19635167D01*
X9055634Y-19625643D01*
X9084205Y-19625643D01*
X9103253Y-19635167D01*
X9112777Y-19654214D01*
X9112777Y-19758976D01*
X9112777Y-19654214D02*
X9122301Y-19635167D01*
X9141348Y-19625643D01*
X9169920Y-19625643D01*
X9188967Y-19635167D01*
X9198491Y-19654214D01*
X9198491Y-19758976D01*
X9588967Y-19549452D02*
X9417539Y-19806595D01*
X9846110Y-19558976D02*
X9865158Y-19558976D01*
X9884205Y-19568500D01*
X9893729Y-19578024D01*
X9903253Y-19597071D01*
X9912777Y-19635167D01*
X9912777Y-19682786D01*
X9903253Y-19720881D01*
X9893729Y-19739929D01*
X9884205Y-19749452D01*
X9865158Y-19758976D01*
X9846110Y-19758976D01*
X9827063Y-19749452D01*
X9817539Y-19739929D01*
X9808015Y-19720881D01*
X9798491Y-19682786D01*
X9798491Y-19635167D01*
X9808015Y-19597071D01*
X9817539Y-19578024D01*
X9827063Y-19568500D01*
X9846110Y-19558976D01*
X9998491Y-19739929D02*
X10008015Y-19749452D01*
X9998491Y-19758976D01*
X9988967Y-19749452D01*
X9998491Y-19739929D01*
X9998491Y-19758976D01*
X10198491Y-19758976D02*
X10084205Y-19758976D01*
X10141348Y-19758976D02*
X10141348Y-19558976D01*
X10122301Y-19587548D01*
X10103253Y-19606595D01*
X10084205Y-19616119D01*
X10388967Y-19758976D02*
X10274682Y-19758976D01*
X10331824Y-19758976D02*
X10331824Y-19558976D01*
X10312777Y-19587548D01*
X10293729Y-19606595D01*
X10274682Y-19616119D01*
X10503253Y-19644690D02*
X10484205Y-19635167D01*
X10474682Y-19625643D01*
X10465158Y-19606595D01*
X10465158Y-19597071D01*
X10474682Y-19578024D01*
X10484205Y-19568500D01*
X10503253Y-19558976D01*
X10541348Y-19558976D01*
X10560396Y-19568500D01*
X10569920Y-19578024D01*
X10579444Y-19597071D01*
X10579444Y-19606595D01*
X10569920Y-19625643D01*
X10560396Y-19635167D01*
X10541348Y-19644690D01*
X10503253Y-19644690D01*
X10484205Y-19654214D01*
X10474682Y-19663738D01*
X10465158Y-19682786D01*
X10465158Y-19720881D01*
X10474682Y-19739929D01*
X10484205Y-19749452D01*
X10503253Y-19758976D01*
X10541348Y-19758976D01*
X10560396Y-19749452D01*
X10569920Y-19739929D01*
X10579444Y-19720881D01*
X10579444Y-19682786D01*
X10569920Y-19663738D01*
X10560396Y-19654214D01*
X10541348Y-19644690D01*
X10769920Y-19758976D02*
X10655634Y-19758976D01*
X10712777Y-19758976D02*
X10712777Y-19558976D01*
X10693729Y-19587548D01*
X10674682Y-19606595D01*
X10655634Y-19616119D01*
X10846110Y-19558976D02*
X10846110Y-19597071D01*
X10922301Y-19558976D02*
X10922301Y-19597071D01*
X11217539Y-19835167D02*
X11208015Y-19825643D01*
X11188967Y-19797071D01*
X11179444Y-19778024D01*
X11169920Y-19749452D01*
X11160396Y-19701833D01*
X11160396Y-19663738D01*
X11169920Y-19616119D01*
X11179444Y-19587548D01*
X11188967Y-19568500D01*
X11208015Y-19539929D01*
X11217539Y-19530405D01*
X11398491Y-19758976D02*
X11284205Y-19758976D01*
X11341348Y-19758976D02*
X11341348Y-19558976D01*
X11322301Y-19587548D01*
X11303253Y-19606595D01*
X11284205Y-19616119D01*
X11474682Y-19578024D02*
X11484205Y-19568500D01*
X11503253Y-19558976D01*
X11550872Y-19558976D01*
X11569920Y-19568500D01*
X11579443Y-19578024D01*
X11588967Y-19597071D01*
X11588967Y-19616119D01*
X11579443Y-19644690D01*
X11465158Y-19758976D01*
X11588967Y-19758976D01*
X11665158Y-19578024D02*
X11674682Y-19568500D01*
X11693729Y-19558976D01*
X11741348Y-19558976D01*
X11760396Y-19568500D01*
X11769920Y-19578024D01*
X11779443Y-19597071D01*
X11779443Y-19616119D01*
X11769920Y-19644690D01*
X11655634Y-19758976D01*
X11779443Y-19758976D01*
X12017539Y-19758976D02*
X12017539Y-19558976D01*
X12103253Y-19758976D02*
X12103253Y-19654214D01*
X12093729Y-19635167D01*
X12074682Y-19625643D01*
X12046110Y-19625643D01*
X12027062Y-19635167D01*
X12017539Y-19644690D01*
X12227062Y-19758976D02*
X12208015Y-19749452D01*
X12198491Y-19739929D01*
X12188967Y-19720881D01*
X12188967Y-19663738D01*
X12198491Y-19644690D01*
X12208015Y-19635167D01*
X12227062Y-19625643D01*
X12255634Y-19625643D01*
X12274682Y-19635167D01*
X12284205Y-19644690D01*
X12293729Y-19663738D01*
X12293729Y-19720881D01*
X12284205Y-19739929D01*
X12274682Y-19749452D01*
X12255634Y-19758976D01*
X12227062Y-19758976D01*
X12408015Y-19758976D02*
X12388967Y-19749452D01*
X12379443Y-19730405D01*
X12379443Y-19558976D01*
X12560396Y-19749452D02*
X12541348Y-19758976D01*
X12503253Y-19758976D01*
X12484205Y-19749452D01*
X12474682Y-19730405D01*
X12474682Y-19654214D01*
X12484205Y-19635167D01*
X12503253Y-19625643D01*
X12541348Y-19625643D01*
X12560396Y-19635167D01*
X12569920Y-19654214D01*
X12569920Y-19673262D01*
X12474682Y-19692310D01*
X12646110Y-19749452D02*
X12665158Y-19758976D01*
X12703253Y-19758976D01*
X12722301Y-19749452D01*
X12731824Y-19730405D01*
X12731824Y-19720881D01*
X12722301Y-19701833D01*
X12703253Y-19692310D01*
X12674682Y-19692310D01*
X12655634Y-19682786D01*
X12646110Y-19663738D01*
X12646110Y-19654214D01*
X12655634Y-19635167D01*
X12674682Y-19625643D01*
X12703253Y-19625643D01*
X12722301Y-19635167D01*
X12798491Y-19835167D02*
X12808015Y-19825643D01*
X12827062Y-19797071D01*
X12836586Y-19778024D01*
X12846110Y-19749452D01*
X12855634Y-19701833D01*
X12855634Y-19663738D01*
X12846110Y-19616119D01*
X12836586Y-19587548D01*
X12827062Y-19568500D01*
X12808015Y-19539929D01*
X12798491Y-19530405D01*
X13160396Y-19835167D02*
X13150872Y-19825643D01*
X13131824Y-19797071D01*
X13122301Y-19778024D01*
X13112777Y-19749452D01*
X13103253Y-19701833D01*
X13103253Y-19663738D01*
X13112777Y-19616119D01*
X13122301Y-19587548D01*
X13131824Y-19568500D01*
X13150872Y-19539929D01*
X13160396Y-19530405D01*
X13236586Y-19625643D02*
X13236586Y-19758976D01*
X13236586Y-19644690D02*
X13246110Y-19635167D01*
X13265158Y-19625643D01*
X13293729Y-19625643D01*
X13312777Y-19635167D01*
X13322301Y-19654214D01*
X13322301Y-19758976D01*
X13446110Y-19758976D02*
X13427062Y-19749452D01*
X13417539Y-19739929D01*
X13408015Y-19720881D01*
X13408015Y-19663738D01*
X13417539Y-19644690D01*
X13427062Y-19635167D01*
X13446110Y-19625643D01*
X13474682Y-19625643D01*
X13493729Y-19635167D01*
X13503253Y-19644690D01*
X13512777Y-19663738D01*
X13512777Y-19720881D01*
X13503253Y-19739929D01*
X13493729Y-19749452D01*
X13474682Y-19758976D01*
X13446110Y-19758976D01*
X13569920Y-19625643D02*
X13646110Y-19625643D01*
X13598491Y-19558976D02*
X13598491Y-19730405D01*
X13608015Y-19749452D01*
X13627062Y-19758976D01*
X13646110Y-19758976D01*
X13865158Y-19625643D02*
X13865158Y-19825643D01*
X13865158Y-19635167D02*
X13884205Y-19625643D01*
X13922301Y-19625643D01*
X13941348Y-19635167D01*
X13950872Y-19644690D01*
X13960396Y-19663738D01*
X13960396Y-19720881D01*
X13950872Y-19739929D01*
X13941348Y-19749452D01*
X13922301Y-19758976D01*
X13884205Y-19758976D01*
X13865158Y-19749452D01*
X14074682Y-19758976D02*
X14055634Y-19749452D01*
X14046110Y-19730405D01*
X14046110Y-19558976D01*
X14236586Y-19758976D02*
X14236586Y-19654214D01*
X14227062Y-19635167D01*
X14208015Y-19625643D01*
X14169920Y-19625643D01*
X14150872Y-19635167D01*
X14236586Y-19749452D02*
X14217539Y-19758976D01*
X14169920Y-19758976D01*
X14150872Y-19749452D01*
X14141348Y-19730405D01*
X14141348Y-19711357D01*
X14150872Y-19692310D01*
X14169920Y-19682786D01*
X14217539Y-19682786D01*
X14236586Y-19673262D01*
X14303253Y-19625643D02*
X14379443Y-19625643D01*
X14331824Y-19558976D02*
X14331824Y-19730405D01*
X14341348Y-19749452D01*
X14360396Y-19758976D01*
X14379443Y-19758976D01*
X14522301Y-19749452D02*
X14503253Y-19758976D01*
X14465158Y-19758976D01*
X14446110Y-19749452D01*
X14436586Y-19730405D01*
X14436586Y-19654214D01*
X14446110Y-19635167D01*
X14465158Y-19625643D01*
X14503253Y-19625643D01*
X14522301Y-19635167D01*
X14531824Y-19654214D01*
X14531824Y-19673262D01*
X14436586Y-19692310D01*
X14703253Y-19758976D02*
X14703253Y-19558976D01*
X14703253Y-19749452D02*
X14684205Y-19758976D01*
X14646110Y-19758976D01*
X14627062Y-19749452D01*
X14617539Y-19739929D01*
X14608015Y-19720881D01*
X14608015Y-19663738D01*
X14617539Y-19644690D01*
X14627062Y-19635167D01*
X14646110Y-19625643D01*
X14684205Y-19625643D01*
X14703253Y-19635167D01*
X14779443Y-19835167D02*
X14788967Y-19825643D01*
X14808015Y-19797071D01*
X14817539Y-19778024D01*
X14827062Y-19749452D01*
X14836586Y-19701833D01*
X14836586Y-19663738D01*
X14827062Y-19616119D01*
X14817539Y-19587548D01*
X14808015Y-19568500D01*
X14788967Y-19539929D01*
X14779443Y-19530405D01*
X7445634Y-19888500D02*
X7645634Y-20088500D01*
X7645634Y-19888500D02*
X7445634Y-20088500D01*
X7545634Y-19888500D02*
X7545634Y-20088500D01*
X7445634Y-19988500D02*
X7645634Y-19988500D01*
X7884205Y-19878976D02*
X8008015Y-19878976D01*
X7941348Y-19955167D01*
X7969920Y-19955167D01*
X7988967Y-19964690D01*
X7998491Y-19974214D01*
X8008015Y-19993262D01*
X8008015Y-20040881D01*
X7998491Y-20059929D01*
X7988967Y-20069452D01*
X7969920Y-20078976D01*
X7912777Y-20078976D01*
X7893729Y-20069452D01*
X7884205Y-20059929D01*
X8093729Y-20059929D02*
X8103253Y-20069452D01*
X8093729Y-20078976D01*
X8084205Y-20069452D01*
X8093729Y-20059929D01*
X8093729Y-20078976D01*
X8227062Y-19878976D02*
X8246110Y-19878976D01*
X8265158Y-19888500D01*
X8274682Y-19898024D01*
X8284205Y-19917071D01*
X8293729Y-19955167D01*
X8293729Y-20002786D01*
X8284205Y-20040881D01*
X8274682Y-20059929D01*
X8265158Y-20069452D01*
X8246110Y-20078976D01*
X8227062Y-20078976D01*
X8208015Y-20069452D01*
X8198491Y-20059929D01*
X8188967Y-20040881D01*
X8179443Y-20002786D01*
X8179443Y-19955167D01*
X8188967Y-19917071D01*
X8198491Y-19898024D01*
X8208015Y-19888500D01*
X8227062Y-19878976D01*
X8465158Y-19945643D02*
X8465158Y-20078976D01*
X8417539Y-19869452D02*
X8369920Y-20012310D01*
X8493729Y-20012310D01*
X8598491Y-19964690D02*
X8579444Y-19955167D01*
X8569920Y-19945643D01*
X8560396Y-19926595D01*
X8560396Y-19917071D01*
X8569920Y-19898024D01*
X8579444Y-19888500D01*
X8598491Y-19878976D01*
X8636586Y-19878976D01*
X8655634Y-19888500D01*
X8665158Y-19898024D01*
X8674682Y-19917071D01*
X8674682Y-19926595D01*
X8665158Y-19945643D01*
X8655634Y-19955167D01*
X8636586Y-19964690D01*
X8598491Y-19964690D01*
X8579444Y-19974214D01*
X8569920Y-19983738D01*
X8560396Y-20002786D01*
X8560396Y-20040881D01*
X8569920Y-20059929D01*
X8579444Y-20069452D01*
X8598491Y-20078976D01*
X8636586Y-20078976D01*
X8655634Y-20069452D01*
X8665158Y-20059929D01*
X8674682Y-20040881D01*
X8674682Y-20002786D01*
X8665158Y-19983738D01*
X8655634Y-19974214D01*
X8636586Y-19964690D01*
X8760396Y-20078976D02*
X8760396Y-19945643D01*
X8760396Y-19964690D02*
X8769920Y-19955167D01*
X8788967Y-19945643D01*
X8817539Y-19945643D01*
X8836586Y-19955167D01*
X8846110Y-19974214D01*
X8846110Y-20078976D01*
X8846110Y-19974214D02*
X8855634Y-19955167D01*
X8874682Y-19945643D01*
X8903253Y-19945643D01*
X8922301Y-19955167D01*
X8931824Y-19974214D01*
X8931824Y-20078976D01*
X9027063Y-20078976D02*
X9027063Y-19945643D01*
X9027063Y-19964690D02*
X9036586Y-19955167D01*
X9055634Y-19945643D01*
X9084205Y-19945643D01*
X9103253Y-19955167D01*
X9112777Y-19974214D01*
X9112777Y-20078976D01*
X9112777Y-19974214D02*
X9122301Y-19955167D01*
X9141348Y-19945643D01*
X9169920Y-19945643D01*
X9188967Y-19955167D01*
X9198491Y-19974214D01*
X9198491Y-20078976D01*
X9588967Y-19869452D02*
X9417539Y-20126595D01*
X9846110Y-19878976D02*
X9865158Y-19878976D01*
X9884205Y-19888500D01*
X9893729Y-19898024D01*
X9903253Y-19917071D01*
X9912777Y-19955167D01*
X9912777Y-20002786D01*
X9903253Y-20040881D01*
X9893729Y-20059929D01*
X9884205Y-20069452D01*
X9865158Y-20078976D01*
X9846110Y-20078976D01*
X9827063Y-20069452D01*
X9817539Y-20059929D01*
X9808015Y-20040881D01*
X9798491Y-20002786D01*
X9798491Y-19955167D01*
X9808015Y-19917071D01*
X9817539Y-19898024D01*
X9827063Y-19888500D01*
X9846110Y-19878976D01*
X9998491Y-20059929D02*
X10008015Y-20069452D01*
X9998491Y-20078976D01*
X9988967Y-20069452D01*
X9998491Y-20059929D01*
X9998491Y-20078976D01*
X10198491Y-20078976D02*
X10084205Y-20078976D01*
X10141348Y-20078976D02*
X10141348Y-19878976D01*
X10122301Y-19907548D01*
X10103253Y-19926595D01*
X10084205Y-19936119D01*
X10274682Y-19898024D02*
X10284205Y-19888500D01*
X10303253Y-19878976D01*
X10350872Y-19878976D01*
X10369920Y-19888500D01*
X10379444Y-19898024D01*
X10388967Y-19917071D01*
X10388967Y-19936119D01*
X10379444Y-19964690D01*
X10265158Y-20078976D01*
X10388967Y-20078976D01*
X10512777Y-19878976D02*
X10531824Y-19878976D01*
X10550872Y-19888500D01*
X10560396Y-19898024D01*
X10569920Y-19917071D01*
X10579444Y-19955167D01*
X10579444Y-20002786D01*
X10569920Y-20040881D01*
X10560396Y-20059929D01*
X10550872Y-20069452D01*
X10531824Y-20078976D01*
X10512777Y-20078976D01*
X10493729Y-20069452D01*
X10484205Y-20059929D01*
X10474682Y-20040881D01*
X10465158Y-20002786D01*
X10465158Y-19955167D01*
X10474682Y-19917071D01*
X10484205Y-19898024D01*
X10493729Y-19888500D01*
X10512777Y-19878976D01*
X10703253Y-19878976D02*
X10722301Y-19878976D01*
X10741348Y-19888500D01*
X10750872Y-19898024D01*
X10760396Y-19917071D01*
X10769920Y-19955167D01*
X10769920Y-20002786D01*
X10760396Y-20040881D01*
X10750872Y-20059929D01*
X10741348Y-20069452D01*
X10722301Y-20078976D01*
X10703253Y-20078976D01*
X10684205Y-20069452D01*
X10674682Y-20059929D01*
X10665158Y-20040881D01*
X10655634Y-20002786D01*
X10655634Y-19955167D01*
X10665158Y-19917071D01*
X10674682Y-19898024D01*
X10684205Y-19888500D01*
X10703253Y-19878976D01*
X10846110Y-19878976D02*
X10846110Y-19917071D01*
X10922301Y-19878976D02*
X10922301Y-19917071D01*
X11217539Y-20155167D02*
X11208015Y-20145643D01*
X11188967Y-20117071D01*
X11179444Y-20098024D01*
X11169920Y-20069452D01*
X11160396Y-20021833D01*
X11160396Y-19983738D01*
X11169920Y-19936119D01*
X11179444Y-19907548D01*
X11188967Y-19888500D01*
X11208015Y-19859929D01*
X11217539Y-19850405D01*
X11322301Y-19964690D02*
X11303253Y-19955167D01*
X11293729Y-19945643D01*
X11284205Y-19926595D01*
X11284205Y-19917071D01*
X11293729Y-19898024D01*
X11303253Y-19888500D01*
X11322301Y-19878976D01*
X11360396Y-19878976D01*
X11379443Y-19888500D01*
X11388967Y-19898024D01*
X11398491Y-19917071D01*
X11398491Y-19926595D01*
X11388967Y-19945643D01*
X11379443Y-19955167D01*
X11360396Y-19964690D01*
X11322301Y-19964690D01*
X11303253Y-19974214D01*
X11293729Y-19983738D01*
X11284205Y-20002786D01*
X11284205Y-20040881D01*
X11293729Y-20059929D01*
X11303253Y-20069452D01*
X11322301Y-20078976D01*
X11360396Y-20078976D01*
X11379443Y-20069452D01*
X11388967Y-20059929D01*
X11398491Y-20040881D01*
X11398491Y-20002786D01*
X11388967Y-19983738D01*
X11379443Y-19974214D01*
X11360396Y-19964690D01*
X11636586Y-20078976D02*
X11636586Y-19878976D01*
X11722301Y-20078976D02*
X11722301Y-19974214D01*
X11712777Y-19955167D01*
X11693729Y-19945643D01*
X11665158Y-19945643D01*
X11646110Y-19955167D01*
X11636586Y-19964690D01*
X11846110Y-20078976D02*
X11827062Y-20069452D01*
X11817539Y-20059929D01*
X11808015Y-20040881D01*
X11808015Y-19983738D01*
X11817539Y-19964690D01*
X11827062Y-19955167D01*
X11846110Y-19945643D01*
X11874682Y-19945643D01*
X11893729Y-19955167D01*
X11903253Y-19964690D01*
X11912777Y-19983738D01*
X11912777Y-20040881D01*
X11903253Y-20059929D01*
X11893729Y-20069452D01*
X11874682Y-20078976D01*
X11846110Y-20078976D01*
X12027062Y-20078976D02*
X12008015Y-20069452D01*
X11998491Y-20050405D01*
X11998491Y-19878976D01*
X12179443Y-20069452D02*
X12160396Y-20078976D01*
X12122301Y-20078976D01*
X12103253Y-20069452D01*
X12093729Y-20050405D01*
X12093729Y-19974214D01*
X12103253Y-19955167D01*
X12122301Y-19945643D01*
X12160396Y-19945643D01*
X12179443Y-19955167D01*
X12188967Y-19974214D01*
X12188967Y-19993262D01*
X12093729Y-20012310D01*
X12265158Y-20069452D02*
X12284205Y-20078976D01*
X12322301Y-20078976D01*
X12341348Y-20069452D01*
X12350872Y-20050405D01*
X12350872Y-20040881D01*
X12341348Y-20021833D01*
X12322301Y-20012310D01*
X12293729Y-20012310D01*
X12274682Y-20002786D01*
X12265158Y-19983738D01*
X12265158Y-19974214D01*
X12274682Y-19955167D01*
X12293729Y-19945643D01*
X12322301Y-19945643D01*
X12341348Y-19955167D01*
X12417539Y-20155167D02*
X12427062Y-20145643D01*
X12446110Y-20117071D01*
X12455634Y-20098024D01*
X12465158Y-20069452D01*
X12474682Y-20021833D01*
X12474682Y-19983738D01*
X12465158Y-19936119D01*
X12455634Y-19907548D01*
X12446110Y-19888500D01*
X12427062Y-19859929D01*
X12417539Y-19850405D01*
X12779443Y-20155167D02*
X12769920Y-20145643D01*
X12750872Y-20117071D01*
X12741348Y-20098024D01*
X12731824Y-20069452D01*
X12722301Y-20021833D01*
X12722301Y-19983738D01*
X12731824Y-19936119D01*
X12741348Y-19907548D01*
X12750872Y-19888500D01*
X12769920Y-19859929D01*
X12779443Y-19850405D01*
X12855634Y-19945643D02*
X12855634Y-20078976D01*
X12855634Y-19964690D02*
X12865158Y-19955167D01*
X12884205Y-19945643D01*
X12912777Y-19945643D01*
X12931824Y-19955167D01*
X12941348Y-19974214D01*
X12941348Y-20078976D01*
X13065158Y-20078976D02*
X13046110Y-20069452D01*
X13036586Y-20059929D01*
X13027062Y-20040881D01*
X13027062Y-19983738D01*
X13036586Y-19964690D01*
X13046110Y-19955167D01*
X13065158Y-19945643D01*
X13093729Y-19945643D01*
X13112777Y-19955167D01*
X13122301Y-19964690D01*
X13131824Y-19983738D01*
X13131824Y-20040881D01*
X13122301Y-20059929D01*
X13112777Y-20069452D01*
X13093729Y-20078976D01*
X13065158Y-20078976D01*
X13188967Y-19945643D02*
X13265158Y-19945643D01*
X13217539Y-19878976D02*
X13217539Y-20050405D01*
X13227062Y-20069452D01*
X13246110Y-20078976D01*
X13265158Y-20078976D01*
X13484205Y-19945643D02*
X13484205Y-20145643D01*
X13484205Y-19955167D02*
X13503253Y-19945643D01*
X13541348Y-19945643D01*
X13560396Y-19955167D01*
X13569920Y-19964690D01*
X13579443Y-19983738D01*
X13579443Y-20040881D01*
X13569920Y-20059929D01*
X13560396Y-20069452D01*
X13541348Y-20078976D01*
X13503253Y-20078976D01*
X13484205Y-20069452D01*
X13693729Y-20078976D02*
X13674682Y-20069452D01*
X13665158Y-20050405D01*
X13665158Y-19878976D01*
X13855634Y-20078976D02*
X13855634Y-19974214D01*
X13846110Y-19955167D01*
X13827062Y-19945643D01*
X13788967Y-19945643D01*
X13769920Y-19955167D01*
X13855634Y-20069452D02*
X13836586Y-20078976D01*
X13788967Y-20078976D01*
X13769920Y-20069452D01*
X13760396Y-20050405D01*
X13760396Y-20031357D01*
X13769920Y-20012310D01*
X13788967Y-20002786D01*
X13836586Y-20002786D01*
X13855634Y-19993262D01*
X13922301Y-19945643D02*
X13998491Y-19945643D01*
X13950872Y-19878976D02*
X13950872Y-20050405D01*
X13960396Y-20069452D01*
X13979443Y-20078976D01*
X13998491Y-20078976D01*
X14141348Y-20069452D02*
X14122301Y-20078976D01*
X14084205Y-20078976D01*
X14065158Y-20069452D01*
X14055634Y-20050405D01*
X14055634Y-19974214D01*
X14065158Y-19955167D01*
X14084205Y-19945643D01*
X14122301Y-19945643D01*
X14141348Y-19955167D01*
X14150872Y-19974214D01*
X14150872Y-19993262D01*
X14055634Y-20012310D01*
X14322301Y-20078976D02*
X14322301Y-19878976D01*
X14322301Y-20069452D02*
X14303253Y-20078976D01*
X14265158Y-20078976D01*
X14246110Y-20069452D01*
X14236586Y-20059929D01*
X14227062Y-20040881D01*
X14227062Y-19983738D01*
X14236586Y-19964690D01*
X14246110Y-19955167D01*
X14265158Y-19945643D01*
X14303253Y-19945643D01*
X14322301Y-19955167D01*
X14398491Y-20155167D02*
X14408015Y-20145643D01*
X14427062Y-20117071D01*
X14436586Y-20098024D01*
X14446110Y-20069452D01*
X14455634Y-20021833D01*
X14455634Y-19983738D01*
X14446110Y-19936119D01*
X14436586Y-19907548D01*
X14427062Y-19888500D01*
X14408015Y-19859929D01*
X14398491Y-19850405D01*
X7445634Y-20208500D02*
X7645634Y-20408500D01*
X7645634Y-20208500D02*
X7445634Y-20408500D01*
X7616345Y-20379211D02*
X7616345Y-20237789D01*
X7474923Y-20237789D01*
X7474923Y-20379211D01*
X7616345Y-20379211D01*
X7884205Y-20198976D02*
X8008015Y-20198976D01*
X7941348Y-20275167D01*
X7969920Y-20275167D01*
X7988967Y-20284690D01*
X7998491Y-20294214D01*
X8008015Y-20313262D01*
X8008015Y-20360881D01*
X7998491Y-20379929D01*
X7988967Y-20389452D01*
X7969920Y-20398976D01*
X7912777Y-20398976D01*
X7893729Y-20389452D01*
X7884205Y-20379929D01*
X8093729Y-20379929D02*
X8103253Y-20389452D01*
X8093729Y-20398976D01*
X8084205Y-20389452D01*
X8093729Y-20379929D01*
X8093729Y-20398976D01*
X8198491Y-20398976D02*
X8236586Y-20398976D01*
X8255634Y-20389452D01*
X8265158Y-20379929D01*
X8284205Y-20351357D01*
X8293729Y-20313262D01*
X8293729Y-20237071D01*
X8284205Y-20218024D01*
X8274682Y-20208500D01*
X8255634Y-20198976D01*
X8217539Y-20198976D01*
X8198491Y-20208500D01*
X8188967Y-20218024D01*
X8179443Y-20237071D01*
X8179443Y-20284690D01*
X8188967Y-20303738D01*
X8198491Y-20313262D01*
X8217539Y-20322786D01*
X8255634Y-20322786D01*
X8274682Y-20313262D01*
X8284205Y-20303738D01*
X8293729Y-20284690D01*
X8408015Y-20284690D02*
X8388967Y-20275167D01*
X8379443Y-20265643D01*
X8369920Y-20246595D01*
X8369920Y-20237071D01*
X8379443Y-20218024D01*
X8388967Y-20208500D01*
X8408015Y-20198976D01*
X8446110Y-20198976D01*
X8465158Y-20208500D01*
X8474682Y-20218024D01*
X8484205Y-20237071D01*
X8484205Y-20246595D01*
X8474682Y-20265643D01*
X8465158Y-20275167D01*
X8446110Y-20284690D01*
X8408015Y-20284690D01*
X8388967Y-20294214D01*
X8379443Y-20303738D01*
X8369920Y-20322786D01*
X8369920Y-20360881D01*
X8379443Y-20379929D01*
X8388967Y-20389452D01*
X8408015Y-20398976D01*
X8446110Y-20398976D01*
X8465158Y-20389452D01*
X8474682Y-20379929D01*
X8484205Y-20360881D01*
X8484205Y-20322786D01*
X8474682Y-20303738D01*
X8465158Y-20294214D01*
X8446110Y-20284690D01*
X8598491Y-20284690D02*
X8579444Y-20275167D01*
X8569920Y-20265643D01*
X8560396Y-20246595D01*
X8560396Y-20237071D01*
X8569920Y-20218024D01*
X8579444Y-20208500D01*
X8598491Y-20198976D01*
X8636586Y-20198976D01*
X8655634Y-20208500D01*
X8665158Y-20218024D01*
X8674682Y-20237071D01*
X8674682Y-20246595D01*
X8665158Y-20265643D01*
X8655634Y-20275167D01*
X8636586Y-20284690D01*
X8598491Y-20284690D01*
X8579444Y-20294214D01*
X8569920Y-20303738D01*
X8560396Y-20322786D01*
X8560396Y-20360881D01*
X8569920Y-20379929D01*
X8579444Y-20389452D01*
X8598491Y-20398976D01*
X8636586Y-20398976D01*
X8655634Y-20389452D01*
X8665158Y-20379929D01*
X8674682Y-20360881D01*
X8674682Y-20322786D01*
X8665158Y-20303738D01*
X8655634Y-20294214D01*
X8636586Y-20284690D01*
X8760396Y-20398976D02*
X8760396Y-20265643D01*
X8760396Y-20284690D02*
X8769920Y-20275167D01*
X8788967Y-20265643D01*
X8817539Y-20265643D01*
X8836586Y-20275167D01*
X8846110Y-20294214D01*
X8846110Y-20398976D01*
X8846110Y-20294214D02*
X8855634Y-20275167D01*
X8874682Y-20265643D01*
X8903253Y-20265643D01*
X8922301Y-20275167D01*
X8931824Y-20294214D01*
X8931824Y-20398976D01*
X9027063Y-20398976D02*
X9027063Y-20265643D01*
X9027063Y-20284690D02*
X9036586Y-20275167D01*
X9055634Y-20265643D01*
X9084205Y-20265643D01*
X9103253Y-20275167D01*
X9112777Y-20294214D01*
X9112777Y-20398976D01*
X9112777Y-20294214D02*
X9122301Y-20275167D01*
X9141348Y-20265643D01*
X9169920Y-20265643D01*
X9188967Y-20275167D01*
X9198491Y-20294214D01*
X9198491Y-20398976D01*
X9588967Y-20189452D02*
X9417539Y-20446595D01*
X9846110Y-20198976D02*
X9865158Y-20198976D01*
X9884205Y-20208500D01*
X9893729Y-20218024D01*
X9903253Y-20237071D01*
X9912777Y-20275167D01*
X9912777Y-20322786D01*
X9903253Y-20360881D01*
X9893729Y-20379929D01*
X9884205Y-20389452D01*
X9865158Y-20398976D01*
X9846110Y-20398976D01*
X9827063Y-20389452D01*
X9817539Y-20379929D01*
X9808015Y-20360881D01*
X9798491Y-20322786D01*
X9798491Y-20275167D01*
X9808015Y-20237071D01*
X9817539Y-20218024D01*
X9827063Y-20208500D01*
X9846110Y-20198976D01*
X9998491Y-20379929D02*
X10008015Y-20389452D01*
X9998491Y-20398976D01*
X9988967Y-20389452D01*
X9998491Y-20379929D01*
X9998491Y-20398976D01*
X10198491Y-20398976D02*
X10084205Y-20398976D01*
X10141348Y-20398976D02*
X10141348Y-20198976D01*
X10122301Y-20227548D01*
X10103253Y-20246595D01*
X10084205Y-20256119D01*
X10379444Y-20198976D02*
X10284205Y-20198976D01*
X10274682Y-20294214D01*
X10284205Y-20284690D01*
X10303253Y-20275167D01*
X10350872Y-20275167D01*
X10369920Y-20284690D01*
X10379444Y-20294214D01*
X10388967Y-20313262D01*
X10388967Y-20360881D01*
X10379444Y-20379929D01*
X10369920Y-20389452D01*
X10350872Y-20398976D01*
X10303253Y-20398976D01*
X10284205Y-20389452D01*
X10274682Y-20379929D01*
X10455634Y-20198976D02*
X10588967Y-20198976D01*
X10503253Y-20398976D01*
X10703253Y-20198976D02*
X10722301Y-20198976D01*
X10741348Y-20208500D01*
X10750872Y-20218024D01*
X10760396Y-20237071D01*
X10769920Y-20275167D01*
X10769920Y-20322786D01*
X10760396Y-20360881D01*
X10750872Y-20379929D01*
X10741348Y-20389452D01*
X10722301Y-20398976D01*
X10703253Y-20398976D01*
X10684205Y-20389452D01*
X10674682Y-20379929D01*
X10665158Y-20360881D01*
X10655634Y-20322786D01*
X10655634Y-20275167D01*
X10665158Y-20237071D01*
X10674682Y-20218024D01*
X10684205Y-20208500D01*
X10703253Y-20198976D01*
X10846110Y-20198976D02*
X10846110Y-20237071D01*
X10922301Y-20198976D02*
X10922301Y-20237071D01*
X11217539Y-20475167D02*
X11208015Y-20465643D01*
X11188967Y-20437071D01*
X11179444Y-20418024D01*
X11169920Y-20389452D01*
X11160396Y-20341833D01*
X11160396Y-20303738D01*
X11169920Y-20256119D01*
X11179444Y-20227548D01*
X11188967Y-20208500D01*
X11208015Y-20179929D01*
X11217539Y-20170405D01*
X11322301Y-20284690D02*
X11303253Y-20275167D01*
X11293729Y-20265643D01*
X11284205Y-20246595D01*
X11284205Y-20237071D01*
X11293729Y-20218024D01*
X11303253Y-20208500D01*
X11322301Y-20198976D01*
X11360396Y-20198976D01*
X11379443Y-20208500D01*
X11388967Y-20218024D01*
X11398491Y-20237071D01*
X11398491Y-20246595D01*
X11388967Y-20265643D01*
X11379443Y-20275167D01*
X11360396Y-20284690D01*
X11322301Y-20284690D01*
X11303253Y-20294214D01*
X11293729Y-20303738D01*
X11284205Y-20322786D01*
X11284205Y-20360881D01*
X11293729Y-20379929D01*
X11303253Y-20389452D01*
X11322301Y-20398976D01*
X11360396Y-20398976D01*
X11379443Y-20389452D01*
X11388967Y-20379929D01*
X11398491Y-20360881D01*
X11398491Y-20322786D01*
X11388967Y-20303738D01*
X11379443Y-20294214D01*
X11360396Y-20284690D01*
X11636586Y-20398976D02*
X11636586Y-20198976D01*
X11722301Y-20398976D02*
X11722301Y-20294214D01*
X11712777Y-20275167D01*
X11693729Y-20265643D01*
X11665158Y-20265643D01*
X11646110Y-20275167D01*
X11636586Y-20284690D01*
X11846110Y-20398976D02*
X11827062Y-20389452D01*
X11817539Y-20379929D01*
X11808015Y-20360881D01*
X11808015Y-20303738D01*
X11817539Y-20284690D01*
X11827062Y-20275167D01*
X11846110Y-20265643D01*
X11874682Y-20265643D01*
X11893729Y-20275167D01*
X11903253Y-20284690D01*
X11912777Y-20303738D01*
X11912777Y-20360881D01*
X11903253Y-20379929D01*
X11893729Y-20389452D01*
X11874682Y-20398976D01*
X11846110Y-20398976D01*
X12027062Y-20398976D02*
X12008015Y-20389452D01*
X11998491Y-20370405D01*
X11998491Y-20198976D01*
X12179443Y-20389452D02*
X12160396Y-20398976D01*
X12122301Y-20398976D01*
X12103253Y-20389452D01*
X12093729Y-20370405D01*
X12093729Y-20294214D01*
X12103253Y-20275167D01*
X12122301Y-20265643D01*
X12160396Y-20265643D01*
X12179443Y-20275167D01*
X12188967Y-20294214D01*
X12188967Y-20313262D01*
X12093729Y-20332310D01*
X12265158Y-20389452D02*
X12284205Y-20398976D01*
X12322301Y-20398976D01*
X12341348Y-20389452D01*
X12350872Y-20370405D01*
X12350872Y-20360881D01*
X12341348Y-20341833D01*
X12322301Y-20332310D01*
X12293729Y-20332310D01*
X12274682Y-20322786D01*
X12265158Y-20303738D01*
X12265158Y-20294214D01*
X12274682Y-20275167D01*
X12293729Y-20265643D01*
X12322301Y-20265643D01*
X12341348Y-20275167D01*
X12417539Y-20475167D02*
X12427062Y-20465643D01*
X12446110Y-20437071D01*
X12455634Y-20418024D01*
X12465158Y-20389452D01*
X12474682Y-20341833D01*
X12474682Y-20303738D01*
X12465158Y-20256119D01*
X12455634Y-20227548D01*
X12446110Y-20208500D01*
X12427062Y-20179929D01*
X12417539Y-20170405D01*
X12779443Y-20475167D02*
X12769920Y-20465643D01*
X12750872Y-20437071D01*
X12741348Y-20418024D01*
X12731824Y-20389452D01*
X12722301Y-20341833D01*
X12722301Y-20303738D01*
X12731824Y-20256119D01*
X12741348Y-20227548D01*
X12750872Y-20208500D01*
X12769920Y-20179929D01*
X12779443Y-20170405D01*
X12855634Y-20265643D02*
X12855634Y-20398976D01*
X12855634Y-20284690D02*
X12865158Y-20275167D01*
X12884205Y-20265643D01*
X12912777Y-20265643D01*
X12931824Y-20275167D01*
X12941348Y-20294214D01*
X12941348Y-20398976D01*
X13065158Y-20398976D02*
X13046110Y-20389452D01*
X13036586Y-20379929D01*
X13027062Y-20360881D01*
X13027062Y-20303738D01*
X13036586Y-20284690D01*
X13046110Y-20275167D01*
X13065158Y-20265643D01*
X13093729Y-20265643D01*
X13112777Y-20275167D01*
X13122301Y-20284690D01*
X13131824Y-20303738D01*
X13131824Y-20360881D01*
X13122301Y-20379929D01*
X13112777Y-20389452D01*
X13093729Y-20398976D01*
X13065158Y-20398976D01*
X13188967Y-20265643D02*
X13265158Y-20265643D01*
X13217539Y-20198976D02*
X13217539Y-20370405D01*
X13227062Y-20389452D01*
X13246110Y-20398976D01*
X13265158Y-20398976D01*
X13484205Y-20265643D02*
X13484205Y-20465643D01*
X13484205Y-20275167D02*
X13503253Y-20265643D01*
X13541348Y-20265643D01*
X13560396Y-20275167D01*
X13569920Y-20284690D01*
X13579443Y-20303738D01*
X13579443Y-20360881D01*
X13569920Y-20379929D01*
X13560396Y-20389452D01*
X13541348Y-20398976D01*
X13503253Y-20398976D01*
X13484205Y-20389452D01*
X13693729Y-20398976D02*
X13674682Y-20389452D01*
X13665158Y-20370405D01*
X13665158Y-20198976D01*
X13855634Y-20398976D02*
X13855634Y-20294214D01*
X13846110Y-20275167D01*
X13827062Y-20265643D01*
X13788967Y-20265643D01*
X13769920Y-20275167D01*
X13855634Y-20389452D02*
X13836586Y-20398976D01*
X13788967Y-20398976D01*
X13769920Y-20389452D01*
X13760396Y-20370405D01*
X13760396Y-20351357D01*
X13769920Y-20332310D01*
X13788967Y-20322786D01*
X13836586Y-20322786D01*
X13855634Y-20313262D01*
X13922301Y-20265643D02*
X13998491Y-20265643D01*
X13950872Y-20198976D02*
X13950872Y-20370405D01*
X13960396Y-20389452D01*
X13979443Y-20398976D01*
X13998491Y-20398976D01*
X14141348Y-20389452D02*
X14122301Y-20398976D01*
X14084205Y-20398976D01*
X14065158Y-20389452D01*
X14055634Y-20370405D01*
X14055634Y-20294214D01*
X14065158Y-20275167D01*
X14084205Y-20265643D01*
X14122301Y-20265643D01*
X14141348Y-20275167D01*
X14150872Y-20294214D01*
X14150872Y-20313262D01*
X14055634Y-20332310D01*
X14322301Y-20398976D02*
X14322301Y-20198976D01*
X14322301Y-20389452D02*
X14303253Y-20398976D01*
X14265158Y-20398976D01*
X14246110Y-20389452D01*
X14236586Y-20379929D01*
X14227062Y-20360881D01*
X14227062Y-20303738D01*
X14236586Y-20284690D01*
X14246110Y-20275167D01*
X14265158Y-20265643D01*
X14303253Y-20265643D01*
X14322301Y-20275167D01*
X14398491Y-20475167D02*
X14408015Y-20465643D01*
X14427062Y-20437071D01*
X14436586Y-20418024D01*
X14446110Y-20389452D01*
X14455634Y-20341833D01*
X14455634Y-20303738D01*
X14446110Y-20256119D01*
X14436586Y-20227548D01*
X14427062Y-20208500D01*
X14408015Y-20179929D01*
X14398491Y-20170405D01*
X7445634Y-20528500D02*
X7645634Y-20728500D01*
X7645634Y-20528500D02*
X7445634Y-20728500D01*
X7545634Y-20728500D02*
X7645634Y-20628500D01*
X7545634Y-20528500D01*
X7445634Y-20628500D01*
X7545634Y-20728500D01*
X7988967Y-20585643D02*
X7988967Y-20718976D01*
X7941348Y-20509452D02*
X7893729Y-20652310D01*
X8017539Y-20652310D01*
X8093729Y-20699929D02*
X8103253Y-20709452D01*
X8093729Y-20718976D01*
X8084205Y-20709452D01*
X8093729Y-20699929D01*
X8093729Y-20718976D01*
X8227062Y-20518976D02*
X8246110Y-20518976D01*
X8265158Y-20528500D01*
X8274682Y-20538024D01*
X8284205Y-20557071D01*
X8293729Y-20595167D01*
X8293729Y-20642786D01*
X8284205Y-20680881D01*
X8274682Y-20699929D01*
X8265158Y-20709452D01*
X8246110Y-20718976D01*
X8227062Y-20718976D01*
X8208015Y-20709452D01*
X8198491Y-20699929D01*
X8188967Y-20680881D01*
X8179443Y-20642786D01*
X8179443Y-20595167D01*
X8188967Y-20557071D01*
X8198491Y-20538024D01*
X8208015Y-20528500D01*
X8227062Y-20518976D01*
X8417539Y-20518976D02*
X8436586Y-20518976D01*
X8455634Y-20528500D01*
X8465158Y-20538024D01*
X8474682Y-20557071D01*
X8484205Y-20595167D01*
X8484205Y-20642786D01*
X8474682Y-20680881D01*
X8465158Y-20699929D01*
X8455634Y-20709452D01*
X8436586Y-20718976D01*
X8417539Y-20718976D01*
X8398491Y-20709452D01*
X8388967Y-20699929D01*
X8379443Y-20680881D01*
X8369920Y-20642786D01*
X8369920Y-20595167D01*
X8379443Y-20557071D01*
X8388967Y-20538024D01*
X8398491Y-20528500D01*
X8417539Y-20518976D01*
X8608015Y-20518976D02*
X8627063Y-20518976D01*
X8646110Y-20528500D01*
X8655634Y-20538024D01*
X8665158Y-20557071D01*
X8674682Y-20595167D01*
X8674682Y-20642786D01*
X8665158Y-20680881D01*
X8655634Y-20699929D01*
X8646110Y-20709452D01*
X8627063Y-20718976D01*
X8608015Y-20718976D01*
X8588967Y-20709452D01*
X8579444Y-20699929D01*
X8569920Y-20680881D01*
X8560396Y-20642786D01*
X8560396Y-20595167D01*
X8569920Y-20557071D01*
X8579444Y-20538024D01*
X8588967Y-20528500D01*
X8608015Y-20518976D01*
X8760396Y-20718976D02*
X8760396Y-20585643D01*
X8760396Y-20604690D02*
X8769920Y-20595167D01*
X8788967Y-20585643D01*
X8817539Y-20585643D01*
X8836586Y-20595167D01*
X8846110Y-20614214D01*
X8846110Y-20718976D01*
X8846110Y-20614214D02*
X8855634Y-20595167D01*
X8874682Y-20585643D01*
X8903253Y-20585643D01*
X8922301Y-20595167D01*
X8931824Y-20614214D01*
X8931824Y-20718976D01*
X9027063Y-20718976D02*
X9027063Y-20585643D01*
X9027063Y-20604690D02*
X9036586Y-20595167D01*
X9055634Y-20585643D01*
X9084205Y-20585643D01*
X9103253Y-20595167D01*
X9112777Y-20614214D01*
X9112777Y-20718976D01*
X9112777Y-20614214D02*
X9122301Y-20595167D01*
X9141348Y-20585643D01*
X9169920Y-20585643D01*
X9188967Y-20595167D01*
X9198491Y-20614214D01*
X9198491Y-20718976D01*
X9588967Y-20509452D02*
X9417539Y-20766595D01*
X9846110Y-20518976D02*
X9865158Y-20518976D01*
X9884205Y-20528500D01*
X9893729Y-20538024D01*
X9903253Y-20557071D01*
X9912777Y-20595167D01*
X9912777Y-20642786D01*
X9903253Y-20680881D01*
X9893729Y-20699929D01*
X9884205Y-20709452D01*
X9865158Y-20718976D01*
X9846110Y-20718976D01*
X9827063Y-20709452D01*
X9817539Y-20699929D01*
X9808015Y-20680881D01*
X9798491Y-20642786D01*
X9798491Y-20595167D01*
X9808015Y-20557071D01*
X9817539Y-20538024D01*
X9827063Y-20528500D01*
X9846110Y-20518976D01*
X9998491Y-20699929D02*
X10008015Y-20709452D01*
X9998491Y-20718976D01*
X9988967Y-20709452D01*
X9998491Y-20699929D01*
X9998491Y-20718976D01*
X10198491Y-20718976D02*
X10084205Y-20718976D01*
X10141348Y-20718976D02*
X10141348Y-20518976D01*
X10122301Y-20547548D01*
X10103253Y-20566595D01*
X10084205Y-20576119D01*
X10379444Y-20518976D02*
X10284205Y-20518976D01*
X10274682Y-20614214D01*
X10284205Y-20604690D01*
X10303253Y-20595167D01*
X10350872Y-20595167D01*
X10369920Y-20604690D01*
X10379444Y-20614214D01*
X10388967Y-20633262D01*
X10388967Y-20680881D01*
X10379444Y-20699929D01*
X10369920Y-20709452D01*
X10350872Y-20718976D01*
X10303253Y-20718976D01*
X10284205Y-20709452D01*
X10274682Y-20699929D01*
X10455634Y-20518976D02*
X10588967Y-20518976D01*
X10503253Y-20718976D01*
X10760396Y-20518976D02*
X10665158Y-20518976D01*
X10655634Y-20614214D01*
X10665158Y-20604690D01*
X10684205Y-20595167D01*
X10731824Y-20595167D01*
X10750872Y-20604690D01*
X10760396Y-20614214D01*
X10769920Y-20633262D01*
X10769920Y-20680881D01*
X10760396Y-20699929D01*
X10750872Y-20709452D01*
X10731824Y-20718976D01*
X10684205Y-20718976D01*
X10665158Y-20709452D01*
X10655634Y-20699929D01*
X10846110Y-20518976D02*
X10846110Y-20557071D01*
X10922301Y-20518976D02*
X10922301Y-20557071D01*
X11217539Y-20795167D02*
X11208015Y-20785643D01*
X11188967Y-20757071D01*
X11179444Y-20738024D01*
X11169920Y-20709452D01*
X11160396Y-20661833D01*
X11160396Y-20623738D01*
X11169920Y-20576119D01*
X11179444Y-20547548D01*
X11188967Y-20528500D01*
X11208015Y-20499929D01*
X11217539Y-20490405D01*
X11379443Y-20518976D02*
X11341348Y-20518976D01*
X11322301Y-20528500D01*
X11312777Y-20538024D01*
X11293729Y-20566595D01*
X11284205Y-20604690D01*
X11284205Y-20680881D01*
X11293729Y-20699929D01*
X11303253Y-20709452D01*
X11322301Y-20718976D01*
X11360396Y-20718976D01*
X11379443Y-20709452D01*
X11388967Y-20699929D01*
X11398491Y-20680881D01*
X11398491Y-20633262D01*
X11388967Y-20614214D01*
X11379443Y-20604690D01*
X11360396Y-20595167D01*
X11322301Y-20595167D01*
X11303253Y-20604690D01*
X11293729Y-20614214D01*
X11284205Y-20633262D01*
X11588967Y-20718976D02*
X11474682Y-20718976D01*
X11531824Y-20718976D02*
X11531824Y-20518976D01*
X11512777Y-20547548D01*
X11493729Y-20566595D01*
X11474682Y-20576119D01*
X11827062Y-20718976D02*
X11827062Y-20518976D01*
X11912777Y-20718976D02*
X11912777Y-20614214D01*
X11903253Y-20595167D01*
X11884205Y-20585643D01*
X11855634Y-20585643D01*
X11836586Y-20595167D01*
X11827062Y-20604690D01*
X12036586Y-20718976D02*
X12017539Y-20709452D01*
X12008015Y-20699929D01*
X11998491Y-20680881D01*
X11998491Y-20623738D01*
X12008015Y-20604690D01*
X12017539Y-20595167D01*
X12036586Y-20585643D01*
X12065158Y-20585643D01*
X12084205Y-20595167D01*
X12093729Y-20604690D01*
X12103253Y-20623738D01*
X12103253Y-20680881D01*
X12093729Y-20699929D01*
X12084205Y-20709452D01*
X12065158Y-20718976D01*
X12036586Y-20718976D01*
X12217539Y-20718976D02*
X12198491Y-20709452D01*
X12188967Y-20690405D01*
X12188967Y-20518976D01*
X12369920Y-20709452D02*
X12350872Y-20718976D01*
X12312777Y-20718976D01*
X12293729Y-20709452D01*
X12284205Y-20690405D01*
X12284205Y-20614214D01*
X12293729Y-20595167D01*
X12312777Y-20585643D01*
X12350872Y-20585643D01*
X12369920Y-20595167D01*
X12379443Y-20614214D01*
X12379443Y-20633262D01*
X12284205Y-20652310D01*
X12455634Y-20709452D02*
X12474682Y-20718976D01*
X12512777Y-20718976D01*
X12531824Y-20709452D01*
X12541348Y-20690405D01*
X12541348Y-20680881D01*
X12531824Y-20661833D01*
X12512777Y-20652310D01*
X12484205Y-20652310D01*
X12465158Y-20642786D01*
X12455634Y-20623738D01*
X12455634Y-20614214D01*
X12465158Y-20595167D01*
X12484205Y-20585643D01*
X12512777Y-20585643D01*
X12531824Y-20595167D01*
X12608015Y-20795167D02*
X12617539Y-20785643D01*
X12636586Y-20757071D01*
X12646110Y-20738024D01*
X12655634Y-20709452D01*
X12665158Y-20661833D01*
X12665158Y-20623738D01*
X12655634Y-20576119D01*
X12646110Y-20547548D01*
X12636586Y-20528500D01*
X12617539Y-20499929D01*
X12608015Y-20490405D01*
X12969920Y-20795167D02*
X12960396Y-20785643D01*
X12941348Y-20757071D01*
X12931824Y-20738024D01*
X12922301Y-20709452D01*
X12912777Y-20661833D01*
X12912777Y-20623738D01*
X12922301Y-20576119D01*
X12931824Y-20547548D01*
X12941348Y-20528500D01*
X12960396Y-20499929D01*
X12969920Y-20490405D01*
X13046110Y-20585643D02*
X13046110Y-20718976D01*
X13046110Y-20604690D02*
X13055634Y-20595167D01*
X13074682Y-20585643D01*
X13103253Y-20585643D01*
X13122301Y-20595167D01*
X13131824Y-20614214D01*
X13131824Y-20718976D01*
X13255634Y-20718976D02*
X13236586Y-20709452D01*
X13227062Y-20699929D01*
X13217539Y-20680881D01*
X13217539Y-20623738D01*
X13227062Y-20604690D01*
X13236586Y-20595167D01*
X13255634Y-20585643D01*
X13284205Y-20585643D01*
X13303253Y-20595167D01*
X13312777Y-20604690D01*
X13322301Y-20623738D01*
X13322301Y-20680881D01*
X13312777Y-20699929D01*
X13303253Y-20709452D01*
X13284205Y-20718976D01*
X13255634Y-20718976D01*
X13379443Y-20585643D02*
X13455634Y-20585643D01*
X13408015Y-20518976D02*
X13408015Y-20690405D01*
X13417539Y-20709452D01*
X13436586Y-20718976D01*
X13455634Y-20718976D01*
X13674682Y-20585643D02*
X13674682Y-20785643D01*
X13674682Y-20595167D02*
X13693729Y-20585643D01*
X13731824Y-20585643D01*
X13750872Y-20595167D01*
X13760396Y-20604690D01*
X13769920Y-20623738D01*
X13769920Y-20680881D01*
X13760396Y-20699929D01*
X13750872Y-20709452D01*
X13731824Y-20718976D01*
X13693729Y-20718976D01*
X13674682Y-20709452D01*
X13884205Y-20718976D02*
X13865158Y-20709452D01*
X13855634Y-20690405D01*
X13855634Y-20518976D01*
X14046110Y-20718976D02*
X14046110Y-20614214D01*
X14036586Y-20595167D01*
X14017539Y-20585643D01*
X13979443Y-20585643D01*
X13960396Y-20595167D01*
X14046110Y-20709452D02*
X14027062Y-20718976D01*
X13979443Y-20718976D01*
X13960396Y-20709452D01*
X13950872Y-20690405D01*
X13950872Y-20671357D01*
X13960396Y-20652310D01*
X13979443Y-20642786D01*
X14027062Y-20642786D01*
X14046110Y-20633262D01*
X14112777Y-20585643D02*
X14188967Y-20585643D01*
X14141348Y-20518976D02*
X14141348Y-20690405D01*
X14150872Y-20709452D01*
X14169920Y-20718976D01*
X14188967Y-20718976D01*
X14331824Y-20709452D02*
X14312777Y-20718976D01*
X14274682Y-20718976D01*
X14255634Y-20709452D01*
X14246110Y-20690405D01*
X14246110Y-20614214D01*
X14255634Y-20595167D01*
X14274682Y-20585643D01*
X14312777Y-20585643D01*
X14331824Y-20595167D01*
X14341348Y-20614214D01*
X14341348Y-20633262D01*
X14246110Y-20652310D01*
X14512777Y-20718976D02*
X14512777Y-20518976D01*
X14512777Y-20709452D02*
X14493729Y-20718976D01*
X14455634Y-20718976D01*
X14436586Y-20709452D01*
X14427062Y-20699929D01*
X14417539Y-20680881D01*
X14417539Y-20623738D01*
X14427062Y-20604690D01*
X14436586Y-20595167D01*
X14455634Y-20585643D01*
X14493729Y-20585643D01*
X14512777Y-20595167D01*
X14588967Y-20795167D02*
X14598491Y-20785643D01*
X14617539Y-20757071D01*
X14627062Y-20738024D01*
X14636586Y-20709452D01*
X14646110Y-20661833D01*
X14646110Y-20623738D01*
X14636586Y-20576119D01*
X14627062Y-20547548D01*
X14617539Y-20528500D01*
X14598491Y-20499929D01*
X14588967Y-20490405D01*
M02*
