M48
; DRILL file {KiCad 7.0.1} date Tue 25 Apr 2023 07:54:33 PM CEST
; FORMAT={-:-/ absolute / metric / decimal}
; #@! TF.CreationDate,2023-04-25T19:54:33+02:00
; #@! TF.GenerationSoftware,Kicad,Pcbnew,7.0.1
; #@! TF.FileFunction,MixedPlating,1,2
FMAT,2
METRIC
; #@! TA.AperFunction,Plated,PTH,ComponentDrill
T1C0.300
; #@! TA.AperFunction,Plated,PTH,ViaDrill
T2C0.400
; #@! TA.AperFunction,Plated,PTH,ComponentDrill
T3C1.000
; #@! TA.AperFunction,NonPlated,NPTH,ComponentDrill
T4C1.750
; #@! TA.AperFunction,NonPlated,NPTH,ComponentDrill
T5C2.000
; #@! TA.AperFunction,NonPlated,NPTH,ComponentDrill
T6C3.000
; #@! TA.AperFunction,NonPlated,NPTH,ComponentDrill
T7C3.048
; #@! TA.AperFunction,NonPlated,NPTH,ComponentDrill
T8C3.988
; #@! TA.AperFunction,NonPlated,NPTH,ComponentDrill
T9C4.000
%
G90
G05
T1
X215.752Y-115.094
X217.413Y-113.432
X217.413Y-115.094
X217.413Y-116.755
X219.075Y-111.77
X219.075Y-113.432
X219.075Y-115.094
X219.075Y-116.755
X219.075Y-118.417
X220.737Y-113.432
X220.737Y-115.094
X220.737Y-116.755
X222.398Y-115.094
T2
X78.581Y-89.694
X78.989Y-167.079
X83.309Y-119.355
X83.344Y-108.744
X83.344Y-126.206
X84.931Y-162.719
X87.86Y-116.53
X88.377Y-132.504
X89.184Y-162.228
X89.658Y-96.285
X90.02Y-94.81
X90.502Y-143.387
X95.55Y-131.67
X97.631Y-89.694
X105.569Y-107.156
X105.577Y-118.965
X108.744Y-162.719
X111.919Y-127.794
X116.681Y-89.694
X123.031Y-143.669
X126.194Y-118.588
X126.206Y-108.744
X129.381Y-162.719
X130.969Y-127.794
X135.731Y-89.694
X142.081Y-143.669
X145.256Y-108.744
X145.258Y-118.21
X146.73Y-120.41
X150.019Y-127.794
X154.781Y-89.694
X161.131Y-143.669
X164.306Y-108.744
X164.309Y-117.833
X169.069Y-127.794
X173.831Y-89.694
X180.181Y-143.669
X183.353Y-117.455
X183.356Y-108.744
X184.88Y-120.35
X185.12Y-96.344
X188.119Y-127.794
X192.881Y-89.694
X199.231Y-143.669
X202.401Y-117.078
X202.406Y-108.744
X204.054Y-96.344
X206.0Y-113.0
X206.92Y-99.626
X207.169Y-127.794
X210.005Y-93.325
X210.01Y-151.564
X210.017Y-121.143
X211.119Y-94.461
X211.931Y-89.694
X211.96Y-162.423
X212.081Y-116.174
X212.253Y-108.149
X214.066Y-111.442
X214.068Y-113.367
X214.083Y-112.376
X214.309Y-99.716
X214.346Y-108.087
X214.405Y-115.204
X214.78Y-120.27
X214.785Y-138.073
X215.275Y-111.614
X215.56Y-110.652
X216.804Y-111.082
X217.238Y-101.322
X217.333Y-109.184
X218.238Y-120.263
X218.281Y-143.669
X219.027Y-109.422
X219.034Y-110.422
X219.093Y-120.783
X219.38Y-105.82
X219.932Y-120.153
X220.85Y-120.019
X221.5Y-105.0
X221.754Y-109.111
X221.904Y-120.13
X221.993Y-119.197
X222.154Y-102.787
X222.95Y-118.969
X223.0Y-102.0
X223.152Y-96.349
X223.359Y-112.037
X223.433Y-125.098
X223.77Y-115.02
X224.17Y-117.05
X225.175Y-111.144
X225.18Y-109.826
X225.24Y-103.89
X226.114Y-123.362
X226.33Y-127.7
X226.468Y-116.962
X226.73Y-105.987
X228.402Y-117.406
X229.295Y-117.855
X230.188Y-118.305
X230.4Y-129.61
X231.02Y-89.66
X231.031Y-111.828
X231.187Y-118.754
X231.249Y-101.02
X232.072Y-119.218
X232.392Y-111.136
X232.5Y-102.0
X232.702Y-115.447
X233.023Y-119.653
X233.428Y-102.787
X234.294Y-112.305
X235.01Y-125.79
X237.289Y-115.472
X237.331Y-143.669
X240.506Y-108.744
X240.528Y-118.844
X242.207Y-96.383
X245.269Y-127.794
X245.81Y-99.56
X245.88Y-95.2
X247.1Y-100.56
X250.031Y-89.694
X251.61Y-115.369
X256.381Y-143.669
X259.555Y-118.466
X259.556Y-108.744
X261.282Y-96.331
X264.319Y-127.794
X269.081Y-89.694
X270.676Y-115.377
X275.431Y-143.669
X278.586Y-118.089
X278.606Y-108.744
X283.369Y-127.794
X288.131Y-89.694
X289.711Y-115.377
X292.922Y-162.381
X294.481Y-143.669
X297.638Y-117.711
X297.656Y-108.744
X302.419Y-127.794
X307.181Y-89.694
X308.794Y-115.295
X316.706Y-108.744
X316.708Y-162.407
X316.716Y-117.334
X320.675Y-143.669
X333.361Y-124.366
X335.756Y-89.694
X337.87Y-135.43
X340.32Y-97.45
X340.519Y-117.475
X342.106Y-162.719
X343.694Y-143.669
X350.32Y-112.7
X356.47Y-151.93
T3
X226.55Y-95.94
X226.55Y-98.48
X226.55Y-101.02
X229.09Y-95.94
X229.09Y-98.48
X229.09Y-101.02
T4
X80.645Y-90.487
X85.407Y-109.537
X85.407Y-166.688
X87.789Y-128.588
X90.805Y-90.487
X92.551Y-147.637
X95.567Y-109.537
X95.567Y-166.688
X97.949Y-128.588
X99.695Y-90.487
X102.711Y-147.637
X109.22Y-109.537
X109.22Y-166.688
X109.855Y-90.487
X113.983Y-128.588
X118.745Y-90.487
X119.38Y-109.537
X119.38Y-166.688
X123.507Y-147.637
X124.142Y-128.588
X128.27Y-109.537
X128.905Y-90.487
X133.032Y-128.588
X133.032Y-166.688
X133.667Y-147.637
X137.795Y-90.487
X138.43Y-109.537
X142.558Y-147.637
X143.192Y-128.588
X143.192Y-166.688
X147.32Y-109.537
X147.955Y-90.487
X152.082Y-128.588
X152.718Y-147.637
X156.845Y-90.487
X157.48Y-109.537
X161.607Y-147.637
X162.243Y-128.588
X166.37Y-109.537
X167.005Y-90.487
X171.132Y-128.588
X171.767Y-147.637
X175.895Y-90.487
X176.53Y-109.537
X180.657Y-147.637
X181.292Y-128.588
X185.42Y-109.537
X186.055Y-90.487
X190.183Y-128.588
X190.817Y-147.637
X194.945Y-90.487
X195.58Y-109.537
X199.707Y-147.637
X200.343Y-128.588
X204.47Y-109.537
X205.105Y-90.487
X209.232Y-128.588
X209.867Y-147.637
X213.995Y-90.487
X213.995Y-166.688
X214.63Y-109.537
X218.757Y-147.637
X219.392Y-128.588
X223.52Y-109.537
X224.155Y-90.487
X224.155Y-166.688
X228.282Y-128.588
X228.917Y-147.637
X233.045Y-90.487
X233.68Y-109.537
X237.807Y-147.637
X238.442Y-128.588
X242.57Y-109.537
X243.205Y-90.487
X247.332Y-128.588
X247.968Y-147.637
X252.095Y-90.487
X252.73Y-109.537
X256.858Y-147.637
X257.493Y-128.588
X261.62Y-109.537
X262.255Y-90.487
X266.382Y-128.588
X267.017Y-147.637
X271.145Y-90.487
X271.78Y-109.537
X275.907Y-147.637
X276.542Y-128.588
X280.67Y-109.537
X281.305Y-90.487
X285.433Y-128.588
X286.067Y-147.637
X290.195Y-90.487
X290.83Y-109.537
X294.957Y-147.637
X294.957Y-166.688
X295.592Y-128.588
X299.72Y-109.537
X300.355Y-90.487
X304.482Y-128.588
X305.118Y-147.637
X305.118Y-166.688
X309.245Y-90.487
X309.88Y-109.537
X314.642Y-128.588
X318.77Y-109.537
X318.77Y-166.688
X319.405Y-90.487
X321.151Y-147.637
X328.93Y-109.537
X328.93Y-166.688
X331.311Y-147.637
X335.439Y-128.588
X337.82Y-90.487
X342.582Y-109.537
X342.582Y-166.688
X345.599Y-128.588
X347.345Y-147.637
X347.98Y-90.487
X352.743Y-109.537
X352.743Y-166.688
X357.505Y-147.637
T5
X79.575Y-109.536
X101.207Y-166.686
X119.065Y-147.635
X149.45Y-166.682
X180.947Y-110.469
X257.182Y-110.453
X266.094Y-166.681
X313.13Y-148.295
X335.755Y-109.531
X336.945Y-166.682
T6
X81.915Y-87.947
X86.677Y-106.997
X86.677Y-164.147
X88.265Y-85.407
X89.059Y-126.047
X93.027Y-104.457
X93.027Y-161.607
X93.821Y-145.097
X95.409Y-123.507
X100.171Y-142.558
X100.965Y-87.947
X107.315Y-85.407
X110.49Y-106.997
X110.49Y-164.147
X115.252Y-126.047
X116.84Y-104.457
X116.84Y-161.607
X120.015Y-87.947
X121.602Y-123.507
X124.777Y-145.097
X126.365Y-85.407
X129.54Y-106.997
X131.127Y-142.558
X134.302Y-126.047
X134.302Y-164.147
X135.89Y-104.457
X139.065Y-87.947
X140.653Y-123.507
X140.653Y-161.607
X143.827Y-145.097
X145.415Y-85.407
X148.59Y-106.997
X150.177Y-142.558
X153.352Y-126.047
X154.94Y-104.457
X158.115Y-87.947
X159.702Y-123.507
X162.877Y-145.097
X164.465Y-85.407
X167.64Y-106.997
X169.227Y-142.558
X172.403Y-126.047
X173.99Y-104.457
X177.165Y-87.947
X178.752Y-123.507
X181.927Y-145.097
X183.515Y-85.407
X186.69Y-106.997
X188.278Y-142.558
X191.452Y-126.047
X193.04Y-104.457
X196.215Y-87.947
X197.802Y-123.507
X200.977Y-145.097
X202.565Y-85.407
X205.74Y-106.997
X207.327Y-142.558
X210.502Y-126.047
X212.09Y-104.457
X215.265Y-87.947
X215.265Y-164.147
X216.852Y-123.507
X220.028Y-145.097
X221.615Y-85.407
X221.615Y-161.607
X224.79Y-106.997
X226.377Y-142.558
X229.552Y-126.047
X231.14Y-104.457
X234.315Y-87.947
X235.903Y-123.507
X239.077Y-145.097
X240.665Y-85.407
X243.84Y-106.997
X245.427Y-142.558
X248.602Y-126.047
X250.19Y-104.457
X253.365Y-87.947
X254.952Y-123.507
X258.127Y-145.097
X259.715Y-85.407
X262.89Y-106.997
X264.477Y-142.558
X267.652Y-126.047
X269.24Y-104.457
X272.415Y-87.947
X274.002Y-123.507
X277.178Y-145.097
X278.765Y-85.407
X281.94Y-106.997
X283.527Y-142.558
X286.702Y-126.047
X288.29Y-104.457
X291.465Y-87.947
X293.053Y-123.507
X296.227Y-145.097
X296.227Y-164.147
X297.815Y-85.407
X300.99Y-106.997
X302.577Y-142.558
X302.577Y-161.607
X305.752Y-126.047
X307.34Y-104.457
X310.515Y-87.947
X312.102Y-123.507
X316.865Y-85.407
X320.04Y-106.997
X320.04Y-164.147
X322.421Y-145.097
X326.39Y-104.457
X326.39Y-161.607
X328.771Y-142.558
X336.709Y-126.047
X339.09Y-87.947
X343.059Y-123.507
X343.852Y-106.997
X343.852Y-164.147
X345.44Y-85.407
X348.615Y-145.097
X350.202Y-104.457
X350.202Y-161.607
X354.965Y-142.558
T7
X85.693Y-140.653
X109.569Y-140.653
X161.925Y-173.672
X276.225Y-173.672
X328.581Y-121.602
X330.962Y-83.502
X352.457Y-121.602
X354.838Y-83.502
T8
X85.693Y-155.892
X109.569Y-155.892
X161.925Y-158.433
X276.225Y-158.433
X328.581Y-136.843
X330.962Y-98.742
X352.457Y-136.843
X354.838Y-98.742
T9
X85.725Y-90.487
X90.487Y-109.537
X90.487Y-166.688
X92.869Y-128.588
X97.631Y-147.637
X104.775Y-90.487
X114.3Y-109.537
X114.3Y-166.688
X119.062Y-128.588
X123.825Y-90.487
X128.588Y-147.637
X133.35Y-109.537
X138.112Y-128.588
X138.112Y-166.688
X142.875Y-90.487
X147.637Y-147.637
X152.4Y-109.537
X157.162Y-128.588
X161.925Y-90.487
X166.688Y-147.637
X171.45Y-109.537
X176.213Y-128.588
X180.975Y-90.487
X185.737Y-147.637
X190.5Y-109.537
X195.262Y-128.588
X200.025Y-90.487
X204.787Y-147.637
X209.55Y-109.537
X214.312Y-128.588
X219.075Y-90.487
X219.075Y-166.688
X223.837Y-147.637
X228.6Y-109.537
X233.362Y-128.588
X238.125Y-90.487
X242.887Y-147.637
X247.65Y-109.537
X252.412Y-128.588
X257.175Y-90.487
X261.938Y-147.637
X266.7Y-109.537
X271.462Y-128.588
X276.225Y-90.487
X280.988Y-147.637
X285.75Y-109.537
X290.512Y-128.588
X295.275Y-90.487
X300.037Y-147.637
X300.037Y-166.688
X304.8Y-109.537
X309.562Y-128.588
X314.325Y-90.487
X323.85Y-109.537
X323.85Y-166.688
X326.231Y-147.637
X340.519Y-128.588
X342.9Y-90.487
X347.662Y-109.537
X347.662Y-166.688
X352.425Y-147.637
T0
M30
