%TF.GenerationSoftware,KiCad,Pcbnew,(6.0.9)*%
%TF.CreationDate,2022-12-17T16:52:12+01:00*%
%TF.ProjectId,pcb-hotswap,7063622d-686f-4747-9377-61702e6b6963,1.0*%
%TF.SameCoordinates,Original*%
%TF.FileFunction,Legend,Top*%
%TF.FilePolarity,Positive*%
%FSLAX46Y46*%
G04 Gerber Fmt 4.6, Leading zero omitted, Abs format (unit mm)*
G04 Created by KiCad (PCBNEW (6.0.9)) date 2022-12-17 16:52:12*
%MOMM*%
%LPD*%
G01*
G04 APERTURE LIST*
%ADD10C,0.150000*%
%ADD11C,0.400000*%
%ADD12C,0.100000*%
%ADD13C,1.750000*%
%ADD14C,3.000000*%
%ADD15C,4.000000*%
%ADD16C,2.400000*%
%ADD17C,3.987800*%
%ADD18C,3.048000*%
%ADD19C,1.700000*%
G04 APERTURE END LIST*
D10*
%TO.C,*%
%TD*%
%LPC*%
D11*
X182310190Y-167479523D02*
X182595904Y-167574761D01*
X183072095Y-167574761D01*
X183262571Y-167479523D01*
X183357809Y-167384285D01*
X183453047Y-167193809D01*
X183453047Y-167003333D01*
X183357809Y-166812857D01*
X183262571Y-166717619D01*
X183072095Y-166622380D01*
X182691142Y-166527142D01*
X182500666Y-166431904D01*
X182405428Y-166336666D01*
X182310190Y-166146190D01*
X182310190Y-165955714D01*
X182405428Y-165765238D01*
X182500666Y-165670000D01*
X182691142Y-165574761D01*
X183167333Y-165574761D01*
X183453047Y-165670000D01*
X184119714Y-166241428D02*
X184595904Y-167574761D01*
X185072095Y-166241428D02*
X184595904Y-167574761D01*
X184405428Y-168050952D01*
X184310190Y-168146190D01*
X184119714Y-168241428D01*
X185834000Y-166241428D02*
X185834000Y-167574761D01*
X185834000Y-166431904D02*
X185929238Y-166336666D01*
X186119714Y-166241428D01*
X186405428Y-166241428D01*
X186595904Y-166336666D01*
X186691142Y-166527142D01*
X186691142Y-167574761D01*
X187357809Y-166241428D02*
X188119714Y-166241428D01*
X187643523Y-165574761D02*
X187643523Y-167289047D01*
X187738761Y-167479523D01*
X187929238Y-167574761D01*
X188119714Y-167574761D01*
X188786380Y-167574761D02*
X188786380Y-165574761D01*
X189643523Y-167574761D02*
X189643523Y-166527142D01*
X189548285Y-166336666D01*
X189357809Y-166241428D01*
X189072095Y-166241428D01*
X188881619Y-166336666D01*
X188786380Y-166431904D01*
X193072095Y-167574761D02*
X192119714Y-167574761D01*
X192119714Y-165574761D01*
X194595904Y-167574761D02*
X194595904Y-166527142D01*
X194500666Y-166336666D01*
X194310190Y-166241428D01*
X193929238Y-166241428D01*
X193738761Y-166336666D01*
X194595904Y-167479523D02*
X194405428Y-167574761D01*
X193929238Y-167574761D01*
X193738761Y-167479523D01*
X193643523Y-167289047D01*
X193643523Y-167098571D01*
X193738761Y-166908095D01*
X193929238Y-166812857D01*
X194405428Y-166812857D01*
X194595904Y-166717619D01*
X195548285Y-167574761D02*
X195548285Y-165574761D01*
X195548285Y-166336666D02*
X195738761Y-166241428D01*
X196119714Y-166241428D01*
X196310190Y-166336666D01*
X196405428Y-166431904D01*
X196500666Y-166622380D01*
X196500666Y-167193809D01*
X196405428Y-167384285D01*
X196310190Y-167479523D01*
X196119714Y-167574761D01*
X195738761Y-167574761D01*
X195548285Y-167479523D01*
X197262571Y-167479523D02*
X197453047Y-167574761D01*
X197834000Y-167574761D01*
X198024476Y-167479523D01*
X198119714Y-167289047D01*
X198119714Y-167193809D01*
X198024476Y-167003333D01*
X197834000Y-166908095D01*
X197548285Y-166908095D01*
X197357809Y-166812857D01*
X197262571Y-166622380D01*
X197262571Y-166527142D01*
X197357809Y-166336666D01*
X197548285Y-166241428D01*
X197834000Y-166241428D01*
X198024476Y-166336666D01*
X200881619Y-165574761D02*
X201072095Y-165574761D01*
X201262571Y-165670000D01*
X201357809Y-165765238D01*
X201453047Y-165955714D01*
X201548285Y-166336666D01*
X201548285Y-166812857D01*
X201453047Y-167193809D01*
X201357809Y-167384285D01*
X201262571Y-167479523D01*
X201072095Y-167574761D01*
X200881619Y-167574761D01*
X200691142Y-167479523D01*
X200595904Y-167384285D01*
X200500666Y-167193809D01*
X200405428Y-166812857D01*
X200405428Y-166336666D01*
X200500666Y-165955714D01*
X200595904Y-165765238D01*
X200691142Y-165670000D01*
X200881619Y-165574761D01*
X203262571Y-165574761D02*
X202881619Y-165574761D01*
X202691142Y-165670000D01*
X202595904Y-165765238D01*
X202405428Y-166050952D01*
X202310190Y-166431904D01*
X202310190Y-167193809D01*
X202405428Y-167384285D01*
X202500666Y-167479523D01*
X202691142Y-167574761D01*
X203072095Y-167574761D01*
X203262571Y-167479523D01*
X203357809Y-167384285D01*
X203453047Y-167193809D01*
X203453047Y-166717619D01*
X203357809Y-166527142D01*
X203262571Y-166431904D01*
X203072095Y-166336666D01*
X202691142Y-166336666D01*
X202500666Y-166431904D01*
X202405428Y-166527142D01*
X202310190Y-166717619D01*
X204691142Y-165574761D02*
X204881619Y-165574761D01*
X205072095Y-165670000D01*
X205167333Y-165765238D01*
X205262571Y-165955714D01*
X205357809Y-166336666D01*
X205357809Y-166812857D01*
X205262571Y-167193809D01*
X205167333Y-167384285D01*
X205072095Y-167479523D01*
X204881619Y-167574761D01*
X204691142Y-167574761D01*
X204500666Y-167479523D01*
X204405428Y-167384285D01*
X204310190Y-167193809D01*
X204214952Y-166812857D01*
X204214952Y-166336666D01*
X204310190Y-165955714D01*
X204405428Y-165765238D01*
X204500666Y-165670000D01*
X204691142Y-165574761D01*
X240204238Y-165607761D02*
X240394714Y-165607761D01*
X240585190Y-165703000D01*
X240680428Y-165798238D01*
X240775666Y-165988714D01*
X240870904Y-166369666D01*
X240870904Y-166845857D01*
X240775666Y-167226809D01*
X240680428Y-167417285D01*
X240585190Y-167512523D01*
X240394714Y-167607761D01*
X240204238Y-167607761D01*
X240013761Y-167512523D01*
X239918523Y-167417285D01*
X239823285Y-167226809D01*
X239728047Y-166845857D01*
X239728047Y-166369666D01*
X239823285Y-165988714D01*
X239918523Y-165798238D01*
X240013761Y-165703000D01*
X240204238Y-165607761D01*
X241537571Y-167607761D02*
X242585190Y-166274428D01*
X241537571Y-166274428D02*
X242585190Y-167607761D01*
X244489952Y-167417285D02*
X244394714Y-167512523D01*
X244109000Y-167607761D01*
X243918523Y-167607761D01*
X243632809Y-167512523D01*
X243442333Y-167322047D01*
X243347095Y-167131571D01*
X243251857Y-166750619D01*
X243251857Y-166464904D01*
X243347095Y-166083952D01*
X243442333Y-165893476D01*
X243632809Y-165703000D01*
X243918523Y-165607761D01*
X244109000Y-165607761D01*
X244394714Y-165703000D01*
X244489952Y-165798238D01*
X246013761Y-166560142D02*
X246299476Y-166655380D01*
X246394714Y-166750619D01*
X246489952Y-166941095D01*
X246489952Y-167226809D01*
X246394714Y-167417285D01*
X246299476Y-167512523D01*
X246109000Y-167607761D01*
X245347095Y-167607761D01*
X245347095Y-165607761D01*
X246013761Y-165607761D01*
X246204238Y-165703000D01*
X246299476Y-165798238D01*
X246394714Y-165988714D01*
X246394714Y-166179190D01*
X246299476Y-166369666D01*
X246204238Y-166464904D01*
X246013761Y-166560142D01*
X245347095Y-166560142D01*
D12*
X240363095Y-164809190D02*
X240363095Y-164309190D01*
X240553571Y-164309190D01*
X240601190Y-164333000D01*
X240625000Y-164356809D01*
X240648809Y-164404428D01*
X240648809Y-164475857D01*
X240625000Y-164523476D01*
X240601190Y-164547285D01*
X240553571Y-164571095D01*
X240363095Y-164571095D01*
X241148809Y-164761571D02*
X241125000Y-164785380D01*
X241053571Y-164809190D01*
X241005952Y-164809190D01*
X240934523Y-164785380D01*
X240886904Y-164737761D01*
X240863095Y-164690142D01*
X240839285Y-164594904D01*
X240839285Y-164523476D01*
X240863095Y-164428238D01*
X240886904Y-164380619D01*
X240934523Y-164333000D01*
X241005952Y-164309190D01*
X241053571Y-164309190D01*
X241125000Y-164333000D01*
X241148809Y-164356809D01*
X241529761Y-164547285D02*
X241601190Y-164571095D01*
X241625000Y-164594904D01*
X241648809Y-164642523D01*
X241648809Y-164713952D01*
X241625000Y-164761571D01*
X241601190Y-164785380D01*
X241553571Y-164809190D01*
X241363095Y-164809190D01*
X241363095Y-164309190D01*
X241529761Y-164309190D01*
X241577380Y-164333000D01*
X241601190Y-164356809D01*
X241625000Y-164404428D01*
X241625000Y-164452047D01*
X241601190Y-164499666D01*
X241577380Y-164523476D01*
X241529761Y-164547285D01*
X241363095Y-164547285D01*
X242458333Y-164809190D02*
X242458333Y-164309190D01*
X242458333Y-164785380D02*
X242410714Y-164809190D01*
X242315476Y-164809190D01*
X242267857Y-164785380D01*
X242244047Y-164761571D01*
X242220238Y-164713952D01*
X242220238Y-164571095D01*
X242244047Y-164523476D01*
X242267857Y-164499666D01*
X242315476Y-164475857D01*
X242410714Y-164475857D01*
X242458333Y-164499666D01*
X242886904Y-164785380D02*
X242839285Y-164809190D01*
X242744047Y-164809190D01*
X242696428Y-164785380D01*
X242672619Y-164737761D01*
X242672619Y-164547285D01*
X242696428Y-164499666D01*
X242744047Y-164475857D01*
X242839285Y-164475857D01*
X242886904Y-164499666D01*
X242910714Y-164547285D01*
X242910714Y-164594904D01*
X242672619Y-164642523D01*
X243101190Y-164785380D02*
X243148809Y-164809190D01*
X243244047Y-164809190D01*
X243291666Y-164785380D01*
X243315476Y-164737761D01*
X243315476Y-164713952D01*
X243291666Y-164666333D01*
X243244047Y-164642523D01*
X243172619Y-164642523D01*
X243125000Y-164618714D01*
X243101190Y-164571095D01*
X243101190Y-164547285D01*
X243125000Y-164499666D01*
X243172619Y-164475857D01*
X243244047Y-164475857D01*
X243291666Y-164499666D01*
X243529761Y-164809190D02*
X243529761Y-164475857D01*
X243529761Y-164309190D02*
X243505952Y-164333000D01*
X243529761Y-164356809D01*
X243553571Y-164333000D01*
X243529761Y-164309190D01*
X243529761Y-164356809D01*
X243982142Y-164475857D02*
X243982142Y-164880619D01*
X243958333Y-164928238D01*
X243934523Y-164952047D01*
X243886904Y-164975857D01*
X243815476Y-164975857D01*
X243767857Y-164952047D01*
X243982142Y-164785380D02*
X243934523Y-164809190D01*
X243839285Y-164809190D01*
X243791666Y-164785380D01*
X243767857Y-164761571D01*
X243744047Y-164713952D01*
X243744047Y-164571095D01*
X243767857Y-164523476D01*
X243791666Y-164499666D01*
X243839285Y-164475857D01*
X243934523Y-164475857D01*
X243982142Y-164499666D01*
X244220238Y-164475857D02*
X244220238Y-164809190D01*
X244220238Y-164523476D02*
X244244047Y-164499666D01*
X244291666Y-164475857D01*
X244363095Y-164475857D01*
X244410714Y-164499666D01*
X244434523Y-164547285D01*
X244434523Y-164809190D01*
X245053571Y-164809190D02*
X245053571Y-164309190D01*
X245053571Y-164499666D02*
X245101190Y-164475857D01*
X245196428Y-164475857D01*
X245244047Y-164499666D01*
X245267857Y-164523476D01*
X245291666Y-164571095D01*
X245291666Y-164713952D01*
X245267857Y-164761571D01*
X245244047Y-164785380D01*
X245196428Y-164809190D01*
X245101190Y-164809190D01*
X245053571Y-164785380D01*
X245458333Y-164475857D02*
X245577380Y-164809190D01*
X245696428Y-164475857D02*
X245577380Y-164809190D01*
X245529761Y-164928238D01*
X245505952Y-164952047D01*
X245458333Y-164975857D01*
X245886904Y-164761571D02*
X245910714Y-164785380D01*
X245886904Y-164809190D01*
X245863095Y-164785380D01*
X245886904Y-164761571D01*
X245886904Y-164809190D01*
X245886904Y-164499666D02*
X245910714Y-164523476D01*
X245886904Y-164547285D01*
X245863095Y-164523476D01*
X245886904Y-164499666D01*
X245886904Y-164547285D01*
%TO.C,G\u002A\u002A\u002A*%
G36*
X257512638Y-163605161D02*
G01*
X257514643Y-163611499D01*
X257518169Y-163626261D01*
X257523056Y-163648649D01*
X257529144Y-163677862D01*
X257536270Y-163713103D01*
X257544274Y-163753570D01*
X257552995Y-163798466D01*
X257562273Y-163846990D01*
X257571945Y-163898343D01*
X257575510Y-163917458D01*
X257586821Y-163978163D01*
X257596597Y-164030314D01*
X257604981Y-164074583D01*
X257612119Y-164111642D01*
X257618154Y-164142162D01*
X257623230Y-164166814D01*
X257627492Y-164186270D01*
X257631084Y-164201201D01*
X257634151Y-164212279D01*
X257636835Y-164220174D01*
X257639282Y-164225558D01*
X257641636Y-164229102D01*
X257642702Y-164230275D01*
X257649893Y-164234911D01*
X257664637Y-164242405D01*
X257685885Y-164252331D01*
X257712591Y-164264261D01*
X257743705Y-164277768D01*
X257778180Y-164292424D01*
X257814969Y-164307803D01*
X257853023Y-164323477D01*
X257891294Y-164339018D01*
X257928735Y-164354000D01*
X257964297Y-164367995D01*
X257996933Y-164380576D01*
X258025595Y-164391315D01*
X258049236Y-164399786D01*
X258066806Y-164405560D01*
X258077258Y-164408211D01*
X258079265Y-164408292D01*
X258085288Y-164405271D01*
X258098339Y-164397365D01*
X258117737Y-164385025D01*
X258142799Y-164368702D01*
X258172846Y-164348847D01*
X258207195Y-164325912D01*
X258245164Y-164300347D01*
X258286074Y-164272605D01*
X258329241Y-164243136D01*
X258345047Y-164232299D01*
X258397276Y-164196497D01*
X258442350Y-164165726D01*
X258480795Y-164139643D01*
X258513140Y-164117906D01*
X258539913Y-164100174D01*
X258561643Y-164086105D01*
X258578858Y-164075357D01*
X258592085Y-164067587D01*
X258601853Y-164062454D01*
X258608690Y-164059617D01*
X258613124Y-164058732D01*
X258613170Y-164058732D01*
X258616733Y-164059182D01*
X258621066Y-164060847D01*
X258626678Y-164064203D01*
X258634082Y-164069725D01*
X258643786Y-164077886D01*
X258656302Y-164089162D01*
X258672141Y-164104028D01*
X258691812Y-164122958D01*
X258715827Y-164146426D01*
X258744696Y-164174909D01*
X258778930Y-164208879D01*
X258819039Y-164248813D01*
X258838809Y-164268524D01*
X258875805Y-164305518D01*
X258910948Y-164340848D01*
X258943651Y-164373911D01*
X258973328Y-164404105D01*
X258999391Y-164430830D01*
X259021256Y-164453482D01*
X259038335Y-164471461D01*
X259050043Y-164484165D01*
X259055793Y-164490991D01*
X259056176Y-164491598D01*
X259060682Y-164505916D01*
X259058744Y-164517382D01*
X259055361Y-164523359D01*
X259047111Y-164536357D01*
X259034456Y-164555686D01*
X259017862Y-164580657D01*
X258997792Y-164610577D01*
X258974708Y-164644756D01*
X258949077Y-164682503D01*
X258921360Y-164723128D01*
X258892022Y-164765939D01*
X258885104Y-164776008D01*
X258846051Y-164833003D01*
X258811965Y-164883145D01*
X258782919Y-164926323D01*
X258758982Y-164962428D01*
X258740227Y-164991353D01*
X258726725Y-165012988D01*
X258718547Y-165027224D01*
X258715766Y-165033953D01*
X258715766Y-165033967D01*
X258717569Y-165040841D01*
X258722754Y-165055255D01*
X258730880Y-165076189D01*
X258741510Y-165102619D01*
X258754204Y-165133524D01*
X258768525Y-165167881D01*
X258784034Y-165204668D01*
X258800291Y-165242864D01*
X258816859Y-165281445D01*
X258833299Y-165319391D01*
X258849173Y-165355678D01*
X258864040Y-165389285D01*
X258877464Y-165419189D01*
X258889006Y-165444369D01*
X258898226Y-165463802D01*
X258904686Y-165476467D01*
X258907635Y-165481102D01*
X258911047Y-165483293D01*
X258917591Y-165485846D01*
X258927880Y-165488893D01*
X258942530Y-165492562D01*
X258962155Y-165496984D01*
X258987370Y-165502287D01*
X259018790Y-165508601D01*
X259057030Y-165516056D01*
X259102703Y-165524781D01*
X259156427Y-165534906D01*
X259213543Y-165545580D01*
X259273944Y-165556858D01*
X259325780Y-165566604D01*
X259369713Y-165574959D01*
X259406402Y-165582064D01*
X259436510Y-165588061D01*
X259460696Y-165593092D01*
X259479622Y-165597297D01*
X259493949Y-165600820D01*
X259504337Y-165603800D01*
X259511447Y-165606380D01*
X259515941Y-165608701D01*
X259518458Y-165610880D01*
X259520101Y-165613382D01*
X259521510Y-165617034D01*
X259522703Y-165622524D01*
X259523697Y-165630539D01*
X259524510Y-165641767D01*
X259525161Y-165656898D01*
X259525667Y-165676619D01*
X259526046Y-165701617D01*
X259526316Y-165732582D01*
X259526495Y-165770201D01*
X259526600Y-165815162D01*
X259526650Y-165868153D01*
X259526662Y-165926931D01*
X259526649Y-165988238D01*
X259526597Y-166040857D01*
X259526489Y-166085475D01*
X259526307Y-166122781D01*
X259526033Y-166153463D01*
X259525648Y-166178207D01*
X259525137Y-166197704D01*
X259524479Y-166212639D01*
X259523658Y-166223701D01*
X259522656Y-166231578D01*
X259521455Y-166236959D01*
X259520036Y-166240529D01*
X259518458Y-166242889D01*
X259515828Y-166245116D01*
X259511144Y-166247472D01*
X259503737Y-166250101D01*
X259492937Y-166253146D01*
X259478073Y-166256750D01*
X259458476Y-166261057D01*
X259433476Y-166266211D01*
X259402402Y-166272355D01*
X259364584Y-166279633D01*
X259319353Y-166288188D01*
X259266038Y-166298163D01*
X259223127Y-166306146D01*
X259171949Y-166315730D01*
X259123404Y-166324974D01*
X259078306Y-166333711D01*
X259037468Y-166341778D01*
X259001702Y-166349010D01*
X258971823Y-166355242D01*
X258948642Y-166360310D01*
X258932974Y-166364049D01*
X258925631Y-166366294D01*
X258925374Y-166366438D01*
X258921229Y-166372329D01*
X258914202Y-166385968D01*
X258904691Y-166406366D01*
X258893090Y-166432531D01*
X258879797Y-166463472D01*
X258865207Y-166498199D01*
X258849717Y-166535720D01*
X258833722Y-166575045D01*
X258817619Y-166615183D01*
X258801804Y-166655143D01*
X258786672Y-166693934D01*
X258772621Y-166730566D01*
X258760046Y-166764046D01*
X258749343Y-166793386D01*
X258740908Y-166817593D01*
X258735138Y-166835677D01*
X258732428Y-166846647D01*
X258732368Y-166849236D01*
X258735572Y-166854932D01*
X258743629Y-166867635D01*
X258756066Y-166886637D01*
X258772408Y-166911232D01*
X258792179Y-166940710D01*
X258814906Y-166974366D01*
X258840114Y-167011490D01*
X258867329Y-167051375D01*
X258894873Y-167091563D01*
X258929195Y-167141573D01*
X258958555Y-167184463D01*
X258983331Y-167220818D01*
X259003903Y-167251225D01*
X259020649Y-167276270D01*
X259033947Y-167296539D01*
X259044176Y-167312618D01*
X259051714Y-167325093D01*
X259056941Y-167334549D01*
X259060234Y-167341575D01*
X259061973Y-167346754D01*
X259062536Y-167350673D01*
X259062542Y-167351123D01*
X259059311Y-167355288D01*
X259049982Y-167365505D01*
X259035103Y-167381212D01*
X259015222Y-167401849D01*
X258990887Y-167426852D01*
X258962646Y-167455661D01*
X258931046Y-167487712D01*
X258896635Y-167522445D01*
X258859961Y-167559297D01*
X258843442Y-167575845D01*
X258798951Y-167620323D01*
X258760572Y-167658563D01*
X258727839Y-167691006D01*
X258700285Y-167718095D01*
X258677442Y-167740270D01*
X258658842Y-167757972D01*
X258644018Y-167771644D01*
X258632504Y-167781727D01*
X258623832Y-167788662D01*
X258617534Y-167792891D01*
X258613143Y-167794854D01*
X258611295Y-167795129D01*
X258605893Y-167793446D01*
X258595793Y-167788236D01*
X258580625Y-167779258D01*
X258560021Y-167766272D01*
X258533610Y-167749036D01*
X258501024Y-167727311D01*
X258461894Y-167700854D01*
X258415850Y-167669426D01*
X258365104Y-167634563D01*
X258316075Y-167600836D01*
X258274140Y-167572093D01*
X258238703Y-167547951D01*
X258209168Y-167528028D01*
X258184940Y-167511943D01*
X258165423Y-167499313D01*
X258150020Y-167489756D01*
X258138137Y-167482890D01*
X258129177Y-167478334D01*
X258122546Y-167475705D01*
X258117646Y-167474622D01*
X258115551Y-167474543D01*
X258105751Y-167476776D01*
X258089632Y-167483152D01*
X258066782Y-167493865D01*
X258036787Y-167509109D01*
X257999234Y-167529078D01*
X257998349Y-167529556D01*
X257962439Y-167548732D01*
X257933714Y-167563444D01*
X257911282Y-167573989D01*
X257894250Y-167580663D01*
X257881728Y-167583763D01*
X257872821Y-167583586D01*
X257866638Y-167580428D01*
X257862385Y-167574772D01*
X257859905Y-167569174D01*
X257854133Y-167555595D01*
X257845344Y-167534703D01*
X257833815Y-167507164D01*
X257819822Y-167473646D01*
X257803642Y-167434816D01*
X257785551Y-167391342D01*
X257765826Y-167343890D01*
X257744743Y-167293128D01*
X257722578Y-167239724D01*
X257699607Y-167184344D01*
X257676108Y-167127657D01*
X257652357Y-167070329D01*
X257628629Y-167013027D01*
X257605202Y-166956419D01*
X257582351Y-166901173D01*
X257560354Y-166847955D01*
X257539486Y-166797432D01*
X257520024Y-166750273D01*
X257502244Y-166707145D01*
X257486423Y-166668714D01*
X257472837Y-166635648D01*
X257461763Y-166608614D01*
X257453477Y-166588280D01*
X257448255Y-166575313D01*
X257446389Y-166570444D01*
X257445188Y-166557421D01*
X257450012Y-166545282D01*
X257461764Y-166532736D01*
X257481352Y-166518489D01*
X257483948Y-166516811D01*
X257556281Y-166466782D01*
X257619676Y-166414948D01*
X257674473Y-166360836D01*
X257721017Y-166303972D01*
X257759648Y-166243883D01*
X257790710Y-166180095D01*
X257814544Y-166112134D01*
X257831493Y-166039527D01*
X257832344Y-166034756D01*
X257836811Y-165999052D01*
X257839116Y-165957542D01*
X257839267Y-165913539D01*
X257837270Y-165870360D01*
X257833131Y-165831320D01*
X257831899Y-165823406D01*
X257814811Y-165748609D01*
X257789408Y-165677446D01*
X257756220Y-165610437D01*
X257715777Y-165548104D01*
X257668607Y-165490968D01*
X257615242Y-165439549D01*
X257556211Y-165394369D01*
X257492042Y-165355949D01*
X257423267Y-165324811D01*
X257350415Y-165301474D01*
X257288234Y-165288562D01*
X257257604Y-165285181D01*
X257221016Y-165283466D01*
X257181292Y-165283352D01*
X257141254Y-165284770D01*
X257103724Y-165287653D01*
X257071525Y-165291932D01*
X257060733Y-165294027D01*
X256986267Y-165314910D01*
X256915711Y-165343868D01*
X256849605Y-165380342D01*
X256788487Y-165423769D01*
X256732895Y-165473591D01*
X256683368Y-165529244D01*
X256640445Y-165590170D01*
X256604663Y-165655808D01*
X256576562Y-165725595D01*
X256556679Y-165798973D01*
X256552028Y-165823793D01*
X256548005Y-165855803D01*
X256545471Y-165892870D01*
X256544459Y-165931984D01*
X256545003Y-165970134D01*
X256547137Y-166004307D01*
X256549778Y-166025380D01*
X256567212Y-166103835D01*
X256592788Y-166177678D01*
X256626469Y-166246837D01*
X256668218Y-166311243D01*
X256717997Y-166370823D01*
X256745638Y-166398547D01*
X256770642Y-166420845D01*
X256801287Y-166445615D01*
X256838271Y-166473384D01*
X256882294Y-166504683D01*
X256919885Y-166530476D01*
X256932358Y-166540442D01*
X256937972Y-166549666D01*
X256938843Y-166556487D01*
X256937095Y-166561941D01*
X256932029Y-166575394D01*
X256923919Y-166596184D01*
X256913035Y-166623648D01*
X256899650Y-166657124D01*
X256884034Y-166695948D01*
X256866459Y-166739458D01*
X256847197Y-166786992D01*
X256826519Y-166837885D01*
X256804696Y-166891476D01*
X256782001Y-166947102D01*
X256758705Y-167004100D01*
X256735079Y-167061807D01*
X256711395Y-167119560D01*
X256687924Y-167176698D01*
X256664938Y-167232556D01*
X256642708Y-167286472D01*
X256621507Y-167337784D01*
X256601605Y-167385828D01*
X256583274Y-167429942D01*
X256566785Y-167469464D01*
X256552411Y-167503729D01*
X256540422Y-167532076D01*
X256531090Y-167553842D01*
X256524687Y-167568364D01*
X256521825Y-167574377D01*
X256517505Y-167580180D01*
X256511451Y-167583359D01*
X256502759Y-167583616D01*
X256490526Y-167580655D01*
X256473850Y-167574177D01*
X256451827Y-167563884D01*
X256423554Y-167549477D01*
X256388128Y-167530660D01*
X256386231Y-167529640D01*
X256348187Y-167509492D01*
X256317753Y-167494085D01*
X256294556Y-167483242D01*
X256278221Y-167476790D01*
X256268449Y-167474555D01*
X256264166Y-167474973D01*
X256258475Y-167476742D01*
X256250767Y-167480251D01*
X256240435Y-167485891D01*
X256226870Y-167494050D01*
X256209464Y-167505116D01*
X256187611Y-167519480D01*
X256160701Y-167537529D01*
X256128128Y-167559654D01*
X256089283Y-167586243D01*
X256043557Y-167617685D01*
X256027013Y-167629084D01*
X255985769Y-167657482D01*
X255946621Y-167684386D01*
X255910285Y-167709307D01*
X255877480Y-167731755D01*
X255848923Y-167751239D01*
X255825332Y-167767270D01*
X255807424Y-167779359D01*
X255795918Y-167787014D01*
X255791745Y-167789650D01*
X255786880Y-167792142D01*
X255782231Y-167793816D01*
X255777283Y-167794236D01*
X255771520Y-167792961D01*
X255764427Y-167789553D01*
X255755488Y-167783572D01*
X255744187Y-167774579D01*
X255730009Y-167762136D01*
X255712438Y-167745803D01*
X255690959Y-167725141D01*
X255665056Y-167699712D01*
X255634213Y-167669075D01*
X255597914Y-167632793D01*
X255555645Y-167590425D01*
X255543561Y-167578306D01*
X255506253Y-167540808D01*
X255470898Y-167505116D01*
X255438056Y-167471805D01*
X255408288Y-167441452D01*
X255382153Y-167414632D01*
X255360212Y-167391921D01*
X255343026Y-167373894D01*
X255331155Y-167361128D01*
X255325158Y-167354197D01*
X255324544Y-167353237D01*
X255323894Y-167342395D01*
X255325720Y-167334473D01*
X255329038Y-167328795D01*
X255337202Y-167316105D01*
X255349736Y-167297111D01*
X255366165Y-167272519D01*
X255386011Y-167243037D01*
X255408800Y-167209372D01*
X255434054Y-167172232D01*
X255461299Y-167132324D01*
X255488992Y-167091906D01*
X255517690Y-167050002D01*
X255544837Y-167010181D01*
X255569961Y-166973150D01*
X255592586Y-166939617D01*
X255612239Y-166910288D01*
X255628445Y-166885872D01*
X255640731Y-166867076D01*
X255648622Y-166854607D01*
X255651627Y-166849236D01*
X255650705Y-166842411D01*
X255646509Y-166827949D01*
X255639437Y-166806841D01*
X255629883Y-166780078D01*
X255618245Y-166748651D01*
X255604919Y-166713550D01*
X255590301Y-166675767D01*
X255574788Y-166636293D01*
X255558776Y-166596118D01*
X255542661Y-166556233D01*
X255526840Y-166517630D01*
X255511709Y-166481300D01*
X255497665Y-166448232D01*
X255485104Y-166419420D01*
X255474421Y-166395852D01*
X255466015Y-166378521D01*
X255460280Y-166368416D01*
X255458471Y-166366337D01*
X255451962Y-166364203D01*
X255436997Y-166360557D01*
X255414343Y-166355556D01*
X255384772Y-166349354D01*
X255349052Y-166342109D01*
X255307953Y-166333977D01*
X255262245Y-166325113D01*
X255212697Y-166315674D01*
X255160718Y-166305934D01*
X255101210Y-166294845D01*
X255050262Y-166285277D01*
X255007208Y-166277088D01*
X254971381Y-166270136D01*
X254942114Y-166264277D01*
X254918740Y-166259370D01*
X254900594Y-166255270D01*
X254887007Y-166251837D01*
X254877314Y-166248926D01*
X254870847Y-166246396D01*
X254866939Y-166244104D01*
X254865542Y-166242778D01*
X254863898Y-166240318D01*
X254862490Y-166236706D01*
X254861297Y-166231254D01*
X254860303Y-166223276D01*
X254859489Y-166212082D01*
X254858838Y-166196986D01*
X254858332Y-166177300D01*
X254857953Y-166152336D01*
X254857683Y-166121406D01*
X254857505Y-166083823D01*
X254857399Y-166038900D01*
X254857349Y-165985948D01*
X254857337Y-165926931D01*
X254857351Y-165865623D01*
X254857402Y-165813003D01*
X254857511Y-165768383D01*
X254857693Y-165731075D01*
X254857967Y-165700391D01*
X254858351Y-165675643D01*
X254858863Y-165656143D01*
X254859521Y-165641202D01*
X254860342Y-165630134D01*
X254861345Y-165622250D01*
X254862546Y-165616861D01*
X254863965Y-165613280D01*
X254865542Y-165610912D01*
X254868116Y-165608702D01*
X254872670Y-165606375D01*
X254879868Y-165603790D01*
X254890377Y-165600805D01*
X254904860Y-165597278D01*
X254923983Y-165593068D01*
X254948411Y-165588033D01*
X254978809Y-165582032D01*
X255015843Y-165574922D01*
X255060178Y-165566562D01*
X255112478Y-165556811D01*
X255166750Y-165546757D01*
X255234672Y-165534118D01*
X255293568Y-165522983D01*
X255343662Y-165513304D01*
X255385176Y-165505037D01*
X255418334Y-165498135D01*
X255443357Y-165492553D01*
X255460469Y-165488246D01*
X255469891Y-165485168D01*
X255471475Y-165484330D01*
X255476283Y-165477951D01*
X255484154Y-165463906D01*
X255494644Y-165443225D01*
X255507304Y-165416936D01*
X255521691Y-165386067D01*
X255537356Y-165351648D01*
X255553855Y-165314708D01*
X255570741Y-165276275D01*
X255587567Y-165237377D01*
X255603888Y-165199045D01*
X255619258Y-165162305D01*
X255633230Y-165128189D01*
X255645358Y-165097723D01*
X255655196Y-165071937D01*
X255662297Y-165051859D01*
X255666217Y-165038520D01*
X255666839Y-165033852D01*
X255665376Y-165028654D01*
X255661426Y-165020279D01*
X255654671Y-165008237D01*
X255644790Y-164992033D01*
X255631463Y-164971177D01*
X255614370Y-164945174D01*
X255593190Y-164913534D01*
X255567604Y-164875763D01*
X255537290Y-164831368D01*
X255501930Y-164779858D01*
X255497668Y-164773664D01*
X255468152Y-164730692D01*
X255440152Y-164689778D01*
X255414133Y-164651613D01*
X255390562Y-164616886D01*
X255369904Y-164586288D01*
X255352625Y-164560510D01*
X255339192Y-164540243D01*
X255330070Y-164526176D01*
X255325725Y-164519000D01*
X255325478Y-164518474D01*
X255323955Y-164502070D01*
X255326159Y-164494690D01*
X255330307Y-164489282D01*
X255340540Y-164477870D01*
X255356279Y-164461050D01*
X255376949Y-164439415D01*
X255401972Y-164413562D01*
X255430772Y-164384086D01*
X255462771Y-164351581D01*
X255497394Y-164316643D01*
X255534063Y-164279867D01*
X255543414Y-164270524D01*
X255586445Y-164227593D01*
X255623376Y-164190838D01*
X255654714Y-164159786D01*
X255680969Y-164133965D01*
X255702649Y-164112899D01*
X255720263Y-164096117D01*
X255734319Y-164083145D01*
X255745326Y-164073508D01*
X255753792Y-164066734D01*
X255760227Y-164062349D01*
X255765139Y-164059880D01*
X255769036Y-164058854D01*
X255770942Y-164058732D01*
X255775329Y-164059567D01*
X255782036Y-164062299D01*
X255791594Y-164067275D01*
X255804537Y-164074837D01*
X255821395Y-164085331D01*
X255842703Y-164099101D01*
X255868991Y-164116490D01*
X255900791Y-164137843D01*
X255938636Y-164163505D01*
X255983058Y-164193820D01*
X256034589Y-164229131D01*
X256039260Y-164232337D01*
X256083070Y-164262314D01*
X256124859Y-164290725D01*
X256163947Y-164317120D01*
X256199654Y-164341048D01*
X256231297Y-164362057D01*
X256258197Y-164379697D01*
X256279674Y-164393516D01*
X256295045Y-164403063D01*
X256303631Y-164407888D01*
X256304926Y-164408381D01*
X256312119Y-164407172D01*
X256326864Y-164402656D01*
X256348114Y-164395261D01*
X256374819Y-164385415D01*
X256405933Y-164373546D01*
X256440406Y-164360081D01*
X256477191Y-164345449D01*
X256515240Y-164330077D01*
X256553504Y-164314392D01*
X256590936Y-164298824D01*
X256626487Y-164283798D01*
X256659109Y-164269744D01*
X256687755Y-164257089D01*
X256711376Y-164246261D01*
X256728923Y-164237687D01*
X256739350Y-164231796D01*
X256741313Y-164230265D01*
X256743720Y-164227352D01*
X256746112Y-164223090D01*
X256748635Y-164216801D01*
X256751433Y-164207810D01*
X256754653Y-164195441D01*
X256758440Y-164179018D01*
X256762940Y-164157864D01*
X256768298Y-164131304D01*
X256774660Y-164098662D01*
X256782171Y-164059261D01*
X256790976Y-164012425D01*
X256801223Y-163957478D01*
X256808690Y-163917278D01*
X256818441Y-163865112D01*
X256827856Y-163815487D01*
X256836774Y-163769201D01*
X256845034Y-163727056D01*
X256852476Y-163689850D01*
X256858939Y-163658383D01*
X256864263Y-163633455D01*
X256868286Y-163615865D01*
X256870849Y-163606414D01*
X256871381Y-163605161D01*
X256878115Y-163594613D01*
X257505885Y-163594613D01*
X257512638Y-163605161D01*
G37*
G36*
X258901680Y-169261500D02*
G01*
X258938628Y-169271989D01*
X258946717Y-169275534D01*
X258963565Y-169284079D01*
X258978507Y-169292681D01*
X258987324Y-169298737D01*
X258998836Y-169308212D01*
X258953162Y-169362708D01*
X258937218Y-169381605D01*
X258923472Y-169397658D01*
X258913004Y-169409626D01*
X258906891Y-169416268D01*
X258905794Y-169417204D01*
X258901099Y-169415192D01*
X258890498Y-169409937D01*
X258877363Y-169403140D01*
X258846879Y-169391834D01*
X258815994Y-169388884D01*
X258786159Y-169393708D01*
X258758822Y-169405727D01*
X258735432Y-169424360D01*
X258717439Y-169449026D01*
X258708458Y-169470796D01*
X258706711Y-169478238D01*
X258705271Y-169488337D01*
X258704111Y-169501955D01*
X258703206Y-169519951D01*
X258702528Y-169543187D01*
X258702051Y-169572524D01*
X258701749Y-169608823D01*
X258701595Y-169652944D01*
X258701560Y-169694651D01*
X258701560Y-169895388D01*
X258570294Y-169895388D01*
X258570294Y-169267185D01*
X258701560Y-169267185D01*
X258701560Y-169328582D01*
X258719141Y-169311457D01*
X258748701Y-169288863D01*
X258783732Y-169272255D01*
X258822236Y-169261948D01*
X258862218Y-169258258D01*
X258901680Y-169261500D01*
G37*
G36*
X255417376Y-168450019D02*
G01*
X255435174Y-168404741D01*
X255450842Y-168378813D01*
X255472166Y-168352327D01*
X255496782Y-168327681D01*
X255522332Y-168307273D01*
X255543376Y-168294879D01*
X255588511Y-168278425D01*
X255634609Y-168270413D01*
X255680579Y-168270481D01*
X255725331Y-168278261D01*
X255767773Y-168293390D01*
X255806813Y-168315502D01*
X255841361Y-168344233D01*
X255870326Y-168379219D01*
X255888107Y-168410129D01*
X255898356Y-168433167D01*
X255905932Y-168454896D01*
X255911201Y-168477411D01*
X255914531Y-168502805D01*
X255916288Y-168533173D01*
X255916840Y-168570609D01*
X255916843Y-168574211D01*
X255916843Y-168643671D01*
X255527732Y-168643671D01*
X255527732Y-168653912D01*
X255530226Y-168672472D01*
X255536804Y-168694886D01*
X255546107Y-168717371D01*
X255556780Y-168736144D01*
X255557696Y-168737433D01*
X255573758Y-168754771D01*
X255594015Y-168770011D01*
X255598426Y-168772593D01*
X255610593Y-168778964D01*
X255621109Y-168783046D01*
X255632637Y-168785333D01*
X255647840Y-168786324D01*
X255669380Y-168786513D01*
X255673063Y-168786503D01*
X255702893Y-168785505D01*
X255726480Y-168782069D01*
X255746841Y-168775219D01*
X255766997Y-168763976D01*
X255787133Y-168749539D01*
X255799762Y-168740598D01*
X255809658Y-168734888D01*
X255814045Y-168733654D01*
X255820414Y-168737605D01*
X255831534Y-168746159D01*
X255845699Y-168757826D01*
X255861204Y-168771119D01*
X255876343Y-168784547D01*
X255889410Y-168796623D01*
X255898699Y-168805857D01*
X255902504Y-168810760D01*
X255902521Y-168810877D01*
X255899093Y-168817655D01*
X255889554Y-168828096D01*
X255875651Y-168840751D01*
X255859131Y-168854168D01*
X255841740Y-168866896D01*
X255825226Y-168877485D01*
X255816867Y-168882011D01*
X255772358Y-168899291D01*
X255723477Y-168910104D01*
X255673005Y-168914041D01*
X255623724Y-168910695D01*
X255622455Y-168910503D01*
X255573301Y-168898813D01*
X255529983Y-168879831D01*
X255492593Y-168853676D01*
X255461226Y-168820469D01*
X255435975Y-168780330D01*
X255416933Y-168733379D01*
X255404195Y-168679736D01*
X255398012Y-168622575D01*
X255398000Y-168561504D01*
X255400893Y-168535845D01*
X255527732Y-168535845D01*
X255786883Y-168535845D01*
X255784107Y-168512410D01*
X255775858Y-168476916D01*
X255760609Y-168446746D01*
X255739139Y-168422636D01*
X255712228Y-168405326D01*
X255680656Y-168395553D01*
X255658682Y-168393598D01*
X255626667Y-168397279D01*
X255596649Y-168408302D01*
X255571074Y-168425600D01*
X255560506Y-168436522D01*
X255550951Y-168451512D01*
X255541585Y-168471834D01*
X255533749Y-168493885D01*
X255528785Y-168514057D01*
X255527732Y-168524619D01*
X255527732Y-168535845D01*
X255400893Y-168535845D01*
X255402158Y-168524619D01*
X255404538Y-168503501D01*
X255417376Y-168450019D01*
G37*
G36*
X256469074Y-169511920D02*
G01*
X256470381Y-169478645D01*
X256472161Y-169450106D01*
X256474404Y-169428043D01*
X256476134Y-169417864D01*
X256489448Y-169377780D01*
X256509741Y-169342825D01*
X256535924Y-169313350D01*
X256566908Y-169289707D01*
X256601604Y-169272248D01*
X256638924Y-169261326D01*
X256677778Y-169257291D01*
X256717077Y-169260496D01*
X256755733Y-169271293D01*
X256792656Y-169290033D01*
X256816632Y-169307846D01*
X256827512Y-169316734D01*
X256835382Y-169322382D01*
X256837623Y-169323442D01*
X256838286Y-169318936D01*
X256838892Y-169306147D01*
X256839422Y-169286167D01*
X256839856Y-169260088D01*
X256840174Y-169229003D01*
X256840357Y-169194006D01*
X256840394Y-169168736D01*
X256840394Y-169014029D01*
X256971660Y-169014029D01*
X256971660Y-169895388D01*
X256840394Y-169895388D01*
X256840394Y-169833352D01*
X256821853Y-169850102D01*
X256788643Y-169873983D01*
X256750417Y-169890089D01*
X256707007Y-169898478D01*
X256676632Y-169899824D01*
X256645778Y-169898074D01*
X256618785Y-169893553D01*
X256610251Y-169891185D01*
X256572251Y-169874260D01*
X256539042Y-169849782D01*
X256511415Y-169818679D01*
X256490158Y-169781877D01*
X256476058Y-169740301D01*
X256474130Y-169731305D01*
X256471808Y-169713595D01*
X256470038Y-169688441D01*
X256468809Y-169657584D01*
X256468109Y-169622763D01*
X256467927Y-169585719D01*
X256468084Y-169567699D01*
X256597456Y-169567699D01*
X256597897Y-169600139D01*
X256599560Y-169632057D01*
X256602339Y-169660924D01*
X256606127Y-169684207D01*
X256608285Y-169692694D01*
X256621700Y-169722023D01*
X256641891Y-169745420D01*
X256667880Y-169761973D01*
X256690375Y-169769302D01*
X256712162Y-169771266D01*
X256737160Y-169769530D01*
X256760910Y-169764629D01*
X256775430Y-169759092D01*
X256796618Y-169743673D01*
X256814786Y-169721665D01*
X256827748Y-169695818D01*
X256829209Y-169691456D01*
X256833060Y-169673621D01*
X256836107Y-169648871D01*
X256838259Y-169619637D01*
X256839426Y-169588354D01*
X256839518Y-169557454D01*
X256838444Y-169529371D01*
X256836115Y-169506537D01*
X256836075Y-169506277D01*
X256827338Y-169467775D01*
X256814177Y-169437359D01*
X256796224Y-169414664D01*
X256773113Y-169399324D01*
X256744475Y-169390973D01*
X256718504Y-169389075D01*
X256685470Y-169392264D01*
X256658241Y-169402078D01*
X256636459Y-169418891D01*
X256619763Y-169443077D01*
X256607792Y-169475011D01*
X256600666Y-169511385D01*
X256598344Y-169537270D01*
X256597456Y-169567699D01*
X256468084Y-169567699D01*
X256468253Y-169548192D01*
X256469074Y-169511920D01*
G37*
G36*
X259692841Y-168456383D02*
G01*
X259711026Y-168408506D01*
X259735598Y-168367190D01*
X259766490Y-168332565D01*
X259803635Y-168304761D01*
X259846966Y-168283908D01*
X259861515Y-168278916D01*
X259885183Y-168274134D01*
X259917868Y-168271806D01*
X259936869Y-168271562D01*
X259962670Y-168272005D01*
X259982314Y-168273508D01*
X259999000Y-168276519D01*
X260015926Y-168281489D01*
X260021732Y-168283502D01*
X260066706Y-168304116D01*
X260105916Y-168331741D01*
X260138715Y-168365831D01*
X260162905Y-168402868D01*
X260173323Y-168424324D01*
X260181070Y-168445307D01*
X260186498Y-168467755D01*
X260189956Y-168493606D01*
X260191796Y-168524799D01*
X260192367Y-168563273D01*
X260192369Y-168565823D01*
X260192369Y-168643671D01*
X259803148Y-168643671D01*
X259806200Y-168663596D01*
X259815746Y-168700486D01*
X259831920Y-168732039D01*
X259854070Y-168757404D01*
X259881548Y-168775730D01*
X259896363Y-168781751D01*
X259931421Y-168788769D01*
X259968669Y-168788135D01*
X260005663Y-168780346D01*
X260039957Y-168765901D01*
X260067189Y-168747010D01*
X260079446Y-168738007D01*
X260089069Y-168734219D01*
X260091629Y-168734461D01*
X260097833Y-168738468D01*
X260109391Y-168747323D01*
X260124611Y-168759688D01*
X260140611Y-168773200D01*
X260159540Y-168789699D01*
X260171672Y-168801723D01*
X260177324Y-168810902D01*
X260176814Y-168818869D01*
X260170458Y-168827255D01*
X260158576Y-168837692D01*
X260153902Y-168841532D01*
X260111261Y-168871842D01*
X260067406Y-168893420D01*
X260020705Y-168906902D01*
X259970931Y-168912856D01*
X259948315Y-168913419D01*
X259926155Y-168913024D01*
X259908279Y-168911765D01*
X259904052Y-168911189D01*
X259852944Y-168898949D01*
X259808341Y-168879982D01*
X259770229Y-168854272D01*
X259738593Y-168821799D01*
X259713416Y-168782546D01*
X259694685Y-168736494D01*
X259682384Y-168683625D01*
X259677272Y-168638074D01*
X259675897Y-168571297D01*
X259678946Y-168535845D01*
X259803148Y-168535845D01*
X260065556Y-168535845D01*
X260062907Y-168520609D01*
X260056254Y-168489975D01*
X260047668Y-168466026D01*
X260036020Y-168446109D01*
X260026003Y-168433765D01*
X260003626Y-168413279D01*
X259979389Y-168400595D01*
X259950919Y-168394682D01*
X259934415Y-168393944D01*
X259900042Y-168397970D01*
X259870127Y-168410032D01*
X259845144Y-168429683D01*
X259825565Y-168456471D01*
X259811862Y-168489948D01*
X259806200Y-168515921D01*
X259803148Y-168535845D01*
X259678946Y-168535845D01*
X259681109Y-168510690D01*
X259692841Y-168456383D01*
G37*
G36*
X255403800Y-169686845D02*
G01*
X255404616Y-169670079D01*
X255406650Y-169657132D01*
X255410390Y-169645231D01*
X255416324Y-169631597D01*
X255418272Y-169627458D01*
X255439438Y-169592577D01*
X255466550Y-169564895D01*
X255499837Y-169544184D01*
X255501239Y-169543526D01*
X255518934Y-169536171D01*
X255537488Y-169530478D01*
X255558374Y-169526259D01*
X255583064Y-169523327D01*
X255613031Y-169521496D01*
X255649748Y-169520579D01*
X255683611Y-169520377D01*
X255776200Y-169520342D01*
X255776183Y-169476977D01*
X255775053Y-169448806D01*
X255771105Y-169428013D01*
X255763464Y-169412802D01*
X255751257Y-169401377D01*
X255735055Y-169392586D01*
X255723070Y-169387989D01*
X255710081Y-169384991D01*
X255693662Y-169383265D01*
X255671384Y-169382485D01*
X255658999Y-169382356D01*
X255627664Y-169382858D01*
X255603566Y-169385142D01*
X255584645Y-169389755D01*
X255568842Y-169397245D01*
X255554099Y-169408157D01*
X255550737Y-169411123D01*
X255537859Y-169421018D01*
X255528793Y-169424321D01*
X255526737Y-169423777D01*
X255516117Y-169416742D01*
X255501847Y-169406297D01*
X255485625Y-169393812D01*
X255469149Y-169380657D01*
X255454116Y-169368200D01*
X255442225Y-169357812D01*
X255435174Y-169350862D01*
X255433971Y-169348949D01*
X255437574Y-169341806D01*
X255447133Y-169331112D01*
X255460771Y-169318471D01*
X255476611Y-169305488D01*
X255492776Y-169293767D01*
X255507390Y-169284910D01*
X255510945Y-169283164D01*
X255541260Y-169271435D01*
X255573215Y-169263695D01*
X255608965Y-169259620D01*
X255650666Y-169258883D01*
X255668375Y-169259405D01*
X255696849Y-169261082D01*
X255723672Y-169263643D01*
X255746116Y-169266784D01*
X255759497Y-169269620D01*
X255802152Y-169285280D01*
X255838142Y-169306675D01*
X255866998Y-169333429D01*
X255888248Y-169365164D01*
X255893888Y-169377592D01*
X255905123Y-169405484D01*
X255907859Y-169895388D01*
X255776200Y-169895388D01*
X255776200Y-169847710D01*
X255755165Y-169866226D01*
X255736524Y-169879911D01*
X255715362Y-169889658D01*
X255689972Y-169895912D01*
X255658644Y-169899114D01*
X255625874Y-169899767D01*
X255598814Y-169898948D01*
X255573711Y-169896983D01*
X255553592Y-169894145D01*
X255547011Y-169892666D01*
X255505666Y-169877238D01*
X255469923Y-169854968D01*
X255440538Y-169826460D01*
X255418265Y-169792321D01*
X255415960Y-169787562D01*
X255410460Y-169774664D01*
X255406907Y-169762539D01*
X255404878Y-169748512D01*
X255403948Y-169729906D01*
X255403734Y-169711857D01*
X255524357Y-169711857D01*
X255531564Y-169732170D01*
X255546214Y-169750428D01*
X255568251Y-169765158D01*
X255575991Y-169768549D01*
X255595037Y-169773578D01*
X255619934Y-169776678D01*
X255648040Y-169777883D01*
X255676714Y-169777228D01*
X255703314Y-169774749D01*
X255725200Y-169770481D01*
X255736352Y-169766422D01*
X255753193Y-169754845D01*
X255765043Y-169738715D01*
X255772416Y-169716807D01*
X255775823Y-169687898D01*
X255776200Y-169671222D01*
X255776200Y-169627189D01*
X255683611Y-169629160D01*
X255649744Y-169630026D01*
X255623802Y-169631083D01*
X255604333Y-169632464D01*
X255589887Y-169634304D01*
X255579013Y-169636735D01*
X255571080Y-169639541D01*
X255547954Y-169653332D01*
X255532496Y-169670964D01*
X255524649Y-169690964D01*
X255524357Y-169711857D01*
X255403734Y-169711857D01*
X255403714Y-169710209D01*
X255403800Y-169686845D01*
G37*
G36*
X257186550Y-168271796D02*
G01*
X257236813Y-168280441D01*
X257244913Y-168282429D01*
X257272393Y-168291226D01*
X257302297Y-168303689D01*
X257331466Y-168318283D01*
X257356742Y-168333471D01*
X257369922Y-168343211D01*
X257386107Y-168356660D01*
X257351170Y-168397416D01*
X257336716Y-168414328D01*
X257324182Y-168429082D01*
X257315034Y-168439949D01*
X257310988Y-168444872D01*
X257307112Y-168447567D01*
X257300854Y-168446869D01*
X257290416Y-168442192D01*
X257273999Y-168432950D01*
X257273484Y-168432648D01*
X257234034Y-168412707D01*
X257195530Y-168400341D01*
X257154872Y-168394668D01*
X257138087Y-168394083D01*
X257114254Y-168394415D01*
X257096605Y-168396288D01*
X257082009Y-168400161D01*
X257073751Y-168403484D01*
X257053014Y-168416793D01*
X257038962Y-168434596D01*
X257032801Y-168455249D01*
X257032623Y-168459444D01*
X257035436Y-168479532D01*
X257044391Y-168495258D01*
X257060184Y-168507101D01*
X257083509Y-168515540D01*
X257115064Y-168521053D01*
X257123339Y-168521937D01*
X257147917Y-168524307D01*
X257176935Y-168527089D01*
X257205500Y-168529814D01*
X257216024Y-168530814D01*
X257254602Y-168535985D01*
X257285970Y-168543850D01*
X257312083Y-168555118D01*
X257334897Y-168570499D01*
X257342051Y-168576614D01*
X257367454Y-168605144D01*
X257385080Y-168638244D01*
X257395072Y-168676313D01*
X257397571Y-168719752D01*
X257397066Y-168731113D01*
X257391998Y-168767304D01*
X257381028Y-168797840D01*
X257363052Y-168825122D01*
X257345124Y-168844123D01*
X257315445Y-168867963D01*
X257282118Y-168886117D01*
X257242718Y-168899858D01*
X257235202Y-168901857D01*
X257204628Y-168907839D01*
X257169544Y-168911785D01*
X257133618Y-168913483D01*
X257100520Y-168912719D01*
X257081830Y-168910736D01*
X257024883Y-168897451D01*
X256969158Y-168875694D01*
X256916629Y-168846339D01*
X256885533Y-168823913D01*
X256858006Y-168802034D01*
X256949476Y-168710220D01*
X256975650Y-168731539D01*
X257011608Y-168756783D01*
X257048748Y-168774303D01*
X257088862Y-168784661D01*
X257133740Y-168788414D01*
X257156482Y-168788077D01*
X257193554Y-168784362D01*
X257222543Y-168776409D01*
X257243856Y-168763954D01*
X257257902Y-168746733D01*
X257265089Y-168724486D01*
X257265909Y-168717544D01*
X257265971Y-168700665D01*
X257262520Y-168686992D01*
X257254689Y-168676077D01*
X257241609Y-168667473D01*
X257222411Y-168660735D01*
X257196226Y-168655414D01*
X257162186Y-168651065D01*
X257131055Y-168648178D01*
X257085818Y-168643501D01*
X257048511Y-168637421D01*
X257017732Y-168629470D01*
X256992080Y-168619177D01*
X256970156Y-168606075D01*
X256950557Y-168589695D01*
X256947581Y-168586776D01*
X256926240Y-168559076D01*
X256911354Y-168526159D01*
X256903117Y-168489788D01*
X256901721Y-168451724D01*
X256907361Y-168413729D01*
X256920230Y-168377565D01*
X256923846Y-168370411D01*
X256944593Y-168341255D01*
X256972657Y-168316650D01*
X257007002Y-168296879D01*
X257046598Y-168282225D01*
X257090409Y-168272971D01*
X257137404Y-168269400D01*
X257186550Y-168271796D01*
G37*
G36*
X259074176Y-168277241D02*
G01*
X259113348Y-168292038D01*
X259133855Y-168303886D01*
X259146157Y-168313852D01*
X259150020Y-168321727D01*
X259149727Y-168323041D01*
X259145865Y-168328972D01*
X259137075Y-168340530D01*
X259124532Y-168356223D01*
X259109412Y-168374563D01*
X259103825Y-168381218D01*
X259060571Y-168432494D01*
X259048664Y-168424657D01*
X259018225Y-168408424D01*
X258988761Y-168400914D01*
X258958734Y-168401816D01*
X258947159Y-168404222D01*
X258916411Y-168416362D01*
X258891608Y-168435694D01*
X258873040Y-168461986D01*
X258871857Y-168464334D01*
X258858611Y-168491309D01*
X258857212Y-168698756D01*
X258855814Y-168906203D01*
X258725001Y-168906203D01*
X258725001Y-168278001D01*
X258856267Y-168278001D01*
X258856267Y-168339743D01*
X258877954Y-168320653D01*
X258912051Y-168296659D01*
X258950280Y-168280218D01*
X258991083Y-168271433D01*
X259032901Y-168270407D01*
X259074176Y-168277241D01*
G37*
G36*
X259008604Y-169459397D02*
G01*
X259025955Y-169409676D01*
X259049740Y-169366307D01*
X259079361Y-169329668D01*
X259114222Y-169300138D01*
X259153725Y-169278093D01*
X259197274Y-169263913D01*
X259244271Y-169257975D01*
X259294121Y-169260658D01*
X259316270Y-169264552D01*
X259357983Y-169277896D01*
X259397955Y-169299238D01*
X259434215Y-169327201D01*
X259464792Y-169360411D01*
X259475521Y-169375677D01*
X259489186Y-169399905D01*
X259499591Y-169425660D01*
X259507144Y-169454686D01*
X259512252Y-169488732D01*
X259515323Y-169529541D01*
X259516120Y-169549642D01*
X259518582Y-169628167D01*
X259126873Y-169628167D01*
X259129425Y-169656313D01*
X259136531Y-169688037D01*
X259151088Y-169717609D01*
X259171633Y-169742312D01*
X259179259Y-169748765D01*
X259208871Y-169765869D01*
X259242232Y-169775452D01*
X259277691Y-169777659D01*
X259313599Y-169772634D01*
X259348307Y-169760523D01*
X259380164Y-169741472D01*
X259393989Y-169729877D01*
X259408990Y-169715857D01*
X259455921Y-169756496D01*
X259477373Y-169775666D01*
X259491587Y-169789816D01*
X259498957Y-169799373D01*
X259500084Y-169804348D01*
X259494073Y-169812474D01*
X259481961Y-169823852D01*
X259465722Y-169836974D01*
X259447334Y-169850334D01*
X259428773Y-169862421D01*
X259412013Y-169871730D01*
X259411391Y-169872032D01*
X259390461Y-169880854D01*
X259367006Y-169888927D01*
X259352790Y-169892852D01*
X259328482Y-169896764D01*
X259298305Y-169898945D01*
X259265535Y-169899401D01*
X259233453Y-169898138D01*
X259205338Y-169895163D01*
X259191693Y-169892547D01*
X259145884Y-169877104D01*
X259105981Y-169854405D01*
X259072063Y-169824541D01*
X259044210Y-169787605D01*
X259022499Y-169743685D01*
X259007012Y-169692875D01*
X259003737Y-169677083D01*
X259000130Y-169649786D01*
X258998107Y-169616703D01*
X258997609Y-169580433D01*
X258998579Y-169543577D01*
X259000165Y-169520342D01*
X259128175Y-169520342D01*
X259257097Y-169520342D01*
X259290764Y-169520219D01*
X259321145Y-169519874D01*
X259347046Y-169519338D01*
X259367271Y-169518644D01*
X259380623Y-169517825D01*
X259385907Y-169516914D01*
X259385946Y-169516825D01*
X259383909Y-169503182D01*
X259378978Y-169484626D01*
X259372295Y-169464708D01*
X259365005Y-169446978D01*
X259360858Y-169438940D01*
X259341263Y-169413455D01*
X259316669Y-169395649D01*
X259286687Y-169385320D01*
X259252409Y-169382250D01*
X259231797Y-169383192D01*
X259215957Y-169386428D01*
X259200367Y-169393040D01*
X259194743Y-169396016D01*
X259178123Y-169407117D01*
X259162736Y-169420711D01*
X259155911Y-169428589D01*
X259144012Y-169448967D01*
X259134550Y-169472969D01*
X259129011Y-169496383D01*
X259128175Y-169507128D01*
X259128175Y-169520342D01*
X259000165Y-169520342D01*
X259000958Y-169508734D01*
X259001156Y-169507128D01*
X259004688Y-169478505D01*
X259008604Y-169459397D01*
G37*
G36*
X257468720Y-168542189D02*
G01*
X257471434Y-168500144D01*
X257476442Y-168464579D01*
X257484142Y-168434108D01*
X257494934Y-168407341D01*
X257509217Y-168382892D01*
X257527392Y-168359371D01*
X257538409Y-168347157D01*
X257573602Y-168315816D01*
X257612606Y-168292848D01*
X257656167Y-168277876D01*
X257687064Y-168272282D01*
X257738935Y-168269892D01*
X257787643Y-168275875D01*
X257832551Y-168289836D01*
X257873025Y-168311382D01*
X257908427Y-168340121D01*
X257938122Y-168375657D01*
X257961473Y-168417599D01*
X257973323Y-168449316D01*
X257976105Y-168459523D01*
X257978231Y-168470726D01*
X257979784Y-168484312D01*
X257980847Y-168501666D01*
X257981506Y-168524175D01*
X257981842Y-168553223D01*
X257981940Y-168590197D01*
X257981941Y-168592102D01*
X257981851Y-168629472D01*
X257981528Y-168658853D01*
X257980886Y-168681631D01*
X257979842Y-168699191D01*
X257978314Y-168712919D01*
X257976216Y-168724201D01*
X257973466Y-168734423D01*
X257973323Y-168734888D01*
X257959831Y-168771195D01*
X257942852Y-168801758D01*
X257920271Y-168830107D01*
X257909760Y-168841055D01*
X257877313Y-168869183D01*
X257843113Y-168889731D01*
X257805349Y-168903472D01*
X257762209Y-168911177D01*
X257741296Y-168912841D01*
X257718992Y-168913376D01*
X257696861Y-168912769D01*
X257679082Y-168911157D01*
X257676497Y-168910740D01*
X257629277Y-168897812D01*
X257586978Y-168877145D01*
X257550188Y-168849315D01*
X257519496Y-168814898D01*
X257495489Y-168774471D01*
X257478756Y-168728610D01*
X257475174Y-168713551D01*
X257471824Y-168692274D01*
X257469540Y-168664919D01*
X257468256Y-168630362D01*
X257468081Y-168611557D01*
X257596188Y-168611557D01*
X257599872Y-168657725D01*
X257608276Y-168696400D01*
X257621351Y-168727362D01*
X257639044Y-168750391D01*
X257642732Y-168753691D01*
X257669643Y-168770503D01*
X257700601Y-168780202D01*
X257733246Y-168782520D01*
X257765215Y-168777187D01*
X257783927Y-168769786D01*
X257806512Y-168756237D01*
X257822951Y-168740319D01*
X257836444Y-168718887D01*
X257837209Y-168717398D01*
X257845438Y-168694781D01*
X257851349Y-168665304D01*
X257854944Y-168631193D01*
X257856226Y-168594670D01*
X257855198Y-168557962D01*
X257851863Y-168523293D01*
X257846223Y-168492886D01*
X257838280Y-168468968D01*
X257836907Y-168466109D01*
X257818708Y-168439731D01*
X257795101Y-168419876D01*
X257767618Y-168406767D01*
X257737793Y-168400626D01*
X257707159Y-168401676D01*
X257677251Y-168410138D01*
X257649601Y-168426234D01*
X257637144Y-168437173D01*
X257623674Y-168452496D01*
X257613673Y-168468898D01*
X257606523Y-168488256D01*
X257601603Y-168512448D01*
X257598295Y-168543352D01*
X257597278Y-168558117D01*
X257596188Y-168611557D01*
X257468081Y-168611557D01*
X257467899Y-168592102D01*
X257468720Y-168542189D01*
G37*
G36*
X259476916Y-168276187D02*
G01*
X259523178Y-168290032D01*
X259567281Y-168311521D01*
X259608128Y-168340663D01*
X259618216Y-168349621D01*
X259650067Y-168379209D01*
X259553893Y-168465531D01*
X259532073Y-168446119D01*
X259503545Y-168424307D01*
X259474946Y-168410464D01*
X259443594Y-168403551D01*
X259418836Y-168402281D01*
X259384066Y-168404873D01*
X259355060Y-168413124D01*
X259329533Y-168427880D01*
X259313953Y-168441143D01*
X259294525Y-168465729D01*
X259279667Y-168497254D01*
X259269724Y-168534285D01*
X259265044Y-168575390D01*
X259265973Y-168619135D01*
X259267469Y-168633123D01*
X259273927Y-168669085D01*
X259283686Y-168698249D01*
X259297675Y-168722889D01*
X259310890Y-168739104D01*
X259334079Y-168759505D01*
X259360346Y-168772931D01*
X259391441Y-168780073D01*
X259418836Y-168781720D01*
X259440932Y-168781341D01*
X259457325Y-168779438D01*
X259471652Y-168775350D01*
X259484735Y-168769751D01*
X259503501Y-168759139D01*
X259522497Y-168745608D01*
X259531207Y-168738107D01*
X259542271Y-168727825D01*
X259550338Y-168720783D01*
X259553305Y-168718680D01*
X259557189Y-168721655D01*
X259566680Y-168729815D01*
X259580471Y-168742012D01*
X259597254Y-168757098D01*
X259602528Y-168761881D01*
X259650075Y-168805082D01*
X259618089Y-168834361D01*
X259581908Y-168862928D01*
X259542329Y-168886176D01*
X259502363Y-168902355D01*
X259499668Y-168903166D01*
X259475955Y-168908247D01*
X259446979Y-168911704D01*
X259416664Y-168913286D01*
X259388931Y-168912744D01*
X259374299Y-168911158D01*
X259326117Y-168900157D01*
X259284423Y-168883482D01*
X259247724Y-168860380D01*
X259215344Y-168830970D01*
X259189046Y-168798724D01*
X259168387Y-168763057D01*
X259152148Y-168721683D01*
X259146151Y-168701315D01*
X259140421Y-168671997D01*
X259136873Y-168636444D01*
X259135504Y-168597538D01*
X259136314Y-168558164D01*
X259139300Y-168521204D01*
X259144459Y-168489541D01*
X259146315Y-168481933D01*
X259161146Y-168437117D01*
X259180311Y-168398816D01*
X259205069Y-168364687D01*
X259215468Y-168353103D01*
X259251638Y-168321285D01*
X259292232Y-168297053D01*
X259336155Y-168280418D01*
X259382308Y-168271389D01*
X259429594Y-168269976D01*
X259476916Y-168276187D01*
G37*
G36*
X258219632Y-168483105D02*
G01*
X258219976Y-168532291D01*
X258220308Y-168573018D01*
X258220678Y-168606204D01*
X258221136Y-168632765D01*
X258221731Y-168653618D01*
X258222515Y-168669681D01*
X258223536Y-168681870D01*
X258224844Y-168691103D01*
X258226490Y-168698297D01*
X258228524Y-168704368D01*
X258230995Y-168710234D01*
X258232141Y-168712781D01*
X258249724Y-168741120D01*
X258273503Y-168762606D01*
X258302855Y-168776693D01*
X258306007Y-168777654D01*
X258340028Y-168783181D01*
X258372077Y-168779638D01*
X258401544Y-168767195D01*
X258427820Y-168746024D01*
X258430879Y-168742740D01*
X258438070Y-168734465D01*
X258444079Y-168726352D01*
X258449012Y-168717507D01*
X258452975Y-168707038D01*
X258456074Y-168694050D01*
X258458414Y-168677653D01*
X258460103Y-168656951D01*
X258461245Y-168631054D01*
X258461946Y-168599067D01*
X258462313Y-168560098D01*
X258462451Y-168513253D01*
X258462468Y-168476394D01*
X258462468Y-168278001D01*
X258593735Y-168278001D01*
X258593735Y-168906203D01*
X258462468Y-168906203D01*
X258462468Y-168844064D01*
X258441035Y-168863821D01*
X258410610Y-168885901D01*
X258374717Y-168902087D01*
X258335627Y-168911780D01*
X258295610Y-168914382D01*
X258263225Y-168910708D01*
X258220005Y-168897367D01*
X258181729Y-168876489D01*
X258149128Y-168848848D01*
X258122935Y-168815214D01*
X258103880Y-168776358D01*
X258092695Y-168733052D01*
X258092300Y-168730401D01*
X258091312Y-168718813D01*
X258090390Y-168698992D01*
X258089558Y-168672085D01*
X258088837Y-168639233D01*
X258088251Y-168601582D01*
X258087821Y-168560276D01*
X258087571Y-168516458D01*
X258087515Y-168487793D01*
X258087422Y-168278001D01*
X258218231Y-168278001D01*
X258219632Y-168483105D01*
G37*
G36*
X257935539Y-169659981D02*
G01*
X257949119Y-169623220D01*
X257969683Y-169590665D01*
X257985262Y-169573794D01*
X258003211Y-169558681D01*
X258022152Y-169546568D01*
X258043326Y-169537163D01*
X258067973Y-169530171D01*
X258097335Y-169525298D01*
X258132653Y-169522250D01*
X258175166Y-169520732D01*
X258210484Y-169520423D01*
X258307762Y-169520342D01*
X258307762Y-169482686D01*
X258306012Y-169452170D01*
X258300208Y-169428136D01*
X258289524Y-169409927D01*
X258273130Y-169396886D01*
X258250198Y-169388353D01*
X258219899Y-169383673D01*
X258181405Y-169382187D01*
X258181184Y-169382186D01*
X258156641Y-169382361D01*
X258139056Y-169383243D01*
X258126015Y-169385175D01*
X258115106Y-169388499D01*
X258105021Y-169393012D01*
X258090262Y-169401601D01*
X258077930Y-169411041D01*
X258073874Y-169415269D01*
X258066530Y-169423254D01*
X258061357Y-169426580D01*
X258061353Y-169426580D01*
X258056480Y-169423929D01*
X258046026Y-169416836D01*
X258031717Y-169406595D01*
X258015277Y-169394497D01*
X257998432Y-169381834D01*
X257982906Y-169369899D01*
X257970425Y-169359983D01*
X257962713Y-169353379D01*
X257961075Y-169351467D01*
X257964093Y-169344887D01*
X257972646Y-169334480D01*
X257984846Y-169322145D01*
X257998803Y-169309781D01*
X258012628Y-169299286D01*
X258013762Y-169298524D01*
X258040474Y-169283059D01*
X258068352Y-169271941D01*
X258099675Y-169264548D01*
X258136720Y-169260255D01*
X258157743Y-169259090D01*
X258217362Y-169259538D01*
X258269930Y-169265947D01*
X258315396Y-169278287D01*
X258353707Y-169296525D01*
X258384812Y-169320632D01*
X258408659Y-169350575D01*
X258425197Y-169386323D01*
X258434215Y-169426580D01*
X258435154Y-169438557D01*
X258436034Y-169458777D01*
X258436833Y-169486107D01*
X258437531Y-169519413D01*
X258438105Y-169557561D01*
X258438537Y-169599420D01*
X258438804Y-169643855D01*
X258438883Y-169678564D01*
X258439028Y-169895388D01*
X258307762Y-169895388D01*
X258307762Y-169843099D01*
X258295827Y-169857284D01*
X258284962Y-169867151D01*
X258269382Y-169877808D01*
X258257150Y-169884560D01*
X258245763Y-169889833D01*
X258235428Y-169893513D01*
X258224026Y-169895928D01*
X258209435Y-169897405D01*
X258189536Y-169898271D01*
X258164776Y-169898808D01*
X258131211Y-169898922D01*
X258105321Y-169897854D01*
X258085462Y-169895499D01*
X258073849Y-169892910D01*
X258032543Y-169877057D01*
X257997491Y-169854524D01*
X257969138Y-169825795D01*
X257947930Y-169791353D01*
X257934312Y-169751680D01*
X257931747Y-169738677D01*
X257929781Y-169703305D01*
X258054623Y-169703305D01*
X258058788Y-169727536D01*
X258071197Y-169747444D01*
X258091661Y-169762803D01*
X258110863Y-169770784D01*
X258126922Y-169774094D01*
X258149341Y-169776373D01*
X258175154Y-169777556D01*
X258201395Y-169777578D01*
X258225097Y-169776375D01*
X258243293Y-169773881D01*
X258244110Y-169773697D01*
X258266251Y-169766110D01*
X258282808Y-169754268D01*
X258294493Y-169737040D01*
X258302019Y-169713293D01*
X258306101Y-169681895D01*
X258306570Y-169674534D01*
X258309180Y-169627181D01*
X258213537Y-169628998D01*
X258180455Y-169629713D01*
X258155239Y-169630532D01*
X258136382Y-169631609D01*
X258122373Y-169633095D01*
X258111705Y-169635143D01*
X258102868Y-169637906D01*
X258095751Y-169640893D01*
X258074086Y-169654976D01*
X258060453Y-169673887D01*
X258054801Y-169697703D01*
X258054623Y-169703305D01*
X257929781Y-169703305D01*
X257929547Y-169699087D01*
X257935539Y-169659981D01*
G37*
G36*
X256370230Y-168277585D02*
G01*
X256379318Y-168280148D01*
X256414997Y-168295597D01*
X256447981Y-168318788D01*
X256476695Y-168348151D01*
X256499561Y-168382120D01*
X256513152Y-168413231D01*
X256515521Y-168420621D01*
X256517510Y-168427936D01*
X256519157Y-168436055D01*
X256520505Y-168445859D01*
X256521593Y-168458227D01*
X256522461Y-168474041D01*
X256523152Y-168494179D01*
X256523704Y-168519523D01*
X256524160Y-168550951D01*
X256524559Y-168589346D01*
X256524941Y-168635585D01*
X256525238Y-168675316D01*
X256526924Y-168906203D01*
X256395484Y-168906203D01*
X256394083Y-168701100D01*
X256393737Y-168651888D01*
X256393401Y-168611138D01*
X256393025Y-168577937D01*
X256392561Y-168551372D01*
X256391961Y-168530528D01*
X256391175Y-168514492D01*
X256390155Y-168502351D01*
X256388851Y-168493190D01*
X256387216Y-168486097D01*
X256385200Y-168480158D01*
X256382755Y-168474459D01*
X256381883Y-168472556D01*
X256364644Y-168443166D01*
X256343465Y-168422093D01*
X256317542Y-168408818D01*
X256286071Y-168402822D01*
X256273137Y-168402345D01*
X256252877Y-168402856D01*
X256238008Y-168405130D01*
X256224582Y-168410058D01*
X256213558Y-168415767D01*
X256197519Y-168426591D01*
X256183097Y-168439537D01*
X256176904Y-168446955D01*
X256170969Y-168455857D01*
X256166026Y-168464527D01*
X256161985Y-168473887D01*
X256158755Y-168484856D01*
X256156246Y-168498355D01*
X256154367Y-168515306D01*
X256153027Y-168536629D01*
X256152137Y-168563244D01*
X256151604Y-168596073D01*
X256151340Y-168636035D01*
X256151252Y-168684052D01*
X256151247Y-168707705D01*
X256151247Y-168906203D01*
X256019980Y-168906203D01*
X256019980Y-168278001D01*
X256151247Y-168278001D01*
X256151247Y-168340140D01*
X256171877Y-168321124D01*
X256204780Y-168297004D01*
X256242388Y-168280329D01*
X256283379Y-168271361D01*
X256326433Y-168270359D01*
X256370230Y-168277585D01*
G37*
G36*
X254192715Y-168532265D02*
G01*
X254194218Y-168503146D01*
X254196578Y-168479718D01*
X254198197Y-168470212D01*
X254212470Y-168423134D01*
X254234030Y-168381440D01*
X254262178Y-168345604D01*
X254296214Y-168316101D01*
X254335439Y-168293405D01*
X254379152Y-168277989D01*
X254426654Y-168270328D01*
X254477246Y-168270897D01*
X254490234Y-168272372D01*
X254537176Y-168283124D01*
X254579929Y-168301848D01*
X254617717Y-168327820D01*
X254649763Y-168360319D01*
X254675289Y-168398624D01*
X254693517Y-168442012D01*
X254700039Y-168467235D01*
X254703068Y-168487968D01*
X254705372Y-168515764D01*
X254706927Y-168548338D01*
X254707706Y-168583402D01*
X254707683Y-168618669D01*
X254706831Y-168651855D01*
X254705124Y-168680671D01*
X254702731Y-168701645D01*
X254690733Y-168749706D01*
X254671162Y-168792834D01*
X254644538Y-168830423D01*
X254611377Y-168861868D01*
X254572198Y-168886564D01*
X254530306Y-168903095D01*
X254505640Y-168908401D01*
X254475652Y-168911877D01*
X254444259Y-168913284D01*
X254415380Y-168912385D01*
X254402362Y-168910880D01*
X254355513Y-168898983D01*
X254313128Y-168879085D01*
X254275856Y-168851750D01*
X254244341Y-168817541D01*
X254219230Y-168777019D01*
X254203212Y-168737433D01*
X254199707Y-168721149D01*
X254196812Y-168697388D01*
X254194561Y-168668031D01*
X254192991Y-168634958D01*
X254192136Y-168600053D01*
X254192098Y-168587462D01*
X254319404Y-168587462D01*
X254320054Y-168623580D01*
X254322917Y-168657658D01*
X254328007Y-168687483D01*
X254335340Y-168710842D01*
X254336990Y-168714370D01*
X254356065Y-168743195D01*
X254380293Y-168764222D01*
X254409402Y-168777303D01*
X254443123Y-168782291D01*
X254460081Y-168781830D01*
X254479441Y-168778770D01*
X254498622Y-168773288D01*
X254506961Y-168769786D01*
X254529419Y-168756333D01*
X254545802Y-168740504D01*
X254559375Y-168719068D01*
X254560613Y-168716668D01*
X254568949Y-168693795D01*
X254574909Y-168664095D01*
X254578498Y-168629811D01*
X254579717Y-168593187D01*
X254578570Y-168556465D01*
X254575059Y-168521889D01*
X254569187Y-168491701D01*
X254560956Y-168468145D01*
X254560311Y-168466839D01*
X254541651Y-168439701D01*
X254516997Y-168419122D01*
X254489645Y-168406789D01*
X254455082Y-168400752D01*
X254422077Y-168403157D01*
X254391863Y-168413513D01*
X254365674Y-168431330D01*
X254344744Y-168456116D01*
X254338639Y-168466839D01*
X254330585Y-168488991D01*
X254324684Y-168517955D01*
X254320953Y-168551516D01*
X254319404Y-168587462D01*
X254192098Y-168587462D01*
X254192032Y-168565195D01*
X254192715Y-168532265D01*
G37*
G36*
X254941723Y-168278001D02*
G01*
X254941723Y-168340037D01*
X254961069Y-168322559D01*
X254976073Y-168311021D01*
X254995095Y-168299062D01*
X255009929Y-168291270D01*
X255052000Y-168276325D01*
X255094824Y-168270004D01*
X255137186Y-168272116D01*
X255177868Y-168282466D01*
X255215653Y-168300864D01*
X255249326Y-168327117D01*
X255251762Y-168329507D01*
X255277850Y-168360207D01*
X255295917Y-168393041D01*
X255307311Y-168430534D01*
X255308314Y-168435574D01*
X255310319Y-168451499D01*
X255311934Y-168474917D01*
X255313159Y-168504160D01*
X255313991Y-168537559D01*
X255314431Y-168573445D01*
X255314477Y-168610148D01*
X255314127Y-168646000D01*
X255313381Y-168679333D01*
X255312238Y-168708477D01*
X255310696Y-168731764D01*
X255308753Y-168747524D01*
X255308530Y-168748657D01*
X255295223Y-168790915D01*
X255274353Y-168828101D01*
X255246643Y-168859535D01*
X255212812Y-168884536D01*
X255173584Y-168902424D01*
X255135700Y-168911659D01*
X255093055Y-168913933D01*
X255051488Y-168907190D01*
X255010592Y-168891315D01*
X254969961Y-168866191D01*
X254966335Y-168863496D01*
X254941723Y-168844955D01*
X254941723Y-169324572D01*
X254961647Y-169308272D01*
X254997909Y-169284058D01*
X255036776Y-169267830D01*
X255077084Y-169259363D01*
X255117669Y-169258431D01*
X255157365Y-169264810D01*
X255195009Y-169278274D01*
X255229435Y-169298599D01*
X255259478Y-169325558D01*
X255283974Y-169358928D01*
X255290947Y-169371926D01*
X255299789Y-169392065D01*
X255307339Y-169413000D01*
X255312004Y-169430297D01*
X255312087Y-169430736D01*
X255313113Y-169441020D01*
X255314049Y-169459749D01*
X255314875Y-169485990D01*
X255315575Y-169518811D01*
X255316130Y-169557283D01*
X255316523Y-169600472D01*
X255316735Y-169647447D01*
X255316769Y-169675688D01*
X255316769Y-169895388D01*
X255185503Y-169895388D01*
X255185503Y-169696890D01*
X255185465Y-169645196D01*
X255185293Y-169601952D01*
X255184895Y-169566227D01*
X255184182Y-169537095D01*
X255183064Y-169513627D01*
X255181450Y-169494896D01*
X255179251Y-169479973D01*
X255176376Y-169467932D01*
X255172735Y-169457843D01*
X255168239Y-169448780D01*
X255162796Y-169439814D01*
X255160145Y-169435760D01*
X255141043Y-169414900D01*
X255116567Y-169400150D01*
X255088588Y-169391669D01*
X255058976Y-169389614D01*
X255029599Y-169394142D01*
X255002328Y-169405409D01*
X254981819Y-169420770D01*
X254968860Y-169435676D01*
X254957350Y-169452793D01*
X254953879Y-169459397D01*
X254951530Y-169464784D01*
X254949580Y-169470525D01*
X254947984Y-169477520D01*
X254946698Y-169486669D01*
X254945679Y-169498872D01*
X254944881Y-169515029D01*
X254944261Y-169536040D01*
X254943775Y-169562805D01*
X254943379Y-169596225D01*
X254943027Y-169637198D01*
X254942677Y-169686626D01*
X254942668Y-169687940D01*
X254941270Y-169895388D01*
X254810457Y-169895388D01*
X254810457Y-168595773D01*
X254942948Y-168595773D01*
X254944340Y-168633219D01*
X254948012Y-168668168D01*
X254953964Y-168698303D01*
X254960232Y-168717077D01*
X254976189Y-168744297D01*
X254997334Y-168764911D01*
X255021961Y-168777577D01*
X255046171Y-168782181D01*
X255073742Y-168782331D01*
X255100805Y-168778333D01*
X255123491Y-168770494D01*
X255125689Y-168769336D01*
X255144681Y-168755709D01*
X255159659Y-168737573D01*
X255170916Y-168714059D01*
X255178744Y-168684296D01*
X255183436Y-168647415D01*
X255185285Y-168602545D01*
X255185340Y-168592102D01*
X255183724Y-168542891D01*
X255178672Y-168501975D01*
X255169882Y-168468813D01*
X255157048Y-168442861D01*
X255139867Y-168423579D01*
X255118036Y-168410424D01*
X255091249Y-168402854D01*
X255078310Y-168401197D01*
X255043465Y-168401850D01*
X255013433Y-168410479D01*
X254988413Y-168426974D01*
X254968602Y-168451223D01*
X254960189Y-168467390D01*
X254952457Y-168491639D01*
X254947006Y-168522665D01*
X254943837Y-168558149D01*
X254942948Y-168595773D01*
X254810457Y-168595773D01*
X254810457Y-168278001D01*
X254941723Y-168278001D01*
G37*
G36*
X256355987Y-169259520D02*
G01*
X256397125Y-169268065D01*
X256436155Y-169284389D01*
X256462193Y-169301020D01*
X256465164Y-169304010D01*
X256465724Y-169307903D01*
X256463144Y-169313918D01*
X256456695Y-169323279D01*
X256445648Y-169337205D01*
X256429274Y-169356918D01*
X256427694Y-169358804D01*
X256411980Y-169377518D01*
X256398281Y-169393773D01*
X256387793Y-169406158D01*
X256381706Y-169413262D01*
X256380833Y-169414244D01*
X256375054Y-169414335D01*
X256363460Y-169410675D01*
X256348449Y-169404030D01*
X256347778Y-169403696D01*
X256315862Y-169392310D01*
X256284093Y-169389402D01*
X256253813Y-169394562D01*
X256226369Y-169407380D01*
X256203104Y-169427446D01*
X256186027Y-169452993D01*
X256183889Y-169457785D01*
X256182107Y-169463358D01*
X256180643Y-169470588D01*
X256179457Y-169480347D01*
X256178511Y-169493513D01*
X256177764Y-169510959D01*
X256177179Y-169533559D01*
X256176715Y-169562190D01*
X256176333Y-169597726D01*
X256175995Y-169641041D01*
X256175721Y-169683252D01*
X256174412Y-169895388D01*
X256043421Y-169895388D01*
X256043421Y-169267185D01*
X256174687Y-169267185D01*
X256174687Y-169323550D01*
X256200044Y-169302897D01*
X256234769Y-169280440D01*
X256273324Y-169265717D01*
X256314225Y-169258740D01*
X256355987Y-169259520D01*
G37*
G36*
X257597679Y-169483648D02*
G01*
X257611584Y-169526413D01*
X257624629Y-169566106D01*
X257636534Y-169601904D01*
X257647020Y-169632985D01*
X257655805Y-169658527D01*
X257662609Y-169677707D01*
X257667153Y-169689702D01*
X257669156Y-169693691D01*
X257669213Y-169693588D01*
X257670713Y-169687792D01*
X257674446Y-169673886D01*
X257680160Y-169652800D01*
X257687601Y-169625463D01*
X257696515Y-169592807D01*
X257706649Y-169555760D01*
X257717750Y-169515253D01*
X257727934Y-169478149D01*
X257785235Y-169269529D01*
X257854656Y-169268230D01*
X257882008Y-169267852D01*
X257901234Y-169267973D01*
X257913578Y-169268690D01*
X257920280Y-169270099D01*
X257922584Y-169272296D01*
X257922536Y-169273486D01*
X257920881Y-169278951D01*
X257916602Y-169292605D01*
X257909935Y-169313707D01*
X257901115Y-169341518D01*
X257890377Y-169375296D01*
X257877957Y-169414301D01*
X257864090Y-169457792D01*
X257849013Y-169505030D01*
X257832960Y-169555273D01*
X257822546Y-169587843D01*
X257724096Y-169895645D01*
X257666093Y-169894344D01*
X257608089Y-169893044D01*
X257544231Y-169678770D01*
X257531400Y-169635969D01*
X257519319Y-169596152D01*
X257508258Y-169560175D01*
X257498486Y-169528892D01*
X257490272Y-169503158D01*
X257483886Y-169483826D01*
X257479599Y-169471752D01*
X257477679Y-169467789D01*
X257477658Y-169467807D01*
X257475816Y-169472840D01*
X257471593Y-169485971D01*
X257465265Y-169506306D01*
X257457102Y-169532950D01*
X257447378Y-169565009D01*
X257436365Y-169601586D01*
X257424337Y-169641787D01*
X257412000Y-169683252D01*
X257349057Y-169895388D01*
X257291186Y-169895388D01*
X257266750Y-169895251D01*
X257250126Y-169894698D01*
X257239748Y-169893515D01*
X257234055Y-169891489D01*
X257231482Y-169888407D01*
X257231068Y-169887184D01*
X257229290Y-169881429D01*
X257224892Y-169867496D01*
X257218111Y-169846132D01*
X257209187Y-169818089D01*
X257198358Y-169784114D01*
X257185865Y-169744960D01*
X257171946Y-169701374D01*
X257156840Y-169654107D01*
X257140786Y-169603908D01*
X257131297Y-169574254D01*
X257033773Y-169269529D01*
X257101818Y-169268228D01*
X257126020Y-169267868D01*
X257146646Y-169267757D01*
X257161999Y-169267888D01*
X257170382Y-169268256D01*
X257171413Y-169268477D01*
X257172918Y-169273175D01*
X257176625Y-169286030D01*
X257182284Y-169306147D01*
X257189649Y-169332632D01*
X257198473Y-169364592D01*
X257208506Y-169401131D01*
X257219503Y-169441356D01*
X257230534Y-169481873D01*
X257242220Y-169524694D01*
X257253208Y-169564616D01*
X257263249Y-169600752D01*
X257272092Y-169632218D01*
X257279486Y-169658127D01*
X257285181Y-169677594D01*
X257288926Y-169689733D01*
X257290449Y-169693672D01*
X257292312Y-169689341D01*
X257296742Y-169676948D01*
X257303450Y-169657359D01*
X257312146Y-169631444D01*
X257322541Y-169600069D01*
X257334347Y-169564102D01*
X257347274Y-169524411D01*
X257361033Y-169481865D01*
X257361125Y-169481577D01*
X257429458Y-169269529D01*
X257478511Y-169268209D01*
X257527565Y-169266888D01*
X257597679Y-169483648D01*
G37*
G36*
X170228001Y-164238013D02*
G01*
X170420600Y-164286815D01*
X170595670Y-164369342D01*
X170749543Y-164482150D01*
X170878548Y-164621797D01*
X170979016Y-164784838D01*
X171047277Y-164967832D01*
X171059233Y-165017954D01*
X171064963Y-165065718D01*
X171070108Y-165149589D01*
X171074667Y-165265678D01*
X171078640Y-165410096D01*
X171082028Y-165578955D01*
X171084830Y-165768365D01*
X171087046Y-165974439D01*
X171088677Y-166193286D01*
X171089722Y-166421018D01*
X171090182Y-166653746D01*
X171090055Y-166887582D01*
X171089344Y-167118636D01*
X171088047Y-167343021D01*
X171086164Y-167556846D01*
X171083695Y-167756223D01*
X171080641Y-167937264D01*
X171077001Y-168096079D01*
X171072776Y-168228780D01*
X171067965Y-168331477D01*
X171062569Y-168400283D01*
X171059233Y-168422833D01*
X170999874Y-168610083D01*
X170907080Y-168778954D01*
X170784677Y-168925623D01*
X170636490Y-169046265D01*
X170466342Y-169137056D01*
X170290440Y-169191626D01*
X170161262Y-169212927D01*
X170046648Y-169215972D01*
X169925546Y-169200716D01*
X169876219Y-169190716D01*
X169692544Y-169130972D01*
X169526071Y-169037582D01*
X169380901Y-168914692D01*
X169261138Y-168766452D01*
X169170882Y-168597008D01*
X169116768Y-168422833D01*
X169111038Y-168375069D01*
X169105893Y-168291198D01*
X169101334Y-168175109D01*
X169097361Y-168030691D01*
X169093973Y-167861832D01*
X169091171Y-167672422D01*
X169088955Y-167466348D01*
X169087324Y-167247501D01*
X169086279Y-167019769D01*
X169085819Y-166787041D01*
X169085946Y-166553205D01*
X169086657Y-166322151D01*
X169087954Y-166097766D01*
X169089837Y-165883941D01*
X169092306Y-165684564D01*
X169095360Y-165503523D01*
X169099000Y-165344708D01*
X169103225Y-165212007D01*
X169108036Y-165109310D01*
X169113432Y-165040504D01*
X169116768Y-165017954D01*
X169174951Y-164833785D01*
X169265000Y-164668303D01*
X169382574Y-164524556D01*
X169523328Y-164405593D01*
X169682922Y-164314460D01*
X169857011Y-164254206D01*
X170041253Y-164227879D01*
X170228001Y-164238013D01*
G37*
G36*
X175322094Y-161254967D02*
G01*
X175495970Y-161315780D01*
X175655275Y-161407419D01*
X175795666Y-161526836D01*
X175912801Y-161670984D01*
X176002337Y-161836814D01*
X176059233Y-162017954D01*
X176062601Y-162053925D01*
X176065779Y-162127695D01*
X176068765Y-162237064D01*
X176071562Y-162379830D01*
X176074167Y-162553794D01*
X176076583Y-162756755D01*
X176078807Y-162986513D01*
X176080842Y-163240866D01*
X176082685Y-163517615D01*
X176084339Y-163814558D01*
X176085801Y-164129496D01*
X176087073Y-164460227D01*
X176088155Y-164804552D01*
X176089046Y-165160269D01*
X176089747Y-165525179D01*
X176090257Y-165897080D01*
X176090576Y-166273773D01*
X176090705Y-166653056D01*
X176090644Y-167032729D01*
X176090392Y-167410591D01*
X176089949Y-167784443D01*
X176089316Y-168152083D01*
X176088493Y-168511311D01*
X176087479Y-168859927D01*
X176086274Y-169195729D01*
X176084879Y-169516518D01*
X176083293Y-169820093D01*
X176081517Y-170104253D01*
X176079550Y-170366798D01*
X176077393Y-170605527D01*
X176075046Y-170818240D01*
X176072507Y-171002737D01*
X176069779Y-171156816D01*
X176066859Y-171278277D01*
X176063750Y-171364920D01*
X176060449Y-171414544D01*
X176059233Y-171422833D01*
X175999874Y-171610083D01*
X175907080Y-171778954D01*
X175784677Y-171925623D01*
X175636490Y-172046265D01*
X175466342Y-172137056D01*
X175290440Y-172191626D01*
X175161262Y-172212927D01*
X175046648Y-172215972D01*
X174925546Y-172200716D01*
X174876219Y-172190716D01*
X174692544Y-172130972D01*
X174526071Y-172037582D01*
X174380901Y-171914692D01*
X174261138Y-171766452D01*
X174170882Y-171597008D01*
X174116768Y-171422833D01*
X174113400Y-171386862D01*
X174110222Y-171313092D01*
X174107236Y-171203723D01*
X174104439Y-171060957D01*
X174101834Y-170886993D01*
X174099418Y-170684032D01*
X174097194Y-170454274D01*
X174095159Y-170199921D01*
X174093316Y-169923172D01*
X174091662Y-169626229D01*
X174090200Y-169311291D01*
X174088928Y-168980560D01*
X174087846Y-168636235D01*
X174086955Y-168280518D01*
X174086254Y-167915608D01*
X174085744Y-167543707D01*
X174085425Y-167167014D01*
X174085296Y-166787731D01*
X174085357Y-166408058D01*
X174085609Y-166030196D01*
X174086052Y-165656344D01*
X174086685Y-165288704D01*
X174087508Y-164929476D01*
X174088522Y-164580860D01*
X174089727Y-164245058D01*
X174091122Y-163924269D01*
X174092708Y-163620694D01*
X174094484Y-163336534D01*
X174096451Y-163073989D01*
X174098608Y-162835260D01*
X174100955Y-162622547D01*
X174103494Y-162438050D01*
X174106222Y-162283971D01*
X174109142Y-162162510D01*
X174112251Y-162075867D01*
X174115552Y-162026243D01*
X174116768Y-162017954D01*
X174176108Y-161830363D01*
X174268603Y-161661834D01*
X174390584Y-161515811D01*
X174538380Y-161395736D01*
X174708323Y-161305053D01*
X174896744Y-161247203D01*
X174948001Y-161238013D01*
X175137990Y-161228029D01*
X175322094Y-161254967D01*
G37*
G36*
X172822094Y-162754967D02*
G01*
X172995970Y-162815780D01*
X173155275Y-162907419D01*
X173295666Y-163026836D01*
X173412801Y-163170984D01*
X173502337Y-163336814D01*
X173559233Y-163517954D01*
X173563336Y-163557533D01*
X173567150Y-163634402D01*
X173570677Y-163745853D01*
X173573917Y-163889175D01*
X173576869Y-164061660D01*
X173579533Y-164260599D01*
X173581910Y-164483282D01*
X173583999Y-164727002D01*
X173585801Y-164989048D01*
X173587315Y-165266711D01*
X173588541Y-165557284D01*
X173589480Y-165858056D01*
X173590131Y-166166318D01*
X173590495Y-166479362D01*
X173590571Y-166794479D01*
X173590360Y-167108959D01*
X173589861Y-167420093D01*
X173589075Y-167725173D01*
X173588001Y-168021489D01*
X173586639Y-168306332D01*
X173584990Y-168576994D01*
X173583053Y-168830765D01*
X173580829Y-169064937D01*
X173578317Y-169276799D01*
X173575517Y-169463644D01*
X173572430Y-169622762D01*
X173569056Y-169751443D01*
X173565393Y-169846980D01*
X173561444Y-169906663D01*
X173559233Y-169922833D01*
X173499874Y-170110083D01*
X173407080Y-170278954D01*
X173284677Y-170425623D01*
X173136490Y-170546265D01*
X172966342Y-170637056D01*
X172790440Y-170691626D01*
X172661262Y-170712927D01*
X172546648Y-170715972D01*
X172425546Y-170700716D01*
X172376219Y-170690716D01*
X172192544Y-170630972D01*
X172026071Y-170537582D01*
X171880901Y-170414692D01*
X171761138Y-170266452D01*
X171670882Y-170097008D01*
X171616768Y-169922833D01*
X171612665Y-169883254D01*
X171608851Y-169806385D01*
X171605324Y-169694934D01*
X171602084Y-169551612D01*
X171599132Y-169379127D01*
X171596468Y-169180188D01*
X171594091Y-168957505D01*
X171592002Y-168713785D01*
X171590200Y-168451739D01*
X171588686Y-168174076D01*
X171587460Y-167883503D01*
X171586521Y-167582731D01*
X171585870Y-167274469D01*
X171585506Y-166961425D01*
X171585430Y-166646308D01*
X171585641Y-166331828D01*
X171586140Y-166020694D01*
X171586926Y-165715614D01*
X171588000Y-165419298D01*
X171589362Y-165134455D01*
X171591011Y-164863793D01*
X171592948Y-164610022D01*
X171595172Y-164375850D01*
X171597684Y-164163988D01*
X171600484Y-163977143D01*
X171603571Y-163818025D01*
X171606945Y-163689344D01*
X171610608Y-163593807D01*
X171614557Y-163534124D01*
X171616768Y-163517954D01*
X171676108Y-163330363D01*
X171768603Y-163161834D01*
X171890584Y-163015811D01*
X172038380Y-162895736D01*
X172208323Y-162805053D01*
X172396744Y-162747203D01*
X172448001Y-162738013D01*
X172637990Y-162728029D01*
X172822094Y-162754967D01*
G37*
G36*
X177822094Y-162754967D02*
G01*
X177995970Y-162815780D01*
X178155275Y-162907419D01*
X178295666Y-163026836D01*
X178412801Y-163170984D01*
X178502337Y-163336814D01*
X178559233Y-163517954D01*
X178563336Y-163557533D01*
X178567150Y-163634402D01*
X178570677Y-163745853D01*
X178573917Y-163889175D01*
X178576869Y-164061660D01*
X178579533Y-164260599D01*
X178581910Y-164483282D01*
X178583999Y-164727002D01*
X178585801Y-164989048D01*
X178587315Y-165266711D01*
X178588541Y-165557284D01*
X178589480Y-165858056D01*
X178590131Y-166166318D01*
X178590495Y-166479362D01*
X178590571Y-166794479D01*
X178590360Y-167108959D01*
X178589861Y-167420093D01*
X178589075Y-167725173D01*
X178588001Y-168021489D01*
X178586639Y-168306332D01*
X178584990Y-168576994D01*
X178583053Y-168830765D01*
X178580829Y-169064937D01*
X178578317Y-169276799D01*
X178575517Y-169463644D01*
X178572430Y-169622762D01*
X178569056Y-169751443D01*
X178565393Y-169846980D01*
X178561444Y-169906663D01*
X178559233Y-169922833D01*
X178499874Y-170110083D01*
X178407080Y-170278954D01*
X178284677Y-170425623D01*
X178136490Y-170546265D01*
X177966342Y-170637056D01*
X177790440Y-170691626D01*
X177661262Y-170712927D01*
X177546648Y-170715972D01*
X177425546Y-170700716D01*
X177376219Y-170690716D01*
X177192544Y-170630972D01*
X177026071Y-170537582D01*
X176880901Y-170414692D01*
X176761138Y-170266452D01*
X176670882Y-170097008D01*
X176616768Y-169922833D01*
X176612665Y-169883254D01*
X176608851Y-169806385D01*
X176605324Y-169694934D01*
X176602084Y-169551612D01*
X176599132Y-169379127D01*
X176596468Y-169180188D01*
X176594091Y-168957505D01*
X176592002Y-168713785D01*
X176590200Y-168451739D01*
X176588686Y-168174076D01*
X176587460Y-167883503D01*
X176586521Y-167582731D01*
X176585870Y-167274469D01*
X176585506Y-166961425D01*
X176585430Y-166646308D01*
X176585641Y-166331828D01*
X176586140Y-166020694D01*
X176586926Y-165715614D01*
X176588000Y-165419298D01*
X176589362Y-165134455D01*
X176591011Y-164863793D01*
X176592948Y-164610022D01*
X176595172Y-164375850D01*
X176597684Y-164163988D01*
X176600484Y-163977143D01*
X176603571Y-163818025D01*
X176606945Y-163689344D01*
X176610608Y-163593807D01*
X176614557Y-163534124D01*
X176616768Y-163517954D01*
X176676108Y-163330363D01*
X176768603Y-163161834D01*
X176890584Y-163015811D01*
X177038380Y-162895736D01*
X177208323Y-162805053D01*
X177396744Y-162747203D01*
X177448001Y-162738013D01*
X177637990Y-162728029D01*
X177822094Y-162754967D01*
G37*
G36*
X180228001Y-164238013D02*
G01*
X180420600Y-164286815D01*
X180595670Y-164369342D01*
X180749543Y-164482150D01*
X180878548Y-164621797D01*
X180979016Y-164784838D01*
X181047277Y-164967832D01*
X181059233Y-165017954D01*
X181064963Y-165065718D01*
X181070108Y-165149589D01*
X181074667Y-165265678D01*
X181078640Y-165410096D01*
X181082028Y-165578955D01*
X181084830Y-165768365D01*
X181087046Y-165974439D01*
X181088677Y-166193286D01*
X181089722Y-166421018D01*
X181090182Y-166653746D01*
X181090055Y-166887582D01*
X181089344Y-167118636D01*
X181088047Y-167343021D01*
X181086164Y-167556846D01*
X181083695Y-167756223D01*
X181080641Y-167937264D01*
X181077001Y-168096079D01*
X181072776Y-168228780D01*
X181067965Y-168331477D01*
X181062569Y-168400283D01*
X181059233Y-168422833D01*
X180999874Y-168610083D01*
X180907080Y-168778954D01*
X180784677Y-168925623D01*
X180636490Y-169046265D01*
X180466342Y-169137056D01*
X180290440Y-169191626D01*
X180161262Y-169212927D01*
X180046648Y-169215972D01*
X179925546Y-169200716D01*
X179876219Y-169190716D01*
X179692544Y-169130972D01*
X179526071Y-169037582D01*
X179380901Y-168914692D01*
X179261138Y-168766452D01*
X179170882Y-168597008D01*
X179116768Y-168422833D01*
X179111038Y-168375069D01*
X179105893Y-168291198D01*
X179101334Y-168175109D01*
X179097361Y-168030691D01*
X179093973Y-167861832D01*
X179091171Y-167672422D01*
X179088955Y-167466348D01*
X179087324Y-167247501D01*
X179086279Y-167019769D01*
X179085819Y-166787041D01*
X179085946Y-166553205D01*
X179086657Y-166322151D01*
X179087954Y-166097766D01*
X179089837Y-165883941D01*
X179092306Y-165684564D01*
X179095360Y-165503523D01*
X179099000Y-165344708D01*
X179103225Y-165212007D01*
X179108036Y-165109310D01*
X179113432Y-165040504D01*
X179116768Y-165017954D01*
X179174951Y-164833785D01*
X179265000Y-164668303D01*
X179382574Y-164524556D01*
X179523328Y-164405593D01*
X179682922Y-164314460D01*
X179857011Y-164254206D01*
X180041253Y-164227879D01*
X180228001Y-164238013D01*
G37*
G36*
X235017000Y-167817170D02*
G01*
X234672000Y-167980002D01*
X234594671Y-168016424D01*
X234523000Y-168050038D01*
X234458999Y-168079909D01*
X234404685Y-168105104D01*
X234362073Y-168124687D01*
X234333177Y-168137725D01*
X234320014Y-168143284D01*
X234319500Y-168143417D01*
X234318032Y-168133849D01*
X234316659Y-168106172D01*
X234315409Y-168062275D01*
X234314311Y-168004050D01*
X234313394Y-167933387D01*
X234312685Y-167852175D01*
X234312213Y-167762307D01*
X234312007Y-167665671D01*
X234312000Y-167644000D01*
X234312000Y-167144000D01*
X235022266Y-167144000D01*
X235017000Y-167817170D01*
G37*
G36*
X234329500Y-165598533D02*
G01*
X234342316Y-165604136D01*
X234371149Y-165617168D01*
X234413865Y-165636653D01*
X234468334Y-165661613D01*
X234532422Y-165691071D01*
X234603998Y-165724051D01*
X234680930Y-165759574D01*
X234684500Y-165761224D01*
X235022000Y-165917243D01*
X235022000Y-166584000D01*
X234312000Y-166584000D01*
X234312000Y-166087930D01*
X234312031Y-165975507D01*
X234312165Y-165881478D01*
X234312458Y-165804237D01*
X234312967Y-165742177D01*
X234313751Y-165693694D01*
X234314866Y-165657179D01*
X234316370Y-165631028D01*
X234318321Y-165613634D01*
X234320775Y-165603391D01*
X234323791Y-165598693D01*
X234327426Y-165597934D01*
X234329500Y-165598533D01*
G37*
G36*
X237501726Y-163904088D02*
G01*
X237525449Y-163815474D01*
X237563486Y-163738392D01*
X237613673Y-163673177D01*
X237673844Y-163620168D01*
X237741836Y-163579702D01*
X237815484Y-163552115D01*
X237892624Y-163537745D01*
X237971091Y-163536929D01*
X238048721Y-163550004D01*
X238123349Y-163577308D01*
X238192812Y-163619176D01*
X238254944Y-163675947D01*
X238307581Y-163747958D01*
X238323027Y-163776163D01*
X238355222Y-163860466D01*
X238368982Y-163946671D01*
X238365318Y-164032293D01*
X238345242Y-164114845D01*
X238309767Y-164191839D01*
X238259903Y-164260790D01*
X238196664Y-164319211D01*
X238121061Y-164364615D01*
X238076213Y-164382590D01*
X238017000Y-164402577D01*
X238012000Y-165043066D01*
X238007000Y-165683556D01*
X237951550Y-165739000D01*
X236277000Y-165744350D01*
X236273979Y-166164247D01*
X236270959Y-166584144D01*
X236927171Y-166581572D01*
X237583382Y-166579000D01*
X237600352Y-166528869D01*
X237638689Y-166444208D01*
X237691196Y-166371403D01*
X237755648Y-166311822D01*
X237829824Y-166266831D01*
X237911499Y-166237798D01*
X237998450Y-166226090D01*
X238082881Y-166232083D01*
X238173032Y-166256896D01*
X238253871Y-166297870D01*
X238323436Y-166353252D01*
X238379764Y-166421283D01*
X238420892Y-166500209D01*
X238436576Y-166548600D01*
X238450598Y-166639992D01*
X238446019Y-166728887D01*
X238424235Y-166813136D01*
X238386641Y-166890594D01*
X238334632Y-166959111D01*
X238269605Y-167016542D01*
X238192955Y-167060738D01*
X238106079Y-167089552D01*
X238081911Y-167094273D01*
X237994460Y-167099211D01*
X237908403Y-167085741D01*
X237826625Y-167055400D01*
X237752015Y-167009724D01*
X237687461Y-166950248D01*
X237635848Y-166878511D01*
X237620407Y-166848733D01*
X237590114Y-166783999D01*
X236932631Y-166784000D01*
X236275148Y-166784000D01*
X236268604Y-166956500D01*
X236266507Y-167023250D01*
X236264685Y-167103108D01*
X236263254Y-167189184D01*
X236262331Y-167274585D01*
X236262030Y-167346333D01*
X236262000Y-167563666D01*
X237951550Y-167569000D01*
X238007000Y-167624444D01*
X238017000Y-168935422D01*
X238076213Y-168955409D01*
X238157847Y-168992949D01*
X238228425Y-169045387D01*
X238286432Y-169110203D01*
X238330354Y-169184876D01*
X238358676Y-169266886D01*
X238369883Y-169353711D01*
X238364007Y-169434349D01*
X238339748Y-169522926D01*
X238300605Y-169600710D01*
X238248805Y-169666980D01*
X238186580Y-169721012D01*
X238116157Y-169762083D01*
X238039765Y-169789472D01*
X237959634Y-169802455D01*
X237877994Y-169800310D01*
X237797072Y-169782314D01*
X237719099Y-169747744D01*
X237646303Y-169695878D01*
X237623396Y-169674443D01*
X237566812Y-169604753D01*
X237527272Y-169527880D01*
X237504351Y-169446387D01*
X237497628Y-169362835D01*
X237499022Y-169350043D01*
X237662852Y-169350043D01*
X237669202Y-169417297D01*
X237691270Y-169479305D01*
X237727167Y-169533451D01*
X237775005Y-169577118D01*
X237832895Y-169607690D01*
X237898948Y-169622550D01*
X237922000Y-169623560D01*
X237977960Y-169617322D01*
X238022000Y-169603214D01*
X238081604Y-169566533D01*
X238128584Y-169517873D01*
X238161595Y-169460509D01*
X238179294Y-169397715D01*
X238180336Y-169332766D01*
X238163378Y-169268937D01*
X238161214Y-169264000D01*
X238122991Y-169202031D01*
X238072240Y-169154141D01*
X238011827Y-169121642D01*
X237944622Y-169105848D01*
X237873492Y-169108070D01*
X237838160Y-169116109D01*
X237801495Y-169134001D01*
X237761464Y-169164594D01*
X237723382Y-169202571D01*
X237692566Y-169242617D01*
X237674331Y-169279415D01*
X237674109Y-169280160D01*
X237662852Y-169350043D01*
X237499022Y-169350043D01*
X237506679Y-169279785D01*
X237531080Y-169199799D01*
X237570408Y-169125437D01*
X237624241Y-169059261D01*
X237692154Y-169003831D01*
X237738594Y-168977237D01*
X237812000Y-168940958D01*
X237812000Y-167764000D01*
X236265113Y-167764000D01*
X236258952Y-167906500D01*
X236248251Y-168042261D01*
X236228121Y-168162966D01*
X236197805Y-168271582D01*
X236156544Y-168371073D01*
X236125646Y-168428603D01*
X236086091Y-168486889D01*
X236034398Y-168549622D01*
X235975784Y-168611314D01*
X235915471Y-168666477D01*
X235858675Y-168709623D01*
X235857992Y-168710075D01*
X235839444Y-168721647D01*
X235805178Y-168742334D01*
X235756771Y-168771208D01*
X235695798Y-168807340D01*
X235623836Y-168849800D01*
X235542461Y-168897660D01*
X235453250Y-168949989D01*
X235357778Y-169005860D01*
X235257623Y-169064343D01*
X235197992Y-169099102D01*
X234597000Y-169449205D01*
X234594442Y-170286602D01*
X234591885Y-171124000D01*
X235167256Y-171124000D01*
X235289237Y-171123970D01*
X235392745Y-171123850D01*
X235479308Y-171123595D01*
X235550453Y-171123158D01*
X235607709Y-171122493D01*
X235652601Y-171121554D01*
X235686659Y-171120295D01*
X235711409Y-171118671D01*
X235728380Y-171116634D01*
X235739097Y-171114140D01*
X235745089Y-171111141D01*
X235747884Y-171107593D01*
X235748300Y-171106500D01*
X235770497Y-171052468D01*
X235801453Y-170995833D01*
X235836393Y-170944625D01*
X235862476Y-170914476D01*
X235932425Y-170857479D01*
X236009031Y-170817754D01*
X236089892Y-170794744D01*
X236172604Y-170787892D01*
X236254762Y-170796641D01*
X236333964Y-170820433D01*
X236407806Y-170858711D01*
X236473884Y-170910919D01*
X236529795Y-170976497D01*
X236573135Y-171054890D01*
X236583628Y-171081669D01*
X236599095Y-171146278D01*
X236604621Y-171219799D01*
X236600206Y-171293793D01*
X236585850Y-171359817D01*
X236583628Y-171366330D01*
X236544499Y-171448505D01*
X236491221Y-171519007D01*
X236426267Y-171576666D01*
X236352105Y-171620311D01*
X236271206Y-171648774D01*
X236186042Y-171660885D01*
X236099083Y-171655473D01*
X236018871Y-171633731D01*
X235935131Y-171591597D01*
X235863678Y-171534041D01*
X235805851Y-171462374D01*
X235766072Y-171385692D01*
X235743034Y-171329000D01*
X235097739Y-171324000D01*
X234452443Y-171319000D01*
X234424721Y-171291276D01*
X234397000Y-171263552D01*
X234396893Y-171245415D01*
X235907391Y-171245415D01*
X235918864Y-171309519D01*
X235945330Y-171367902D01*
X235985190Y-171417975D01*
X236036843Y-171457152D01*
X236098691Y-171482844D01*
X236169133Y-171492464D01*
X236172000Y-171492478D01*
X236209896Y-171490281D01*
X236244910Y-171484687D01*
X236258840Y-171480739D01*
X236322615Y-171447274D01*
X236374277Y-171399829D01*
X236411732Y-171341364D01*
X236432888Y-171274838D01*
X236436907Y-171229000D01*
X236427663Y-171158233D01*
X236401461Y-171095162D01*
X236360600Y-171042071D01*
X236307376Y-171001244D01*
X236244085Y-170974966D01*
X236173027Y-170965523D01*
X236172000Y-170965521D01*
X236099407Y-170974655D01*
X236035250Y-171001257D01*
X235981488Y-171044123D01*
X235940081Y-171102052D01*
X235935822Y-171110394D01*
X235912511Y-171178177D01*
X235907391Y-171245415D01*
X234396893Y-171245415D01*
X234387000Y-169566638D01*
X234302000Y-169617866D01*
X234209408Y-169666028D01*
X234107929Y-169705372D01*
X234001383Y-169735257D01*
X233893591Y-169755042D01*
X233788375Y-169764087D01*
X233689556Y-169761750D01*
X233600953Y-169747390D01*
X233574500Y-169739870D01*
X233552000Y-169732652D01*
X233552000Y-170318639D01*
X233552028Y-170441823D01*
X233552145Y-170546521D01*
X233552394Y-170634245D01*
X233552820Y-170706509D01*
X233553468Y-170764827D01*
X233554382Y-170810712D01*
X233555608Y-170845678D01*
X233557190Y-170871237D01*
X233559173Y-170888903D01*
X233561602Y-170900190D01*
X233564521Y-170906610D01*
X233567975Y-170909678D01*
X233569500Y-170910300D01*
X233657987Y-170948686D01*
X233734375Y-171001724D01*
X233797175Y-171067687D01*
X233844900Y-171144851D01*
X233876062Y-171231488D01*
X233884705Y-171275965D01*
X233887828Y-171364486D01*
X233872678Y-171449831D01*
X233840962Y-171529711D01*
X233794388Y-171601835D01*
X233734661Y-171663916D01*
X233663491Y-171713664D01*
X233582583Y-171748790D01*
X233521138Y-171763442D01*
X233482375Y-171769415D01*
X233455080Y-171772012D01*
X233431009Y-171771246D01*
X233401921Y-171767129D01*
X233382000Y-171763654D01*
X233293958Y-171738692D01*
X233215100Y-171697987D01*
X233147024Y-171643727D01*
X233091325Y-171578102D01*
X233049600Y-171503304D01*
X233023447Y-171421520D01*
X233014462Y-171334943D01*
X233016535Y-171310043D01*
X233202852Y-171310043D01*
X233209202Y-171377297D01*
X233231270Y-171439305D01*
X233267167Y-171493451D01*
X233315005Y-171537118D01*
X233372895Y-171567690D01*
X233438948Y-171582550D01*
X233462000Y-171583560D01*
X233517960Y-171577322D01*
X233562000Y-171563214D01*
X233621604Y-171526533D01*
X233668584Y-171477873D01*
X233701595Y-171420509D01*
X233719294Y-171357715D01*
X233720336Y-171292766D01*
X233703378Y-171228937D01*
X233701214Y-171224000D01*
X233662991Y-171162031D01*
X233612240Y-171114141D01*
X233551827Y-171081642D01*
X233484622Y-171065848D01*
X233413492Y-171068070D01*
X233378160Y-171076109D01*
X233341495Y-171094001D01*
X233301464Y-171124594D01*
X233263382Y-171162571D01*
X233232566Y-171202617D01*
X233214331Y-171239415D01*
X233214109Y-171240160D01*
X233202852Y-171310043D01*
X233016535Y-171310043D01*
X233020092Y-171267320D01*
X233044721Y-171177487D01*
X233086536Y-171096360D01*
X233143958Y-171025734D01*
X233215404Y-170967406D01*
X233299295Y-170923169D01*
X233334500Y-170910300D01*
X233338212Y-170908123D01*
X233341361Y-170903173D01*
X233343993Y-170893920D01*
X233346153Y-170878836D01*
X233347888Y-170856392D01*
X233349243Y-170825060D01*
X233350266Y-170783310D01*
X233351002Y-170729614D01*
X233351497Y-170662443D01*
X233351797Y-170580268D01*
X233351949Y-170481560D01*
X233351998Y-170364791D01*
X233352000Y-170330233D01*
X233352000Y-169755838D01*
X233301777Y-169771899D01*
X233251291Y-169780903D01*
X233186484Y-169781344D01*
X233110809Y-169773827D01*
X233027721Y-169758958D01*
X232940674Y-169737342D01*
X232853121Y-169709584D01*
X232777000Y-169679959D01*
X232729361Y-169658633D01*
X232682693Y-169636129D01*
X232643764Y-169615783D01*
X232627000Y-169606037D01*
X232577000Y-169574902D01*
X232567000Y-171263552D01*
X232539277Y-171291276D01*
X232511555Y-171319000D01*
X231200613Y-171329000D01*
X231183645Y-171379130D01*
X231145356Y-171463680D01*
X231092896Y-171536435D01*
X231028503Y-171596017D01*
X230954414Y-171641049D01*
X230872865Y-171670151D01*
X230786092Y-171681948D01*
X230701650Y-171676007D01*
X230612854Y-171651721D01*
X230534903Y-171612576D01*
X230468519Y-171560792D01*
X230414420Y-171498593D01*
X230373328Y-171428199D01*
X230345962Y-171351831D01*
X230333043Y-171271713D01*
X230333767Y-171245415D01*
X230507391Y-171245415D01*
X230518864Y-171309519D01*
X230545330Y-171367902D01*
X230585190Y-171417975D01*
X230636843Y-171457152D01*
X230698691Y-171482844D01*
X230769133Y-171492464D01*
X230772000Y-171492478D01*
X230809896Y-171490281D01*
X230844910Y-171484687D01*
X230858840Y-171480739D01*
X230923094Y-171447309D01*
X230974125Y-171400941D01*
X231010749Y-171344568D01*
X231031783Y-171281126D01*
X231036043Y-171213547D01*
X231022348Y-171144767D01*
X231008177Y-171110394D01*
X230968473Y-171050645D01*
X230916166Y-171005807D01*
X230853215Y-170977081D01*
X230781582Y-170965670D01*
X230772000Y-170965521D01*
X230699407Y-170974655D01*
X230635250Y-171001257D01*
X230581488Y-171044123D01*
X230540081Y-171102052D01*
X230535822Y-171110394D01*
X230512511Y-171178177D01*
X230507391Y-171245415D01*
X230333767Y-171245415D01*
X230335291Y-171190065D01*
X230353426Y-171109108D01*
X230388169Y-171031065D01*
X230440239Y-170958158D01*
X230461556Y-170935396D01*
X230531246Y-170878812D01*
X230608119Y-170839272D01*
X230689612Y-170816351D01*
X230773164Y-170809628D01*
X230856214Y-170818679D01*
X230936200Y-170843080D01*
X231010562Y-170882408D01*
X231076738Y-170936241D01*
X231132168Y-171004154D01*
X231158762Y-171050594D01*
X231195041Y-171124000D01*
X232382114Y-171124000D01*
X232379557Y-170291862D01*
X232377000Y-169459725D01*
X231765569Y-169119362D01*
X231661990Y-169061611D01*
X231562256Y-169005825D01*
X231467952Y-168952903D01*
X231380662Y-168903741D01*
X231301972Y-168859239D01*
X231233467Y-168820292D01*
X231176732Y-168787800D01*
X231133352Y-168762660D01*
X231104911Y-168745769D01*
X231095569Y-168739896D01*
X231042402Y-168699949D01*
X230984190Y-168648913D01*
X230926793Y-168592469D01*
X230876068Y-168536294D01*
X230846181Y-168498112D01*
X230784266Y-168395745D01*
X230735275Y-168281010D01*
X230700167Y-168157565D01*
X230679906Y-168029070D01*
X230675451Y-167899185D01*
X230677625Y-167856500D01*
X230684378Y-167764000D01*
X229112000Y-167764000D01*
X229112000Y-168940958D01*
X229185405Y-168977237D01*
X229262505Y-169025811D01*
X229325782Y-169087123D01*
X229374412Y-169158709D01*
X229407572Y-169238110D01*
X229424438Y-169322864D01*
X229424188Y-169410510D01*
X229405999Y-169498586D01*
X229380893Y-169561796D01*
X229334289Y-169636729D01*
X229275272Y-169698179D01*
X229206437Y-169745786D01*
X229130379Y-169779191D01*
X229049695Y-169798036D01*
X228966980Y-169801963D01*
X228884830Y-169790613D01*
X228805839Y-169763628D01*
X228732604Y-169720648D01*
X228667720Y-169661316D01*
X228666933Y-169660424D01*
X228612678Y-169584990D01*
X228576353Y-169504402D01*
X228557336Y-169420980D01*
X228555642Y-169360007D01*
X228742760Y-169360007D01*
X228750832Y-169429203D01*
X228775490Y-169491927D01*
X228814190Y-169545767D01*
X228864389Y-169588307D01*
X228923544Y-169617137D01*
X228989112Y-169629843D01*
X229026394Y-169629140D01*
X229064262Y-169621734D01*
X229107023Y-169607882D01*
X229129999Y-169597970D01*
X229186966Y-169559467D01*
X229230420Y-169507587D01*
X229258736Y-169445036D01*
X229270290Y-169374519D01*
X229270478Y-169364000D01*
X229261344Y-169291407D01*
X229234742Y-169227250D01*
X229191876Y-169173488D01*
X229133947Y-169132081D01*
X229125605Y-169127822D01*
X229058035Y-169104638D01*
X228990841Y-169099601D01*
X228926651Y-169111116D01*
X228868094Y-169137589D01*
X228817797Y-169177428D01*
X228778388Y-169229039D01*
X228752495Y-169290827D01*
X228742760Y-169360007D01*
X228555642Y-169360007D01*
X228555004Y-169337043D01*
X228568736Y-169254909D01*
X228597909Y-169176897D01*
X228641902Y-169105327D01*
X228700092Y-169042517D01*
X228771858Y-168990786D01*
X228856577Y-168952453D01*
X228856869Y-168952354D01*
X228907000Y-168935386D01*
X228917000Y-167624444D01*
X228944724Y-167596722D01*
X228972449Y-167569000D01*
X230681999Y-167563670D01*
X230681999Y-167173835D01*
X230682000Y-166784000D01*
X229335041Y-166784000D01*
X229298762Y-166857405D01*
X229250188Y-166934505D01*
X229188876Y-166997782D01*
X229117290Y-167046412D01*
X229037889Y-167079572D01*
X228953135Y-167096438D01*
X228865489Y-167096188D01*
X228777413Y-167077999D01*
X228714203Y-167052893D01*
X228639270Y-167006289D01*
X228577820Y-166947272D01*
X228530213Y-166878437D01*
X228496808Y-166802379D01*
X228477963Y-166721695D01*
X228476715Y-166695415D01*
X228647391Y-166695415D01*
X228658864Y-166759519D01*
X228685330Y-166817902D01*
X228725190Y-166867975D01*
X228776843Y-166907152D01*
X228838691Y-166932844D01*
X228909133Y-166942464D01*
X228912000Y-166942478D01*
X228949896Y-166940281D01*
X228984910Y-166934687D01*
X228998840Y-166930739D01*
X229063094Y-166897309D01*
X229114125Y-166850941D01*
X229150749Y-166794568D01*
X229164037Y-166754490D01*
X231282344Y-166754490D01*
X231282347Y-166869000D01*
X231282351Y-167040234D01*
X231282401Y-167192690D01*
X231282550Y-167327590D01*
X231282854Y-167446155D01*
X231283367Y-167549606D01*
X231284143Y-167639167D01*
X231285238Y-167716057D01*
X231286705Y-167781499D01*
X231288600Y-167836715D01*
X231290977Y-167882926D01*
X231293891Y-167921354D01*
X231297396Y-167953221D01*
X231301547Y-167979748D01*
X231306399Y-168002157D01*
X231312006Y-168021670D01*
X231318422Y-168039509D01*
X231325703Y-168056895D01*
X231333903Y-168075049D01*
X231336516Y-168080752D01*
X231349024Y-168106199D01*
X231363037Y-168129778D01*
X231379996Y-168152534D01*
X231401345Y-168175511D01*
X231428526Y-168199756D01*
X231462980Y-168226312D01*
X231506150Y-168256225D01*
X231559480Y-168290540D01*
X231624410Y-168330301D01*
X231702384Y-168376553D01*
X231794844Y-168430341D01*
X231903232Y-168492711D01*
X231912571Y-168498067D01*
X231999654Y-168548069D01*
X232082923Y-168596024D01*
X232160472Y-168640826D01*
X232230396Y-168681368D01*
X232290791Y-168716541D01*
X232339750Y-168745240D01*
X232375369Y-168766356D01*
X232395743Y-168778783D01*
X232397000Y-168779590D01*
X232415871Y-168791051D01*
X232448980Y-168810323D01*
X232493896Y-168836047D01*
X232548186Y-168866867D01*
X232609422Y-168901423D01*
X232675170Y-168938359D01*
X232743001Y-168976317D01*
X232810483Y-169013938D01*
X232875185Y-169049865D01*
X232934677Y-169082741D01*
X232986527Y-169111206D01*
X233028304Y-169133905D01*
X233057577Y-169149478D01*
X233071915Y-169156567D01*
X233072000Y-169156600D01*
X233102331Y-169162323D01*
X233142089Y-169162401D01*
X233181652Y-169157284D01*
X233205288Y-169150359D01*
X233244746Y-169124576D01*
X233278357Y-169085572D01*
X233300404Y-169040123D01*
X233301559Y-169036189D01*
X233303572Y-169018609D01*
X233305375Y-168981272D01*
X233306965Y-168924422D01*
X233308341Y-168848302D01*
X233309498Y-168753153D01*
X233310435Y-168639220D01*
X233311150Y-168506744D01*
X233311638Y-168355969D01*
X233311898Y-168187137D01*
X233311944Y-168081500D01*
X233312000Y-167164000D01*
X232632617Y-167164000D01*
X232629808Y-167593203D01*
X232627000Y-168022406D01*
X232602900Y-168048050D01*
X232568408Y-168072648D01*
X232525496Y-168080957D01*
X232472488Y-168073194D01*
X232453946Y-168067626D01*
X232429749Y-168057768D01*
X232391078Y-168039740D01*
X232340962Y-168015056D01*
X232282424Y-167985234D01*
X232218492Y-167951786D01*
X232159500Y-167920194D01*
X231922000Y-167791568D01*
X231922000Y-166860511D01*
X233642015Y-166860511D01*
X233642023Y-167107473D01*
X233642047Y-167335224D01*
X233642094Y-167544553D01*
X233642170Y-167736250D01*
X233642280Y-167911104D01*
X233642432Y-168069905D01*
X233642632Y-168213441D01*
X233642885Y-168342501D01*
X233643197Y-168457876D01*
X233643576Y-168560354D01*
X233644027Y-168650724D01*
X233644557Y-168729776D01*
X233645171Y-168798298D01*
X233645877Y-168857081D01*
X233646679Y-168906914D01*
X233647585Y-168948585D01*
X233648600Y-168982884D01*
X233649731Y-169010600D01*
X233650984Y-169032522D01*
X233652366Y-169049440D01*
X233653881Y-169062143D01*
X233655538Y-169071420D01*
X233657341Y-169078061D01*
X233659297Y-169082854D01*
X233659515Y-169083289D01*
X233691313Y-169125183D01*
X233734659Y-169153633D01*
X233785151Y-169167257D01*
X233838385Y-169164674D01*
X233877000Y-169151496D01*
X233888415Y-169145177D01*
X233915901Y-169129571D01*
X233958211Y-169105395D01*
X234014098Y-169073365D01*
X234082315Y-169034199D01*
X234161614Y-168988613D01*
X234250748Y-168937325D01*
X234348472Y-168881050D01*
X234453536Y-168820507D01*
X234564695Y-168756412D01*
X234680701Y-168689483D01*
X234696432Y-168680404D01*
X234842206Y-168596164D01*
X234971454Y-168521239D01*
X235085061Y-168455098D01*
X235183910Y-168397212D01*
X235268884Y-168347049D01*
X235340867Y-168304079D01*
X235400741Y-168267771D01*
X235449391Y-168237595D01*
X235487700Y-168213020D01*
X235516552Y-168193516D01*
X235536830Y-168178551D01*
X235547990Y-168169000D01*
X235562711Y-168155118D01*
X235575644Y-168142629D01*
X235586919Y-168130213D01*
X235596665Y-168116546D01*
X235605011Y-168100307D01*
X235612088Y-168080174D01*
X235618024Y-168054827D01*
X235622949Y-168022941D01*
X235626993Y-167983197D01*
X235630284Y-167934273D01*
X235632953Y-167874846D01*
X235635128Y-167803594D01*
X235636939Y-167719197D01*
X235638516Y-167620332D01*
X235639987Y-167505678D01*
X235641483Y-167373912D01*
X235643133Y-167223713D01*
X235643463Y-167194000D01*
X235644900Y-167057330D01*
X235646192Y-166918542D01*
X235647328Y-166780101D01*
X235647931Y-166695415D01*
X237747391Y-166695415D01*
X237758864Y-166759519D01*
X237785330Y-166817902D01*
X237825190Y-166867975D01*
X237876843Y-166907152D01*
X237938691Y-166932844D01*
X238009133Y-166942464D01*
X238012000Y-166942478D01*
X238049896Y-166940281D01*
X238084910Y-166934687D01*
X238098840Y-166930739D01*
X238162615Y-166897274D01*
X238214277Y-166849829D01*
X238251732Y-166791364D01*
X238272888Y-166724838D01*
X238276907Y-166679000D01*
X238267663Y-166608233D01*
X238241461Y-166545162D01*
X238200600Y-166492071D01*
X238147376Y-166451244D01*
X238084085Y-166424966D01*
X238013027Y-166415523D01*
X238012000Y-166415521D01*
X237939407Y-166424655D01*
X237875250Y-166451257D01*
X237821488Y-166494123D01*
X237780081Y-166552052D01*
X237775822Y-166560394D01*
X237752511Y-166628177D01*
X237747391Y-166695415D01*
X235647931Y-166695415D01*
X235648294Y-166644469D01*
X235649076Y-166514111D01*
X235649661Y-166391491D01*
X235650036Y-166279071D01*
X235650188Y-166179315D01*
X235650102Y-166094688D01*
X235649777Y-166029000D01*
X235649015Y-165936132D01*
X235648254Y-165861031D01*
X235647342Y-165801465D01*
X235646126Y-165755202D01*
X235644453Y-165720009D01*
X235642172Y-165693655D01*
X235639129Y-165673906D01*
X235635172Y-165658531D01*
X235630149Y-165645298D01*
X235623906Y-165631974D01*
X235622448Y-165629000D01*
X235613524Y-165611255D01*
X235604338Y-165594817D01*
X235593833Y-165579009D01*
X235580954Y-165563153D01*
X235564646Y-165546572D01*
X235543853Y-165528590D01*
X235517519Y-165508531D01*
X235484589Y-165485716D01*
X235444008Y-165459470D01*
X235394719Y-165429116D01*
X235335668Y-165393976D01*
X235265799Y-165353374D01*
X235184055Y-165306633D01*
X235089383Y-165253076D01*
X234980725Y-165192027D01*
X234857027Y-165122809D01*
X234717233Y-165044744D01*
X234671186Y-165019045D01*
X234532683Y-164941763D01*
X234410530Y-164873659D01*
X234303619Y-164814152D01*
X234210843Y-164762662D01*
X234131092Y-164718609D01*
X234063259Y-164681414D01*
X234006236Y-164650498D01*
X233958914Y-164625279D01*
X233920185Y-164605178D01*
X233888942Y-164589616D01*
X233864075Y-164578013D01*
X233844476Y-164569789D01*
X233829038Y-164564363D01*
X233816653Y-164561157D01*
X233806211Y-164559590D01*
X233796605Y-164559082D01*
X233792000Y-164559045D01*
X233736775Y-164566735D01*
X233693770Y-164590134D01*
X233662402Y-164629585D01*
X233658232Y-164637814D01*
X233656395Y-164642867D01*
X233654700Y-164650493D01*
X233653143Y-164661476D01*
X233651717Y-164676597D01*
X233650417Y-164696639D01*
X233649237Y-164722384D01*
X233648171Y-164754615D01*
X233647214Y-164794113D01*
X233646360Y-164841662D01*
X233645603Y-164898044D01*
X233644938Y-164964041D01*
X233644359Y-165040435D01*
X233643859Y-165128009D01*
X233643434Y-165227546D01*
X233643078Y-165339827D01*
X233642785Y-165465634D01*
X233642548Y-165605751D01*
X233642364Y-165760960D01*
X233642225Y-165932043D01*
X233642127Y-166119782D01*
X233642063Y-166324960D01*
X233642027Y-166548359D01*
X233642015Y-166790762D01*
X233642015Y-166860511D01*
X231922000Y-166860511D01*
X231922000Y-165936039D01*
X232151026Y-165809966D01*
X232215183Y-165774810D01*
X232275844Y-165741868D01*
X232330107Y-165712694D01*
X232375067Y-165688841D01*
X232407820Y-165671864D01*
X232423526Y-165664166D01*
X232463364Y-165651404D01*
X232508035Y-165645093D01*
X232549926Y-165645704D01*
X232581422Y-165653711D01*
X232582553Y-165654296D01*
X232594180Y-165661148D01*
X232603826Y-165669340D01*
X232611677Y-165680680D01*
X232617917Y-165696974D01*
X232622730Y-165720031D01*
X232626302Y-165751657D01*
X232628817Y-165793662D01*
X232630459Y-165847851D01*
X232631412Y-165916034D01*
X232631863Y-166000017D01*
X232631995Y-166101608D01*
X232632000Y-166138503D01*
X232632000Y-166554000D01*
X233312000Y-166554000D01*
X233311944Y-165641500D01*
X233311828Y-165461991D01*
X233311502Y-165302134D01*
X233310961Y-165161585D01*
X233310201Y-165039995D01*
X233309219Y-164937019D01*
X233308010Y-164852311D01*
X233306571Y-164785524D01*
X233304897Y-164736312D01*
X233302984Y-164704329D01*
X233301015Y-164689838D01*
X233277404Y-164636688D01*
X233241082Y-164595103D01*
X233195399Y-164567485D01*
X233143702Y-164556234D01*
X233116503Y-164557517D01*
X233096510Y-164563979D01*
X233061350Y-164579402D01*
X233013122Y-164602661D01*
X232953929Y-164632629D01*
X232885870Y-164668179D01*
X232811048Y-164708184D01*
X232731562Y-164751517D01*
X232649515Y-164797052D01*
X232567007Y-164843661D01*
X232486138Y-164890218D01*
X232409010Y-164935597D01*
X232387000Y-164948761D01*
X232352398Y-164969302D01*
X232302955Y-164998307D01*
X232241194Y-165034314D01*
X232169636Y-165075860D01*
X232090802Y-165121482D01*
X232007214Y-165169718D01*
X231921395Y-165219105D01*
X231877000Y-165244597D01*
X231773628Y-165304093D01*
X231686161Y-165355013D01*
X231613031Y-165398518D01*
X231552673Y-165435772D01*
X231503522Y-165467934D01*
X231464012Y-165496169D01*
X231432578Y-165521636D01*
X231407653Y-165545499D01*
X231387672Y-165568918D01*
X231371069Y-165593057D01*
X231356279Y-165619077D01*
X231346549Y-165638253D01*
X231336531Y-165658554D01*
X231327613Y-165677229D01*
X231319730Y-165695503D01*
X231312819Y-165714602D01*
X231306817Y-165735749D01*
X231301658Y-165760171D01*
X231297280Y-165789091D01*
X231293619Y-165823736D01*
X231290609Y-165865329D01*
X231288189Y-165915096D01*
X231286293Y-165974263D01*
X231284857Y-166044053D01*
X231283819Y-166125691D01*
X231283114Y-166220404D01*
X231282677Y-166329415D01*
X231282446Y-166453950D01*
X231282356Y-166595233D01*
X231282344Y-166754490D01*
X229164037Y-166754490D01*
X229171783Y-166731126D01*
X229176043Y-166663547D01*
X229162348Y-166594767D01*
X229148177Y-166560394D01*
X229108473Y-166500645D01*
X229056166Y-166455807D01*
X228993215Y-166427081D01*
X228921582Y-166415670D01*
X228912000Y-166415521D01*
X228839407Y-166424655D01*
X228775250Y-166451257D01*
X228721488Y-166494123D01*
X228680081Y-166552052D01*
X228675822Y-166560394D01*
X228652511Y-166628177D01*
X228647391Y-166695415D01*
X228476715Y-166695415D01*
X228474036Y-166638980D01*
X228485386Y-166556830D01*
X228512371Y-166477839D01*
X228555351Y-166404604D01*
X228614683Y-166339720D01*
X228615575Y-166338933D01*
X228691010Y-166284677D01*
X228771598Y-166248352D01*
X228855020Y-166229334D01*
X228938957Y-166227003D01*
X229021091Y-166240735D01*
X229099103Y-166269910D01*
X229170673Y-166313904D01*
X229233484Y-166372097D01*
X229285217Y-166443866D01*
X229323552Y-166528589D01*
X229323647Y-166528869D01*
X229340617Y-166579000D01*
X230011308Y-166581570D01*
X230682000Y-166584140D01*
X230681999Y-166164235D01*
X230681999Y-165744329D01*
X229827224Y-165741664D01*
X228972449Y-165739000D01*
X228944724Y-165711278D01*
X228917000Y-165683556D01*
X228907000Y-164402612D01*
X228856869Y-164385645D01*
X228772212Y-164347312D01*
X228699409Y-164294809D01*
X228639827Y-164230358D01*
X228594835Y-164156184D01*
X228565801Y-164074510D01*
X228554091Y-163987560D01*
X228554243Y-163985415D01*
X228737391Y-163985415D01*
X228748864Y-164049519D01*
X228775330Y-164107902D01*
X228815190Y-164157975D01*
X228866843Y-164197152D01*
X228928691Y-164222844D01*
X228999133Y-164232464D01*
X229002000Y-164232478D01*
X229039896Y-164230281D01*
X229074910Y-164224687D01*
X229088840Y-164220739D01*
X229153094Y-164187309D01*
X229204125Y-164140941D01*
X229240749Y-164084568D01*
X229261783Y-164021126D01*
X229266043Y-163953547D01*
X229252348Y-163884767D01*
X229238177Y-163850394D01*
X229198473Y-163790645D01*
X229146166Y-163745807D01*
X229083215Y-163717081D01*
X229011582Y-163705670D01*
X229002000Y-163705521D01*
X228929407Y-163714655D01*
X228865250Y-163741257D01*
X228811488Y-163784123D01*
X228770081Y-163842052D01*
X228765822Y-163850394D01*
X228742511Y-163918177D01*
X228737391Y-163985415D01*
X228554243Y-163985415D01*
X228560083Y-163903118D01*
X228584896Y-163812967D01*
X228625870Y-163732128D01*
X228681252Y-163662563D01*
X228749283Y-163606235D01*
X228828209Y-163565107D01*
X228876600Y-163549423D01*
X228967992Y-163535401D01*
X229056887Y-163539980D01*
X229141136Y-163561764D01*
X229218594Y-163599358D01*
X229287111Y-163651367D01*
X229344542Y-163716394D01*
X229388738Y-163793044D01*
X229417552Y-163879920D01*
X229422273Y-163904088D01*
X229427211Y-163991539D01*
X229413741Y-164077596D01*
X229383400Y-164159374D01*
X229337724Y-164233984D01*
X229278248Y-164298538D01*
X229206511Y-164350151D01*
X229176733Y-164365592D01*
X229112000Y-164395885D01*
X229111999Y-164975002D01*
X229111999Y-165554118D01*
X230712901Y-165549000D01*
X230739950Y-165469000D01*
X230785595Y-165359569D01*
X230846056Y-165258962D01*
X230922665Y-165165497D01*
X231016755Y-165077495D01*
X231102478Y-165012030D01*
X231121326Y-164999723D01*
X231155843Y-164978231D01*
X231204454Y-164948499D01*
X231265585Y-164911473D01*
X231337661Y-164868100D01*
X231419108Y-164819325D01*
X231508350Y-164766096D01*
X231603813Y-164709356D01*
X231703923Y-164650054D01*
X231765241Y-164613826D01*
X232367000Y-164258653D01*
X232369549Y-163291326D01*
X232372099Y-162324000D01*
X231213885Y-162324000D01*
X231183428Y-162389085D01*
X231136635Y-162467575D01*
X231077879Y-162531893D01*
X231009579Y-162581761D01*
X230934157Y-162616900D01*
X230854036Y-162637031D01*
X230771636Y-162641877D01*
X230689379Y-162631158D01*
X230609686Y-162604597D01*
X230534979Y-162561916D01*
X230467680Y-162502835D01*
X230443091Y-162474188D01*
X230404622Y-162418602D01*
X230378751Y-162362849D01*
X230363674Y-162301247D01*
X230358191Y-162235415D01*
X230527391Y-162235415D01*
X230538864Y-162299519D01*
X230565330Y-162357902D01*
X230605190Y-162407975D01*
X230656843Y-162447152D01*
X230718691Y-162472844D01*
X230789133Y-162482464D01*
X230792000Y-162482478D01*
X230829896Y-162480281D01*
X230864910Y-162474687D01*
X230878840Y-162470739D01*
X230943094Y-162437309D01*
X230994125Y-162390941D01*
X231030749Y-162334568D01*
X231051783Y-162271126D01*
X231056043Y-162203547D01*
X231042348Y-162134767D01*
X231028177Y-162100394D01*
X230988473Y-162040645D01*
X230936166Y-161995807D01*
X230873215Y-161967081D01*
X230801582Y-161955670D01*
X230792000Y-161955521D01*
X230719407Y-161964655D01*
X230655250Y-161991257D01*
X230601488Y-162034123D01*
X230560081Y-162092052D01*
X230555822Y-162100394D01*
X230532511Y-162168177D01*
X230527391Y-162235415D01*
X230358191Y-162235415D01*
X230357583Y-162228113D01*
X230357240Y-162204000D01*
X230357525Y-162155701D01*
X230359494Y-162120947D01*
X230364432Y-162093285D01*
X230373618Y-162066263D01*
X230388335Y-162033430D01*
X230393130Y-162023345D01*
X230442513Y-161941459D01*
X230505263Y-161874157D01*
X230580736Y-161822098D01*
X230599433Y-161812539D01*
X230635693Y-161796327D01*
X230667506Y-161786048D01*
X230702326Y-161780031D01*
X230747605Y-161776607D01*
X230763129Y-161775888D01*
X230838537Y-161776126D01*
X230901760Y-161785081D01*
X230959321Y-161804394D01*
X231017741Y-161835710D01*
X231029013Y-161842853D01*
X231094581Y-161896416D01*
X231149603Y-161963888D01*
X231190289Y-162040354D01*
X231198622Y-162062783D01*
X231220903Y-162129000D01*
X231858951Y-162134000D01*
X231995056Y-162135154D01*
X232112365Y-162136353D01*
X232212082Y-162137629D01*
X232295411Y-162139013D01*
X232363558Y-162140540D01*
X232417725Y-162142240D01*
X232459118Y-162144147D01*
X232488940Y-162146292D01*
X232508396Y-162148709D01*
X232518689Y-162151430D01*
X232519396Y-162151796D01*
X232528013Y-162156559D01*
X232535635Y-162161203D01*
X232542323Y-162166916D01*
X232548137Y-162174885D01*
X232553140Y-162186300D01*
X232557391Y-162202348D01*
X232560951Y-162224219D01*
X232563883Y-162253100D01*
X232566246Y-162290180D01*
X232568101Y-162336647D01*
X232569511Y-162393689D01*
X232570534Y-162462496D01*
X232571234Y-162544254D01*
X232571670Y-162640153D01*
X232571904Y-162751382D01*
X232571996Y-162879127D01*
X232572007Y-163024578D01*
X232572000Y-163176891D01*
X232572000Y-164130775D01*
X232679500Y-164077646D01*
X232799589Y-164025391D01*
X232918510Y-163988915D01*
X233043822Y-163966002D01*
X233071529Y-163962720D01*
X233141914Y-163957202D01*
X233204670Y-163957707D01*
X233266334Y-163964970D01*
X233333438Y-163979729D01*
X233404581Y-164000243D01*
X233490284Y-164026813D01*
X233553985Y-164001312D01*
X233654957Y-163969800D01*
X233759179Y-163955213D01*
X233867824Y-163957688D01*
X233982067Y-163977363D01*
X234103081Y-164014378D01*
X234232039Y-164068869D01*
X234265241Y-164085031D01*
X234309332Y-164106868D01*
X234346621Y-164125049D01*
X234373661Y-164137914D01*
X234387003Y-164143804D01*
X234387741Y-164144000D01*
X234388348Y-164134227D01*
X234388929Y-164105823D01*
X234389478Y-164060153D01*
X234389989Y-163998586D01*
X234390456Y-163922489D01*
X234390873Y-163833229D01*
X234391234Y-163732174D01*
X234391532Y-163620691D01*
X234391762Y-163500149D01*
X234391918Y-163371913D01*
X234391993Y-163237352D01*
X234392000Y-163185492D01*
X234392087Y-163006055D01*
X234392353Y-162846084D01*
X234392803Y-162705042D01*
X234393444Y-162582394D01*
X234394281Y-162477607D01*
X234395321Y-162390146D01*
X234396569Y-162319475D01*
X234398031Y-162265060D01*
X234399714Y-162226367D01*
X234401163Y-162208521D01*
X235902964Y-162208521D01*
X235908838Y-162273701D01*
X235929551Y-162333676D01*
X235962920Y-162386419D01*
X236006767Y-162429908D01*
X236058909Y-162462115D01*
X236117168Y-162481018D01*
X236179361Y-162484589D01*
X236243308Y-162470806D01*
X236262000Y-162463214D01*
X236321604Y-162426533D01*
X236368584Y-162377873D01*
X236401595Y-162320509D01*
X236419294Y-162257715D01*
X236420336Y-162192766D01*
X236403378Y-162128937D01*
X236401214Y-162124000D01*
X236362991Y-162062031D01*
X236312240Y-162014141D01*
X236251827Y-161981642D01*
X236184622Y-161965848D01*
X236113492Y-161968070D01*
X236078160Y-161976109D01*
X236041495Y-161994001D01*
X236001464Y-162024594D01*
X235963382Y-162062571D01*
X235932566Y-162102617D01*
X235914331Y-162139415D01*
X235914109Y-162140160D01*
X235902964Y-162208521D01*
X234401163Y-162208521D01*
X234401622Y-162202860D01*
X234403051Y-162195281D01*
X234417152Y-162169287D01*
X234435541Y-162151294D01*
X234435551Y-162151288D01*
X234445450Y-162148590D01*
X234465922Y-162146176D01*
X234498051Y-162144016D01*
X234542920Y-162142083D01*
X234601611Y-162140349D01*
X234675208Y-162138784D01*
X234764794Y-162137361D01*
X234871451Y-162136051D01*
X234996262Y-162134827D01*
X235095629Y-162134000D01*
X235734259Y-162129000D01*
X235752010Y-162071619D01*
X235787381Y-161988028D01*
X235838265Y-161916570D01*
X235905231Y-161856602D01*
X235981789Y-161810897D01*
X236010461Y-161797307D01*
X236034365Y-161788248D01*
X236058814Y-161782805D01*
X236089120Y-161780061D01*
X236130595Y-161779101D01*
X236166789Y-161779000D01*
X236218473Y-161779270D01*
X236255529Y-161780713D01*
X236283328Y-161784272D01*
X236307241Y-161790894D01*
X236332639Y-161801522D01*
X236354566Y-161812042D01*
X236433278Y-161861400D01*
X236499223Y-161925980D01*
X236551667Y-162005034D01*
X236560869Y-162023345D01*
X236577202Y-162058694D01*
X236587678Y-162086586D01*
X236593578Y-162113471D01*
X236596183Y-162145803D01*
X236596776Y-162190032D01*
X236596759Y-162204000D01*
X236593366Y-162278525D01*
X236582311Y-162339957D01*
X236561710Y-162394348D01*
X236529678Y-162447750D01*
X236514332Y-162468761D01*
X236452199Y-162535477D01*
X236381372Y-162585830D01*
X236304275Y-162620078D01*
X236223332Y-162638481D01*
X236140968Y-162641300D01*
X236059608Y-162628792D01*
X235981676Y-162601220D01*
X235909597Y-162558841D01*
X235845796Y-162501917D01*
X235792697Y-162430706D01*
X235770571Y-162389085D01*
X235740114Y-162324000D01*
X234581901Y-162324000D01*
X234584450Y-163296335D01*
X234587000Y-164268671D01*
X235177000Y-164611233D01*
X235278331Y-164670172D01*
X235375925Y-164727140D01*
X235468183Y-164781189D01*
X235553501Y-164831372D01*
X235630281Y-164876742D01*
X235696919Y-164916351D01*
X235751816Y-164949253D01*
X235793371Y-164974499D01*
X235819981Y-164991143D01*
X235827000Y-164995815D01*
X235937103Y-165085025D01*
X236033814Y-165188721D01*
X236116267Y-165305802D01*
X236183596Y-165435163D01*
X236197500Y-165468140D01*
X236230119Y-165549000D01*
X237021059Y-165551560D01*
X237812000Y-165554120D01*
X237812000Y-164395885D01*
X237747266Y-164365592D01*
X237671322Y-164319583D01*
X237607064Y-164259548D01*
X237556028Y-164188374D01*
X237519751Y-164108948D01*
X237499769Y-164024158D01*
X237498434Y-163970007D01*
X237652760Y-163970007D01*
X237660832Y-164039203D01*
X237685490Y-164101927D01*
X237724190Y-164155767D01*
X237774389Y-164198307D01*
X237833544Y-164227137D01*
X237899112Y-164239843D01*
X237936394Y-164239140D01*
X237974262Y-164231734D01*
X238017023Y-164217882D01*
X238039999Y-164207970D01*
X238096966Y-164169467D01*
X238140420Y-164117587D01*
X238168736Y-164055036D01*
X238180290Y-163984519D01*
X238180478Y-163974000D01*
X238171344Y-163901407D01*
X238144742Y-163837250D01*
X238101876Y-163783488D01*
X238043947Y-163742081D01*
X238035605Y-163737822D01*
X237968035Y-163714638D01*
X237900841Y-163709601D01*
X237836651Y-163721116D01*
X237778094Y-163747589D01*
X237727797Y-163787428D01*
X237688388Y-163839039D01*
X237662495Y-163900827D01*
X237652760Y-163970007D01*
X237498434Y-163970007D01*
X237497617Y-163936893D01*
X237501726Y-163904088D01*
G37*
G36*
X272246558Y-168476300D02*
G01*
X272257000Y-168519067D01*
X272230646Y-168587452D01*
X272174067Y-168602000D01*
X272110317Y-168580447D01*
X272104526Y-168532459D01*
X272141709Y-168467718D01*
X272199364Y-168448093D01*
X272246558Y-168476300D01*
G37*
G36*
X272337000Y-166882000D02*
G01*
X272237000Y-166882000D01*
X272188575Y-166878878D01*
X272159021Y-166858953D01*
X272143679Y-166806388D01*
X272137892Y-166705342D01*
X272137000Y-166542000D01*
X272137000Y-166202000D01*
X271617000Y-166202000D01*
X271617000Y-166542000D01*
X271615555Y-166707223D01*
X271608723Y-166808135D01*
X271592760Y-166860406D01*
X271563920Y-166879709D01*
X271535744Y-166882000D01*
X271460397Y-166859719D01*
X271434713Y-166830464D01*
X271428714Y-166774715D01*
X271424803Y-166653595D01*
X271423157Y-166481708D01*
X271423959Y-166273659D01*
X271425968Y-166120464D01*
X271430384Y-165877369D01*
X271435375Y-165702660D01*
X271442688Y-165584735D01*
X271454069Y-165511989D01*
X271471265Y-165472817D01*
X271496023Y-165455616D01*
X271527000Y-165449217D01*
X271572611Y-165447189D01*
X271599451Y-165467860D01*
X271612482Y-165527223D01*
X271616668Y-165641272D01*
X271617000Y-165739217D01*
X271617000Y-166042000D01*
X272133495Y-166042000D01*
X272145247Y-165752000D01*
X272153451Y-165601327D01*
X272166834Y-165512872D01*
X272191368Y-165468855D01*
X272233030Y-165451500D01*
X272247000Y-165449217D01*
X272337000Y-165436435D01*
X272337000Y-166882000D01*
G37*
G36*
X270294685Y-168277999D02*
G01*
X270325673Y-168205204D01*
X270373972Y-168145222D01*
X270502878Y-168057874D01*
X270650346Y-168048161D01*
X270715207Y-168066847D01*
X270800424Y-168138951D01*
X270858681Y-168265802D01*
X270889979Y-168426826D01*
X270894319Y-168601449D01*
X270871700Y-168769097D01*
X270822121Y-168909195D01*
X270745584Y-169001171D01*
X270715207Y-169017152D01*
X270561342Y-169039553D01*
X270424317Y-168983923D01*
X270373972Y-168938777D01*
X270322388Y-168873471D01*
X270292981Y-168799030D01*
X270279831Y-168691224D01*
X270277000Y-168542000D01*
X270417000Y-168542000D01*
X270424174Y-168681752D01*
X270442589Y-168797893D01*
X270458407Y-168844629D01*
X270530488Y-168910582D01*
X270623374Y-168911702D01*
X270702102Y-168855852D01*
X270735974Y-168771137D01*
X270754562Y-168627867D01*
X270757000Y-168542000D01*
X270742305Y-168348469D01*
X270696786Y-168225166D01*
X270618288Y-168167630D01*
X270573509Y-168162000D01*
X270492050Y-168196271D01*
X270440572Y-168300532D01*
X270418180Y-168476957D01*
X270417000Y-168542000D01*
X270277000Y-168542000D01*
X270280434Y-168382188D01*
X270294685Y-168277999D01*
G37*
G36*
X271894685Y-168277999D02*
G01*
X271925673Y-168205204D01*
X271973972Y-168145222D01*
X272102878Y-168057874D01*
X272250346Y-168048161D01*
X272315207Y-168066847D01*
X272400424Y-168138951D01*
X272458681Y-168265802D01*
X272489979Y-168426826D01*
X272494319Y-168601449D01*
X272471700Y-168769097D01*
X272422121Y-168909195D01*
X272345584Y-169001171D01*
X272315207Y-169017152D01*
X272161342Y-169039553D01*
X272024317Y-168983923D01*
X271973972Y-168938777D01*
X271922388Y-168873471D01*
X271892981Y-168799030D01*
X271879831Y-168691224D01*
X271877000Y-168542000D01*
X272017000Y-168542000D01*
X272024174Y-168681752D01*
X272042589Y-168797893D01*
X272058407Y-168844629D01*
X272130488Y-168910582D01*
X272223374Y-168911702D01*
X272302102Y-168855852D01*
X272335974Y-168771137D01*
X272354562Y-168627867D01*
X272357000Y-168542000D01*
X272342305Y-168348469D01*
X272296786Y-168225166D01*
X272218288Y-168167630D01*
X272173509Y-168162000D01*
X272092050Y-168196271D01*
X272040572Y-168300532D01*
X272018180Y-168476957D01*
X272017000Y-168542000D01*
X271877000Y-168542000D01*
X271880434Y-168382188D01*
X271894685Y-168277999D01*
G37*
G36*
X269156495Y-165781033D02*
G01*
X269197525Y-165680983D01*
X269308283Y-165537458D01*
X269447728Y-165457931D01*
X269600285Y-165439758D01*
X269750379Y-165480298D01*
X269882433Y-165576910D01*
X269980871Y-165726950D01*
X270012110Y-165819154D01*
X270050865Y-166067041D01*
X270046827Y-166311727D01*
X270002997Y-166533316D01*
X269922377Y-166711908D01*
X269867034Y-166781056D01*
X269731600Y-166864640D01*
X269570062Y-166889190D01*
X269409808Y-166855155D01*
X269286097Y-166771496D01*
X269195867Y-166628721D01*
X269135877Y-166434708D01*
X269108041Y-166213036D01*
X269109525Y-166159309D01*
X269319387Y-166159309D01*
X269327075Y-166346118D01*
X269350586Y-166507275D01*
X269389917Y-166616764D01*
X269391255Y-166618846D01*
X269487179Y-166705141D01*
X269601869Y-166723573D01*
X269712235Y-166674456D01*
X269766077Y-166613759D01*
X269809131Y-166499906D01*
X269834346Y-166334835D01*
X269841722Y-166145312D01*
X269831259Y-165958105D01*
X269802958Y-165799981D01*
X269766077Y-165710240D01*
X269669133Y-165621328D01*
X269554209Y-165599779D01*
X269444399Y-165645908D01*
X269391255Y-165705153D01*
X269351477Y-165812809D01*
X269327521Y-165972867D01*
X269319387Y-166159309D01*
X269109525Y-166159309D01*
X269114275Y-165987285D01*
X269156495Y-165781033D01*
G37*
G36*
X271446558Y-168476300D02*
G01*
X271457000Y-168519067D01*
X271430646Y-168587452D01*
X271374067Y-168602000D01*
X271310317Y-168580447D01*
X271304526Y-168532459D01*
X271341709Y-168467718D01*
X271399364Y-168448093D01*
X271446558Y-168476300D01*
G37*
G36*
X274260906Y-168495843D02*
G01*
X274291411Y-168321149D01*
X274357345Y-168175815D01*
X274455461Y-168082823D01*
X274560839Y-168050921D01*
X274674193Y-168050943D01*
X274766681Y-168079132D01*
X274809001Y-168128864D01*
X274800186Y-168176681D01*
X274739970Y-168174366D01*
X274595034Y-168168889D01*
X274481539Y-168228502D01*
X274423077Y-168321758D01*
X274407068Y-168405785D01*
X274423287Y-168444654D01*
X274461780Y-168423552D01*
X274477000Y-168402000D01*
X274541538Y-168364596D01*
X274641704Y-168367697D01*
X274747177Y-168406516D01*
X274810027Y-168454578D01*
X274881624Y-168581724D01*
X274898916Y-168732227D01*
X274862246Y-168875394D01*
X274804421Y-168955027D01*
X274686513Y-169022692D01*
X274551394Y-169039146D01*
X274430854Y-169002771D01*
X274396507Y-168975792D01*
X274311999Y-168845195D01*
X274277326Y-168715449D01*
X274418575Y-168715449D01*
X274435913Y-168823990D01*
X274465000Y-168874000D01*
X274560608Y-168921629D01*
X274662851Y-168905066D01*
X274740088Y-168830368D01*
X274745012Y-168820388D01*
X274770080Y-168699498D01*
X274743197Y-168592281D01*
X274678668Y-168514435D01*
X274590796Y-168481660D01*
X274493886Y-168509654D01*
X274474798Y-168523827D01*
X274431907Y-168602138D01*
X274418575Y-168715449D01*
X274277326Y-168715449D01*
X274267283Y-168677869D01*
X274260906Y-168495843D01*
G37*
G36*
X271094685Y-168277999D02*
G01*
X271125673Y-168205204D01*
X271173972Y-168145222D01*
X271302878Y-168057874D01*
X271450346Y-168048161D01*
X271515207Y-168066847D01*
X271600424Y-168138951D01*
X271658681Y-168265802D01*
X271689979Y-168426826D01*
X271694319Y-168601449D01*
X271671700Y-168769097D01*
X271622121Y-168909195D01*
X271545584Y-169001171D01*
X271515207Y-169017152D01*
X271361342Y-169039553D01*
X271224317Y-168983923D01*
X271173972Y-168938777D01*
X271122388Y-168873471D01*
X271092981Y-168799030D01*
X271079831Y-168691224D01*
X271077000Y-168542000D01*
X271217000Y-168542000D01*
X271224174Y-168681752D01*
X271242589Y-168797893D01*
X271258407Y-168844629D01*
X271330488Y-168910582D01*
X271423374Y-168911702D01*
X271502102Y-168855852D01*
X271535974Y-168771137D01*
X271554562Y-168627867D01*
X271557000Y-168542000D01*
X271542305Y-168348469D01*
X271496786Y-168225166D01*
X271418288Y-168167630D01*
X271373509Y-168162000D01*
X271292050Y-168196271D01*
X271240572Y-168300532D01*
X271218180Y-168476957D01*
X271217000Y-168542000D01*
X271077000Y-168542000D01*
X271080434Y-168382188D01*
X271094685Y-168277999D01*
G37*
G36*
X273046306Y-168045599D02*
G01*
X273072095Y-168064594D01*
X273087212Y-168113427D01*
X273094505Y-168205992D01*
X273096818Y-168356187D01*
X273097000Y-168482000D01*
X273097000Y-168922000D01*
X273197000Y-168922000D01*
X273277427Y-168942863D01*
X273297000Y-168982000D01*
X273280533Y-169014599D01*
X273221324Y-169033256D01*
X273104659Y-169041125D01*
X273017000Y-169042000D01*
X272864871Y-169038471D01*
X272777803Y-169025783D01*
X272741082Y-169000784D01*
X272737000Y-168982000D01*
X272772317Y-168934630D01*
X272858501Y-168922000D01*
X272980002Y-168922000D01*
X272957000Y-168182000D01*
X272847000Y-168194862D01*
X272760286Y-168188952D01*
X272737000Y-168149527D01*
X272773746Y-168094292D01*
X272872305Y-168056314D01*
X273007000Y-168042546D01*
X273046306Y-168045599D01*
G37*
G36*
X270646558Y-168476300D02*
G01*
X270657000Y-168519067D01*
X270630646Y-168587452D01*
X270574067Y-168602000D01*
X270510317Y-168580447D01*
X270504526Y-168532459D01*
X270541709Y-168467718D01*
X270599364Y-168448093D01*
X270646558Y-168476300D01*
G37*
G36*
X270972000Y-165467000D02*
G01*
X271062270Y-165498772D01*
X271095008Y-165558268D01*
X271097000Y-165591279D01*
X271085415Y-165661388D01*
X271041131Y-165668389D01*
X271027000Y-165663478D01*
X270835062Y-165611870D01*
X270673409Y-165612918D01*
X270554095Y-165664756D01*
X270495579Y-165745736D01*
X270476467Y-165854306D01*
X270517475Y-165938834D01*
X270625594Y-166007166D01*
X270773700Y-166057872D01*
X270970047Y-166132827D01*
X271096671Y-166232789D01*
X271162375Y-166367493D01*
X271177000Y-166503838D01*
X271165337Y-166629092D01*
X271118162Y-166717018D01*
X271053930Y-166778444D01*
X270963056Y-166841525D01*
X270864347Y-166872006D01*
X270724102Y-166879614D01*
X270703930Y-166879464D01*
X270560630Y-166871734D01*
X270438078Y-166854642D01*
X270387000Y-166840753D01*
X270311594Y-166774380D01*
X270297000Y-166702261D01*
X270301388Y-166634984D01*
X270329401Y-166621803D01*
X270403306Y-166654929D01*
X270415013Y-166660972D01*
X270548482Y-166705350D01*
X270699026Y-166720101D01*
X270833807Y-166704487D01*
X270905315Y-166672000D01*
X270989278Y-166571582D01*
X270998028Y-166468485D01*
X270935732Y-166369974D01*
X270806556Y-166283313D01*
X270648865Y-166224838D01*
X270467569Y-166154987D01*
X270355639Y-166061631D01*
X270303573Y-165934656D01*
X270297000Y-165850470D01*
X270329343Y-165674521D01*
X270422810Y-165546127D01*
X270572057Y-165468325D01*
X270771737Y-165444150D01*
X270972000Y-165467000D01*
G37*
G36*
X269955241Y-168045143D02*
G01*
X270048128Y-168056500D01*
X270090126Y-168078967D01*
X270097000Y-168102000D01*
X270077248Y-168138183D01*
X270007943Y-168156812D01*
X269877000Y-168162000D01*
X269657000Y-168162000D01*
X269657000Y-168442000D01*
X269857000Y-168442000D01*
X269982772Y-168448423D01*
X270044201Y-168470662D01*
X270057000Y-168502000D01*
X270035589Y-168539731D01*
X269961459Y-168558160D01*
X269857000Y-168562000D01*
X269657000Y-168562000D01*
X269657000Y-168922000D01*
X269877000Y-168922000D01*
X270009673Y-168927386D01*
X270077978Y-168946288D01*
X270097000Y-168982000D01*
X270081284Y-169013648D01*
X270024495Y-169032225D01*
X269912162Y-169040625D01*
X269797000Y-169042000D01*
X269497000Y-169042000D01*
X269497000Y-168042000D01*
X269797000Y-168042000D01*
X269955241Y-168045143D01*
G37*
G36*
X268854769Y-168042000D02*
G01*
X269005632Y-168054937D01*
X269115845Y-168101273D01*
X269164769Y-168138536D01*
X269222026Y-168193752D01*
X269255594Y-168251944D01*
X269271738Y-168335639D01*
X269276725Y-168467364D01*
X269277000Y-168542000D01*
X269274818Y-168700463D01*
X269264098Y-168801485D01*
X269238572Y-168867592D01*
X269191974Y-168921312D01*
X269164769Y-168945463D01*
X269061188Y-169011761D01*
X268934287Y-169039264D01*
X268854769Y-169042000D01*
X268657000Y-169042000D01*
X268657000Y-168542000D01*
X268817000Y-168542000D01*
X268818316Y-168718900D01*
X268824253Y-168830581D01*
X268837792Y-168891805D01*
X268861913Y-168917335D01*
X268893728Y-168922000D01*
X268993872Y-168909411D01*
X269033294Y-168897887D01*
X269089444Y-168839378D01*
X269133477Y-168727552D01*
X269158714Y-168588908D01*
X269158478Y-168449941D01*
X269153881Y-168419444D01*
X269099526Y-168265026D01*
X269006961Y-168180363D01*
X268914142Y-168162000D01*
X268869136Y-168164961D01*
X268840752Y-168183834D01*
X268825158Y-168233601D01*
X268818525Y-168329244D01*
X268817022Y-168485746D01*
X268817000Y-168542000D01*
X268657000Y-168542000D01*
X268657000Y-168042000D01*
X268854769Y-168042000D01*
G37*
G36*
X273317000Y-164782000D02*
G01*
X273329625Y-164891673D01*
X273342250Y-165001347D01*
X271029625Y-165011673D01*
X268717000Y-165022000D01*
X268695734Y-167242000D01*
X274137000Y-167242000D01*
X274137000Y-164762000D01*
X274378050Y-164762000D01*
X274357000Y-167502000D01*
X271433924Y-167512257D01*
X270957438Y-167513569D01*
X270504368Y-167514115D01*
X270081058Y-167513932D01*
X269693848Y-167513055D01*
X269349079Y-167511521D01*
X269053094Y-167509366D01*
X268812234Y-167506624D01*
X268632840Y-167503332D01*
X268521254Y-167499526D01*
X268483924Y-167495591D01*
X268477545Y-167450579D01*
X268471706Y-167335019D01*
X268466590Y-167158363D01*
X268462383Y-166930061D01*
X268459268Y-166659566D01*
X268457429Y-166356327D01*
X268457000Y-166115023D01*
X268457000Y-164761380D01*
X273317000Y-164782000D01*
G37*
G36*
X273846306Y-168045599D02*
G01*
X273872095Y-168064594D01*
X273887212Y-168113427D01*
X273894505Y-168205992D01*
X273896818Y-168356187D01*
X273897000Y-168482000D01*
X273897000Y-168922000D01*
X273997000Y-168922000D01*
X274077427Y-168942863D01*
X274097000Y-168982000D01*
X274080533Y-169014599D01*
X274021324Y-169033256D01*
X273904659Y-169041125D01*
X273817000Y-169042000D01*
X273664871Y-169038471D01*
X273577803Y-169025783D01*
X273541082Y-169000784D01*
X273537000Y-168982000D01*
X273572317Y-168934630D01*
X273658501Y-168922000D01*
X273780002Y-168922000D01*
X273757000Y-168182000D01*
X273647000Y-168194862D01*
X273560286Y-168188952D01*
X273537000Y-168149527D01*
X273573746Y-168094292D01*
X273672305Y-168056314D01*
X273807000Y-168042546D01*
X273846306Y-168045599D01*
G37*
G36*
X273916660Y-164414246D02*
G01*
X273937000Y-164436914D01*
X273928877Y-164482821D01*
X273906212Y-164595007D01*
X273871554Y-164761597D01*
X273827456Y-164970718D01*
X273776469Y-165210495D01*
X273721145Y-165469056D01*
X273664035Y-165734527D01*
X273607691Y-165995033D01*
X273554665Y-166238701D01*
X273507507Y-166453657D01*
X273468769Y-166628027D01*
X273441004Y-166749937D01*
X273430940Y-166791903D01*
X273389693Y-166864266D01*
X273322125Y-166874143D01*
X273280399Y-166857910D01*
X273245223Y-166813390D01*
X273210448Y-166726716D01*
X273169926Y-166584019D01*
X273139382Y-166462000D01*
X273041765Y-166062000D01*
X272969593Y-166382000D01*
X272932961Y-166544062D01*
X272900895Y-166685286D01*
X272879248Y-166779920D01*
X272876448Y-166792000D01*
X272832242Y-166856876D01*
X272760084Y-166885249D01*
X272695097Y-166866189D01*
X272683640Y-166852000D01*
X272671713Y-166803667D01*
X272651100Y-166690949D01*
X272624307Y-166528675D01*
X272593841Y-166331672D01*
X272580532Y-166242000D01*
X272548767Y-166028459D01*
X272519463Y-165837188D01*
X272495271Y-165685082D01*
X272478842Y-165589033D01*
X272475269Y-165571121D01*
X272485032Y-165491080D01*
X272537123Y-165446621D01*
X272604576Y-165456515D01*
X272620816Y-165469816D01*
X272640189Y-165522398D01*
X272665050Y-165637842D01*
X272692287Y-165799472D01*
X272718791Y-165990612D01*
X272720474Y-166004140D01*
X272749455Y-166225299D01*
X272774700Y-166391499D01*
X272795050Y-166497110D01*
X272809348Y-166536500D01*
X272816436Y-166504037D01*
X272817000Y-166473573D01*
X272825453Y-166405741D01*
X272847705Y-166285159D01*
X272879092Y-166136915D01*
X272881834Y-166124716D01*
X272917027Y-165977434D01*
X272946008Y-165892705D01*
X272978430Y-165854669D01*
X273023947Y-165847467D01*
X273049180Y-165849809D01*
X273102203Y-165862898D01*
X273139589Y-165898125D01*
X273170059Y-165972174D01*
X273202332Y-166101726D01*
X273217483Y-166171804D01*
X273250458Y-166319386D01*
X273279071Y-166433718D01*
X273298201Y-166494687D01*
X273300861Y-166499194D01*
X273313330Y-166466483D01*
X273339572Y-166365322D01*
X273377305Y-166205631D01*
X273424248Y-165997333D01*
X273478117Y-165750349D01*
X273536632Y-165474600D01*
X273537723Y-165469390D01*
X273603886Y-165155120D01*
X273656701Y-164910448D01*
X273698735Y-164726572D01*
X273732556Y-164594687D01*
X273760733Y-164505991D01*
X273785833Y-164451682D01*
X273810425Y-164422956D01*
X273837076Y-164411011D01*
X273847000Y-164409217D01*
X273916660Y-164414246D01*
G37*
%TD*%
D13*
%TO.C,MX11*%
X281305000Y-90487500D03*
D14*
X278765000Y-85407500D03*
X272415000Y-87947500D03*
D15*
X276225000Y-90487500D03*
D13*
X271145000Y-90487500D03*
%TD*%
%TO.C,MX60*%
X318770000Y-166687500D03*
D14*
X320040000Y-164147500D03*
X326390000Y-161607500D03*
D15*
X323850000Y-166687500D03*
D13*
X328930000Y-166687500D03*
%TD*%
%TO.C,MX56*%
X109220000Y-166687500D03*
D14*
X116840000Y-161607500D03*
X110490000Y-164147500D03*
D15*
X114300000Y-166687500D03*
D13*
X119380000Y-166687500D03*
%TD*%
D14*
%TO.C,MX13*%
X316865000Y-85407500D03*
D13*
X319405000Y-90487500D03*
D15*
X314325000Y-90487500D03*
D14*
X310515000Y-87947500D03*
D13*
X309245000Y-90487500D03*
%TD*%
%TO.C,MX58*%
X213995000Y-166687500D03*
D14*
X215265000Y-164147500D03*
X221615000Y-161607500D03*
D15*
X219075000Y-166687500D03*
D13*
X224155000Y-166687500D03*
%TD*%
D14*
%TO.C,MX26*%
X307340000Y-104457500D03*
D13*
X309880000Y-109537500D03*
D15*
X304800000Y-109537500D03*
D13*
X299720000Y-109537500D03*
D14*
X300990000Y-106997500D03*
%TD*%
D15*
%TO.C,MX47*%
X204787500Y-147637500D03*
D13*
X209867500Y-147637500D03*
X199707500Y-147637500D03*
D14*
X207327500Y-142557500D03*
X200977500Y-145097500D03*
%TD*%
D16*
%TO.C,*%
X149450000Y-166682000D03*
%TD*%
D13*
%TO.C,MX54*%
X347345000Y-147637500D03*
D14*
X354965000Y-142557500D03*
X348615000Y-145097500D03*
D13*
X357505000Y-147637500D03*
D15*
X352425000Y-147637500D03*
%TD*%
D16*
%TO.C,*%
X119065000Y-147635000D03*
%TD*%
D13*
%TO.C,MX10*%
X262255000Y-90487500D03*
D14*
X253365000Y-87947500D03*
D15*
X257175000Y-90487500D03*
D13*
X252095000Y-90487500D03*
D14*
X259715000Y-85407500D03*
%TD*%
%TO.C,MX48*%
X226377500Y-142557500D03*
D15*
X223837500Y-147637500D03*
D14*
X220027500Y-145097500D03*
D13*
X228917500Y-147637500D03*
X218757500Y-147637500D03*
%TD*%
%TO.C,MX55*%
X85407500Y-166687500D03*
D14*
X93027500Y-161607500D03*
D15*
X90487500Y-166687500D03*
D13*
X95567500Y-166687500D03*
D14*
X86677500Y-164147500D03*
%TD*%
D13*
%TO.C,MX43*%
X123507500Y-147637500D03*
D15*
X128587500Y-147637500D03*
D14*
X124777500Y-145097500D03*
X131127500Y-142557500D03*
D13*
X133667500Y-147637500D03*
%TD*%
D17*
%TO.C,REF\u002A\u002A*%
X161925000Y-158432500D03*
D18*
X161925000Y-173672500D03*
X276225000Y-173672500D03*
D17*
X276225000Y-158432500D03*
%TD*%
D13*
%TO.C,MX33*%
X181292500Y-128587500D03*
D14*
X178752500Y-123507500D03*
X172402500Y-126047500D03*
D13*
X171132500Y-128587500D03*
D15*
X176212500Y-128587500D03*
%TD*%
D18*
%TO.C,REF\u002A\u002A*%
X328580750Y-121602500D03*
D17*
X352456750Y-136842500D03*
X328580750Y-136842500D03*
D18*
X352456750Y-121602500D03*
%TD*%
D13*
%TO.C,MX24*%
X271780000Y-109537500D03*
D14*
X269240000Y-104457500D03*
D13*
X261620000Y-109537500D03*
D15*
X266700000Y-109537500D03*
D14*
X262890000Y-106997500D03*
%TD*%
%TO.C,MX41*%
X343058750Y-123507500D03*
D13*
X345598750Y-128587500D03*
D15*
X340518750Y-128587500D03*
D13*
X335438750Y-128587500D03*
D14*
X336708750Y-126047500D03*
%TD*%
%TO.C,MX9*%
X240665000Y-85407500D03*
D13*
X233045000Y-90487500D03*
D14*
X234315000Y-87947500D03*
D15*
X238125000Y-90487500D03*
D13*
X243205000Y-90487500D03*
%TD*%
D14*
%TO.C,MX30*%
X121602500Y-123507500D03*
D15*
X119062500Y-128587500D03*
D13*
X113982500Y-128587500D03*
X124142500Y-128587500D03*
D14*
X115252500Y-126047500D03*
%TD*%
D13*
%TO.C,MX50*%
X267017500Y-147637500D03*
D15*
X261937500Y-147637500D03*
D13*
X256857500Y-147637500D03*
D14*
X264477500Y-142557500D03*
X258127500Y-145097500D03*
%TD*%
D16*
%TO.C,*%
X336945000Y-166682000D03*
%TD*%
D13*
%TO.C,MX20*%
X195580000Y-109537500D03*
X185420000Y-109537500D03*
D15*
X190500000Y-109537500D03*
D14*
X186690000Y-106997500D03*
X193040000Y-104457500D03*
%TD*%
%TO.C,MX25*%
X288290000Y-104457500D03*
D13*
X280670000Y-109537500D03*
D15*
X285750000Y-109537500D03*
D14*
X281940000Y-106997500D03*
D13*
X290830000Y-109537500D03*
%TD*%
%TO.C,MX2*%
X99695000Y-90487500D03*
X109855000Y-90487500D03*
D14*
X107315000Y-85407500D03*
X100965000Y-87947500D03*
D15*
X104775000Y-90487500D03*
%TD*%
D13*
%TO.C,MX34*%
X190182500Y-128587500D03*
D14*
X191452500Y-126047500D03*
D13*
X200342500Y-128587500D03*
D14*
X197802500Y-123507500D03*
D15*
X195262500Y-128587500D03*
%TD*%
D13*
%TO.C,MX3*%
X128905000Y-90487500D03*
D15*
X123825000Y-90487500D03*
D14*
X126365000Y-85407500D03*
X120015000Y-87947500D03*
D13*
X118745000Y-90487500D03*
%TD*%
%TO.C,MX53*%
X331311250Y-147637500D03*
D14*
X322421250Y-145097500D03*
D15*
X326231250Y-147637500D03*
D14*
X328771250Y-142557500D03*
D13*
X321151250Y-147637500D03*
%TD*%
D14*
%TO.C,MX21*%
X205740000Y-106997500D03*
D13*
X214630000Y-109537500D03*
D14*
X212090000Y-104457500D03*
D13*
X204470000Y-109537500D03*
D15*
X209550000Y-109537500D03*
%TD*%
D13*
%TO.C,MX31*%
X133032500Y-128587500D03*
D15*
X138112500Y-128587500D03*
D14*
X140652500Y-123507500D03*
D13*
X143192500Y-128587500D03*
D14*
X134302500Y-126047500D03*
%TD*%
%TO.C,MX7*%
X202565000Y-85407500D03*
D13*
X194945000Y-90487500D03*
X205105000Y-90487500D03*
D14*
X196215000Y-87947500D03*
D15*
X200025000Y-90487500D03*
%TD*%
D14*
%TO.C,MX15*%
X93027500Y-104457500D03*
D15*
X90487500Y-109537500D03*
D14*
X86677500Y-106997500D03*
D13*
X85407500Y-109537500D03*
X95567500Y-109537500D03*
%TD*%
D14*
%TO.C,MX38*%
X274002500Y-123507500D03*
D15*
X271462500Y-128587500D03*
D14*
X267652500Y-126047500D03*
D13*
X266382500Y-128587500D03*
X276542500Y-128587500D03*
%TD*%
D16*
%TO.C,*%
X313130000Y-148295000D03*
%TD*%
D18*
%TO.C,REF\u002A\u002A*%
X109569250Y-140652500D03*
D17*
X85693250Y-155892500D03*
D18*
X85693250Y-140652500D03*
D17*
X109569250Y-155892500D03*
%TD*%
D14*
%TO.C,MX42*%
X93821250Y-145097500D03*
D13*
X102711250Y-147637500D03*
D14*
X100171250Y-142557500D03*
D13*
X92551250Y-147637500D03*
D15*
X97631250Y-147637500D03*
%TD*%
D14*
%TO.C,MX52*%
X302577500Y-142557500D03*
D13*
X294957500Y-147637500D03*
D15*
X300037500Y-147637500D03*
D13*
X305117500Y-147637500D03*
D14*
X296227500Y-145097500D03*
%TD*%
D13*
%TO.C,MX35*%
X219392500Y-128587500D03*
D14*
X216852500Y-123507500D03*
X210502500Y-126047500D03*
D13*
X209232500Y-128587500D03*
D15*
X214312500Y-128587500D03*
%TD*%
D17*
%TO.C,REF\u002A\u002A*%
X354838000Y-98742500D03*
D18*
X330962000Y-83502500D03*
D17*
X330962000Y-98742500D03*
D18*
X354838000Y-83502500D03*
%TD*%
D15*
%TO.C,MX46*%
X185737500Y-147637500D03*
D13*
X190817500Y-147637500D03*
D14*
X188277500Y-142557500D03*
D13*
X180657500Y-147637500D03*
D14*
X181927500Y-145097500D03*
%TD*%
D13*
%TO.C,MX29*%
X87788750Y-128587500D03*
D14*
X89058750Y-126047500D03*
D15*
X92868750Y-128587500D03*
D13*
X97948750Y-128587500D03*
D14*
X95408750Y-123507500D03*
%TD*%
D13*
%TO.C,MX8*%
X224155000Y-90487500D03*
D14*
X215265000Y-87947500D03*
D13*
X213995000Y-90487500D03*
D14*
X221615000Y-85407500D03*
D15*
X219075000Y-90487500D03*
%TD*%
D14*
%TO.C,MX61*%
X350202500Y-161607500D03*
D13*
X342582500Y-166687500D03*
D15*
X347662500Y-166687500D03*
D14*
X343852500Y-164147500D03*
D13*
X352742500Y-166687500D03*
%TD*%
D15*
%TO.C,MX16*%
X114300000Y-109537500D03*
D13*
X119380000Y-109537500D03*
X109220000Y-109537500D03*
D14*
X110490000Y-106997500D03*
X116840000Y-104457500D03*
%TD*%
%TO.C,MX57*%
X134302500Y-164147500D03*
D13*
X143192500Y-166687500D03*
D14*
X140652500Y-161607500D03*
D15*
X138112500Y-166687500D03*
D13*
X133032500Y-166687500D03*
%TD*%
D15*
%TO.C,MX37*%
X252412500Y-128587500D03*
D14*
X248602500Y-126047500D03*
D13*
X257492500Y-128587500D03*
D14*
X254952500Y-123507500D03*
D13*
X247332500Y-128587500D03*
%TD*%
D14*
%TO.C,MX5*%
X164465000Y-85407500D03*
D15*
X161925000Y-90487500D03*
D13*
X167005000Y-90487500D03*
D14*
X158115000Y-87947500D03*
D13*
X156845000Y-90487500D03*
%TD*%
D16*
%TO.C,*%
X335755000Y-109531000D03*
%TD*%
D13*
%TO.C,MX1*%
X90805000Y-90487500D03*
X80645000Y-90487500D03*
D14*
X81915000Y-87947500D03*
X88265000Y-85407500D03*
D15*
X85725000Y-90487500D03*
%TD*%
D14*
%TO.C,MX23*%
X250190000Y-104457500D03*
D13*
X242570000Y-109537500D03*
X252730000Y-109537500D03*
D15*
X247650000Y-109537500D03*
D14*
X243840000Y-106997500D03*
%TD*%
D13*
%TO.C,MX19*%
X166370000Y-109537500D03*
X176530000Y-109537500D03*
D15*
X171450000Y-109537500D03*
D14*
X167640000Y-106997500D03*
X173990000Y-104457500D03*
%TD*%
%TO.C,MX18*%
X154940000Y-104457500D03*
D13*
X147320000Y-109537500D03*
D15*
X152400000Y-109537500D03*
D14*
X148590000Y-106997500D03*
D13*
X157480000Y-109537500D03*
%TD*%
%TO.C,MX12*%
X300355000Y-90487500D03*
D14*
X297815000Y-85407500D03*
D15*
X295275000Y-90487500D03*
D13*
X290195000Y-90487500D03*
D14*
X291465000Y-87947500D03*
%TD*%
D15*
%TO.C,MX51*%
X280987500Y-147637500D03*
D13*
X275907500Y-147637500D03*
X286067500Y-147637500D03*
D14*
X283527500Y-142557500D03*
X277177500Y-145097500D03*
%TD*%
D13*
%TO.C,MX44*%
X152717500Y-147637500D03*
D14*
X150177500Y-142557500D03*
D13*
X142557500Y-147637500D03*
D14*
X143827500Y-145097500D03*
D15*
X147637500Y-147637500D03*
%TD*%
D16*
%TO.C,*%
X101207000Y-166686000D03*
%TD*%
D14*
%TO.C,MX22*%
X231140000Y-104457500D03*
D15*
X228600000Y-109537500D03*
D13*
X223520000Y-109537500D03*
X233680000Y-109537500D03*
D14*
X224790000Y-106997500D03*
%TD*%
D16*
%TO.C,*%
X79575000Y-109536000D03*
%TD*%
D13*
%TO.C,MX49*%
X237807500Y-147637500D03*
D14*
X245427500Y-142557500D03*
D15*
X242887500Y-147637500D03*
D14*
X239077500Y-145097500D03*
D13*
X247967500Y-147637500D03*
%TD*%
D14*
%TO.C,MX27*%
X326390000Y-104457500D03*
X320040000Y-106997500D03*
D15*
X323850000Y-109537500D03*
D13*
X318770000Y-109537500D03*
X328930000Y-109537500D03*
%TD*%
D16*
%TO.C,*%
X180947000Y-110469000D03*
%TD*%
D14*
%TO.C,MX39*%
X286702500Y-126047500D03*
D13*
X295592500Y-128587500D03*
X285432500Y-128587500D03*
D14*
X293052500Y-123507500D03*
D15*
X290512500Y-128587500D03*
%TD*%
D13*
%TO.C,MX28*%
X352742500Y-109537500D03*
D14*
X350202500Y-104457500D03*
D13*
X342582500Y-109537500D03*
D15*
X347662500Y-109537500D03*
D14*
X343852500Y-106997500D03*
%TD*%
D16*
%TO.C,*%
X257182000Y-110453000D03*
%TD*%
D13*
%TO.C,MX40*%
X314642500Y-128587500D03*
D14*
X305752500Y-126047500D03*
D13*
X304482500Y-128587500D03*
D14*
X312102500Y-123507500D03*
D15*
X309562500Y-128587500D03*
%TD*%
D14*
%TO.C,MX14*%
X339090000Y-87947500D03*
D13*
X347980000Y-90487500D03*
X337820000Y-90487500D03*
D15*
X342900000Y-90487500D03*
D14*
X345440000Y-85407500D03*
%TD*%
D13*
%TO.C,MX59*%
X294957500Y-166687500D03*
D14*
X296227500Y-164147500D03*
X302577500Y-161607500D03*
D13*
X305117500Y-166687500D03*
D15*
X300037500Y-166687500D03*
%TD*%
%TO.C,MX4*%
X142875000Y-90487500D03*
D14*
X139065000Y-87947500D03*
D13*
X147955000Y-90487500D03*
X137795000Y-90487500D03*
D14*
X145415000Y-85407500D03*
%TD*%
D13*
%TO.C,MX6*%
X186055000Y-90487500D03*
X175895000Y-90487500D03*
D14*
X183515000Y-85407500D03*
D15*
X180975000Y-90487500D03*
D14*
X177165000Y-87947500D03*
%TD*%
D16*
%TO.C,*%
X266094000Y-166681000D03*
%TD*%
D14*
%TO.C,MX32*%
X153352500Y-126047500D03*
D15*
X157162500Y-128587500D03*
D14*
X159702500Y-123507500D03*
D13*
X162242500Y-128587500D03*
X152082500Y-128587500D03*
%TD*%
D15*
%TO.C,MX17*%
X133350000Y-109537500D03*
D13*
X138430000Y-109537500D03*
D14*
X129540000Y-106997500D03*
X135890000Y-104457500D03*
D13*
X128270000Y-109537500D03*
%TD*%
D14*
%TO.C,MX45*%
X162877500Y-145097500D03*
X169227500Y-142557500D03*
D15*
X166687500Y-147637500D03*
D13*
X161607500Y-147637500D03*
X171767500Y-147637500D03*
%TD*%
D14*
%TO.C,MX36*%
X235902500Y-123507500D03*
X229552500Y-126047500D03*
D13*
X228282500Y-128587500D03*
D15*
X233362500Y-128587500D03*
D13*
X238442500Y-128587500D03*
%TD*%
D19*
%TO.C,J1*%
X229090000Y-95940000D03*
X226550000Y-95940000D03*
X229090000Y-98480000D03*
X226550000Y-98480000D03*
X229090000Y-101020000D03*
X226550000Y-101020000D03*
%TD*%
M02*
