%TF.GenerationSoftware,KiCad,Pcbnew,(6.0.2)*%
%TF.CreationDate,2022-03-01T17:46:25+01:00*%
%TF.ProjectId,pcb-hotswap,7063622d-686f-4747-9377-61702e6b6963,1.0*%
%TF.SameCoordinates,Original*%
%TF.FileFunction,Legend,Bot*%
%TF.FilePolarity,Positive*%
%FSLAX46Y46*%
G04 Gerber Fmt 4.6, Leading zero omitted, Abs format (unit mm)*
G04 Created by KiCad (PCBNEW (6.0.2)) date 2022-03-01 17:46:25*
%MOMM*%
%LPD*%
G01*
G04 APERTURE LIST*
G04 Aperture macros list*
%AMRoundRect*
0 Rectangle with rounded corners*
0 $1 Rounding radius*
0 $2 $3 $4 $5 $6 $7 $8 $9 X,Y pos of 4 corners*
0 Add a 4 corners polygon primitive as box body*
4,1,4,$2,$3,$4,$5,$6,$7,$8,$9,$2,$3,0*
0 Add four circle primitives for the rounded corners*
1,1,$1+$1,$2,$3*
1,1,$1+$1,$4,$5*
1,1,$1+$1,$6,$7*
1,1,$1+$1,$8,$9*
0 Add four rect primitives between the rounded corners*
20,1,$1+$1,$2,$3,$4,$5,0*
20,1,$1+$1,$4,$5,$6,$7,0*
20,1,$1+$1,$6,$7,$8,$9,0*
20,1,$1+$1,$8,$9,$2,$3,0*%
%AMRotRect*
0 Rectangle, with rotation*
0 The origin of the aperture is its center*
0 $1 length*
0 $2 width*
0 $3 Rotation angle, in degrees counterclockwise*
0 Add horizontal line*
21,1,$1,$2,0,0,$3*%
G04 Aperture macros list end*
%ADD10C,0.200000*%
%ADD11C,0.300000*%
%ADD12C,0.150000*%
%ADD13C,0.120000*%
%ADD14C,0.100000*%
%ADD15C,1.750000*%
%ADD16C,3.000000*%
%ADD17C,4.000000*%
%ADD18R,2.550000X2.500000*%
%ADD19RoundRect,0.082000X-0.718000X0.328000X-0.718000X-0.328000X0.718000X-0.328000X0.718000X0.328000X0*%
%ADD20C,2.400000*%
%ADD21C,3.987800*%
%ADD22C,3.048000*%
%ADD23C,1.500000*%
%ADD24RoundRect,0.225000X-0.250000X0.225000X-0.250000X-0.225000X0.250000X-0.225000X0.250000X0.225000X0*%
%ADD25R,1.000000X1.700000*%
%ADD26RoundRect,0.150000X0.150000X-0.587500X0.150000X0.587500X-0.150000X0.587500X-0.150000X-0.587500X0*%
%ADD27RoundRect,0.225000X-0.225000X-0.250000X0.225000X-0.250000X0.225000X0.250000X-0.225000X0.250000X0*%
%ADD28RoundRect,0.225000X-0.335876X-0.017678X-0.017678X-0.335876X0.335876X0.017678X0.017678X0.335876X0*%
%ADD29RoundRect,0.225000X0.250000X-0.225000X0.250000X0.225000X-0.250000X0.225000X-0.250000X-0.225000X0*%
%ADD30RoundRect,0.200000X-0.200000X-0.275000X0.200000X-0.275000X0.200000X0.275000X-0.200000X0.275000X0*%
%ADD31RoundRect,0.062500X0.291682X0.380070X-0.380070X-0.291682X-0.291682X-0.380070X0.380070X0.291682X0*%
%ADD32RoundRect,0.062500X-0.291682X0.380070X-0.380070X0.291682X0.291682X-0.380070X0.380070X-0.291682X0*%
%ADD33RotRect,5.200000X5.200000X225.000000*%
%ADD34RoundRect,0.225000X0.225000X0.250000X-0.225000X0.250000X-0.225000X-0.250000X0.225000X-0.250000X0*%
%ADD35RoundRect,0.200000X0.275000X-0.200000X0.275000X0.200000X-0.275000X0.200000X-0.275000X-0.200000X0*%
%ADD36RoundRect,0.225000X0.335876X0.017678X0.017678X0.335876X-0.335876X-0.017678X-0.017678X-0.335876X0*%
%ADD37RoundRect,0.300000X0.070711X0.494975X-0.494975X-0.070711X-0.070711X-0.494975X0.494975X0.070711X0*%
%ADD38C,1.700000*%
%ADD39R,1.200000X1.800000*%
%ADD40R,0.600000X1.550000*%
G04 APERTURE END LIST*
D10*
X230930000Y-97008500D02*
X230225000Y-97008500D01*
X230225000Y-97008500D02*
X230225000Y-99913500D01*
X230225000Y-99913500D02*
X230930000Y-99913500D01*
X230930000Y-99913500D02*
X230930000Y-97008500D01*
G36*
X230930000Y-97008500D02*
G01*
X230225000Y-97008500D01*
X230225000Y-99913500D01*
X230930000Y-99913500D01*
X230930000Y-97008500D01*
G37*
D11*
X225134285Y-102060571D02*
X225134285Y-100560571D01*
X224491428Y-101989142D02*
X224277142Y-102060571D01*
X223920000Y-102060571D01*
X223777142Y-101989142D01*
X223705714Y-101917714D01*
X223634285Y-101774857D01*
X223634285Y-101632000D01*
X223705714Y-101489142D01*
X223777142Y-101417714D01*
X223920000Y-101346285D01*
X224205714Y-101274857D01*
X224348571Y-101203428D01*
X224420000Y-101132000D01*
X224491428Y-100989142D01*
X224491428Y-100846285D01*
X224420000Y-100703428D01*
X224348571Y-100632000D01*
X224205714Y-100560571D01*
X223848571Y-100560571D01*
X223634285Y-100632000D01*
X222991428Y-102060571D02*
X222991428Y-100560571D01*
X222420000Y-100560571D01*
X222277142Y-100632000D01*
X222205714Y-100703428D01*
X222134285Y-100846285D01*
X222134285Y-101060571D01*
X222205714Y-101203428D01*
X222277142Y-101274857D01*
X222420000Y-101346285D01*
X222991428Y-101346285D01*
X242695428Y-99327571D02*
X243195428Y-98613285D01*
X243552571Y-99327571D02*
X243552571Y-97827571D01*
X242981142Y-97827571D01*
X242838285Y-97899000D01*
X242766857Y-97970428D01*
X242695428Y-98113285D01*
X242695428Y-98327571D01*
X242766857Y-98470428D01*
X242838285Y-98541857D01*
X242981142Y-98613285D01*
X243552571Y-98613285D01*
X242124000Y-99256142D02*
X241909714Y-99327571D01*
X241552571Y-99327571D01*
X241409714Y-99256142D01*
X241338285Y-99184714D01*
X241266857Y-99041857D01*
X241266857Y-98899000D01*
X241338285Y-98756142D01*
X241409714Y-98684714D01*
X241552571Y-98613285D01*
X241838285Y-98541857D01*
X241981142Y-98470428D01*
X242052571Y-98399000D01*
X242124000Y-98256142D01*
X242124000Y-98113285D01*
X242052571Y-97970428D01*
X241981142Y-97899000D01*
X241838285Y-97827571D01*
X241481142Y-97827571D01*
X241266857Y-97899000D01*
X240838285Y-97827571D02*
X239981142Y-97827571D01*
X240409714Y-99327571D02*
X240409714Y-97827571D01*
D12*
%TO.C,MX11*%
X277986904Y-82939880D02*
X277986904Y-81939880D01*
X277653571Y-82654166D01*
X277320238Y-81939880D01*
X277320238Y-82939880D01*
X276939285Y-81939880D02*
X276272619Y-82939880D01*
X276272619Y-81939880D02*
X276939285Y-82939880D01*
X275367857Y-82939880D02*
X275939285Y-82939880D01*
X275653571Y-82939880D02*
X275653571Y-81939880D01*
X275748809Y-82082738D01*
X275844047Y-82177976D01*
X275939285Y-82225595D01*
X274415476Y-82939880D02*
X274986904Y-82939880D01*
X274701190Y-82939880D02*
X274701190Y-81939880D01*
X274796428Y-82082738D01*
X274891666Y-82177976D01*
X274986904Y-82225595D01*
%TO.C,MX60*%
X325611904Y-159139880D02*
X325611904Y-158139880D01*
X325278571Y-158854166D01*
X324945238Y-158139880D01*
X324945238Y-159139880D01*
X324564285Y-158139880D02*
X323897619Y-159139880D01*
X323897619Y-158139880D02*
X324564285Y-159139880D01*
X323088095Y-158139880D02*
X323278571Y-158139880D01*
X323373809Y-158187500D01*
X323421428Y-158235119D01*
X323516666Y-158377976D01*
X323564285Y-158568452D01*
X323564285Y-158949404D01*
X323516666Y-159044642D01*
X323469047Y-159092261D01*
X323373809Y-159139880D01*
X323183333Y-159139880D01*
X323088095Y-159092261D01*
X323040476Y-159044642D01*
X322992857Y-158949404D01*
X322992857Y-158711309D01*
X323040476Y-158616071D01*
X323088095Y-158568452D01*
X323183333Y-158520833D01*
X323373809Y-158520833D01*
X323469047Y-158568452D01*
X323516666Y-158616071D01*
X323564285Y-158711309D01*
X322373809Y-158139880D02*
X322278571Y-158139880D01*
X322183333Y-158187500D01*
X322135714Y-158235119D01*
X322088095Y-158330357D01*
X322040476Y-158520833D01*
X322040476Y-158758928D01*
X322088095Y-158949404D01*
X322135714Y-159044642D01*
X322183333Y-159092261D01*
X322278571Y-159139880D01*
X322373809Y-159139880D01*
X322469047Y-159092261D01*
X322516666Y-159044642D01*
X322564285Y-158949404D01*
X322611904Y-158758928D01*
X322611904Y-158520833D01*
X322564285Y-158330357D01*
X322516666Y-158235119D01*
X322469047Y-158187500D01*
X322373809Y-158139880D01*
%TO.C,MX56*%
X116061904Y-159139880D02*
X116061904Y-158139880D01*
X115728571Y-158854166D01*
X115395238Y-158139880D01*
X115395238Y-159139880D01*
X115014285Y-158139880D02*
X114347619Y-159139880D01*
X114347619Y-158139880D02*
X115014285Y-159139880D01*
X113490476Y-158139880D02*
X113966666Y-158139880D01*
X114014285Y-158616071D01*
X113966666Y-158568452D01*
X113871428Y-158520833D01*
X113633333Y-158520833D01*
X113538095Y-158568452D01*
X113490476Y-158616071D01*
X113442857Y-158711309D01*
X113442857Y-158949404D01*
X113490476Y-159044642D01*
X113538095Y-159092261D01*
X113633333Y-159139880D01*
X113871428Y-159139880D01*
X113966666Y-159092261D01*
X114014285Y-159044642D01*
X112585714Y-158139880D02*
X112776190Y-158139880D01*
X112871428Y-158187500D01*
X112919047Y-158235119D01*
X113014285Y-158377976D01*
X113061904Y-158568452D01*
X113061904Y-158949404D01*
X113014285Y-159044642D01*
X112966666Y-159092261D01*
X112871428Y-159139880D01*
X112680952Y-159139880D01*
X112585714Y-159092261D01*
X112538095Y-159044642D01*
X112490476Y-158949404D01*
X112490476Y-158711309D01*
X112538095Y-158616071D01*
X112585714Y-158568452D01*
X112680952Y-158520833D01*
X112871428Y-158520833D01*
X112966666Y-158568452D01*
X113014285Y-158616071D01*
X113061904Y-158711309D01*
%TO.C,MX13*%
X316086904Y-82939880D02*
X316086904Y-81939880D01*
X315753571Y-82654166D01*
X315420238Y-81939880D01*
X315420238Y-82939880D01*
X315039285Y-81939880D02*
X314372619Y-82939880D01*
X314372619Y-81939880D02*
X315039285Y-82939880D01*
X313467857Y-82939880D02*
X314039285Y-82939880D01*
X313753571Y-82939880D02*
X313753571Y-81939880D01*
X313848809Y-82082738D01*
X313944047Y-82177976D01*
X314039285Y-82225595D01*
X313134523Y-81939880D02*
X312515476Y-81939880D01*
X312848809Y-82320833D01*
X312705952Y-82320833D01*
X312610714Y-82368452D01*
X312563095Y-82416071D01*
X312515476Y-82511309D01*
X312515476Y-82749404D01*
X312563095Y-82844642D01*
X312610714Y-82892261D01*
X312705952Y-82939880D01*
X312991666Y-82939880D01*
X313086904Y-82892261D01*
X313134523Y-82844642D01*
%TO.C,MX58*%
X220836904Y-159139880D02*
X220836904Y-158139880D01*
X220503571Y-158854166D01*
X220170238Y-158139880D01*
X220170238Y-159139880D01*
X219789285Y-158139880D02*
X219122619Y-159139880D01*
X219122619Y-158139880D02*
X219789285Y-159139880D01*
X218265476Y-158139880D02*
X218741666Y-158139880D01*
X218789285Y-158616071D01*
X218741666Y-158568452D01*
X218646428Y-158520833D01*
X218408333Y-158520833D01*
X218313095Y-158568452D01*
X218265476Y-158616071D01*
X218217857Y-158711309D01*
X218217857Y-158949404D01*
X218265476Y-159044642D01*
X218313095Y-159092261D01*
X218408333Y-159139880D01*
X218646428Y-159139880D01*
X218741666Y-159092261D01*
X218789285Y-159044642D01*
X217646428Y-158568452D02*
X217741666Y-158520833D01*
X217789285Y-158473214D01*
X217836904Y-158377976D01*
X217836904Y-158330357D01*
X217789285Y-158235119D01*
X217741666Y-158187500D01*
X217646428Y-158139880D01*
X217455952Y-158139880D01*
X217360714Y-158187500D01*
X217313095Y-158235119D01*
X217265476Y-158330357D01*
X217265476Y-158377976D01*
X217313095Y-158473214D01*
X217360714Y-158520833D01*
X217455952Y-158568452D01*
X217646428Y-158568452D01*
X217741666Y-158616071D01*
X217789285Y-158663690D01*
X217836904Y-158758928D01*
X217836904Y-158949404D01*
X217789285Y-159044642D01*
X217741666Y-159092261D01*
X217646428Y-159139880D01*
X217455952Y-159139880D01*
X217360714Y-159092261D01*
X217313095Y-159044642D01*
X217265476Y-158949404D01*
X217265476Y-158758928D01*
X217313095Y-158663690D01*
X217360714Y-158616071D01*
X217455952Y-158568452D01*
%TO.C,MX26*%
X306561904Y-101989880D02*
X306561904Y-100989880D01*
X306228571Y-101704166D01*
X305895238Y-100989880D01*
X305895238Y-101989880D01*
X305514285Y-100989880D02*
X304847619Y-101989880D01*
X304847619Y-100989880D02*
X305514285Y-101989880D01*
X304514285Y-101085119D02*
X304466666Y-101037500D01*
X304371428Y-100989880D01*
X304133333Y-100989880D01*
X304038095Y-101037500D01*
X303990476Y-101085119D01*
X303942857Y-101180357D01*
X303942857Y-101275595D01*
X303990476Y-101418452D01*
X304561904Y-101989880D01*
X303942857Y-101989880D01*
X303085714Y-100989880D02*
X303276190Y-100989880D01*
X303371428Y-101037500D01*
X303419047Y-101085119D01*
X303514285Y-101227976D01*
X303561904Y-101418452D01*
X303561904Y-101799404D01*
X303514285Y-101894642D01*
X303466666Y-101942261D01*
X303371428Y-101989880D01*
X303180952Y-101989880D01*
X303085714Y-101942261D01*
X303038095Y-101894642D01*
X302990476Y-101799404D01*
X302990476Y-101561309D01*
X303038095Y-101466071D01*
X303085714Y-101418452D01*
X303180952Y-101370833D01*
X303371428Y-101370833D01*
X303466666Y-101418452D01*
X303514285Y-101466071D01*
X303561904Y-101561309D01*
%TO.C,MX47*%
X206549404Y-140089880D02*
X206549404Y-139089880D01*
X206216071Y-139804166D01*
X205882738Y-139089880D01*
X205882738Y-140089880D01*
X205501785Y-139089880D02*
X204835119Y-140089880D01*
X204835119Y-139089880D02*
X205501785Y-140089880D01*
X204025595Y-139423214D02*
X204025595Y-140089880D01*
X204263690Y-139042261D02*
X204501785Y-139756547D01*
X203882738Y-139756547D01*
X203597023Y-139089880D02*
X202930357Y-139089880D01*
X203358928Y-140089880D01*
%TO.C,MX54*%
X354186904Y-140089880D02*
X354186904Y-139089880D01*
X353853571Y-139804166D01*
X353520238Y-139089880D01*
X353520238Y-140089880D01*
X353139285Y-139089880D02*
X352472619Y-140089880D01*
X352472619Y-139089880D02*
X353139285Y-140089880D01*
X351615476Y-139089880D02*
X352091666Y-139089880D01*
X352139285Y-139566071D01*
X352091666Y-139518452D01*
X351996428Y-139470833D01*
X351758333Y-139470833D01*
X351663095Y-139518452D01*
X351615476Y-139566071D01*
X351567857Y-139661309D01*
X351567857Y-139899404D01*
X351615476Y-139994642D01*
X351663095Y-140042261D01*
X351758333Y-140089880D01*
X351996428Y-140089880D01*
X352091666Y-140042261D01*
X352139285Y-139994642D01*
X350710714Y-139423214D02*
X350710714Y-140089880D01*
X350948809Y-139042261D02*
X351186904Y-139756547D01*
X350567857Y-139756547D01*
%TO.C,MX10*%
X258936904Y-82939880D02*
X258936904Y-81939880D01*
X258603571Y-82654166D01*
X258270238Y-81939880D01*
X258270238Y-82939880D01*
X257889285Y-81939880D02*
X257222619Y-82939880D01*
X257222619Y-81939880D02*
X257889285Y-82939880D01*
X256317857Y-82939880D02*
X256889285Y-82939880D01*
X256603571Y-82939880D02*
X256603571Y-81939880D01*
X256698809Y-82082738D01*
X256794047Y-82177976D01*
X256889285Y-82225595D01*
X255698809Y-81939880D02*
X255603571Y-81939880D01*
X255508333Y-81987500D01*
X255460714Y-82035119D01*
X255413095Y-82130357D01*
X255365476Y-82320833D01*
X255365476Y-82558928D01*
X255413095Y-82749404D01*
X255460714Y-82844642D01*
X255508333Y-82892261D01*
X255603571Y-82939880D01*
X255698809Y-82939880D01*
X255794047Y-82892261D01*
X255841666Y-82844642D01*
X255889285Y-82749404D01*
X255936904Y-82558928D01*
X255936904Y-82320833D01*
X255889285Y-82130357D01*
X255841666Y-82035119D01*
X255794047Y-81987500D01*
X255698809Y-81939880D01*
%TO.C,MX48*%
X225599404Y-140089880D02*
X225599404Y-139089880D01*
X225266071Y-139804166D01*
X224932738Y-139089880D01*
X224932738Y-140089880D01*
X224551785Y-139089880D02*
X223885119Y-140089880D01*
X223885119Y-139089880D02*
X224551785Y-140089880D01*
X223075595Y-139423214D02*
X223075595Y-140089880D01*
X223313690Y-139042261D02*
X223551785Y-139756547D01*
X222932738Y-139756547D01*
X222408928Y-139518452D02*
X222504166Y-139470833D01*
X222551785Y-139423214D01*
X222599404Y-139327976D01*
X222599404Y-139280357D01*
X222551785Y-139185119D01*
X222504166Y-139137500D01*
X222408928Y-139089880D01*
X222218452Y-139089880D01*
X222123214Y-139137500D01*
X222075595Y-139185119D01*
X222027976Y-139280357D01*
X222027976Y-139327976D01*
X222075595Y-139423214D01*
X222123214Y-139470833D01*
X222218452Y-139518452D01*
X222408928Y-139518452D01*
X222504166Y-139566071D01*
X222551785Y-139613690D01*
X222599404Y-139708928D01*
X222599404Y-139899404D01*
X222551785Y-139994642D01*
X222504166Y-140042261D01*
X222408928Y-140089880D01*
X222218452Y-140089880D01*
X222123214Y-140042261D01*
X222075595Y-139994642D01*
X222027976Y-139899404D01*
X222027976Y-139708928D01*
X222075595Y-139613690D01*
X222123214Y-139566071D01*
X222218452Y-139518452D01*
%TO.C,MX55*%
X92249404Y-159139880D02*
X92249404Y-158139880D01*
X91916071Y-158854166D01*
X91582738Y-158139880D01*
X91582738Y-159139880D01*
X91201785Y-158139880D02*
X90535119Y-159139880D01*
X90535119Y-158139880D02*
X91201785Y-159139880D01*
X89677976Y-158139880D02*
X90154166Y-158139880D01*
X90201785Y-158616071D01*
X90154166Y-158568452D01*
X90058928Y-158520833D01*
X89820833Y-158520833D01*
X89725595Y-158568452D01*
X89677976Y-158616071D01*
X89630357Y-158711309D01*
X89630357Y-158949404D01*
X89677976Y-159044642D01*
X89725595Y-159092261D01*
X89820833Y-159139880D01*
X90058928Y-159139880D01*
X90154166Y-159092261D01*
X90201785Y-159044642D01*
X88725595Y-158139880D02*
X89201785Y-158139880D01*
X89249404Y-158616071D01*
X89201785Y-158568452D01*
X89106547Y-158520833D01*
X88868452Y-158520833D01*
X88773214Y-158568452D01*
X88725595Y-158616071D01*
X88677976Y-158711309D01*
X88677976Y-158949404D01*
X88725595Y-159044642D01*
X88773214Y-159092261D01*
X88868452Y-159139880D01*
X89106547Y-159139880D01*
X89201785Y-159092261D01*
X89249404Y-159044642D01*
%TO.C,MX43*%
X130349404Y-140089880D02*
X130349404Y-139089880D01*
X130016071Y-139804166D01*
X129682738Y-139089880D01*
X129682738Y-140089880D01*
X129301785Y-139089880D02*
X128635119Y-140089880D01*
X128635119Y-139089880D02*
X129301785Y-140089880D01*
X127825595Y-139423214D02*
X127825595Y-140089880D01*
X128063690Y-139042261D02*
X128301785Y-139756547D01*
X127682738Y-139756547D01*
X127397023Y-139089880D02*
X126777976Y-139089880D01*
X127111309Y-139470833D01*
X126968452Y-139470833D01*
X126873214Y-139518452D01*
X126825595Y-139566071D01*
X126777976Y-139661309D01*
X126777976Y-139899404D01*
X126825595Y-139994642D01*
X126873214Y-140042261D01*
X126968452Y-140089880D01*
X127254166Y-140089880D01*
X127349404Y-140042261D01*
X127397023Y-139994642D01*
%TO.C,MX33*%
X177974404Y-121039880D02*
X177974404Y-120039880D01*
X177641071Y-120754166D01*
X177307738Y-120039880D01*
X177307738Y-121039880D01*
X176926785Y-120039880D02*
X176260119Y-121039880D01*
X176260119Y-120039880D02*
X176926785Y-121039880D01*
X175974404Y-120039880D02*
X175355357Y-120039880D01*
X175688690Y-120420833D01*
X175545833Y-120420833D01*
X175450595Y-120468452D01*
X175402976Y-120516071D01*
X175355357Y-120611309D01*
X175355357Y-120849404D01*
X175402976Y-120944642D01*
X175450595Y-120992261D01*
X175545833Y-121039880D01*
X175831547Y-121039880D01*
X175926785Y-120992261D01*
X175974404Y-120944642D01*
X175022023Y-120039880D02*
X174402976Y-120039880D01*
X174736309Y-120420833D01*
X174593452Y-120420833D01*
X174498214Y-120468452D01*
X174450595Y-120516071D01*
X174402976Y-120611309D01*
X174402976Y-120849404D01*
X174450595Y-120944642D01*
X174498214Y-120992261D01*
X174593452Y-121039880D01*
X174879166Y-121039880D01*
X174974404Y-120992261D01*
X175022023Y-120944642D01*
%TO.C,MX24*%
X268461904Y-101989880D02*
X268461904Y-100989880D01*
X268128571Y-101704166D01*
X267795238Y-100989880D01*
X267795238Y-101989880D01*
X267414285Y-100989880D02*
X266747619Y-101989880D01*
X266747619Y-100989880D02*
X267414285Y-101989880D01*
X266414285Y-101085119D02*
X266366666Y-101037500D01*
X266271428Y-100989880D01*
X266033333Y-100989880D01*
X265938095Y-101037500D01*
X265890476Y-101085119D01*
X265842857Y-101180357D01*
X265842857Y-101275595D01*
X265890476Y-101418452D01*
X266461904Y-101989880D01*
X265842857Y-101989880D01*
X264985714Y-101323214D02*
X264985714Y-101989880D01*
X265223809Y-100942261D02*
X265461904Y-101656547D01*
X264842857Y-101656547D01*
%TO.C,MX41*%
X342280654Y-121039880D02*
X342280654Y-120039880D01*
X341947321Y-120754166D01*
X341613988Y-120039880D01*
X341613988Y-121039880D01*
X341233035Y-120039880D02*
X340566369Y-121039880D01*
X340566369Y-120039880D02*
X341233035Y-121039880D01*
X339756845Y-120373214D02*
X339756845Y-121039880D01*
X339994940Y-119992261D02*
X340233035Y-120706547D01*
X339613988Y-120706547D01*
X338709226Y-121039880D02*
X339280654Y-121039880D01*
X338994940Y-121039880D02*
X338994940Y-120039880D01*
X339090178Y-120182738D01*
X339185416Y-120277976D01*
X339280654Y-120325595D01*
%TO.C,MX9*%
X239410714Y-82939880D02*
X239410714Y-81939880D01*
X239077380Y-82654166D01*
X238744047Y-81939880D01*
X238744047Y-82939880D01*
X238363095Y-81939880D02*
X237696428Y-82939880D01*
X237696428Y-81939880D02*
X238363095Y-82939880D01*
X237267857Y-82939880D02*
X237077380Y-82939880D01*
X236982142Y-82892261D01*
X236934523Y-82844642D01*
X236839285Y-82701785D01*
X236791666Y-82511309D01*
X236791666Y-82130357D01*
X236839285Y-82035119D01*
X236886904Y-81987500D01*
X236982142Y-81939880D01*
X237172619Y-81939880D01*
X237267857Y-81987500D01*
X237315476Y-82035119D01*
X237363095Y-82130357D01*
X237363095Y-82368452D01*
X237315476Y-82463690D01*
X237267857Y-82511309D01*
X237172619Y-82558928D01*
X236982142Y-82558928D01*
X236886904Y-82511309D01*
X236839285Y-82463690D01*
X236791666Y-82368452D01*
%TO.C,MX30*%
X120824404Y-121039880D02*
X120824404Y-120039880D01*
X120491071Y-120754166D01*
X120157738Y-120039880D01*
X120157738Y-121039880D01*
X119776785Y-120039880D02*
X119110119Y-121039880D01*
X119110119Y-120039880D02*
X119776785Y-121039880D01*
X118824404Y-120039880D02*
X118205357Y-120039880D01*
X118538690Y-120420833D01*
X118395833Y-120420833D01*
X118300595Y-120468452D01*
X118252976Y-120516071D01*
X118205357Y-120611309D01*
X118205357Y-120849404D01*
X118252976Y-120944642D01*
X118300595Y-120992261D01*
X118395833Y-121039880D01*
X118681547Y-121039880D01*
X118776785Y-120992261D01*
X118824404Y-120944642D01*
X117586309Y-120039880D02*
X117491071Y-120039880D01*
X117395833Y-120087500D01*
X117348214Y-120135119D01*
X117300595Y-120230357D01*
X117252976Y-120420833D01*
X117252976Y-120658928D01*
X117300595Y-120849404D01*
X117348214Y-120944642D01*
X117395833Y-120992261D01*
X117491071Y-121039880D01*
X117586309Y-121039880D01*
X117681547Y-120992261D01*
X117729166Y-120944642D01*
X117776785Y-120849404D01*
X117824404Y-120658928D01*
X117824404Y-120420833D01*
X117776785Y-120230357D01*
X117729166Y-120135119D01*
X117681547Y-120087500D01*
X117586309Y-120039880D01*
%TO.C,MX50*%
X263699404Y-140089880D02*
X263699404Y-139089880D01*
X263366071Y-139804166D01*
X263032738Y-139089880D01*
X263032738Y-140089880D01*
X262651785Y-139089880D02*
X261985119Y-140089880D01*
X261985119Y-139089880D02*
X262651785Y-140089880D01*
X261127976Y-139089880D02*
X261604166Y-139089880D01*
X261651785Y-139566071D01*
X261604166Y-139518452D01*
X261508928Y-139470833D01*
X261270833Y-139470833D01*
X261175595Y-139518452D01*
X261127976Y-139566071D01*
X261080357Y-139661309D01*
X261080357Y-139899404D01*
X261127976Y-139994642D01*
X261175595Y-140042261D01*
X261270833Y-140089880D01*
X261508928Y-140089880D01*
X261604166Y-140042261D01*
X261651785Y-139994642D01*
X260461309Y-139089880D02*
X260366071Y-139089880D01*
X260270833Y-139137500D01*
X260223214Y-139185119D01*
X260175595Y-139280357D01*
X260127976Y-139470833D01*
X260127976Y-139708928D01*
X260175595Y-139899404D01*
X260223214Y-139994642D01*
X260270833Y-140042261D01*
X260366071Y-140089880D01*
X260461309Y-140089880D01*
X260556547Y-140042261D01*
X260604166Y-139994642D01*
X260651785Y-139899404D01*
X260699404Y-139708928D01*
X260699404Y-139470833D01*
X260651785Y-139280357D01*
X260604166Y-139185119D01*
X260556547Y-139137500D01*
X260461309Y-139089880D01*
%TO.C,MX20*%
X192261904Y-101989880D02*
X192261904Y-100989880D01*
X191928571Y-101704166D01*
X191595238Y-100989880D01*
X191595238Y-101989880D01*
X191214285Y-100989880D02*
X190547619Y-101989880D01*
X190547619Y-100989880D02*
X191214285Y-101989880D01*
X190214285Y-101085119D02*
X190166666Y-101037500D01*
X190071428Y-100989880D01*
X189833333Y-100989880D01*
X189738095Y-101037500D01*
X189690476Y-101085119D01*
X189642857Y-101180357D01*
X189642857Y-101275595D01*
X189690476Y-101418452D01*
X190261904Y-101989880D01*
X189642857Y-101989880D01*
X189023809Y-100989880D02*
X188928571Y-100989880D01*
X188833333Y-101037500D01*
X188785714Y-101085119D01*
X188738095Y-101180357D01*
X188690476Y-101370833D01*
X188690476Y-101608928D01*
X188738095Y-101799404D01*
X188785714Y-101894642D01*
X188833333Y-101942261D01*
X188928571Y-101989880D01*
X189023809Y-101989880D01*
X189119047Y-101942261D01*
X189166666Y-101894642D01*
X189214285Y-101799404D01*
X189261904Y-101608928D01*
X189261904Y-101370833D01*
X189214285Y-101180357D01*
X189166666Y-101085119D01*
X189119047Y-101037500D01*
X189023809Y-100989880D01*
%TO.C,MX25*%
X287511904Y-101989880D02*
X287511904Y-100989880D01*
X287178571Y-101704166D01*
X286845238Y-100989880D01*
X286845238Y-101989880D01*
X286464285Y-100989880D02*
X285797619Y-101989880D01*
X285797619Y-100989880D02*
X286464285Y-101989880D01*
X285464285Y-101085119D02*
X285416666Y-101037500D01*
X285321428Y-100989880D01*
X285083333Y-100989880D01*
X284988095Y-101037500D01*
X284940476Y-101085119D01*
X284892857Y-101180357D01*
X284892857Y-101275595D01*
X284940476Y-101418452D01*
X285511904Y-101989880D01*
X284892857Y-101989880D01*
X283988095Y-100989880D02*
X284464285Y-100989880D01*
X284511904Y-101466071D01*
X284464285Y-101418452D01*
X284369047Y-101370833D01*
X284130952Y-101370833D01*
X284035714Y-101418452D01*
X283988095Y-101466071D01*
X283940476Y-101561309D01*
X283940476Y-101799404D01*
X283988095Y-101894642D01*
X284035714Y-101942261D01*
X284130952Y-101989880D01*
X284369047Y-101989880D01*
X284464285Y-101942261D01*
X284511904Y-101894642D01*
%TO.C,MX2*%
X106060714Y-82939880D02*
X106060714Y-81939880D01*
X105727380Y-82654166D01*
X105394047Y-81939880D01*
X105394047Y-82939880D01*
X105013095Y-81939880D02*
X104346428Y-82939880D01*
X104346428Y-81939880D02*
X105013095Y-82939880D01*
X104013095Y-82035119D02*
X103965476Y-81987500D01*
X103870238Y-81939880D01*
X103632142Y-81939880D01*
X103536904Y-81987500D01*
X103489285Y-82035119D01*
X103441666Y-82130357D01*
X103441666Y-82225595D01*
X103489285Y-82368452D01*
X104060714Y-82939880D01*
X103441666Y-82939880D01*
%TO.C,MX34*%
X197024404Y-121039880D02*
X197024404Y-120039880D01*
X196691071Y-120754166D01*
X196357738Y-120039880D01*
X196357738Y-121039880D01*
X195976785Y-120039880D02*
X195310119Y-121039880D01*
X195310119Y-120039880D02*
X195976785Y-121039880D01*
X195024404Y-120039880D02*
X194405357Y-120039880D01*
X194738690Y-120420833D01*
X194595833Y-120420833D01*
X194500595Y-120468452D01*
X194452976Y-120516071D01*
X194405357Y-120611309D01*
X194405357Y-120849404D01*
X194452976Y-120944642D01*
X194500595Y-120992261D01*
X194595833Y-121039880D01*
X194881547Y-121039880D01*
X194976785Y-120992261D01*
X195024404Y-120944642D01*
X193548214Y-120373214D02*
X193548214Y-121039880D01*
X193786309Y-119992261D02*
X194024404Y-120706547D01*
X193405357Y-120706547D01*
%TO.C,MX3*%
X125110714Y-82939880D02*
X125110714Y-81939880D01*
X124777380Y-82654166D01*
X124444047Y-81939880D01*
X124444047Y-82939880D01*
X124063095Y-81939880D02*
X123396428Y-82939880D01*
X123396428Y-81939880D02*
X124063095Y-82939880D01*
X123110714Y-81939880D02*
X122491666Y-81939880D01*
X122825000Y-82320833D01*
X122682142Y-82320833D01*
X122586904Y-82368452D01*
X122539285Y-82416071D01*
X122491666Y-82511309D01*
X122491666Y-82749404D01*
X122539285Y-82844642D01*
X122586904Y-82892261D01*
X122682142Y-82939880D01*
X122967857Y-82939880D01*
X123063095Y-82892261D01*
X123110714Y-82844642D01*
%TO.C,MX53*%
X327993154Y-140089880D02*
X327993154Y-139089880D01*
X327659821Y-139804166D01*
X327326488Y-139089880D01*
X327326488Y-140089880D01*
X326945535Y-139089880D02*
X326278869Y-140089880D01*
X326278869Y-139089880D02*
X326945535Y-140089880D01*
X325421726Y-139089880D02*
X325897916Y-139089880D01*
X325945535Y-139566071D01*
X325897916Y-139518452D01*
X325802678Y-139470833D01*
X325564583Y-139470833D01*
X325469345Y-139518452D01*
X325421726Y-139566071D01*
X325374107Y-139661309D01*
X325374107Y-139899404D01*
X325421726Y-139994642D01*
X325469345Y-140042261D01*
X325564583Y-140089880D01*
X325802678Y-140089880D01*
X325897916Y-140042261D01*
X325945535Y-139994642D01*
X325040773Y-139089880D02*
X324421726Y-139089880D01*
X324755059Y-139470833D01*
X324612202Y-139470833D01*
X324516964Y-139518452D01*
X324469345Y-139566071D01*
X324421726Y-139661309D01*
X324421726Y-139899404D01*
X324469345Y-139994642D01*
X324516964Y-140042261D01*
X324612202Y-140089880D01*
X324897916Y-140089880D01*
X324993154Y-140042261D01*
X325040773Y-139994642D01*
%TO.C,MX21*%
X214602904Y-108032380D02*
X214602904Y-107032380D01*
X214269571Y-107746666D01*
X213936238Y-107032380D01*
X213936238Y-108032380D01*
X213555285Y-107032380D02*
X212888619Y-108032380D01*
X212888619Y-107032380D02*
X213555285Y-108032380D01*
X212555285Y-107127619D02*
X212507666Y-107080000D01*
X212412428Y-107032380D01*
X212174333Y-107032380D01*
X212079095Y-107080000D01*
X212031476Y-107127619D01*
X211983857Y-107222857D01*
X211983857Y-107318095D01*
X212031476Y-107460952D01*
X212602904Y-108032380D01*
X211983857Y-108032380D01*
X211031476Y-108032380D02*
X211602904Y-108032380D01*
X211317190Y-108032380D02*
X211317190Y-107032380D01*
X211412428Y-107175238D01*
X211507666Y-107270476D01*
X211602904Y-107318095D01*
%TO.C,MX31*%
X139874404Y-121039880D02*
X139874404Y-120039880D01*
X139541071Y-120754166D01*
X139207738Y-120039880D01*
X139207738Y-121039880D01*
X138826785Y-120039880D02*
X138160119Y-121039880D01*
X138160119Y-120039880D02*
X138826785Y-121039880D01*
X137874404Y-120039880D02*
X137255357Y-120039880D01*
X137588690Y-120420833D01*
X137445833Y-120420833D01*
X137350595Y-120468452D01*
X137302976Y-120516071D01*
X137255357Y-120611309D01*
X137255357Y-120849404D01*
X137302976Y-120944642D01*
X137350595Y-120992261D01*
X137445833Y-121039880D01*
X137731547Y-121039880D01*
X137826785Y-120992261D01*
X137874404Y-120944642D01*
X136302976Y-121039880D02*
X136874404Y-121039880D01*
X136588690Y-121039880D02*
X136588690Y-120039880D01*
X136683928Y-120182738D01*
X136779166Y-120277976D01*
X136874404Y-120325595D01*
%TO.C,MX7*%
X201310714Y-82939880D02*
X201310714Y-81939880D01*
X200977380Y-82654166D01*
X200644047Y-81939880D01*
X200644047Y-82939880D01*
X200263095Y-81939880D02*
X199596428Y-82939880D01*
X199596428Y-81939880D02*
X200263095Y-82939880D01*
X199310714Y-81939880D02*
X198644047Y-81939880D01*
X199072619Y-82939880D01*
%TO.C,MX15*%
X92249404Y-101989880D02*
X92249404Y-100989880D01*
X91916071Y-101704166D01*
X91582738Y-100989880D01*
X91582738Y-101989880D01*
X91201785Y-100989880D02*
X90535119Y-101989880D01*
X90535119Y-100989880D02*
X91201785Y-101989880D01*
X89630357Y-101989880D02*
X90201785Y-101989880D01*
X89916071Y-101989880D02*
X89916071Y-100989880D01*
X90011309Y-101132738D01*
X90106547Y-101227976D01*
X90201785Y-101275595D01*
X88725595Y-100989880D02*
X89201785Y-100989880D01*
X89249404Y-101466071D01*
X89201785Y-101418452D01*
X89106547Y-101370833D01*
X88868452Y-101370833D01*
X88773214Y-101418452D01*
X88725595Y-101466071D01*
X88677976Y-101561309D01*
X88677976Y-101799404D01*
X88725595Y-101894642D01*
X88773214Y-101942261D01*
X88868452Y-101989880D01*
X89106547Y-101989880D01*
X89201785Y-101942261D01*
X89249404Y-101894642D01*
%TO.C,MX38*%
X273224404Y-121039880D02*
X273224404Y-120039880D01*
X272891071Y-120754166D01*
X272557738Y-120039880D01*
X272557738Y-121039880D01*
X272176785Y-120039880D02*
X271510119Y-121039880D01*
X271510119Y-120039880D02*
X272176785Y-121039880D01*
X271224404Y-120039880D02*
X270605357Y-120039880D01*
X270938690Y-120420833D01*
X270795833Y-120420833D01*
X270700595Y-120468452D01*
X270652976Y-120516071D01*
X270605357Y-120611309D01*
X270605357Y-120849404D01*
X270652976Y-120944642D01*
X270700595Y-120992261D01*
X270795833Y-121039880D01*
X271081547Y-121039880D01*
X271176785Y-120992261D01*
X271224404Y-120944642D01*
X270033928Y-120468452D02*
X270129166Y-120420833D01*
X270176785Y-120373214D01*
X270224404Y-120277976D01*
X270224404Y-120230357D01*
X270176785Y-120135119D01*
X270129166Y-120087500D01*
X270033928Y-120039880D01*
X269843452Y-120039880D01*
X269748214Y-120087500D01*
X269700595Y-120135119D01*
X269652976Y-120230357D01*
X269652976Y-120277976D01*
X269700595Y-120373214D01*
X269748214Y-120420833D01*
X269843452Y-120468452D01*
X270033928Y-120468452D01*
X270129166Y-120516071D01*
X270176785Y-120563690D01*
X270224404Y-120658928D01*
X270224404Y-120849404D01*
X270176785Y-120944642D01*
X270129166Y-120992261D01*
X270033928Y-121039880D01*
X269843452Y-121039880D01*
X269748214Y-120992261D01*
X269700595Y-120944642D01*
X269652976Y-120849404D01*
X269652976Y-120658928D01*
X269700595Y-120563690D01*
X269748214Y-120516071D01*
X269843452Y-120468452D01*
%TO.C,MX42*%
X99393154Y-140089880D02*
X99393154Y-139089880D01*
X99059821Y-139804166D01*
X98726488Y-139089880D01*
X98726488Y-140089880D01*
X98345535Y-139089880D02*
X97678869Y-140089880D01*
X97678869Y-139089880D02*
X98345535Y-140089880D01*
X96869345Y-139423214D02*
X96869345Y-140089880D01*
X97107440Y-139042261D02*
X97345535Y-139756547D01*
X96726488Y-139756547D01*
X96393154Y-139185119D02*
X96345535Y-139137500D01*
X96250297Y-139089880D01*
X96012202Y-139089880D01*
X95916964Y-139137500D01*
X95869345Y-139185119D01*
X95821726Y-139280357D01*
X95821726Y-139375595D01*
X95869345Y-139518452D01*
X96440773Y-140089880D01*
X95821726Y-140089880D01*
%TO.C,MX52*%
X301799404Y-140089880D02*
X301799404Y-139089880D01*
X301466071Y-139804166D01*
X301132738Y-139089880D01*
X301132738Y-140089880D01*
X300751785Y-139089880D02*
X300085119Y-140089880D01*
X300085119Y-139089880D02*
X300751785Y-140089880D01*
X299227976Y-139089880D02*
X299704166Y-139089880D01*
X299751785Y-139566071D01*
X299704166Y-139518452D01*
X299608928Y-139470833D01*
X299370833Y-139470833D01*
X299275595Y-139518452D01*
X299227976Y-139566071D01*
X299180357Y-139661309D01*
X299180357Y-139899404D01*
X299227976Y-139994642D01*
X299275595Y-140042261D01*
X299370833Y-140089880D01*
X299608928Y-140089880D01*
X299704166Y-140042261D01*
X299751785Y-139994642D01*
X298799404Y-139185119D02*
X298751785Y-139137500D01*
X298656547Y-139089880D01*
X298418452Y-139089880D01*
X298323214Y-139137500D01*
X298275595Y-139185119D01*
X298227976Y-139280357D01*
X298227976Y-139375595D01*
X298275595Y-139518452D01*
X298847023Y-140089880D01*
X298227976Y-140089880D01*
%TO.C,MX35*%
X219148904Y-127077380D02*
X219148904Y-126077380D01*
X218815571Y-126791666D01*
X218482238Y-126077380D01*
X218482238Y-127077380D01*
X218101285Y-126077380D02*
X217434619Y-127077380D01*
X217434619Y-126077380D02*
X218101285Y-127077380D01*
X217148904Y-126077380D02*
X216529857Y-126077380D01*
X216863190Y-126458333D01*
X216720333Y-126458333D01*
X216625095Y-126505952D01*
X216577476Y-126553571D01*
X216529857Y-126648809D01*
X216529857Y-126886904D01*
X216577476Y-126982142D01*
X216625095Y-127029761D01*
X216720333Y-127077380D01*
X217006047Y-127077380D01*
X217101285Y-127029761D01*
X217148904Y-126982142D01*
X215625095Y-126077380D02*
X216101285Y-126077380D01*
X216148904Y-126553571D01*
X216101285Y-126505952D01*
X216006047Y-126458333D01*
X215767952Y-126458333D01*
X215672714Y-126505952D01*
X215625095Y-126553571D01*
X215577476Y-126648809D01*
X215577476Y-126886904D01*
X215625095Y-126982142D01*
X215672714Y-127029761D01*
X215767952Y-127077380D01*
X216006047Y-127077380D01*
X216101285Y-127029761D01*
X216148904Y-126982142D01*
%TO.C,MX46*%
X187499404Y-140089880D02*
X187499404Y-139089880D01*
X187166071Y-139804166D01*
X186832738Y-139089880D01*
X186832738Y-140089880D01*
X186451785Y-139089880D02*
X185785119Y-140089880D01*
X185785119Y-139089880D02*
X186451785Y-140089880D01*
X184975595Y-139423214D02*
X184975595Y-140089880D01*
X185213690Y-139042261D02*
X185451785Y-139756547D01*
X184832738Y-139756547D01*
X184023214Y-139089880D02*
X184213690Y-139089880D01*
X184308928Y-139137500D01*
X184356547Y-139185119D01*
X184451785Y-139327976D01*
X184499404Y-139518452D01*
X184499404Y-139899404D01*
X184451785Y-139994642D01*
X184404166Y-140042261D01*
X184308928Y-140089880D01*
X184118452Y-140089880D01*
X184023214Y-140042261D01*
X183975595Y-139994642D01*
X183927976Y-139899404D01*
X183927976Y-139661309D01*
X183975595Y-139566071D01*
X184023214Y-139518452D01*
X184118452Y-139470833D01*
X184308928Y-139470833D01*
X184404166Y-139518452D01*
X184451785Y-139566071D01*
X184499404Y-139661309D01*
%TO.C,MX29*%
X94630654Y-121039880D02*
X94630654Y-120039880D01*
X94297321Y-120754166D01*
X93963988Y-120039880D01*
X93963988Y-121039880D01*
X93583035Y-120039880D02*
X92916369Y-121039880D01*
X92916369Y-120039880D02*
X93583035Y-121039880D01*
X92583035Y-120135119D02*
X92535416Y-120087500D01*
X92440178Y-120039880D01*
X92202083Y-120039880D01*
X92106845Y-120087500D01*
X92059226Y-120135119D01*
X92011607Y-120230357D01*
X92011607Y-120325595D01*
X92059226Y-120468452D01*
X92630654Y-121039880D01*
X92011607Y-121039880D01*
X91535416Y-121039880D02*
X91344940Y-121039880D01*
X91249702Y-120992261D01*
X91202083Y-120944642D01*
X91106845Y-120801785D01*
X91059226Y-120611309D01*
X91059226Y-120230357D01*
X91106845Y-120135119D01*
X91154464Y-120087500D01*
X91249702Y-120039880D01*
X91440178Y-120039880D01*
X91535416Y-120087500D01*
X91583035Y-120135119D01*
X91630654Y-120230357D01*
X91630654Y-120468452D01*
X91583035Y-120563690D01*
X91535416Y-120611309D01*
X91440178Y-120658928D01*
X91249702Y-120658928D01*
X91154464Y-120611309D01*
X91106845Y-120563690D01*
X91059226Y-120468452D01*
%TO.C,MX8*%
X220360714Y-82939880D02*
X220360714Y-81939880D01*
X220027380Y-82654166D01*
X219694047Y-81939880D01*
X219694047Y-82939880D01*
X219313095Y-81939880D02*
X218646428Y-82939880D01*
X218646428Y-81939880D02*
X219313095Y-82939880D01*
X218122619Y-82368452D02*
X218217857Y-82320833D01*
X218265476Y-82273214D01*
X218313095Y-82177976D01*
X218313095Y-82130357D01*
X218265476Y-82035119D01*
X218217857Y-81987500D01*
X218122619Y-81939880D01*
X217932142Y-81939880D01*
X217836904Y-81987500D01*
X217789285Y-82035119D01*
X217741666Y-82130357D01*
X217741666Y-82177976D01*
X217789285Y-82273214D01*
X217836904Y-82320833D01*
X217932142Y-82368452D01*
X218122619Y-82368452D01*
X218217857Y-82416071D01*
X218265476Y-82463690D01*
X218313095Y-82558928D01*
X218313095Y-82749404D01*
X218265476Y-82844642D01*
X218217857Y-82892261D01*
X218122619Y-82939880D01*
X217932142Y-82939880D01*
X217836904Y-82892261D01*
X217789285Y-82844642D01*
X217741666Y-82749404D01*
X217741666Y-82558928D01*
X217789285Y-82463690D01*
X217836904Y-82416071D01*
X217932142Y-82368452D01*
%TO.C,MX61*%
X349424404Y-159139880D02*
X349424404Y-158139880D01*
X349091071Y-158854166D01*
X348757738Y-158139880D01*
X348757738Y-159139880D01*
X348376785Y-158139880D02*
X347710119Y-159139880D01*
X347710119Y-158139880D02*
X348376785Y-159139880D01*
X346900595Y-158139880D02*
X347091071Y-158139880D01*
X347186309Y-158187500D01*
X347233928Y-158235119D01*
X347329166Y-158377976D01*
X347376785Y-158568452D01*
X347376785Y-158949404D01*
X347329166Y-159044642D01*
X347281547Y-159092261D01*
X347186309Y-159139880D01*
X346995833Y-159139880D01*
X346900595Y-159092261D01*
X346852976Y-159044642D01*
X346805357Y-158949404D01*
X346805357Y-158711309D01*
X346852976Y-158616071D01*
X346900595Y-158568452D01*
X346995833Y-158520833D01*
X347186309Y-158520833D01*
X347281547Y-158568452D01*
X347329166Y-158616071D01*
X347376785Y-158711309D01*
X345852976Y-159139880D02*
X346424404Y-159139880D01*
X346138690Y-159139880D02*
X346138690Y-158139880D01*
X346233928Y-158282738D01*
X346329166Y-158377976D01*
X346424404Y-158425595D01*
%TO.C,MX16*%
X116061904Y-101989880D02*
X116061904Y-100989880D01*
X115728571Y-101704166D01*
X115395238Y-100989880D01*
X115395238Y-101989880D01*
X115014285Y-100989880D02*
X114347619Y-101989880D01*
X114347619Y-100989880D02*
X115014285Y-101989880D01*
X113442857Y-101989880D02*
X114014285Y-101989880D01*
X113728571Y-101989880D02*
X113728571Y-100989880D01*
X113823809Y-101132738D01*
X113919047Y-101227976D01*
X114014285Y-101275595D01*
X112585714Y-100989880D02*
X112776190Y-100989880D01*
X112871428Y-101037500D01*
X112919047Y-101085119D01*
X113014285Y-101227976D01*
X113061904Y-101418452D01*
X113061904Y-101799404D01*
X113014285Y-101894642D01*
X112966666Y-101942261D01*
X112871428Y-101989880D01*
X112680952Y-101989880D01*
X112585714Y-101942261D01*
X112538095Y-101894642D01*
X112490476Y-101799404D01*
X112490476Y-101561309D01*
X112538095Y-101466071D01*
X112585714Y-101418452D01*
X112680952Y-101370833D01*
X112871428Y-101370833D01*
X112966666Y-101418452D01*
X113014285Y-101466071D01*
X113061904Y-101561309D01*
%TO.C,MX57*%
X139874404Y-159139880D02*
X139874404Y-158139880D01*
X139541071Y-158854166D01*
X139207738Y-158139880D01*
X139207738Y-159139880D01*
X138826785Y-158139880D02*
X138160119Y-159139880D01*
X138160119Y-158139880D02*
X138826785Y-159139880D01*
X137302976Y-158139880D02*
X137779166Y-158139880D01*
X137826785Y-158616071D01*
X137779166Y-158568452D01*
X137683928Y-158520833D01*
X137445833Y-158520833D01*
X137350595Y-158568452D01*
X137302976Y-158616071D01*
X137255357Y-158711309D01*
X137255357Y-158949404D01*
X137302976Y-159044642D01*
X137350595Y-159092261D01*
X137445833Y-159139880D01*
X137683928Y-159139880D01*
X137779166Y-159092261D01*
X137826785Y-159044642D01*
X136922023Y-158139880D02*
X136255357Y-158139880D01*
X136683928Y-159139880D01*
%TO.C,MX37*%
X254174404Y-121039880D02*
X254174404Y-120039880D01*
X253841071Y-120754166D01*
X253507738Y-120039880D01*
X253507738Y-121039880D01*
X253126785Y-120039880D02*
X252460119Y-121039880D01*
X252460119Y-120039880D02*
X253126785Y-121039880D01*
X252174404Y-120039880D02*
X251555357Y-120039880D01*
X251888690Y-120420833D01*
X251745833Y-120420833D01*
X251650595Y-120468452D01*
X251602976Y-120516071D01*
X251555357Y-120611309D01*
X251555357Y-120849404D01*
X251602976Y-120944642D01*
X251650595Y-120992261D01*
X251745833Y-121039880D01*
X252031547Y-121039880D01*
X252126785Y-120992261D01*
X252174404Y-120944642D01*
X251222023Y-120039880D02*
X250555357Y-120039880D01*
X250983928Y-121039880D01*
%TO.C,MX5*%
X163210714Y-82939880D02*
X163210714Y-81939880D01*
X162877380Y-82654166D01*
X162544047Y-81939880D01*
X162544047Y-82939880D01*
X162163095Y-81939880D02*
X161496428Y-82939880D01*
X161496428Y-81939880D02*
X162163095Y-82939880D01*
X160639285Y-81939880D02*
X161115476Y-81939880D01*
X161163095Y-82416071D01*
X161115476Y-82368452D01*
X161020238Y-82320833D01*
X160782142Y-82320833D01*
X160686904Y-82368452D01*
X160639285Y-82416071D01*
X160591666Y-82511309D01*
X160591666Y-82749404D01*
X160639285Y-82844642D01*
X160686904Y-82892261D01*
X160782142Y-82939880D01*
X161020238Y-82939880D01*
X161115476Y-82892261D01*
X161163095Y-82844642D01*
%TO.C,MX1*%
X87010714Y-82939880D02*
X87010714Y-81939880D01*
X86677380Y-82654166D01*
X86344047Y-81939880D01*
X86344047Y-82939880D01*
X85963095Y-81939880D02*
X85296428Y-82939880D01*
X85296428Y-81939880D02*
X85963095Y-82939880D01*
X84391666Y-82939880D02*
X84963095Y-82939880D01*
X84677380Y-82939880D02*
X84677380Y-81939880D01*
X84772619Y-82082738D01*
X84867857Y-82177976D01*
X84963095Y-82225595D01*
%TO.C,MX23*%
X249411904Y-101989880D02*
X249411904Y-100989880D01*
X249078571Y-101704166D01*
X248745238Y-100989880D01*
X248745238Y-101989880D01*
X248364285Y-100989880D02*
X247697619Y-101989880D01*
X247697619Y-100989880D02*
X248364285Y-101989880D01*
X247364285Y-101085119D02*
X247316666Y-101037500D01*
X247221428Y-100989880D01*
X246983333Y-100989880D01*
X246888095Y-101037500D01*
X246840476Y-101085119D01*
X246792857Y-101180357D01*
X246792857Y-101275595D01*
X246840476Y-101418452D01*
X247411904Y-101989880D01*
X246792857Y-101989880D01*
X246459523Y-100989880D02*
X245840476Y-100989880D01*
X246173809Y-101370833D01*
X246030952Y-101370833D01*
X245935714Y-101418452D01*
X245888095Y-101466071D01*
X245840476Y-101561309D01*
X245840476Y-101799404D01*
X245888095Y-101894642D01*
X245935714Y-101942261D01*
X246030952Y-101989880D01*
X246316666Y-101989880D01*
X246411904Y-101942261D01*
X246459523Y-101894642D01*
%TO.C,MX19*%
X173211904Y-101989880D02*
X173211904Y-100989880D01*
X172878571Y-101704166D01*
X172545238Y-100989880D01*
X172545238Y-101989880D01*
X172164285Y-100989880D02*
X171497619Y-101989880D01*
X171497619Y-100989880D02*
X172164285Y-101989880D01*
X170592857Y-101989880D02*
X171164285Y-101989880D01*
X170878571Y-101989880D02*
X170878571Y-100989880D01*
X170973809Y-101132738D01*
X171069047Y-101227976D01*
X171164285Y-101275595D01*
X170116666Y-101989880D02*
X169926190Y-101989880D01*
X169830952Y-101942261D01*
X169783333Y-101894642D01*
X169688095Y-101751785D01*
X169640476Y-101561309D01*
X169640476Y-101180357D01*
X169688095Y-101085119D01*
X169735714Y-101037500D01*
X169830952Y-100989880D01*
X170021428Y-100989880D01*
X170116666Y-101037500D01*
X170164285Y-101085119D01*
X170211904Y-101180357D01*
X170211904Y-101418452D01*
X170164285Y-101513690D01*
X170116666Y-101561309D01*
X170021428Y-101608928D01*
X169830952Y-101608928D01*
X169735714Y-101561309D01*
X169688095Y-101513690D01*
X169640476Y-101418452D01*
%TO.C,MX18*%
X154161904Y-101989880D02*
X154161904Y-100989880D01*
X153828571Y-101704166D01*
X153495238Y-100989880D01*
X153495238Y-101989880D01*
X153114285Y-100989880D02*
X152447619Y-101989880D01*
X152447619Y-100989880D02*
X153114285Y-101989880D01*
X151542857Y-101989880D02*
X152114285Y-101989880D01*
X151828571Y-101989880D02*
X151828571Y-100989880D01*
X151923809Y-101132738D01*
X152019047Y-101227976D01*
X152114285Y-101275595D01*
X150971428Y-101418452D02*
X151066666Y-101370833D01*
X151114285Y-101323214D01*
X151161904Y-101227976D01*
X151161904Y-101180357D01*
X151114285Y-101085119D01*
X151066666Y-101037500D01*
X150971428Y-100989880D01*
X150780952Y-100989880D01*
X150685714Y-101037500D01*
X150638095Y-101085119D01*
X150590476Y-101180357D01*
X150590476Y-101227976D01*
X150638095Y-101323214D01*
X150685714Y-101370833D01*
X150780952Y-101418452D01*
X150971428Y-101418452D01*
X151066666Y-101466071D01*
X151114285Y-101513690D01*
X151161904Y-101608928D01*
X151161904Y-101799404D01*
X151114285Y-101894642D01*
X151066666Y-101942261D01*
X150971428Y-101989880D01*
X150780952Y-101989880D01*
X150685714Y-101942261D01*
X150638095Y-101894642D01*
X150590476Y-101799404D01*
X150590476Y-101608928D01*
X150638095Y-101513690D01*
X150685714Y-101466071D01*
X150780952Y-101418452D01*
%TO.C,MX12*%
X297036904Y-82939880D02*
X297036904Y-81939880D01*
X296703571Y-82654166D01*
X296370238Y-81939880D01*
X296370238Y-82939880D01*
X295989285Y-81939880D02*
X295322619Y-82939880D01*
X295322619Y-81939880D02*
X295989285Y-82939880D01*
X294417857Y-82939880D02*
X294989285Y-82939880D01*
X294703571Y-82939880D02*
X294703571Y-81939880D01*
X294798809Y-82082738D01*
X294894047Y-82177976D01*
X294989285Y-82225595D01*
X294036904Y-82035119D02*
X293989285Y-81987500D01*
X293894047Y-81939880D01*
X293655952Y-81939880D01*
X293560714Y-81987500D01*
X293513095Y-82035119D01*
X293465476Y-82130357D01*
X293465476Y-82225595D01*
X293513095Y-82368452D01*
X294084523Y-82939880D01*
X293465476Y-82939880D01*
%TO.C,MX51*%
X282749404Y-140089880D02*
X282749404Y-139089880D01*
X282416071Y-139804166D01*
X282082738Y-139089880D01*
X282082738Y-140089880D01*
X281701785Y-139089880D02*
X281035119Y-140089880D01*
X281035119Y-139089880D02*
X281701785Y-140089880D01*
X280177976Y-139089880D02*
X280654166Y-139089880D01*
X280701785Y-139566071D01*
X280654166Y-139518452D01*
X280558928Y-139470833D01*
X280320833Y-139470833D01*
X280225595Y-139518452D01*
X280177976Y-139566071D01*
X280130357Y-139661309D01*
X280130357Y-139899404D01*
X280177976Y-139994642D01*
X280225595Y-140042261D01*
X280320833Y-140089880D01*
X280558928Y-140089880D01*
X280654166Y-140042261D01*
X280701785Y-139994642D01*
X279177976Y-140089880D02*
X279749404Y-140089880D01*
X279463690Y-140089880D02*
X279463690Y-139089880D01*
X279558928Y-139232738D01*
X279654166Y-139327976D01*
X279749404Y-139375595D01*
%TO.C,MX44*%
X149399404Y-140089880D02*
X149399404Y-139089880D01*
X149066071Y-139804166D01*
X148732738Y-139089880D01*
X148732738Y-140089880D01*
X148351785Y-139089880D02*
X147685119Y-140089880D01*
X147685119Y-139089880D02*
X148351785Y-140089880D01*
X146875595Y-139423214D02*
X146875595Y-140089880D01*
X147113690Y-139042261D02*
X147351785Y-139756547D01*
X146732738Y-139756547D01*
X145923214Y-139423214D02*
X145923214Y-140089880D01*
X146161309Y-139042261D02*
X146399404Y-139756547D01*
X145780357Y-139756547D01*
%TO.C,MX22*%
X233623904Y-107995380D02*
X233623904Y-106995380D01*
X233290571Y-107709666D01*
X232957238Y-106995380D01*
X232957238Y-107995380D01*
X232576285Y-106995380D02*
X231909619Y-107995380D01*
X231909619Y-106995380D02*
X232576285Y-107995380D01*
X231576285Y-107090619D02*
X231528666Y-107043000D01*
X231433428Y-106995380D01*
X231195333Y-106995380D01*
X231100095Y-107043000D01*
X231052476Y-107090619D01*
X231004857Y-107185857D01*
X231004857Y-107281095D01*
X231052476Y-107423952D01*
X231623904Y-107995380D01*
X231004857Y-107995380D01*
X230623904Y-107090619D02*
X230576285Y-107043000D01*
X230481047Y-106995380D01*
X230242952Y-106995380D01*
X230147714Y-107043000D01*
X230100095Y-107090619D01*
X230052476Y-107185857D01*
X230052476Y-107281095D01*
X230100095Y-107423952D01*
X230671523Y-107995380D01*
X230052476Y-107995380D01*
%TO.C,MX49*%
X244649404Y-140089880D02*
X244649404Y-139089880D01*
X244316071Y-139804166D01*
X243982738Y-139089880D01*
X243982738Y-140089880D01*
X243601785Y-139089880D02*
X242935119Y-140089880D01*
X242935119Y-139089880D02*
X243601785Y-140089880D01*
X242125595Y-139423214D02*
X242125595Y-140089880D01*
X242363690Y-139042261D02*
X242601785Y-139756547D01*
X241982738Y-139756547D01*
X241554166Y-140089880D02*
X241363690Y-140089880D01*
X241268452Y-140042261D01*
X241220833Y-139994642D01*
X241125595Y-139851785D01*
X241077976Y-139661309D01*
X241077976Y-139280357D01*
X241125595Y-139185119D01*
X241173214Y-139137500D01*
X241268452Y-139089880D01*
X241458928Y-139089880D01*
X241554166Y-139137500D01*
X241601785Y-139185119D01*
X241649404Y-139280357D01*
X241649404Y-139518452D01*
X241601785Y-139613690D01*
X241554166Y-139661309D01*
X241458928Y-139708928D01*
X241268452Y-139708928D01*
X241173214Y-139661309D01*
X241125595Y-139613690D01*
X241077976Y-139518452D01*
%TO.C,MX27*%
X325611904Y-101989880D02*
X325611904Y-100989880D01*
X325278571Y-101704166D01*
X324945238Y-100989880D01*
X324945238Y-101989880D01*
X324564285Y-100989880D02*
X323897619Y-101989880D01*
X323897619Y-100989880D02*
X324564285Y-101989880D01*
X323564285Y-101085119D02*
X323516666Y-101037500D01*
X323421428Y-100989880D01*
X323183333Y-100989880D01*
X323088095Y-101037500D01*
X323040476Y-101085119D01*
X322992857Y-101180357D01*
X322992857Y-101275595D01*
X323040476Y-101418452D01*
X323611904Y-101989880D01*
X322992857Y-101989880D01*
X322659523Y-100989880D02*
X321992857Y-100989880D01*
X322421428Y-101989880D01*
%TO.C,MX39*%
X292274404Y-121039880D02*
X292274404Y-120039880D01*
X291941071Y-120754166D01*
X291607738Y-120039880D01*
X291607738Y-121039880D01*
X291226785Y-120039880D02*
X290560119Y-121039880D01*
X290560119Y-120039880D02*
X291226785Y-121039880D01*
X290274404Y-120039880D02*
X289655357Y-120039880D01*
X289988690Y-120420833D01*
X289845833Y-120420833D01*
X289750595Y-120468452D01*
X289702976Y-120516071D01*
X289655357Y-120611309D01*
X289655357Y-120849404D01*
X289702976Y-120944642D01*
X289750595Y-120992261D01*
X289845833Y-121039880D01*
X290131547Y-121039880D01*
X290226785Y-120992261D01*
X290274404Y-120944642D01*
X289179166Y-121039880D02*
X288988690Y-121039880D01*
X288893452Y-120992261D01*
X288845833Y-120944642D01*
X288750595Y-120801785D01*
X288702976Y-120611309D01*
X288702976Y-120230357D01*
X288750595Y-120135119D01*
X288798214Y-120087500D01*
X288893452Y-120039880D01*
X289083928Y-120039880D01*
X289179166Y-120087500D01*
X289226785Y-120135119D01*
X289274404Y-120230357D01*
X289274404Y-120468452D01*
X289226785Y-120563690D01*
X289179166Y-120611309D01*
X289083928Y-120658928D01*
X288893452Y-120658928D01*
X288798214Y-120611309D01*
X288750595Y-120563690D01*
X288702976Y-120468452D01*
%TO.C,MX28*%
X349424404Y-101989880D02*
X349424404Y-100989880D01*
X349091071Y-101704166D01*
X348757738Y-100989880D01*
X348757738Y-101989880D01*
X348376785Y-100989880D02*
X347710119Y-101989880D01*
X347710119Y-100989880D02*
X348376785Y-101989880D01*
X347376785Y-101085119D02*
X347329166Y-101037500D01*
X347233928Y-100989880D01*
X346995833Y-100989880D01*
X346900595Y-101037500D01*
X346852976Y-101085119D01*
X346805357Y-101180357D01*
X346805357Y-101275595D01*
X346852976Y-101418452D01*
X347424404Y-101989880D01*
X346805357Y-101989880D01*
X346233928Y-101418452D02*
X346329166Y-101370833D01*
X346376785Y-101323214D01*
X346424404Y-101227976D01*
X346424404Y-101180357D01*
X346376785Y-101085119D01*
X346329166Y-101037500D01*
X346233928Y-100989880D01*
X346043452Y-100989880D01*
X345948214Y-101037500D01*
X345900595Y-101085119D01*
X345852976Y-101180357D01*
X345852976Y-101227976D01*
X345900595Y-101323214D01*
X345948214Y-101370833D01*
X346043452Y-101418452D01*
X346233928Y-101418452D01*
X346329166Y-101466071D01*
X346376785Y-101513690D01*
X346424404Y-101608928D01*
X346424404Y-101799404D01*
X346376785Y-101894642D01*
X346329166Y-101942261D01*
X346233928Y-101989880D01*
X346043452Y-101989880D01*
X345948214Y-101942261D01*
X345900595Y-101894642D01*
X345852976Y-101799404D01*
X345852976Y-101608928D01*
X345900595Y-101513690D01*
X345948214Y-101466071D01*
X346043452Y-101418452D01*
%TO.C,MX40*%
X311324404Y-121039880D02*
X311324404Y-120039880D01*
X310991071Y-120754166D01*
X310657738Y-120039880D01*
X310657738Y-121039880D01*
X310276785Y-120039880D02*
X309610119Y-121039880D01*
X309610119Y-120039880D02*
X310276785Y-121039880D01*
X308800595Y-120373214D02*
X308800595Y-121039880D01*
X309038690Y-119992261D02*
X309276785Y-120706547D01*
X308657738Y-120706547D01*
X308086309Y-120039880D02*
X307991071Y-120039880D01*
X307895833Y-120087500D01*
X307848214Y-120135119D01*
X307800595Y-120230357D01*
X307752976Y-120420833D01*
X307752976Y-120658928D01*
X307800595Y-120849404D01*
X307848214Y-120944642D01*
X307895833Y-120992261D01*
X307991071Y-121039880D01*
X308086309Y-121039880D01*
X308181547Y-120992261D01*
X308229166Y-120944642D01*
X308276785Y-120849404D01*
X308324404Y-120658928D01*
X308324404Y-120420833D01*
X308276785Y-120230357D01*
X308229166Y-120135119D01*
X308181547Y-120087500D01*
X308086309Y-120039880D01*
%TO.C,MX14*%
X344661904Y-82939880D02*
X344661904Y-81939880D01*
X344328571Y-82654166D01*
X343995238Y-81939880D01*
X343995238Y-82939880D01*
X343614285Y-81939880D02*
X342947619Y-82939880D01*
X342947619Y-81939880D02*
X343614285Y-82939880D01*
X342042857Y-82939880D02*
X342614285Y-82939880D01*
X342328571Y-82939880D02*
X342328571Y-81939880D01*
X342423809Y-82082738D01*
X342519047Y-82177976D01*
X342614285Y-82225595D01*
X341185714Y-82273214D02*
X341185714Y-82939880D01*
X341423809Y-81892261D02*
X341661904Y-82606547D01*
X341042857Y-82606547D01*
%TO.C,MX59*%
X301799404Y-159139880D02*
X301799404Y-158139880D01*
X301466071Y-158854166D01*
X301132738Y-158139880D01*
X301132738Y-159139880D01*
X300751785Y-158139880D02*
X300085119Y-159139880D01*
X300085119Y-158139880D02*
X300751785Y-159139880D01*
X299227976Y-158139880D02*
X299704166Y-158139880D01*
X299751785Y-158616071D01*
X299704166Y-158568452D01*
X299608928Y-158520833D01*
X299370833Y-158520833D01*
X299275595Y-158568452D01*
X299227976Y-158616071D01*
X299180357Y-158711309D01*
X299180357Y-158949404D01*
X299227976Y-159044642D01*
X299275595Y-159092261D01*
X299370833Y-159139880D01*
X299608928Y-159139880D01*
X299704166Y-159092261D01*
X299751785Y-159044642D01*
X298704166Y-159139880D02*
X298513690Y-159139880D01*
X298418452Y-159092261D01*
X298370833Y-159044642D01*
X298275595Y-158901785D01*
X298227976Y-158711309D01*
X298227976Y-158330357D01*
X298275595Y-158235119D01*
X298323214Y-158187500D01*
X298418452Y-158139880D01*
X298608928Y-158139880D01*
X298704166Y-158187500D01*
X298751785Y-158235119D01*
X298799404Y-158330357D01*
X298799404Y-158568452D01*
X298751785Y-158663690D01*
X298704166Y-158711309D01*
X298608928Y-158758928D01*
X298418452Y-158758928D01*
X298323214Y-158711309D01*
X298275595Y-158663690D01*
X298227976Y-158568452D01*
%TO.C,MX4*%
X144160714Y-82939880D02*
X144160714Y-81939880D01*
X143827380Y-82654166D01*
X143494047Y-81939880D01*
X143494047Y-82939880D01*
X143113095Y-81939880D02*
X142446428Y-82939880D01*
X142446428Y-81939880D02*
X143113095Y-82939880D01*
X141636904Y-82273214D02*
X141636904Y-82939880D01*
X141875000Y-81892261D02*
X142113095Y-82606547D01*
X141494047Y-82606547D01*
%TO.C,MX6*%
X182260714Y-82939880D02*
X182260714Y-81939880D01*
X181927380Y-82654166D01*
X181594047Y-81939880D01*
X181594047Y-82939880D01*
X181213095Y-81939880D02*
X180546428Y-82939880D01*
X180546428Y-81939880D02*
X181213095Y-82939880D01*
X179736904Y-81939880D02*
X179927380Y-81939880D01*
X180022619Y-81987500D01*
X180070238Y-82035119D01*
X180165476Y-82177976D01*
X180213095Y-82368452D01*
X180213095Y-82749404D01*
X180165476Y-82844642D01*
X180117857Y-82892261D01*
X180022619Y-82939880D01*
X179832142Y-82939880D01*
X179736904Y-82892261D01*
X179689285Y-82844642D01*
X179641666Y-82749404D01*
X179641666Y-82511309D01*
X179689285Y-82416071D01*
X179736904Y-82368452D01*
X179832142Y-82320833D01*
X180022619Y-82320833D01*
X180117857Y-82368452D01*
X180165476Y-82416071D01*
X180213095Y-82511309D01*
%TO.C,MX32*%
X158924404Y-121039880D02*
X158924404Y-120039880D01*
X158591071Y-120754166D01*
X158257738Y-120039880D01*
X158257738Y-121039880D01*
X157876785Y-120039880D02*
X157210119Y-121039880D01*
X157210119Y-120039880D02*
X157876785Y-121039880D01*
X156924404Y-120039880D02*
X156305357Y-120039880D01*
X156638690Y-120420833D01*
X156495833Y-120420833D01*
X156400595Y-120468452D01*
X156352976Y-120516071D01*
X156305357Y-120611309D01*
X156305357Y-120849404D01*
X156352976Y-120944642D01*
X156400595Y-120992261D01*
X156495833Y-121039880D01*
X156781547Y-121039880D01*
X156876785Y-120992261D01*
X156924404Y-120944642D01*
X155924404Y-120135119D02*
X155876785Y-120087500D01*
X155781547Y-120039880D01*
X155543452Y-120039880D01*
X155448214Y-120087500D01*
X155400595Y-120135119D01*
X155352976Y-120230357D01*
X155352976Y-120325595D01*
X155400595Y-120468452D01*
X155972023Y-121039880D01*
X155352976Y-121039880D01*
%TO.C,MX17*%
X135111904Y-101989880D02*
X135111904Y-100989880D01*
X134778571Y-101704166D01*
X134445238Y-100989880D01*
X134445238Y-101989880D01*
X134064285Y-100989880D02*
X133397619Y-101989880D01*
X133397619Y-100989880D02*
X134064285Y-101989880D01*
X132492857Y-101989880D02*
X133064285Y-101989880D01*
X132778571Y-101989880D02*
X132778571Y-100989880D01*
X132873809Y-101132738D01*
X132969047Y-101227976D01*
X133064285Y-101275595D01*
X132159523Y-100989880D02*
X131492857Y-100989880D01*
X131921428Y-101989880D01*
%TO.C,MX45*%
X168449404Y-140089880D02*
X168449404Y-139089880D01*
X168116071Y-139804166D01*
X167782738Y-139089880D01*
X167782738Y-140089880D01*
X167401785Y-139089880D02*
X166735119Y-140089880D01*
X166735119Y-139089880D02*
X167401785Y-140089880D01*
X165925595Y-139423214D02*
X165925595Y-140089880D01*
X166163690Y-139042261D02*
X166401785Y-139756547D01*
X165782738Y-139756547D01*
X164925595Y-139089880D02*
X165401785Y-139089880D01*
X165449404Y-139566071D01*
X165401785Y-139518452D01*
X165306547Y-139470833D01*
X165068452Y-139470833D01*
X164973214Y-139518452D01*
X164925595Y-139566071D01*
X164877976Y-139661309D01*
X164877976Y-139899404D01*
X164925595Y-139994642D01*
X164973214Y-140042261D01*
X165068452Y-140089880D01*
X165306547Y-140089880D01*
X165401785Y-140042261D01*
X165449404Y-139994642D01*
%TO.C,MX36*%
X235124404Y-121039880D02*
X235124404Y-120039880D01*
X234791071Y-120754166D01*
X234457738Y-120039880D01*
X234457738Y-121039880D01*
X234076785Y-120039880D02*
X233410119Y-121039880D01*
X233410119Y-120039880D02*
X234076785Y-121039880D01*
X233124404Y-120039880D02*
X232505357Y-120039880D01*
X232838690Y-120420833D01*
X232695833Y-120420833D01*
X232600595Y-120468452D01*
X232552976Y-120516071D01*
X232505357Y-120611309D01*
X232505357Y-120849404D01*
X232552976Y-120944642D01*
X232600595Y-120992261D01*
X232695833Y-121039880D01*
X232981547Y-121039880D01*
X233076785Y-120992261D01*
X233124404Y-120944642D01*
X231648214Y-120039880D02*
X231838690Y-120039880D01*
X231933928Y-120087500D01*
X231981547Y-120135119D01*
X232076785Y-120277976D01*
X232124404Y-120468452D01*
X232124404Y-120849404D01*
X232076785Y-120944642D01*
X232029166Y-120992261D01*
X231933928Y-121039880D01*
X231743452Y-121039880D01*
X231648214Y-120992261D01*
X231600595Y-120944642D01*
X231552976Y-120849404D01*
X231552976Y-120611309D01*
X231600595Y-120516071D01*
X231648214Y-120468452D01*
X231743452Y-120420833D01*
X231933928Y-120420833D01*
X232029166Y-120468452D01*
X232076785Y-120516071D01*
X232124404Y-120611309D01*
%TO.C,PB0*%
X238257095Y-109944380D02*
X238257095Y-108944380D01*
X237876142Y-108944380D01*
X237780904Y-108992000D01*
X237733285Y-109039619D01*
X237685666Y-109134857D01*
X237685666Y-109277714D01*
X237733285Y-109372952D01*
X237780904Y-109420571D01*
X237876142Y-109468190D01*
X238257095Y-109468190D01*
X236923761Y-109420571D02*
X236780904Y-109468190D01*
X236733285Y-109515809D01*
X236685666Y-109611047D01*
X236685666Y-109753904D01*
X236733285Y-109849142D01*
X236780904Y-109896761D01*
X236876142Y-109944380D01*
X237257095Y-109944380D01*
X237257095Y-108944380D01*
X236923761Y-108944380D01*
X236828523Y-108992000D01*
X236780904Y-109039619D01*
X236733285Y-109134857D01*
X236733285Y-109230095D01*
X236780904Y-109325333D01*
X236828523Y-109372952D01*
X236923761Y-109420571D01*
X237257095Y-109420571D01*
X236066619Y-108944380D02*
X235971380Y-108944380D01*
X235876142Y-108992000D01*
X235828523Y-109039619D01*
X235780904Y-109134857D01*
X235733285Y-109325333D01*
X235733285Y-109563428D01*
X235780904Y-109753904D01*
X235828523Y-109849142D01*
X235876142Y-109896761D01*
X235971380Y-109944380D01*
X236066619Y-109944380D01*
X236161857Y-109896761D01*
X236209476Y-109849142D01*
X236257095Y-109753904D01*
X236304714Y-109563428D01*
X236304714Y-109325333D01*
X236257095Y-109134857D01*
X236209476Y-109039619D01*
X236161857Y-108992000D01*
X236066619Y-108944380D01*
%TO.C,C12*%
X85647857Y-111897142D02*
X85695476Y-111944761D01*
X85838333Y-111992380D01*
X85933571Y-111992380D01*
X86076428Y-111944761D01*
X86171666Y-111849523D01*
X86219285Y-111754285D01*
X86266904Y-111563809D01*
X86266904Y-111420952D01*
X86219285Y-111230476D01*
X86171666Y-111135238D01*
X86076428Y-111040000D01*
X85933571Y-110992380D01*
X85838333Y-110992380D01*
X85695476Y-111040000D01*
X85647857Y-111087619D01*
X84695476Y-111992380D02*
X85266904Y-111992380D01*
X84981190Y-111992380D02*
X84981190Y-110992380D01*
X85076428Y-111135238D01*
X85171666Y-111230476D01*
X85266904Y-111278095D01*
X84314523Y-111087619D02*
X84266904Y-111040000D01*
X84171666Y-110992380D01*
X83933571Y-110992380D01*
X83838333Y-111040000D01*
X83790714Y-111087619D01*
X83743095Y-111182857D01*
X83743095Y-111278095D01*
X83790714Y-111420952D01*
X84362142Y-111992380D01*
X83743095Y-111992380D01*
%TO.C,SW1*%
X247906333Y-94081761D02*
X247763476Y-94129380D01*
X247525380Y-94129380D01*
X247430142Y-94081761D01*
X247382523Y-94034142D01*
X247334904Y-93938904D01*
X247334904Y-93843666D01*
X247382523Y-93748428D01*
X247430142Y-93700809D01*
X247525380Y-93653190D01*
X247715857Y-93605571D01*
X247811095Y-93557952D01*
X247858714Y-93510333D01*
X247906333Y-93415095D01*
X247906333Y-93319857D01*
X247858714Y-93224619D01*
X247811095Y-93177000D01*
X247715857Y-93129380D01*
X247477761Y-93129380D01*
X247334904Y-93177000D01*
X247001571Y-93129380D02*
X246763476Y-94129380D01*
X246573000Y-93415095D01*
X246382523Y-94129380D01*
X246144428Y-93129380D01*
X245239666Y-94129380D02*
X245811095Y-94129380D01*
X245525380Y-94129380D02*
X245525380Y-93129380D01*
X245620619Y-93272238D01*
X245715857Y-93367476D01*
X245811095Y-93415095D01*
%TO.C,D81*%
X224899285Y-127218380D02*
X224899285Y-126218380D01*
X224661190Y-126218380D01*
X224518333Y-126266000D01*
X224423095Y-126361238D01*
X224375476Y-126456476D01*
X224327857Y-126646952D01*
X224327857Y-126789809D01*
X224375476Y-126980285D01*
X224423095Y-127075523D01*
X224518333Y-127170761D01*
X224661190Y-127218380D01*
X224899285Y-127218380D01*
X223756428Y-126646952D02*
X223851666Y-126599333D01*
X223899285Y-126551714D01*
X223946904Y-126456476D01*
X223946904Y-126408857D01*
X223899285Y-126313619D01*
X223851666Y-126266000D01*
X223756428Y-126218380D01*
X223565952Y-126218380D01*
X223470714Y-126266000D01*
X223423095Y-126313619D01*
X223375476Y-126408857D01*
X223375476Y-126456476D01*
X223423095Y-126551714D01*
X223470714Y-126599333D01*
X223565952Y-126646952D01*
X223756428Y-126646952D01*
X223851666Y-126694571D01*
X223899285Y-126742190D01*
X223946904Y-126837428D01*
X223946904Y-127027904D01*
X223899285Y-127123142D01*
X223851666Y-127170761D01*
X223756428Y-127218380D01*
X223565952Y-127218380D01*
X223470714Y-127170761D01*
X223423095Y-127123142D01*
X223375476Y-127027904D01*
X223375476Y-126837428D01*
X223423095Y-126742190D01*
X223470714Y-126694571D01*
X223565952Y-126646952D01*
X222423095Y-127218380D02*
X222994523Y-127218380D01*
X222708809Y-127218380D02*
X222708809Y-126218380D01*
X222804047Y-126361238D01*
X222899285Y-126456476D01*
X222994523Y-126504095D01*
%TO.C,C5*%
X216736666Y-120034142D02*
X216784285Y-120081761D01*
X216927142Y-120129380D01*
X217022380Y-120129380D01*
X217165238Y-120081761D01*
X217260476Y-119986523D01*
X217308095Y-119891285D01*
X217355714Y-119700809D01*
X217355714Y-119557952D01*
X217308095Y-119367476D01*
X217260476Y-119272238D01*
X217165238Y-119177000D01*
X217022380Y-119129380D01*
X216927142Y-119129380D01*
X216784285Y-119177000D01*
X216736666Y-119224619D01*
X215831904Y-119129380D02*
X216308095Y-119129380D01*
X216355714Y-119605571D01*
X216308095Y-119557952D01*
X216212857Y-119510333D01*
X215974761Y-119510333D01*
X215879523Y-119557952D01*
X215831904Y-119605571D01*
X215784285Y-119700809D01*
X215784285Y-119938904D01*
X215831904Y-120034142D01*
X215879523Y-120081761D01*
X215974761Y-120129380D01*
X216212857Y-120129380D01*
X216308095Y-120081761D01*
X216355714Y-120034142D01*
%TO.C,D83*%
X301685285Y-120203380D02*
X301685285Y-119203380D01*
X301447190Y-119203380D01*
X301304333Y-119251000D01*
X301209095Y-119346238D01*
X301161476Y-119441476D01*
X301113857Y-119631952D01*
X301113857Y-119774809D01*
X301161476Y-119965285D01*
X301209095Y-120060523D01*
X301304333Y-120155761D01*
X301447190Y-120203380D01*
X301685285Y-120203380D01*
X300542428Y-119631952D02*
X300637666Y-119584333D01*
X300685285Y-119536714D01*
X300732904Y-119441476D01*
X300732904Y-119393857D01*
X300685285Y-119298619D01*
X300637666Y-119251000D01*
X300542428Y-119203380D01*
X300351952Y-119203380D01*
X300256714Y-119251000D01*
X300209095Y-119298619D01*
X300161476Y-119393857D01*
X300161476Y-119441476D01*
X300209095Y-119536714D01*
X300256714Y-119584333D01*
X300351952Y-119631952D01*
X300542428Y-119631952D01*
X300637666Y-119679571D01*
X300685285Y-119727190D01*
X300732904Y-119822428D01*
X300732904Y-120012904D01*
X300685285Y-120108142D01*
X300637666Y-120155761D01*
X300542428Y-120203380D01*
X300351952Y-120203380D01*
X300256714Y-120155761D01*
X300209095Y-120108142D01*
X300161476Y-120012904D01*
X300161476Y-119822428D01*
X300209095Y-119727190D01*
X300256714Y-119679571D01*
X300351952Y-119631952D01*
X299828142Y-119203380D02*
X299209095Y-119203380D01*
X299542428Y-119584333D01*
X299399571Y-119584333D01*
X299304333Y-119631952D01*
X299256714Y-119679571D01*
X299209095Y-119774809D01*
X299209095Y-120012904D01*
X299256714Y-120108142D01*
X299304333Y-120155761D01*
X299399571Y-120203380D01*
X299685285Y-120203380D01*
X299780523Y-120155761D01*
X299828142Y-120108142D01*
%TO.C,D72*%
X144546285Y-101262380D02*
X144546285Y-100262380D01*
X144308190Y-100262380D01*
X144165333Y-100310000D01*
X144070095Y-100405238D01*
X144022476Y-100500476D01*
X143974857Y-100690952D01*
X143974857Y-100833809D01*
X144022476Y-101024285D01*
X144070095Y-101119523D01*
X144165333Y-101214761D01*
X144308190Y-101262380D01*
X144546285Y-101262380D01*
X143641523Y-100262380D02*
X142974857Y-100262380D01*
X143403428Y-101262380D01*
X142641523Y-100357619D02*
X142593904Y-100310000D01*
X142498666Y-100262380D01*
X142260571Y-100262380D01*
X142165333Y-100310000D01*
X142117714Y-100357619D01*
X142070095Y-100452857D01*
X142070095Y-100548095D01*
X142117714Y-100690952D01*
X142689142Y-101262380D01*
X142070095Y-101262380D01*
%TO.C,D65*%
X135089285Y-82257380D02*
X135089285Y-81257380D01*
X134851190Y-81257380D01*
X134708333Y-81305000D01*
X134613095Y-81400238D01*
X134565476Y-81495476D01*
X134517857Y-81685952D01*
X134517857Y-81828809D01*
X134565476Y-82019285D01*
X134613095Y-82114523D01*
X134708333Y-82209761D01*
X134851190Y-82257380D01*
X135089285Y-82257380D01*
X133660714Y-81257380D02*
X133851190Y-81257380D01*
X133946428Y-81305000D01*
X133994047Y-81352619D01*
X134089285Y-81495476D01*
X134136904Y-81685952D01*
X134136904Y-82066904D01*
X134089285Y-82162142D01*
X134041666Y-82209761D01*
X133946428Y-82257380D01*
X133755952Y-82257380D01*
X133660714Y-82209761D01*
X133613095Y-82162142D01*
X133565476Y-82066904D01*
X133565476Y-81828809D01*
X133613095Y-81733571D01*
X133660714Y-81685952D01*
X133755952Y-81638333D01*
X133946428Y-81638333D01*
X134041666Y-81685952D01*
X134089285Y-81733571D01*
X134136904Y-81828809D01*
X132660714Y-81257380D02*
X133136904Y-81257380D01*
X133184523Y-81733571D01*
X133136904Y-81685952D01*
X133041666Y-81638333D01*
X132803571Y-81638333D01*
X132708333Y-81685952D01*
X132660714Y-81733571D01*
X132613095Y-81828809D01*
X132613095Y-82066904D01*
X132660714Y-82162142D01*
X132708333Y-82209761D01*
X132803571Y-82257380D01*
X133041666Y-82257380D01*
X133136904Y-82209761D01*
X133184523Y-82162142D01*
%TO.C,D64*%
X96960285Y-82243380D02*
X96960285Y-81243380D01*
X96722190Y-81243380D01*
X96579333Y-81291000D01*
X96484095Y-81386238D01*
X96436476Y-81481476D01*
X96388857Y-81671952D01*
X96388857Y-81814809D01*
X96436476Y-82005285D01*
X96484095Y-82100523D01*
X96579333Y-82195761D01*
X96722190Y-82243380D01*
X96960285Y-82243380D01*
X95531714Y-81243380D02*
X95722190Y-81243380D01*
X95817428Y-81291000D01*
X95865047Y-81338619D01*
X95960285Y-81481476D01*
X96007904Y-81671952D01*
X96007904Y-82052904D01*
X95960285Y-82148142D01*
X95912666Y-82195761D01*
X95817428Y-82243380D01*
X95626952Y-82243380D01*
X95531714Y-82195761D01*
X95484095Y-82148142D01*
X95436476Y-82052904D01*
X95436476Y-81814809D01*
X95484095Y-81719571D01*
X95531714Y-81671952D01*
X95626952Y-81624333D01*
X95817428Y-81624333D01*
X95912666Y-81671952D01*
X95960285Y-81719571D01*
X96007904Y-81814809D01*
X94579333Y-81576714D02*
X94579333Y-82243380D01*
X94817428Y-81195761D02*
X95055523Y-81910047D01*
X94436476Y-81910047D01*
%TO.C,C6*%
X226463389Y-117536687D02*
X226530732Y-117536687D01*
X226665419Y-117469343D01*
X226732763Y-117402000D01*
X226800106Y-117267312D01*
X226800106Y-117132625D01*
X226766435Y-117031610D01*
X226665419Y-116863251D01*
X226564404Y-116762236D01*
X226396045Y-116661221D01*
X226295030Y-116627549D01*
X226160343Y-116627549D01*
X226025656Y-116694893D01*
X225958312Y-116762236D01*
X225890969Y-116896923D01*
X225890969Y-116964267D01*
X225217534Y-117503015D02*
X225352221Y-117368328D01*
X225453236Y-117334656D01*
X225520580Y-117334656D01*
X225688938Y-117368328D01*
X225857297Y-117469343D01*
X226126671Y-117738717D01*
X226160343Y-117839732D01*
X226160343Y-117907076D01*
X226126671Y-118008091D01*
X225991984Y-118142778D01*
X225890969Y-118176450D01*
X225823625Y-118176450D01*
X225722610Y-118142778D01*
X225554251Y-117974419D01*
X225520580Y-117873404D01*
X225520580Y-117806061D01*
X225554251Y-117705045D01*
X225688938Y-117570358D01*
X225789954Y-117536687D01*
X225857297Y-117536687D01*
X225958312Y-117570358D01*
%TO.C,C10*%
X83119857Y-173138142D02*
X83167476Y-173185761D01*
X83310333Y-173233380D01*
X83405571Y-173233380D01*
X83548428Y-173185761D01*
X83643666Y-173090523D01*
X83691285Y-172995285D01*
X83738904Y-172804809D01*
X83738904Y-172661952D01*
X83691285Y-172471476D01*
X83643666Y-172376238D01*
X83548428Y-172281000D01*
X83405571Y-172233380D01*
X83310333Y-172233380D01*
X83167476Y-172281000D01*
X83119857Y-172328619D01*
X82167476Y-173233380D02*
X82738904Y-173233380D01*
X82453190Y-173233380D02*
X82453190Y-172233380D01*
X82548428Y-172376238D01*
X82643666Y-172471476D01*
X82738904Y-172519095D01*
X81548428Y-172233380D02*
X81453190Y-172233380D01*
X81357952Y-172281000D01*
X81310333Y-172328619D01*
X81262714Y-172423857D01*
X81215095Y-172614333D01*
X81215095Y-172852428D01*
X81262714Y-173042904D01*
X81310333Y-173138142D01*
X81357952Y-173185761D01*
X81453190Y-173233380D01*
X81548428Y-173233380D01*
X81643666Y-173185761D01*
X81691285Y-173138142D01*
X81738904Y-173042904D01*
X81786523Y-172852428D01*
X81786523Y-172614333D01*
X81738904Y-172423857D01*
X81691285Y-172328619D01*
X81643666Y-172281000D01*
X81548428Y-172233380D01*
%TO.C,D77*%
X339834285Y-101221380D02*
X339834285Y-100221380D01*
X339596190Y-100221380D01*
X339453333Y-100269000D01*
X339358095Y-100364238D01*
X339310476Y-100459476D01*
X339262857Y-100649952D01*
X339262857Y-100792809D01*
X339310476Y-100983285D01*
X339358095Y-101078523D01*
X339453333Y-101173761D01*
X339596190Y-101221380D01*
X339834285Y-101221380D01*
X338929523Y-100221380D02*
X338262857Y-100221380D01*
X338691428Y-101221380D01*
X337977142Y-100221380D02*
X337310476Y-100221380D01*
X337739047Y-101221380D01*
%TO.C,D91*%
X344554285Y-139231380D02*
X344554285Y-138231380D01*
X344316190Y-138231380D01*
X344173333Y-138279000D01*
X344078095Y-138374238D01*
X344030476Y-138469476D01*
X343982857Y-138659952D01*
X343982857Y-138802809D01*
X344030476Y-138993285D01*
X344078095Y-139088523D01*
X344173333Y-139183761D01*
X344316190Y-139231380D01*
X344554285Y-139231380D01*
X343506666Y-139231380D02*
X343316190Y-139231380D01*
X343220952Y-139183761D01*
X343173333Y-139136142D01*
X343078095Y-138993285D01*
X343030476Y-138802809D01*
X343030476Y-138421857D01*
X343078095Y-138326619D01*
X343125714Y-138279000D01*
X343220952Y-138231380D01*
X343411428Y-138231380D01*
X343506666Y-138279000D01*
X343554285Y-138326619D01*
X343601904Y-138421857D01*
X343601904Y-138659952D01*
X343554285Y-138755190D01*
X343506666Y-138802809D01*
X343411428Y-138850428D01*
X343220952Y-138850428D01*
X343125714Y-138802809D01*
X343078095Y-138755190D01*
X343030476Y-138659952D01*
X342078095Y-139231380D02*
X342649523Y-139231380D01*
X342363809Y-139231380D02*
X342363809Y-138231380D01*
X342459047Y-138374238D01*
X342554285Y-138469476D01*
X342649523Y-138517095D01*
%TO.C,D67*%
X211254285Y-82238380D02*
X211254285Y-81238380D01*
X211016190Y-81238380D01*
X210873333Y-81286000D01*
X210778095Y-81381238D01*
X210730476Y-81476476D01*
X210682857Y-81666952D01*
X210682857Y-81809809D01*
X210730476Y-82000285D01*
X210778095Y-82095523D01*
X210873333Y-82190761D01*
X211016190Y-82238380D01*
X211254285Y-82238380D01*
X209825714Y-81238380D02*
X210016190Y-81238380D01*
X210111428Y-81286000D01*
X210159047Y-81333619D01*
X210254285Y-81476476D01*
X210301904Y-81666952D01*
X210301904Y-82047904D01*
X210254285Y-82143142D01*
X210206666Y-82190761D01*
X210111428Y-82238380D01*
X209920952Y-82238380D01*
X209825714Y-82190761D01*
X209778095Y-82143142D01*
X209730476Y-82047904D01*
X209730476Y-81809809D01*
X209778095Y-81714571D01*
X209825714Y-81666952D01*
X209920952Y-81619333D01*
X210111428Y-81619333D01*
X210206666Y-81666952D01*
X210254285Y-81714571D01*
X210301904Y-81809809D01*
X209397142Y-81238380D02*
X208730476Y-81238380D01*
X209159047Y-82238380D01*
%TO.C,D87*%
X177888285Y-139233380D02*
X177888285Y-138233380D01*
X177650190Y-138233380D01*
X177507333Y-138281000D01*
X177412095Y-138376238D01*
X177364476Y-138471476D01*
X177316857Y-138661952D01*
X177316857Y-138804809D01*
X177364476Y-138995285D01*
X177412095Y-139090523D01*
X177507333Y-139185761D01*
X177650190Y-139233380D01*
X177888285Y-139233380D01*
X176745428Y-138661952D02*
X176840666Y-138614333D01*
X176888285Y-138566714D01*
X176935904Y-138471476D01*
X176935904Y-138423857D01*
X176888285Y-138328619D01*
X176840666Y-138281000D01*
X176745428Y-138233380D01*
X176554952Y-138233380D01*
X176459714Y-138281000D01*
X176412095Y-138328619D01*
X176364476Y-138423857D01*
X176364476Y-138471476D01*
X176412095Y-138566714D01*
X176459714Y-138614333D01*
X176554952Y-138661952D01*
X176745428Y-138661952D01*
X176840666Y-138709571D01*
X176888285Y-138757190D01*
X176935904Y-138852428D01*
X176935904Y-139042904D01*
X176888285Y-139138142D01*
X176840666Y-139185761D01*
X176745428Y-139233380D01*
X176554952Y-139233380D01*
X176459714Y-139185761D01*
X176412095Y-139138142D01*
X176364476Y-139042904D01*
X176364476Y-138852428D01*
X176412095Y-138757190D01*
X176459714Y-138709571D01*
X176554952Y-138661952D01*
X176031142Y-138233380D02*
X175364476Y-138233380D01*
X175793047Y-139233380D01*
%TO.C,PF7*%
X214234666Y-119513380D02*
X214234666Y-118513380D01*
X213853714Y-118513380D01*
X213758476Y-118561000D01*
X213710857Y-118608619D01*
X213663238Y-118703857D01*
X213663238Y-118846714D01*
X213710857Y-118941952D01*
X213758476Y-118989571D01*
X213853714Y-119037190D01*
X214234666Y-119037190D01*
X212901333Y-118989571D02*
X213234666Y-118989571D01*
X213234666Y-119513380D02*
X213234666Y-118513380D01*
X212758476Y-118513380D01*
X212472761Y-118513380D02*
X211806095Y-118513380D01*
X212234666Y-119513380D01*
%TO.C,D93*%
X153623285Y-158226380D02*
X153623285Y-157226380D01*
X153385190Y-157226380D01*
X153242333Y-157274000D01*
X153147095Y-157369238D01*
X153099476Y-157464476D01*
X153051857Y-157654952D01*
X153051857Y-157797809D01*
X153099476Y-157988285D01*
X153147095Y-158083523D01*
X153242333Y-158178761D01*
X153385190Y-158226380D01*
X153623285Y-158226380D01*
X152575666Y-158226380D02*
X152385190Y-158226380D01*
X152289952Y-158178761D01*
X152242333Y-158131142D01*
X152147095Y-157988285D01*
X152099476Y-157797809D01*
X152099476Y-157416857D01*
X152147095Y-157321619D01*
X152194714Y-157274000D01*
X152289952Y-157226380D01*
X152480428Y-157226380D01*
X152575666Y-157274000D01*
X152623285Y-157321619D01*
X152670904Y-157416857D01*
X152670904Y-157654952D01*
X152623285Y-157750190D01*
X152575666Y-157797809D01*
X152480428Y-157845428D01*
X152289952Y-157845428D01*
X152194714Y-157797809D01*
X152147095Y-157750190D01*
X152099476Y-157654952D01*
X151766142Y-157226380D02*
X151147095Y-157226380D01*
X151480428Y-157607333D01*
X151337571Y-157607333D01*
X151242333Y-157654952D01*
X151194714Y-157702571D01*
X151147095Y-157797809D01*
X151147095Y-158035904D01*
X151194714Y-158131142D01*
X151242333Y-158178761D01*
X151337571Y-158226380D01*
X151623285Y-158226380D01*
X151718523Y-158178761D01*
X151766142Y-158131142D01*
%TO.C,D94*%
X211181285Y-158248380D02*
X211181285Y-157248380D01*
X210943190Y-157248380D01*
X210800333Y-157296000D01*
X210705095Y-157391238D01*
X210657476Y-157486476D01*
X210609857Y-157676952D01*
X210609857Y-157819809D01*
X210657476Y-158010285D01*
X210705095Y-158105523D01*
X210800333Y-158200761D01*
X210943190Y-158248380D01*
X211181285Y-158248380D01*
X210133666Y-158248380D02*
X209943190Y-158248380D01*
X209847952Y-158200761D01*
X209800333Y-158153142D01*
X209705095Y-158010285D01*
X209657476Y-157819809D01*
X209657476Y-157438857D01*
X209705095Y-157343619D01*
X209752714Y-157296000D01*
X209847952Y-157248380D01*
X210038428Y-157248380D01*
X210133666Y-157296000D01*
X210181285Y-157343619D01*
X210228904Y-157438857D01*
X210228904Y-157676952D01*
X210181285Y-157772190D01*
X210133666Y-157819809D01*
X210038428Y-157867428D01*
X209847952Y-157867428D01*
X209752714Y-157819809D01*
X209705095Y-157772190D01*
X209657476Y-157676952D01*
X208800333Y-157581714D02*
X208800333Y-158248380D01*
X209038428Y-157200761D02*
X209276523Y-157915047D01*
X208657476Y-157915047D01*
%TO.C,D73*%
X182654285Y-101232380D02*
X182654285Y-100232380D01*
X182416190Y-100232380D01*
X182273333Y-100280000D01*
X182178095Y-100375238D01*
X182130476Y-100470476D01*
X182082857Y-100660952D01*
X182082857Y-100803809D01*
X182130476Y-100994285D01*
X182178095Y-101089523D01*
X182273333Y-101184761D01*
X182416190Y-101232380D01*
X182654285Y-101232380D01*
X181749523Y-100232380D02*
X181082857Y-100232380D01*
X181511428Y-101232380D01*
X180797142Y-100232380D02*
X180178095Y-100232380D01*
X180511428Y-100613333D01*
X180368571Y-100613333D01*
X180273333Y-100660952D01*
X180225714Y-100708571D01*
X180178095Y-100803809D01*
X180178095Y-101041904D01*
X180225714Y-101137142D01*
X180273333Y-101184761D01*
X180368571Y-101232380D01*
X180654285Y-101232380D01*
X180749523Y-101184761D01*
X180797142Y-101137142D01*
%TO.C,D70*%
X325709285Y-82249380D02*
X325709285Y-81249380D01*
X325471190Y-81249380D01*
X325328333Y-81297000D01*
X325233095Y-81392238D01*
X325185476Y-81487476D01*
X325137857Y-81677952D01*
X325137857Y-81820809D01*
X325185476Y-82011285D01*
X325233095Y-82106523D01*
X325328333Y-82201761D01*
X325471190Y-82249380D01*
X325709285Y-82249380D01*
X324804523Y-81249380D02*
X324137857Y-81249380D01*
X324566428Y-82249380D01*
X323566428Y-81249380D02*
X323471190Y-81249380D01*
X323375952Y-81297000D01*
X323328333Y-81344619D01*
X323280714Y-81439857D01*
X323233095Y-81630333D01*
X323233095Y-81868428D01*
X323280714Y-82058904D01*
X323328333Y-82154142D01*
X323375952Y-82201761D01*
X323471190Y-82249380D01*
X323566428Y-82249380D01*
X323661666Y-82201761D01*
X323709285Y-82154142D01*
X323756904Y-82058904D01*
X323804523Y-81868428D01*
X323804523Y-81630333D01*
X323756904Y-81439857D01*
X323709285Y-81344619D01*
X323661666Y-81297000D01*
X323566428Y-81249380D01*
%TO.C,D66*%
X171854285Y-90590380D02*
X171854285Y-89590380D01*
X171616190Y-89590380D01*
X171473333Y-89638000D01*
X171378095Y-89733238D01*
X171330476Y-89828476D01*
X171282857Y-90018952D01*
X171282857Y-90161809D01*
X171330476Y-90352285D01*
X171378095Y-90447523D01*
X171473333Y-90542761D01*
X171616190Y-90590380D01*
X171854285Y-90590380D01*
X170425714Y-89590380D02*
X170616190Y-89590380D01*
X170711428Y-89638000D01*
X170759047Y-89685619D01*
X170854285Y-89828476D01*
X170901904Y-90018952D01*
X170901904Y-90399904D01*
X170854285Y-90495142D01*
X170806666Y-90542761D01*
X170711428Y-90590380D01*
X170520952Y-90590380D01*
X170425714Y-90542761D01*
X170378095Y-90495142D01*
X170330476Y-90399904D01*
X170330476Y-90161809D01*
X170378095Y-90066571D01*
X170425714Y-90018952D01*
X170520952Y-89971333D01*
X170711428Y-89971333D01*
X170806666Y-90018952D01*
X170854285Y-90066571D01*
X170901904Y-90161809D01*
X169473333Y-89590380D02*
X169663809Y-89590380D01*
X169759047Y-89638000D01*
X169806666Y-89685619D01*
X169901904Y-89828476D01*
X169949523Y-90018952D01*
X169949523Y-90399904D01*
X169901904Y-90495142D01*
X169854285Y-90542761D01*
X169759047Y-90590380D01*
X169568571Y-90590380D01*
X169473333Y-90542761D01*
X169425714Y-90495142D01*
X169378095Y-90399904D01*
X169378095Y-90161809D01*
X169425714Y-90066571D01*
X169473333Y-90018952D01*
X169568571Y-89971333D01*
X169759047Y-89971333D01*
X169854285Y-90018952D01*
X169901904Y-90066571D01*
X169949523Y-90161809D01*
%TO.C,C2*%
X217291666Y-106612142D02*
X217339285Y-106659761D01*
X217482142Y-106707380D01*
X217577380Y-106707380D01*
X217720238Y-106659761D01*
X217815476Y-106564523D01*
X217863095Y-106469285D01*
X217910714Y-106278809D01*
X217910714Y-106135952D01*
X217863095Y-105945476D01*
X217815476Y-105850238D01*
X217720238Y-105755000D01*
X217577380Y-105707380D01*
X217482142Y-105707380D01*
X217339285Y-105755000D01*
X217291666Y-105802619D01*
X216910714Y-105802619D02*
X216863095Y-105755000D01*
X216767857Y-105707380D01*
X216529761Y-105707380D01*
X216434523Y-105755000D01*
X216386904Y-105802619D01*
X216339285Y-105897857D01*
X216339285Y-105993095D01*
X216386904Y-106135952D01*
X216958333Y-106707380D01*
X216339285Y-106707380D01*
%TO.C,D68*%
X249379285Y-82264380D02*
X249379285Y-81264380D01*
X249141190Y-81264380D01*
X248998333Y-81312000D01*
X248903095Y-81407238D01*
X248855476Y-81502476D01*
X248807857Y-81692952D01*
X248807857Y-81835809D01*
X248855476Y-82026285D01*
X248903095Y-82121523D01*
X248998333Y-82216761D01*
X249141190Y-82264380D01*
X249379285Y-82264380D01*
X247950714Y-81264380D02*
X248141190Y-81264380D01*
X248236428Y-81312000D01*
X248284047Y-81359619D01*
X248379285Y-81502476D01*
X248426904Y-81692952D01*
X248426904Y-82073904D01*
X248379285Y-82169142D01*
X248331666Y-82216761D01*
X248236428Y-82264380D01*
X248045952Y-82264380D01*
X247950714Y-82216761D01*
X247903095Y-82169142D01*
X247855476Y-82073904D01*
X247855476Y-81835809D01*
X247903095Y-81740571D01*
X247950714Y-81692952D01*
X248045952Y-81645333D01*
X248236428Y-81645333D01*
X248331666Y-81692952D01*
X248379285Y-81740571D01*
X248426904Y-81835809D01*
X247284047Y-81692952D02*
X247379285Y-81645333D01*
X247426904Y-81597714D01*
X247474523Y-81502476D01*
X247474523Y-81454857D01*
X247426904Y-81359619D01*
X247379285Y-81312000D01*
X247284047Y-81264380D01*
X247093571Y-81264380D01*
X246998333Y-81312000D01*
X246950714Y-81359619D01*
X246903095Y-81454857D01*
X246903095Y-81502476D01*
X246950714Y-81597714D01*
X246998333Y-81645333D01*
X247093571Y-81692952D01*
X247284047Y-81692952D01*
X247379285Y-81740571D01*
X247426904Y-81788190D01*
X247474523Y-81883428D01*
X247474523Y-82073904D01*
X247426904Y-82169142D01*
X247379285Y-82216761D01*
X247284047Y-82264380D01*
X247093571Y-82264380D01*
X246998333Y-82216761D01*
X246950714Y-82169142D01*
X246903095Y-82073904D01*
X246903095Y-81883428D01*
X246950714Y-81788190D01*
X246998333Y-81740571D01*
X247093571Y-81692952D01*
%TO.C,R4*%
X204409666Y-115244380D02*
X204743000Y-114768190D01*
X204981095Y-115244380D02*
X204981095Y-114244380D01*
X204600142Y-114244380D01*
X204504904Y-114292000D01*
X204457285Y-114339619D01*
X204409666Y-114434857D01*
X204409666Y-114577714D01*
X204457285Y-114672952D01*
X204504904Y-114720571D01*
X204600142Y-114768190D01*
X204981095Y-114768190D01*
X203552523Y-114577714D02*
X203552523Y-115244380D01*
X203790619Y-114196761D02*
X204028714Y-114911047D01*
X203409666Y-114911047D01*
%TO.C,D76*%
X296946285Y-101242380D02*
X296946285Y-100242380D01*
X296708190Y-100242380D01*
X296565333Y-100290000D01*
X296470095Y-100385238D01*
X296422476Y-100480476D01*
X296374857Y-100670952D01*
X296374857Y-100813809D01*
X296422476Y-101004285D01*
X296470095Y-101099523D01*
X296565333Y-101194761D01*
X296708190Y-101242380D01*
X296946285Y-101242380D01*
X296041523Y-100242380D02*
X295374857Y-100242380D01*
X295803428Y-101242380D01*
X294565333Y-100242380D02*
X294755809Y-100242380D01*
X294851047Y-100290000D01*
X294898666Y-100337619D01*
X294993904Y-100480476D01*
X295041523Y-100670952D01*
X295041523Y-101051904D01*
X294993904Y-101147142D01*
X294946285Y-101194761D01*
X294851047Y-101242380D01*
X294660571Y-101242380D01*
X294565333Y-101194761D01*
X294517714Y-101147142D01*
X294470095Y-101051904D01*
X294470095Y-100813809D01*
X294517714Y-100718571D01*
X294565333Y-100670952D01*
X294660571Y-100623333D01*
X294851047Y-100623333D01*
X294946285Y-100670952D01*
X294993904Y-100718571D01*
X295041523Y-100813809D01*
%TO.C,D80*%
X187420285Y-120236380D02*
X187420285Y-119236380D01*
X187182190Y-119236380D01*
X187039333Y-119284000D01*
X186944095Y-119379238D01*
X186896476Y-119474476D01*
X186848857Y-119664952D01*
X186848857Y-119807809D01*
X186896476Y-119998285D01*
X186944095Y-120093523D01*
X187039333Y-120188761D01*
X187182190Y-120236380D01*
X187420285Y-120236380D01*
X186277428Y-119664952D02*
X186372666Y-119617333D01*
X186420285Y-119569714D01*
X186467904Y-119474476D01*
X186467904Y-119426857D01*
X186420285Y-119331619D01*
X186372666Y-119284000D01*
X186277428Y-119236380D01*
X186086952Y-119236380D01*
X185991714Y-119284000D01*
X185944095Y-119331619D01*
X185896476Y-119426857D01*
X185896476Y-119474476D01*
X185944095Y-119569714D01*
X185991714Y-119617333D01*
X186086952Y-119664952D01*
X186277428Y-119664952D01*
X186372666Y-119712571D01*
X186420285Y-119760190D01*
X186467904Y-119855428D01*
X186467904Y-120045904D01*
X186420285Y-120141142D01*
X186372666Y-120188761D01*
X186277428Y-120236380D01*
X186086952Y-120236380D01*
X185991714Y-120188761D01*
X185944095Y-120141142D01*
X185896476Y-120045904D01*
X185896476Y-119855428D01*
X185944095Y-119760190D01*
X185991714Y-119712571D01*
X186086952Y-119664952D01*
X185277428Y-119236380D02*
X185182190Y-119236380D01*
X185086952Y-119284000D01*
X185039333Y-119331619D01*
X184991714Y-119426857D01*
X184944095Y-119617333D01*
X184944095Y-119855428D01*
X184991714Y-120045904D01*
X185039333Y-120141142D01*
X185086952Y-120188761D01*
X185182190Y-120236380D01*
X185277428Y-120236380D01*
X185372666Y-120188761D01*
X185420285Y-120141142D01*
X185467904Y-120045904D01*
X185515523Y-119855428D01*
X185515523Y-119617333D01*
X185467904Y-119426857D01*
X185420285Y-119331619D01*
X185372666Y-119284000D01*
X185277428Y-119236380D01*
%TO.C,D86*%
X139719285Y-139234380D02*
X139719285Y-138234380D01*
X139481190Y-138234380D01*
X139338333Y-138282000D01*
X139243095Y-138377238D01*
X139195476Y-138472476D01*
X139147857Y-138662952D01*
X139147857Y-138805809D01*
X139195476Y-138996285D01*
X139243095Y-139091523D01*
X139338333Y-139186761D01*
X139481190Y-139234380D01*
X139719285Y-139234380D01*
X138576428Y-138662952D02*
X138671666Y-138615333D01*
X138719285Y-138567714D01*
X138766904Y-138472476D01*
X138766904Y-138424857D01*
X138719285Y-138329619D01*
X138671666Y-138282000D01*
X138576428Y-138234380D01*
X138385952Y-138234380D01*
X138290714Y-138282000D01*
X138243095Y-138329619D01*
X138195476Y-138424857D01*
X138195476Y-138472476D01*
X138243095Y-138567714D01*
X138290714Y-138615333D01*
X138385952Y-138662952D01*
X138576428Y-138662952D01*
X138671666Y-138710571D01*
X138719285Y-138758190D01*
X138766904Y-138853428D01*
X138766904Y-139043904D01*
X138719285Y-139139142D01*
X138671666Y-139186761D01*
X138576428Y-139234380D01*
X138385952Y-139234380D01*
X138290714Y-139186761D01*
X138243095Y-139139142D01*
X138195476Y-139043904D01*
X138195476Y-138853428D01*
X138243095Y-138758190D01*
X138290714Y-138710571D01*
X138385952Y-138662952D01*
X137338333Y-138234380D02*
X137528809Y-138234380D01*
X137624047Y-138282000D01*
X137671666Y-138329619D01*
X137766904Y-138472476D01*
X137814523Y-138662952D01*
X137814523Y-139043904D01*
X137766904Y-139139142D01*
X137719285Y-139186761D01*
X137624047Y-139234380D01*
X137433571Y-139234380D01*
X137338333Y-139186761D01*
X137290714Y-139139142D01*
X137243095Y-139043904D01*
X137243095Y-138805809D01*
X137290714Y-138710571D01*
X137338333Y-138662952D01*
X137433571Y-138615333D01*
X137624047Y-138615333D01*
X137719285Y-138662952D01*
X137766904Y-138710571D01*
X137814523Y-138805809D01*
%TO.C,U1*%
X215903522Y-110882026D02*
X216475942Y-111454446D01*
X216509614Y-111555461D01*
X216509614Y-111622805D01*
X216475942Y-111723820D01*
X216341255Y-111858507D01*
X216240240Y-111892179D01*
X216172896Y-111892179D01*
X216071881Y-111858507D01*
X215499461Y-111286087D01*
X215499461Y-112700301D02*
X215903522Y-112296240D01*
X215701492Y-112498270D02*
X214994385Y-111791164D01*
X215162744Y-111824835D01*
X215297431Y-111824835D01*
X215398446Y-111791164D01*
%TO.C,D69*%
X287459285Y-82269380D02*
X287459285Y-81269380D01*
X287221190Y-81269380D01*
X287078333Y-81317000D01*
X286983095Y-81412238D01*
X286935476Y-81507476D01*
X286887857Y-81697952D01*
X286887857Y-81840809D01*
X286935476Y-82031285D01*
X286983095Y-82126523D01*
X287078333Y-82221761D01*
X287221190Y-82269380D01*
X287459285Y-82269380D01*
X286030714Y-81269380D02*
X286221190Y-81269380D01*
X286316428Y-81317000D01*
X286364047Y-81364619D01*
X286459285Y-81507476D01*
X286506904Y-81697952D01*
X286506904Y-82078904D01*
X286459285Y-82174142D01*
X286411666Y-82221761D01*
X286316428Y-82269380D01*
X286125952Y-82269380D01*
X286030714Y-82221761D01*
X285983095Y-82174142D01*
X285935476Y-82078904D01*
X285935476Y-81840809D01*
X285983095Y-81745571D01*
X286030714Y-81697952D01*
X286125952Y-81650333D01*
X286316428Y-81650333D01*
X286411666Y-81697952D01*
X286459285Y-81745571D01*
X286506904Y-81840809D01*
X285459285Y-82269380D02*
X285268809Y-82269380D01*
X285173571Y-82221761D01*
X285125952Y-82174142D01*
X285030714Y-82031285D01*
X284983095Y-81840809D01*
X284983095Y-81459857D01*
X285030714Y-81364619D01*
X285078333Y-81317000D01*
X285173571Y-81269380D01*
X285364047Y-81269380D01*
X285459285Y-81317000D01*
X285506904Y-81364619D01*
X285554523Y-81459857D01*
X285554523Y-81697952D01*
X285506904Y-81793190D01*
X285459285Y-81840809D01*
X285364047Y-81888428D01*
X285173571Y-81888428D01*
X285078333Y-81840809D01*
X285030714Y-81793190D01*
X284983095Y-81697952D01*
%TO.C,C1*%
X213436666Y-100373142D02*
X213484285Y-100420761D01*
X213627142Y-100468380D01*
X213722380Y-100468380D01*
X213865238Y-100420761D01*
X213960476Y-100325523D01*
X214008095Y-100230285D01*
X214055714Y-100039809D01*
X214055714Y-99896952D01*
X214008095Y-99706476D01*
X213960476Y-99611238D01*
X213865238Y-99516000D01*
X213722380Y-99468380D01*
X213627142Y-99468380D01*
X213484285Y-99516000D01*
X213436666Y-99563619D01*
X212484285Y-100468380D02*
X213055714Y-100468380D01*
X212770000Y-100468380D02*
X212770000Y-99468380D01*
X212865238Y-99611238D01*
X212960476Y-99706476D01*
X213055714Y-99754095D01*
%TO.C,D74*%
X220834285Y-101270380D02*
X220834285Y-100270380D01*
X220596190Y-100270380D01*
X220453333Y-100318000D01*
X220358095Y-100413238D01*
X220310476Y-100508476D01*
X220262857Y-100698952D01*
X220262857Y-100841809D01*
X220310476Y-101032285D01*
X220358095Y-101127523D01*
X220453333Y-101222761D01*
X220596190Y-101270380D01*
X220834285Y-101270380D01*
X219929523Y-100270380D02*
X219262857Y-100270380D01*
X219691428Y-101270380D01*
X218453333Y-100603714D02*
X218453333Y-101270380D01*
X218691428Y-100222761D02*
X218929523Y-100937047D01*
X218310476Y-100937047D01*
%TO.C,D85*%
X120711285Y-139215380D02*
X120711285Y-138215380D01*
X120473190Y-138215380D01*
X120330333Y-138263000D01*
X120235095Y-138358238D01*
X120187476Y-138453476D01*
X120139857Y-138643952D01*
X120139857Y-138786809D01*
X120187476Y-138977285D01*
X120235095Y-139072523D01*
X120330333Y-139167761D01*
X120473190Y-139215380D01*
X120711285Y-139215380D01*
X119568428Y-138643952D02*
X119663666Y-138596333D01*
X119711285Y-138548714D01*
X119758904Y-138453476D01*
X119758904Y-138405857D01*
X119711285Y-138310619D01*
X119663666Y-138263000D01*
X119568428Y-138215380D01*
X119377952Y-138215380D01*
X119282714Y-138263000D01*
X119235095Y-138310619D01*
X119187476Y-138405857D01*
X119187476Y-138453476D01*
X119235095Y-138548714D01*
X119282714Y-138596333D01*
X119377952Y-138643952D01*
X119568428Y-138643952D01*
X119663666Y-138691571D01*
X119711285Y-138739190D01*
X119758904Y-138834428D01*
X119758904Y-139024904D01*
X119711285Y-139120142D01*
X119663666Y-139167761D01*
X119568428Y-139215380D01*
X119377952Y-139215380D01*
X119282714Y-139167761D01*
X119235095Y-139120142D01*
X119187476Y-139024904D01*
X119187476Y-138834428D01*
X119235095Y-138739190D01*
X119282714Y-138691571D01*
X119377952Y-138643952D01*
X118282714Y-138215380D02*
X118758904Y-138215380D01*
X118806523Y-138691571D01*
X118758904Y-138643952D01*
X118663666Y-138596333D01*
X118425571Y-138596333D01*
X118330333Y-138643952D01*
X118282714Y-138691571D01*
X118235095Y-138786809D01*
X118235095Y-139024904D01*
X118282714Y-139120142D01*
X118330333Y-139167761D01*
X118425571Y-139215380D01*
X118663666Y-139215380D01*
X118758904Y-139167761D01*
X118806523Y-139120142D01*
%TO.C,D79*%
X149303285Y-120248380D02*
X149303285Y-119248380D01*
X149065190Y-119248380D01*
X148922333Y-119296000D01*
X148827095Y-119391238D01*
X148779476Y-119486476D01*
X148731857Y-119676952D01*
X148731857Y-119819809D01*
X148779476Y-120010285D01*
X148827095Y-120105523D01*
X148922333Y-120200761D01*
X149065190Y-120248380D01*
X149303285Y-120248380D01*
X148398523Y-119248380D02*
X147731857Y-119248380D01*
X148160428Y-120248380D01*
X147303285Y-120248380D02*
X147112809Y-120248380D01*
X147017571Y-120200761D01*
X146969952Y-120153142D01*
X146874714Y-120010285D01*
X146827095Y-119819809D01*
X146827095Y-119438857D01*
X146874714Y-119343619D01*
X146922333Y-119296000D01*
X147017571Y-119248380D01*
X147208047Y-119248380D01*
X147303285Y-119296000D01*
X147350904Y-119343619D01*
X147398523Y-119438857D01*
X147398523Y-119676952D01*
X147350904Y-119772190D01*
X147303285Y-119819809D01*
X147208047Y-119867428D01*
X147017571Y-119867428D01*
X146922333Y-119819809D01*
X146874714Y-119772190D01*
X146827095Y-119676952D01*
%TO.C,C8*%
X223420666Y-112636142D02*
X223468285Y-112683761D01*
X223611142Y-112731380D01*
X223706380Y-112731380D01*
X223849238Y-112683761D01*
X223944476Y-112588523D01*
X223992095Y-112493285D01*
X224039714Y-112302809D01*
X224039714Y-112159952D01*
X223992095Y-111969476D01*
X223944476Y-111874238D01*
X223849238Y-111779000D01*
X223706380Y-111731380D01*
X223611142Y-111731380D01*
X223468285Y-111779000D01*
X223420666Y-111826619D01*
X222849238Y-112159952D02*
X222944476Y-112112333D01*
X222992095Y-112064714D01*
X223039714Y-111969476D01*
X223039714Y-111921857D01*
X222992095Y-111826619D01*
X222944476Y-111779000D01*
X222849238Y-111731380D01*
X222658761Y-111731380D01*
X222563523Y-111779000D01*
X222515904Y-111826619D01*
X222468285Y-111921857D01*
X222468285Y-111969476D01*
X222515904Y-112064714D01*
X222563523Y-112112333D01*
X222658761Y-112159952D01*
X222849238Y-112159952D01*
X222944476Y-112207571D01*
X222992095Y-112255190D01*
X223039714Y-112350428D01*
X223039714Y-112540904D01*
X222992095Y-112636142D01*
X222944476Y-112683761D01*
X222849238Y-112731380D01*
X222658761Y-112731380D01*
X222563523Y-112683761D01*
X222515904Y-112636142D01*
X222468285Y-112540904D01*
X222468285Y-112350428D01*
X222515904Y-112255190D01*
X222563523Y-112207571D01*
X222658761Y-112159952D01*
%TO.C,C13*%
X86346857Y-134227142D02*
X86394476Y-134274761D01*
X86537333Y-134322380D01*
X86632571Y-134322380D01*
X86775428Y-134274761D01*
X86870666Y-134179523D01*
X86918285Y-134084285D01*
X86965904Y-133893809D01*
X86965904Y-133750952D01*
X86918285Y-133560476D01*
X86870666Y-133465238D01*
X86775428Y-133370000D01*
X86632571Y-133322380D01*
X86537333Y-133322380D01*
X86394476Y-133370000D01*
X86346857Y-133417619D01*
X85394476Y-134322380D02*
X85965904Y-134322380D01*
X85680190Y-134322380D02*
X85680190Y-133322380D01*
X85775428Y-133465238D01*
X85870666Y-133560476D01*
X85965904Y-133608095D01*
X85061142Y-133322380D02*
X84442095Y-133322380D01*
X84775428Y-133703333D01*
X84632571Y-133703333D01*
X84537333Y-133750952D01*
X84489714Y-133798571D01*
X84442095Y-133893809D01*
X84442095Y-134131904D01*
X84489714Y-134227142D01*
X84537333Y-134274761D01*
X84632571Y-134322380D01*
X84918285Y-134322380D01*
X85013523Y-134274761D01*
X85061142Y-134227142D01*
%TO.C,C3*%
X217291666Y-107765142D02*
X217339285Y-107812761D01*
X217482142Y-107860380D01*
X217577380Y-107860380D01*
X217720238Y-107812761D01*
X217815476Y-107717523D01*
X217863095Y-107622285D01*
X217910714Y-107431809D01*
X217910714Y-107288952D01*
X217863095Y-107098476D01*
X217815476Y-107003238D01*
X217720238Y-106908000D01*
X217577380Y-106860380D01*
X217482142Y-106860380D01*
X217339285Y-106908000D01*
X217291666Y-106955619D01*
X216958333Y-106860380D02*
X216339285Y-106860380D01*
X216672619Y-107241333D01*
X216529761Y-107241333D01*
X216434523Y-107288952D01*
X216386904Y-107336571D01*
X216339285Y-107431809D01*
X216339285Y-107669904D01*
X216386904Y-107765142D01*
X216434523Y-107812761D01*
X216529761Y-107860380D01*
X216815476Y-107860380D01*
X216910714Y-107812761D01*
X216958333Y-107765142D01*
%TO.C,D89*%
X254223285Y-139178380D02*
X254223285Y-138178380D01*
X253985190Y-138178380D01*
X253842333Y-138226000D01*
X253747095Y-138321238D01*
X253699476Y-138416476D01*
X253651857Y-138606952D01*
X253651857Y-138749809D01*
X253699476Y-138940285D01*
X253747095Y-139035523D01*
X253842333Y-139130761D01*
X253985190Y-139178380D01*
X254223285Y-139178380D01*
X253080428Y-138606952D02*
X253175666Y-138559333D01*
X253223285Y-138511714D01*
X253270904Y-138416476D01*
X253270904Y-138368857D01*
X253223285Y-138273619D01*
X253175666Y-138226000D01*
X253080428Y-138178380D01*
X252889952Y-138178380D01*
X252794714Y-138226000D01*
X252747095Y-138273619D01*
X252699476Y-138368857D01*
X252699476Y-138416476D01*
X252747095Y-138511714D01*
X252794714Y-138559333D01*
X252889952Y-138606952D01*
X253080428Y-138606952D01*
X253175666Y-138654571D01*
X253223285Y-138702190D01*
X253270904Y-138797428D01*
X253270904Y-138987904D01*
X253223285Y-139083142D01*
X253175666Y-139130761D01*
X253080428Y-139178380D01*
X252889952Y-139178380D01*
X252794714Y-139130761D01*
X252747095Y-139083142D01*
X252699476Y-138987904D01*
X252699476Y-138797428D01*
X252747095Y-138702190D01*
X252794714Y-138654571D01*
X252889952Y-138606952D01*
X252223285Y-139178380D02*
X252032809Y-139178380D01*
X251937571Y-139130761D01*
X251889952Y-139083142D01*
X251794714Y-138940285D01*
X251747095Y-138749809D01*
X251747095Y-138368857D01*
X251794714Y-138273619D01*
X251842333Y-138226000D01*
X251937571Y-138178380D01*
X252128047Y-138178380D01*
X252223285Y-138226000D01*
X252270904Y-138273619D01*
X252318523Y-138368857D01*
X252318523Y-138606952D01*
X252270904Y-138702190D01*
X252223285Y-138749809D01*
X252128047Y-138797428D01*
X251937571Y-138797428D01*
X251842333Y-138749809D01*
X251794714Y-138702190D01*
X251747095Y-138606952D01*
%TO.C,D88*%
X215999285Y-139235380D02*
X215999285Y-138235380D01*
X215761190Y-138235380D01*
X215618333Y-138283000D01*
X215523095Y-138378238D01*
X215475476Y-138473476D01*
X215427857Y-138663952D01*
X215427857Y-138806809D01*
X215475476Y-138997285D01*
X215523095Y-139092523D01*
X215618333Y-139187761D01*
X215761190Y-139235380D01*
X215999285Y-139235380D01*
X214856428Y-138663952D02*
X214951666Y-138616333D01*
X214999285Y-138568714D01*
X215046904Y-138473476D01*
X215046904Y-138425857D01*
X214999285Y-138330619D01*
X214951666Y-138283000D01*
X214856428Y-138235380D01*
X214665952Y-138235380D01*
X214570714Y-138283000D01*
X214523095Y-138330619D01*
X214475476Y-138425857D01*
X214475476Y-138473476D01*
X214523095Y-138568714D01*
X214570714Y-138616333D01*
X214665952Y-138663952D01*
X214856428Y-138663952D01*
X214951666Y-138711571D01*
X214999285Y-138759190D01*
X215046904Y-138854428D01*
X215046904Y-139044904D01*
X214999285Y-139140142D01*
X214951666Y-139187761D01*
X214856428Y-139235380D01*
X214665952Y-139235380D01*
X214570714Y-139187761D01*
X214523095Y-139140142D01*
X214475476Y-139044904D01*
X214475476Y-138854428D01*
X214523095Y-138759190D01*
X214570714Y-138711571D01*
X214665952Y-138663952D01*
X213904047Y-138663952D02*
X213999285Y-138616333D01*
X214046904Y-138568714D01*
X214094523Y-138473476D01*
X214094523Y-138425857D01*
X214046904Y-138330619D01*
X213999285Y-138283000D01*
X213904047Y-138235380D01*
X213713571Y-138235380D01*
X213618333Y-138283000D01*
X213570714Y-138330619D01*
X213523095Y-138425857D01*
X213523095Y-138473476D01*
X213570714Y-138568714D01*
X213618333Y-138616333D01*
X213713571Y-138663952D01*
X213904047Y-138663952D01*
X213999285Y-138711571D01*
X214046904Y-138759190D01*
X214094523Y-138854428D01*
X214094523Y-139044904D01*
X214046904Y-139140142D01*
X213999285Y-139187761D01*
X213904047Y-139235380D01*
X213713571Y-139235380D01*
X213618333Y-139187761D01*
X213570714Y-139140142D01*
X213523095Y-139044904D01*
X213523095Y-138854428D01*
X213570714Y-138759190D01*
X213618333Y-138711571D01*
X213713571Y-138663952D01*
%TO.C,D75*%
X258872285Y-101231380D02*
X258872285Y-100231380D01*
X258634190Y-100231380D01*
X258491333Y-100279000D01*
X258396095Y-100374238D01*
X258348476Y-100469476D01*
X258300857Y-100659952D01*
X258300857Y-100802809D01*
X258348476Y-100993285D01*
X258396095Y-101088523D01*
X258491333Y-101183761D01*
X258634190Y-101231380D01*
X258872285Y-101231380D01*
X257967523Y-100231380D02*
X257300857Y-100231380D01*
X257729428Y-101231380D01*
X256443714Y-100231380D02*
X256919904Y-100231380D01*
X256967523Y-100707571D01*
X256919904Y-100659952D01*
X256824666Y-100612333D01*
X256586571Y-100612333D01*
X256491333Y-100659952D01*
X256443714Y-100707571D01*
X256396095Y-100802809D01*
X256396095Y-101040904D01*
X256443714Y-101136142D01*
X256491333Y-101183761D01*
X256586571Y-101231380D01*
X256824666Y-101231380D01*
X256919904Y-101183761D01*
X256967523Y-101136142D01*
%TO.C,C9*%
X91955666Y-149713142D02*
X92003285Y-149760761D01*
X92146142Y-149808380D01*
X92241380Y-149808380D01*
X92384238Y-149760761D01*
X92479476Y-149665523D01*
X92527095Y-149570285D01*
X92574714Y-149379809D01*
X92574714Y-149236952D01*
X92527095Y-149046476D01*
X92479476Y-148951238D01*
X92384238Y-148856000D01*
X92241380Y-148808380D01*
X92146142Y-148808380D01*
X92003285Y-148856000D01*
X91955666Y-148903619D01*
X91479476Y-149808380D02*
X91289000Y-149808380D01*
X91193761Y-149760761D01*
X91146142Y-149713142D01*
X91050904Y-149570285D01*
X91003285Y-149379809D01*
X91003285Y-148998857D01*
X91050904Y-148903619D01*
X91098523Y-148856000D01*
X91193761Y-148808380D01*
X91384238Y-148808380D01*
X91479476Y-148856000D01*
X91527095Y-148903619D01*
X91574714Y-148998857D01*
X91574714Y-149236952D01*
X91527095Y-149332190D01*
X91479476Y-149379809D01*
X91384238Y-149427428D01*
X91193761Y-149427428D01*
X91098523Y-149379809D01*
X91050904Y-149332190D01*
X91003285Y-149236952D01*
%TO.C,D95*%
X292233285Y-158233380D02*
X292233285Y-157233380D01*
X291995190Y-157233380D01*
X291852333Y-157281000D01*
X291757095Y-157376238D01*
X291709476Y-157471476D01*
X291661857Y-157661952D01*
X291661857Y-157804809D01*
X291709476Y-157995285D01*
X291757095Y-158090523D01*
X291852333Y-158185761D01*
X291995190Y-158233380D01*
X292233285Y-158233380D01*
X291185666Y-158233380D02*
X290995190Y-158233380D01*
X290899952Y-158185761D01*
X290852333Y-158138142D01*
X290757095Y-157995285D01*
X290709476Y-157804809D01*
X290709476Y-157423857D01*
X290757095Y-157328619D01*
X290804714Y-157281000D01*
X290899952Y-157233380D01*
X291090428Y-157233380D01*
X291185666Y-157281000D01*
X291233285Y-157328619D01*
X291280904Y-157423857D01*
X291280904Y-157661952D01*
X291233285Y-157757190D01*
X291185666Y-157804809D01*
X291090428Y-157852428D01*
X290899952Y-157852428D01*
X290804714Y-157804809D01*
X290757095Y-157757190D01*
X290709476Y-157661952D01*
X289804714Y-157233380D02*
X290280904Y-157233380D01*
X290328523Y-157709571D01*
X290280904Y-157661952D01*
X290185666Y-157614333D01*
X289947571Y-157614333D01*
X289852333Y-157661952D01*
X289804714Y-157709571D01*
X289757095Y-157804809D01*
X289757095Y-158042904D01*
X289804714Y-158138142D01*
X289852333Y-158185761D01*
X289947571Y-158233380D01*
X290185666Y-158233380D01*
X290280904Y-158185761D01*
X290328523Y-158138142D01*
%TO.C,C11*%
X78907857Y-97583142D02*
X78955476Y-97630761D01*
X79098333Y-97678380D01*
X79193571Y-97678380D01*
X79336428Y-97630761D01*
X79431666Y-97535523D01*
X79479285Y-97440285D01*
X79526904Y-97249809D01*
X79526904Y-97106952D01*
X79479285Y-96916476D01*
X79431666Y-96821238D01*
X79336428Y-96726000D01*
X79193571Y-96678380D01*
X79098333Y-96678380D01*
X78955476Y-96726000D01*
X78907857Y-96773619D01*
X77955476Y-97678380D02*
X78526904Y-97678380D01*
X78241190Y-97678380D02*
X78241190Y-96678380D01*
X78336428Y-96821238D01*
X78431666Y-96916476D01*
X78526904Y-96964095D01*
X77003095Y-97678380D02*
X77574523Y-97678380D01*
X77288809Y-97678380D02*
X77288809Y-96678380D01*
X77384047Y-96821238D01*
X77479285Y-96916476D01*
X77574523Y-96964095D01*
%TO.C,D82*%
X263605285Y-120240380D02*
X263605285Y-119240380D01*
X263367190Y-119240380D01*
X263224333Y-119288000D01*
X263129095Y-119383238D01*
X263081476Y-119478476D01*
X263033857Y-119668952D01*
X263033857Y-119811809D01*
X263081476Y-120002285D01*
X263129095Y-120097523D01*
X263224333Y-120192761D01*
X263367190Y-120240380D01*
X263605285Y-120240380D01*
X262462428Y-119668952D02*
X262557666Y-119621333D01*
X262605285Y-119573714D01*
X262652904Y-119478476D01*
X262652904Y-119430857D01*
X262605285Y-119335619D01*
X262557666Y-119288000D01*
X262462428Y-119240380D01*
X262271952Y-119240380D01*
X262176714Y-119288000D01*
X262129095Y-119335619D01*
X262081476Y-119430857D01*
X262081476Y-119478476D01*
X262129095Y-119573714D01*
X262176714Y-119621333D01*
X262271952Y-119668952D01*
X262462428Y-119668952D01*
X262557666Y-119716571D01*
X262605285Y-119764190D01*
X262652904Y-119859428D01*
X262652904Y-120049904D01*
X262605285Y-120145142D01*
X262557666Y-120192761D01*
X262462428Y-120240380D01*
X262271952Y-120240380D01*
X262176714Y-120192761D01*
X262129095Y-120145142D01*
X262081476Y-120049904D01*
X262081476Y-119859428D01*
X262129095Y-119764190D01*
X262176714Y-119716571D01*
X262271952Y-119668952D01*
X261700523Y-119335619D02*
X261652904Y-119288000D01*
X261557666Y-119240380D01*
X261319571Y-119240380D01*
X261224333Y-119288000D01*
X261176714Y-119335619D01*
X261129095Y-119430857D01*
X261129095Y-119526095D01*
X261176714Y-119668952D01*
X261748142Y-120240380D01*
X261129095Y-120240380D01*
%TO.C,D96*%
X339856285Y-158216380D02*
X339856285Y-157216380D01*
X339618190Y-157216380D01*
X339475333Y-157264000D01*
X339380095Y-157359238D01*
X339332476Y-157454476D01*
X339284857Y-157644952D01*
X339284857Y-157787809D01*
X339332476Y-157978285D01*
X339380095Y-158073523D01*
X339475333Y-158168761D01*
X339618190Y-158216380D01*
X339856285Y-158216380D01*
X338808666Y-158216380D02*
X338618190Y-158216380D01*
X338522952Y-158168761D01*
X338475333Y-158121142D01*
X338380095Y-157978285D01*
X338332476Y-157787809D01*
X338332476Y-157406857D01*
X338380095Y-157311619D01*
X338427714Y-157264000D01*
X338522952Y-157216380D01*
X338713428Y-157216380D01*
X338808666Y-157264000D01*
X338856285Y-157311619D01*
X338903904Y-157406857D01*
X338903904Y-157644952D01*
X338856285Y-157740190D01*
X338808666Y-157787809D01*
X338713428Y-157835428D01*
X338522952Y-157835428D01*
X338427714Y-157787809D01*
X338380095Y-157740190D01*
X338332476Y-157644952D01*
X337475333Y-157216380D02*
X337665809Y-157216380D01*
X337761047Y-157264000D01*
X337808666Y-157311619D01*
X337903904Y-157454476D01*
X337951523Y-157644952D01*
X337951523Y-158025904D01*
X337903904Y-158121142D01*
X337856285Y-158168761D01*
X337761047Y-158216380D01*
X337570571Y-158216380D01*
X337475333Y-158168761D01*
X337427714Y-158121142D01*
X337380095Y-158025904D01*
X337380095Y-157787809D01*
X337427714Y-157692571D01*
X337475333Y-157644952D01*
X337570571Y-157597333D01*
X337761047Y-157597333D01*
X337856285Y-157644952D01*
X337903904Y-157692571D01*
X337951523Y-157787809D01*
%TO.C,D71*%
X106449285Y-101250380D02*
X106449285Y-100250380D01*
X106211190Y-100250380D01*
X106068333Y-100298000D01*
X105973095Y-100393238D01*
X105925476Y-100488476D01*
X105877857Y-100678952D01*
X105877857Y-100821809D01*
X105925476Y-101012285D01*
X105973095Y-101107523D01*
X106068333Y-101202761D01*
X106211190Y-101250380D01*
X106449285Y-101250380D01*
X105544523Y-100250380D02*
X104877857Y-100250380D01*
X105306428Y-101250380D01*
X103973095Y-101250380D02*
X104544523Y-101250380D01*
X104258809Y-101250380D02*
X104258809Y-100250380D01*
X104354047Y-100393238D01*
X104449285Y-100488476D01*
X104544523Y-100536095D01*
%TO.C,D90*%
X292213285Y-139222380D02*
X292213285Y-138222380D01*
X291975190Y-138222380D01*
X291832333Y-138270000D01*
X291737095Y-138365238D01*
X291689476Y-138460476D01*
X291641857Y-138650952D01*
X291641857Y-138793809D01*
X291689476Y-138984285D01*
X291737095Y-139079523D01*
X291832333Y-139174761D01*
X291975190Y-139222380D01*
X292213285Y-139222380D01*
X291165666Y-139222380D02*
X290975190Y-139222380D01*
X290879952Y-139174761D01*
X290832333Y-139127142D01*
X290737095Y-138984285D01*
X290689476Y-138793809D01*
X290689476Y-138412857D01*
X290737095Y-138317619D01*
X290784714Y-138270000D01*
X290879952Y-138222380D01*
X291070428Y-138222380D01*
X291165666Y-138270000D01*
X291213285Y-138317619D01*
X291260904Y-138412857D01*
X291260904Y-138650952D01*
X291213285Y-138746190D01*
X291165666Y-138793809D01*
X291070428Y-138841428D01*
X290879952Y-138841428D01*
X290784714Y-138793809D01*
X290737095Y-138746190D01*
X290689476Y-138650952D01*
X290070428Y-138222380D02*
X289975190Y-138222380D01*
X289879952Y-138270000D01*
X289832333Y-138317619D01*
X289784714Y-138412857D01*
X289737095Y-138603333D01*
X289737095Y-138841428D01*
X289784714Y-139031904D01*
X289832333Y-139127142D01*
X289879952Y-139174761D01*
X289975190Y-139222380D01*
X290070428Y-139222380D01*
X290165666Y-139174761D01*
X290213285Y-139127142D01*
X290260904Y-139031904D01*
X290308523Y-138841428D01*
X290308523Y-138603333D01*
X290260904Y-138412857D01*
X290213285Y-138317619D01*
X290165666Y-138270000D01*
X290070428Y-138222380D01*
%TO.C,D84*%
X324500285Y-120203380D02*
X324500285Y-119203380D01*
X324262190Y-119203380D01*
X324119333Y-119251000D01*
X324024095Y-119346238D01*
X323976476Y-119441476D01*
X323928857Y-119631952D01*
X323928857Y-119774809D01*
X323976476Y-119965285D01*
X324024095Y-120060523D01*
X324119333Y-120155761D01*
X324262190Y-120203380D01*
X324500285Y-120203380D01*
X323357428Y-119631952D02*
X323452666Y-119584333D01*
X323500285Y-119536714D01*
X323547904Y-119441476D01*
X323547904Y-119393857D01*
X323500285Y-119298619D01*
X323452666Y-119251000D01*
X323357428Y-119203380D01*
X323166952Y-119203380D01*
X323071714Y-119251000D01*
X323024095Y-119298619D01*
X322976476Y-119393857D01*
X322976476Y-119441476D01*
X323024095Y-119536714D01*
X323071714Y-119584333D01*
X323166952Y-119631952D01*
X323357428Y-119631952D01*
X323452666Y-119679571D01*
X323500285Y-119727190D01*
X323547904Y-119822428D01*
X323547904Y-120012904D01*
X323500285Y-120108142D01*
X323452666Y-120155761D01*
X323357428Y-120203380D01*
X323166952Y-120203380D01*
X323071714Y-120155761D01*
X323024095Y-120108142D01*
X322976476Y-120012904D01*
X322976476Y-119822428D01*
X323024095Y-119727190D01*
X323071714Y-119679571D01*
X323166952Y-119631952D01*
X322119333Y-119536714D02*
X322119333Y-120203380D01*
X322357428Y-119155761D02*
X322595523Y-119870047D01*
X321976476Y-119870047D01*
%TO.C,R3*%
X231866666Y-95071380D02*
X232200000Y-94595190D01*
X232438095Y-95071380D02*
X232438095Y-94071380D01*
X232057142Y-94071380D01*
X231961904Y-94119000D01*
X231914285Y-94166619D01*
X231866666Y-94261857D01*
X231866666Y-94404714D01*
X231914285Y-94499952D01*
X231961904Y-94547571D01*
X232057142Y-94595190D01*
X232438095Y-94595190D01*
X231533333Y-94071380D02*
X230914285Y-94071380D01*
X231247619Y-94452333D01*
X231104761Y-94452333D01*
X231009523Y-94499952D01*
X230961904Y-94547571D01*
X230914285Y-94642809D01*
X230914285Y-94880904D01*
X230961904Y-94976142D01*
X231009523Y-95023761D01*
X231104761Y-95071380D01*
X231390476Y-95071380D01*
X231485714Y-95023761D01*
X231533333Y-94976142D01*
%TO.C,D92*%
X106382285Y-158220380D02*
X106382285Y-157220380D01*
X106144190Y-157220380D01*
X106001333Y-157268000D01*
X105906095Y-157363238D01*
X105858476Y-157458476D01*
X105810857Y-157648952D01*
X105810857Y-157791809D01*
X105858476Y-157982285D01*
X105906095Y-158077523D01*
X106001333Y-158172761D01*
X106144190Y-158220380D01*
X106382285Y-158220380D01*
X105334666Y-158220380D02*
X105144190Y-158220380D01*
X105048952Y-158172761D01*
X105001333Y-158125142D01*
X104906095Y-157982285D01*
X104858476Y-157791809D01*
X104858476Y-157410857D01*
X104906095Y-157315619D01*
X104953714Y-157268000D01*
X105048952Y-157220380D01*
X105239428Y-157220380D01*
X105334666Y-157268000D01*
X105382285Y-157315619D01*
X105429904Y-157410857D01*
X105429904Y-157648952D01*
X105382285Y-157744190D01*
X105334666Y-157791809D01*
X105239428Y-157839428D01*
X105048952Y-157839428D01*
X104953714Y-157791809D01*
X104906095Y-157744190D01*
X104858476Y-157648952D01*
X104477523Y-157315619D02*
X104429904Y-157268000D01*
X104334666Y-157220380D01*
X104096571Y-157220380D01*
X104001333Y-157268000D01*
X103953714Y-157315619D01*
X103906095Y-157410857D01*
X103906095Y-157506095D01*
X103953714Y-157648952D01*
X104525142Y-158220380D01*
X103906095Y-158220380D01*
%TO.C,C7*%
X222548389Y-121271687D02*
X222615732Y-121271687D01*
X222750419Y-121204343D01*
X222817763Y-121137000D01*
X222885106Y-121002312D01*
X222885106Y-120867625D01*
X222851435Y-120766610D01*
X222750419Y-120598251D01*
X222649404Y-120497236D01*
X222481045Y-120396221D01*
X222380030Y-120362549D01*
X222245343Y-120362549D01*
X222110656Y-120429893D01*
X222043312Y-120497236D01*
X221975969Y-120631923D01*
X221975969Y-120699267D01*
X221672923Y-120867625D02*
X221201519Y-121339030D01*
X222211671Y-121743091D01*
%TO.C,Y1*%
X224335881Y-118621446D02*
X224672599Y-118958164D01*
X224201194Y-118015355D02*
X224335881Y-118621446D01*
X223729790Y-118486759D01*
X223830805Y-119799957D02*
X224234866Y-119395896D01*
X224032835Y-119597927D02*
X223325729Y-118890820D01*
X223494087Y-118924492D01*
X223628774Y-118924492D01*
X223729790Y-118890820D01*
%TO.C,D78*%
X111207285Y-120245380D02*
X111207285Y-119245380D01*
X110969190Y-119245380D01*
X110826333Y-119293000D01*
X110731095Y-119388238D01*
X110683476Y-119483476D01*
X110635857Y-119673952D01*
X110635857Y-119816809D01*
X110683476Y-120007285D01*
X110731095Y-120102523D01*
X110826333Y-120197761D01*
X110969190Y-120245380D01*
X111207285Y-120245380D01*
X110302523Y-119245380D02*
X109635857Y-119245380D01*
X110064428Y-120245380D01*
X109112047Y-119673952D02*
X109207285Y-119626333D01*
X109254904Y-119578714D01*
X109302523Y-119483476D01*
X109302523Y-119435857D01*
X109254904Y-119340619D01*
X109207285Y-119293000D01*
X109112047Y-119245380D01*
X108921571Y-119245380D01*
X108826333Y-119293000D01*
X108778714Y-119340619D01*
X108731095Y-119435857D01*
X108731095Y-119483476D01*
X108778714Y-119578714D01*
X108826333Y-119626333D01*
X108921571Y-119673952D01*
X109112047Y-119673952D01*
X109207285Y-119721571D01*
X109254904Y-119769190D01*
X109302523Y-119864428D01*
X109302523Y-120054904D01*
X109254904Y-120150142D01*
X109207285Y-120197761D01*
X109112047Y-120245380D01*
X108921571Y-120245380D01*
X108826333Y-120197761D01*
X108778714Y-120150142D01*
X108731095Y-120054904D01*
X108731095Y-119864428D01*
X108778714Y-119769190D01*
X108826333Y-119721571D01*
X108921571Y-119673952D01*
%TO.C,J1*%
X228153333Y-93292380D02*
X228153333Y-94006666D01*
X228200952Y-94149523D01*
X228296190Y-94244761D01*
X228439047Y-94292380D01*
X228534285Y-94292380D01*
X227153333Y-94292380D02*
X227724761Y-94292380D01*
X227439047Y-94292380D02*
X227439047Y-93292380D01*
X227534285Y-93435238D01*
X227629523Y-93530476D01*
X227724761Y-93578095D01*
%TO.C,J2*%
X210099333Y-94657380D02*
X210099333Y-95371666D01*
X210146952Y-95514523D01*
X210242190Y-95609761D01*
X210385047Y-95657380D01*
X210480285Y-95657380D01*
X209670761Y-94752619D02*
X209623142Y-94705000D01*
X209527904Y-94657380D01*
X209289809Y-94657380D01*
X209194571Y-94705000D01*
X209146952Y-94752619D01*
X209099333Y-94847857D01*
X209099333Y-94943095D01*
X209146952Y-95085952D01*
X209718380Y-95657380D01*
X209099333Y-95657380D01*
%TO.C,C4*%
X212675666Y-109669142D02*
X212723285Y-109716761D01*
X212866142Y-109764380D01*
X212961380Y-109764380D01*
X213104238Y-109716761D01*
X213199476Y-109621523D01*
X213247095Y-109526285D01*
X213294714Y-109335809D01*
X213294714Y-109192952D01*
X213247095Y-109002476D01*
X213199476Y-108907238D01*
X213104238Y-108812000D01*
X212961380Y-108764380D01*
X212866142Y-108764380D01*
X212723285Y-108812000D01*
X212675666Y-108859619D01*
X211818523Y-109097714D02*
X211818523Y-109764380D01*
X212056619Y-108716761D02*
X212294714Y-109431047D01*
X211675666Y-109431047D01*
D13*
%TO.C,MX11*%
X276025000Y-87787500D02*
X281125000Y-87787500D01*
X272125000Y-83587500D02*
X277225000Y-83587500D01*
X276025000Y-87787500D02*
G75*
G03*
X274025000Y-89787500I-1J-1999999D01*
G01*
X272125000Y-83587500D02*
G75*
G03*
X270125000Y-85587500I-1J-1999999D01*
G01*
D14*
%TO.C,D39*%
X294712500Y-134667499D02*
X293812500Y-135567499D01*
X293812500Y-135567499D02*
X294712500Y-135567499D01*
X294712500Y-135567499D02*
X294712500Y-134667499D01*
G36*
X294712500Y-135567499D02*
G01*
X293812500Y-135567499D01*
X294712500Y-134667499D01*
X294712500Y-135567499D01*
G37*
X294712500Y-135567499D02*
X293812500Y-135567499D01*
X294712500Y-134667499D01*
X294712500Y-135567499D01*
%TO.C,D3*%
X128025000Y-96567499D02*
X127125000Y-97467499D01*
X127125000Y-97467499D02*
X128025000Y-97467499D01*
X128025000Y-97467499D02*
X128025000Y-96567499D01*
G36*
X128025000Y-97467499D02*
G01*
X127125000Y-97467499D01*
X128025000Y-96567499D01*
X128025000Y-97467499D01*
G37*
X128025000Y-97467499D02*
X127125000Y-97467499D01*
X128025000Y-96567499D01*
X128025000Y-97467499D01*
%TO.C,D12*%
X299475000Y-96567499D02*
X298575000Y-97467499D01*
X298575000Y-97467499D02*
X299475000Y-97467499D01*
X299475000Y-97467499D02*
X299475000Y-96567499D01*
G36*
X299475000Y-97467499D02*
G01*
X298575000Y-97467499D01*
X299475000Y-96567499D01*
X299475000Y-97467499D01*
G37*
X299475000Y-97467499D02*
X298575000Y-97467499D01*
X299475000Y-96567499D01*
X299475000Y-97467499D01*
%TO.C,D60*%
X261375000Y-172767499D02*
X260475000Y-173667499D01*
X260475000Y-173667499D02*
X261375000Y-173667499D01*
X261375000Y-173667499D02*
X261375000Y-172767499D01*
G36*
X261375000Y-173667499D02*
G01*
X260475000Y-173667499D01*
X261375000Y-172767499D01*
X261375000Y-173667499D01*
G37*
X261375000Y-173667499D02*
X260475000Y-173667499D01*
X261375000Y-172767499D01*
X261375000Y-173667499D01*
D13*
%TO.C,MX60*%
X319750000Y-159787500D02*
X324850000Y-159787500D01*
X323650000Y-163987500D02*
X328750000Y-163987500D01*
X319750000Y-159787500D02*
G75*
G03*
X317750000Y-161787500I-1J-1999999D01*
G01*
X323650000Y-163987500D02*
G75*
G03*
X321650000Y-165987500I-1J-1999999D01*
G01*
%TO.C,MX56*%
X110200000Y-159787500D02*
X115300000Y-159787500D01*
X114100000Y-163987500D02*
X119200000Y-163987500D01*
X114100000Y-163987500D02*
G75*
G03*
X112100000Y-165987500I-1J-1999999D01*
G01*
X110200000Y-159787500D02*
G75*
G03*
X108200000Y-161787500I-1J-1999999D01*
G01*
%TO.C,MX13*%
X314125000Y-87787500D02*
X319225000Y-87787500D01*
X310225000Y-83587500D02*
X315325000Y-83587500D01*
X314125000Y-87787500D02*
G75*
G03*
X312125000Y-89787500I-1J-1999999D01*
G01*
X310225000Y-83587500D02*
G75*
G03*
X308225000Y-85587500I-1J-1999999D01*
G01*
D14*
%TO.C,D35*%
X218512500Y-134667499D02*
X217612500Y-135567499D01*
X217612500Y-135567499D02*
X218512500Y-135567499D01*
X218512500Y-135567499D02*
X218512500Y-134667499D01*
G36*
X218512500Y-135567499D02*
G01*
X217612500Y-135567499D01*
X218512500Y-134667499D01*
X218512500Y-135567499D01*
G37*
X218512500Y-135567499D02*
X217612500Y-135567499D01*
X218512500Y-134667499D01*
X218512500Y-135567499D01*
D13*
%TO.C,MX58*%
X218875000Y-163987500D02*
X223975000Y-163987500D01*
X214975000Y-159787500D02*
X220075000Y-159787500D01*
X214975000Y-159787500D02*
G75*
G03*
X212975000Y-161787500I-1J-1999999D01*
G01*
X218875000Y-163987500D02*
G75*
G03*
X216875000Y-165987500I-1J-1999999D01*
G01*
%TO.C,MX26*%
X304600000Y-106837500D02*
X309700000Y-106837500D01*
X300700000Y-102637500D02*
X305800000Y-102637500D01*
X300700000Y-102637500D02*
G75*
G03*
X298700000Y-104637500I-1J-1999999D01*
G01*
X304600000Y-106837500D02*
G75*
G03*
X302600000Y-108837500I-1J-1999999D01*
G01*
D14*
%TO.C,D46*%
X189937500Y-153717499D02*
X189037500Y-154617499D01*
X189037500Y-154617499D02*
X189937500Y-154617499D01*
X189937500Y-154617499D02*
X189937500Y-153717499D01*
G36*
X189937500Y-154617499D02*
G01*
X189037500Y-154617499D01*
X189937500Y-153717499D01*
X189937500Y-154617499D01*
G37*
X189937500Y-154617499D02*
X189037500Y-154617499D01*
X189937500Y-153717499D01*
X189937500Y-154617499D01*
%TO.C,D63*%
X351862500Y-172767499D02*
X350962500Y-173667499D01*
X350962500Y-173667499D02*
X351862500Y-173667499D01*
X351862500Y-173667499D02*
X351862500Y-172767499D01*
G36*
X351862500Y-173667499D02*
G01*
X350962500Y-173667499D01*
X351862500Y-172767499D01*
X351862500Y-173667499D01*
G37*
X351862500Y-173667499D02*
X350962500Y-173667499D01*
X351862500Y-172767499D01*
X351862500Y-173667499D01*
D13*
%TO.C,MX47*%
X200687500Y-140737500D02*
X205787500Y-140737500D01*
X204587500Y-144937500D02*
X209687500Y-144937500D01*
X204587500Y-144937500D02*
G75*
G03*
X202587500Y-146937500I-1J-1999999D01*
G01*
X200687500Y-140737500D02*
G75*
G03*
X198687500Y-142737500I-1J-1999999D01*
G01*
D14*
%TO.C,D22*%
X232800000Y-115617499D02*
X231900000Y-116517499D01*
X231900000Y-116517499D02*
X232800000Y-116517499D01*
X232800000Y-116517499D02*
X232800000Y-115617499D01*
G36*
X232800000Y-116517499D02*
G01*
X231900000Y-116517499D01*
X232800000Y-115617499D01*
X232800000Y-116517499D01*
G37*
X232800000Y-116517499D02*
X231900000Y-116517499D01*
X232800000Y-115617499D01*
X232800000Y-116517499D01*
%TO.C,D30*%
X123262500Y-134667499D02*
X122362500Y-135567499D01*
X122362500Y-135567499D02*
X123262500Y-135567499D01*
X123262500Y-135567499D02*
X123262500Y-134667499D01*
G36*
X123262500Y-135567499D02*
G01*
X122362500Y-135567499D01*
X123262500Y-134667499D01*
X123262500Y-135567499D01*
G37*
X123262500Y-135567499D02*
X122362500Y-135567499D01*
X123262500Y-134667499D01*
X123262500Y-135567499D01*
D13*
%TO.C,MX54*%
X348325000Y-140737500D02*
X353425000Y-140737500D01*
X352225000Y-144937500D02*
X357325000Y-144937500D01*
X348325000Y-140737500D02*
G75*
G03*
X346325000Y-142737500I-1J-1999999D01*
G01*
X352225000Y-144937500D02*
G75*
G03*
X350225000Y-146937500I-1J-1999999D01*
G01*
D14*
%TO.C,D43*%
X132787500Y-153717499D02*
X131887500Y-154617499D01*
X131887500Y-154617499D02*
X132787500Y-154617499D01*
X132787500Y-154617499D02*
X132787500Y-153717499D01*
G36*
X132787500Y-154617499D02*
G01*
X131887500Y-154617499D01*
X132787500Y-153717499D01*
X132787500Y-154617499D01*
G37*
X132787500Y-154617499D02*
X131887500Y-154617499D01*
X132787500Y-153717499D01*
X132787500Y-154617499D01*
%TO.C,D51*%
X285187500Y-153717499D02*
X284287500Y-154617499D01*
X284287500Y-154617499D02*
X285187500Y-154617499D01*
X285187500Y-154617499D02*
X285187500Y-153717499D01*
G36*
X285187500Y-154617499D02*
G01*
X284287500Y-154617499D01*
X285187500Y-153717499D01*
X285187500Y-154617499D01*
G37*
X285187500Y-154617499D02*
X284287500Y-154617499D01*
X285187500Y-153717499D01*
X285187500Y-154617499D01*
%TO.C,D13*%
X318525000Y-96567499D02*
X317625000Y-97467499D01*
X317625000Y-97467499D02*
X318525000Y-97467499D01*
X318525000Y-97467499D02*
X318525000Y-96567499D01*
G36*
X318525000Y-97467499D02*
G01*
X317625000Y-97467499D01*
X318525000Y-96567499D01*
X318525000Y-97467499D01*
G37*
X318525000Y-97467499D02*
X317625000Y-97467499D01*
X318525000Y-96567499D01*
X318525000Y-97467499D01*
%TO.C,D29*%
X97068750Y-134667499D02*
X96168750Y-135567499D01*
X96168750Y-135567499D02*
X97068750Y-135567499D01*
X97068750Y-135567499D02*
X97068750Y-134667499D01*
G36*
X97068750Y-135567499D02*
G01*
X96168750Y-135567499D01*
X97068750Y-134667499D01*
X97068750Y-135567499D01*
G37*
X97068750Y-135567499D02*
X96168750Y-135567499D01*
X97068750Y-134667499D01*
X97068750Y-135567499D01*
D13*
%TO.C,MX10*%
X256975000Y-87787500D02*
X262075000Y-87787500D01*
X253075000Y-83587500D02*
X258175000Y-83587500D01*
X253075000Y-83587500D02*
G75*
G03*
X251075000Y-85587500I-1J-1999999D01*
G01*
X256975000Y-87787500D02*
G75*
G03*
X254975000Y-89787500I-1J-1999999D01*
G01*
%TO.C,MX48*%
X223637500Y-144937500D02*
X228737500Y-144937500D01*
X219737500Y-140737500D02*
X224837500Y-140737500D01*
X223637500Y-144937500D02*
G75*
G03*
X221637500Y-146937500I-1J-1999999D01*
G01*
X219737500Y-140737500D02*
G75*
G03*
X217737500Y-142737500I-1J-1999999D01*
G01*
%TO.C,MX55*%
X90287500Y-163987500D02*
X95387500Y-163987500D01*
X86387500Y-159787500D02*
X91487500Y-159787500D01*
X90287500Y-163987500D02*
G75*
G03*
X88287500Y-165987500I-1J-1999999D01*
G01*
X86387500Y-159787500D02*
G75*
G03*
X84387500Y-161787500I-1J-1999999D01*
G01*
%TO.C,MX43*%
X124487500Y-140737500D02*
X129587500Y-140737500D01*
X128387500Y-144937500D02*
X133487500Y-144937500D01*
X124487500Y-140737500D02*
G75*
G03*
X122487500Y-142737500I-1J-1999999D01*
G01*
X128387500Y-144937500D02*
G75*
G03*
X126387500Y-146937500I-1J-1999999D01*
G01*
%TO.C,MX33*%
X172112500Y-121687500D02*
X177212500Y-121687500D01*
X176012500Y-125887500D02*
X181112500Y-125887500D01*
X172112500Y-121687500D02*
G75*
G03*
X170112500Y-123687500I-1J-1999999D01*
G01*
X176012500Y-125887500D02*
G75*
G03*
X174012500Y-127887500I-1J-1999999D01*
G01*
D14*
%TO.C,D6*%
X185175000Y-96567499D02*
X184275000Y-97467499D01*
X184275000Y-97467499D02*
X185175000Y-97467499D01*
X185175000Y-97467499D02*
X185175000Y-96567499D01*
G36*
X185175000Y-97467499D02*
G01*
X184275000Y-97467499D01*
X185175000Y-96567499D01*
X185175000Y-97467499D01*
G37*
X185175000Y-97467499D02*
X184275000Y-97467499D01*
X185175000Y-96567499D01*
X185175000Y-97467499D01*
D13*
%TO.C,MX24*%
X266500000Y-106837500D02*
X271600000Y-106837500D01*
X262600000Y-102637500D02*
X267700000Y-102637500D01*
X262600000Y-102637500D02*
G75*
G03*
X260600000Y-104637500I-1J-1999999D01*
G01*
X266500000Y-106837500D02*
G75*
G03*
X264500000Y-108837500I-1J-1999999D01*
G01*
%TO.C,MX41*%
X340318750Y-125887500D02*
X345418750Y-125887500D01*
X336418750Y-121687500D02*
X341518750Y-121687500D01*
X336418750Y-121687500D02*
G75*
G03*
X334418750Y-123687500I-1J-1999999D01*
G01*
X340318750Y-125887500D02*
G75*
G03*
X338318750Y-127887500I-1J-1999999D01*
G01*
%TO.C,MX9*%
X237925000Y-87787500D02*
X243025000Y-87787500D01*
X234025000Y-83587500D02*
X239125000Y-83587500D01*
X237925000Y-87787500D02*
G75*
G03*
X235925000Y-89787500I-1J-1999999D01*
G01*
X234025000Y-83587500D02*
G75*
G03*
X232025000Y-85587500I-1J-1999999D01*
G01*
D14*
%TO.C,D2*%
X108975000Y-96567499D02*
X108075000Y-97467499D01*
X108075000Y-97467499D02*
X108975000Y-97467499D01*
X108975000Y-97467499D02*
X108975000Y-96567499D01*
G36*
X108975000Y-97467499D02*
G01*
X108075000Y-97467499D01*
X108975000Y-96567499D01*
X108975000Y-97467499D01*
G37*
X108975000Y-97467499D02*
X108075000Y-97467499D01*
X108975000Y-96567499D01*
X108975000Y-97467499D01*
%TO.C,D24*%
X270900000Y-115617499D02*
X270000000Y-116517499D01*
X270000000Y-116517499D02*
X270900000Y-116517499D01*
X270900000Y-116517499D02*
X270900000Y-115617499D01*
G36*
X270900000Y-116517499D02*
G01*
X270000000Y-116517499D01*
X270900000Y-115617499D01*
X270900000Y-116517499D01*
G37*
X270900000Y-116517499D02*
X270000000Y-116517499D01*
X270900000Y-115617499D01*
X270900000Y-116517499D01*
%TO.C,D56*%
X118500000Y-172767499D02*
X117600000Y-173667499D01*
X117600000Y-173667499D02*
X118500000Y-173667499D01*
X118500000Y-173667499D02*
X118500000Y-172767499D01*
G36*
X118500000Y-173667499D02*
G01*
X117600000Y-173667499D01*
X118500000Y-172767499D01*
X118500000Y-173667499D01*
G37*
X118500000Y-173667499D02*
X117600000Y-173667499D01*
X118500000Y-172767499D01*
X118500000Y-173667499D01*
%TO.C,D41*%
X344718750Y-134667499D02*
X343818750Y-135567499D01*
X343818750Y-135567499D02*
X344718750Y-135567499D01*
X344718750Y-135567499D02*
X344718750Y-134667499D01*
G36*
X344718750Y-135567499D02*
G01*
X343818750Y-135567499D01*
X344718750Y-134667499D01*
X344718750Y-135567499D01*
G37*
X344718750Y-135567499D02*
X343818750Y-135567499D01*
X344718750Y-134667499D01*
X344718750Y-135567499D01*
D13*
%TO.C,MX30*%
X114962500Y-121687500D02*
X120062500Y-121687500D01*
X118862500Y-125887500D02*
X123962500Y-125887500D01*
X118862500Y-125887500D02*
G75*
G03*
X116862500Y-127887500I-1J-1999999D01*
G01*
X114962500Y-121687500D02*
G75*
G03*
X112962500Y-123687500I-1J-1999999D01*
G01*
D14*
%TO.C,D57*%
X142312500Y-172767499D02*
X141412500Y-173667499D01*
X141412500Y-173667499D02*
X142312500Y-173667499D01*
X142312500Y-173667499D02*
X142312500Y-172767499D01*
G36*
X142312500Y-173667499D02*
G01*
X141412500Y-173667499D01*
X142312500Y-172767499D01*
X142312500Y-173667499D01*
G37*
X142312500Y-173667499D02*
X141412500Y-173667499D01*
X142312500Y-172767499D01*
X142312500Y-173667499D01*
%TO.C,D11*%
X280425000Y-96567499D02*
X279525000Y-97467499D01*
X279525000Y-97467499D02*
X280425000Y-97467499D01*
X280425000Y-97467499D02*
X280425000Y-96567499D01*
G36*
X280425000Y-97467499D02*
G01*
X279525000Y-97467499D01*
X280425000Y-96567499D01*
X280425000Y-97467499D01*
G37*
X280425000Y-97467499D02*
X279525000Y-97467499D01*
X280425000Y-96567499D01*
X280425000Y-97467499D01*
D13*
%TO.C,MX50*%
X261737500Y-144937500D02*
X266837500Y-144937500D01*
X257837500Y-140737500D02*
X262937500Y-140737500D01*
X257837500Y-140737500D02*
G75*
G03*
X255837500Y-142737500I-1J-1999999D01*
G01*
X261737500Y-144937500D02*
G75*
G03*
X259737500Y-146937500I-1J-1999999D01*
G01*
D14*
%TO.C,D48*%
X228037500Y-153717499D02*
X227137500Y-154617499D01*
X227137500Y-154617499D02*
X228037500Y-154617499D01*
X228037500Y-154617499D02*
X228037500Y-153717499D01*
G36*
X228037500Y-154617499D02*
G01*
X227137500Y-154617499D01*
X228037500Y-153717499D01*
X228037500Y-154617499D01*
G37*
X228037500Y-154617499D02*
X227137500Y-154617499D01*
X228037500Y-153717499D01*
X228037500Y-154617499D01*
%TO.C,D38*%
X275662500Y-134667499D02*
X274762500Y-135567499D01*
X274762500Y-135567499D02*
X275662500Y-135567499D01*
X275662500Y-135567499D02*
X275662500Y-134667499D01*
G36*
X275662500Y-135567499D02*
G01*
X274762500Y-135567499D01*
X275662500Y-134667499D01*
X275662500Y-135567499D01*
G37*
X275662500Y-135567499D02*
X274762500Y-135567499D01*
X275662500Y-134667499D01*
X275662500Y-135567499D01*
D13*
%TO.C,MX20*%
X186400000Y-102637500D02*
X191500000Y-102637500D01*
X190300000Y-106837500D02*
X195400000Y-106837500D01*
X186400000Y-102637500D02*
G75*
G03*
X184400000Y-104637500I-1J-1999999D01*
G01*
X190300000Y-106837500D02*
G75*
G03*
X188300000Y-108837500I-1J-1999999D01*
G01*
D14*
%TO.C,D14*%
X347100000Y-96567499D02*
X346200000Y-97467499D01*
X346200000Y-97467499D02*
X347100000Y-97467499D01*
X347100000Y-97467499D02*
X347100000Y-96567499D01*
G36*
X347100000Y-97467499D02*
G01*
X346200000Y-97467499D01*
X347100000Y-96567499D01*
X347100000Y-97467499D01*
G37*
X347100000Y-97467499D02*
X346200000Y-97467499D01*
X347100000Y-96567499D01*
X347100000Y-97467499D01*
D13*
%TO.C,MX25*%
X285550000Y-106837500D02*
X290650000Y-106837500D01*
X281650000Y-102637500D02*
X286750000Y-102637500D01*
X285550000Y-106837500D02*
G75*
G03*
X283550000Y-108837500I-1J-1999999D01*
G01*
X281650000Y-102637500D02*
G75*
G03*
X279650000Y-104637500I-1J-1999999D01*
G01*
%TO.C,MX2*%
X100675000Y-83587500D02*
X105775000Y-83587500D01*
X104575000Y-87787500D02*
X109675000Y-87787500D01*
X104575000Y-87787500D02*
G75*
G03*
X102575000Y-89787500I-1J-1999999D01*
G01*
X100675000Y-83587500D02*
G75*
G03*
X98675000Y-85587500I-1J-1999999D01*
G01*
%TO.C,MX34*%
X195062500Y-125887500D02*
X200162500Y-125887500D01*
X191162500Y-121687500D02*
X196262500Y-121687500D01*
X195062500Y-125887500D02*
G75*
G03*
X193062500Y-127887500I-1J-1999999D01*
G01*
X191162500Y-121687500D02*
G75*
G03*
X189162500Y-123687500I-1J-1999999D01*
G01*
%TO.C,MX3*%
X119725000Y-83587500D02*
X124825000Y-83587500D01*
X123625000Y-87787500D02*
X128725000Y-87787500D01*
X119725000Y-83587500D02*
G75*
G03*
X117725000Y-85587500I-1J-1999999D01*
G01*
X123625000Y-87787500D02*
G75*
G03*
X121625000Y-89787500I-1J-1999999D01*
G01*
D14*
%TO.C,D21*%
X213750000Y-115617499D02*
X212850000Y-116517499D01*
X212850000Y-116517499D02*
X213750000Y-116517499D01*
X213750000Y-116517499D02*
X213750000Y-115617499D01*
G36*
X213750000Y-116517499D02*
G01*
X212850000Y-116517499D01*
X213750000Y-115617499D01*
X213750000Y-116517499D01*
G37*
X213750000Y-116517499D02*
X212850000Y-116517499D01*
X213750000Y-115617499D01*
X213750000Y-116517499D01*
%TO.C,D58*%
X185175000Y-172767499D02*
X184275000Y-173667499D01*
X184275000Y-173667499D02*
X185175000Y-173667499D01*
X185175000Y-173667499D02*
X185175000Y-172767499D01*
G36*
X185175000Y-173667499D02*
G01*
X184275000Y-173667499D01*
X185175000Y-172767499D01*
X185175000Y-173667499D01*
G37*
X185175000Y-173667499D02*
X184275000Y-173667499D01*
X185175000Y-172767499D01*
X185175000Y-173667499D01*
%TO.C,D62*%
X328050000Y-172767499D02*
X327150000Y-173667499D01*
X327150000Y-173667499D02*
X328050000Y-173667499D01*
X328050000Y-173667499D02*
X328050000Y-172767499D01*
G36*
X328050000Y-173667499D02*
G01*
X327150000Y-173667499D01*
X328050000Y-172767499D01*
X328050000Y-173667499D01*
G37*
X328050000Y-173667499D02*
X327150000Y-173667499D01*
X328050000Y-172767499D01*
X328050000Y-173667499D01*
D13*
%TO.C,MX53*%
X322131250Y-140737500D02*
X327231250Y-140737500D01*
X326031250Y-144937500D02*
X331131250Y-144937500D01*
X322131250Y-140737500D02*
G75*
G03*
X320131250Y-142737500I-1J-1999999D01*
G01*
X326031250Y-144937500D02*
G75*
G03*
X324031250Y-146937500I-1J-1999999D01*
G01*
%TO.C,MX21*%
X205450000Y-102637500D02*
X210550000Y-102637500D01*
X209350000Y-106837500D02*
X214450000Y-106837500D01*
X209350000Y-106837500D02*
G75*
G03*
X207350000Y-108837500I-1J-1999999D01*
G01*
X205450000Y-102637500D02*
G75*
G03*
X203450000Y-104637500I-1J-1999999D01*
G01*
%TO.C,MX31*%
X134012500Y-121687500D02*
X139112500Y-121687500D01*
X137912500Y-125887500D02*
X143012500Y-125887500D01*
X134012500Y-121687500D02*
G75*
G03*
X132012500Y-123687500I-1J-1999999D01*
G01*
X137912500Y-125887500D02*
G75*
G03*
X135912500Y-127887500I-1J-1999999D01*
G01*
%TO.C,MX7*%
X195925000Y-83587500D02*
X201025000Y-83587500D01*
X199825000Y-87787500D02*
X204925000Y-87787500D01*
X199825000Y-87787500D02*
G75*
G03*
X197825000Y-89787500I-1J-1999999D01*
G01*
X195925000Y-83587500D02*
G75*
G03*
X193925000Y-85587500I-1J-1999999D01*
G01*
D14*
%TO.C,D16*%
X118500000Y-115617499D02*
X117600000Y-116517499D01*
X117600000Y-116517499D02*
X118500000Y-116517499D01*
X118500000Y-116517499D02*
X118500000Y-115617499D01*
G36*
X118500000Y-116517499D02*
G01*
X117600000Y-116517499D01*
X118500000Y-115617499D01*
X118500000Y-116517499D01*
G37*
X118500000Y-116517499D02*
X117600000Y-116517499D01*
X118500000Y-115617499D01*
X118500000Y-116517499D01*
D13*
%TO.C,MX15*%
X90287500Y-106837500D02*
X95387500Y-106837500D01*
X86387500Y-102637500D02*
X91487500Y-102637500D01*
X86387500Y-102637500D02*
G75*
G03*
X84387500Y-104637500I-1J-1999999D01*
G01*
X90287500Y-106837500D02*
G75*
G03*
X88287500Y-108837500I-1J-1999999D01*
G01*
D14*
%TO.C,D45*%
X170887500Y-153717499D02*
X169987500Y-154617499D01*
X169987500Y-154617499D02*
X170887500Y-154617499D01*
X170887500Y-154617499D02*
X170887500Y-153717499D01*
G36*
X170887500Y-154617499D02*
G01*
X169987500Y-154617499D01*
X170887500Y-153717499D01*
X170887500Y-154617499D01*
G37*
X170887500Y-154617499D02*
X169987500Y-154617499D01*
X170887500Y-153717499D01*
X170887500Y-154617499D01*
D13*
%TO.C,MX38*%
X271262500Y-125887500D02*
X276362500Y-125887500D01*
X267362500Y-121687500D02*
X272462500Y-121687500D01*
X271262500Y-125887500D02*
G75*
G03*
X269262500Y-127887500I-1J-1999999D01*
G01*
X267362500Y-121687500D02*
G75*
G03*
X265362500Y-123687500I-1J-1999999D01*
G01*
%TO.C,MX42*%
X93531250Y-140737500D02*
X98631250Y-140737500D01*
X97431250Y-144937500D02*
X102531250Y-144937500D01*
X97431250Y-144937500D02*
G75*
G03*
X95431250Y-146937500I-1J-1999999D01*
G01*
X93531250Y-140737500D02*
G75*
G03*
X91531250Y-142737500I-1J-1999999D01*
G01*
D14*
%TO.C,D61*%
X304237500Y-172767499D02*
X303337500Y-173667499D01*
X303337500Y-173667499D02*
X304237500Y-173667499D01*
X304237500Y-173667499D02*
X304237500Y-172767499D01*
G36*
X304237500Y-173667499D02*
G01*
X303337500Y-173667499D01*
X304237500Y-172767499D01*
X304237500Y-173667499D01*
G37*
X304237500Y-173667499D02*
X303337500Y-173667499D01*
X304237500Y-172767499D01*
X304237500Y-173667499D01*
D13*
%TO.C,MX52*%
X299837500Y-144937500D02*
X304937500Y-144937500D01*
X295937500Y-140737500D02*
X301037500Y-140737500D01*
X299837500Y-144937500D02*
G75*
G03*
X297837500Y-146937500I-1J-1999999D01*
G01*
X295937500Y-140737500D02*
G75*
G03*
X293937500Y-142737500I-1J-1999999D01*
G01*
D14*
%TO.C,D19*%
X175650000Y-115617499D02*
X174750000Y-116517499D01*
X174750000Y-116517499D02*
X175650000Y-116517499D01*
X175650000Y-116517499D02*
X175650000Y-115617499D01*
G36*
X175650000Y-116517499D02*
G01*
X174750000Y-116517499D01*
X175650000Y-115617499D01*
X175650000Y-116517499D01*
G37*
X175650000Y-116517499D02*
X174750000Y-116517499D01*
X175650000Y-115617499D01*
X175650000Y-116517499D01*
%TO.C,D27*%
X328050000Y-115617499D02*
X327150000Y-116517499D01*
X327150000Y-116517499D02*
X328050000Y-116517499D01*
X328050000Y-116517499D02*
X328050000Y-115617499D01*
G36*
X328050000Y-116517499D02*
G01*
X327150000Y-116517499D01*
X328050000Y-115617499D01*
X328050000Y-116517499D01*
G37*
X328050000Y-116517499D02*
X327150000Y-116517499D01*
X328050000Y-115617499D01*
X328050000Y-116517499D01*
D13*
%TO.C,MX35*%
X210212500Y-121687500D02*
X215312500Y-121687500D01*
X214112500Y-125887500D02*
X219212500Y-125887500D01*
X210212500Y-121687500D02*
G75*
G03*
X208212500Y-123687500I-1J-1999999D01*
G01*
X214112500Y-125887500D02*
G75*
G03*
X212112500Y-127887500I-1J-1999999D01*
G01*
D14*
%TO.C,D55*%
X94687500Y-172767499D02*
X93787500Y-173667499D01*
X93787500Y-173667499D02*
X94687500Y-173667499D01*
X94687500Y-173667499D02*
X94687500Y-172767499D01*
G36*
X94687500Y-173667499D02*
G01*
X93787500Y-173667499D01*
X94687500Y-172767499D01*
X94687500Y-173667499D01*
G37*
X94687500Y-173667499D02*
X93787500Y-173667499D01*
X94687500Y-172767499D01*
X94687500Y-173667499D01*
%TO.C,D54*%
X356625000Y-153717499D02*
X355725000Y-154617499D01*
X355725000Y-154617499D02*
X356625000Y-154617499D01*
X356625000Y-154617499D02*
X356625000Y-153717499D01*
G36*
X356625000Y-154617499D02*
G01*
X355725000Y-154617499D01*
X356625000Y-153717499D01*
X356625000Y-154617499D01*
G37*
X356625000Y-154617499D02*
X355725000Y-154617499D01*
X356625000Y-153717499D01*
X356625000Y-154617499D01*
D13*
%TO.C,MX46*%
X181637500Y-140737500D02*
X186737500Y-140737500D01*
X185537500Y-144937500D02*
X190637500Y-144937500D01*
X185537500Y-144937500D02*
G75*
G03*
X183537500Y-146937500I-1J-1999999D01*
G01*
X181637500Y-140737500D02*
G75*
G03*
X179637500Y-142737500I-1J-1999999D01*
G01*
%TO.C,MX29*%
X88768750Y-121687500D02*
X93868750Y-121687500D01*
X92668750Y-125887500D02*
X97768750Y-125887500D01*
X88768750Y-121687500D02*
G75*
G03*
X86768750Y-123687500I-1J-1999999D01*
G01*
X92668750Y-125887500D02*
G75*
G03*
X90668750Y-127887500I-1J-1999999D01*
G01*
D14*
%TO.C,D47*%
X208987500Y-153717499D02*
X208087500Y-154617499D01*
X208087500Y-154617499D02*
X208987500Y-154617499D01*
X208987500Y-154617499D02*
X208987500Y-153717499D01*
G36*
X208987500Y-154617499D02*
G01*
X208087500Y-154617499D01*
X208987500Y-153717499D01*
X208987500Y-154617499D01*
G37*
X208987500Y-154617499D02*
X208087500Y-154617499D01*
X208987500Y-153717499D01*
X208987500Y-154617499D01*
D13*
%TO.C,MX8*%
X214975000Y-83587500D02*
X220075000Y-83587500D01*
X218875000Y-87787500D02*
X223975000Y-87787500D01*
X214975000Y-83587500D02*
G75*
G03*
X212975000Y-85587500I-1J-1999999D01*
G01*
X218875000Y-87787500D02*
G75*
G03*
X216875000Y-89787500I-1J-1999999D01*
G01*
D14*
%TO.C,D7*%
X204225000Y-96567499D02*
X203325000Y-97467499D01*
X203325000Y-97467499D02*
X204225000Y-97467499D01*
X204225000Y-97467499D02*
X204225000Y-96567499D01*
G36*
X204225000Y-97467499D02*
G01*
X203325000Y-97467499D01*
X204225000Y-96567499D01*
X204225000Y-97467499D01*
G37*
X204225000Y-97467499D02*
X203325000Y-97467499D01*
X204225000Y-96567499D01*
X204225000Y-97467499D01*
D13*
%TO.C,MX61*%
X343562500Y-159787500D02*
X348662500Y-159787500D01*
X347462500Y-163987500D02*
X352562500Y-163987500D01*
X347462500Y-163987500D02*
G75*
G03*
X345462500Y-165987500I-1J-1999999D01*
G01*
X343562500Y-159787500D02*
G75*
G03*
X341562500Y-161787500I-1J-1999999D01*
G01*
D14*
%TO.C,D49*%
X247087500Y-153717499D02*
X246187500Y-154617499D01*
X246187500Y-154617499D02*
X247087500Y-154617499D01*
X247087500Y-154617499D02*
X247087500Y-153717499D01*
G36*
X247087500Y-154617499D02*
G01*
X246187500Y-154617499D01*
X247087500Y-153717499D01*
X247087500Y-154617499D01*
G37*
X247087500Y-154617499D02*
X246187500Y-154617499D01*
X247087500Y-153717499D01*
X247087500Y-154617499D01*
%TO.C,D26*%
X309000000Y-115617499D02*
X308100000Y-116517499D01*
X308100000Y-116517499D02*
X309000000Y-116517499D01*
X309000000Y-116517499D02*
X309000000Y-115617499D01*
G36*
X309000000Y-116517499D02*
G01*
X308100000Y-116517499D01*
X309000000Y-115617499D01*
X309000000Y-116517499D01*
G37*
X309000000Y-116517499D02*
X308100000Y-116517499D01*
X309000000Y-115617499D01*
X309000000Y-116517499D01*
%TO.C,D53*%
X330431250Y-153717499D02*
X329531250Y-154617499D01*
X329531250Y-154617499D02*
X330431250Y-154617499D01*
X330431250Y-154617499D02*
X330431250Y-153717499D01*
G36*
X330431250Y-154617499D02*
G01*
X329531250Y-154617499D01*
X330431250Y-153717499D01*
X330431250Y-154617499D01*
G37*
X330431250Y-154617499D02*
X329531250Y-154617499D01*
X330431250Y-153717499D01*
X330431250Y-154617499D01*
%TO.C,D34*%
X199462500Y-134667499D02*
X198562500Y-135567499D01*
X198562500Y-135567499D02*
X199462500Y-135567499D01*
X199462500Y-135567499D02*
X199462500Y-134667499D01*
G36*
X199462500Y-135567499D02*
G01*
X198562500Y-135567499D01*
X199462500Y-134667499D01*
X199462500Y-135567499D01*
G37*
X199462500Y-135567499D02*
X198562500Y-135567499D01*
X199462500Y-134667499D01*
X199462500Y-135567499D01*
%TO.C,D5*%
X166125000Y-96567499D02*
X165225000Y-97467499D01*
X165225000Y-97467499D02*
X166125000Y-97467499D01*
X166125000Y-97467499D02*
X166125000Y-96567499D01*
G36*
X166125000Y-97467499D02*
G01*
X165225000Y-97467499D01*
X166125000Y-96567499D01*
X166125000Y-97467499D01*
G37*
X166125000Y-97467499D02*
X165225000Y-97467499D01*
X166125000Y-96567499D01*
X166125000Y-97467499D01*
D13*
%TO.C,MX16*%
X110200000Y-102637500D02*
X115300000Y-102637500D01*
X114100000Y-106837500D02*
X119200000Y-106837500D01*
X114100000Y-106837500D02*
G75*
G03*
X112100000Y-108837500I-1J-1999999D01*
G01*
X110200000Y-102637500D02*
G75*
G03*
X108200000Y-104637500I-1J-1999999D01*
G01*
D14*
%TO.C,D18*%
X156600000Y-115617499D02*
X155700000Y-116517499D01*
X155700000Y-116517499D02*
X156600000Y-116517499D01*
X156600000Y-116517499D02*
X156600000Y-115617499D01*
G36*
X156600000Y-116517499D02*
G01*
X155700000Y-116517499D01*
X156600000Y-115617499D01*
X156600000Y-116517499D01*
G37*
X156600000Y-116517499D02*
X155700000Y-116517499D01*
X156600000Y-115617499D01*
X156600000Y-116517499D01*
D13*
%TO.C,MX57*%
X137912500Y-163987500D02*
X143012500Y-163987500D01*
X134012500Y-159787500D02*
X139112500Y-159787500D01*
X137912500Y-163987500D02*
G75*
G03*
X135912500Y-165987500I-1J-1999999D01*
G01*
X134012500Y-159787500D02*
G75*
G03*
X132012500Y-161787500I-1J-1999999D01*
G01*
%TO.C,MX37*%
X252212500Y-125887500D02*
X257312500Y-125887500D01*
X248312500Y-121687500D02*
X253412500Y-121687500D01*
X248312500Y-121687500D02*
G75*
G03*
X246312500Y-123687500I-1J-1999999D01*
G01*
X252212500Y-125887500D02*
G75*
G03*
X250212500Y-127887500I-1J-1999999D01*
G01*
D14*
%TO.C,D8*%
X223275000Y-96567499D02*
X222375000Y-97467499D01*
X222375000Y-97467499D02*
X223275000Y-97467499D01*
X223275000Y-97467499D02*
X223275000Y-96567499D01*
G36*
X223275000Y-97467499D02*
G01*
X222375000Y-97467499D01*
X223275000Y-96567499D01*
X223275000Y-97467499D01*
G37*
X223275000Y-97467499D02*
X222375000Y-97467499D01*
X223275000Y-96567499D01*
X223275000Y-97467499D01*
%TO.C,D50*%
X266137500Y-153717499D02*
X265237500Y-154617499D01*
X265237500Y-154617499D02*
X266137500Y-154617499D01*
X266137500Y-154617499D02*
X266137500Y-153717499D01*
G36*
X266137500Y-154617499D02*
G01*
X265237500Y-154617499D01*
X266137500Y-153717499D01*
X266137500Y-154617499D01*
G37*
X266137500Y-154617499D02*
X265237500Y-154617499D01*
X266137500Y-153717499D01*
X266137500Y-154617499D01*
D13*
%TO.C,MX5*%
X157825000Y-83587500D02*
X162925000Y-83587500D01*
X161725000Y-87787500D02*
X166825000Y-87787500D01*
X161725000Y-87787500D02*
G75*
G03*
X159725000Y-89787500I-1J-1999999D01*
G01*
X157825000Y-83587500D02*
G75*
G03*
X155825000Y-85587500I-1J-1999999D01*
G01*
D14*
%TO.C,D33*%
X180412500Y-134667499D02*
X179512500Y-135567499D01*
X179512500Y-135567499D02*
X180412500Y-135567499D01*
X180412500Y-135567499D02*
X180412500Y-134667499D01*
G36*
X180412500Y-135567499D02*
G01*
X179512500Y-135567499D01*
X180412500Y-134667499D01*
X180412500Y-135567499D01*
G37*
X180412500Y-135567499D02*
X179512500Y-135567499D01*
X180412500Y-134667499D01*
X180412500Y-135567499D01*
%TO.C,D42*%
X101831250Y-153717499D02*
X100931250Y-154617499D01*
X100931250Y-154617499D02*
X101831250Y-154617499D01*
X101831250Y-154617499D02*
X101831250Y-153717499D01*
G36*
X101831250Y-154617499D02*
G01*
X100931250Y-154617499D01*
X101831250Y-153717499D01*
X101831250Y-154617499D01*
G37*
X101831250Y-154617499D02*
X100931250Y-154617499D01*
X101831250Y-153717499D01*
X101831250Y-154617499D01*
%TO.C,D32*%
X161362500Y-134667499D02*
X160462500Y-135567499D01*
X160462500Y-135567499D02*
X161362500Y-135567499D01*
X161362500Y-135567499D02*
X161362500Y-134667499D01*
G36*
X161362500Y-135567499D02*
G01*
X160462500Y-135567499D01*
X161362500Y-134667499D01*
X161362500Y-135567499D01*
G37*
X161362500Y-135567499D02*
X160462500Y-135567499D01*
X161362500Y-134667499D01*
X161362500Y-135567499D01*
D13*
%TO.C,MX1*%
X81625000Y-83587500D02*
X86725000Y-83587500D01*
X85525000Y-87787500D02*
X90625000Y-87787500D01*
X85525000Y-87787500D02*
G75*
G03*
X83525000Y-89787500I-1J-1999999D01*
G01*
X81625000Y-83587500D02*
G75*
G03*
X79625000Y-85587500I-1J-1999999D01*
G01*
%TO.C,MX23*%
X243550000Y-102637500D02*
X248650000Y-102637500D01*
X247450000Y-106837500D02*
X252550000Y-106837500D01*
X243550000Y-102637500D02*
G75*
G03*
X241550000Y-104637500I-1J-1999999D01*
G01*
X247450000Y-106837500D02*
G75*
G03*
X245450000Y-108837500I-1J-1999999D01*
G01*
%TO.C,MX19*%
X167350000Y-102637500D02*
X172450000Y-102637500D01*
X171250000Y-106837500D02*
X176350000Y-106837500D01*
X167350000Y-102637500D02*
G75*
G03*
X165350000Y-104637500I-1J-1999999D01*
G01*
X171250000Y-106837500D02*
G75*
G03*
X169250000Y-108837500I-1J-1999999D01*
G01*
%TO.C,MX18*%
X148300000Y-102637500D02*
X153400000Y-102637500D01*
X152200000Y-106837500D02*
X157300000Y-106837500D01*
X152200000Y-106837500D02*
G75*
G03*
X150200000Y-108837500I-1J-1999999D01*
G01*
X148300000Y-102637500D02*
G75*
G03*
X146300000Y-104637500I-1J-1999999D01*
G01*
%TO.C,MX12*%
X295075000Y-87787500D02*
X300175000Y-87787500D01*
X291175000Y-83587500D02*
X296275000Y-83587500D01*
X295075000Y-87787500D02*
G75*
G03*
X293075000Y-89787500I-1J-1999999D01*
G01*
X291175000Y-83587500D02*
G75*
G03*
X289175000Y-85587500I-1J-1999999D01*
G01*
D14*
%TO.C,D36*%
X237562500Y-134667499D02*
X236662500Y-135567499D01*
X236662500Y-135567499D02*
X237562500Y-135567499D01*
X237562500Y-135567499D02*
X237562500Y-134667499D01*
G36*
X237562500Y-135567499D02*
G01*
X236662500Y-135567499D01*
X237562500Y-134667499D01*
X237562500Y-135567499D01*
G37*
X237562500Y-135567499D02*
X236662500Y-135567499D01*
X237562500Y-134667499D01*
X237562500Y-135567499D01*
D13*
%TO.C,MX51*%
X276887500Y-140737500D02*
X281987500Y-140737500D01*
X280787500Y-144937500D02*
X285887500Y-144937500D01*
X280787500Y-144937500D02*
G75*
G03*
X278787500Y-146937500I-1J-1999999D01*
G01*
X276887500Y-140737500D02*
G75*
G03*
X274887500Y-142737500I-1J-1999999D01*
G01*
%TO.C,MX44*%
X143537500Y-140737500D02*
X148637500Y-140737500D01*
X147437500Y-144937500D02*
X152537500Y-144937500D01*
X147437500Y-144937500D02*
G75*
G03*
X145437500Y-146937500I-1J-1999999D01*
G01*
X143537500Y-140737500D02*
G75*
G03*
X141537500Y-142737500I-1J-1999999D01*
G01*
D14*
%TO.C,D20*%
X194700000Y-115617499D02*
X193800000Y-116517499D01*
X193800000Y-116517499D02*
X194700000Y-116517499D01*
X194700000Y-116517499D02*
X194700000Y-115617499D01*
G36*
X194700000Y-116517499D02*
G01*
X193800000Y-116517499D01*
X194700000Y-115617499D01*
X194700000Y-116517499D01*
G37*
X194700000Y-116517499D02*
X193800000Y-116517499D01*
X194700000Y-115617499D01*
X194700000Y-116517499D01*
%TO.C,D23*%
X251850000Y-115617499D02*
X250950000Y-116517499D01*
X250950000Y-116517499D02*
X251850000Y-116517499D01*
X251850000Y-116517499D02*
X251850000Y-115617499D01*
G36*
X251850000Y-116517499D02*
G01*
X250950000Y-116517499D01*
X251850000Y-115617499D01*
X251850000Y-116517499D01*
G37*
X251850000Y-116517499D02*
X250950000Y-116517499D01*
X251850000Y-115617499D01*
X251850000Y-116517499D01*
D13*
%TO.C,MX22*%
X224500000Y-102637500D02*
X229600000Y-102637500D01*
X228400000Y-106837500D02*
X233500000Y-106837500D01*
X224500000Y-102637500D02*
G75*
G03*
X222500000Y-104637500I-1J-1999999D01*
G01*
X228400000Y-106837500D02*
G75*
G03*
X226400000Y-108837500I-1J-1999999D01*
G01*
D14*
%TO.C,D31*%
X142312500Y-134667499D02*
X141412500Y-135567499D01*
X141412500Y-135567499D02*
X142312500Y-135567499D01*
X142312500Y-135567499D02*
X142312500Y-134667499D01*
G36*
X142312500Y-135567499D02*
G01*
X141412500Y-135567499D01*
X142312500Y-134667499D01*
X142312500Y-135567499D01*
G37*
X142312500Y-135567499D02*
X141412500Y-135567499D01*
X142312500Y-134667499D01*
X142312500Y-135567499D01*
%TO.C,D59*%
X223275000Y-172767499D02*
X222375000Y-173667499D01*
X222375000Y-173667499D02*
X223275000Y-173667499D01*
X223275000Y-173667499D02*
X223275000Y-172767499D01*
G36*
X223275000Y-173667499D02*
G01*
X222375000Y-173667499D01*
X223275000Y-172767499D01*
X223275000Y-173667499D01*
G37*
X223275000Y-173667499D02*
X222375000Y-173667499D01*
X223275000Y-172767499D01*
X223275000Y-173667499D01*
D13*
%TO.C,MX49*%
X242687500Y-144937500D02*
X247787500Y-144937500D01*
X238787500Y-140737500D02*
X243887500Y-140737500D01*
X242687500Y-144937500D02*
G75*
G03*
X240687500Y-146937500I-1J-1999999D01*
G01*
X238787500Y-140737500D02*
G75*
G03*
X236787500Y-142737500I-1J-1999999D01*
G01*
D14*
%TO.C,D4*%
X147075000Y-96567499D02*
X146175000Y-97467499D01*
X146175000Y-97467499D02*
X147075000Y-97467499D01*
X147075000Y-97467499D02*
X147075000Y-96567499D01*
G36*
X147075000Y-97467499D02*
G01*
X146175000Y-97467499D01*
X147075000Y-96567499D01*
X147075000Y-97467499D01*
G37*
X147075000Y-97467499D02*
X146175000Y-97467499D01*
X147075000Y-96567499D01*
X147075000Y-97467499D01*
D13*
%TO.C,MX27*%
X323650000Y-106837500D02*
X328750000Y-106837500D01*
X319750000Y-102637500D02*
X324850000Y-102637500D01*
X323650000Y-106837500D02*
G75*
G03*
X321650000Y-108837500I-1J-1999999D01*
G01*
X319750000Y-102637500D02*
G75*
G03*
X317750000Y-104637500I-1J-1999999D01*
G01*
D14*
%TO.C,D25*%
X289950000Y-115617499D02*
X289050000Y-116517499D01*
X289050000Y-116517499D02*
X289950000Y-116517499D01*
X289950000Y-116517499D02*
X289950000Y-115617499D01*
G36*
X289950000Y-116517499D02*
G01*
X289050000Y-116517499D01*
X289950000Y-115617499D01*
X289950000Y-116517499D01*
G37*
X289950000Y-116517499D02*
X289050000Y-116517499D01*
X289950000Y-115617499D01*
X289950000Y-116517499D01*
%TO.C,D17*%
X137550000Y-115617499D02*
X136650000Y-116517499D01*
X136650000Y-116517499D02*
X137550000Y-116517499D01*
X137550000Y-116517499D02*
X137550000Y-115617499D01*
G36*
X137550000Y-116517499D02*
G01*
X136650000Y-116517499D01*
X137550000Y-115617499D01*
X137550000Y-116517499D01*
G37*
X137550000Y-116517499D02*
X136650000Y-116517499D01*
X137550000Y-115617499D01*
X137550000Y-116517499D01*
D13*
%TO.C,MX39*%
X290312500Y-125887500D02*
X295412500Y-125887500D01*
X286412500Y-121687500D02*
X291512500Y-121687500D01*
X290312500Y-125887500D02*
G75*
G03*
X288312500Y-127887500I-1J-1999999D01*
G01*
X286412500Y-121687500D02*
G75*
G03*
X284412500Y-123687500I-1J-1999999D01*
G01*
%TO.C,MX28*%
X347462500Y-106837500D02*
X352562500Y-106837500D01*
X343562500Y-102637500D02*
X348662500Y-102637500D01*
X347462500Y-106837500D02*
G75*
G03*
X345462500Y-108837500I-1J-1999999D01*
G01*
X343562500Y-102637500D02*
G75*
G03*
X341562500Y-104637500I-1J-1999999D01*
G01*
D14*
%TO.C,D40*%
X313762500Y-134667499D02*
X312862500Y-135567499D01*
X312862500Y-135567499D02*
X313762500Y-135567499D01*
X313762500Y-135567499D02*
X313762500Y-134667499D01*
G36*
X313762500Y-135567499D02*
G01*
X312862500Y-135567499D01*
X313762500Y-134667499D01*
X313762500Y-135567499D01*
G37*
X313762500Y-135567499D02*
X312862500Y-135567499D01*
X313762500Y-134667499D01*
X313762500Y-135567499D01*
%TO.C,D28*%
X351862500Y-115617499D02*
X350962500Y-116517499D01*
X350962500Y-116517499D02*
X351862500Y-116517499D01*
X351862500Y-116517499D02*
X351862500Y-115617499D01*
G36*
X351862500Y-116517499D02*
G01*
X350962500Y-116517499D01*
X351862500Y-115617499D01*
X351862500Y-116517499D01*
G37*
X351862500Y-116517499D02*
X350962500Y-116517499D01*
X351862500Y-115617499D01*
X351862500Y-116517499D01*
%TO.C,D52*%
X304237500Y-153717499D02*
X303337500Y-154617499D01*
X303337500Y-154617499D02*
X304237500Y-154617499D01*
X304237500Y-154617499D02*
X304237500Y-153717499D01*
G36*
X304237500Y-154617499D02*
G01*
X303337500Y-154617499D01*
X304237500Y-153717499D01*
X304237500Y-154617499D01*
G37*
X304237500Y-154617499D02*
X303337500Y-154617499D01*
X304237500Y-153717499D01*
X304237500Y-154617499D01*
D13*
%TO.C,MX40*%
X309362500Y-125887500D02*
X314462500Y-125887500D01*
X305462500Y-121687500D02*
X310562500Y-121687500D01*
X309362500Y-125887500D02*
G75*
G03*
X307362500Y-127887500I-1J-1999999D01*
G01*
X305462500Y-121687500D02*
G75*
G03*
X303462500Y-123687500I-1J-1999999D01*
G01*
%TO.C,MX14*%
X342700000Y-87787500D02*
X347800000Y-87787500D01*
X338800000Y-83587500D02*
X343900000Y-83587500D01*
X342700000Y-87787500D02*
G75*
G03*
X340700000Y-89787500I-1J-1999999D01*
G01*
X338800000Y-83587500D02*
G75*
G03*
X336800000Y-85587500I-1J-1999999D01*
G01*
D14*
%TO.C,D37*%
X256612500Y-134667499D02*
X255712500Y-135567499D01*
X255712500Y-135567499D02*
X256612500Y-135567499D01*
X256612500Y-135567499D02*
X256612500Y-134667499D01*
G36*
X256612500Y-135567499D02*
G01*
X255712500Y-135567499D01*
X256612500Y-134667499D01*
X256612500Y-135567499D01*
G37*
X256612500Y-135567499D02*
X255712500Y-135567499D01*
X256612500Y-134667499D01*
X256612500Y-135567499D01*
%TO.C,D1*%
X89925000Y-96567499D02*
X89025000Y-97467499D01*
X89025000Y-97467499D02*
X89925000Y-97467499D01*
X89925000Y-97467499D02*
X89925000Y-96567499D01*
G36*
X89925000Y-97467499D02*
G01*
X89025000Y-97467499D01*
X89925000Y-96567499D01*
X89925000Y-97467499D01*
G37*
X89925000Y-97467499D02*
X89025000Y-97467499D01*
X89925000Y-96567499D01*
X89925000Y-97467499D01*
D13*
%TO.C,MX59*%
X299837500Y-163987500D02*
X304937500Y-163987500D01*
X295937500Y-159787500D02*
X301037500Y-159787500D01*
X299837500Y-163987500D02*
G75*
G03*
X297837500Y-165987500I-1J-1999999D01*
G01*
X295937500Y-159787500D02*
G75*
G03*
X293937500Y-161787500I-1J-1999999D01*
G01*
D14*
%TO.C,D15*%
X94687500Y-115617499D02*
X93787500Y-116517499D01*
X93787500Y-116517499D02*
X94687500Y-116517499D01*
X94687500Y-116517499D02*
X94687500Y-115617499D01*
G36*
X94687500Y-116517499D02*
G01*
X93787500Y-116517499D01*
X94687500Y-115617499D01*
X94687500Y-116517499D01*
G37*
X94687500Y-116517499D02*
X93787500Y-116517499D01*
X94687500Y-115617499D01*
X94687500Y-116517499D01*
D13*
%TO.C,MX4*%
X142675000Y-87787500D02*
X147775000Y-87787500D01*
X138775000Y-83587500D02*
X143875000Y-83587500D01*
X142675000Y-87787500D02*
G75*
G03*
X140675000Y-89787500I-1J-1999999D01*
G01*
X138775000Y-83587500D02*
G75*
G03*
X136775000Y-85587500I-1J-1999999D01*
G01*
D14*
%TO.C,D10*%
X261375000Y-96567499D02*
X260475000Y-97467499D01*
X260475000Y-97467499D02*
X261375000Y-97467499D01*
X261375000Y-97467499D02*
X261375000Y-96567499D01*
G36*
X261375000Y-97467499D02*
G01*
X260475000Y-97467499D01*
X261375000Y-96567499D01*
X261375000Y-97467499D01*
G37*
X261375000Y-97467499D02*
X260475000Y-97467499D01*
X261375000Y-96567499D01*
X261375000Y-97467499D01*
D13*
%TO.C,MX6*%
X176875000Y-83587500D02*
X181975000Y-83587500D01*
X180775000Y-87787500D02*
X185875000Y-87787500D01*
X180775000Y-87787500D02*
G75*
G03*
X178775000Y-89787500I-1J-1999999D01*
G01*
X176875000Y-83587500D02*
G75*
G03*
X174875000Y-85587500I-1J-1999999D01*
G01*
D14*
%TO.C,D44*%
X151837500Y-153717499D02*
X150937500Y-154617499D01*
X150937500Y-154617499D02*
X151837500Y-154617499D01*
X151837500Y-154617499D02*
X151837500Y-153717499D01*
G36*
X151837500Y-154617499D02*
G01*
X150937500Y-154617499D01*
X151837500Y-153717499D01*
X151837500Y-154617499D01*
G37*
X151837500Y-154617499D02*
X150937500Y-154617499D01*
X151837500Y-153717499D01*
X151837500Y-154617499D01*
%TO.C,D9*%
X242325000Y-96567499D02*
X241425000Y-97467499D01*
X241425000Y-97467499D02*
X242325000Y-97467499D01*
X242325000Y-97467499D02*
X242325000Y-96567499D01*
G36*
X242325000Y-97467499D02*
G01*
X241425000Y-97467499D01*
X242325000Y-96567499D01*
X242325000Y-97467499D01*
G37*
X242325000Y-97467499D02*
X241425000Y-97467499D01*
X242325000Y-96567499D01*
X242325000Y-97467499D01*
D13*
%TO.C,MX32*%
X156962500Y-125887500D02*
X162062500Y-125887500D01*
X153062500Y-121687500D02*
X158162500Y-121687500D01*
X153062500Y-121687500D02*
G75*
G03*
X151062500Y-123687500I-1J-1999999D01*
G01*
X156962500Y-125887500D02*
G75*
G03*
X154962500Y-127887500I-1J-1999999D01*
G01*
%TO.C,MX17*%
X133150000Y-106837500D02*
X138250000Y-106837500D01*
X129250000Y-102637500D02*
X134350000Y-102637500D01*
X133150000Y-106837500D02*
G75*
G03*
X131150000Y-108837500I-1J-1999999D01*
G01*
X129250000Y-102637500D02*
G75*
G03*
X127250000Y-104637500I-1J-1999999D01*
G01*
%TO.C,MX45*%
X166487500Y-144937500D02*
X171587500Y-144937500D01*
X162587500Y-140737500D02*
X167687500Y-140737500D01*
X162587500Y-140737500D02*
G75*
G03*
X160587500Y-142737500I-1J-1999999D01*
G01*
X166487500Y-144937500D02*
G75*
G03*
X164487500Y-146937500I-1J-1999999D01*
G01*
%TO.C,MX36*%
X233162500Y-125887500D02*
X238262500Y-125887500D01*
X229262500Y-121687500D02*
X234362500Y-121687500D01*
X229262500Y-121687500D02*
G75*
G03*
X227262500Y-123687500I-1J-1999999D01*
G01*
X233162500Y-125887500D02*
G75*
G03*
X231162500Y-127887500I-1J-1999999D01*
G01*
%TO.C,PB0*%
X237969000Y-111140000D02*
G75*
G03*
X237969000Y-111140000I-950000J0D01*
G01*
%TO.C,C12*%
X85490000Y-113169420D02*
X85490000Y-113450580D01*
X84470000Y-113169420D02*
X84470000Y-113450580D01*
%TO.C,SW1*%
X244280000Y-95360000D02*
X243830000Y-95810000D01*
X247580000Y-94310000D02*
X245580000Y-94310000D01*
X244280000Y-98760000D02*
X243830000Y-98310000D01*
X247580000Y-99810000D02*
X245580000Y-99810000D01*
X249330000Y-98310000D02*
X249330000Y-95810000D01*
X243830000Y-98310000D02*
X243830000Y-95810000D01*
X248880000Y-98760000D02*
X249330000Y-98310000D01*
X248880000Y-95360000D02*
X249330000Y-95810000D01*
%TO.C,D81*%
X225560000Y-129000000D02*
X225560000Y-128350000D01*
X222440000Y-129000000D02*
X222440000Y-129650000D01*
X225560000Y-129000000D02*
X225560000Y-130675000D01*
X222440000Y-129000000D02*
X222440000Y-128350000D01*
%TO.C,C5*%
X216419420Y-120200000D02*
X216700580Y-120200000D01*
X216419420Y-121220000D02*
X216700580Y-121220000D01*
%TO.C,D83*%
X302042000Y-122000000D02*
X302042000Y-121350000D01*
X298922000Y-122000000D02*
X298922000Y-122650000D01*
X302042000Y-122000000D02*
X302042000Y-123675000D01*
X298922000Y-122000000D02*
X298922000Y-121350000D01*
%TO.C,D72*%
X144910000Y-103000000D02*
X144910000Y-104675000D01*
X144910000Y-103000000D02*
X144910000Y-102350000D01*
X141790000Y-103000000D02*
X141790000Y-103650000D01*
X141790000Y-103000000D02*
X141790000Y-102350000D01*
%TO.C,D65*%
X132294000Y-84000000D02*
X132294000Y-83350000D01*
X132294000Y-84000000D02*
X132294000Y-84650000D01*
X135414000Y-84000000D02*
X135414000Y-85675000D01*
X135414000Y-84000000D02*
X135414000Y-83350000D01*
%TO.C,D64*%
X97306000Y-84000000D02*
X97306000Y-85675000D01*
X94186000Y-84000000D02*
X94186000Y-83350000D01*
X94186000Y-84000000D02*
X94186000Y-84650000D01*
X97306000Y-84000000D02*
X97306000Y-83350000D01*
%TO.C,C6*%
X227531219Y-118179970D02*
X227730030Y-118378781D01*
X226809970Y-118901219D02*
X227008781Y-119100030D01*
%TO.C,C10*%
X83000000Y-174700580D02*
X83000000Y-174419420D01*
X81980000Y-174700580D02*
X81980000Y-174419420D01*
%TO.C,D77*%
X340194000Y-103000000D02*
X340194000Y-102350000D01*
X340194000Y-103000000D02*
X340194000Y-104675000D01*
X337074000Y-103000000D02*
X337074000Y-102350000D01*
X337074000Y-103000000D02*
X337074000Y-103650000D01*
%TO.C,D91*%
X344916000Y-141000000D02*
X344916000Y-140350000D01*
X341796000Y-141000000D02*
X341796000Y-140350000D01*
X341796000Y-141000000D02*
X341796000Y-141650000D01*
X344916000Y-141000000D02*
X344916000Y-142675000D01*
%TO.C,D67*%
X208440000Y-84000000D02*
X208440000Y-83350000D01*
X208440000Y-84000000D02*
X208440000Y-84650000D01*
X211560000Y-84000000D02*
X211560000Y-85675000D01*
X211560000Y-84000000D02*
X211560000Y-83350000D01*
%TO.C,D87*%
X175117000Y-141000000D02*
X175117000Y-140350000D01*
X178237000Y-141000000D02*
X178237000Y-142675000D01*
X175117000Y-141000000D02*
X175117000Y-141650000D01*
X178237000Y-141000000D02*
X178237000Y-140350000D01*
%TO.C,PF7*%
X214165000Y-120713000D02*
G75*
G03*
X214165000Y-120713000I-950000J0D01*
G01*
%TO.C,D93*%
X153970000Y-160000000D02*
X153970000Y-159350000D01*
X153970000Y-160000000D02*
X153970000Y-161675000D01*
X150850000Y-160000000D02*
X150850000Y-159350000D01*
X150850000Y-160000000D02*
X150850000Y-160650000D01*
%TO.C,D94*%
X208437000Y-160000000D02*
X208437000Y-160650000D01*
X211557000Y-160000000D02*
X211557000Y-161675000D01*
X208437000Y-160000000D02*
X208437000Y-159350000D01*
X211557000Y-160000000D02*
X211557000Y-159350000D01*
%TO.C,D73*%
X183019000Y-103000000D02*
X183019000Y-104675000D01*
X179899000Y-103000000D02*
X179899000Y-103650000D01*
X183019000Y-103000000D02*
X183019000Y-102350000D01*
X179899000Y-103000000D02*
X179899000Y-102350000D01*
%TO.C,D70*%
X322940000Y-84000000D02*
X322940000Y-84650000D01*
X322940000Y-84000000D02*
X322940000Y-83350000D01*
X326060000Y-84000000D02*
X326060000Y-83350000D01*
X326060000Y-84000000D02*
X326060000Y-85675000D01*
%TO.C,D66*%
X169055000Y-87790000D02*
X169055000Y-88440000D01*
X172175000Y-87790000D02*
X172175000Y-87140000D01*
X169055000Y-87790000D02*
X169055000Y-87140000D01*
X172175000Y-87790000D02*
X172175000Y-89465000D01*
%TO.C,C2*%
X216999420Y-108940000D02*
X217280580Y-108940000D01*
X216999420Y-107920000D02*
X217280580Y-107920000D01*
%TO.C,D68*%
X246577000Y-84000000D02*
X246577000Y-84650000D01*
X246577000Y-84000000D02*
X246577000Y-83350000D01*
X249697000Y-84000000D02*
X249697000Y-85675000D01*
X249697000Y-84000000D02*
X249697000Y-83350000D01*
%TO.C,R4*%
X203972742Y-116452500D02*
X204447258Y-116452500D01*
X203972742Y-115407500D02*
X204447258Y-115407500D01*
%TO.C,D76*%
X297304000Y-103000000D02*
X297304000Y-104675000D01*
X294184000Y-103000000D02*
X294184000Y-102350000D01*
X297304000Y-103000000D02*
X297304000Y-102350000D01*
X294184000Y-103000000D02*
X294184000Y-103650000D01*
%TO.C,D80*%
X187764000Y-122000000D02*
X187764000Y-121350000D01*
X184644000Y-122000000D02*
X184644000Y-121350000D01*
X187764000Y-122000000D02*
X187764000Y-123675000D01*
X184644000Y-122000000D02*
X184644000Y-122650000D01*
%TO.C,D86*%
X140060000Y-141000000D02*
X140060000Y-140350000D01*
X140060000Y-141000000D02*
X140060000Y-142675000D01*
X136940000Y-141000000D02*
X136940000Y-141650000D01*
X136940000Y-141000000D02*
X136940000Y-140350000D01*
%TO.C,U1*%
X224180311Y-115093750D02*
X223667659Y-114581098D01*
X223667659Y-115606402D02*
X224180311Y-115093750D01*
X218562348Y-110501091D02*
X219075000Y-109988439D01*
X219587652Y-119686409D02*
X219075000Y-120199061D01*
X219075000Y-120199061D02*
X218562348Y-119686409D01*
X214482341Y-114581098D02*
X213969689Y-115093750D01*
X213969689Y-115093750D02*
X214482341Y-115606402D01*
%TO.C,D69*%
X284676000Y-84000000D02*
X284676000Y-83350000D01*
X287796000Y-84000000D02*
X287796000Y-83350000D01*
X287796000Y-84000000D02*
X287796000Y-85675000D01*
X284676000Y-84000000D02*
X284676000Y-84650000D01*
%TO.C,C1*%
X213339580Y-100524000D02*
X213058420Y-100524000D01*
X213339580Y-101544000D02*
X213058420Y-101544000D01*
%TO.C,D74*%
X221156000Y-103000000D02*
X221156000Y-102350000D01*
X218036000Y-103000000D02*
X218036000Y-102350000D01*
X218036000Y-103000000D02*
X218036000Y-103650000D01*
X221156000Y-103000000D02*
X221156000Y-104675000D01*
%TO.C,D85*%
X121060000Y-140969000D02*
X121060000Y-142644000D01*
X117940000Y-140969000D02*
X117940000Y-141619000D01*
X121060000Y-140969000D02*
X121060000Y-140319000D01*
X117940000Y-140969000D02*
X117940000Y-140319000D01*
%TO.C,D79*%
X149645000Y-122000000D02*
X149645000Y-121350000D01*
X146525000Y-122000000D02*
X146525000Y-122650000D01*
X149645000Y-122000000D02*
X149645000Y-123675000D01*
X146525000Y-122000000D02*
X146525000Y-121350000D01*
%TO.C,C8*%
X223350580Y-111660000D02*
X223069420Y-111660000D01*
X223350580Y-110640000D02*
X223069420Y-110640000D01*
%TO.C,C13*%
X85200000Y-135810580D02*
X85200000Y-135529420D01*
X86220000Y-135810580D02*
X86220000Y-135529420D01*
%TO.C,C3*%
X217010420Y-110330000D02*
X217291580Y-110330000D01*
X217010420Y-109310000D02*
X217291580Y-109310000D01*
%TO.C,D89*%
X254560000Y-140948000D02*
X254560000Y-142623000D01*
X251440000Y-140948000D02*
X251440000Y-141598000D01*
X251440000Y-140948000D02*
X251440000Y-140298000D01*
X254560000Y-140948000D02*
X254560000Y-140298000D01*
%TO.C,D88*%
X213229000Y-141000000D02*
X213229000Y-141650000D01*
X216349000Y-141000000D02*
X216349000Y-140350000D01*
X216349000Y-141000000D02*
X216349000Y-142675000D01*
X213229000Y-141000000D02*
X213229000Y-140350000D01*
%TO.C,D75*%
X259201000Y-103000000D02*
X259201000Y-102350000D01*
X259201000Y-103000000D02*
X259201000Y-104675000D01*
X256081000Y-103000000D02*
X256081000Y-102350000D01*
X256081000Y-103000000D02*
X256081000Y-103650000D01*
%TO.C,C9*%
X91280000Y-150929420D02*
X91280000Y-151210580D01*
X92300000Y-150929420D02*
X92300000Y-151210580D01*
%TO.C,D95*%
X292555000Y-160000000D02*
X292555000Y-161675000D01*
X289435000Y-160000000D02*
X289435000Y-160650000D01*
X292555000Y-160000000D02*
X292555000Y-159350000D01*
X289435000Y-160000000D02*
X289435000Y-159350000D01*
%TO.C,C11*%
X78770000Y-98879420D02*
X78770000Y-99160580D01*
X77750000Y-98879420D02*
X77750000Y-99160580D01*
%TO.C,D82*%
X260835000Y-122000000D02*
X260835000Y-121350000D01*
X260835000Y-122000000D02*
X260835000Y-122650000D01*
X263955000Y-122000000D02*
X263955000Y-123675000D01*
X263955000Y-122000000D02*
X263955000Y-121350000D01*
%TO.C,D96*%
X337077000Y-160000000D02*
X337077000Y-159350000D01*
X337077000Y-160000000D02*
X337077000Y-160650000D01*
X340197000Y-160000000D02*
X340197000Y-159350000D01*
X340197000Y-160000000D02*
X340197000Y-161675000D01*
%TO.C,D71*%
X106826000Y-103000000D02*
X106826000Y-104675000D01*
X103706000Y-103000000D02*
X103706000Y-102350000D01*
X106826000Y-103000000D02*
X106826000Y-102350000D01*
X103706000Y-103000000D02*
X103706000Y-103650000D01*
%TO.C,D90*%
X292560000Y-141000000D02*
X292560000Y-142675000D01*
X289440000Y-141000000D02*
X289440000Y-140350000D01*
X289440000Y-141000000D02*
X289440000Y-141650000D01*
X292560000Y-141000000D02*
X292560000Y-140350000D01*
%TO.C,D84*%
X321744000Y-122000000D02*
X321744000Y-122650000D01*
X321744000Y-122000000D02*
X321744000Y-121350000D01*
X324864000Y-122000000D02*
X324864000Y-123675000D01*
X324864000Y-122000000D02*
X324864000Y-121350000D01*
%TO.C,R3*%
X232192500Y-96637258D02*
X232192500Y-96162742D01*
X231147500Y-96637258D02*
X231147500Y-96162742D01*
%TO.C,D92*%
X106778000Y-160000000D02*
X106778000Y-161675000D01*
X103658000Y-160000000D02*
X103658000Y-159350000D01*
X106778000Y-160000000D02*
X106778000Y-159350000D01*
X103658000Y-160000000D02*
X103658000Y-160650000D01*
%TO.C,C7*%
X223870030Y-122098781D02*
X223671219Y-121899970D01*
X223148781Y-122820030D02*
X222949970Y-122621219D01*
%TO.C,D78*%
X108440000Y-122000000D02*
X108440000Y-122650000D01*
X111560000Y-122000000D02*
X111560000Y-123675000D01*
X111560000Y-122000000D02*
X111560000Y-121350000D01*
X108440000Y-122000000D02*
X108440000Y-121350000D01*
%TO.C,J1*%
X225450000Y-94840000D02*
X229320000Y-94840000D01*
X225450000Y-102120000D02*
X225450000Y-94840000D01*
X229320000Y-94840000D02*
X230190000Y-95730000D01*
X230190000Y-95730000D02*
X230190000Y-102120000D01*
X230190000Y-102120000D02*
X225450000Y-102120000D01*
D12*
%TO.C,J2*%
X212560000Y-100100000D02*
X212560000Y-97700000D01*
X206560000Y-100100000D02*
X207560000Y-100100000D01*
X211560000Y-100100000D02*
X212560000Y-100100000D01*
X211560000Y-95900000D02*
X207560000Y-95900000D01*
X206560000Y-97700000D02*
X206560000Y-100100000D01*
D13*
%TO.C,C4*%
X211850000Y-110919420D02*
X211850000Y-111200580D01*
X212870000Y-110919420D02*
X212870000Y-111200580D01*
%TD*%
%LPC*%
D15*
%TO.C,MX11*%
X281305000Y-90487500D03*
D16*
X278765000Y-85407500D03*
X272415000Y-87947500D03*
D17*
X276225000Y-90487500D03*
D15*
X271145000Y-90487500D03*
D18*
X269140000Y-87947500D03*
X282067000Y-85407500D03*
%TD*%
D19*
%TO.C,D39*%
X287912500Y-132917499D03*
X287912500Y-134417499D03*
X293112500Y-134417499D03*
X293112500Y-132917499D03*
%TD*%
%TO.C,D3*%
X121225000Y-94817499D03*
X121225000Y-96317499D03*
X126425000Y-96317499D03*
X126425000Y-94817499D03*
%TD*%
%TO.C,D12*%
X292675000Y-94817499D03*
X292675000Y-96317499D03*
X297875000Y-96317499D03*
X297875000Y-94817499D03*
%TD*%
%TO.C,D60*%
X254575000Y-171017499D03*
X254575000Y-172517499D03*
X259775000Y-172517499D03*
X259775000Y-171017499D03*
%TD*%
D15*
%TO.C,MX60*%
X318770000Y-166687500D03*
D16*
X320040000Y-164147500D03*
X326390000Y-161607500D03*
D17*
X323850000Y-166687500D03*
D15*
X328930000Y-166687500D03*
D18*
X316765000Y-164147500D03*
X329692000Y-161607500D03*
%TD*%
D15*
%TO.C,MX56*%
X109220000Y-166687500D03*
D16*
X116840000Y-161607500D03*
X110490000Y-164147500D03*
D17*
X114300000Y-166687500D03*
D15*
X119380000Y-166687500D03*
D18*
X107215000Y-164147500D03*
X120142000Y-161607500D03*
%TD*%
D16*
%TO.C,MX13*%
X316865000Y-85407500D03*
D15*
X319405000Y-90487500D03*
D17*
X314325000Y-90487500D03*
D16*
X310515000Y-87947500D03*
D15*
X309245000Y-90487500D03*
D18*
X307240000Y-87947500D03*
X320167000Y-85407500D03*
%TD*%
D19*
%TO.C,D35*%
X211712500Y-132917499D03*
X211712500Y-134417499D03*
X216912500Y-134417499D03*
X216912500Y-132917499D03*
%TD*%
D15*
%TO.C,MX58*%
X213995000Y-166687500D03*
D16*
X215265000Y-164147500D03*
X221615000Y-161607500D03*
D17*
X219075000Y-166687500D03*
D15*
X224155000Y-166687500D03*
D18*
X211990000Y-164147500D03*
X224917000Y-161607500D03*
%TD*%
D16*
%TO.C,MX26*%
X307340000Y-104457500D03*
D15*
X309880000Y-109537500D03*
D17*
X304800000Y-109537500D03*
D15*
X299720000Y-109537500D03*
D16*
X300990000Y-106997500D03*
D18*
X297715000Y-106997500D03*
X310642000Y-104457500D03*
%TD*%
D19*
%TO.C,D46*%
X183137500Y-151967499D03*
X183137500Y-153467499D03*
X188337500Y-153467499D03*
X188337500Y-151967499D03*
%TD*%
%TO.C,D63*%
X345062500Y-171017499D03*
X345062500Y-172517499D03*
X350262500Y-172517499D03*
X350262500Y-171017499D03*
%TD*%
D17*
%TO.C,MX47*%
X204787500Y-147637500D03*
D15*
X209867500Y-147637500D03*
X199707500Y-147637500D03*
D16*
X207327500Y-142557500D03*
X200977500Y-145097500D03*
D18*
X197702500Y-145097500D03*
X210629500Y-142557500D03*
%TD*%
D20*
%TO.C,*%
X149450000Y-166682000D03*
%TD*%
D19*
%TO.C,D22*%
X226000000Y-113867499D03*
X226000000Y-115367499D03*
X231200000Y-115367499D03*
X231200000Y-113867499D03*
%TD*%
%TO.C,D30*%
X116462500Y-132917499D03*
X116462500Y-134417499D03*
X121662500Y-134417499D03*
X121662500Y-132917499D03*
%TD*%
D15*
%TO.C,MX54*%
X347345000Y-147637500D03*
D16*
X354965000Y-142557500D03*
X348615000Y-145097500D03*
D15*
X357505000Y-147637500D03*
D17*
X352425000Y-147637500D03*
D18*
X345340000Y-145097500D03*
X358267000Y-142557500D03*
%TD*%
D20*
%TO.C,*%
X119065000Y-147635000D03*
%TD*%
D19*
%TO.C,D43*%
X125987500Y-151967499D03*
X125987500Y-153467499D03*
X131187500Y-153467499D03*
X131187500Y-151967499D03*
%TD*%
%TO.C,D51*%
X278387500Y-151967499D03*
X278387500Y-153467499D03*
X283587500Y-153467499D03*
X283587500Y-151967499D03*
%TD*%
%TO.C,D13*%
X311725000Y-94817499D03*
X311725000Y-96317499D03*
X316925000Y-96317499D03*
X316925000Y-94817499D03*
%TD*%
%TO.C,D29*%
X90268750Y-132917499D03*
X90268750Y-134417499D03*
X95468750Y-134417499D03*
X95468750Y-132917499D03*
%TD*%
D15*
%TO.C,MX10*%
X262255000Y-90487500D03*
D16*
X253365000Y-87947500D03*
D17*
X257175000Y-90487500D03*
D15*
X252095000Y-90487500D03*
D16*
X259715000Y-85407500D03*
D18*
X250090000Y-87947500D03*
X263017000Y-85407500D03*
%TD*%
D16*
%TO.C,MX48*%
X226377500Y-142557500D03*
D17*
X223837500Y-147637500D03*
D16*
X220027500Y-145097500D03*
D15*
X228917500Y-147637500D03*
X218757500Y-147637500D03*
D18*
X216752500Y-145097500D03*
X229679500Y-142557500D03*
%TD*%
D15*
%TO.C,MX55*%
X85407500Y-166687500D03*
D16*
X93027500Y-161607500D03*
D17*
X90487500Y-166687500D03*
D15*
X95567500Y-166687500D03*
D16*
X86677500Y-164147500D03*
D18*
X83402500Y-164147500D03*
X96329500Y-161607500D03*
%TD*%
D15*
%TO.C,MX43*%
X123507500Y-147637500D03*
D17*
X128587500Y-147637500D03*
D16*
X124777500Y-145097500D03*
X131127500Y-142557500D03*
D15*
X133667500Y-147637500D03*
D18*
X121502500Y-145097500D03*
X134429500Y-142557500D03*
%TD*%
D21*
%TO.C,REF\u002A\u002A*%
X161925000Y-158432500D03*
D22*
X161925000Y-173672500D03*
X276225000Y-173672500D03*
D21*
X276225000Y-158432500D03*
%TD*%
D15*
%TO.C,MX33*%
X181292500Y-128587500D03*
D16*
X178752500Y-123507500D03*
X172402500Y-126047500D03*
D15*
X171132500Y-128587500D03*
D17*
X176212500Y-128587500D03*
D18*
X169127500Y-126047500D03*
X182054500Y-123507500D03*
%TD*%
D19*
%TO.C,D6*%
X178375000Y-94817499D03*
X178375000Y-96317499D03*
X183575000Y-96317499D03*
X183575000Y-94817499D03*
%TD*%
D22*
%TO.C,REF\u002A\u002A*%
X328580750Y-121602500D03*
D21*
X352456750Y-136842500D03*
X328580750Y-136842500D03*
D22*
X352456750Y-121602500D03*
%TD*%
D15*
%TO.C,MX24*%
X271780000Y-109537500D03*
D16*
X269240000Y-104457500D03*
D15*
X261620000Y-109537500D03*
D17*
X266700000Y-109537500D03*
D16*
X262890000Y-106997500D03*
D18*
X259615000Y-106997500D03*
X272542000Y-104457500D03*
%TD*%
D16*
%TO.C,MX41*%
X343058750Y-123507500D03*
D15*
X345598750Y-128587500D03*
D17*
X340518750Y-128587500D03*
D15*
X335438750Y-128587500D03*
D16*
X336708750Y-126047500D03*
D18*
X333433750Y-126047500D03*
X346360750Y-123507500D03*
%TD*%
D16*
%TO.C,MX9*%
X240665000Y-85407500D03*
D15*
X233045000Y-90487500D03*
D16*
X234315000Y-87947500D03*
D17*
X238125000Y-90487500D03*
D15*
X243205000Y-90487500D03*
D18*
X231040000Y-87947500D03*
X243967000Y-85407500D03*
%TD*%
D19*
%TO.C,D2*%
X102175000Y-94817499D03*
X102175000Y-96317499D03*
X107375000Y-96317499D03*
X107375000Y-94817499D03*
%TD*%
%TO.C,D24*%
X264100000Y-113867499D03*
X264100000Y-115367499D03*
X269300000Y-115367499D03*
X269300000Y-113867499D03*
%TD*%
%TO.C,D56*%
X111700000Y-171017499D03*
X111700000Y-172517499D03*
X116900000Y-172517499D03*
X116900000Y-171017499D03*
%TD*%
%TO.C,D41*%
X337918750Y-132917499D03*
X337918750Y-134417499D03*
X343118750Y-134417499D03*
X343118750Y-132917499D03*
%TD*%
D16*
%TO.C,MX30*%
X121602500Y-123507500D03*
D17*
X119062500Y-128587500D03*
D15*
X113982500Y-128587500D03*
X124142500Y-128587500D03*
D16*
X115252500Y-126047500D03*
D18*
X111977500Y-126047500D03*
X124904500Y-123507500D03*
%TD*%
D19*
%TO.C,D57*%
X135512500Y-171017499D03*
X135512500Y-172517499D03*
X140712500Y-172517499D03*
X140712500Y-171017499D03*
%TD*%
%TO.C,D11*%
X273625000Y-94817499D03*
X273625000Y-96317499D03*
X278825000Y-96317499D03*
X278825000Y-94817499D03*
%TD*%
D15*
%TO.C,MX50*%
X267017500Y-147637500D03*
D17*
X261937500Y-147637500D03*
D15*
X256857500Y-147637500D03*
D16*
X264477500Y-142557500D03*
X258127500Y-145097500D03*
D18*
X254852500Y-145097500D03*
X267779500Y-142557500D03*
%TD*%
D19*
%TO.C,D48*%
X221237500Y-151967499D03*
X221237500Y-153467499D03*
X226437500Y-153467499D03*
X226437500Y-151967499D03*
%TD*%
%TO.C,D38*%
X268862500Y-132917499D03*
X268862500Y-134417499D03*
X274062500Y-134417499D03*
X274062500Y-132917499D03*
%TD*%
D20*
%TO.C,*%
X336945000Y-166682000D03*
%TD*%
D15*
%TO.C,MX20*%
X195580000Y-109537500D03*
X185420000Y-109537500D03*
D17*
X190500000Y-109537500D03*
D16*
X186690000Y-106997500D03*
X193040000Y-104457500D03*
D18*
X183415000Y-106997500D03*
X196342000Y-104457500D03*
%TD*%
D19*
%TO.C,D14*%
X340300000Y-94817499D03*
X340300000Y-96317499D03*
X345500000Y-96317499D03*
X345500000Y-94817499D03*
%TD*%
D16*
%TO.C,MX25*%
X288290000Y-104457500D03*
D15*
X280670000Y-109537500D03*
D17*
X285750000Y-109537500D03*
D16*
X281940000Y-106997500D03*
D15*
X290830000Y-109537500D03*
D18*
X278665000Y-106997500D03*
X291592000Y-104457500D03*
%TD*%
D15*
%TO.C,MX2*%
X99695000Y-90487500D03*
X109855000Y-90487500D03*
D16*
X107315000Y-85407500D03*
X100965000Y-87947500D03*
D17*
X104775000Y-90487500D03*
D18*
X97690000Y-87947500D03*
X110617000Y-85407500D03*
%TD*%
D15*
%TO.C,MX34*%
X190182500Y-128587500D03*
D16*
X191452500Y-126047500D03*
D15*
X200342500Y-128587500D03*
D16*
X197802500Y-123507500D03*
D17*
X195262500Y-128587500D03*
D18*
X188177500Y-126047500D03*
X201104500Y-123507500D03*
%TD*%
D15*
%TO.C,MX3*%
X128905000Y-90487500D03*
D17*
X123825000Y-90487500D03*
D16*
X126365000Y-85407500D03*
X120015000Y-87947500D03*
D15*
X118745000Y-90487500D03*
D18*
X116740000Y-87947500D03*
X129667000Y-85407500D03*
%TD*%
D19*
%TO.C,D21*%
X206950000Y-113867499D03*
X206950000Y-115367499D03*
X212150000Y-115367499D03*
X212150000Y-113867499D03*
%TD*%
%TO.C,D58*%
X178375000Y-171017499D03*
X178375000Y-172517499D03*
X183575000Y-172517499D03*
X183575000Y-171017499D03*
%TD*%
%TO.C,D62*%
X321250000Y-171017499D03*
X321250000Y-172517499D03*
X326450000Y-172517499D03*
X326450000Y-171017499D03*
%TD*%
D15*
%TO.C,MX53*%
X331311250Y-147637500D03*
D16*
X322421250Y-145097500D03*
D17*
X326231250Y-147637500D03*
D16*
X328771250Y-142557500D03*
D15*
X321151250Y-147637500D03*
D18*
X319146250Y-145097500D03*
X332073250Y-142557500D03*
%TD*%
D16*
%TO.C,MX21*%
X205740000Y-106997500D03*
D15*
X214630000Y-109537500D03*
D16*
X212090000Y-104457500D03*
D15*
X204470000Y-109537500D03*
D17*
X209550000Y-109537500D03*
D18*
X202465000Y-106997500D03*
X215392000Y-104457500D03*
%TD*%
D15*
%TO.C,MX31*%
X133032500Y-128587500D03*
D17*
X138112500Y-128587500D03*
D16*
X140652500Y-123507500D03*
D15*
X143192500Y-128587500D03*
D16*
X134302500Y-126047500D03*
D18*
X131027500Y-126047500D03*
X143954500Y-123507500D03*
%TD*%
D16*
%TO.C,MX7*%
X202565000Y-85407500D03*
D15*
X194945000Y-90487500D03*
X205105000Y-90487500D03*
D16*
X196215000Y-87947500D03*
D17*
X200025000Y-90487500D03*
D18*
X192940000Y-87947500D03*
X205867000Y-85407500D03*
%TD*%
D19*
%TO.C,D16*%
X111700000Y-113867499D03*
X111700000Y-115367499D03*
X116900000Y-115367499D03*
X116900000Y-113867499D03*
%TD*%
D16*
%TO.C,MX15*%
X93027500Y-104457500D03*
D17*
X90487500Y-109537500D03*
D16*
X86677500Y-106997500D03*
D15*
X85407500Y-109537500D03*
X95567500Y-109537500D03*
D18*
X83402500Y-106997500D03*
X96329500Y-104457500D03*
%TD*%
D19*
%TO.C,D45*%
X164087500Y-151967499D03*
X164087500Y-153467499D03*
X169287500Y-153467499D03*
X169287500Y-151967499D03*
%TD*%
D16*
%TO.C,MX38*%
X274002500Y-123507500D03*
D17*
X271462500Y-128587500D03*
D16*
X267652500Y-126047500D03*
D15*
X266382500Y-128587500D03*
X276542500Y-128587500D03*
D18*
X264377500Y-126047500D03*
X277304500Y-123507500D03*
%TD*%
D20*
%TO.C,*%
X313130000Y-148295000D03*
%TD*%
D22*
%TO.C,REF\u002A\u002A*%
X109569250Y-140652500D03*
D21*
X85693250Y-155892500D03*
D22*
X85693250Y-140652500D03*
D21*
X109569250Y-155892500D03*
%TD*%
D16*
%TO.C,MX42*%
X93821250Y-145097500D03*
D15*
X102711250Y-147637500D03*
D16*
X100171250Y-142557500D03*
D15*
X92551250Y-147637500D03*
D17*
X97631250Y-147637500D03*
D18*
X90546250Y-145097500D03*
X103473250Y-142557500D03*
%TD*%
D19*
%TO.C,D61*%
X297437500Y-171017499D03*
X297437500Y-172517499D03*
X302637500Y-172517499D03*
X302637500Y-171017499D03*
%TD*%
D16*
%TO.C,MX52*%
X302577500Y-142557500D03*
D15*
X294957500Y-147637500D03*
D17*
X300037500Y-147637500D03*
D15*
X305117500Y-147637500D03*
D16*
X296227500Y-145097500D03*
D18*
X292952500Y-145097500D03*
X305879500Y-142557500D03*
%TD*%
D19*
%TO.C,D19*%
X168850000Y-113867499D03*
X168850000Y-115367499D03*
X174050000Y-115367499D03*
X174050000Y-113867499D03*
%TD*%
%TO.C,D27*%
X321250000Y-113867499D03*
X321250000Y-115367499D03*
X326450000Y-115367499D03*
X326450000Y-113867499D03*
%TD*%
D15*
%TO.C,MX35*%
X219392500Y-128587500D03*
D16*
X216852500Y-123507500D03*
X210502500Y-126047500D03*
D15*
X209232500Y-128587500D03*
D17*
X214312500Y-128587500D03*
D18*
X207227500Y-126047500D03*
X220154500Y-123507500D03*
%TD*%
D19*
%TO.C,D55*%
X87887500Y-171017499D03*
X87887500Y-172517499D03*
X93087500Y-172517499D03*
X93087500Y-171017499D03*
%TD*%
D21*
%TO.C,REF\u002A\u002A*%
X354838000Y-98742500D03*
D22*
X330962000Y-83502500D03*
D21*
X330962000Y-98742500D03*
D22*
X354838000Y-83502500D03*
%TD*%
D19*
%TO.C,D54*%
X349825000Y-151967499D03*
X349825000Y-153467499D03*
X355025000Y-153467499D03*
X355025000Y-151967499D03*
%TD*%
D17*
%TO.C,MX46*%
X185737500Y-147637500D03*
D15*
X190817500Y-147637500D03*
D16*
X188277500Y-142557500D03*
D15*
X180657500Y-147637500D03*
D16*
X181927500Y-145097500D03*
D18*
X178652500Y-145097500D03*
X191579500Y-142557500D03*
%TD*%
D15*
%TO.C,MX29*%
X87788750Y-128587500D03*
D16*
X89058750Y-126047500D03*
D17*
X92868750Y-128587500D03*
D15*
X97948750Y-128587500D03*
D16*
X95408750Y-123507500D03*
D18*
X85783750Y-126047500D03*
X98710750Y-123507500D03*
%TD*%
D19*
%TO.C,D47*%
X202187500Y-151967499D03*
X202187500Y-153467499D03*
X207387500Y-153467499D03*
X207387500Y-151967499D03*
%TD*%
D15*
%TO.C,MX8*%
X224155000Y-90487500D03*
D16*
X215265000Y-87947500D03*
D15*
X213995000Y-90487500D03*
D16*
X221615000Y-85407500D03*
D17*
X219075000Y-90487500D03*
D18*
X211990000Y-87947500D03*
X224917000Y-85407500D03*
%TD*%
D19*
%TO.C,D7*%
X197425000Y-94817499D03*
X197425000Y-96317499D03*
X202625000Y-96317499D03*
X202625000Y-94817499D03*
%TD*%
D16*
%TO.C,MX61*%
X350202500Y-161607500D03*
D15*
X342582500Y-166687500D03*
D17*
X347662500Y-166687500D03*
D16*
X343852500Y-164147500D03*
D15*
X352742500Y-166687500D03*
D18*
X340577500Y-164147500D03*
X353504500Y-161607500D03*
%TD*%
D19*
%TO.C,D49*%
X240287500Y-151967499D03*
X240287500Y-153467499D03*
X245487500Y-153467499D03*
X245487500Y-151967499D03*
%TD*%
%TO.C,D26*%
X302200000Y-113867499D03*
X302200000Y-115367499D03*
X307400000Y-115367499D03*
X307400000Y-113867499D03*
%TD*%
%TO.C,D53*%
X323631250Y-151967499D03*
X323631250Y-153467499D03*
X328831250Y-153467499D03*
X328831250Y-151967499D03*
%TD*%
%TO.C,D34*%
X192662500Y-132917499D03*
X192662500Y-134417499D03*
X197862500Y-134417499D03*
X197862500Y-132917499D03*
%TD*%
%TO.C,D5*%
X159325000Y-94817499D03*
X159325000Y-96317499D03*
X164525000Y-96317499D03*
X164525000Y-94817499D03*
%TD*%
D17*
%TO.C,MX16*%
X114300000Y-109537500D03*
D15*
X119380000Y-109537500D03*
X109220000Y-109537500D03*
D16*
X110490000Y-106997500D03*
X116840000Y-104457500D03*
D18*
X107215000Y-106997500D03*
X120142000Y-104457500D03*
%TD*%
D19*
%TO.C,D18*%
X149800000Y-113867499D03*
X149800000Y-115367499D03*
X155000000Y-115367499D03*
X155000000Y-113867499D03*
%TD*%
D16*
%TO.C,MX57*%
X134302500Y-164147500D03*
D15*
X143192500Y-166687500D03*
D16*
X140652500Y-161607500D03*
D17*
X138112500Y-166687500D03*
D15*
X133032500Y-166687500D03*
D18*
X131027500Y-164147500D03*
X143954500Y-161607500D03*
%TD*%
D17*
%TO.C,MX37*%
X252412500Y-128587500D03*
D16*
X248602500Y-126047500D03*
D15*
X257492500Y-128587500D03*
D16*
X254952500Y-123507500D03*
D15*
X247332500Y-128587500D03*
D18*
X245327500Y-126047500D03*
X258254500Y-123507500D03*
%TD*%
D19*
%TO.C,D8*%
X216475000Y-94817499D03*
X216475000Y-96317499D03*
X221675000Y-96317499D03*
X221675000Y-94817499D03*
%TD*%
%TO.C,D50*%
X259337500Y-151967499D03*
X259337500Y-153467499D03*
X264537500Y-153467499D03*
X264537500Y-151967499D03*
%TD*%
D16*
%TO.C,MX5*%
X164465000Y-85407500D03*
D17*
X161925000Y-90487500D03*
D15*
X167005000Y-90487500D03*
D16*
X158115000Y-87947500D03*
D15*
X156845000Y-90487500D03*
D18*
X154840000Y-87947500D03*
X167767000Y-85407500D03*
%TD*%
D19*
%TO.C,D33*%
X173612500Y-132917499D03*
X173612500Y-134417499D03*
X178812500Y-134417499D03*
X178812500Y-132917499D03*
%TD*%
D20*
%TO.C,*%
X335755000Y-109531000D03*
%TD*%
D19*
%TO.C,D42*%
X95031250Y-151967499D03*
X95031250Y-153467499D03*
X100231250Y-153467499D03*
X100231250Y-151967499D03*
%TD*%
%TO.C,D32*%
X154562500Y-132917499D03*
X154562500Y-134417499D03*
X159762500Y-134417499D03*
X159762500Y-132917499D03*
%TD*%
D15*
%TO.C,MX1*%
X90805000Y-90487500D03*
X80645000Y-90487500D03*
D16*
X81915000Y-87947500D03*
X88265000Y-85407500D03*
D17*
X85725000Y-90487500D03*
D18*
X78640000Y-87947500D03*
X91567000Y-85407500D03*
%TD*%
D16*
%TO.C,MX23*%
X250190000Y-104457500D03*
D15*
X242570000Y-109537500D03*
X252730000Y-109537500D03*
D17*
X247650000Y-109537500D03*
D16*
X243840000Y-106997500D03*
D18*
X240565000Y-106997500D03*
X253492000Y-104457500D03*
%TD*%
D15*
%TO.C,MX19*%
X166370000Y-109537500D03*
X176530000Y-109537500D03*
D17*
X171450000Y-109537500D03*
D16*
X167640000Y-106997500D03*
X173990000Y-104457500D03*
D18*
X164365000Y-106997500D03*
X177292000Y-104457500D03*
%TD*%
D16*
%TO.C,MX18*%
X154940000Y-104457500D03*
D15*
X147320000Y-109537500D03*
D17*
X152400000Y-109537500D03*
D16*
X148590000Y-106997500D03*
D15*
X157480000Y-109537500D03*
D18*
X145315000Y-106997500D03*
X158242000Y-104457500D03*
%TD*%
D15*
%TO.C,MX12*%
X300355000Y-90487500D03*
D16*
X297815000Y-85407500D03*
D17*
X295275000Y-90487500D03*
D15*
X290195000Y-90487500D03*
D16*
X291465000Y-87947500D03*
D18*
X288190000Y-87947500D03*
X301117000Y-85407500D03*
%TD*%
D19*
%TO.C,D36*%
X230762500Y-132917499D03*
X230762500Y-134417499D03*
X235962500Y-134417499D03*
X235962500Y-132917499D03*
%TD*%
D17*
%TO.C,MX51*%
X280987500Y-147637500D03*
D15*
X275907500Y-147637500D03*
X286067500Y-147637500D03*
D16*
X283527500Y-142557500D03*
X277177500Y-145097500D03*
D18*
X273902500Y-145097500D03*
X286829500Y-142557500D03*
%TD*%
D15*
%TO.C,MX44*%
X152717500Y-147637500D03*
D16*
X150177500Y-142557500D03*
D15*
X142557500Y-147637500D03*
D16*
X143827500Y-145097500D03*
D17*
X147637500Y-147637500D03*
D18*
X140552500Y-145097500D03*
X153479500Y-142557500D03*
%TD*%
D19*
%TO.C,D20*%
X187900000Y-113867499D03*
X187900000Y-115367499D03*
X193100000Y-115367499D03*
X193100000Y-113867499D03*
%TD*%
D20*
%TO.C,*%
X101207000Y-166686000D03*
%TD*%
D19*
%TO.C,D23*%
X245050000Y-113867499D03*
X245050000Y-115367499D03*
X250250000Y-115367499D03*
X250250000Y-113867499D03*
%TD*%
D16*
%TO.C,MX22*%
X231140000Y-104457500D03*
D17*
X228600000Y-109537500D03*
D15*
X223520000Y-109537500D03*
X233680000Y-109537500D03*
D16*
X224790000Y-106997500D03*
D18*
X221515000Y-106997500D03*
X234442000Y-104457500D03*
%TD*%
D19*
%TO.C,D31*%
X135512500Y-132917499D03*
X135512500Y-134417499D03*
X140712500Y-134417499D03*
X140712500Y-132917499D03*
%TD*%
D20*
%TO.C,*%
X79575000Y-109536000D03*
%TD*%
D19*
%TO.C,D59*%
X216475000Y-171017499D03*
X216475000Y-172517499D03*
X221675000Y-172517499D03*
X221675000Y-171017499D03*
%TD*%
D15*
%TO.C,MX49*%
X237807500Y-147637500D03*
D16*
X245427500Y-142557500D03*
D17*
X242887500Y-147637500D03*
D16*
X239077500Y-145097500D03*
D15*
X247967500Y-147637500D03*
D18*
X235802500Y-145097500D03*
X248729500Y-142557500D03*
%TD*%
D19*
%TO.C,D4*%
X140275000Y-94817499D03*
X140275000Y-96317499D03*
X145475000Y-96317499D03*
X145475000Y-94817499D03*
%TD*%
D16*
%TO.C,MX27*%
X326390000Y-104457500D03*
X320040000Y-106997500D03*
D17*
X323850000Y-109537500D03*
D15*
X318770000Y-109537500D03*
X328930000Y-109537500D03*
D18*
X316765000Y-106997500D03*
X329692000Y-104457500D03*
%TD*%
D19*
%TO.C,D25*%
X283150000Y-113867499D03*
X283150000Y-115367499D03*
X288350000Y-115367499D03*
X288350000Y-113867499D03*
%TD*%
%TO.C,D17*%
X130750000Y-113867499D03*
X130750000Y-115367499D03*
X135950000Y-115367499D03*
X135950000Y-113867499D03*
%TD*%
D20*
%TO.C,*%
X180947000Y-110469000D03*
%TD*%
D16*
%TO.C,MX39*%
X286702500Y-126047500D03*
D15*
X295592500Y-128587500D03*
X285432500Y-128587500D03*
D16*
X293052500Y-123507500D03*
D17*
X290512500Y-128587500D03*
D18*
X283427500Y-126047500D03*
X296354500Y-123507500D03*
%TD*%
D15*
%TO.C,MX28*%
X352742500Y-109537500D03*
D16*
X350202500Y-104457500D03*
D15*
X342582500Y-109537500D03*
D17*
X347662500Y-109537500D03*
D16*
X343852500Y-106997500D03*
D18*
X340577500Y-106997500D03*
X353504500Y-104457500D03*
%TD*%
D20*
%TO.C,*%
X257182000Y-110453000D03*
%TD*%
D19*
%TO.C,D40*%
X306962500Y-132917499D03*
X306962500Y-134417499D03*
X312162500Y-134417499D03*
X312162500Y-132917499D03*
%TD*%
%TO.C,D28*%
X345062500Y-113867499D03*
X345062500Y-115367499D03*
X350262500Y-115367499D03*
X350262500Y-113867499D03*
%TD*%
%TO.C,D52*%
X297437500Y-151967499D03*
X297437500Y-153467499D03*
X302637500Y-153467499D03*
X302637500Y-151967499D03*
%TD*%
D15*
%TO.C,MX40*%
X314642500Y-128587500D03*
D16*
X305752500Y-126047500D03*
D15*
X304482500Y-128587500D03*
D16*
X312102500Y-123507500D03*
D17*
X309562500Y-128587500D03*
D18*
X302477500Y-126047500D03*
X315404500Y-123507500D03*
%TD*%
D16*
%TO.C,MX14*%
X339090000Y-87947500D03*
D15*
X347980000Y-90487500D03*
X337820000Y-90487500D03*
D17*
X342900000Y-90487500D03*
D16*
X345440000Y-85407500D03*
D18*
X335815000Y-87947500D03*
X348742000Y-85407500D03*
%TD*%
D19*
%TO.C,D37*%
X249812500Y-132917499D03*
X249812500Y-134417499D03*
X255012500Y-134417499D03*
X255012500Y-132917499D03*
%TD*%
%TO.C,D1*%
X83125000Y-94817499D03*
X83125000Y-96317499D03*
X88325000Y-96317499D03*
X88325000Y-94817499D03*
%TD*%
D15*
%TO.C,MX59*%
X294957500Y-166687500D03*
D16*
X296227500Y-164147500D03*
X302577500Y-161607500D03*
D15*
X305117500Y-166687500D03*
D17*
X300037500Y-166687500D03*
D18*
X292952500Y-164147500D03*
X305879500Y-161607500D03*
%TD*%
D19*
%TO.C,D15*%
X87887500Y-113867499D03*
X87887500Y-115367499D03*
X93087500Y-115367499D03*
X93087500Y-113867499D03*
%TD*%
D17*
%TO.C,MX4*%
X142875000Y-90487500D03*
D16*
X139065000Y-87947500D03*
D15*
X147955000Y-90487500D03*
X137795000Y-90487500D03*
D16*
X145415000Y-85407500D03*
D18*
X135790000Y-87947500D03*
X148717000Y-85407500D03*
%TD*%
D19*
%TO.C,D10*%
X254575000Y-94817499D03*
X254575000Y-96317499D03*
X259775000Y-96317499D03*
X259775000Y-94817499D03*
%TD*%
D15*
%TO.C,MX6*%
X186055000Y-90487500D03*
X175895000Y-90487500D03*
D16*
X183515000Y-85407500D03*
D17*
X180975000Y-90487500D03*
D16*
X177165000Y-87947500D03*
D18*
X173890000Y-87947500D03*
X186817000Y-85407500D03*
%TD*%
D19*
%TO.C,D44*%
X145037500Y-151967499D03*
X145037500Y-153467499D03*
X150237500Y-153467499D03*
X150237500Y-151967499D03*
%TD*%
D20*
%TO.C,*%
X266094000Y-166681000D03*
%TD*%
D19*
%TO.C,D9*%
X235525000Y-94817499D03*
X235525000Y-96317499D03*
X240725000Y-96317499D03*
X240725000Y-94817499D03*
%TD*%
D16*
%TO.C,MX32*%
X153352500Y-126047500D03*
D17*
X157162500Y-128587500D03*
D16*
X159702500Y-123507500D03*
D15*
X162242500Y-128587500D03*
X152082500Y-128587500D03*
D18*
X150077500Y-126047500D03*
X163004500Y-123507500D03*
%TD*%
D17*
%TO.C,MX17*%
X133350000Y-109537500D03*
D15*
X138430000Y-109537500D03*
D16*
X129540000Y-106997500D03*
X135890000Y-104457500D03*
D15*
X128270000Y-109537500D03*
D18*
X126265000Y-106997500D03*
X139192000Y-104457500D03*
%TD*%
D16*
%TO.C,MX45*%
X162877500Y-145097500D03*
X169227500Y-142557500D03*
D17*
X166687500Y-147637500D03*
D15*
X161607500Y-147637500D03*
X171767500Y-147637500D03*
D18*
X159602500Y-145097500D03*
X172529500Y-142557500D03*
%TD*%
D16*
%TO.C,MX36*%
X235902500Y-123507500D03*
X229552500Y-126047500D03*
D15*
X228282500Y-128587500D03*
D17*
X233362500Y-128587500D03*
D15*
X238442500Y-128587500D03*
D18*
X226277500Y-126047500D03*
X239204500Y-123507500D03*
%TD*%
D23*
%TO.C,PB0*%
X237019000Y-111140000D03*
%TD*%
D24*
%TO.C,C12*%
X84980000Y-112535000D03*
X84980000Y-114085000D03*
%TD*%
D25*
%TO.C,SW1*%
X248480000Y-93910000D03*
X248480000Y-100210000D03*
X244680000Y-93910000D03*
X244680000Y-100210000D03*
%TD*%
D26*
%TO.C,D81*%
X224950000Y-129937500D03*
X223050000Y-129937500D03*
X224000000Y-128062500D03*
%TD*%
D27*
%TO.C,C5*%
X215785000Y-120710000D03*
X217335000Y-120710000D03*
%TD*%
D26*
%TO.C,D83*%
X301432000Y-122937500D03*
X299532000Y-122937500D03*
X300482000Y-121062500D03*
%TD*%
%TO.C,D72*%
X144300000Y-103937500D03*
X142400000Y-103937500D03*
X143350000Y-102062500D03*
%TD*%
%TO.C,D65*%
X134804000Y-84937500D03*
X132904000Y-84937500D03*
X133854000Y-83062500D03*
%TD*%
%TO.C,D64*%
X96696000Y-84937500D03*
X94796000Y-84937500D03*
X95746000Y-83062500D03*
%TD*%
D28*
%TO.C,C6*%
X226721992Y-118091992D03*
X227818008Y-119188008D03*
%TD*%
D29*
%TO.C,C10*%
X82490000Y-175335000D03*
X82490000Y-173785000D03*
%TD*%
D26*
%TO.C,D77*%
X339584000Y-103937500D03*
X337684000Y-103937500D03*
X338634000Y-102062500D03*
%TD*%
%TO.C,D91*%
X344306000Y-141937500D03*
X342406000Y-141937500D03*
X343356000Y-140062500D03*
%TD*%
%TO.C,D67*%
X210950000Y-84937500D03*
X209050000Y-84937500D03*
X210000000Y-83062500D03*
%TD*%
%TO.C,D87*%
X177627000Y-141937500D03*
X175727000Y-141937500D03*
X176677000Y-140062500D03*
%TD*%
D23*
%TO.C,PF7*%
X213215000Y-120713000D03*
%TD*%
D26*
%TO.C,D93*%
X153360000Y-160937500D03*
X151460000Y-160937500D03*
X152410000Y-159062500D03*
%TD*%
%TO.C,D94*%
X210947000Y-160937500D03*
X209047000Y-160937500D03*
X209997000Y-159062500D03*
%TD*%
%TO.C,D73*%
X182409000Y-103937500D03*
X180509000Y-103937500D03*
X181459000Y-102062500D03*
%TD*%
%TO.C,D70*%
X325450000Y-84937500D03*
X323550000Y-84937500D03*
X324500000Y-83062500D03*
%TD*%
%TO.C,D66*%
X171565000Y-88727500D03*
X169665000Y-88727500D03*
X170615000Y-86852500D03*
%TD*%
D27*
%TO.C,C2*%
X216365000Y-108430000D03*
X217915000Y-108430000D03*
%TD*%
D26*
%TO.C,D68*%
X249087000Y-84937500D03*
X247187000Y-84937500D03*
X248137000Y-83062500D03*
%TD*%
D30*
%TO.C,R4*%
X203385000Y-115930000D03*
X205035000Y-115930000D03*
%TD*%
D26*
%TO.C,D76*%
X296694000Y-103937500D03*
X294794000Y-103937500D03*
X295744000Y-102062500D03*
%TD*%
%TO.C,D80*%
X187154000Y-122937500D03*
X185254000Y-122937500D03*
X186204000Y-121062500D03*
%TD*%
%TO.C,D86*%
X139450000Y-141937500D03*
X137550000Y-141937500D03*
X138500000Y-140062500D03*
%TD*%
D31*
%TO.C,U1*%
X219667202Y-110966014D03*
X220020755Y-111319568D03*
X220374309Y-111673121D03*
X220727862Y-112026674D03*
X221081415Y-112380228D03*
X221434969Y-112733781D03*
X221788522Y-113087335D03*
X222142076Y-113440888D03*
X222495629Y-113794441D03*
X222849182Y-114147995D03*
X223202736Y-114501548D03*
D32*
X223202736Y-115685952D03*
X222849182Y-116039505D03*
X222495629Y-116393059D03*
X222142076Y-116746612D03*
X221788522Y-117100165D03*
X221434969Y-117453719D03*
X221081415Y-117807272D03*
X220727862Y-118160826D03*
X220374309Y-118514379D03*
X220020755Y-118867932D03*
X219667202Y-119221486D03*
D31*
X218482798Y-119221486D03*
X218129245Y-118867932D03*
X217775691Y-118514379D03*
X217422138Y-118160826D03*
X217068585Y-117807272D03*
X216715031Y-117453719D03*
X216361478Y-117100165D03*
X216007924Y-116746612D03*
X215654371Y-116393059D03*
X215300818Y-116039505D03*
X214947264Y-115685952D03*
D32*
X214947264Y-114501548D03*
X215300818Y-114147995D03*
X215654371Y-113794441D03*
X216007924Y-113440888D03*
X216361478Y-113087335D03*
X216715031Y-112733781D03*
X217068585Y-112380228D03*
X217422138Y-112026674D03*
X217775691Y-111673121D03*
X218129245Y-111319568D03*
X218482798Y-110966014D03*
D33*
X219075000Y-115093750D03*
%TD*%
D26*
%TO.C,D69*%
X287186000Y-84937500D03*
X285286000Y-84937500D03*
X286236000Y-83062500D03*
%TD*%
D34*
%TO.C,C1*%
X213974000Y-101034000D03*
X212424000Y-101034000D03*
%TD*%
D26*
%TO.C,D74*%
X220546000Y-103937500D03*
X218646000Y-103937500D03*
X219596000Y-102062500D03*
%TD*%
%TO.C,D85*%
X120450000Y-141906500D03*
X118550000Y-141906500D03*
X119500000Y-140031500D03*
%TD*%
%TO.C,D79*%
X149035000Y-122937500D03*
X147135000Y-122937500D03*
X148085000Y-121062500D03*
%TD*%
D34*
%TO.C,C8*%
X223985000Y-111150000D03*
X222435000Y-111150000D03*
%TD*%
D29*
%TO.C,C13*%
X85710000Y-136445000D03*
X85710000Y-134895000D03*
%TD*%
D27*
%TO.C,C3*%
X216376000Y-109820000D03*
X217926000Y-109820000D03*
%TD*%
D26*
%TO.C,D89*%
X253950000Y-141885500D03*
X252050000Y-141885500D03*
X253000000Y-140010500D03*
%TD*%
%TO.C,D88*%
X215739000Y-141937500D03*
X213839000Y-141937500D03*
X214789000Y-140062500D03*
%TD*%
%TO.C,D75*%
X258591000Y-103937500D03*
X256691000Y-103937500D03*
X257641000Y-102062500D03*
%TD*%
D24*
%TO.C,C9*%
X91790000Y-150295000D03*
X91790000Y-151845000D03*
%TD*%
D26*
%TO.C,D95*%
X291945000Y-160937500D03*
X290045000Y-160937500D03*
X290995000Y-159062500D03*
%TD*%
D24*
%TO.C,C11*%
X78260000Y-98245000D03*
X78260000Y-99795000D03*
%TD*%
D26*
%TO.C,D82*%
X263345000Y-122937500D03*
X261445000Y-122937500D03*
X262395000Y-121062500D03*
%TD*%
%TO.C,D96*%
X339587000Y-160937500D03*
X337687000Y-160937500D03*
X338637000Y-159062500D03*
%TD*%
%TO.C,D71*%
X106216000Y-103937500D03*
X104316000Y-103937500D03*
X105266000Y-102062500D03*
%TD*%
%TO.C,D90*%
X291950000Y-141937500D03*
X290050000Y-141937500D03*
X291000000Y-140062500D03*
%TD*%
%TO.C,D84*%
X324254000Y-122937500D03*
X322354000Y-122937500D03*
X323304000Y-121062500D03*
%TD*%
D35*
%TO.C,R3*%
X231670000Y-97225000D03*
X231670000Y-95575000D03*
%TD*%
D26*
%TO.C,D92*%
X106168000Y-160937500D03*
X104268000Y-160937500D03*
X105218000Y-159062500D03*
%TD*%
D36*
%TO.C,C7*%
X223958008Y-122908008D03*
X222861992Y-121811992D03*
%TD*%
D37*
%TO.C,Y1*%
X226703858Y-120323223D03*
X225148223Y-121878858D03*
X223946142Y-120676777D03*
X225501777Y-119121142D03*
%TD*%
D26*
%TO.C,D78*%
X110950000Y-122937500D03*
X109050000Y-122937500D03*
X110000000Y-121062500D03*
%TD*%
D38*
%TO.C,J1*%
X229090000Y-95940000D03*
X226550000Y-95940000D03*
X229090000Y-98480000D03*
X226550000Y-98480000D03*
X229090000Y-101020000D03*
X226550000Y-101020000D03*
%TD*%
D39*
%TO.C,J2*%
X212360000Y-96600000D03*
X206760000Y-96600000D03*
D40*
X208060000Y-100475000D03*
X209060000Y-100475000D03*
X210060000Y-100475000D03*
X211060000Y-100475000D03*
%TD*%
D24*
%TO.C,C4*%
X212360000Y-110285000D03*
X212360000Y-111835000D03*
%TD*%
M02*
