%TF.GenerationSoftware,KiCad,Pcbnew,7.0.1*%
%TF.CreationDate,2023-04-25T19:49:51+02:00*%
%TF.ProjectId,daughterboard,64617567-6874-4657-9262-6f6172642e6b,1.0*%
%TF.SameCoordinates,Original*%
%TF.FileFunction,Copper,L1,Top*%
%TF.FilePolarity,Positive*%
%FSLAX46Y46*%
G04 Gerber Fmt 4.6, Leading zero omitted, Abs format (unit mm)*
G04 Created by KiCad (PCBNEW 7.0.1) date 2023-04-25 19:49:51*
%MOMM*%
%LPD*%
G01*
G04 APERTURE LIST*
G04 Aperture macros list*
%AMRoundRect*
0 Rectangle with rounded corners*
0 $1 Rounding radius*
0 $2 $3 $4 $5 $6 $7 $8 $9 X,Y pos of 4 corners*
0 Add a 4 corners polygon primitive as box body*
4,1,4,$2,$3,$4,$5,$6,$7,$8,$9,$2,$3,0*
0 Add four circle primitives for the rounded corners*
1,1,$1+$1,$2,$3*
1,1,$1+$1,$4,$5*
1,1,$1+$1,$6,$7*
1,1,$1+$1,$8,$9*
0 Add four rect primitives between the rounded corners*
20,1,$1+$1,$2,$3,$4,$5,0*
20,1,$1+$1,$4,$5,$6,$7,0*
20,1,$1+$1,$6,$7,$8,$9,0*
20,1,$1+$1,$8,$9,$2,$3,0*%
G04 Aperture macros list end*
%TA.AperFunction,SMDPad,CuDef*%
%ADD10R,1.200000X1.800000*%
%TD*%
%TA.AperFunction,SMDPad,CuDef*%
%ADD11R,0.600000X1.550000*%
%TD*%
%TA.AperFunction,SMDPad,CuDef*%
%ADD12RoundRect,0.225000X0.250000X-0.225000X0.250000X0.225000X-0.250000X0.225000X-0.250000X-0.225000X0*%
%TD*%
%TA.AperFunction,SMDPad,CuDef*%
%ADD13R,1.100000X1.100000*%
%TD*%
%TA.AperFunction,SMDPad,CuDef*%
%ADD14RoundRect,0.170000X0.330000X-0.255000X0.330000X0.255000X-0.330000X0.255000X-0.330000X-0.255000X0*%
%TD*%
%TA.AperFunction,SMDPad,CuDef*%
%ADD15RoundRect,0.150000X0.150000X-0.512500X0.150000X0.512500X-0.150000X0.512500X-0.150000X-0.512500X0*%
%TD*%
%TA.AperFunction,SMDPad,CuDef*%
%ADD16RoundRect,0.170000X0.255000X0.330000X-0.255000X0.330000X-0.255000X-0.330000X0.255000X-0.330000X0*%
%TD*%
%TA.AperFunction,SMDPad,CuDef*%
%ADD17RoundRect,0.200000X-0.275000X0.200000X-0.275000X-0.200000X0.275000X-0.200000X0.275000X0.200000X0*%
%TD*%
%TA.AperFunction,SMDPad,CuDef*%
%ADD18RoundRect,0.243750X0.243750X0.456250X-0.243750X0.456250X-0.243750X-0.456250X0.243750X-0.456250X0*%
%TD*%
%TA.AperFunction,ComponentPad*%
%ADD19C,4.400000*%
%TD*%
%TA.AperFunction,SMDPad,CuDef*%
%ADD20RoundRect,0.225000X-0.250000X0.225000X-0.250000X-0.225000X0.250000X-0.225000X0.250000X0.225000X0*%
%TD*%
%TA.AperFunction,SMDPad,CuDef*%
%ADD21RoundRect,0.200000X0.275000X-0.200000X0.275000X0.200000X-0.275000X0.200000X-0.275000X-0.200000X0*%
%TD*%
%TA.AperFunction,ComponentPad*%
%ADD22C,1.100000*%
%TD*%
%TA.AperFunction,ViaPad*%
%ADD23C,0.600000*%
%TD*%
%TA.AperFunction,Conductor*%
%ADD24C,0.381000*%
%TD*%
%TA.AperFunction,Conductor*%
%ADD25C,0.500000*%
%TD*%
%TA.AperFunction,Conductor*%
%ADD26C,0.300000*%
%TD*%
%TA.AperFunction,Conductor*%
%ADD27C,0.200000*%
%TD*%
G04 APERTURE END LIST*
D10*
%TO.P,J2,*%
%TO.N,*%
X108439000Y-60210000D03*
X114039000Y-60210000D03*
D11*
%TO.P,J2,1,Pin_1*%
%TO.N,VCC*%
X109739000Y-56335000D03*
%TO.P,J2,2,Pin_2*%
%TO.N,/DC-*%
X110739000Y-56335000D03*
%TO.P,J2,3,Pin_3*%
%TO.N,/DC+*%
X111739000Y-56335000D03*
%TO.P,J2,4,Pin_4*%
%TO.N,GND*%
X112739000Y-56335000D03*
%TD*%
D12*
%TO.P,C2,1*%
%TO.N,VCC*%
X95357000Y-54986000D03*
%TO.P,C2,2*%
%TO.N,GND*%
X95357000Y-53436000D03*
%TD*%
D13*
%TO.P,D1,1,A1*%
%TO.N,GND*%
X98354000Y-61302000D03*
%TO.P,D1,2,A2*%
%TO.N,Net-(D1-A2)*%
X98354000Y-58502000D03*
%TD*%
D14*
%TO.P,FB1,1*%
%TO.N,Net-(D1-A2)*%
X93869000Y-56603000D03*
%TO.P,FB1,2*%
%TO.N,VCC*%
X93869000Y-55003000D03*
%TD*%
D15*
%TO.P,U1,1,IO1*%
%TO.N,/DUSB+*%
X106539000Y-55571500D03*
%TO.P,U1,2,GND*%
%TO.N,GND*%
X107489000Y-55571500D03*
%TO.P,U1,3,IO2*%
%TO.N,/DUSB-*%
X108439000Y-55571500D03*
%TO.P,U1,4,IO2*%
%TO.N,/D-*%
X108439000Y-53296500D03*
%TO.P,U1,5,VBUS*%
%TO.N,VCC*%
X107489000Y-53296500D03*
%TO.P,U1,6,IO1*%
%TO.N,/D+*%
X106539000Y-53296500D03*
%TD*%
D16*
%TO.P,FB2,1*%
%TO.N,Net-(J1-SHIELD)*%
X103581000Y-62296000D03*
%TO.P,FB2,2*%
%TO.N,GND*%
X101981000Y-62296000D03*
%TD*%
D17*
%TO.P,R1,1*%
%TO.N,Net-(J1-CC1)*%
X106350000Y-58370000D03*
%TO.P,R1,2*%
%TO.N,GND*%
X106350000Y-60020000D03*
%TD*%
D18*
%TO.P,F1,1*%
%TO.N,Net-(F1-Pad1)*%
X98806500Y-56611000D03*
%TO.P,F1,2*%
%TO.N,Net-(D1-A2)*%
X96931500Y-56611000D03*
%TD*%
D19*
%TO.P,H2,1,1*%
%TO.N,unconnected-(H2-Pad1)*%
X84508000Y-54060000D03*
%TD*%
D17*
%TO.P,R3,1*%
%TO.N,/D-*%
X110400000Y-53005000D03*
%TO.P,R3,2*%
%TO.N,/DC-*%
X110400000Y-54655000D03*
%TD*%
%TO.P,R4,1*%
%TO.N,/D+*%
X112002011Y-53004991D03*
%TO.P,R4,2*%
%TO.N,/DC+*%
X112002011Y-54654991D03*
%TD*%
D20*
%TO.P,C1,1*%
%TO.N,Net-(D1-A2)*%
X95407000Y-56464000D03*
%TO.P,C1,2*%
%TO.N,GND*%
X95407000Y-58014000D03*
%TD*%
D19*
%TO.P,H1,1,1*%
%TO.N,Net-(J1-SHIELD)*%
X120539000Y-54029000D03*
%TD*%
D21*
%TO.P,R2,1*%
%TO.N,Net-(J1-CC2)*%
X98790000Y-54868000D03*
%TO.P,R2,2*%
%TO.N,GND*%
X98790000Y-53218000D03*
%TD*%
D22*
%TO.P,J1,S1,SHIELD*%
%TO.N,Net-(J1-SHIELD)*%
X104701000Y-59030000D03*
%TO.P,J1,S2*%
%TO.N,N/C*%
X100401000Y-59030000D03*
%TO.P,J1,S3*%
X104701000Y-54230000D03*
%TO.P,J1,S4*%
X100401000Y-54230000D03*
%TD*%
D23*
%TO.N,GND*%
X105067651Y-60979667D03*
X98354000Y-59902000D03*
X97296208Y-54946572D03*
X105391461Y-55543064D03*
X94148434Y-53962805D03*
X107461603Y-56733283D03*
X102557396Y-53903198D03*
X102566528Y-59383867D03*
%TO.N,Net-(F1-Pad1)*%
X102582000Y-55387000D03*
X102550000Y-58060000D03*
%TO.N,/DUSB+*%
X104218000Y-56880500D03*
%TO.N,/DUSB-*%
X104638000Y-56309500D03*
X102550000Y-57240000D03*
%TO.N,Net-(J1-CC1)*%
X106361000Y-59148000D03*
%TO.N,Net-(J1-CC2)*%
X98849000Y-54054000D03*
%TD*%
D24*
%TO.N,Net-(D1-A2)*%
X96931500Y-56611000D02*
X96931500Y-57079500D01*
X96931500Y-57079500D02*
X98354000Y-58502000D01*
D25*
X96784500Y-56464000D02*
X96931500Y-56611000D01*
X95407000Y-56464000D02*
X96784500Y-56464000D01*
X95268000Y-56603000D02*
X95407000Y-56464000D01*
X93869000Y-56603000D02*
X95268000Y-56603000D01*
%TO.N,VCC*%
X93886000Y-54986000D02*
X93869000Y-55003000D01*
X109739000Y-55388269D02*
X108790274Y-54439543D01*
X109739000Y-56335000D02*
X109739000Y-55388269D01*
X107489000Y-54434000D02*
X107494543Y-54439543D01*
X107494543Y-54439543D02*
X106026464Y-54439543D01*
X95357000Y-54986000D02*
X93886000Y-54986000D01*
X98566575Y-51776425D02*
X95357000Y-54986000D01*
X105231903Y-51776425D02*
X98566575Y-51776425D01*
X105726269Y-54139348D02*
X105726269Y-52270791D01*
X107489000Y-53296500D02*
X107489000Y-54434000D01*
X108790274Y-54439543D02*
X107494543Y-54439543D01*
X105726269Y-52270791D02*
X105231903Y-51776425D01*
X106026464Y-54439543D02*
X105726269Y-54139348D01*
D26*
%TO.N,Net-(F1-Pad1)*%
X102290000Y-55387000D02*
X102582000Y-55387000D01*
D25*
X98840500Y-56645000D02*
X101201000Y-56645000D01*
D26*
X102417000Y-58060000D02*
X101358000Y-57001000D01*
X102550000Y-58060000D02*
X102417000Y-58060000D01*
X101358000Y-56319000D02*
X102290000Y-55387000D01*
X101358000Y-57001000D02*
X101358000Y-56319000D01*
D25*
X98806500Y-56611000D02*
X98840500Y-56645000D01*
%TO.N,Net-(J1-SHIELD)*%
X114790000Y-62278000D02*
X103599000Y-62278000D01*
X120539000Y-56529000D02*
X114790000Y-62278000D01*
X103581000Y-62296000D02*
X103581000Y-60150000D01*
X120539000Y-56529000D02*
X120539000Y-54029000D01*
X103581000Y-60150000D02*
X104701000Y-59030000D01*
X103599000Y-62278000D02*
X103581000Y-62296000D01*
D27*
%TO.N,/DUSB+*%
X106065109Y-56880500D02*
X106539000Y-56406609D01*
X104218000Y-56880500D02*
X106065109Y-56880500D01*
X106539000Y-56406609D02*
X106539000Y-55571500D01*
%TO.N,/DUSB-*%
X102690011Y-57380011D02*
X107871687Y-57380011D01*
X107871687Y-57380011D02*
X108439000Y-56812698D01*
X103409011Y-56380989D02*
X104566511Y-56380989D01*
X108439000Y-56812698D02*
X108439000Y-55571500D01*
X102550000Y-57240000D02*
X102690011Y-57380011D01*
X102550000Y-57240000D02*
X103409011Y-56380989D01*
X104566511Y-56380989D02*
X104638000Y-56309500D01*
%TO.N,Net-(J1-CC1)*%
X106361000Y-58381000D02*
X106350000Y-58370000D01*
X106361000Y-59148000D02*
X106361000Y-58381000D01*
%TO.N,Net-(J1-CC2)*%
X98849000Y-54809000D02*
X98790000Y-54868000D01*
X98849000Y-54054000D02*
X98849000Y-54809000D01*
%TO.N,/D+*%
X110927755Y-51930735D02*
X107343262Y-51930735D01*
X107343262Y-51930735D02*
X106539000Y-52734997D01*
X112002011Y-53004991D02*
X110927755Y-51930735D01*
X106539000Y-52734997D02*
X106539000Y-53296500D01*
%TO.N,/D-*%
X108439000Y-53296500D02*
X110108500Y-53296500D01*
X110108500Y-53296500D02*
X110400000Y-53005000D01*
%TO.N,/DC-*%
X110739000Y-54994000D02*
X110739000Y-56335000D01*
X110400000Y-54655000D02*
X110739000Y-54994000D01*
%TO.N,/DC+*%
X112002011Y-54654991D02*
X111739000Y-54918002D01*
X111739000Y-54918000D02*
X112002000Y-54655000D01*
X111739000Y-54918002D02*
X111739000Y-56335000D01*
%TD*%
%TA.AperFunction,Conductor*%
%TO.N,Net-(D1-A2)*%
G36*
X97557864Y-57434168D02*
G01*
X97641034Y-57493748D01*
X97756200Y-57576250D01*
X97962604Y-57702542D01*
X98169009Y-57807265D01*
X98302517Y-57861050D01*
X98375405Y-57890414D01*
X98375407Y-57890414D01*
X98375413Y-57890417D01*
X98569412Y-57948298D01*
X98574834Y-57951763D01*
X98577604Y-57957574D01*
X98576881Y-57963970D01*
X98356562Y-58498207D01*
X98354019Y-58502019D01*
X98350207Y-58504562D01*
X97814750Y-58725384D01*
X97805828Y-58725384D01*
X97799500Y-58719095D01*
X97699277Y-58480273D01*
X97594555Y-58252299D01*
X97489832Y-58045894D01*
X97385110Y-57861060D01*
X97285472Y-57705722D01*
X97283689Y-57698152D01*
X97287047Y-57691136D01*
X97542778Y-57435405D01*
X97550093Y-57432018D01*
X97557864Y-57434168D01*
G37*
%TD.AperFunction*%
%TD*%
%TA.AperFunction,Conductor*%
%TO.N,Net-(D1-A2)*%
G36*
X97413179Y-56489223D02*
G01*
X97418492Y-56492626D01*
X97421266Y-56498293D01*
X97463682Y-56728629D01*
X97508367Y-56953457D01*
X97553053Y-57160473D01*
X97597740Y-57349672D01*
X97640726Y-57514524D01*
X97640696Y-57520542D01*
X97637678Y-57525749D01*
X97381583Y-57781844D01*
X97376204Y-57784908D01*
X97370014Y-57784797D01*
X97364747Y-57781544D01*
X97250542Y-57658892D01*
X97182491Y-57595712D01*
X97128076Y-57545190D01*
X97083818Y-57510539D01*
X97005609Y-57449306D01*
X96883137Y-57371240D01*
X96769095Y-57315140D01*
X96763662Y-57309601D01*
X96762889Y-57301883D01*
X96929132Y-56617131D01*
X96932183Y-56611666D01*
X96937611Y-56608556D01*
X97406875Y-56489074D01*
X97413179Y-56489223D01*
G37*
%TD.AperFunction*%
%TD*%
%TA.AperFunction,Conductor*%
%TO.N,Net-(D1-A2)*%
G36*
X96477602Y-56056323D02*
G01*
X96925246Y-56602155D01*
X96927855Y-56610593D01*
X96923821Y-56618451D01*
X96451981Y-57023569D01*
X96444091Y-57026389D01*
X96436339Y-57023211D01*
X96428998Y-57016301D01*
X96346500Y-56938638D01*
X96346495Y-56938634D01*
X96346493Y-56938632D01*
X96249005Y-56861105D01*
X96151503Y-56797820D01*
X96102749Y-56773301D01*
X96054000Y-56748784D01*
X95964268Y-56716771D01*
X95958637Y-56712493D01*
X95956500Y-56705752D01*
X95956500Y-56225189D01*
X95959744Y-56217102D01*
X95967678Y-56213501D01*
X95986313Y-56212668D01*
X96059440Y-56209404D01*
X96162381Y-56190559D01*
X96162381Y-56190558D01*
X96162386Y-56190558D01*
X96215399Y-56173513D01*
X96265323Y-56157463D01*
X96368264Y-56110118D01*
X96462550Y-56053701D01*
X96470562Y-56052215D01*
X96477602Y-56056323D01*
G37*
%TD.AperFunction*%
%TD*%
%TA.AperFunction,Conductor*%
%TO.N,Net-(D1-A2)*%
G36*
X95751727Y-56035562D02*
G01*
X95860887Y-56091703D01*
X95907994Y-56111130D01*
X95978662Y-56140276D01*
X96096441Y-56176850D01*
X96214220Y-56201425D01*
X96321543Y-56212883D01*
X96329001Y-56216695D01*
X96332000Y-56224517D01*
X96332000Y-56703483D01*
X96329001Y-56711305D01*
X96321543Y-56715116D01*
X96262558Y-56721413D01*
X96214216Y-56726574D01*
X96096448Y-56751147D01*
X96096442Y-56751148D01*
X96096441Y-56751149D01*
X95978662Y-56787723D01*
X95978656Y-56787725D01*
X95860887Y-56836295D01*
X95751727Y-56892437D01*
X95743856Y-56893457D01*
X95737145Y-56889221D01*
X95598591Y-56711305D01*
X95411597Y-56471187D01*
X95409129Y-56464000D01*
X95411597Y-56456812D01*
X95737146Y-56038777D01*
X95743856Y-56034542D01*
X95751727Y-56035562D01*
G37*
%TD.AperFunction*%
%TD*%
%TA.AperFunction,Conductor*%
%TO.N,Net-(D1-A2)*%
G36*
X94271768Y-56194826D02*
G01*
X94276413Y-56197167D01*
X94370037Y-56244349D01*
X94370042Y-56244351D01*
X94370044Y-56244352D01*
X94476033Y-56287264D01*
X94582022Y-56319676D01*
X94688011Y-56341588D01*
X94783553Y-56351875D01*
X94791005Y-56355690D01*
X94794000Y-56363508D01*
X94794000Y-56842492D01*
X94791005Y-56850310D01*
X94783553Y-56854124D01*
X94688011Y-56864411D01*
X94688011Y-56864412D01*
X94582025Y-56886323D01*
X94476028Y-56918737D01*
X94370037Y-56961650D01*
X94271770Y-57011172D01*
X94264535Y-57012257D01*
X94258070Y-57008832D01*
X93875793Y-56611107D01*
X93872528Y-56602999D01*
X93875792Y-56594892D01*
X94258071Y-56197166D01*
X94264535Y-56193742D01*
X94271768Y-56194826D01*
G37*
%TD.AperFunction*%
%TD*%
%TA.AperFunction,Conductor*%
%TO.N,Net-(D1-A2)*%
G36*
X95023227Y-56075092D02*
G01*
X95401816Y-56457750D01*
X95405092Y-56464396D01*
X95403717Y-56471677D01*
X95161441Y-56906036D01*
X95155779Y-56911113D01*
X95148193Y-56911638D01*
X95054453Y-56886502D01*
X95022000Y-56877800D01*
X95021998Y-56877799D01*
X95021992Y-56877798D01*
X94887011Y-56853601D01*
X94880361Y-56853000D01*
X94752000Y-56841399D01*
X94750811Y-56841397D01*
X94617004Y-56841198D01*
X94494719Y-56851888D01*
X94488449Y-56850687D01*
X94483742Y-56846374D01*
X94482000Y-56840232D01*
X94482000Y-56361627D01*
X94484283Y-56354683D01*
X94490241Y-56350450D01*
X94588802Y-56319959D01*
X94695604Y-56274919D01*
X94695603Y-56274919D01*
X94695609Y-56274917D01*
X94746422Y-56247778D01*
X94802407Y-56217879D01*
X94909209Y-56148839D01*
X95007840Y-56073999D01*
X95015738Y-56071650D01*
X95023227Y-56075092D01*
G37*
%TD.AperFunction*%
%TD*%
%TA.AperFunction,Conductor*%
%TO.N,VCC*%
G36*
X109826136Y-55132941D02*
G01*
X109830863Y-55139204D01*
X109854574Y-55214634D01*
X109854591Y-55214686D01*
X109884072Y-55305475D01*
X109913570Y-55393318D01*
X109943062Y-55478138D01*
X109971258Y-55556367D01*
X109971457Y-55563698D01*
X109749504Y-56303068D01*
X109745463Y-56308953D01*
X109738755Y-56311395D01*
X109731877Y-56309485D01*
X109727390Y-56303934D01*
X109440988Y-55565130D01*
X109440227Y-55560085D01*
X109441684Y-55555197D01*
X109445504Y-55548365D01*
X109452009Y-55533983D01*
X109458514Y-55516852D01*
X109465019Y-55496973D01*
X109470689Y-55477246D01*
X109473659Y-55472209D01*
X109811429Y-55134439D01*
X109818515Y-55131073D01*
X109826136Y-55132941D01*
G37*
%TD.AperFunction*%
%TD*%
%TA.AperFunction,Conductor*%
%TO.N,VCC*%
G36*
X95026854Y-54560778D02*
G01*
X95352401Y-54978811D01*
X95354870Y-54986000D01*
X95352401Y-54993189D01*
X95026854Y-55411221D01*
X95020143Y-55415457D01*
X95012272Y-55414437D01*
X94903111Y-55358295D01*
X94785342Y-55309725D01*
X94785341Y-55309724D01*
X94785337Y-55309723D01*
X94667558Y-55273149D01*
X94667553Y-55273148D01*
X94667550Y-55273147D01*
X94549782Y-55248574D01*
X94508459Y-55244162D01*
X94442456Y-55237116D01*
X94434999Y-55233305D01*
X94432000Y-55225483D01*
X94432000Y-54746517D01*
X94434999Y-54738695D01*
X94442456Y-54734883D01*
X94549779Y-54723425D01*
X94667558Y-54698850D01*
X94785337Y-54662276D01*
X94903116Y-54613701D01*
X95012272Y-54557561D01*
X95020143Y-54556542D01*
X95026854Y-54560778D01*
G37*
%TD.AperFunction*%
%TD*%
%TA.AperFunction,Conductor*%
%TO.N,VCC*%
G36*
X94271657Y-54594526D02*
G01*
X94370044Y-54640951D01*
X94476033Y-54680463D01*
X94582022Y-54709476D01*
X94688011Y-54727988D01*
X94783182Y-54735182D01*
X94790879Y-54738894D01*
X94794000Y-54746849D01*
X94794000Y-55225822D01*
X94791127Y-55233501D01*
X94783919Y-55237408D01*
X94772452Y-55239011D01*
X94688016Y-55250810D01*
X94582016Y-55276125D01*
X94476036Y-55311933D01*
X94370042Y-55358248D01*
X94271872Y-55410869D01*
X94264521Y-55412114D01*
X94257910Y-55408665D01*
X93875793Y-55011108D01*
X93872528Y-55003000D01*
X93875793Y-54994892D01*
X94258232Y-54596998D01*
X94264545Y-54593602D01*
X94271657Y-54594526D01*
G37*
%TD.AperFunction*%
%TD*%
%TA.AperFunction,Conductor*%
%TO.N,VCC*%
G36*
X95899821Y-54104200D02*
G01*
X96239062Y-54443441D01*
X96242450Y-54450762D01*
X96240294Y-54458536D01*
X96163267Y-54565853D01*
X96080447Y-54693244D01*
X95997634Y-54832621D01*
X95914826Y-54983990D01*
X95836580Y-55138358D01*
X95830570Y-55143899D01*
X95822400Y-55144153D01*
X95361338Y-54988411D01*
X95357082Y-54985864D01*
X95354264Y-54981783D01*
X95292811Y-54832624D01*
X95174949Y-54546546D01*
X95174910Y-54537728D01*
X95181035Y-54531389D01*
X95314989Y-54472182D01*
X95459375Y-54396365D01*
X95603762Y-54308547D01*
X95748148Y-54208730D01*
X95884387Y-54103221D01*
X95892287Y-54100796D01*
X95899821Y-54104200D01*
G37*
%TD.AperFunction*%
%TD*%
%TA.AperFunction,Conductor*%
%TO.N,VCC*%
G36*
X107499102Y-53312791D02*
G01*
X107787020Y-53805611D01*
X107788536Y-53812896D01*
X107778996Y-53893023D01*
X107768996Y-53980022D01*
X107759001Y-54069979D01*
X107759002Y-54069980D01*
X107748998Y-54163019D01*
X107740092Y-54248512D01*
X107736288Y-54255991D01*
X107728455Y-54259000D01*
X107249544Y-54259000D01*
X107241711Y-54255991D01*
X107237907Y-54248512D01*
X107229001Y-54163019D01*
X107218997Y-54069980D01*
X107218997Y-54069979D01*
X107209003Y-53980022D01*
X107199003Y-53893023D01*
X107196671Y-53873436D01*
X107189463Y-53812893D01*
X107190978Y-53805613D01*
X107478898Y-53312790D01*
X107485017Y-53307692D01*
X107492983Y-53307692D01*
X107499102Y-53312791D01*
G37*
%TD.AperFunction*%
%TD*%
%TA.AperFunction,Conductor*%
%TO.N,Net-(F1-Pad1)*%
G36*
X99299151Y-56146652D02*
G01*
X99389172Y-56219596D01*
X99487254Y-56284821D01*
X99585336Y-56335798D01*
X99683418Y-56372524D01*
X99743356Y-56386259D01*
X99772413Y-56392918D01*
X99778951Y-56397031D01*
X99781500Y-56404322D01*
X99781500Y-56884992D01*
X99778691Y-56892597D01*
X99771613Y-56896550D01*
X99754438Y-56899244D01*
X99682078Y-56910595D01*
X99582661Y-56940441D01*
X99483246Y-56984534D01*
X99383822Y-57042883D01*
X99292710Y-57109413D01*
X99284754Y-57111616D01*
X99277325Y-57108019D01*
X98813470Y-56619395D01*
X98810258Y-56611098D01*
X98813809Y-56602942D01*
X99283642Y-56147341D01*
X99291264Y-56144054D01*
X99299151Y-56146652D01*
G37*
%TD.AperFunction*%
%TD*%
%TA.AperFunction,Conductor*%
%TO.N,Net-(F1-Pad1)*%
G36*
X102186709Y-57615977D02*
G01*
X102276299Y-57688044D01*
X102359867Y-57720851D01*
X102443166Y-57731677D01*
X102443176Y-57731683D01*
X102443177Y-57731679D01*
X102539199Y-57744259D01*
X102541117Y-57744677D01*
X102632225Y-57772785D01*
X102652565Y-57779060D01*
X102657929Y-57782544D01*
X102660659Y-57788329D01*
X102659939Y-57794684D01*
X102551606Y-58058516D01*
X102549029Y-58062373D01*
X102346480Y-58263576D01*
X102341085Y-58266622D01*
X102334891Y-58266487D01*
X102329636Y-58263209D01*
X102240147Y-58166212D01*
X102239437Y-58165366D01*
X102177551Y-58084015D01*
X102177202Y-58083530D01*
X102126893Y-58009882D01*
X102126891Y-58009879D01*
X102126886Y-58009872D01*
X102064493Y-57927855D01*
X102064491Y-57927852D01*
X102015198Y-57874424D01*
X101974017Y-57829788D01*
X101970919Y-57821621D01*
X101974343Y-57813584D01*
X102171106Y-57616821D01*
X102178747Y-57613412D01*
X102186709Y-57615977D01*
G37*
%TD.AperFunction*%
%TD*%
%TA.AperFunction,Conductor*%
%TO.N,Net-(F1-Pad1)*%
G36*
X102377770Y-55182717D02*
G01*
X102511587Y-55315645D01*
X102579241Y-55382850D01*
X102581802Y-55386668D01*
X102582695Y-55391179D01*
X102582030Y-55674034D01*
X102580242Y-55680222D01*
X102575450Y-55684526D01*
X102569105Y-55685642D01*
X102476673Y-55675913D01*
X102474968Y-55675604D01*
X102393238Y-55654465D01*
X102363644Y-55648846D01*
X102323270Y-55641181D01*
X102323269Y-55641181D01*
X102254942Y-55654230D01*
X102185367Y-55705855D01*
X102177536Y-55708127D01*
X102170122Y-55704732D01*
X101973789Y-55508399D01*
X101970716Y-55502982D01*
X101970858Y-55496755D01*
X101974175Y-55491484D01*
X102059612Y-55413521D01*
X102060562Y-55412743D01*
X102133753Y-55359155D01*
X102134286Y-55358788D01*
X102200976Y-55315645D01*
X102274929Y-55261500D01*
X102361640Y-55182375D01*
X102369773Y-55179322D01*
X102377770Y-55182717D01*
G37*
%TD.AperFunction*%
%TD*%
%TA.AperFunction,Conductor*%
%TO.N,Net-(J1-SHIELD)*%
G36*
X103975758Y-61867517D02*
G01*
X104060208Y-61916766D01*
X104152906Y-61960324D01*
X104245604Y-61993383D01*
X104338302Y-62015941D01*
X104420809Y-62026674D01*
X104428091Y-62030555D01*
X104431000Y-62038276D01*
X104431000Y-62518180D01*
X104428262Y-62525702D01*
X104421329Y-62529702D01*
X104340524Y-62543932D01*
X104315230Y-62551321D01*
X104250042Y-62570366D01*
X104159569Y-62607298D01*
X104069099Y-62654727D01*
X103986729Y-62707471D01*
X103979031Y-62709235D01*
X103971966Y-62705706D01*
X103923197Y-62654730D01*
X103587480Y-62303819D01*
X103584237Y-62295929D01*
X103587212Y-62287934D01*
X103961146Y-61869823D01*
X103968041Y-61866068D01*
X103975758Y-61867517D01*
G37*
%TD.AperFunction*%
%TD*%
%TA.AperFunction,Conductor*%
%TO.N,Net-(J1-SHIELD)*%
G36*
X103829089Y-61373460D02*
G01*
X103833247Y-61379805D01*
X103863412Y-61497988D01*
X103879618Y-61556232D01*
X103895818Y-61614458D01*
X103928242Y-61720485D01*
X103960648Y-61815955D01*
X103990300Y-61893707D01*
X103990785Y-61900434D01*
X103987476Y-61906311D01*
X103589108Y-62289206D01*
X103581000Y-62292471D01*
X103572892Y-62289206D01*
X103365889Y-62090244D01*
X103174521Y-61906309D01*
X103171214Y-61900434D01*
X103171698Y-61893710D01*
X103201352Y-61815955D01*
X103233763Y-61720466D01*
X103266176Y-61614477D01*
X103298588Y-61497988D01*
X103328752Y-61379805D01*
X103332911Y-61373460D01*
X103340089Y-61371000D01*
X103821911Y-61371000D01*
X103829089Y-61373460D01*
G37*
%TD.AperFunction*%
%TD*%
%TA.AperFunction,Conductor*%
%TO.N,Net-(J1-SHIELD)*%
G36*
X120544485Y-54033076D02*
G01*
X122086169Y-55576161D01*
X122089218Y-55581495D01*
X122089143Y-55587640D01*
X122085965Y-55592899D01*
X121521198Y-56131277D01*
X121520755Y-56131678D01*
X121063820Y-56524741D01*
X121063619Y-56524909D01*
X120635267Y-56877004D01*
X120147791Y-57300564D01*
X119521965Y-57899938D01*
X119513746Y-57903187D01*
X119505599Y-57899761D01*
X119166713Y-57560875D01*
X119163362Y-57553935D01*
X119165055Y-57546416D01*
X119530424Y-56959845D01*
X119465087Y-56428745D01*
X119465087Y-56428744D01*
X119139994Y-55899287D01*
X118915824Y-55576161D01*
X118731620Y-55310642D01*
X118730554Y-55308750D01*
X118419539Y-54610915D01*
X118418670Y-54604327D01*
X118421530Y-54598327D01*
X118427193Y-54594853D01*
X120533178Y-54030044D01*
X120539237Y-54030044D01*
X120544485Y-54033076D01*
G37*
%TD.AperFunction*%
%TD*%
%TA.AperFunction,Conductor*%
%TO.N,Net-(J1-SHIELD)*%
G36*
X104203966Y-58824100D02*
G01*
X104697204Y-59027437D01*
X104701018Y-59029981D01*
X104703562Y-59033795D01*
X104906899Y-59527033D01*
X104907666Y-59533139D01*
X104905228Y-59538789D01*
X104900260Y-59542421D01*
X104694324Y-59621140D01*
X104694056Y-59621238D01*
X104535303Y-59677533D01*
X104403855Y-59737013D01*
X104269026Y-59829429D01*
X104108217Y-59977015D01*
X104100055Y-59980092D01*
X104092033Y-59976668D01*
X103754331Y-59638966D01*
X103750907Y-59630944D01*
X103753982Y-59622785D01*
X103901571Y-59461969D01*
X103993985Y-59327143D01*
X104053461Y-59195701D01*
X104053461Y-59195699D01*
X104053464Y-59195694D01*
X104069842Y-59149505D01*
X104109799Y-59036827D01*
X104109827Y-59036751D01*
X104188579Y-58830736D01*
X104192210Y-58825771D01*
X104197860Y-58823333D01*
X104203966Y-58824100D01*
G37*
%TD.AperFunction*%
%TD*%
%TA.AperFunction,Conductor*%
%TO.N,/DUSB+*%
G36*
X104342468Y-56612833D02*
G01*
X104383880Y-56633933D01*
X104393895Y-56639037D01*
X104396010Y-56640422D01*
X104406869Y-56649343D01*
X104410638Y-56651869D01*
X104428758Y-56661594D01*
X104471806Y-56679541D01*
X104487211Y-56682643D01*
X104490201Y-56683684D01*
X104492540Y-56684875D01*
X104493149Y-56685211D01*
X104511437Y-56696043D01*
X104532294Y-56708396D01*
X104604359Y-56746602D01*
X104691270Y-56771562D01*
X104807123Y-56779733D01*
X104814859Y-56783427D01*
X104818000Y-56791404D01*
X104818000Y-56969596D01*
X104814859Y-56977573D01*
X104807123Y-56981267D01*
X104691270Y-56989435D01*
X104604359Y-57014396D01*
X104532295Y-57052601D01*
X104450531Y-57101027D01*
X104449638Y-57101505D01*
X104343917Y-57152322D01*
X104337762Y-57153426D01*
X104331917Y-57151203D01*
X104328052Y-57146288D01*
X104272945Y-57014397D01*
X104218883Y-56885008D01*
X104217980Y-56880499D01*
X104218882Y-56875993D01*
X104326367Y-56618743D01*
X104330302Y-56613779D01*
X104336254Y-56611594D01*
X104342468Y-56612833D01*
G37*
%TD.AperFunction*%
%TD*%
%TA.AperFunction,Conductor*%
%TO.N,/DUSB+*%
G36*
X106543139Y-55589078D02*
G01*
X106549116Y-55595514D01*
X106776627Y-56193255D01*
X106777101Y-56200011D01*
X106773752Y-56205898D01*
X106727441Y-56249907D01*
X106675493Y-56311274D01*
X106623536Y-56384654D01*
X106571589Y-56470017D01*
X106527063Y-56553468D01*
X106521920Y-56558451D01*
X106514837Y-56559504D01*
X106508467Y-56556233D01*
X106380146Y-56427912D01*
X106377335Y-56423385D01*
X106364246Y-56384654D01*
X106352652Y-56350345D01*
X106337584Y-56311274D01*
X106327094Y-56284073D01*
X106301537Y-56227161D01*
X106275973Y-56179596D01*
X106254225Y-56147092D01*
X106252270Y-56141290D01*
X106253513Y-56135297D01*
X106527746Y-55594384D01*
X106534367Y-55588615D01*
X106543139Y-55589078D01*
G37*
%TD.AperFunction*%
%TD*%
%TA.AperFunction,Conductor*%
%TO.N,/DUSB-*%
G36*
X102765077Y-57033814D02*
G01*
X102770347Y-57037266D01*
X102835784Y-57112124D01*
X102836322Y-57112787D01*
X102888449Y-57182282D01*
X102938674Y-57235030D01*
X103006160Y-57268379D01*
X103099920Y-57278849D01*
X103107342Y-57282676D01*
X103110322Y-57290477D01*
X103110322Y-57468823D01*
X103107078Y-57476909D01*
X103099145Y-57480511D01*
X102970899Y-57486248D01*
X102872519Y-57501125D01*
X102788124Y-57518816D01*
X102787473Y-57518933D01*
X102690031Y-57533668D01*
X102688805Y-57533788D01*
X102562182Y-57539454D01*
X102556125Y-57538075D01*
X102551628Y-57533789D01*
X102549959Y-57527805D01*
X102549929Y-57518933D01*
X102549016Y-57244883D01*
X102549904Y-57240374D01*
X102552459Y-57236556D01*
X102753287Y-57036671D01*
X102758781Y-57033595D01*
X102765077Y-57033814D01*
G37*
%TD.AperFunction*%
%TD*%
%TA.AperFunction,Conductor*%
%TO.N,/DUSB-*%
G36*
X104524179Y-56039322D02*
G01*
X104528221Y-56044365D01*
X104637115Y-56304989D01*
X104638019Y-56309500D01*
X104637115Y-56314011D01*
X104527701Y-56575877D01*
X104521353Y-56582187D01*
X104512403Y-56582165D01*
X104469355Y-56564218D01*
X104465584Y-56561692D01*
X104456343Y-56552451D01*
X104456343Y-56552450D01*
X104456342Y-56552450D01*
X104399823Y-56523652D01*
X104343303Y-56494853D01*
X104217999Y-56475007D01*
X104168408Y-56482861D01*
X104166372Y-56483003D01*
X104069317Y-56481290D01*
X104063713Y-56481191D01*
X104055574Y-56477694D01*
X104052220Y-56469494D01*
X104052220Y-56291307D01*
X104055145Y-56283568D01*
X104062457Y-56279699D01*
X104179839Y-56264911D01*
X104262187Y-56222811D01*
X104327732Y-56163964D01*
X104327909Y-56163809D01*
X104404396Y-56098107D01*
X104406352Y-56096749D01*
X104511779Y-56038629D01*
X104518077Y-56037194D01*
X104524179Y-56039322D01*
G37*
%TD.AperFunction*%
%TD*%
%TA.AperFunction,Conductor*%
%TO.N,/DUSB-*%
G36*
X108449442Y-55591157D02*
G01*
X108724442Y-56135191D01*
X108725672Y-56141271D01*
X108723622Y-56147125D01*
X108689867Y-56195917D01*
X108652145Y-56262448D01*
X108614434Y-56340955D01*
X108576713Y-56431487D01*
X108541817Y-56526340D01*
X108537531Y-56531896D01*
X108530837Y-56534000D01*
X108347162Y-56534000D01*
X108340468Y-56531896D01*
X108336182Y-56526340D01*
X108330755Y-56511590D01*
X108301283Y-56431480D01*
X108263567Y-56340961D01*
X108225850Y-56262441D01*
X108188134Y-56195922D01*
X108154376Y-56147124D01*
X108152327Y-56141272D01*
X108153556Y-56135193D01*
X108428558Y-55591156D01*
X108434795Y-55585517D01*
X108443205Y-55585517D01*
X108449442Y-55591157D01*
G37*
%TD.AperFunction*%
%TD*%
%TA.AperFunction,Conductor*%
%TO.N,/DUSB-*%
G36*
X102911263Y-56752736D02*
G01*
X103037263Y-56878736D01*
X103040683Y-56886597D01*
X103037825Y-56894680D01*
X102961680Y-56982378D01*
X102917876Y-57061478D01*
X102893929Y-57139472D01*
X102870363Y-57231503D01*
X102870070Y-57232473D01*
X102831244Y-57343171D01*
X102827672Y-57348304D01*
X102821968Y-57350865D01*
X102815759Y-57350122D01*
X102553815Y-57242563D01*
X102549986Y-57240013D01*
X102547436Y-57236184D01*
X102507719Y-57139459D01*
X102439876Y-56974237D01*
X102439134Y-56968031D01*
X102441694Y-56962327D01*
X102446824Y-56958756D01*
X102557537Y-56919922D01*
X102558488Y-56919635D01*
X102606380Y-56907371D01*
X102650525Y-56896068D01*
X102650533Y-56896065D01*
X102650539Y-56896064D01*
X102728517Y-56872122D01*
X102728517Y-56872121D01*
X102728520Y-56872121D01*
X102807619Y-56828317D01*
X102807618Y-56828317D01*
X102807623Y-56828315D01*
X102895320Y-56752173D01*
X102903402Y-56749316D01*
X102911263Y-56752736D01*
G37*
%TD.AperFunction*%
%TD*%
%TA.AperFunction,Conductor*%
%TO.N,Net-(J1-CC1)*%
G36*
X106458073Y-58551141D02*
G01*
X106461767Y-58558877D01*
X106469935Y-58674728D01*
X106494896Y-58761639D01*
X106533101Y-58833703D01*
X106581527Y-58915466D01*
X106582005Y-58916359D01*
X106632822Y-59022082D01*
X106633926Y-59028237D01*
X106631703Y-59034082D01*
X106626788Y-59037947D01*
X106365511Y-59147115D01*
X106361000Y-59148019D01*
X106356489Y-59147115D01*
X106095210Y-59037947D01*
X106090295Y-59034082D01*
X106088072Y-59028237D01*
X106089175Y-59022086D01*
X106139998Y-58916346D01*
X106140468Y-58915470D01*
X106140471Y-58915466D01*
X106188893Y-58833709D01*
X106188897Y-58833703D01*
X106204066Y-58805089D01*
X106227102Y-58761640D01*
X106252062Y-58674727D01*
X106260232Y-58558877D01*
X106263927Y-58551141D01*
X106271904Y-58548000D01*
X106450096Y-58548000D01*
X106458073Y-58551141D01*
G37*
%TD.AperFunction*%
%TD*%
%TA.AperFunction,Conductor*%
%TO.N,Net-(J1-CC1)*%
G36*
X106357820Y-58375760D02*
G01*
X106745101Y-58710522D01*
X106748635Y-58715941D01*
X106748750Y-58722408D01*
X106745410Y-58727948D01*
X106696187Y-58773645D01*
X106637388Y-58843837D01*
X106578589Y-58929627D01*
X106519799Y-59031004D01*
X106464240Y-59141554D01*
X106459927Y-59146259D01*
X106453786Y-59148000D01*
X106268048Y-59148000D01*
X106262011Y-59146322D01*
X106257705Y-59141769D01*
X106199799Y-59032257D01*
X106138598Y-58932159D01*
X106125384Y-58913925D01*
X106077399Y-58847706D01*
X106016199Y-58778897D01*
X105964969Y-58734394D01*
X105961436Y-58728925D01*
X105961373Y-58722414D01*
X105964798Y-58716879D01*
X106342328Y-58375928D01*
X106350042Y-58372913D01*
X106357820Y-58375760D01*
G37*
%TD.AperFunction*%
%TD*%
%TA.AperFunction,Conductor*%
%TO.N,Net-(J1-CC2)*%
G36*
X98853507Y-54054883D02*
G01*
X99076917Y-54148228D01*
X99114788Y-54164052D01*
X99119703Y-54167917D01*
X99121926Y-54173762D01*
X99120822Y-54179917D01*
X99070005Y-54285638D01*
X99069527Y-54286531D01*
X99021101Y-54368295D01*
X98982896Y-54440359D01*
X98957935Y-54527270D01*
X98949767Y-54643123D01*
X98946073Y-54650859D01*
X98938096Y-54654000D01*
X98759904Y-54654000D01*
X98751927Y-54650859D01*
X98748233Y-54643123D01*
X98740062Y-54527270D01*
X98715102Y-54440359D01*
X98676896Y-54368294D01*
X98628470Y-54286531D01*
X98627992Y-54285638D01*
X98577177Y-54179917D01*
X98576073Y-54173762D01*
X98578296Y-54167917D01*
X98583210Y-54164052D01*
X98844492Y-54054883D01*
X98849000Y-54053980D01*
X98853507Y-54054883D01*
G37*
%TD.AperFunction*%
%TD*%
%TA.AperFunction,Conductor*%
%TO.N,Net-(J1-CC2)*%
G36*
X98947699Y-54069956D02*
G01*
X98952010Y-54075172D01*
X99002261Y-54194887D01*
X99055531Y-54305535D01*
X99108789Y-54399902D01*
X99108792Y-54399907D01*
X99108793Y-54399908D01*
X99162058Y-54478033D01*
X99176812Y-54495170D01*
X99207279Y-54530559D01*
X99209944Y-54536216D01*
X99209315Y-54542437D01*
X99205572Y-54547446D01*
X98798117Y-54862718D01*
X98790238Y-54865143D01*
X98782715Y-54861770D01*
X98425539Y-54507304D01*
X98422384Y-54501642D01*
X98422725Y-54495170D01*
X98426458Y-54489874D01*
X98482790Y-54444685D01*
X98549342Y-54374984D01*
X98615895Y-54288969D01*
X98682447Y-54186641D01*
X98745647Y-54073976D01*
X98749939Y-54069604D01*
X98755852Y-54068000D01*
X98941222Y-54068000D01*
X98947699Y-54069956D01*
G37*
%TD.AperFunction*%
%TD*%
%TA.AperFunction,Conductor*%
%TO.N,/D+*%
G36*
X111426411Y-52285364D02*
G01*
X111568272Y-52380978D01*
X111618971Y-52409059D01*
X111718125Y-52463980D01*
X111770175Y-52486557D01*
X111867984Y-52528985D01*
X112017840Y-52575988D01*
X112153656Y-52602273D01*
X112159671Y-52605453D01*
X112162900Y-52611441D01*
X112162251Y-52618214D01*
X112005132Y-52999834D01*
X112001702Y-53004451D01*
X111996487Y-53006876D01*
X111537434Y-53093704D01*
X111529149Y-53092185D01*
X111524031Y-53085494D01*
X111477008Y-52924820D01*
X111427005Y-52771964D01*
X111377001Y-52637108D01*
X111326998Y-52520252D01*
X111280819Y-52428956D01*
X111279707Y-52421831D01*
X111282985Y-52415407D01*
X111411600Y-52286792D01*
X111418749Y-52283420D01*
X111426411Y-52285364D01*
G37*
%TD.AperFunction*%
%TD*%
%TA.AperFunction,Conductor*%
%TO.N,/D-*%
G36*
X108742010Y-53001871D02*
G01*
X108747256Y-53004980D01*
X108798999Y-53058132D01*
X108799000Y-53058133D01*
X108859000Y-53108949D01*
X108919001Y-53148950D01*
X108949816Y-53163938D01*
X108979000Y-53178133D01*
X108990139Y-53181542D01*
X109030725Y-53193968D01*
X109036706Y-53198197D01*
X109039000Y-53205155D01*
X109039000Y-53387845D01*
X109036706Y-53394803D01*
X109030725Y-53399033D01*
X108978995Y-53414867D01*
X108919001Y-53444048D01*
X108859000Y-53484049D01*
X108798994Y-53534871D01*
X108747257Y-53588017D01*
X108742009Y-53591128D01*
X108735909Y-53591174D01*
X108730615Y-53588143D01*
X108446314Y-53304786D01*
X108443273Y-53299533D01*
X108443273Y-53293465D01*
X108446311Y-53288215D01*
X108730617Y-53004854D01*
X108735909Y-53001825D01*
X108742010Y-53001871D01*
G37*
%TD.AperFunction*%
%TD*%
%TA.AperFunction,Conductor*%
%TO.N,/DC-*%
G36*
X110837895Y-55261772D02*
G01*
X110842209Y-55266550D01*
X110878998Y-55341629D01*
X110879005Y-55341643D01*
X110918997Y-55412445D01*
X110959000Y-55472451D01*
X110998996Y-55521630D01*
X111033375Y-55554605D01*
X111036697Y-55560511D01*
X111036189Y-55567268D01*
X110749913Y-56307771D01*
X110745615Y-56313202D01*
X110739000Y-56315252D01*
X110732385Y-56313202D01*
X110728087Y-56307771D01*
X110441810Y-55567268D01*
X110441302Y-55560511D01*
X110444623Y-55554606D01*
X110479000Y-55521633D01*
X110519000Y-55472449D01*
X110558999Y-55412449D01*
X110598999Y-55341633D01*
X110599001Y-55341629D01*
X110635790Y-55266552D01*
X110640105Y-55261772D01*
X110646296Y-55260000D01*
X110831704Y-55260000D01*
X110837895Y-55261772D01*
G37*
%TD.AperFunction*%
%TD*%
%TA.AperFunction,Conductor*%
%TO.N,/DC-*%
G36*
X110408990Y-54657804D02*
G01*
X110867161Y-54851683D01*
X110872627Y-54856427D01*
X110874256Y-54863479D01*
X110867803Y-54937106D01*
X110867800Y-54937152D01*
X110860600Y-55036954D01*
X110860596Y-55037004D01*
X110860596Y-55037017D01*
X110853397Y-55154455D01*
X110846201Y-55289476D01*
X110846200Y-55289513D01*
X110839525Y-55431122D01*
X110835915Y-55439036D01*
X110827839Y-55442270D01*
X110644269Y-55442270D01*
X110639464Y-55441238D01*
X110635507Y-55438323D01*
X110538609Y-55328818D01*
X110438216Y-55233365D01*
X110337814Y-55155905D01*
X110286019Y-55125232D01*
X110237424Y-55096454D01*
X110187256Y-55075738D01*
X110150107Y-55060399D01*
X110144868Y-55056120D01*
X110142873Y-55049657D01*
X110144788Y-55043170D01*
X110394647Y-54662161D01*
X110401028Y-54657385D01*
X110408990Y-54657804D01*
G37*
%TD.AperFunction*%
%TD*%
%TA.AperFunction,Conductor*%
%TO.N,/DC+*%
G36*
X111837895Y-55261772D02*
G01*
X111842209Y-55266550D01*
X111878998Y-55341629D01*
X111879005Y-55341643D01*
X111918997Y-55412445D01*
X111959000Y-55472451D01*
X111998996Y-55521630D01*
X112033375Y-55554605D01*
X112036697Y-55560511D01*
X112036189Y-55567268D01*
X111749913Y-56307771D01*
X111745615Y-56313202D01*
X111739000Y-56315252D01*
X111732385Y-56313202D01*
X111728087Y-56307771D01*
X111441810Y-55567268D01*
X111441302Y-55560511D01*
X111444623Y-55554606D01*
X111479000Y-55521633D01*
X111519000Y-55472449D01*
X111558999Y-55412449D01*
X111598999Y-55341633D01*
X111599001Y-55341629D01*
X111635790Y-55266552D01*
X111640105Y-55261772D01*
X111646296Y-55260000D01*
X111831704Y-55260000D01*
X111837895Y-55261772D01*
G37*
%TD.AperFunction*%
%TD*%
%TA.AperFunction,Conductor*%
%TO.N,/DC+*%
G36*
X112007478Y-54661485D02*
G01*
X112284147Y-55040691D01*
X112286381Y-55047014D01*
X112284776Y-55053525D01*
X112279860Y-55058085D01*
X112201684Y-55096547D01*
X112111011Y-55159159D01*
X112020341Y-55239769D01*
X111929666Y-55338384D01*
X111842513Y-55450473D01*
X111838418Y-55453801D01*
X111833277Y-55454991D01*
X111649140Y-55454991D01*
X111641477Y-55452133D01*
X111637559Y-55444954D01*
X111616604Y-55299004D01*
X111594201Y-55160974D01*
X111582176Y-55096549D01*
X111571806Y-55040991D01*
X111549408Y-54938991D01*
X111529630Y-54864814D01*
X111530425Y-54856662D01*
X111536373Y-54851028D01*
X111993468Y-54657605D01*
X112001148Y-54657105D01*
X112007478Y-54661485D01*
G37*
%TD.AperFunction*%
%TD*%
%TA.AperFunction,Conductor*%
%TO.N,GND*%
G36*
X105041390Y-52236364D02*
G01*
X105081615Y-52263241D01*
X105239452Y-52421077D01*
X105266330Y-52461303D01*
X105275769Y-52508756D01*
X105275769Y-53480433D01*
X105258572Y-53543434D01*
X105211750Y-53588961D01*
X105148291Y-53604384D01*
X105085797Y-53585427D01*
X105028690Y-53549544D01*
X104869056Y-53493686D01*
X104700999Y-53474750D01*
X104532943Y-53493686D01*
X104373310Y-53549544D01*
X104230108Y-53639524D01*
X104110524Y-53759108D01*
X104020544Y-53902310D01*
X103964686Y-54061943D01*
X103945750Y-54230000D01*
X103964686Y-54398056D01*
X103964686Y-54398058D01*
X103964687Y-54398059D01*
X104020544Y-54557690D01*
X104110523Y-54700890D01*
X104230110Y-54820477D01*
X104373310Y-54910456D01*
X104532941Y-54966313D01*
X104701000Y-54985249D01*
X104869059Y-54966313D01*
X105028690Y-54910456D01*
X105171890Y-54820477D01*
X105291477Y-54700890D01*
X105347372Y-54611933D01*
X105386390Y-54572915D01*
X105438479Y-54554688D01*
X105493317Y-54560866D01*
X105540042Y-54590224D01*
X105685102Y-54735284D01*
X105694360Y-54745644D01*
X105716584Y-54773512D01*
X105763828Y-54805723D01*
X105767605Y-54808403D01*
X105793397Y-54827439D01*
X105818437Y-54845919D01*
X105823032Y-54848238D01*
X105828789Y-54850013D01*
X105828791Y-54850015D01*
X105853815Y-54857733D01*
X105883444Y-54866873D01*
X105887819Y-54868312D01*
X105941765Y-54887189D01*
X105941768Y-54887189D01*
X105956526Y-54892353D01*
X106004197Y-54922667D01*
X106033472Y-54970982D01*
X106037379Y-55016754D01*
X106038500Y-55016754D01*
X106038500Y-56117263D01*
X106048426Y-56185391D01*
X106050848Y-56190346D01*
X106056956Y-56205211D01*
X106059484Y-56212714D01*
X106083429Y-56261368D01*
X106086711Y-56266273D01*
X106095050Y-56280764D01*
X106103718Y-56298494D01*
X106116212Y-56347830D01*
X106107836Y-56398030D01*
X106080000Y-56440636D01*
X105976958Y-56543680D01*
X105936729Y-56570561D01*
X105889276Y-56580000D01*
X105247859Y-56580000D01*
X105180820Y-56560316D01*
X105135065Y-56507512D01*
X105125121Y-56438353D01*
X105127463Y-56422065D01*
X105143647Y-56309500D01*
X105123165Y-56167043D01*
X105121288Y-56162934D01*
X105063376Y-56036125D01*
X104969129Y-55927358D01*
X104969128Y-55927357D01*
X104848053Y-55849547D01*
X104709961Y-55809000D01*
X104566039Y-55809000D01*
X104496965Y-55829281D01*
X104470842Y-55836951D01*
X104465080Y-55838454D01*
X104460677Y-55839935D01*
X104427948Y-55849545D01*
X104424465Y-55851784D01*
X104417296Y-55856057D01*
X104307137Y-55916785D01*
X104289157Y-55927942D01*
X104287197Y-55929303D01*
X104270490Y-55942224D01*
X104194053Y-56007882D01*
X104192494Y-56009234D01*
X104192366Y-56009346D01*
X104190391Y-56011098D01*
X104160479Y-56037952D01*
X104129160Y-56058472D01*
X104093144Y-56068708D01*
X104045151Y-56074755D01*
X104036771Y-56075811D01*
X104036770Y-56075811D01*
X104025629Y-56077215D01*
X104025599Y-56076980D01*
X104002843Y-56080489D01*
X103478254Y-56080489D01*
X103461433Y-56077745D01*
X103418319Y-56079738D01*
X103404930Y-56080357D01*
X103399206Y-56080489D01*
X103380194Y-56080489D01*
X103365706Y-56082170D01*
X103339018Y-56083404D01*
X103332677Y-56086204D01*
X103305389Y-56094654D01*
X103298579Y-56095927D01*
X103275870Y-56109987D01*
X103260688Y-56117989D01*
X103236244Y-56128783D01*
X103231344Y-56133683D01*
X103208954Y-56151418D01*
X103203059Y-56155068D01*
X103186961Y-56176385D01*
X103175690Y-56189337D01*
X102789774Y-56575253D01*
X102764509Y-56594718D01*
X102760594Y-56596998D01*
X102699018Y-56650460D01*
X102677797Y-56665303D01*
X102659028Y-56675697D01*
X102635351Y-56685758D01*
X102612759Y-56692695D01*
X102597660Y-56697331D01*
X102592025Y-56698916D01*
X102507532Y-56720552D01*
X102499114Y-56722899D01*
X102498156Y-56723188D01*
X102489532Y-56726000D01*
X102378804Y-56764839D01*
X102371722Y-56768461D01*
X102350205Y-56777034D01*
X102339948Y-56780045D01*
X102218870Y-56857857D01*
X102124622Y-56966626D01*
X102103092Y-57013769D01*
X102066368Y-57060181D01*
X102012314Y-57084285D01*
X101953245Y-57080589D01*
X101902618Y-57049936D01*
X101744819Y-56892137D01*
X101717939Y-56851909D01*
X101708500Y-56804456D01*
X101708500Y-56515544D01*
X101717939Y-56468091D01*
X101744819Y-56427863D01*
X101876864Y-56295818D01*
X102273776Y-55898904D01*
X102328841Y-55866953D01*
X102392506Y-55866538D01*
X102394111Y-55866953D01*
X102423493Y-55874553D01*
X102423503Y-55874555D01*
X102423510Y-55874557D01*
X102438322Y-55877810D01*
X102440027Y-55878119D01*
X102455162Y-55880284D01*
X102491221Y-55884079D01*
X102508517Y-55887500D01*
X102510039Y-55887500D01*
X102517209Y-55887500D01*
X102530187Y-55888180D01*
X102547594Y-55890013D01*
X102604703Y-55888035D01*
X102604704Y-55888034D01*
X102613358Y-55887735D01*
X102613365Y-55887953D01*
X102618567Y-55887500D01*
X102653961Y-55887500D01*
X102792053Y-55846953D01*
X102913128Y-55769143D01*
X103007377Y-55660373D01*
X103067165Y-55529457D01*
X103087647Y-55387000D01*
X103069739Y-55262449D01*
X103067165Y-55244542D01*
X103007376Y-55113625D01*
X102913129Y-55004858D01*
X102913128Y-55004857D01*
X102792053Y-54927047D01*
X102653961Y-54886500D01*
X102510039Y-54886500D01*
X102371947Y-54927047D01*
X102250867Y-55004860D01*
X102249180Y-55006807D01*
X102213893Y-55034974D01*
X102207081Y-55037137D01*
X102207184Y-55037347D01*
X102198154Y-55041760D01*
X102181904Y-55046964D01*
X102131813Y-55074072D01*
X102127261Y-55076415D01*
X102076804Y-55101082D01*
X102038780Y-55142387D01*
X102035233Y-55146083D01*
X101905973Y-55275343D01*
X101901876Y-55279257D01*
X101835657Y-55339683D01*
X101808697Y-55371926D01*
X101801252Y-55380064D01*
X101144955Y-56036361D01*
X101125104Y-56052483D01*
X101117332Y-56057561D01*
X101099500Y-56080471D01*
X101089765Y-56091496D01*
X101078441Y-56107357D01*
X101075386Y-56111452D01*
X101061160Y-56129732D01*
X101047982Y-56146663D01*
X101004589Y-56181901D01*
X100950129Y-56194500D01*
X99840588Y-56194500D01*
X99812892Y-56191367D01*
X99750706Y-56177116D01*
X99734925Y-56172376D01*
X99676098Y-56150349D01*
X99662395Y-56144250D01*
X99597755Y-56110654D01*
X99586275Y-56103880D01*
X99574317Y-56095928D01*
X99515889Y-56057072D01*
X99506491Y-56050163D01*
X99502891Y-56047246D01*
X99463913Y-55991856D01*
X99447455Y-55944820D01*
X99367930Y-55837069D01*
X99282546Y-55774053D01*
X99260179Y-55757545D01*
X99133774Y-55713314D01*
X99133771Y-55713313D01*
X99133769Y-55713313D01*
X99119711Y-55711995D01*
X99063818Y-55692573D01*
X99023289Y-55649462D01*
X99007353Y-55592477D01*
X99019638Y-55534595D01*
X99057347Y-55488996D01*
X99111890Y-55466064D01*
X99190304Y-55453646D01*
X99303342Y-55396050D01*
X99393050Y-55306342D01*
X99450646Y-55193304D01*
X99465500Y-55099519D01*
X99465499Y-54636482D01*
X99450646Y-54542696D01*
X99393050Y-54429658D01*
X99378049Y-54414657D01*
X99368420Y-54402759D01*
X99351591Y-54383212D01*
X99337055Y-54366329D01*
X99309475Y-54309945D01*
X99313041Y-54247279D01*
X99315903Y-54238430D01*
X99319179Y-54230000D01*
X99645750Y-54230000D01*
X99664686Y-54398056D01*
X99664686Y-54398058D01*
X99664687Y-54398059D01*
X99720544Y-54557690D01*
X99810523Y-54700890D01*
X99930110Y-54820477D01*
X100073310Y-54910456D01*
X100232941Y-54966313D01*
X100401000Y-54985249D01*
X100569059Y-54966313D01*
X100728690Y-54910456D01*
X100871890Y-54820477D01*
X100991477Y-54700890D01*
X101081456Y-54557690D01*
X101137313Y-54398059D01*
X101156249Y-54230000D01*
X101137313Y-54061941D01*
X101081456Y-53902310D01*
X100991477Y-53759110D01*
X100871890Y-53639523D01*
X100728690Y-53549544D01*
X100569059Y-53493687D01*
X100569058Y-53493686D01*
X100569056Y-53493686D01*
X100400999Y-53474750D01*
X100232943Y-53493686D01*
X100073310Y-53549544D01*
X99930108Y-53639524D01*
X99810524Y-53759108D01*
X99720544Y-53902310D01*
X99664686Y-54061943D01*
X99645750Y-54230000D01*
X99319179Y-54230000D01*
X99321083Y-54225099D01*
X99334165Y-54196457D01*
X99354647Y-54054000D01*
X99334165Y-53911543D01*
X99333640Y-53910393D01*
X99308162Y-53854604D01*
X99296991Y-53806043D01*
X99305839Y-53757005D01*
X99333275Y-53715410D01*
X99392641Y-53656044D01*
X99450165Y-53543146D01*
X99462068Y-53468000D01*
X98117934Y-53468000D01*
X98129834Y-53543148D01*
X98187359Y-53656046D01*
X98276952Y-53745639D01*
X98303045Y-53758934D01*
X98349770Y-53800403D01*
X98370346Y-53859389D01*
X98364343Y-53893604D01*
X98366372Y-53893896D01*
X98343353Y-54054000D01*
X98364098Y-54198293D01*
X98356698Y-54261470D01*
X98318948Y-54312666D01*
X98309290Y-54320413D01*
X98288004Y-54334167D01*
X98276658Y-54339948D01*
X98186950Y-54429656D01*
X98129353Y-54542697D01*
X98114500Y-54636478D01*
X98114500Y-55099514D01*
X98116735Y-55113625D01*
X98129354Y-55193304D01*
X98129354Y-55193305D01*
X98129355Y-55193306D01*
X98186949Y-55306342D01*
X98276656Y-55396049D01*
X98276658Y-55396050D01*
X98389696Y-55453646D01*
X98445790Y-55462530D01*
X98480374Y-55468008D01*
X98534920Y-55490940D01*
X98572629Y-55536537D01*
X98584914Y-55594418D01*
X98568980Y-55651402D01*
X98528453Y-55694515D01*
X98493006Y-55706833D01*
X98493524Y-55708312D01*
X98479229Y-55713313D01*
X98479226Y-55713314D01*
X98352821Y-55757545D01*
X98352820Y-55757545D01*
X98352819Y-55757546D01*
X98245069Y-55837069D01*
X98165682Y-55944635D01*
X98165545Y-55944821D01*
X98126267Y-56057073D01*
X98121313Y-56071230D01*
X98118500Y-56101232D01*
X98118500Y-57120768D01*
X98121313Y-57150769D01*
X98121313Y-57150771D01*
X98121314Y-57150774D01*
X98165545Y-57277179D01*
X98203994Y-57329275D01*
X98227780Y-57392422D01*
X98214976Y-57458676D01*
X98169373Y-57508414D01*
X98104477Y-57526908D01*
X98039506Y-57508680D01*
X97967227Y-57464455D01*
X97873629Y-57407185D01*
X97866154Y-57402229D01*
X97850548Y-57391049D01*
X97820569Y-57360479D01*
X97802774Y-57321535D01*
X97797550Y-57301501D01*
X97796858Y-57298716D01*
X97786286Y-57253957D01*
X97753765Y-57116265D01*
X97753244Y-57113956D01*
X97709811Y-56912746D01*
X97709409Y-56910805D01*
X97709285Y-56910182D01*
X97665689Y-56690832D01*
X97665368Y-56689157D01*
X97664742Y-56685759D01*
X97623368Y-56461076D01*
X97623367Y-56461074D01*
X97621832Y-56452736D01*
X97623204Y-56452483D01*
X97619500Y-56429424D01*
X97619500Y-56101232D01*
X97617675Y-56081773D01*
X97616686Y-56071226D01*
X97572455Y-55944821D01*
X97530652Y-55888181D01*
X97492930Y-55837069D01*
X97407546Y-55774053D01*
X97385179Y-55757545D01*
X97258774Y-55713314D01*
X97258771Y-55713313D01*
X97258769Y-55713313D01*
X97228768Y-55710500D01*
X97228764Y-55710500D01*
X96634236Y-55710500D01*
X96634232Y-55710500D01*
X96604230Y-55713313D01*
X96604227Y-55713313D01*
X96604226Y-55713314D01*
X96477821Y-55757545D01*
X96477820Y-55757545D01*
X96477819Y-55757546D01*
X96370070Y-55837069D01*
X96341892Y-55875249D01*
X96305792Y-55908019D01*
X96278051Y-55924618D01*
X96266195Y-55930868D01*
X96200986Y-55960859D01*
X96157227Y-55971941D01*
X96112401Y-55966625D01*
X96053786Y-55948424D01*
X96043280Y-55944635D01*
X96006102Y-55929302D01*
X95952020Y-55906997D01*
X95942588Y-55902636D01*
X95935335Y-55898906D01*
X95922887Y-55892503D01*
X95845715Y-55852814D01*
X95831567Y-55848407D01*
X95812153Y-55840503D01*
X95777302Y-55822746D01*
X95727869Y-55777051D01*
X95709596Y-55712261D01*
X95727869Y-55647471D01*
X95777302Y-55601776D01*
X95860220Y-55559528D01*
X95955528Y-55464220D01*
X96016719Y-55344126D01*
X96029215Y-55265227D01*
X96032500Y-55244490D01*
X96032500Y-55235997D01*
X96045897Y-55179936D01*
X96086658Y-55099519D01*
X96095790Y-55081502D01*
X96097569Y-55078123D01*
X96175133Y-54936340D01*
X96177259Y-54932611D01*
X96253755Y-54803867D01*
X96256348Y-54799697D01*
X96331443Y-54684189D01*
X96334625Y-54679534D01*
X96383144Y-54611937D01*
X96413625Y-54569471D01*
X96414871Y-54570365D01*
X96427295Y-54552807D01*
X97975786Y-53004317D01*
X98016012Y-52977439D01*
X98063465Y-52968000D01*
X98540000Y-52968000D01*
X98540000Y-52618001D01*
X98539999Y-52618000D01*
X99040000Y-52618000D01*
X99040000Y-52968000D01*
X99462065Y-52968000D01*
X99450165Y-52892851D01*
X99392640Y-52779953D01*
X99303046Y-52690359D01*
X99190146Y-52632834D01*
X99096484Y-52618000D01*
X99040000Y-52618000D01*
X98539999Y-52618000D01*
X98538732Y-52616733D01*
X98506638Y-52561145D01*
X98506638Y-52496958D01*
X98538730Y-52441373D01*
X98716861Y-52263243D01*
X98757088Y-52236364D01*
X98804541Y-52226925D01*
X104993937Y-52226925D01*
X105041390Y-52236364D01*
G37*
%TD.AperFunction*%
%TA.AperFunction,Conductor*%
G36*
X107677000Y-55338113D02*
G01*
X107722387Y-55383500D01*
X107739000Y-55445500D01*
X107739000Y-56424269D01*
X107740247Y-56424087D01*
X107845188Y-56372786D01*
X107860426Y-56357548D01*
X107910481Y-56327075D01*
X107968939Y-56322990D01*
X108022745Y-56346205D01*
X108059881Y-56391534D01*
X108074548Y-56422068D01*
X108077236Y-56428066D01*
X108108913Y-56504093D01*
X108110825Y-56508969D01*
X108113244Y-56515544D01*
X108123595Y-56543680D01*
X108130874Y-56563463D01*
X108138500Y-56606278D01*
X108138500Y-56636865D01*
X108129061Y-56684318D01*
X108102181Y-56724546D01*
X107783535Y-57043192D01*
X107743307Y-57070072D01*
X107695854Y-57079511D01*
X106590430Y-57079511D01*
X106534135Y-57065996D01*
X106490112Y-57028397D01*
X106467957Y-56974909D01*
X106472499Y-56917193D01*
X106502746Y-56867832D01*
X106656101Y-56714477D01*
X106658030Y-56712856D01*
X106657958Y-56712782D01*
X106673555Y-56697669D01*
X106677839Y-56692739D01*
X106702518Y-56668060D01*
X106716353Y-56658107D01*
X106723225Y-56650568D01*
X106723228Y-56650567D01*
X106754488Y-56616275D01*
X106758379Y-56612199D01*
X106771174Y-56599406D01*
X106771178Y-56599399D01*
X106771868Y-56598710D01*
X106780922Y-56587280D01*
X106798914Y-56567544D01*
X106798913Y-56567544D01*
X106798916Y-56567542D01*
X106801419Y-56561079D01*
X106814743Y-56535800D01*
X106818656Y-56530090D01*
X106824770Y-56504090D01*
X106829846Y-56487698D01*
X106839500Y-56462782D01*
X106839500Y-56462780D01*
X106845472Y-56447366D01*
X106847069Y-56438368D01*
X106868852Y-56400916D01*
X106872726Y-56396339D01*
X106881955Y-56386563D01*
X106915313Y-56354864D01*
X106916060Y-56353909D01*
X106926019Y-56342660D01*
X106926673Y-56342006D01*
X106982259Y-56309914D01*
X107046446Y-56309914D01*
X107102034Y-56342009D01*
X107132809Y-56372785D01*
X107237752Y-56424087D01*
X107238999Y-56424269D01*
X107239000Y-56424270D01*
X107239000Y-55445500D01*
X107255613Y-55383500D01*
X107301000Y-55338113D01*
X107363000Y-55321500D01*
X107615000Y-55321500D01*
X107677000Y-55338113D01*
G37*
%TD.AperFunction*%
%TA.AperFunction,Conductor*%
G36*
X120466243Y-51045670D02*
G01*
X120770007Y-51061591D01*
X120770046Y-51061593D01*
X120782953Y-51062950D01*
X120914089Y-51083719D01*
X121080209Y-51110029D01*
X121092896Y-51112725D01*
X121383625Y-51190626D01*
X121395965Y-51194636D01*
X121514005Y-51239948D01*
X121676934Y-51302490D01*
X121688790Y-51307768D01*
X121956976Y-51444416D01*
X121968183Y-51450886D01*
X122220619Y-51614820D01*
X122231109Y-51622442D01*
X122276872Y-51659500D01*
X122378101Y-51741474D01*
X122465010Y-51811851D01*
X122474655Y-51820536D01*
X122687464Y-52033345D01*
X122696149Y-52042990D01*
X122885558Y-52276891D01*
X122893182Y-52287385D01*
X123057110Y-52539811D01*
X123063591Y-52551037D01*
X123200230Y-52819209D01*
X123205509Y-52831066D01*
X123313362Y-53112034D01*
X123317373Y-53124377D01*
X123395272Y-53415098D01*
X123397970Y-53427794D01*
X123445051Y-53725047D01*
X123446408Y-53737956D01*
X123462330Y-54041777D01*
X123462500Y-54048266D01*
X123462500Y-61041754D01*
X123462330Y-61048244D01*
X123446407Y-61352046D01*
X123445050Y-61364953D01*
X123397971Y-61662205D01*
X123395273Y-61674902D01*
X123317374Y-61965623D01*
X123313363Y-61977966D01*
X123205510Y-62258935D01*
X123200231Y-62270793D01*
X123063591Y-62538963D01*
X123057101Y-62550203D01*
X122893187Y-62802608D01*
X122885558Y-62813109D01*
X122696149Y-63047010D01*
X122687464Y-63056655D01*
X122474655Y-63269464D01*
X122465010Y-63278149D01*
X122231109Y-63467558D01*
X122220608Y-63475187D01*
X121968203Y-63639101D01*
X121956963Y-63645591D01*
X121688793Y-63782231D01*
X121676935Y-63787510D01*
X121395966Y-63895363D01*
X121383623Y-63899374D01*
X121092902Y-63977273D01*
X121080205Y-63979971D01*
X120782953Y-64027050D01*
X120770046Y-64028407D01*
X120466244Y-64044330D01*
X120459754Y-64044500D01*
X84466246Y-64044500D01*
X84459757Y-64044330D01*
X84155956Y-64028409D01*
X84143047Y-64027052D01*
X83845794Y-63979971D01*
X83833098Y-63977273D01*
X83542376Y-63899374D01*
X83530033Y-63895363D01*
X83249065Y-63787510D01*
X83237207Y-63782231D01*
X83106401Y-63715582D01*
X82969030Y-63645588D01*
X82957811Y-63639111D01*
X82705385Y-63475183D01*
X82694891Y-63467559D01*
X82460989Y-63278149D01*
X82451344Y-63269464D01*
X82238530Y-63056651D01*
X82229845Y-63047005D01*
X82188541Y-62995999D01*
X82040441Y-62813109D01*
X82032822Y-62802623D01*
X81868885Y-62550183D01*
X81866470Y-62546000D01*
X101356001Y-62546000D01*
X101356001Y-62661109D01*
X101366479Y-62733035D01*
X101420712Y-62843972D01*
X101508026Y-62931286D01*
X101618968Y-62985521D01*
X101690884Y-62996000D01*
X101731000Y-62996000D01*
X101731000Y-62546000D01*
X102231000Y-62546000D01*
X102231000Y-62995999D01*
X102271109Y-62995999D01*
X102343035Y-62985520D01*
X102453972Y-62931287D01*
X102541286Y-62843973D01*
X102595521Y-62733031D01*
X102605994Y-62661157D01*
X102955500Y-62661157D01*
X102963104Y-62713348D01*
X102965993Y-62733179D01*
X103016011Y-62835493D01*
X103020301Y-62844268D01*
X103107732Y-62931699D01*
X103107733Y-62931699D01*
X103107734Y-62931700D01*
X103218821Y-62986007D01*
X103290839Y-62996500D01*
X103871160Y-62996499D01*
X103943179Y-62986007D01*
X104054266Y-62931700D01*
X104109983Y-62875981D01*
X104130795Y-62859240D01*
X104167882Y-62835493D01*
X104177172Y-62830097D01*
X104241072Y-62796597D01*
X104251767Y-62791623D01*
X104311946Y-62767057D01*
X104324005Y-62762847D01*
X104380763Y-62746266D01*
X104394012Y-62743174D01*
X104450775Y-62733179D01*
X104466676Y-62730379D01*
X104488180Y-62728500D01*
X114757738Y-62728500D01*
X114771622Y-62729280D01*
X114807033Y-62733270D01*
X114807033Y-62733269D01*
X114807035Y-62733270D01*
X114863228Y-62722636D01*
X114867726Y-62721872D01*
X114924287Y-62713348D01*
X114924288Y-62713347D01*
X114930268Y-62712446D01*
X114935128Y-62710846D01*
X114940467Y-62708023D01*
X114940472Y-62708023D01*
X114991045Y-62681292D01*
X114995136Y-62679227D01*
X115046642Y-62654425D01*
X115046644Y-62654422D01*
X115052078Y-62651806D01*
X115056271Y-62648831D01*
X115060533Y-62644568D01*
X115060538Y-62644566D01*
X115101002Y-62604100D01*
X115104260Y-62600962D01*
X115146194Y-62562055D01*
X115146195Y-62562053D01*
X115150613Y-62557954D01*
X115162033Y-62543069D01*
X119634142Y-58070959D01*
X119654888Y-58054259D01*
X119664105Y-58048351D01*
X120284180Y-57454483D01*
X120288541Y-57450503D01*
X120766721Y-57035020D01*
X120769162Y-57032957D01*
X121194110Y-56683662D01*
X121195408Y-56682585D01*
X121195609Y-56682417D01*
X121197833Y-56680531D01*
X121654768Y-56287468D01*
X121658664Y-56284031D01*
X121659107Y-56283630D01*
X121662992Y-56280021D01*
X122126402Y-55838264D01*
X122227756Y-55741646D01*
X122227756Y-55741645D01*
X122227759Y-55741643D01*
X122240192Y-55726153D01*
X122251993Y-55713399D01*
X122292349Y-55675504D01*
X122484885Y-55442768D01*
X122646733Y-55187736D01*
X122775341Y-54914430D01*
X122868681Y-54627160D01*
X122925280Y-54330457D01*
X122944246Y-54029000D01*
X122925280Y-53727543D01*
X122868681Y-53430840D01*
X122867691Y-53427794D01*
X122805539Y-53236509D01*
X122775341Y-53143570D01*
X122646733Y-52870264D01*
X122646732Y-52870263D01*
X122646731Y-52870260D01*
X122570879Y-52750737D01*
X122484885Y-52615232D01*
X122292349Y-52382496D01*
X122267467Y-52359130D01*
X122072160Y-52175723D01*
X121827795Y-51998183D01*
X121563102Y-51852667D01*
X121282262Y-51741474D01*
X120989700Y-51666358D01*
X120690028Y-51628500D01*
X120690027Y-51628500D01*
X120387973Y-51628500D01*
X120387972Y-51628500D01*
X120088299Y-51666358D01*
X119795737Y-51741474D01*
X119514897Y-51852667D01*
X119250204Y-51998183D01*
X119005839Y-52175723D01*
X118785650Y-52382496D01*
X118593114Y-52615233D01*
X118431268Y-52870260D01*
X118302658Y-53143571D01*
X118209319Y-53430836D01*
X118152719Y-53727547D01*
X118133753Y-54028999D01*
X118152719Y-54330452D01*
X118209319Y-54627163D01*
X118302658Y-54914428D01*
X118431267Y-55187737D01*
X118494811Y-55287866D01*
X118503374Y-55303829D01*
X118513391Y-55326304D01*
X118542852Y-55392406D01*
X118542853Y-55392407D01*
X118551517Y-55409627D01*
X118552579Y-55411512D01*
X118562766Y-55427769D01*
X118676695Y-55591990D01*
X118965910Y-56008876D01*
X118969684Y-56014654D01*
X119206854Y-56400916D01*
X119252471Y-56475210D01*
X119269873Y-56524952D01*
X119312241Y-56869344D01*
X119310252Y-56911223D01*
X119294421Y-56950045D01*
X119137889Y-57201346D01*
X119018871Y-57392422D01*
X118994008Y-57432337D01*
X118976437Y-57454458D01*
X114639716Y-61791181D01*
X114599488Y-61818061D01*
X114552035Y-61827500D01*
X104481075Y-61827500D01*
X104458470Y-61823973D01*
X104458423Y-61824336D01*
X104447319Y-61822891D01*
X104447318Y-61822891D01*
X104423899Y-61819844D01*
X104382695Y-61814484D01*
X104369372Y-61812004D01*
X104310832Y-61797758D01*
X104298499Y-61794069D01*
X104236949Y-61772118D01*
X104225867Y-61767550D01*
X104196701Y-61753845D01*
X104156984Y-61724254D01*
X104132018Y-61681481D01*
X104124416Y-61659085D01*
X104123299Y-61655618D01*
X104093565Y-61558389D01*
X104092682Y-61555365D01*
X104081458Y-61515026D01*
X104062322Y-61446248D01*
X104061642Y-61443697D01*
X104035352Y-61340691D01*
X104031500Y-61310026D01*
X104031500Y-61129749D01*
X107638500Y-61129749D01*
X107650132Y-61188230D01*
X107694447Y-61254552D01*
X107760769Y-61298867D01*
X107819251Y-61310500D01*
X107819252Y-61310500D01*
X109058748Y-61310500D01*
X109058749Y-61310500D01*
X109087989Y-61304683D01*
X109117231Y-61298867D01*
X109183552Y-61254552D01*
X109227867Y-61188231D01*
X109239500Y-61129749D01*
X113238500Y-61129749D01*
X113250132Y-61188230D01*
X113294447Y-61254552D01*
X113360769Y-61298867D01*
X113419251Y-61310500D01*
X113419252Y-61310500D01*
X114658748Y-61310500D01*
X114658749Y-61310500D01*
X114687989Y-61304683D01*
X114717231Y-61298867D01*
X114783552Y-61254552D01*
X114827867Y-61188231D01*
X114839500Y-61129748D01*
X114839500Y-59290252D01*
X114827867Y-59231769D01*
X114817293Y-59215944D01*
X114783552Y-59165447D01*
X114717230Y-59121132D01*
X114658749Y-59109500D01*
X114658748Y-59109500D01*
X113419252Y-59109500D01*
X113419251Y-59109500D01*
X113360769Y-59121132D01*
X113294447Y-59165447D01*
X113250132Y-59231769D01*
X113238500Y-59290251D01*
X113238500Y-61129749D01*
X109239500Y-61129749D01*
X109239500Y-61129748D01*
X109239500Y-59290252D01*
X109227867Y-59231769D01*
X109217293Y-59215944D01*
X109183552Y-59165447D01*
X109117230Y-59121132D01*
X109058749Y-59109500D01*
X109058748Y-59109500D01*
X107819252Y-59109500D01*
X107819251Y-59109500D01*
X107760769Y-59121132D01*
X107694447Y-59165447D01*
X107650132Y-59231769D01*
X107638500Y-59290251D01*
X107638500Y-61129749D01*
X104031500Y-61129749D01*
X104031500Y-60387966D01*
X104040939Y-60340514D01*
X104067816Y-60300287D01*
X104098103Y-60270000D01*
X105677934Y-60270000D01*
X105689834Y-60345148D01*
X105747359Y-60458046D01*
X105836953Y-60547640D01*
X105949853Y-60605165D01*
X106043516Y-60620000D01*
X106100000Y-60620000D01*
X106100000Y-60270000D01*
X106600000Y-60270000D01*
X106600000Y-60619999D01*
X106656478Y-60619999D01*
X106750149Y-60605163D01*
X106863045Y-60547641D01*
X106952640Y-60458046D01*
X107010165Y-60345146D01*
X107022068Y-60270000D01*
X106600000Y-60270000D01*
X106100000Y-60270000D01*
X105677934Y-60270000D01*
X104098103Y-60270000D01*
X104217429Y-60150673D01*
X104240127Y-60132748D01*
X104247169Y-60128417D01*
X104390763Y-59996629D01*
X104404488Y-59985717D01*
X104496070Y-59922943D01*
X104515046Y-59912257D01*
X104607390Y-59870471D01*
X104617037Y-59866586D01*
X104762737Y-59814921D01*
X104764631Y-59814239D01*
X104764899Y-59814141D01*
X104764929Y-59814129D01*
X104764964Y-59814117D01*
X104766460Y-59813557D01*
X104767698Y-59813094D01*
X104973634Y-59734375D01*
X104988802Y-59726123D01*
X105007086Y-59718015D01*
X105028690Y-59710456D01*
X105171890Y-59620477D01*
X105291477Y-59500890D01*
X105381456Y-59357690D01*
X105437313Y-59198059D01*
X105456249Y-59030000D01*
X105437313Y-58861941D01*
X105381456Y-58702310D01*
X105291477Y-58559110D01*
X105171890Y-58439523D01*
X105028690Y-58349544D01*
X104869059Y-58293687D01*
X104869058Y-58293686D01*
X104869056Y-58293686D01*
X104701000Y-58274750D01*
X104532943Y-58293686D01*
X104373310Y-58349544D01*
X104230108Y-58439524D01*
X104110523Y-58559109D01*
X104020542Y-58702311D01*
X104012987Y-58723901D01*
X104004875Y-58742193D01*
X103996626Y-58757355D01*
X103917869Y-58963386D01*
X103916140Y-58968078D01*
X103864414Y-59113943D01*
X103860518Y-59123617D01*
X103818742Y-59215944D01*
X103808048Y-59234933D01*
X103745281Y-59326504D01*
X103734361Y-59340240D01*
X103602577Y-59483836D01*
X103598246Y-59490877D01*
X103580314Y-59513581D01*
X103285264Y-59808631D01*
X103274898Y-59817895D01*
X103247031Y-59840118D01*
X103214824Y-59887356D01*
X103212144Y-59891132D01*
X103174633Y-59941959D01*
X103172301Y-59946578D01*
X103153674Y-60006966D01*
X103152225Y-60011369D01*
X103131369Y-60070973D01*
X103130500Y-60076090D01*
X103130500Y-60139262D01*
X103130413Y-60143899D01*
X103128050Y-60207029D01*
X103130500Y-60225635D01*
X103130500Y-61310021D01*
X103126648Y-61340687D01*
X103100346Y-61443737D01*
X103099660Y-61446311D01*
X103069315Y-61555367D01*
X103068432Y-61558390D01*
X103038712Y-61655574D01*
X103037553Y-61659167D01*
X103008724Y-61744101D01*
X103007166Y-61748428D01*
X102999874Y-61767550D01*
X102979688Y-61820482D01*
X102979687Y-61820485D01*
X102979687Y-61820486D01*
X102978688Y-61824993D01*
X102969031Y-61852603D01*
X102965992Y-61858818D01*
X102955500Y-61930835D01*
X102955500Y-62661157D01*
X102605994Y-62661157D01*
X102606000Y-62661116D01*
X102606000Y-62546000D01*
X102231000Y-62546000D01*
X101731000Y-62546000D01*
X101356001Y-62546000D01*
X81866470Y-62546000D01*
X81862415Y-62538977D01*
X81725765Y-62270786D01*
X81720496Y-62258950D01*
X81612633Y-61977959D01*
X81608624Y-61965621D01*
X81599316Y-61930884D01*
X81530724Y-61674896D01*
X81528028Y-61662205D01*
X81527264Y-61657384D01*
X81510573Y-61552000D01*
X97604000Y-61552000D01*
X97604000Y-61871697D01*
X97615604Y-61930036D01*
X97659807Y-61996192D01*
X97725963Y-62040395D01*
X97784303Y-62052000D01*
X98104000Y-62052000D01*
X98104000Y-61552000D01*
X98604000Y-61552000D01*
X98604000Y-62052000D01*
X98923697Y-62052000D01*
X98953859Y-62046000D01*
X101356000Y-62046000D01*
X101731000Y-62046000D01*
X101731000Y-61596001D01*
X101690891Y-61596001D01*
X101618964Y-61606479D01*
X101508027Y-61660712D01*
X101420713Y-61748026D01*
X101366478Y-61858968D01*
X101356000Y-61930884D01*
X101356000Y-62046000D01*
X98953859Y-62046000D01*
X98982036Y-62040395D01*
X99048192Y-61996192D01*
X99092395Y-61930036D01*
X99104000Y-61871697D01*
X99104000Y-61596000D01*
X102231000Y-61596000D01*
X102231000Y-62046000D01*
X102605999Y-62046000D01*
X102605999Y-61930891D01*
X102595520Y-61858964D01*
X102541287Y-61748027D01*
X102453973Y-61660713D01*
X102343031Y-61606478D01*
X102271116Y-61596000D01*
X102231000Y-61596000D01*
X99104000Y-61596000D01*
X99104000Y-61552000D01*
X98604000Y-61552000D01*
X98104000Y-61552000D01*
X97604000Y-61552000D01*
X81510573Y-61552000D01*
X81501718Y-61496089D01*
X81480949Y-61364953D01*
X81479592Y-61352046D01*
X81463867Y-61052000D01*
X97604000Y-61052000D01*
X98104000Y-61052000D01*
X98104000Y-60552000D01*
X98604000Y-60552000D01*
X98604000Y-61052000D01*
X99104000Y-61052000D01*
X99104000Y-60732303D01*
X99092395Y-60673963D01*
X99070519Y-60641223D01*
X102260500Y-60641223D01*
X102295539Y-60737492D01*
X102361388Y-60815967D01*
X102361390Y-60815969D01*
X102450111Y-60867191D01*
X102551000Y-60884981D01*
X102651889Y-60867191D01*
X102740610Y-60815969D01*
X102806461Y-60737491D01*
X102841500Y-60641223D01*
X102841500Y-60590000D01*
X102841500Y-60589500D01*
X102841500Y-60169901D01*
X102841500Y-60118777D01*
X102806461Y-60022510D01*
X102740610Y-59944031D01*
X102651889Y-59892809D01*
X102551000Y-59875019D01*
X102450111Y-59892809D01*
X102408619Y-59916764D01*
X102361389Y-59944031D01*
X102295539Y-60022509D01*
X102260500Y-60118778D01*
X102260500Y-60641223D01*
X99070519Y-60641223D01*
X99048192Y-60607807D01*
X98982036Y-60563604D01*
X98923697Y-60552000D01*
X98604000Y-60552000D01*
X98104000Y-60552000D01*
X97784303Y-60552000D01*
X97725963Y-60563604D01*
X97659807Y-60607807D01*
X97615604Y-60673963D01*
X97604000Y-60732303D01*
X97604000Y-61052000D01*
X81463867Y-61052000D01*
X81463671Y-61048263D01*
X81463501Y-61041773D01*
X81463501Y-58264000D01*
X94732001Y-58264000D01*
X94732001Y-58272446D01*
X94747762Y-58371969D01*
X94808883Y-58491924D01*
X94904075Y-58587116D01*
X95024032Y-58648238D01*
X95123547Y-58664000D01*
X95157000Y-58664000D01*
X95157000Y-58264000D01*
X95657000Y-58264000D01*
X95657000Y-58663999D01*
X95690446Y-58663999D01*
X95789969Y-58648237D01*
X95909924Y-58587116D01*
X96005116Y-58491924D01*
X96066238Y-58371967D01*
X96082000Y-58272453D01*
X96082000Y-58264000D01*
X95657000Y-58264000D01*
X95157000Y-58264000D01*
X94732001Y-58264000D01*
X81463501Y-58264000D01*
X81463501Y-57764000D01*
X94732000Y-57764000D01*
X95157000Y-57764000D01*
X95157000Y-57364001D01*
X95156999Y-57364000D01*
X95657000Y-57364000D01*
X95657000Y-57764000D01*
X96081999Y-57764000D01*
X96081999Y-57755554D01*
X96066237Y-57656030D01*
X96005116Y-57536075D01*
X95909924Y-57440883D01*
X95789967Y-57379761D01*
X95690453Y-57364000D01*
X95657000Y-57364000D01*
X95156999Y-57364000D01*
X95155498Y-57362499D01*
X95149710Y-57364001D01*
X95123554Y-57364001D01*
X95024030Y-57379762D01*
X94904075Y-57440883D01*
X94808883Y-57536075D01*
X94747761Y-57656032D01*
X94732000Y-57755547D01*
X94732000Y-57764000D01*
X81463501Y-57764000D01*
X81463501Y-56893157D01*
X93168500Y-56893157D01*
X93172002Y-56917193D01*
X93178993Y-56965179D01*
X93225272Y-57059844D01*
X93233301Y-57076268D01*
X93320732Y-57163699D01*
X93320733Y-57163699D01*
X93320734Y-57163700D01*
X93431821Y-57218007D01*
X93503839Y-57228500D01*
X94234160Y-57228499D01*
X94306179Y-57218007D01*
X94326413Y-57208114D01*
X94343287Y-57201350D01*
X94364252Y-57194686D01*
X94450461Y-57151240D01*
X94459680Y-57147059D01*
X94539711Y-57114655D01*
X94549970Y-57111019D01*
X94605166Y-57094140D01*
X94627489Y-57087313D01*
X94638627Y-57084465D01*
X94714015Y-57068880D01*
X94725839Y-57067026D01*
X94738898Y-57065620D01*
X94816864Y-57057226D01*
X94817037Y-57058839D01*
X94844410Y-57056088D01*
X94854199Y-57056973D01*
X94864898Y-57058412D01*
X94970059Y-57077264D01*
X95004472Y-57088833D01*
X95023874Y-57098719D01*
X95087190Y-57108746D01*
X95092580Y-57109894D01*
X95093610Y-57109994D01*
X95101067Y-57110945D01*
X95123511Y-57114500D01*
X95123512Y-57114500D01*
X95134193Y-57114500D01*
X95146132Y-57115076D01*
X95149616Y-57115413D01*
X95161649Y-57116577D01*
X95164035Y-57117448D01*
X95167450Y-57116297D01*
X95169967Y-57116123D01*
X95169967Y-57116122D01*
X95180226Y-57115413D01*
X95180253Y-57115809D01*
X95191368Y-57114500D01*
X95690491Y-57114500D01*
X95790124Y-57098720D01*
X95799112Y-57094140D01*
X95812154Y-57087493D01*
X95831583Y-57079585D01*
X95831821Y-57079511D01*
X95845715Y-57075184D01*
X95942594Y-57025357D01*
X95952001Y-57021008D01*
X95993268Y-57003988D01*
X96051968Y-56995150D01*
X96108048Y-57014607D01*
X96123838Y-57024856D01*
X96133494Y-57031804D01*
X96137595Y-57035066D01*
X96204101Y-57087955D01*
X96243961Y-57144052D01*
X96290544Y-57277177D01*
X96290545Y-57277179D01*
X96308496Y-57301501D01*
X96370069Y-57384930D01*
X96433085Y-57431438D01*
X96477821Y-57464455D01*
X96604226Y-57508686D01*
X96619230Y-57510092D01*
X96634232Y-57511500D01*
X96634236Y-57511500D01*
X96673857Y-57511500D01*
X96728588Y-57524232D01*
X96776115Y-57547612D01*
X96788009Y-57554301D01*
X96881714Y-57614031D01*
X96891476Y-57620938D01*
X96987640Y-57696229D01*
X96990481Y-57698453D01*
X96998403Y-57705211D01*
X97078509Y-57779585D01*
X97081793Y-57782750D01*
X97097272Y-57798229D01*
X97113965Y-57818962D01*
X97207258Y-57964409D01*
X97210771Y-57970231D01*
X97307299Y-58140603D01*
X97309993Y-58145624D01*
X97408394Y-58339569D01*
X97410493Y-58343913D01*
X97510239Y-58561053D01*
X97511897Y-58564826D01*
X97593840Y-58760088D01*
X97603500Y-58808070D01*
X97603500Y-59071749D01*
X97615132Y-59130230D01*
X97659447Y-59196552D01*
X97725769Y-59240867D01*
X97784251Y-59252500D01*
X97784252Y-59252500D01*
X98923748Y-59252500D01*
X98923749Y-59252500D01*
X98952989Y-59246683D01*
X98982231Y-59240867D01*
X99048552Y-59196552D01*
X99092867Y-59130231D01*
X99104500Y-59071748D01*
X99104500Y-59030000D01*
X99645750Y-59030000D01*
X99664686Y-59198056D01*
X99664686Y-59198058D01*
X99664687Y-59198059D01*
X99720544Y-59357690D01*
X99810523Y-59500890D01*
X99930110Y-59620477D01*
X100073310Y-59710456D01*
X100232941Y-59766313D01*
X100401000Y-59785249D01*
X100569059Y-59766313D01*
X100728690Y-59710456D01*
X100871890Y-59620477D01*
X100991477Y-59500890D01*
X101081456Y-59357690D01*
X101137313Y-59198059D01*
X101156249Y-59030000D01*
X101137313Y-58861941D01*
X101081456Y-58702310D01*
X100991477Y-58559110D01*
X100871890Y-58439523D01*
X100728690Y-58349544D01*
X100569059Y-58293687D01*
X100569058Y-58293686D01*
X100569056Y-58293686D01*
X100401000Y-58274750D01*
X100232943Y-58293686D01*
X100073310Y-58349544D01*
X99930108Y-58439524D01*
X99810524Y-58559108D01*
X99720544Y-58702310D01*
X99664686Y-58861943D01*
X99645750Y-59030000D01*
X99104500Y-59030000D01*
X99104500Y-57932252D01*
X99104381Y-57931656D01*
X99092867Y-57873769D01*
X99048552Y-57807447D01*
X98982230Y-57763132D01*
X98951987Y-57757117D01*
X98897514Y-57731353D01*
X98861618Y-57682952D01*
X98852776Y-57623346D01*
X98873077Y-57566609D01*
X98917726Y-57526142D01*
X98976179Y-57511500D01*
X99103768Y-57511500D01*
X99117101Y-57510249D01*
X99133774Y-57508686D01*
X99260179Y-57464455D01*
X99367930Y-57384930D01*
X99447455Y-57277179D01*
X99447456Y-57277176D01*
X99448155Y-57276229D01*
X99464555Y-57245306D01*
X99491056Y-57219033D01*
X99491771Y-57218511D01*
X99502057Y-57211768D01*
X99508272Y-57208121D01*
X99531166Y-57194685D01*
X99571150Y-57171220D01*
X99583637Y-57164813D01*
X99647009Y-57136706D01*
X99661619Y-57131297D01*
X99719678Y-57113867D01*
X99736095Y-57110133D01*
X99803460Y-57099567D01*
X99803460Y-57099566D01*
X99814323Y-57097863D01*
X99814518Y-57099111D01*
X99836042Y-57095500D01*
X100936652Y-57095500D01*
X101002314Y-57114312D01*
X101048052Y-57165039D01*
X101068802Y-57207484D01*
X101068803Y-57207485D01*
X101072084Y-57214196D01*
X101077581Y-57219256D01*
X101077582Y-57219258D01*
X101102116Y-57241843D01*
X101113399Y-57252230D01*
X101117097Y-57255779D01*
X101800666Y-57939348D01*
X101818446Y-57961807D01*
X101821827Y-57967274D01*
X101822979Y-57969136D01*
X101902854Y-58055711D01*
X101910407Y-58064720D01*
X101958233Y-58127590D01*
X101961933Y-58132720D01*
X102007526Y-58199462D01*
X102010387Y-58203543D01*
X102010751Y-58204048D01*
X102013996Y-58208434D01*
X102075865Y-58289763D01*
X102082036Y-58297485D01*
X102082735Y-58298318D01*
X102089118Y-58305569D01*
X102178597Y-58402555D01*
X102191844Y-58413526D01*
X102206464Y-58427823D01*
X102218873Y-58442144D01*
X102339945Y-58519952D01*
X102339947Y-58519953D01*
X102478039Y-58560500D01*
X102621961Y-58560500D01*
X102760053Y-58519953D01*
X102881128Y-58442143D01*
X102975377Y-58333373D01*
X103035165Y-58202457D01*
X103055647Y-58060000D01*
X103035165Y-57917543D01*
X103035165Y-57917542D01*
X103009264Y-57860827D01*
X102998283Y-57801844D01*
X103016278Y-57744611D01*
X103059036Y-57702524D01*
X103097404Y-57691125D01*
X103096792Y-57688574D01*
X103108329Y-57685806D01*
X103116136Y-57683932D01*
X103145065Y-57680511D01*
X105698734Y-57680511D01*
X105755029Y-57694026D01*
X105799052Y-57731626D01*
X105821207Y-57785113D01*
X105816665Y-57842829D01*
X105786415Y-57892192D01*
X105746950Y-57931656D01*
X105689353Y-58044697D01*
X105674500Y-58138478D01*
X105674500Y-58601514D01*
X105674501Y-58601518D01*
X105689354Y-58695304D01*
X105689354Y-58695305D01*
X105689355Y-58695306D01*
X105746948Y-58808340D01*
X105746949Y-58808341D01*
X105746950Y-58808342D01*
X105836658Y-58898050D01*
X105836659Y-58898050D01*
X105840532Y-58901923D01*
X105870505Y-58950445D01*
X105875589Y-59007251D01*
X105855353Y-59147999D01*
X105875834Y-59290456D01*
X105893945Y-59330113D01*
X105904744Y-59391645D01*
X105884172Y-59450634D01*
X105837450Y-59492106D01*
X105836958Y-59492356D01*
X105747358Y-59581955D01*
X105689834Y-59694853D01*
X105677932Y-59770000D01*
X107022065Y-59770000D01*
X107010165Y-59694851D01*
X106952641Y-59581955D01*
X106849158Y-59478473D01*
X106851807Y-59475823D01*
X106833640Y-59459679D01*
X106813099Y-59400709D01*
X106823902Y-59339206D01*
X106846165Y-59290457D01*
X106856878Y-59215944D01*
X106866647Y-59148000D01*
X106846165Y-59005543D01*
X106846164Y-59005541D01*
X106843903Y-58989813D01*
X106849735Y-58930826D01*
X106882279Y-58881287D01*
X106885226Y-58878552D01*
X106891575Y-58870739D01*
X106900088Y-58861302D01*
X106953050Y-58808342D01*
X107010646Y-58695304D01*
X107025500Y-58601519D01*
X107025499Y-58138482D01*
X107010646Y-58044696D01*
X106972145Y-57969133D01*
X106953050Y-57931657D01*
X106913585Y-57892192D01*
X106883335Y-57842829D01*
X106878793Y-57785113D01*
X106900948Y-57731626D01*
X106944971Y-57694026D01*
X107001266Y-57680511D01*
X107802444Y-57680511D01*
X107819264Y-57683254D01*
X107829449Y-57682783D01*
X107829452Y-57682784D01*
X107875767Y-57680642D01*
X107881492Y-57680511D01*
X107900511Y-57680511D01*
X107915005Y-57678828D01*
X107941679Y-57677596D01*
X107948017Y-57674797D01*
X107975320Y-57666343D01*
X107982120Y-57665072D01*
X108004830Y-57651009D01*
X108020012Y-57643007D01*
X108044452Y-57632217D01*
X108049346Y-57627322D01*
X108071750Y-57609575D01*
X108077639Y-57605930D01*
X108093740Y-57584606D01*
X108105000Y-57571667D01*
X108602518Y-57074149D01*
X108616353Y-57064196D01*
X108623225Y-57056657D01*
X108623228Y-57056656D01*
X108654488Y-57022364D01*
X108658379Y-57018288D01*
X108671174Y-57005495D01*
X108671178Y-57005488D01*
X108671868Y-57004799D01*
X108680922Y-56993369D01*
X108698915Y-56973632D01*
X108698914Y-56973632D01*
X108698916Y-56973631D01*
X108701417Y-56967172D01*
X108714748Y-56941884D01*
X108718656Y-56936179D01*
X108718655Y-56936179D01*
X108718657Y-56936178D01*
X108724775Y-56910165D01*
X108729845Y-56893791D01*
X108739500Y-56868871D01*
X108739500Y-56861946D01*
X108742794Y-56833556D01*
X108742819Y-56833447D01*
X108744379Y-56826817D01*
X108740689Y-56800365D01*
X108739500Y-56783234D01*
X108739500Y-56606275D01*
X108747125Y-56563464D01*
X108767166Y-56508986D01*
X108769080Y-56504105D01*
X108800763Y-56428066D01*
X108803450Y-56422068D01*
X108832540Y-56361508D01*
X108836427Y-56354072D01*
X108856705Y-56318307D01*
X108876889Y-56291791D01*
X108878198Y-56290483D01*
X108883414Y-56279812D01*
X108892399Y-56264478D01*
X108892622Y-56264041D01*
X108917574Y-56215044D01*
X108919624Y-56209190D01*
X108919625Y-56209184D01*
X108921459Y-56203948D01*
X108927094Y-56190463D01*
X108929573Y-56185393D01*
X108929573Y-56185391D01*
X108929574Y-56185390D01*
X108939500Y-56117263D01*
X108939500Y-55525234D01*
X108953015Y-55468939D01*
X108990615Y-55424916D01*
X109044102Y-55402761D01*
X109101818Y-55407303D01*
X109151181Y-55437553D01*
X109201469Y-55487841D01*
X109229939Y-55532106D01*
X109237484Y-55584193D01*
X109237025Y-55590730D01*
X109237025Y-55590736D01*
X109237026Y-55590736D01*
X109237113Y-55591316D01*
X109238500Y-55609807D01*
X109238500Y-57129749D01*
X109250132Y-57188230D01*
X109294447Y-57254552D01*
X109360769Y-57298867D01*
X109419251Y-57310500D01*
X109419252Y-57310500D01*
X110058748Y-57310500D01*
X110058749Y-57310500D01*
X110073368Y-57307591D01*
X110117231Y-57298867D01*
X110170112Y-57263532D01*
X110214808Y-57245019D01*
X110263192Y-57245019D01*
X110307887Y-57263532D01*
X110360769Y-57298867D01*
X110399757Y-57306622D01*
X110419251Y-57310500D01*
X110419252Y-57310500D01*
X111058748Y-57310500D01*
X111058749Y-57310500D01*
X111073368Y-57307591D01*
X111117231Y-57298867D01*
X111170112Y-57263532D01*
X111214808Y-57245019D01*
X111263192Y-57245019D01*
X111307887Y-57263532D01*
X111360769Y-57298867D01*
X111399757Y-57306622D01*
X111419251Y-57310500D01*
X111419252Y-57310500D01*
X112058748Y-57310500D01*
X112058749Y-57310500D01*
X112073368Y-57307591D01*
X112117231Y-57298867D01*
X112170561Y-57263232D01*
X112215257Y-57244719D01*
X112263640Y-57244719D01*
X112308340Y-57263234D01*
X112360963Y-57298395D01*
X112419303Y-57310000D01*
X112489000Y-57310000D01*
X112489000Y-56585000D01*
X112989000Y-56585000D01*
X112989000Y-57310000D01*
X113058697Y-57310000D01*
X113117036Y-57298395D01*
X113183192Y-57254192D01*
X113227395Y-57188036D01*
X113239000Y-57129697D01*
X113239000Y-56585000D01*
X112989000Y-56585000D01*
X112489000Y-56585000D01*
X112489000Y-55360000D01*
X112989000Y-55360000D01*
X112989000Y-56085000D01*
X113239000Y-56085000D01*
X113239000Y-55540303D01*
X113227395Y-55481963D01*
X113183192Y-55415807D01*
X113117036Y-55371604D01*
X113058697Y-55360000D01*
X112989000Y-55360000D01*
X112489000Y-55360000D01*
X112489000Y-55352193D01*
X112471093Y-55322966D01*
X112466565Y-55265227D01*
X112488752Y-55211730D01*
X112503601Y-55199064D01*
X112501466Y-55196929D01*
X112605060Y-55093334D01*
X112605061Y-55093333D01*
X112662657Y-54980295D01*
X112677511Y-54886510D01*
X112677510Y-54423473D01*
X112662657Y-54329687D01*
X112620666Y-54247275D01*
X112605061Y-54216648D01*
X112515354Y-54126941D01*
X112402313Y-54069344D01*
X112308532Y-54054491D01*
X111695496Y-54054491D01*
X111648599Y-54061918D01*
X111601707Y-54069345D01*
X111601705Y-54069345D01*
X111601704Y-54069346D01*
X111488668Y-54126940D01*
X111398961Y-54216647D01*
X111341364Y-54329688D01*
X111326511Y-54423470D01*
X111326511Y-54824366D01*
X111325925Y-54836407D01*
X111324045Y-54855676D01*
X111319982Y-54866974D01*
X111322657Y-54877245D01*
X111324986Y-54876877D01*
X111329915Y-54908007D01*
X111331026Y-54917259D01*
X111331155Y-54918832D01*
X111333038Y-54927725D01*
X111341364Y-54980294D01*
X111345948Y-54989290D01*
X111356577Y-55018989D01*
X111369969Y-55079973D01*
X111370750Y-55083817D01*
X111391468Y-55194813D01*
X111391972Y-55197701D01*
X111396541Y-55225854D01*
X111395325Y-55271997D01*
X111377318Y-55314498D01*
X111357568Y-55344126D01*
X111356685Y-55345450D01*
X111349709Y-55354909D01*
X111335198Y-55372751D01*
X111292262Y-55406488D01*
X111238998Y-55418511D01*
X111185733Y-55406488D01*
X111142798Y-55372751D01*
X111128296Y-55354920D01*
X111121321Y-55345462D01*
X111105085Y-55321107D01*
X111096724Y-55308566D01*
X111091936Y-55300774D01*
X111072666Y-55266658D01*
X111056809Y-55199077D01*
X111058542Y-55166566D01*
X111058578Y-55165926D01*
X111065606Y-55051292D01*
X111065693Y-55049990D01*
X111067094Y-55030576D01*
X111072589Y-54954385D01*
X111072729Y-54952629D01*
X111078971Y-54881418D01*
X111078970Y-54881407D01*
X111078984Y-54881250D01*
X111082868Y-54870334D01*
X111076933Y-54852281D01*
X111076650Y-54848238D01*
X111075845Y-54836716D01*
X111075801Y-54836085D01*
X111075499Y-54827439D01*
X111075499Y-54423486D01*
X111075499Y-54423482D01*
X111060646Y-54329696D01*
X111010668Y-54231609D01*
X111003050Y-54216657D01*
X110913343Y-54126950D01*
X110800302Y-54069353D01*
X110706521Y-54054500D01*
X110093485Y-54054500D01*
X110046588Y-54061927D01*
X109999696Y-54069354D01*
X109999694Y-54069354D01*
X109999693Y-54069355D01*
X109886657Y-54126949D01*
X109796950Y-54216656D01*
X109739353Y-54329697D01*
X109724500Y-54423479D01*
X109724500Y-54437304D01*
X109710985Y-54493599D01*
X109673385Y-54537622D01*
X109619898Y-54559777D01*
X109562182Y-54555235D01*
X109512819Y-54524985D01*
X109131642Y-54143808D01*
X109122376Y-54133440D01*
X109100153Y-54105573D01*
X109052882Y-54073343D01*
X109049144Y-54070691D01*
X109048530Y-54070238D01*
X109003156Y-54036750D01*
X108988119Y-54025652D01*
X108988634Y-54024953D01*
X108964443Y-54009570D01*
X108935167Y-53961253D01*
X108930364Y-53904964D01*
X108939500Y-53842262D01*
X108939500Y-53743725D01*
X108954172Y-53685216D01*
X108994713Y-53640553D01*
X109014432Y-53627407D01*
X109028953Y-53619086D01*
X109045773Y-53610904D01*
X109063724Y-53603843D01*
X109068359Y-53602425D01*
X109104635Y-53597000D01*
X110030057Y-53597000D01*
X110049454Y-53598526D01*
X110093481Y-53605500D01*
X110706518Y-53605499D01*
X110800304Y-53590646D01*
X110913342Y-53533050D01*
X111003050Y-53443342D01*
X111060646Y-53330304D01*
X111075500Y-53236519D01*
X111075499Y-53149695D01*
X111089291Y-53092863D01*
X111127600Y-53048671D01*
X111181903Y-53026953D01*
X111240121Y-53032541D01*
X111289302Y-53064191D01*
X111318505Y-53114862D01*
X111321518Y-53125157D01*
X111326511Y-53159987D01*
X111326511Y-53236505D01*
X111326514Y-53236521D01*
X111341365Y-53330295D01*
X111341365Y-53330296D01*
X111341366Y-53330297D01*
X111398960Y-53443333D01*
X111488667Y-53533040D01*
X111488669Y-53533041D01*
X111601707Y-53590637D01*
X111695492Y-53605491D01*
X112308529Y-53605490D01*
X112402315Y-53590637D01*
X112515353Y-53533041D01*
X112605061Y-53443333D01*
X112662657Y-53330295D01*
X112677511Y-53236510D01*
X112677510Y-52773473D01*
X112662657Y-52679687D01*
X112605065Y-52566656D01*
X112605061Y-52566648D01*
X112515354Y-52476941D01*
X112402313Y-52419344D01*
X112308532Y-52404491D01*
X112308530Y-52404491D01*
X112225124Y-52404491D01*
X112201562Y-52402232D01*
X112192705Y-52400517D01*
X112192703Y-52400517D01*
X112099588Y-52382496D01*
X112075149Y-52377766D01*
X112061601Y-52374342D01*
X111946056Y-52338101D01*
X111933820Y-52333543D01*
X111893838Y-52316200D01*
X111814507Y-52281788D01*
X111803771Y-52276501D01*
X111680425Y-52208181D01*
X111671203Y-52202534D01*
X111537936Y-52112712D01*
X111519559Y-52097568D01*
X111189205Y-51767214D01*
X111179252Y-51753380D01*
X111137436Y-51715259D01*
X111133295Y-51711304D01*
X111119865Y-51697874D01*
X111108433Y-51688818D01*
X111088689Y-51670819D01*
X111082223Y-51668314D01*
X111056947Y-51654991D01*
X111051236Y-51651079D01*
X111051235Y-51651078D01*
X111051233Y-51651077D01*
X111025239Y-51644963D01*
X111008842Y-51639886D01*
X110983928Y-51630235D01*
X110977004Y-51630235D01*
X110948614Y-51626941D01*
X110941874Y-51625356D01*
X110941873Y-51625356D01*
X110930512Y-51626941D01*
X110915421Y-51629046D01*
X110898290Y-51630235D01*
X107412505Y-51630235D01*
X107395684Y-51627491D01*
X107352570Y-51629484D01*
X107339181Y-51630103D01*
X107333457Y-51630235D01*
X107314445Y-51630235D01*
X107299957Y-51631916D01*
X107273269Y-51633150D01*
X107266928Y-51635950D01*
X107239640Y-51644400D01*
X107232830Y-51645673D01*
X107210121Y-51659733D01*
X107194939Y-51667735D01*
X107170495Y-51678529D01*
X107165595Y-51683429D01*
X107143205Y-51701164D01*
X107137310Y-51704814D01*
X107121212Y-51726131D01*
X107109941Y-51739083D01*
X106451845Y-52397181D01*
X106411617Y-52424061D01*
X106364164Y-52433500D01*
X106355737Y-52433500D01*
X106318647Y-52438904D01*
X106266002Y-52435226D01*
X106219654Y-52409989D01*
X106187999Y-52367765D01*
X106176769Y-52316200D01*
X106176769Y-52303053D01*
X106177549Y-52289169D01*
X106181539Y-52253757D01*
X106181539Y-52253756D01*
X106170904Y-52197552D01*
X106170133Y-52193011D01*
X106167528Y-52175726D01*
X106161617Y-52136504D01*
X106161616Y-52136502D01*
X106160717Y-52130535D01*
X106159111Y-52125652D01*
X106144267Y-52097568D01*
X106129565Y-52069752D01*
X106127510Y-52065683D01*
X106102694Y-52014149D01*
X106102692Y-52014147D01*
X106100076Y-52008714D01*
X106097096Y-52004514D01*
X106052434Y-51959853D01*
X106049215Y-51956512D01*
X106006227Y-51910182D01*
X105991336Y-51898755D01*
X105573271Y-51480690D01*
X105564005Y-51470322D01*
X105541782Y-51442455D01*
X105494511Y-51410225D01*
X105490773Y-51407573D01*
X105439938Y-51370054D01*
X105435327Y-51367727D01*
X105374952Y-51349104D01*
X105370547Y-51347655D01*
X105354311Y-51341974D01*
X105316602Y-51328779D01*
X105316601Y-51328778D01*
X105310926Y-51326793D01*
X105305817Y-51325925D01*
X105299805Y-51325925D01*
X105242641Y-51325925D01*
X105238004Y-51325838D01*
X105174873Y-51323475D01*
X105156268Y-51325925D01*
X98598837Y-51325925D01*
X98584953Y-51325145D01*
X98549538Y-51321154D01*
X98493386Y-51331779D01*
X98488816Y-51332556D01*
X98426333Y-51341974D01*
X98421426Y-51343588D01*
X98365560Y-51373115D01*
X98361422Y-51375204D01*
X98304511Y-51402611D01*
X98300287Y-51405608D01*
X98255634Y-51450261D01*
X98252297Y-51453476D01*
X98205967Y-51496464D01*
X98194542Y-51511353D01*
X96056215Y-53649681D01*
X96015987Y-53676561D01*
X95968534Y-53686000D01*
X94682001Y-53686000D01*
X94682001Y-53694446D01*
X94697762Y-53793969D01*
X94758883Y-53913924D01*
X94854075Y-54009116D01*
X94974032Y-54070238D01*
X95073544Y-54085999D01*
X95093106Y-54085999D01*
X95157393Y-54103963D01*
X95203053Y-54152653D01*
X95216854Y-54217960D01*
X95194798Y-54280960D01*
X95143276Y-54323398D01*
X95139883Y-54324899D01*
X95089717Y-54335500D01*
X95073510Y-54335500D01*
X94973873Y-54351281D01*
X94951841Y-54362506D01*
X94932425Y-54370410D01*
X94918281Y-54374815D01*
X94821416Y-54424632D01*
X94811982Y-54428994D01*
X94720716Y-54466635D01*
X94710212Y-54470424D01*
X94640251Y-54492149D01*
X94570739Y-54493326D01*
X94544547Y-54486157D01*
X94533971Y-54482746D01*
X94454808Y-54453233D01*
X94445210Y-54449188D01*
X94359352Y-54408676D01*
X94342352Y-54403695D01*
X94322763Y-54396100D01*
X94306177Y-54387992D01*
X94234164Y-54377500D01*
X93503842Y-54377500D01*
X93431821Y-54387993D01*
X93320731Y-54442301D01*
X93233300Y-54529732D01*
X93178992Y-54640823D01*
X93168500Y-54712835D01*
X93168500Y-55293157D01*
X93175050Y-55338113D01*
X93178993Y-55365179D01*
X93222241Y-55453644D01*
X93233301Y-55476268D01*
X93320732Y-55563699D01*
X93320733Y-55563699D01*
X93320734Y-55563700D01*
X93431821Y-55618007D01*
X93503839Y-55628500D01*
X94234160Y-55628499D01*
X94306179Y-55618007D01*
X94330093Y-55606315D01*
X94344366Y-55600409D01*
X94368956Y-55591990D01*
X94455506Y-55545596D01*
X94464395Y-55541281D01*
X94545331Y-55505914D01*
X94555251Y-55502080D01*
X94592166Y-55489607D01*
X94630322Y-55483093D01*
X94668629Y-55488662D01*
X94710215Y-55501576D01*
X94720717Y-55505364D01*
X94746357Y-55515938D01*
X94811989Y-55543005D01*
X94821407Y-55547359D01*
X94918284Y-55597184D01*
X94932430Y-55601590D01*
X94951836Y-55609490D01*
X94973874Y-55620719D01*
X94973875Y-55620719D01*
X94986700Y-55627254D01*
X95036131Y-55672950D01*
X95054403Y-55737739D01*
X95036130Y-55802528D01*
X94986699Y-55848222D01*
X94903778Y-55890472D01*
X94891005Y-55903245D01*
X94878283Y-55914341D01*
X94794863Y-55977639D01*
X94787227Y-55982992D01*
X94702378Y-56037842D01*
X94693482Y-56043080D01*
X94626951Y-56078612D01*
X94575094Y-56093060D01*
X94522002Y-56084171D01*
X94475955Y-56065528D01*
X94459720Y-56058955D01*
X94450452Y-56054752D01*
X94364247Y-56011310D01*
X94343293Y-56004649D01*
X94326401Y-55997878D01*
X94306178Y-55987992D01*
X94234164Y-55977500D01*
X93503842Y-55977500D01*
X93431821Y-55987993D01*
X93320731Y-56042301D01*
X93233300Y-56129732D01*
X93178992Y-56240823D01*
X93168500Y-56312835D01*
X93168500Y-56893157D01*
X81463501Y-56893157D01*
X81463501Y-54059999D01*
X82102753Y-54059999D01*
X82121719Y-54361452D01*
X82178319Y-54658163D01*
X82271658Y-54945428D01*
X82400268Y-55218739D01*
X82510481Y-55392406D01*
X82562115Y-55473768D01*
X82696739Y-55636500D01*
X82754650Y-55706503D01*
X82974839Y-55913276D01*
X83219204Y-56090816D01*
X83326630Y-56149874D01*
X83483896Y-56236332D01*
X83577108Y-56273237D01*
X83764737Y-56347525D01*
X83825796Y-56363202D01*
X84057302Y-56422642D01*
X84289350Y-56451957D01*
X84356972Y-56460500D01*
X84356973Y-56460500D01*
X84659027Y-56460500D01*
X84659028Y-56460500D01*
X84720484Y-56452736D01*
X84958698Y-56422642D01*
X85251262Y-56347525D01*
X85532104Y-56236332D01*
X85796795Y-56090816D01*
X85811191Y-56080357D01*
X86041160Y-55913276D01*
X86082391Y-55874557D01*
X86261349Y-55706504D01*
X86453885Y-55473768D01*
X86615733Y-55218736D01*
X86744341Y-54945430D01*
X86837681Y-54658160D01*
X86894280Y-54361457D01*
X86913246Y-54060000D01*
X86912899Y-54054492D01*
X86903906Y-53911542D01*
X86894280Y-53758543D01*
X86837681Y-53461840D01*
X86827608Y-53430840D01*
X86764470Y-53236521D01*
X86748055Y-53186000D01*
X94682000Y-53186000D01*
X95107000Y-53186000D01*
X95107000Y-52786001D01*
X95073554Y-52786001D01*
X94974030Y-52801762D01*
X94854075Y-52862883D01*
X94758883Y-52958075D01*
X94697761Y-53078032D01*
X94682000Y-53177547D01*
X94682000Y-53186000D01*
X86748055Y-53186000D01*
X86744341Y-53174570D01*
X86615733Y-52901264D01*
X86615732Y-52901263D01*
X86615731Y-52901260D01*
X86542584Y-52786000D01*
X95607000Y-52786000D01*
X95607000Y-53186000D01*
X96031999Y-53186000D01*
X96031999Y-53177554D01*
X96016237Y-53078030D01*
X95955116Y-52958075D01*
X95859924Y-52862883D01*
X95739967Y-52801761D01*
X95640453Y-52786000D01*
X95607000Y-52786000D01*
X86542584Y-52786000D01*
X86496444Y-52713295D01*
X86453885Y-52646232D01*
X86261349Y-52413496D01*
X86257614Y-52409989D01*
X86041160Y-52206723D01*
X85796795Y-52029183D01*
X85532102Y-51883667D01*
X85251262Y-51772474D01*
X84958700Y-51697358D01*
X84659028Y-51659500D01*
X84659027Y-51659500D01*
X84356973Y-51659500D01*
X84356972Y-51659500D01*
X84057299Y-51697358D01*
X83764737Y-51772474D01*
X83483897Y-51883667D01*
X83219204Y-52029183D01*
X82974839Y-52206723D01*
X82754650Y-52413496D01*
X82562114Y-52646233D01*
X82400268Y-52901260D01*
X82271658Y-53174571D01*
X82178319Y-53461836D01*
X82121719Y-53758547D01*
X82102753Y-54059999D01*
X81463501Y-54059999D01*
X81463501Y-54048246D01*
X81463671Y-54041757D01*
X81465358Y-54009570D01*
X81479592Y-53737937D01*
X81480946Y-53725065D01*
X81528031Y-53427784D01*
X81530724Y-53415108D01*
X81608628Y-53124368D01*
X81612637Y-53112033D01*
X81625689Y-53078032D01*
X81720494Y-52831055D01*
X81725764Y-52819216D01*
X81862420Y-52551015D01*
X81868886Y-52539816D01*
X82032825Y-52287372D01*
X82040427Y-52276909D01*
X82229859Y-52042979D01*
X82238526Y-52033354D01*
X82451354Y-51820526D01*
X82460979Y-51811859D01*
X82694909Y-51622427D01*
X82705372Y-51614825D01*
X82957816Y-51450886D01*
X82969015Y-51444420D01*
X83237216Y-51307764D01*
X83249055Y-51302494D01*
X83530040Y-51194634D01*
X83542368Y-51190628D01*
X83833108Y-51112724D01*
X83845784Y-51110031D01*
X84143065Y-51062946D01*
X84155937Y-51061592D01*
X84459757Y-51045670D01*
X84466246Y-51045501D01*
X120459754Y-51045501D01*
X120466243Y-51045670D01*
G37*
%TD.AperFunction*%
%TD*%
M02*
