M48
; DRILL file {KiCad 7.0.1} date Tue 25 Apr 2023 07:49:50 PM CEST
; FORMAT={-:-/ absolute / metric / decimal}
; #@! TF.CreationDate,2023-04-25T19:49:50+02:00
; #@! TF.GenerationSoftware,Kicad,Pcbnew,7.0.1
; #@! TF.FileFunction,MixedPlating,1,2
FMAT,2
METRIC
; #@! TA.AperFunction,Plated,PTH,ViaDrill
T1C0.300
; #@! TA.AperFunction,Plated,PTH,ComponentDrill
T2C0.700
; #@! TA.AperFunction,Plated,PTH,ComponentDrill
T3C2.200
; #@! TA.AperFunction,NonPlated,NPTH,ComponentDrill
T4C0.580
; #@! TA.AperFunction,NonPlated,NPTH,ComponentDrill
T5C0.660
%
G90
G05
T1
X94.148Y-53.963
X97.296Y-54.947
X98.354Y-59.902
X98.849Y-54.054
X102.55Y-57.24
X102.55Y-58.06
X102.557Y-53.903
X102.567Y-59.384
X102.582Y-55.387
X104.218Y-56.88
X104.638Y-56.309
X105.068Y-60.98
X105.391Y-55.543
X106.361Y-59.148
X107.462Y-56.733
T2
X100.401Y-54.23
X100.401Y-59.03
X104.701Y-54.23
X104.701Y-59.03
T3
X84.508Y-54.06
X120.539Y-54.029
T4
X102.551Y-60.38
T5
X102.551Y-52.88
T0
M30
