%TF.GenerationSoftware,KiCad,Pcbnew,(6.0.8)*%
%TF.CreationDate,2022-11-05T10:38:12+01:00*%
%TF.ProjectId,daughterboard,64617567-6874-4657-9262-6f6172642e6b,1.0*%
%TF.SameCoordinates,Original*%
%TF.FileFunction,Copper,L2,Bot*%
%TF.FilePolarity,Positive*%
%FSLAX46Y46*%
G04 Gerber Fmt 4.6, Leading zero omitted, Abs format (unit mm)*
G04 Created by KiCad (PCBNEW (6.0.8)) date 2022-11-05 10:38:12*
%MOMM*%
%LPD*%
G01*
G04 APERTURE LIST*
%TA.AperFunction,ComponentPad*%
%ADD10C,4.400000*%
%TD*%
%TA.AperFunction,ComponentPad*%
%ADD11O,1.100000X2.200000*%
%TD*%
%TA.AperFunction,SMDPad,CuDef*%
%ADD12R,0.870000X0.300000*%
%TD*%
%TA.AperFunction,ViaPad*%
%ADD13C,0.600000*%
%TD*%
%TA.AperFunction,Conductor*%
%ADD14C,0.300000*%
%TD*%
%TA.AperFunction,Conductor*%
%ADD15C,0.200000*%
%TD*%
G04 APERTURE END LIST*
D10*
%TO.P,H2,1,1*%
%TO.N,unconnected-(H2-Pad1)*%
X84508000Y-54060000D03*
%TD*%
%TO.P,H1,1,1*%
%TO.N,Net-(FB2-Pad1)*%
X120539000Y-54029000D03*
%TD*%
D11*
%TO.P,J1,S4*%
%TO.N,N/C*%
X100401000Y-54230000D03*
%TO.P,J1,S3*%
X104701000Y-54230000D03*
%TO.P,J1,S2*%
X100401000Y-59030000D03*
%TO.P,J1,S1,SHIELD*%
%TO.N,Net-(FB2-Pad1)*%
X104701000Y-59030000D03*
D12*
%TO.P,J1,B12,GND*%
%TO.N,GND*%
X101686000Y-59380000D03*
%TO.P,J1,B9,VBUS*%
%TO.N,Net-(F1-Pad1)*%
X101686000Y-57880000D03*
%TO.P,J1,B8,SBU2*%
%TO.N,unconnected-(J1-PadB8)*%
X101686000Y-57380000D03*
%TO.P,J1,B7,D-*%
%TO.N,/DUSB-*%
X101686000Y-56880000D03*
%TO.P,J1,B6,D+*%
%TO.N,/DUSB+*%
X101686000Y-56380000D03*
%TO.P,J1,B5,CC2*%
%TO.N,Net-(J1-PadB5)*%
X101686000Y-55880000D03*
%TO.P,J1,B4,VBUS*%
%TO.N,Net-(F1-Pad1)*%
X101686000Y-55380000D03*
%TO.P,J1,B1,GND*%
%TO.N,GND*%
X101686000Y-53880000D03*
%TO.P,J1,A12,GND*%
X103416000Y-53880000D03*
%TO.P,J1,A9,VBUS*%
%TO.N,Net-(F1-Pad1)*%
X103416000Y-55380000D03*
%TO.P,J1,A8,SBU1*%
%TO.N,unconnected-(J1-PadA8)*%
X103416000Y-55880000D03*
%TO.P,J1,A7,D-*%
%TO.N,/DUSB-*%
X103416000Y-56380000D03*
%TO.P,J1,A6,D+*%
%TO.N,/DUSB+*%
X103416000Y-56880000D03*
%TO.P,J1,A5,CC1*%
%TO.N,Net-(J1-PadA5)*%
X103416000Y-57380000D03*
%TO.P,J1,A4,VBUS*%
%TO.N,Net-(F1-Pad1)*%
X103416000Y-57880000D03*
%TO.P,J1,A1,GND*%
%TO.N,GND*%
X103416000Y-59380000D03*
%TD*%
D13*
%TO.N,GND*%
X107470000Y-56390000D03*
X102548000Y-54460000D03*
X102555000Y-58809000D03*
%TO.N,Net-(F1-Pad1)*%
X102582000Y-55387000D03*
X102549341Y-57911830D03*
%TO.N,/DUSB+*%
X104218000Y-56880500D03*
%TO.N,/DUSB-*%
X104638000Y-56309500D03*
X102520138Y-57212938D03*
%TO.N,Net-(J1-PadA5)*%
X106361000Y-59148000D03*
%TO.N,Net-(J1-PadB5)*%
X98849000Y-54054000D03*
%TD*%
D14*
%TO.N,Net-(F1-Pad1)*%
X102582000Y-55387000D02*
X102577000Y-55387000D01*
X103416000Y-57880000D02*
X102678000Y-57880000D01*
X102577000Y-55387000D02*
X102570000Y-55380000D01*
X102678000Y-57880000D02*
X101686000Y-57880000D01*
X102570000Y-55380000D02*
X101686000Y-55380000D01*
X103416000Y-55380000D02*
X102570000Y-55380000D01*
D15*
%TO.N,/DUSB+*%
X103416000Y-56880000D02*
X104217500Y-56880000D01*
X102393616Y-56380000D02*
X101686000Y-56380000D01*
X104217500Y-56880000D02*
X104218000Y-56880500D01*
X102893616Y-56880000D02*
X102393616Y-56380000D01*
X103416000Y-56880000D02*
X102893616Y-56880000D01*
%TO.N,/DUSB-*%
X102187200Y-56880000D02*
X102520138Y-57212938D01*
X104638000Y-56309500D02*
X104567500Y-56380000D01*
X101686000Y-56880000D02*
X102187200Y-56880000D01*
X104567500Y-56380000D02*
X103416000Y-56380000D01*
%TO.N,Net-(J1-PadA5)*%
X103416000Y-57380000D02*
X105351000Y-57380000D01*
X106361000Y-58390000D02*
X106361000Y-59148000D01*
X105351000Y-57380000D02*
X106361000Y-58390000D01*
%TO.N,Net-(J1-PadB5)*%
X99861000Y-55880000D02*
X98849000Y-54868000D01*
X98849000Y-54868000D02*
X98849000Y-54054000D01*
X101686000Y-55880000D02*
X99861000Y-55880000D01*
%TD*%
%TA.AperFunction,Conductor*%
%TO.N,Net-(J1-PadA5)*%
G36*
X103488617Y-57248300D02*
G01*
X103502004Y-57254407D01*
X103521328Y-57261957D01*
X103539997Y-57267854D01*
X103558647Y-57272302D01*
X103558837Y-57272334D01*
X103558844Y-57272335D01*
X103566097Y-57273540D01*
X103577920Y-57275505D01*
X103578086Y-57275522D01*
X103578097Y-57275524D01*
X103598329Y-57277655D01*
X103598341Y-57277656D01*
X103598455Y-57277668D01*
X103598561Y-57277674D01*
X103598582Y-57277676D01*
X103620814Y-57278990D01*
X103620839Y-57278991D01*
X103620890Y-57278994D01*
X103620981Y-57278997D01*
X103620993Y-57278997D01*
X103638982Y-57279497D01*
X103645867Y-57279689D01*
X103674023Y-57279956D01*
X103678093Y-57279962D01*
X103694316Y-57279984D01*
X103702585Y-57283422D01*
X103706000Y-57291684D01*
X103706000Y-57468316D01*
X103702573Y-57476589D01*
X103694317Y-57480016D01*
X103674023Y-57480043D01*
X103645867Y-57480310D01*
X103638982Y-57480502D01*
X103620993Y-57481002D01*
X103620981Y-57481002D01*
X103620890Y-57481005D01*
X103620839Y-57481008D01*
X103620814Y-57481009D01*
X103598582Y-57482323D01*
X103598561Y-57482325D01*
X103598455Y-57482331D01*
X103598341Y-57482343D01*
X103598329Y-57482344D01*
X103578097Y-57484475D01*
X103578086Y-57484477D01*
X103577920Y-57484494D01*
X103566097Y-57486459D01*
X103558844Y-57487664D01*
X103558837Y-57487665D01*
X103558647Y-57487697D01*
X103539997Y-57492145D01*
X103521328Y-57498042D01*
X103502004Y-57505592D01*
X103501859Y-57505658D01*
X103501857Y-57505659D01*
X103488618Y-57511699D01*
X103479668Y-57512016D01*
X103475651Y-57509488D01*
X103349769Y-57388433D01*
X103346181Y-57380229D01*
X103349769Y-57371567D01*
X103432838Y-57291684D01*
X103475651Y-57250512D01*
X103483990Y-57247247D01*
X103488617Y-57248300D01*
G37*
%TD.AperFunction*%
%TD*%
%TA.AperFunction,Conductor*%
%TO.N,/DUSB+*%
G36*
X103488617Y-56748300D02*
G01*
X103502004Y-56754407D01*
X103521328Y-56761957D01*
X103539997Y-56767854D01*
X103558647Y-56772302D01*
X103558837Y-56772334D01*
X103558844Y-56772335D01*
X103566097Y-56773540D01*
X103577920Y-56775505D01*
X103578086Y-56775522D01*
X103578097Y-56775524D01*
X103598329Y-56777655D01*
X103598341Y-56777656D01*
X103598455Y-56777668D01*
X103598561Y-56777674D01*
X103598582Y-56777676D01*
X103620814Y-56778990D01*
X103620839Y-56778991D01*
X103620890Y-56778994D01*
X103620981Y-56778997D01*
X103620993Y-56778997D01*
X103635136Y-56779390D01*
X103645867Y-56779689D01*
X103674023Y-56779956D01*
X103706000Y-56780000D01*
X103706000Y-56980000D01*
X103674023Y-56980043D01*
X103645867Y-56980310D01*
X103640724Y-56980453D01*
X103640720Y-56980453D01*
X103640538Y-56980458D01*
X103640524Y-56980458D01*
X103620997Y-56981002D01*
X103620996Y-56981002D01*
X103620890Y-56981005D01*
X103612921Y-56981476D01*
X103598582Y-56982323D01*
X103598561Y-56982325D01*
X103598455Y-56982331D01*
X103598341Y-56982343D01*
X103598329Y-56982344D01*
X103578097Y-56984475D01*
X103578086Y-56984477D01*
X103577920Y-56984494D01*
X103566097Y-56986459D01*
X103558844Y-56987664D01*
X103558837Y-56987665D01*
X103558647Y-56987697D01*
X103539997Y-56992145D01*
X103521328Y-56998042D01*
X103502004Y-57005592D01*
X103501859Y-57005658D01*
X103501857Y-57005659D01*
X103488618Y-57011699D01*
X103479668Y-57012016D01*
X103475651Y-57009488D01*
X103463694Y-56997989D01*
X103450268Y-56985078D01*
X103438184Y-56973458D01*
X103416000Y-56952124D01*
X103341000Y-56880000D01*
X103416000Y-56807876D01*
X103475651Y-56750512D01*
X103483990Y-56747247D01*
X103488617Y-56748300D01*
G37*
%TD.AperFunction*%
%TD*%
%TA.AperFunction,Conductor*%
%TO.N,/DUSB+*%
G36*
X101758617Y-56248300D02*
G01*
X101772004Y-56254407D01*
X101791328Y-56261957D01*
X101809997Y-56267854D01*
X101828647Y-56272302D01*
X101828837Y-56272334D01*
X101828844Y-56272335D01*
X101836097Y-56273540D01*
X101847920Y-56275505D01*
X101848086Y-56275522D01*
X101848097Y-56275524D01*
X101868329Y-56277655D01*
X101868341Y-56277656D01*
X101868455Y-56277668D01*
X101868561Y-56277674D01*
X101868582Y-56277676D01*
X101890814Y-56278990D01*
X101890839Y-56278991D01*
X101890890Y-56278994D01*
X101890981Y-56278997D01*
X101890993Y-56278997D01*
X101908982Y-56279497D01*
X101915867Y-56279689D01*
X101944023Y-56279956D01*
X101948093Y-56279962D01*
X101964316Y-56279984D01*
X101972585Y-56283422D01*
X101976000Y-56291684D01*
X101976000Y-56468316D01*
X101972573Y-56476589D01*
X101964317Y-56480016D01*
X101944023Y-56480043D01*
X101915867Y-56480310D01*
X101908982Y-56480502D01*
X101890993Y-56481002D01*
X101890981Y-56481002D01*
X101890890Y-56481005D01*
X101890839Y-56481008D01*
X101890814Y-56481009D01*
X101868582Y-56482323D01*
X101868561Y-56482325D01*
X101868455Y-56482331D01*
X101868341Y-56482343D01*
X101868329Y-56482344D01*
X101848097Y-56484475D01*
X101848086Y-56484477D01*
X101847920Y-56484494D01*
X101836097Y-56486459D01*
X101828844Y-56487664D01*
X101828837Y-56487665D01*
X101828647Y-56487697D01*
X101809997Y-56492145D01*
X101791328Y-56498042D01*
X101772004Y-56505592D01*
X101771859Y-56505658D01*
X101771857Y-56505659D01*
X101758618Y-56511699D01*
X101749668Y-56512016D01*
X101745651Y-56509488D01*
X101619769Y-56388433D01*
X101616181Y-56380229D01*
X101619769Y-56371567D01*
X101702838Y-56291684D01*
X101745651Y-56250512D01*
X101753990Y-56247247D01*
X101758617Y-56248300D01*
G37*
%TD.AperFunction*%
%TD*%
%TA.AperFunction,Conductor*%
%TO.N,/DUSB+*%
G36*
X103356348Y-56750512D02*
G01*
X103491000Y-56880000D01*
X103416000Y-56952124D01*
X103385968Y-56981005D01*
X103356349Y-57009488D01*
X103348010Y-57012753D01*
X103343384Y-57011700D01*
X103329995Y-57005592D01*
X103310671Y-56998042D01*
X103292002Y-56992145D01*
X103273352Y-56987697D01*
X103273162Y-56987665D01*
X103273155Y-56987664D01*
X103265902Y-56986459D01*
X103254079Y-56984494D01*
X103253913Y-56984477D01*
X103253902Y-56984475D01*
X103233670Y-56982344D01*
X103233658Y-56982343D01*
X103233544Y-56982331D01*
X103233438Y-56982325D01*
X103233417Y-56982323D01*
X103211185Y-56981009D01*
X103211160Y-56981008D01*
X103211109Y-56981005D01*
X103211018Y-56981002D01*
X103211006Y-56981002D01*
X103193017Y-56980502D01*
X103186132Y-56980310D01*
X103157976Y-56980043D01*
X103137683Y-56980016D01*
X103129416Y-56976578D01*
X103126000Y-56968316D01*
X103126000Y-56791684D01*
X103129427Y-56783411D01*
X103137684Y-56779984D01*
X103153927Y-56779962D01*
X103157976Y-56779956D01*
X103186132Y-56779689D01*
X103193017Y-56779497D01*
X103211006Y-56778997D01*
X103211018Y-56778997D01*
X103211109Y-56778994D01*
X103211160Y-56778991D01*
X103211185Y-56778990D01*
X103233417Y-56777676D01*
X103233438Y-56777674D01*
X103233544Y-56777668D01*
X103233658Y-56777656D01*
X103233670Y-56777655D01*
X103253902Y-56775524D01*
X103253913Y-56775522D01*
X103254079Y-56775505D01*
X103265902Y-56773540D01*
X103273155Y-56772335D01*
X103273162Y-56772334D01*
X103273352Y-56772302D01*
X103292002Y-56767854D01*
X103310671Y-56761957D01*
X103329995Y-56754407D01*
X103343383Y-56748300D01*
X103352333Y-56747984D01*
X103356348Y-56750512D01*
G37*
%TD.AperFunction*%
%TD*%
%TA.AperFunction,Conductor*%
%TO.N,/DUSB-*%
G36*
X102097545Y-56782233D02*
G01*
X102123154Y-56783681D01*
X102124603Y-56783853D01*
X102160243Y-56790410D01*
X102178065Y-56793689D01*
X102179519Y-56794054D01*
X102224643Y-56808517D01*
X102225846Y-56808977D01*
X102265342Y-56826630D01*
X102266058Y-56826980D01*
X102302615Y-56846469D01*
X102338440Y-56866143D01*
X102355795Y-56874577D01*
X102375361Y-56884086D01*
X102375369Y-56884089D01*
X102375644Y-56884223D01*
X102404957Y-56894857D01*
X102416318Y-56898978D01*
X102416321Y-56898979D01*
X102416688Y-56899112D01*
X102446345Y-56905441D01*
X102463619Y-56909127D01*
X102463621Y-56909127D01*
X102464032Y-56909215D01*
X102464452Y-56909243D01*
X102464453Y-56909243D01*
X102511724Y-56912380D01*
X102519752Y-56916347D01*
X102522269Y-56921097D01*
X102622297Y-57304047D01*
X102621072Y-57312918D01*
X102613934Y-57318324D01*
X102610749Y-57318702D01*
X102245482Y-57311561D01*
X102237279Y-57307973D01*
X102234433Y-57302972D01*
X102224226Y-57265944D01*
X102223974Y-57264818D01*
X102221668Y-57251410D01*
X102221499Y-57249427D01*
X102221499Y-57220102D01*
X102215669Y-57190787D01*
X102215030Y-57189830D01*
X102215028Y-57189826D01*
X102213595Y-57187682D01*
X102211707Y-57182579D01*
X102210573Y-57173151D01*
X102210571Y-57173135D01*
X102205397Y-57129593D01*
X102205397Y-57129591D01*
X102205379Y-57129442D01*
X102198301Y-57089012D01*
X102187152Y-57053117D01*
X102169741Y-57023012D01*
X102143879Y-56999953D01*
X102107377Y-56985197D01*
X102093421Y-56983727D01*
X102068520Y-56981103D01*
X102060652Y-56976828D01*
X102058046Y-56969467D01*
X102058046Y-56792380D01*
X102061473Y-56784107D01*
X102070406Y-56780699D01*
X102097545Y-56782233D01*
G37*
%TD.AperFunction*%
%TD*%
%TA.AperFunction,Conductor*%
%TO.N,/DUSB-*%
G36*
X101758617Y-56748300D02*
G01*
X101772004Y-56754407D01*
X101791328Y-56761957D01*
X101809997Y-56767854D01*
X101828647Y-56772302D01*
X101828837Y-56772334D01*
X101828844Y-56772335D01*
X101836097Y-56773540D01*
X101847920Y-56775505D01*
X101848086Y-56775522D01*
X101848097Y-56775524D01*
X101868329Y-56777655D01*
X101868341Y-56777656D01*
X101868455Y-56777668D01*
X101868561Y-56777674D01*
X101868582Y-56777676D01*
X101890814Y-56778990D01*
X101890839Y-56778991D01*
X101890890Y-56778994D01*
X101890981Y-56778997D01*
X101890993Y-56778997D01*
X101908982Y-56779497D01*
X101915867Y-56779689D01*
X101944023Y-56779956D01*
X101948093Y-56779962D01*
X101964316Y-56779984D01*
X101972585Y-56783422D01*
X101976000Y-56791684D01*
X101976000Y-56968316D01*
X101972573Y-56976589D01*
X101964317Y-56980016D01*
X101944023Y-56980043D01*
X101915867Y-56980310D01*
X101908982Y-56980502D01*
X101890993Y-56981002D01*
X101890981Y-56981002D01*
X101890890Y-56981005D01*
X101890839Y-56981008D01*
X101890814Y-56981009D01*
X101868582Y-56982323D01*
X101868561Y-56982325D01*
X101868455Y-56982331D01*
X101868341Y-56982343D01*
X101868329Y-56982344D01*
X101848097Y-56984475D01*
X101848086Y-56984477D01*
X101847920Y-56984494D01*
X101836097Y-56986459D01*
X101828844Y-56987664D01*
X101828837Y-56987665D01*
X101828647Y-56987697D01*
X101809997Y-56992145D01*
X101791328Y-56998042D01*
X101772004Y-57005592D01*
X101771859Y-57005658D01*
X101771857Y-57005659D01*
X101758618Y-57011699D01*
X101749668Y-57012016D01*
X101745651Y-57009488D01*
X101619769Y-56888433D01*
X101616181Y-56880229D01*
X101619769Y-56871567D01*
X101702838Y-56791684D01*
X101745651Y-56750512D01*
X101753990Y-56747247D01*
X101758617Y-56748300D01*
G37*
%TD.AperFunction*%
%TD*%
%TA.AperFunction,Conductor*%
%TO.N,/DUSB-*%
G36*
X104456175Y-56080751D02*
G01*
X104773569Y-56269031D01*
X104778936Y-56276199D01*
X104777422Y-56285452D01*
X104653648Y-56476658D01*
X104582555Y-56586482D01*
X104576913Y-56595197D01*
X104569540Y-56600280D01*
X104564235Y-56600185D01*
X104509793Y-56586482D01*
X104509222Y-56586323D01*
X104484605Y-56578781D01*
X104479759Y-56575867D01*
X104456342Y-56552450D01*
X104343304Y-56494854D01*
X104218000Y-56475008D01*
X104152955Y-56485310D01*
X104150069Y-56485406D01*
X104143304Y-56484793D01*
X104112993Y-56482044D01*
X104112840Y-56482040D01*
X104112826Y-56482039D01*
X104048883Y-56480308D01*
X104040706Y-56476658D01*
X104037500Y-56468612D01*
X104037500Y-56291268D01*
X104040927Y-56282995D01*
X104048760Y-56279576D01*
X104100709Y-56277620D01*
X104153895Y-56270635D01*
X104160260Y-56269031D01*
X104198593Y-56259371D01*
X104198600Y-56259369D01*
X104198976Y-56259274D01*
X104237875Y-56243767D01*
X104272513Y-56224343D01*
X104304811Y-56201231D01*
X104336689Y-56174662D01*
X104336817Y-56174548D01*
X104370062Y-56144872D01*
X104370069Y-56144865D01*
X104406787Y-56112146D01*
X104406967Y-56111989D01*
X104442660Y-56081872D01*
X104451194Y-56079156D01*
X104456175Y-56080751D01*
G37*
%TD.AperFunction*%
%TD*%
%TA.AperFunction,Conductor*%
%TO.N,/DUSB-*%
G36*
X103488617Y-56248300D02*
G01*
X103502004Y-56254407D01*
X103521328Y-56261957D01*
X103539997Y-56267854D01*
X103558647Y-56272302D01*
X103558837Y-56272334D01*
X103558844Y-56272335D01*
X103566097Y-56273540D01*
X103577920Y-56275505D01*
X103578086Y-56275522D01*
X103578097Y-56275524D01*
X103598329Y-56277655D01*
X103598341Y-56277656D01*
X103598455Y-56277668D01*
X103598561Y-56277674D01*
X103598582Y-56277676D01*
X103620814Y-56278990D01*
X103620839Y-56278991D01*
X103620890Y-56278994D01*
X103620981Y-56278997D01*
X103620993Y-56278997D01*
X103638982Y-56279497D01*
X103645867Y-56279689D01*
X103674023Y-56279956D01*
X103678093Y-56279962D01*
X103694316Y-56279984D01*
X103702585Y-56283422D01*
X103706000Y-56291684D01*
X103706000Y-56468316D01*
X103702573Y-56476589D01*
X103694317Y-56480016D01*
X103674023Y-56480043D01*
X103645867Y-56480310D01*
X103638982Y-56480502D01*
X103620993Y-56481002D01*
X103620981Y-56481002D01*
X103620890Y-56481005D01*
X103620839Y-56481008D01*
X103620814Y-56481009D01*
X103598582Y-56482323D01*
X103598561Y-56482325D01*
X103598455Y-56482331D01*
X103598341Y-56482343D01*
X103598329Y-56482344D01*
X103578097Y-56484475D01*
X103578086Y-56484477D01*
X103577920Y-56484494D01*
X103566097Y-56486459D01*
X103558844Y-56487664D01*
X103558837Y-56487665D01*
X103558647Y-56487697D01*
X103539997Y-56492145D01*
X103521328Y-56498042D01*
X103502004Y-56505592D01*
X103501859Y-56505658D01*
X103501857Y-56505659D01*
X103488618Y-56511699D01*
X103479668Y-56512016D01*
X103475651Y-56509488D01*
X103349769Y-56388433D01*
X103346181Y-56380229D01*
X103349769Y-56371567D01*
X103432838Y-56291684D01*
X103475651Y-56250512D01*
X103483990Y-56247247D01*
X103488617Y-56248300D01*
G37*
%TD.AperFunction*%
%TD*%
%TA.AperFunction,Conductor*%
%TO.N,/DUSB+*%
G36*
X104093731Y-56616098D02*
G01*
X104359244Y-56872310D01*
X104362818Y-56880520D01*
X104359215Y-56889176D01*
X104092822Y-57144473D01*
X104084478Y-57147723D01*
X104079330Y-57146407D01*
X104035271Y-57123502D01*
X104034793Y-57123239D01*
X103990762Y-57097672D01*
X103990495Y-57097512D01*
X103951300Y-57073336D01*
X103914880Y-57051065D01*
X103914871Y-57051060D01*
X103914770Y-57050998D01*
X103878775Y-57030988D01*
X103878559Y-57030889D01*
X103878549Y-57030884D01*
X103858556Y-57021728D01*
X103841050Y-57013710D01*
X103799326Y-56999568D01*
X103751337Y-56988966D01*
X103738521Y-56987456D01*
X103695057Y-56982336D01*
X103695053Y-56982336D01*
X103694818Y-56982308D01*
X103640720Y-56980453D01*
X103640716Y-56980453D01*
X103627500Y-56980000D01*
X103627500Y-56780000D01*
X103679894Y-56778206D01*
X103694659Y-56777701D01*
X103694668Y-56777700D01*
X103694911Y-56777692D01*
X103695155Y-56777663D01*
X103695159Y-56777663D01*
X103751224Y-56771074D01*
X103751232Y-56771073D01*
X103751510Y-56771040D01*
X103751789Y-56770978D01*
X103751792Y-56770978D01*
X103799255Y-56760521D01*
X103799256Y-56760521D01*
X103799568Y-56760452D01*
X103841359Y-56746333D01*
X103854347Y-56740408D01*
X103878939Y-56729189D01*
X103878947Y-56729185D01*
X103879153Y-56729091D01*
X103915222Y-56709133D01*
X103951840Y-56686865D01*
X103991145Y-56662776D01*
X103991416Y-56662615D01*
X104035583Y-56637158D01*
X104036065Y-56636896D01*
X104080246Y-56614118D01*
X104089169Y-56613372D01*
X104093731Y-56616098D01*
G37*
%TD.AperFunction*%
%TD*%
%TA.AperFunction,Conductor*%
%TO.N,Net-(J1-PadA5)*%
G36*
X106457968Y-58561427D02*
G01*
X106461388Y-58569298D01*
X106463310Y-58625298D01*
X106469971Y-58681799D01*
X106480574Y-58729770D01*
X106494713Y-58771479D01*
X106511981Y-58809193D01*
X106531970Y-58845182D01*
X106532021Y-58845265D01*
X106532023Y-58845269D01*
X106554274Y-58881713D01*
X106578399Y-58920913D01*
X106578561Y-58921184D01*
X106604054Y-58965225D01*
X106604318Y-58965706D01*
X106627145Y-59009789D01*
X106627906Y-59018710D01*
X106625188Y-59023278D01*
X106369433Y-59289231D01*
X106361229Y-59292819D01*
X106352567Y-59289231D01*
X106096812Y-59023278D01*
X106093547Y-59014939D01*
X106094855Y-59009788D01*
X106117681Y-58965706D01*
X106117945Y-58965225D01*
X106143438Y-58921184D01*
X106143600Y-58920913D01*
X106167725Y-58881713D01*
X106189976Y-58845269D01*
X106189978Y-58845265D01*
X106190029Y-58845182D01*
X106210018Y-58809193D01*
X106227286Y-58771479D01*
X106241425Y-58729770D01*
X106252028Y-58681799D01*
X106258689Y-58625298D01*
X106260612Y-58569298D01*
X106264321Y-58561148D01*
X106272305Y-58558000D01*
X106449695Y-58558000D01*
X106457968Y-58561427D01*
G37*
%TD.AperFunction*%
%TD*%
%TA.AperFunction,Conductor*%
%TO.N,Net-(J1-PadB5)*%
G36*
X98857433Y-53912769D02*
G01*
X99113187Y-54178722D01*
X99116452Y-54187061D01*
X99115144Y-54192212D01*
X99092318Y-54236293D01*
X99092054Y-54236774D01*
X99066561Y-54280815D01*
X99066404Y-54281077D01*
X99042274Y-54320286D01*
X99019970Y-54356817D01*
X98999981Y-54392806D01*
X98982713Y-54430520D01*
X98968574Y-54472229D01*
X98957971Y-54520200D01*
X98951310Y-54576701D01*
X98951302Y-54576945D01*
X98949388Y-54632701D01*
X98945680Y-54640852D01*
X98937695Y-54644000D01*
X98760305Y-54644000D01*
X98752032Y-54640573D01*
X98748612Y-54632702D01*
X98746697Y-54576946D01*
X98746697Y-54576945D01*
X98746689Y-54576701D01*
X98740028Y-54520200D01*
X98729425Y-54472229D01*
X98715286Y-54430520D01*
X98698018Y-54392806D01*
X98678029Y-54356817D01*
X98655725Y-54320286D01*
X98631595Y-54281077D01*
X98631438Y-54280815D01*
X98605945Y-54236774D01*
X98605681Y-54236293D01*
X98599612Y-54224572D01*
X98582855Y-54192211D01*
X98582094Y-54183290D01*
X98584812Y-54178722D01*
X98840567Y-53912769D01*
X98848771Y-53909181D01*
X98857433Y-53912769D01*
G37*
%TD.AperFunction*%
%TD*%
%TA.AperFunction,Conductor*%
%TO.N,Net-(J1-PadB5)*%
G36*
X101626348Y-55750512D02*
G01*
X101669163Y-55791684D01*
X101752231Y-55871567D01*
X101755819Y-55879771D01*
X101752231Y-55888433D01*
X101638251Y-55998042D01*
X101626349Y-56009488D01*
X101618010Y-56012753D01*
X101613384Y-56011700D01*
X101599995Y-56005592D01*
X101580671Y-55998042D01*
X101562002Y-55992145D01*
X101543352Y-55987697D01*
X101543162Y-55987665D01*
X101543155Y-55987664D01*
X101535902Y-55986459D01*
X101524079Y-55984494D01*
X101523913Y-55984477D01*
X101523902Y-55984475D01*
X101503670Y-55982344D01*
X101503658Y-55982343D01*
X101503544Y-55982331D01*
X101503438Y-55982325D01*
X101503417Y-55982323D01*
X101481185Y-55981009D01*
X101481160Y-55981008D01*
X101481109Y-55981005D01*
X101481018Y-55981002D01*
X101481006Y-55981002D01*
X101463017Y-55980502D01*
X101456132Y-55980310D01*
X101427976Y-55980043D01*
X101407683Y-55980016D01*
X101399416Y-55976578D01*
X101396000Y-55968316D01*
X101396000Y-55791684D01*
X101399427Y-55783411D01*
X101407684Y-55779984D01*
X101423927Y-55779962D01*
X101427976Y-55779956D01*
X101456132Y-55779689D01*
X101463017Y-55779497D01*
X101481006Y-55778997D01*
X101481018Y-55778997D01*
X101481109Y-55778994D01*
X101481160Y-55778991D01*
X101481185Y-55778990D01*
X101503417Y-55777676D01*
X101503438Y-55777674D01*
X101503544Y-55777668D01*
X101503658Y-55777656D01*
X101503670Y-55777655D01*
X101523902Y-55775524D01*
X101523913Y-55775522D01*
X101524079Y-55775505D01*
X101535902Y-55773540D01*
X101543155Y-55772335D01*
X101543162Y-55772334D01*
X101543352Y-55772302D01*
X101562002Y-55767854D01*
X101580671Y-55761957D01*
X101599995Y-55754407D01*
X101613383Y-55748300D01*
X101622333Y-55747984D01*
X101626348Y-55750512D01*
G37*
%TD.AperFunction*%
%TD*%
%TA.AperFunction,Conductor*%
%TO.N,Net-(F1-Pad1)*%
G36*
X102658451Y-57632296D02*
G01*
X102704237Y-57648976D01*
X102751453Y-57666287D01*
X102751506Y-57666306D01*
X102794298Y-57681404D01*
X102794440Y-57681454D01*
X102794525Y-57681481D01*
X102794545Y-57681488D01*
X102835116Y-57694467D01*
X102835235Y-57694505D01*
X102875874Y-57705470D01*
X102918393Y-57714377D01*
X102964829Y-57721255D01*
X103017218Y-57726132D01*
X103052183Y-57727814D01*
X103077466Y-57729031D01*
X103077483Y-57729032D01*
X103077596Y-57729037D01*
X103077681Y-57729038D01*
X103077706Y-57729039D01*
X103122557Y-57729652D01*
X103136460Y-57729842D01*
X103144686Y-57733382D01*
X103148000Y-57741541D01*
X103148000Y-58018515D01*
X103144573Y-58026788D01*
X103136517Y-58030213D01*
X103084068Y-58031186D01*
X103084053Y-58031187D01*
X103083928Y-58031189D01*
X103083777Y-58031199D01*
X103028994Y-58034823D01*
X103028987Y-58034824D01*
X103028801Y-58034836D01*
X103028607Y-58034861D01*
X103028609Y-58034861D01*
X102981178Y-58041023D01*
X102981167Y-58041025D01*
X102980935Y-58041055D01*
X102956301Y-58046246D01*
X102938885Y-58049916D01*
X102938879Y-58049917D01*
X102938649Y-58049966D01*
X102900264Y-58061682D01*
X102878882Y-58070337D01*
X102864300Y-58076240D01*
X102864291Y-58076244D01*
X102864096Y-58076323D01*
X102863912Y-58076414D01*
X102863906Y-58076417D01*
X102828590Y-58093941D01*
X102828577Y-58093948D01*
X102828466Y-58094003D01*
X102791691Y-58114840D01*
X102752091Y-58138950D01*
X102714902Y-58162138D01*
X102706070Y-58163608D01*
X102701543Y-58161455D01*
X102672527Y-58138950D01*
X102400186Y-57927726D01*
X102556906Y-57741196D01*
X102645489Y-57635763D01*
X102653435Y-57631633D01*
X102658451Y-57632296D01*
G37*
%TD.AperFunction*%
%TD*%
%TA.AperFunction,Conductor*%
%TO.N,Net-(F1-Pad1)*%
G36*
X102474113Y-57624961D02*
G01*
X102478153Y-57628557D01*
X102548105Y-57728608D01*
X102696504Y-57940862D01*
X102460276Y-58092634D01*
X102375744Y-58146944D01*
X102366932Y-58148533D01*
X102362255Y-58146350D01*
X102341402Y-58130189D01*
X102341269Y-58130085D01*
X102316744Y-58110506D01*
X102294051Y-58092788D01*
X102294049Y-58092786D01*
X102293951Y-58092710D01*
X102271786Y-58076861D01*
X102249106Y-58063089D01*
X102248769Y-58062929D01*
X102225082Y-58051675D01*
X102225079Y-58051674D01*
X102224770Y-58051527D01*
X102224450Y-58051418D01*
X102224442Y-58051415D01*
X102206986Y-58045484D01*
X102197634Y-58042306D01*
X102166555Y-58035557D01*
X102166270Y-58035524D01*
X102166262Y-58035523D01*
X102130622Y-58031437D01*
X102130613Y-58031436D01*
X102130392Y-58031411D01*
X102130174Y-58031404D01*
X102130164Y-58031403D01*
X102099311Y-58030376D01*
X102091156Y-58026675D01*
X102088000Y-58018682D01*
X102088000Y-57741297D01*
X102091427Y-57733024D01*
X102099289Y-57729604D01*
X102120736Y-57728851D01*
X102143238Y-57728061D01*
X102143464Y-57728035D01*
X102143474Y-57728034D01*
X102189796Y-57722654D01*
X102189799Y-57722653D01*
X102190053Y-57722624D01*
X102190302Y-57722572D01*
X102190309Y-57722571D01*
X102211510Y-57718155D01*
X102230211Y-57714260D01*
X102250478Y-57708099D01*
X102265269Y-57703602D01*
X102265273Y-57703601D01*
X102265479Y-57703538D01*
X102265680Y-57703460D01*
X102265688Y-57703457D01*
X102297454Y-57691095D01*
X102297463Y-57691091D01*
X102297623Y-57691029D01*
X102297766Y-57690965D01*
X102297781Y-57690959D01*
X102328409Y-57677303D01*
X102359555Y-57662952D01*
X102359640Y-57662914D01*
X102392748Y-57648576D01*
X102393231Y-57648382D01*
X102429921Y-57634657D01*
X102430661Y-57634408D01*
X102450182Y-57628557D01*
X102465206Y-57624054D01*
X102474113Y-57624961D01*
G37*
%TD.AperFunction*%
%TD*%
%TA.AperFunction,Conductor*%
%TO.N,Net-(F1-Pad1)*%
G36*
X102463284Y-55119844D02*
G01*
X102731959Y-55390475D01*
X102582141Y-55528010D01*
X102580622Y-55529405D01*
X102580621Y-55529405D01*
X102451028Y-55648374D01*
X102442616Y-55651444D01*
X102437753Y-55650153D01*
X102396873Y-55629068D01*
X102353988Y-55607258D01*
X102353941Y-55607236D01*
X102353910Y-55607220D01*
X102314637Y-55588426D01*
X102314620Y-55588418D01*
X102314523Y-55588372D01*
X102276644Y-55572313D01*
X102238517Y-55558986D01*
X102198309Y-55548297D01*
X102198082Y-55548255D01*
X102154385Y-55540185D01*
X102154369Y-55540183D01*
X102154187Y-55540149D01*
X102153999Y-55540128D01*
X102153989Y-55540126D01*
X102104502Y-55534468D01*
X102104496Y-55534468D01*
X102104317Y-55534447D01*
X102104142Y-55534437D01*
X102104133Y-55534436D01*
X102046994Y-55531102D01*
X102046975Y-55531101D01*
X102046866Y-55531095D01*
X102029260Y-55530807D01*
X101991508Y-55530188D01*
X101983292Y-55526627D01*
X101980000Y-55518490D01*
X101980000Y-55241523D01*
X101983427Y-55233250D01*
X101991521Y-55229824D01*
X102048141Y-55228957D01*
X102048158Y-55228956D01*
X102048247Y-55228955D01*
X102062713Y-55228168D01*
X102106699Y-55225777D01*
X102106707Y-55225776D01*
X102106842Y-55225769D01*
X102157698Y-55220367D01*
X102165634Y-55219011D01*
X102202511Y-55212708D01*
X102202522Y-55212706D01*
X102202725Y-55212671D01*
X102202938Y-55212619D01*
X102202942Y-55212618D01*
X102243634Y-55202654D01*
X102243635Y-55202654D01*
X102243834Y-55202605D01*
X102244023Y-55202545D01*
X102244032Y-55202542D01*
X102282773Y-55190145D01*
X102282779Y-55190143D01*
X102282938Y-55190092D01*
X102321947Y-55175056D01*
X102362774Y-55157420D01*
X102407329Y-55137107D01*
X102450097Y-55117456D01*
X102459044Y-55117115D01*
X102463284Y-55119844D01*
G37*
%TD.AperFunction*%
%TD*%
%TA.AperFunction,Conductor*%
%TO.N,Net-(F1-Pad1)*%
G36*
X102713379Y-55117229D02*
G01*
X102753804Y-55135867D01*
X102753844Y-55135886D01*
X102781606Y-55148814D01*
X102796217Y-55155619D01*
X102835010Y-55173049D01*
X102872027Y-55188156D01*
X102872172Y-55188206D01*
X102872180Y-55188209D01*
X102888230Y-55193742D01*
X102909108Y-55200940D01*
X102909309Y-55200994D01*
X102909319Y-55200997D01*
X102927472Y-55205867D01*
X102948099Y-55211400D01*
X102957207Y-55213134D01*
X102990659Y-55219503D01*
X102990671Y-55219505D01*
X102990840Y-55219537D01*
X103039176Y-55225349D01*
X103094948Y-55228837D01*
X103095100Y-55228840D01*
X103095107Y-55228840D01*
X103148509Y-55229795D01*
X103156720Y-55233369D01*
X103160000Y-55241493D01*
X103160000Y-55518518D01*
X103156573Y-55526791D01*
X103148520Y-55530216D01*
X103096612Y-55531193D01*
X103096598Y-55531194D01*
X103096471Y-55531196D01*
X103096322Y-55531206D01*
X103096319Y-55531206D01*
X103042142Y-55534791D01*
X103042137Y-55534791D01*
X103041963Y-55534803D01*
X102994716Y-55540847D01*
X102994509Y-55540889D01*
X102994498Y-55540891D01*
X102974724Y-55544922D01*
X102952971Y-55549355D01*
X102914969Y-55560353D01*
X102878949Y-55573867D01*
X102843154Y-55589925D01*
X102843062Y-55589971D01*
X102843047Y-55589978D01*
X102805824Y-55608552D01*
X102805783Y-55608573D01*
X102765201Y-55629773D01*
X102765199Y-55629775D01*
X102726784Y-55649830D01*
X102717864Y-55650621D01*
X102713474Y-55648093D01*
X102649914Y-55589978D01*
X102582141Y-55528010D01*
X102432048Y-55390775D01*
X102581852Y-55239275D01*
X102591024Y-55230000D01*
X102700161Y-55119628D01*
X102708414Y-55116154D01*
X102713379Y-55117229D01*
G37*
%TD.AperFunction*%
%TD*%
%TA.AperFunction,Conductor*%
%TO.N,GND*%
G36*
X120445637Y-51246747D02*
G01*
X120447961Y-51247281D01*
X120457264Y-51249421D01*
X120457266Y-51249421D01*
X120462641Y-51250657D01*
X120468023Y-51249439D01*
X120468024Y-51249439D01*
X120474265Y-51248027D01*
X120487826Y-51246895D01*
X120628000Y-51254767D01*
X120773696Y-51262950D01*
X120779156Y-51263565D01*
X121083237Y-51315230D01*
X121088594Y-51316453D01*
X121311007Y-51380529D01*
X121384972Y-51401838D01*
X121384975Y-51401839D01*
X121390158Y-51403653D01*
X121675117Y-51521687D01*
X121680060Y-51524067D01*
X121815041Y-51598668D01*
X121950017Y-51673267D01*
X121954670Y-51676191D01*
X122206215Y-51854672D01*
X122210511Y-51858098D01*
X122440493Y-52063623D01*
X122444378Y-52067508D01*
X122649903Y-52297489D01*
X122653329Y-52301785D01*
X122706360Y-52376525D01*
X122831813Y-52553334D01*
X122834732Y-52557980D01*
X122980434Y-52821607D01*
X122983932Y-52827937D01*
X122986314Y-52832884D01*
X123097046Y-53100215D01*
X123104347Y-53117840D01*
X123106161Y-53123024D01*
X123112499Y-53145023D01*
X123191547Y-53419407D01*
X123192770Y-53424764D01*
X123244435Y-53728845D01*
X123245050Y-53734305D01*
X123261081Y-54019747D01*
X123259911Y-54033478D01*
X123258580Y-54039264D01*
X123258580Y-54039267D01*
X123257344Y-54044642D01*
X123261168Y-54061542D01*
X123261292Y-54062088D01*
X123262500Y-54072903D01*
X123262500Y-61016657D01*
X123261254Y-61027637D01*
X123257344Y-61044641D01*
X123258562Y-61050023D01*
X123258562Y-61050024D01*
X123259974Y-61056265D01*
X123261106Y-61069829D01*
X123245051Y-61355696D01*
X123244436Y-61361156D01*
X123192771Y-61665237D01*
X123191548Y-61670594D01*
X123106162Y-61966975D01*
X123104347Y-61972161D01*
X122986316Y-62257114D01*
X122983932Y-62262065D01*
X122834734Y-62532017D01*
X122831816Y-62536662D01*
X122653323Y-62788225D01*
X122649903Y-62792512D01*
X122444378Y-63022493D01*
X122440493Y-63026378D01*
X122210512Y-63231903D01*
X122206225Y-63235323D01*
X121954668Y-63413812D01*
X121950017Y-63416734D01*
X121931987Y-63426699D01*
X121680063Y-63565933D01*
X121675118Y-63568314D01*
X121507335Y-63637812D01*
X121390161Y-63686347D01*
X121384977Y-63688161D01*
X121311007Y-63709472D01*
X121088594Y-63773548D01*
X121083237Y-63774771D01*
X120779156Y-63826436D01*
X120773696Y-63827051D01*
X120542871Y-63840015D01*
X120488254Y-63843082D01*
X120474526Y-63841912D01*
X120463359Y-63839344D01*
X120445910Y-63843292D01*
X120435098Y-63844500D01*
X84491344Y-63844500D01*
X84480363Y-63843254D01*
X84479616Y-63843082D01*
X84478040Y-63842720D01*
X84468737Y-63840580D01*
X84468735Y-63840580D01*
X84463360Y-63839344D01*
X84457978Y-63840562D01*
X84457977Y-63840562D01*
X84451736Y-63841974D01*
X84438175Y-63843106D01*
X84298001Y-63835234D01*
X84152305Y-63827051D01*
X84146845Y-63826436D01*
X83842763Y-63774771D01*
X83837406Y-63773548D01*
X83541025Y-63688163D01*
X83535839Y-63686348D01*
X83418663Y-63637812D01*
X83250883Y-63568315D01*
X83245940Y-63565935D01*
X82994012Y-63426699D01*
X82975984Y-63416735D01*
X82971339Y-63413817D01*
X82719776Y-63235324D01*
X82715489Y-63231904D01*
X82485507Y-63026379D01*
X82481622Y-63022494D01*
X82276097Y-62792512D01*
X82272677Y-62788225D01*
X82094184Y-62536662D01*
X82091266Y-62532017D01*
X81942068Y-62262065D01*
X81939684Y-62257114D01*
X81821653Y-61972161D01*
X81819838Y-61966975D01*
X81734452Y-61670594D01*
X81733229Y-61665237D01*
X81681564Y-61361156D01*
X81680949Y-61355695D01*
X81664931Y-61070472D01*
X81666119Y-61056663D01*
X81666211Y-61056265D01*
X81668656Y-61045718D01*
X81668657Y-61045000D01*
X81664728Y-61027776D01*
X81663501Y-61016878D01*
X81663501Y-60343461D01*
X102086734Y-60343461D01*
X102096514Y-60481590D01*
X102146477Y-60610736D01*
X102232205Y-60719482D01*
X102346119Y-60798213D01*
X102426168Y-60823529D01*
X102475485Y-60839126D01*
X102475487Y-60839126D01*
X102478148Y-60839968D01*
X102484907Y-60840500D01*
X102585601Y-60840500D01*
X102637305Y-60832727D01*
X102684312Y-60825660D01*
X102684314Y-60825659D01*
X102687935Y-60825115D01*
X102750349Y-60795144D01*
X102809461Y-60766759D01*
X102809463Y-60766758D01*
X102812763Y-60765173D01*
X102815451Y-60762689D01*
X102815453Y-60762687D01*
X102865300Y-60716609D01*
X102914448Y-60671177D01*
X102983999Y-60551436D01*
X103015266Y-60416539D01*
X103005486Y-60278410D01*
X102955523Y-60149264D01*
X102869795Y-60040518D01*
X102755881Y-59961787D01*
X102669094Y-59934340D01*
X102626515Y-59920874D01*
X102626513Y-59920874D01*
X102623852Y-59920032D01*
X102617093Y-59919500D01*
X102516399Y-59919500D01*
X102464695Y-59927273D01*
X102417688Y-59934340D01*
X102417686Y-59934341D01*
X102414065Y-59934885D01*
X102360343Y-59960682D01*
X102292539Y-59993241D01*
X102292537Y-59993242D01*
X102289237Y-59994827D01*
X102286549Y-59997311D01*
X102286547Y-59997313D01*
X102282113Y-60001412D01*
X102187552Y-60088823D01*
X102185714Y-60091988D01*
X102185712Y-60091990D01*
X102154114Y-60146391D01*
X102118001Y-60208564D01*
X102117174Y-60212132D01*
X102095680Y-60304866D01*
X102086734Y-60343461D01*
X81663501Y-60343461D01*
X81663501Y-54073344D01*
X81664747Y-54062363D01*
X81665290Y-54060000D01*
X82102754Y-54060000D01*
X82121720Y-54361457D01*
X82178319Y-54658160D01*
X82271659Y-54945430D01*
X82272307Y-54946808D01*
X82272309Y-54946812D01*
X82386294Y-55189041D01*
X82400267Y-55218736D01*
X82401094Y-55220039D01*
X82401095Y-55220041D01*
X82454420Y-55304067D01*
X82562115Y-55473768D01*
X82563098Y-55474956D01*
X82563100Y-55474959D01*
X82603395Y-55523667D01*
X82754651Y-55706504D01*
X82755770Y-55707554D01*
X82755772Y-55707557D01*
X82833824Y-55780853D01*
X82974838Y-55913274D01*
X83082425Y-55991440D01*
X83202858Y-56078939D01*
X83219205Y-56090816D01*
X83220556Y-56091559D01*
X83220558Y-56091560D01*
X83263823Y-56115345D01*
X83483896Y-56236332D01*
X83539293Y-56258265D01*
X83750564Y-56341913D01*
X83764738Y-56347525D01*
X84057302Y-56422642D01*
X84058819Y-56422834D01*
X84058821Y-56422834D01*
X84110068Y-56429308D01*
X84356973Y-56460500D01*
X84659027Y-56460500D01*
X84905932Y-56429308D01*
X84957179Y-56422834D01*
X84957181Y-56422834D01*
X84958698Y-56422642D01*
X85251262Y-56347525D01*
X85265437Y-56341913D01*
X85476707Y-56258265D01*
X85532104Y-56236332D01*
X85752177Y-56115345D01*
X85795442Y-56091560D01*
X85795444Y-56091559D01*
X85796795Y-56090816D01*
X85813143Y-56078939D01*
X85933575Y-55991440D01*
X86041162Y-55913274D01*
X86182176Y-55780853D01*
X86260228Y-55707557D01*
X86260230Y-55707554D01*
X86261349Y-55706504D01*
X86412605Y-55523667D01*
X86452900Y-55474959D01*
X86452902Y-55474956D01*
X86453885Y-55473768D01*
X86561580Y-55304067D01*
X86614905Y-55220041D01*
X86614906Y-55220039D01*
X86615733Y-55218736D01*
X86629706Y-55189041D01*
X86743691Y-54946812D01*
X86743693Y-54946808D01*
X86744341Y-54945430D01*
X86837681Y-54658160D01*
X86894280Y-54361457D01*
X86913246Y-54060000D01*
X86912480Y-54047823D01*
X98343391Y-54047823D01*
X98343843Y-54051280D01*
X98343843Y-54051283D01*
X98351789Y-54112049D01*
X98361980Y-54189979D01*
X98363386Y-54193174D01*
X98391060Y-54256068D01*
X98393282Y-54262194D01*
X98400368Y-54286704D01*
X98423194Y-54330786D01*
X98425532Y-54335169D01*
X98425796Y-54335650D01*
X98428092Y-54339724D01*
X98453585Y-54383765D01*
X98455164Y-54386445D01*
X98455237Y-54386566D01*
X98455246Y-54386582D01*
X98455321Y-54386707D01*
X98456553Y-54388736D01*
X98456582Y-54388784D01*
X98480605Y-54427819D01*
X98480695Y-54427967D01*
X98499894Y-54459412D01*
X98500909Y-54461154D01*
X98513570Y-54483950D01*
X98515286Y-54487343D01*
X98523002Y-54504195D01*
X98524856Y-54508862D01*
X98530335Y-54525024D01*
X98531773Y-54530174D01*
X98536619Y-54552101D01*
X98537435Y-54556928D01*
X98541365Y-54590269D01*
X98541673Y-54594320D01*
X98543233Y-54639754D01*
X98543742Y-54642007D01*
X98547296Y-54657745D01*
X98548500Y-54668539D01*
X98548500Y-54812374D01*
X98547999Y-54819195D01*
X98546575Y-54823342D01*
X98548039Y-54862352D01*
X98548466Y-54873720D01*
X98548500Y-54875558D01*
X98548500Y-54895948D01*
X98548914Y-54898169D01*
X98549049Y-54899638D01*
X98549637Y-54904926D01*
X98550525Y-54928565D01*
X98550774Y-54935208D01*
X98552561Y-54939367D01*
X98552561Y-54939368D01*
X98557513Y-54950894D01*
X98560664Y-54961264D01*
X98563791Y-54978053D01*
X98566163Y-54981902D01*
X98566165Y-54981906D01*
X98579691Y-55003849D01*
X98583000Y-55010217D01*
X98588695Y-55023471D01*
X98594964Y-55038063D01*
X98598978Y-55042949D01*
X98607476Y-55051447D01*
X98614540Y-55060383D01*
X98620157Y-55069496D01*
X98620159Y-55069498D01*
X98622532Y-55073348D01*
X98626134Y-55076087D01*
X98626135Y-55076088D01*
X98648460Y-55093064D01*
X98653449Y-55097420D01*
X99609179Y-56053150D01*
X99613648Y-56058327D01*
X99615575Y-56062269D01*
X99618891Y-56065345D01*
X99652541Y-56096560D01*
X99653865Y-56097836D01*
X99668277Y-56112248D01*
X99670134Y-56113522D01*
X99671271Y-56114467D01*
X99675427Y-56117790D01*
X99697646Y-56138401D01*
X99701841Y-56140075D01*
X99701848Y-56140079D01*
X99713509Y-56144731D01*
X99723067Y-56149834D01*
X99737146Y-56159492D01*
X99741548Y-56160537D01*
X99741549Y-56160537D01*
X99748406Y-56162164D01*
X99766631Y-56166489D01*
X99773473Y-56168653D01*
X99798403Y-56178599D01*
X99798405Y-56178599D01*
X99801622Y-56179883D01*
X99805067Y-56180221D01*
X99805068Y-56180221D01*
X99806729Y-56180384D01*
X99806735Y-56180384D01*
X99807915Y-56180500D01*
X99819936Y-56180500D01*
X99831250Y-56181824D01*
X99841662Y-56184295D01*
X99841663Y-56184295D01*
X99846066Y-56185340D01*
X99878338Y-56180948D01*
X99884946Y-56180500D01*
X101001500Y-56180500D01*
X101036148Y-56194852D01*
X101050500Y-56229500D01*
X101050500Y-56549748D01*
X101062133Y-56608231D01*
X101064403Y-56611628D01*
X101064403Y-56648372D01*
X101062133Y-56651769D01*
X101050500Y-56710252D01*
X101050500Y-57049748D01*
X101062133Y-57108231D01*
X101064403Y-57111628D01*
X101064403Y-57148372D01*
X101062133Y-57151769D01*
X101050500Y-57210252D01*
X101050500Y-57549748D01*
X101062133Y-57608231D01*
X101064403Y-57611628D01*
X101064403Y-57648372D01*
X101062133Y-57651769D01*
X101050500Y-57710252D01*
X101050500Y-57947545D01*
X101036148Y-57982193D01*
X101001500Y-57996545D01*
X100967802Y-57983118D01*
X100855695Y-57876918D01*
X100853628Y-57874960D01*
X100844706Y-57869778D01*
X100704763Y-57788492D01*
X100704758Y-57788490D01*
X100702298Y-57787061D01*
X100699569Y-57786235D01*
X100699568Y-57786234D01*
X100537532Y-57737158D01*
X100537529Y-57737158D01*
X100534807Y-57736333D01*
X100424664Y-57729500D01*
X100362978Y-57725673D01*
X100362976Y-57725673D01*
X100360138Y-57725497D01*
X100187660Y-57755134D01*
X100185040Y-57756249D01*
X100185036Y-57756250D01*
X100112626Y-57787061D01*
X100026627Y-57823654D01*
X99885676Y-57927383D01*
X99883834Y-57929551D01*
X99883832Y-57929553D01*
X99781719Y-58049748D01*
X99772368Y-58060755D01*
X99692781Y-58216616D01*
X99689499Y-58230030D01*
X99651703Y-58384487D01*
X99651702Y-58384493D01*
X99651185Y-58386606D01*
X99650500Y-58397648D01*
X99650500Y-59623822D01*
X99665657Y-59753828D01*
X99725369Y-59918331D01*
X99726928Y-59920708D01*
X99726929Y-59920711D01*
X99753860Y-59961787D01*
X99821323Y-60064685D01*
X99948372Y-60185040D01*
X99950834Y-60186470D01*
X100097237Y-60271508D01*
X100097242Y-60271510D01*
X100099702Y-60272939D01*
X100102431Y-60273765D01*
X100102432Y-60273766D01*
X100264468Y-60322842D01*
X100264471Y-60322842D01*
X100267193Y-60323667D01*
X100354528Y-60329085D01*
X100439022Y-60334327D01*
X100439024Y-60334327D01*
X100441862Y-60334503D01*
X100614340Y-60304866D01*
X100616960Y-60303751D01*
X100616964Y-60303750D01*
X100772750Y-60237462D01*
X100772749Y-60237462D01*
X100775373Y-60236346D01*
X100916324Y-60132617D01*
X100950840Y-60091990D01*
X101027791Y-60001412D01*
X101029632Y-59999245D01*
X101048759Y-59961787D01*
X101107926Y-59845917D01*
X101107927Y-59845914D01*
X101109219Y-59843384D01*
X101130193Y-59757669D01*
X101152369Y-59727425D01*
X101187348Y-59721258D01*
X101228938Y-59729531D01*
X101233705Y-59730000D01*
X101526253Y-59730000D01*
X101533145Y-59727145D01*
X101536000Y-59720253D01*
X101836000Y-59720253D01*
X101838855Y-59727145D01*
X101845747Y-59730000D01*
X102138295Y-59730000D01*
X102143052Y-59729532D01*
X102194303Y-59719337D01*
X102203049Y-59715715D01*
X102261181Y-59676872D01*
X102267872Y-59670181D01*
X102306715Y-59612049D01*
X102310337Y-59603303D01*
X102320532Y-59552052D01*
X102321000Y-59547295D01*
X102781000Y-59547295D01*
X102781468Y-59552052D01*
X102791663Y-59603303D01*
X102795285Y-59612049D01*
X102834128Y-59670181D01*
X102840819Y-59676872D01*
X102898951Y-59715715D01*
X102907697Y-59719337D01*
X102958948Y-59729532D01*
X102963705Y-59730000D01*
X103256253Y-59730000D01*
X103263145Y-59727145D01*
X103266000Y-59720253D01*
X103266000Y-59539747D01*
X103263145Y-59532855D01*
X103256253Y-59530000D01*
X102790747Y-59530000D01*
X102783855Y-59532855D01*
X102781000Y-59539747D01*
X102781000Y-59547295D01*
X102321000Y-59547295D01*
X102321000Y-59539747D01*
X102318145Y-59532855D01*
X102311253Y-59530000D01*
X101845747Y-59530000D01*
X101838855Y-59532855D01*
X101836000Y-59539747D01*
X101836000Y-59720253D01*
X101536000Y-59720253D01*
X101536000Y-59220253D01*
X101836000Y-59220253D01*
X101838855Y-59227145D01*
X101845747Y-59230000D01*
X102311253Y-59230000D01*
X102318145Y-59227145D01*
X102321000Y-59220253D01*
X102781000Y-59220253D01*
X102783855Y-59227145D01*
X102790747Y-59230000D01*
X103256253Y-59230000D01*
X103263145Y-59227145D01*
X103266000Y-59220253D01*
X103266000Y-59039747D01*
X103263145Y-59032855D01*
X103256253Y-59030000D01*
X102963705Y-59030000D01*
X102958948Y-59030468D01*
X102907697Y-59040663D01*
X102898951Y-59044285D01*
X102840819Y-59083128D01*
X102834128Y-59089819D01*
X102795285Y-59147951D01*
X102791663Y-59156697D01*
X102781468Y-59207948D01*
X102781000Y-59212705D01*
X102781000Y-59220253D01*
X102321000Y-59220253D01*
X102321000Y-59212705D01*
X102320532Y-59207948D01*
X102310337Y-59156697D01*
X102306715Y-59147951D01*
X102267872Y-59089819D01*
X102261181Y-59083128D01*
X102203049Y-59044285D01*
X102194303Y-59040663D01*
X102143052Y-59030468D01*
X102138295Y-59030000D01*
X101845747Y-59030000D01*
X101838855Y-59032855D01*
X101836000Y-59039747D01*
X101836000Y-59220253D01*
X101536000Y-59220253D01*
X101536000Y-59039747D01*
X101533145Y-59032855D01*
X101526253Y-59030000D01*
X101233705Y-59030000D01*
X101228945Y-59030469D01*
X101210058Y-59034225D01*
X101173276Y-59026907D01*
X101152441Y-58995724D01*
X101151500Y-58986166D01*
X101151500Y-58436178D01*
X101136343Y-58306172D01*
X101135370Y-58303492D01*
X101135369Y-58303487D01*
X101129024Y-58286006D01*
X101130692Y-58248540D01*
X101158364Y-58223228D01*
X101184639Y-58221228D01*
X101231252Y-58230500D01*
X102064310Y-58230500D01*
X102075464Y-58231786D01*
X102090135Y-58235216D01*
X102090138Y-58235216D01*
X102092472Y-58235762D01*
X102094871Y-58235842D01*
X102094872Y-58235842D01*
X102100376Y-58236025D01*
X102113266Y-58236454D01*
X102117204Y-58236746D01*
X102130536Y-58238274D01*
X102135357Y-58239072D01*
X102139227Y-58239913D01*
X102154249Y-58245909D01*
X102156944Y-58247545D01*
X102160018Y-58249573D01*
X102170069Y-58256760D01*
X102171711Y-58257987D01*
X102178366Y-58263183D01*
X102189198Y-58271640D01*
X102189614Y-58271968D01*
X102205177Y-58284392D01*
X102213058Y-58290684D01*
X102215381Y-58292512D01*
X102236367Y-58308777D01*
X102237528Y-58309486D01*
X102237530Y-58309487D01*
X102274172Y-58331853D01*
X102274176Y-58331855D01*
X102275339Y-58332565D01*
X102276572Y-58333140D01*
X102276571Y-58333140D01*
X102280016Y-58334748D01*
X102279992Y-58334800D01*
X102287391Y-58338756D01*
X102331654Y-58368220D01*
X102468498Y-58410972D01*
X102471988Y-58411036D01*
X102491899Y-58411401D01*
X102611840Y-58413600D01*
X102750158Y-58375890D01*
X102753129Y-58374066D01*
X102753131Y-58374065D01*
X102787315Y-58353076D01*
X102795363Y-58348135D01*
X102803682Y-58344055D01*
X102821381Y-58337368D01*
X102821380Y-58337368D01*
X102823631Y-58336518D01*
X102831113Y-58331853D01*
X102859687Y-58314037D01*
X102860130Y-58313764D01*
X102895154Y-58292440D01*
X102896480Y-58291661D01*
X102923689Y-58276244D01*
X102926065Y-58274983D01*
X102946770Y-58264709D01*
X102950163Y-58263183D01*
X102966950Y-58256387D01*
X102971032Y-58254941D01*
X102987845Y-58249809D01*
X102992038Y-58248729D01*
X103013538Y-58244198D01*
X103017322Y-58243554D01*
X103047321Y-58239657D01*
X103050378Y-58239358D01*
X103067042Y-58238255D01*
X103091447Y-58236641D01*
X103093772Y-58236542D01*
X103137979Y-58235722D01*
X103137983Y-58235722D01*
X103140330Y-58235678D01*
X103159534Y-58231579D01*
X103169763Y-58230500D01*
X103870748Y-58230500D01*
X103920019Y-58220699D01*
X103956799Y-58228016D01*
X103977635Y-58259199D01*
X103977172Y-58280405D01*
X103951703Y-58384487D01*
X103951702Y-58384493D01*
X103951185Y-58386606D01*
X103950500Y-58397648D01*
X103950500Y-58986166D01*
X103936148Y-59020814D01*
X103901500Y-59035166D01*
X103891942Y-59034225D01*
X103873055Y-59030469D01*
X103868295Y-59030000D01*
X103575747Y-59030000D01*
X103568855Y-59032855D01*
X103566000Y-59039747D01*
X103566000Y-59720253D01*
X103568855Y-59727145D01*
X103575747Y-59730000D01*
X103868295Y-59730000D01*
X103873062Y-59729531D01*
X103909967Y-59722190D01*
X103946749Y-59729506D01*
X103964059Y-59754408D01*
X103965657Y-59753828D01*
X104025369Y-59918331D01*
X104026928Y-59920708D01*
X104026929Y-59920711D01*
X104053860Y-59961787D01*
X104121323Y-60064685D01*
X104248372Y-60185040D01*
X104250834Y-60186470D01*
X104397237Y-60271508D01*
X104397242Y-60271510D01*
X104399702Y-60272939D01*
X104402431Y-60273765D01*
X104402432Y-60273766D01*
X104564468Y-60322842D01*
X104564471Y-60322842D01*
X104567193Y-60323667D01*
X104654528Y-60329085D01*
X104739022Y-60334327D01*
X104739024Y-60334327D01*
X104741862Y-60334503D01*
X104914340Y-60304866D01*
X104916960Y-60303751D01*
X104916964Y-60303750D01*
X105072750Y-60237462D01*
X105072749Y-60237462D01*
X105075373Y-60236346D01*
X105216324Y-60132617D01*
X105250840Y-60091990D01*
X105327791Y-60001412D01*
X105329632Y-59999245D01*
X105409219Y-59843384D01*
X105431133Y-59753828D01*
X105450297Y-59675513D01*
X105450298Y-59675507D01*
X105450815Y-59673394D01*
X105451500Y-59662352D01*
X105451500Y-58436178D01*
X105436343Y-58306172D01*
X105376631Y-58141669D01*
X105280677Y-57995315D01*
X105153628Y-57874960D01*
X105144706Y-57869778D01*
X105004763Y-57788492D01*
X105004758Y-57788490D01*
X105002298Y-57787061D01*
X104999568Y-57786234D01*
X104992504Y-57784095D01*
X104967083Y-57776396D01*
X104938084Y-57752617D01*
X104934392Y-57715296D01*
X104958171Y-57686296D01*
X104981288Y-57680500D01*
X105206233Y-57680500D01*
X105240881Y-57694852D01*
X106046029Y-58500000D01*
X106060381Y-58534648D01*
X106059083Y-58545851D01*
X106055913Y-58559350D01*
X106055233Y-58562245D01*
X106055150Y-58564654D01*
X106055150Y-58564656D01*
X106053673Y-58607677D01*
X106053365Y-58611731D01*
X106049435Y-58645071D01*
X106048619Y-58649898D01*
X106043774Y-58671820D01*
X106042335Y-58676975D01*
X106036856Y-58693137D01*
X106035002Y-58697804D01*
X106027286Y-58714656D01*
X106025571Y-58718047D01*
X106012917Y-58740832D01*
X106011911Y-58742560D01*
X105992557Y-58774258D01*
X105968588Y-58813205D01*
X105967213Y-58815471D01*
X105967051Y-58815742D01*
X105965585Y-58818234D01*
X105940092Y-58862275D01*
X105937796Y-58866349D01*
X105937532Y-58866830D01*
X105935194Y-58871213D01*
X105912368Y-58915295D01*
X105895676Y-58959210D01*
X105895329Y-58960577D01*
X105894909Y-58961907D01*
X105894736Y-58961852D01*
X105892514Y-58968072D01*
X105877447Y-59000163D01*
X105872357Y-59032855D01*
X105855927Y-59138377D01*
X105855927Y-59138381D01*
X105855391Y-59141823D01*
X105855843Y-59145280D01*
X105855843Y-59145283D01*
X105864660Y-59212705D01*
X105873980Y-59283979D01*
X105931720Y-59415203D01*
X106023970Y-59524948D01*
X106143313Y-59604390D01*
X106146645Y-59605431D01*
X106167864Y-59612060D01*
X106280157Y-59647142D01*
X106283647Y-59647206D01*
X106303558Y-59647571D01*
X106423499Y-59649770D01*
X106561817Y-59612060D01*
X106564788Y-59610236D01*
X106564790Y-59610235D01*
X106681018Y-59538871D01*
X106681021Y-59538869D01*
X106683991Y-59537045D01*
X106693188Y-59526885D01*
X106777855Y-59433345D01*
X106777856Y-59433344D01*
X106780200Y-59430754D01*
X106787735Y-59415203D01*
X106841189Y-59304872D01*
X106842710Y-59301733D01*
X106845160Y-59287174D01*
X106866183Y-59162216D01*
X106866183Y-59162213D01*
X106866496Y-59160354D01*
X106866647Y-59148000D01*
X106846323Y-59006082D01*
X106837268Y-58986166D01*
X106819117Y-58946242D01*
X106816651Y-58939573D01*
X106810299Y-58917604D01*
X106810299Y-58917603D01*
X106809631Y-58915294D01*
X106786804Y-58871211D01*
X106784467Y-58866830D01*
X106784203Y-58866349D01*
X106781907Y-58862275D01*
X106756414Y-58818234D01*
X106754948Y-58815742D01*
X106754786Y-58815471D01*
X106753411Y-58813205D01*
X106729442Y-58774258D01*
X106710088Y-58742560D01*
X106709082Y-58740832D01*
X106696428Y-58718047D01*
X106694713Y-58714656D01*
X106686997Y-58697804D01*
X106685143Y-58693137D01*
X106679664Y-58676975D01*
X106678225Y-58671820D01*
X106673380Y-58649898D01*
X106672564Y-58645071D01*
X106668634Y-58611731D01*
X106668326Y-58607676D01*
X106666767Y-58562249D01*
X106662704Y-58544257D01*
X106661500Y-58533463D01*
X106661500Y-58445629D01*
X106662001Y-58438808D01*
X106663426Y-58434658D01*
X106661534Y-58384264D01*
X106661500Y-58382427D01*
X106661500Y-58362052D01*
X106661087Y-58359832D01*
X106660948Y-58358331D01*
X106660363Y-58353076D01*
X106659396Y-58327311D01*
X106659396Y-58327309D01*
X106659226Y-58322792D01*
X106657442Y-58318639D01*
X106657441Y-58318636D01*
X106652487Y-58307106D01*
X106649336Y-58296736D01*
X106647037Y-58284392D01*
X106647037Y-58284391D01*
X106646209Y-58279947D01*
X106643837Y-58276098D01*
X106643835Y-58276094D01*
X106630309Y-58254151D01*
X106627000Y-58247783D01*
X106616399Y-58223109D01*
X106616398Y-58223108D01*
X106615036Y-58219937D01*
X106611023Y-58215051D01*
X106602522Y-58206550D01*
X106595458Y-58197614D01*
X106589842Y-58188504D01*
X106587468Y-58184652D01*
X106561538Y-58164935D01*
X106556550Y-58160579D01*
X105602821Y-57206850D01*
X105598352Y-57201673D01*
X105596425Y-57197731D01*
X105559459Y-57163440D01*
X105558135Y-57162164D01*
X105543723Y-57147752D01*
X105541866Y-57146478D01*
X105540729Y-57145533D01*
X105536572Y-57142209D01*
X105517668Y-57124673D01*
X105514354Y-57121599D01*
X105510159Y-57119925D01*
X105510152Y-57119921D01*
X105498491Y-57115269D01*
X105488931Y-57110165D01*
X105479207Y-57103494D01*
X105474854Y-57100508D01*
X105470452Y-57099463D01*
X105470451Y-57099463D01*
X105461163Y-57097259D01*
X105445369Y-57093511D01*
X105438527Y-57091347D01*
X105413597Y-57081401D01*
X105413595Y-57081401D01*
X105410378Y-57080117D01*
X105406933Y-57079779D01*
X105406932Y-57079779D01*
X105405271Y-57079616D01*
X105405265Y-57079616D01*
X105404085Y-57079500D01*
X105392064Y-57079500D01*
X105380750Y-57078176D01*
X105370338Y-57075705D01*
X105370337Y-57075705D01*
X105365934Y-57074660D01*
X105340099Y-57078176D01*
X105333662Y-57079052D01*
X105327054Y-57079500D01*
X104750027Y-57079500D01*
X104715379Y-57065148D01*
X104701027Y-57030500D01*
X104701706Y-57022370D01*
X104723183Y-56894716D01*
X104723183Y-56894713D01*
X104723496Y-56892854D01*
X104723647Y-56880500D01*
X104719370Y-56850637D01*
X104728665Y-56814304D01*
X104754985Y-56796415D01*
X104838817Y-56773560D01*
X104841788Y-56771736D01*
X104841790Y-56771735D01*
X104958018Y-56700371D01*
X104958021Y-56700369D01*
X104960991Y-56698545D01*
X104999043Y-56656506D01*
X105054855Y-56594845D01*
X105054856Y-56594844D01*
X105057200Y-56592254D01*
X105119710Y-56463233D01*
X105125386Y-56429500D01*
X105143183Y-56323716D01*
X105143183Y-56323713D01*
X105143496Y-56321854D01*
X105143552Y-56317277D01*
X105143624Y-56311402D01*
X105143624Y-56311399D01*
X105143647Y-56309500D01*
X105123323Y-56167582D01*
X105063984Y-56037072D01*
X104995094Y-55957121D01*
X104972680Y-55931109D01*
X104970400Y-55928463D01*
X104850095Y-55850485D01*
X104712739Y-55809407D01*
X104641681Y-55808973D01*
X104572868Y-55808552D01*
X104572866Y-55808552D01*
X104569376Y-55808531D01*
X104566021Y-55809490D01*
X104566020Y-55809490D01*
X104484492Y-55832791D01*
X104431529Y-55847928D01*
X104428578Y-55849790D01*
X104326524Y-55914181D01*
X104310280Y-55924430D01*
X104309377Y-55925452D01*
X104274443Y-55954929D01*
X104271888Y-55957121D01*
X104271708Y-55957278D01*
X104270072Y-55958721D01*
X104269990Y-55958794D01*
X104233354Y-55991440D01*
X104233219Y-55991560D01*
X104203076Y-56018467D01*
X104201818Y-56019552D01*
X104180434Y-56037375D01*
X104177582Y-56039580D01*
X104164318Y-56049071D01*
X104159778Y-56051955D01*
X104152005Y-56056314D01*
X104146194Y-56059088D01*
X104138554Y-56062134D01*
X104132392Y-56064128D01*
X104127564Y-56065345D01*
X104118036Y-56067746D01*
X104112447Y-56068814D01*
X104106885Y-56069545D01*
X104070662Y-56059831D01*
X104051918Y-56027348D01*
X104051500Y-56020963D01*
X104051500Y-55710252D01*
X104039867Y-55651769D01*
X104037597Y-55648372D01*
X104037597Y-55611628D01*
X104039867Y-55608231D01*
X104051500Y-55549748D01*
X104051500Y-55312455D01*
X104065852Y-55277807D01*
X104100500Y-55263455D01*
X104134198Y-55276882D01*
X104193033Y-55332617D01*
X104248372Y-55385040D01*
X104250834Y-55386470D01*
X104397237Y-55471508D01*
X104397242Y-55471510D01*
X104399702Y-55472939D01*
X104402431Y-55473765D01*
X104402432Y-55473766D01*
X104564468Y-55522842D01*
X104564471Y-55522842D01*
X104567193Y-55523667D01*
X104654527Y-55529085D01*
X104739022Y-55534327D01*
X104739024Y-55534327D01*
X104741862Y-55534503D01*
X104914340Y-55504866D01*
X104916960Y-55503751D01*
X104916964Y-55503750D01*
X105072750Y-55437462D01*
X105072749Y-55437462D01*
X105075373Y-55436346D01*
X105216324Y-55332617D01*
X105263675Y-55276882D01*
X105327791Y-55201412D01*
X105329632Y-55199245D01*
X105334843Y-55189041D01*
X105344122Y-55170867D01*
X105409219Y-55043384D01*
X105423474Y-54985128D01*
X105450297Y-54875513D01*
X105450298Y-54875507D01*
X105450815Y-54873394D01*
X105451500Y-54862352D01*
X105451500Y-54029000D01*
X118133754Y-54029000D01*
X118152720Y-54330457D01*
X118209319Y-54627160D01*
X118302659Y-54914430D01*
X118303307Y-54915808D01*
X118303309Y-54915812D01*
X118397350Y-55115659D01*
X118431267Y-55187736D01*
X118432094Y-55189039D01*
X118432095Y-55189041D01*
X118479320Y-55263455D01*
X118593115Y-55442768D01*
X118594098Y-55443956D01*
X118594100Y-55443959D01*
X118646569Y-55507383D01*
X118785651Y-55675504D01*
X118786770Y-55676554D01*
X118786772Y-55676557D01*
X118819784Y-55707557D01*
X119005838Y-55882274D01*
X119156093Y-55991440D01*
X119236348Y-56049748D01*
X119250205Y-56059816D01*
X119251556Y-56060559D01*
X119251558Y-56060560D01*
X119284989Y-56078939D01*
X119514896Y-56205332D01*
X119648590Y-56258265D01*
X119782799Y-56311402D01*
X119795738Y-56316525D01*
X120088302Y-56391642D01*
X120089819Y-56391834D01*
X120089821Y-56391834D01*
X120141680Y-56398385D01*
X120387973Y-56429500D01*
X120690027Y-56429500D01*
X120936320Y-56398385D01*
X120988179Y-56391834D01*
X120988181Y-56391834D01*
X120989698Y-56391642D01*
X121282262Y-56316525D01*
X121295202Y-56311402D01*
X121429410Y-56258265D01*
X121563104Y-56205332D01*
X121793011Y-56078939D01*
X121826442Y-56060560D01*
X121826444Y-56060559D01*
X121827795Y-56059816D01*
X121841653Y-56049748D01*
X121921907Y-55991440D01*
X122072162Y-55882274D01*
X122258216Y-55707557D01*
X122291228Y-55676557D01*
X122291230Y-55676554D01*
X122292349Y-55675504D01*
X122431431Y-55507383D01*
X122483900Y-55443959D01*
X122483902Y-55443956D01*
X122484885Y-55442768D01*
X122598680Y-55263455D01*
X122645905Y-55189041D01*
X122645906Y-55189039D01*
X122646733Y-55187736D01*
X122680650Y-55115659D01*
X122774691Y-54915812D01*
X122774693Y-54915808D01*
X122775341Y-54914430D01*
X122868681Y-54627160D01*
X122925280Y-54330457D01*
X122944246Y-54029000D01*
X122925280Y-53727543D01*
X122868681Y-53430840D01*
X122775341Y-53143570D01*
X122763234Y-53117840D01*
X122647389Y-52871658D01*
X122646733Y-52870264D01*
X122627457Y-52839889D01*
X122485715Y-52616540D01*
X122484885Y-52615232D01*
X122437525Y-52557983D01*
X122351598Y-52454116D01*
X122292349Y-52382496D01*
X122289383Y-52379710D01*
X122106299Y-52207783D01*
X122072162Y-52175726D01*
X121827795Y-51998184D01*
X121563104Y-51852668D01*
X121360559Y-51772475D01*
X121283687Y-51742039D01*
X121283684Y-51742038D01*
X121282262Y-51741475D01*
X120989698Y-51666358D01*
X120988181Y-51666166D01*
X120988179Y-51666166D01*
X120935412Y-51659500D01*
X120690027Y-51628500D01*
X120387973Y-51628500D01*
X120142588Y-51659500D01*
X120089821Y-51666166D01*
X120089819Y-51666166D01*
X120088302Y-51666358D01*
X119795738Y-51741475D01*
X119794316Y-51742038D01*
X119794313Y-51742039D01*
X119717441Y-51772475D01*
X119514896Y-51852668D01*
X119250205Y-51998184D01*
X119005838Y-52175726D01*
X118971701Y-52207783D01*
X118788618Y-52379710D01*
X118785651Y-52382496D01*
X118726402Y-52454116D01*
X118640476Y-52557983D01*
X118593115Y-52615232D01*
X118592285Y-52616540D01*
X118450544Y-52839889D01*
X118431267Y-52870264D01*
X118430611Y-52871658D01*
X118314767Y-53117840D01*
X118302659Y-53143570D01*
X118209319Y-53430840D01*
X118152720Y-53727543D01*
X118133754Y-54029000D01*
X105451500Y-54029000D01*
X105451500Y-53636178D01*
X105436343Y-53506172D01*
X105376631Y-53341669D01*
X105354841Y-53308433D01*
X105323581Y-53260755D01*
X105280677Y-53195315D01*
X105204367Y-53123026D01*
X105155695Y-53076918D01*
X105153628Y-53074960D01*
X105118636Y-53054635D01*
X105004763Y-52988492D01*
X105004758Y-52988490D01*
X105002298Y-52987061D01*
X104999569Y-52986235D01*
X104999568Y-52986234D01*
X104837532Y-52937158D01*
X104837529Y-52937158D01*
X104834807Y-52936333D01*
X104747473Y-52930915D01*
X104662978Y-52925673D01*
X104662976Y-52925673D01*
X104660138Y-52925497D01*
X104487660Y-52955134D01*
X104485040Y-52956249D01*
X104485036Y-52956250D01*
X104392067Y-52995809D01*
X104326627Y-53023654D01*
X104185676Y-53127383D01*
X104183834Y-53129551D01*
X104183832Y-53129553D01*
X104074209Y-53258588D01*
X104072368Y-53260755D01*
X104071076Y-53263284D01*
X104071076Y-53263285D01*
X104009704Y-53383475D01*
X103992781Y-53416616D01*
X103981715Y-53461840D01*
X103971807Y-53502331D01*
X103949631Y-53532575D01*
X103914652Y-53538742D01*
X103873062Y-53530469D01*
X103868295Y-53530000D01*
X103575747Y-53530000D01*
X103568855Y-53532855D01*
X103566000Y-53539747D01*
X103566000Y-54220253D01*
X103568855Y-54227145D01*
X103575747Y-54230000D01*
X103868295Y-54230000D01*
X103873055Y-54229531D01*
X103891942Y-54225775D01*
X103928724Y-54233093D01*
X103949559Y-54264276D01*
X103950500Y-54273834D01*
X103950500Y-54823822D01*
X103965657Y-54953828D01*
X103966629Y-54956505D01*
X103966631Y-54956513D01*
X103972976Y-54973994D01*
X103971308Y-55011460D01*
X103943636Y-55036772D01*
X103917361Y-55038772D01*
X103870748Y-55029500D01*
X103181226Y-55029500D01*
X103170810Y-55028380D01*
X103166999Y-55027551D01*
X103152184Y-55024328D01*
X103149781Y-55024285D01*
X103104286Y-55023471D01*
X103102105Y-55023383D01*
X103059283Y-55020705D01*
X103056492Y-55020451D01*
X103024021Y-55016547D01*
X103020706Y-55016032D01*
X102995788Y-55011288D01*
X102992265Y-55010482D01*
X102970938Y-55004761D01*
X102967667Y-55003759D01*
X102945680Y-54996179D01*
X102943148Y-54995227D01*
X102916757Y-54984456D01*
X102915190Y-54983785D01*
X102902433Y-54978053D01*
X102882005Y-54968874D01*
X102881543Y-54968663D01*
X102840599Y-54949596D01*
X102839888Y-54949267D01*
X102799423Y-54930610D01*
X102798144Y-54930182D01*
X102796904Y-54929691D01*
X102796923Y-54929644D01*
X102796231Y-54929370D01*
X102794095Y-54927985D01*
X102770850Y-54921033D01*
X102769428Y-54920582D01*
X102758143Y-54916809D01*
X102758123Y-54916804D01*
X102756865Y-54916383D01*
X102755557Y-54916100D01*
X102755554Y-54916099D01*
X102753051Y-54915557D01*
X102749386Y-54914614D01*
X102699308Y-54899638D01*
X102656739Y-54886907D01*
X102585681Y-54886473D01*
X102516868Y-54886052D01*
X102516866Y-54886052D01*
X102513376Y-54886031D01*
X102510021Y-54886990D01*
X102510020Y-54886990D01*
X102478677Y-54895948D01*
X102375529Y-54925428D01*
X102372578Y-54927290D01*
X102369393Y-54928715D01*
X102369326Y-54928565D01*
X102365354Y-54930472D01*
X102364298Y-54930724D01*
X102321883Y-54950213D01*
X102321752Y-54950273D01*
X102279844Y-54969379D01*
X102278948Y-54969776D01*
X102245120Y-54984389D01*
X102243312Y-54985128D01*
X102215943Y-54995677D01*
X102213255Y-54996625D01*
X102204477Y-54999434D01*
X102189615Y-55004190D01*
X102186343Y-55005112D01*
X102162617Y-55010921D01*
X102159221Y-55011626D01*
X102131015Y-55016448D01*
X102127960Y-55016871D01*
X102111292Y-55018641D01*
X102091667Y-55020725D01*
X102089153Y-55020927D01*
X102058859Y-55022574D01*
X102042025Y-55023489D01*
X102040133Y-55023555D01*
X101988373Y-55024348D01*
X101986065Y-55024835D01*
X101986063Y-55024835D01*
X101968948Y-55028445D01*
X101958836Y-55029500D01*
X101231252Y-55029500D01*
X101181981Y-55039301D01*
X101145201Y-55031984D01*
X101124365Y-55000801D01*
X101124828Y-54979595D01*
X101150297Y-54875513D01*
X101150298Y-54875507D01*
X101150815Y-54873394D01*
X101151500Y-54862352D01*
X101151500Y-54273834D01*
X101165852Y-54239186D01*
X101200500Y-54224834D01*
X101210058Y-54225775D01*
X101228945Y-54229531D01*
X101233705Y-54230000D01*
X101526253Y-54230000D01*
X101533145Y-54227145D01*
X101536000Y-54220253D01*
X101836000Y-54220253D01*
X101838855Y-54227145D01*
X101845747Y-54230000D01*
X102138295Y-54230000D01*
X102143052Y-54229532D01*
X102194303Y-54219337D01*
X102203049Y-54215715D01*
X102261181Y-54176872D01*
X102267872Y-54170181D01*
X102306715Y-54112049D01*
X102310337Y-54103303D01*
X102320532Y-54052052D01*
X102321000Y-54047295D01*
X102781000Y-54047295D01*
X102781468Y-54052052D01*
X102791663Y-54103303D01*
X102795285Y-54112049D01*
X102834128Y-54170181D01*
X102840819Y-54176872D01*
X102898951Y-54215715D01*
X102907697Y-54219337D01*
X102958948Y-54229532D01*
X102963705Y-54230000D01*
X103256253Y-54230000D01*
X103263145Y-54227145D01*
X103266000Y-54220253D01*
X103266000Y-54039747D01*
X103263145Y-54032855D01*
X103256253Y-54030000D01*
X102790747Y-54030000D01*
X102783855Y-54032855D01*
X102781000Y-54039747D01*
X102781000Y-54047295D01*
X102321000Y-54047295D01*
X102321000Y-54039747D01*
X102318145Y-54032855D01*
X102311253Y-54030000D01*
X101845747Y-54030000D01*
X101838855Y-54032855D01*
X101836000Y-54039747D01*
X101836000Y-54220253D01*
X101536000Y-54220253D01*
X101536000Y-53720253D01*
X101836000Y-53720253D01*
X101838855Y-53727145D01*
X101845747Y-53730000D01*
X102311253Y-53730000D01*
X102318145Y-53727145D01*
X102321000Y-53720253D01*
X102781000Y-53720253D01*
X102783855Y-53727145D01*
X102790747Y-53730000D01*
X103256253Y-53730000D01*
X103263145Y-53727145D01*
X103266000Y-53720253D01*
X103266000Y-53539747D01*
X103263145Y-53532855D01*
X103256253Y-53530000D01*
X102963705Y-53530000D01*
X102958948Y-53530468D01*
X102907697Y-53540663D01*
X102898951Y-53544285D01*
X102840819Y-53583128D01*
X102834128Y-53589819D01*
X102795285Y-53647951D01*
X102791663Y-53656697D01*
X102781468Y-53707948D01*
X102781000Y-53712705D01*
X102781000Y-53720253D01*
X102321000Y-53720253D01*
X102321000Y-53712705D01*
X102320532Y-53707948D01*
X102310337Y-53656697D01*
X102306715Y-53647951D01*
X102267872Y-53589819D01*
X102261181Y-53583128D01*
X102203049Y-53544285D01*
X102194303Y-53540663D01*
X102143052Y-53530468D01*
X102138295Y-53530000D01*
X101845747Y-53530000D01*
X101838855Y-53532855D01*
X101836000Y-53539747D01*
X101836000Y-53720253D01*
X101536000Y-53720253D01*
X101536000Y-53539747D01*
X101533145Y-53532855D01*
X101526253Y-53530000D01*
X101233705Y-53530000D01*
X101228938Y-53530469D01*
X101192033Y-53537810D01*
X101155251Y-53530494D01*
X101137941Y-53505592D01*
X101136343Y-53506172D01*
X101077601Y-53344341D01*
X101077601Y-53344340D01*
X101076631Y-53341669D01*
X101054841Y-53308433D01*
X101023581Y-53260755D01*
X100980677Y-53195315D01*
X100904367Y-53123026D01*
X100855695Y-53076918D01*
X100853628Y-53074960D01*
X100818636Y-53054635D01*
X100704763Y-52988492D01*
X100704758Y-52988490D01*
X100702298Y-52987061D01*
X100699569Y-52986235D01*
X100699568Y-52986234D01*
X100677800Y-52979641D01*
X102085344Y-52979641D01*
X102087561Y-52989440D01*
X102088349Y-52993854D01*
X102092126Y-53022538D01*
X102102353Y-53100215D01*
X102148754Y-53212237D01*
X102222567Y-53308433D01*
X102318763Y-53382246D01*
X102430785Y-53428647D01*
X102535192Y-53442393D01*
X102539853Y-53443238D01*
X102544258Y-53444259D01*
X102547580Y-53445029D01*
X102547582Y-53445029D01*
X102550282Y-53445655D01*
X102551000Y-53445656D01*
X102553749Y-53445029D01*
X102561020Y-53443371D01*
X102565519Y-53442563D01*
X102593757Y-53438845D01*
X102671215Y-53428647D01*
X102783237Y-53382246D01*
X102879433Y-53308433D01*
X102953246Y-53212237D01*
X102999647Y-53100215D01*
X103013393Y-52995808D01*
X103014239Y-52991141D01*
X103014634Y-52989440D01*
X103015377Y-52986234D01*
X103016029Y-52983420D01*
X103016029Y-52983418D01*
X103016655Y-52980718D01*
X103016656Y-52980000D01*
X103012727Y-52962776D01*
X103011500Y-52951878D01*
X103011500Y-52938393D01*
X103012766Y-52927329D01*
X103014439Y-52920111D01*
X103014439Y-52920105D01*
X103015266Y-52916539D01*
X103011622Y-52865072D01*
X103011500Y-52861611D01*
X103011500Y-52808560D01*
X103012766Y-52797495D01*
X103016029Y-52783420D01*
X103016029Y-52783417D01*
X103016655Y-52780718D01*
X103016656Y-52780000D01*
X103014371Y-52769980D01*
X103013563Y-52765481D01*
X103000066Y-52662969D01*
X102999647Y-52659785D01*
X102953246Y-52547763D01*
X102879433Y-52451567D01*
X102783237Y-52377754D01*
X102671215Y-52331353D01*
X102566808Y-52317607D01*
X102562147Y-52316762D01*
X102557742Y-52315741D01*
X102554420Y-52314971D01*
X102554418Y-52314971D01*
X102551718Y-52314345D01*
X102551000Y-52314344D01*
X102548299Y-52314960D01*
X102540980Y-52316629D01*
X102536481Y-52317437D01*
X102535190Y-52317607D01*
X102430785Y-52331353D01*
X102318763Y-52377754D01*
X102222567Y-52451567D01*
X102148754Y-52547763D01*
X102102353Y-52659785D01*
X102101934Y-52662969D01*
X102088525Y-52764820D01*
X102087697Y-52769407D01*
X102086580Y-52774262D01*
X102086580Y-52774266D01*
X102085344Y-52779641D01*
X102089292Y-52797087D01*
X102090500Y-52807902D01*
X102090500Y-52821607D01*
X102089234Y-52832671D01*
X102087561Y-52839889D01*
X102087561Y-52839895D01*
X102086734Y-52843461D01*
X102090332Y-52894285D01*
X102090378Y-52894928D01*
X102090500Y-52898389D01*
X102090500Y-52951657D01*
X102089254Y-52962637D01*
X102085344Y-52979641D01*
X100677800Y-52979641D01*
X100537532Y-52937158D01*
X100537529Y-52937158D01*
X100534807Y-52936333D01*
X100447473Y-52930915D01*
X100362978Y-52925673D01*
X100362976Y-52925673D01*
X100360138Y-52925497D01*
X100187660Y-52955134D01*
X100185040Y-52956249D01*
X100185036Y-52956250D01*
X100092067Y-52995809D01*
X100026627Y-53023654D01*
X99885676Y-53127383D01*
X99883834Y-53129551D01*
X99883832Y-53129553D01*
X99774209Y-53258588D01*
X99772368Y-53260755D01*
X99692781Y-53416616D01*
X99692104Y-53419383D01*
X99651703Y-53584487D01*
X99651702Y-53584493D01*
X99651185Y-53586606D01*
X99650500Y-53597648D01*
X99650500Y-54823822D01*
X99665657Y-54953828D01*
X99725369Y-55118331D01*
X99821323Y-55264685D01*
X99948372Y-55385040D01*
X99950834Y-55386470D01*
X100097237Y-55471508D01*
X100097242Y-55471510D01*
X100099702Y-55472939D01*
X100102428Y-55473765D01*
X100102429Y-55473765D01*
X100109496Y-55475905D01*
X100134917Y-55483604D01*
X100163916Y-55507383D01*
X100167608Y-55544704D01*
X100143829Y-55573704D01*
X100120712Y-55579500D01*
X100005767Y-55579500D01*
X99971119Y-55565148D01*
X99163852Y-54757881D01*
X99149500Y-54723233D01*
X99149500Y-54667859D01*
X99150797Y-54656658D01*
X99154218Y-54642090D01*
X99154219Y-54642086D01*
X99154767Y-54639750D01*
X99156326Y-54594320D01*
X99156634Y-54590268D01*
X99160564Y-54556928D01*
X99161380Y-54552101D01*
X99166226Y-54530174D01*
X99167664Y-54525024D01*
X99173143Y-54508862D01*
X99174997Y-54504195D01*
X99182713Y-54487343D01*
X99184429Y-54483950D01*
X99197090Y-54461154D01*
X99198105Y-54459412D01*
X99217304Y-54427967D01*
X99217394Y-54427819D01*
X99241417Y-54388784D01*
X99241446Y-54388736D01*
X99242678Y-54386707D01*
X99242753Y-54386582D01*
X99242762Y-54386566D01*
X99242835Y-54386445D01*
X99244414Y-54383765D01*
X99269907Y-54339724D01*
X99272203Y-54335650D01*
X99272467Y-54335169D01*
X99274804Y-54330788D01*
X99274976Y-54330457D01*
X99296987Y-54287949D01*
X99296988Y-54287947D01*
X99297630Y-54286707D01*
X99306948Y-54262194D01*
X99313823Y-54244105D01*
X99314323Y-54242790D01*
X99314421Y-54242404D01*
X99316755Y-54236537D01*
X99329187Y-54210876D01*
X99330710Y-54207733D01*
X99354496Y-54066354D01*
X99354647Y-54054000D01*
X99334323Y-53912082D01*
X99274984Y-53781572D01*
X99268261Y-53773769D01*
X99183680Y-53675609D01*
X99181400Y-53672963D01*
X99061095Y-53594985D01*
X98923739Y-53553907D01*
X98852681Y-53553473D01*
X98783868Y-53553052D01*
X98783866Y-53553052D01*
X98780376Y-53553031D01*
X98777021Y-53553990D01*
X98777020Y-53553990D01*
X98645884Y-53591469D01*
X98642529Y-53592428D01*
X98521280Y-53668930D01*
X98426377Y-53776388D01*
X98365447Y-53906163D01*
X98356222Y-53965415D01*
X98343927Y-54044377D01*
X98343927Y-54044381D01*
X98343391Y-54047823D01*
X86912480Y-54047823D01*
X86894280Y-53758543D01*
X86837681Y-53461840D01*
X86744341Y-53174570D01*
X86730438Y-53145023D01*
X86616389Y-52902658D01*
X86615733Y-52901264D01*
X86613909Y-52898389D01*
X86454715Y-52647540D01*
X86453885Y-52646232D01*
X86261349Y-52413496D01*
X86228338Y-52382496D01*
X86158908Y-52317297D01*
X86041162Y-52206726D01*
X85846718Y-52065455D01*
X85798045Y-52030092D01*
X85798043Y-52030091D01*
X85796795Y-52029184D01*
X85532104Y-51883668D01*
X85251262Y-51772475D01*
X84958698Y-51697358D01*
X84957181Y-51697166D01*
X84957179Y-51697166D01*
X84905320Y-51690615D01*
X84659027Y-51659500D01*
X84356973Y-51659500D01*
X84110680Y-51690615D01*
X84058821Y-51697166D01*
X84058819Y-51697166D01*
X84057302Y-51697358D01*
X83764738Y-51772475D01*
X83483896Y-51883668D01*
X83219205Y-52029184D01*
X83217957Y-52030091D01*
X83217955Y-52030092D01*
X83169282Y-52065455D01*
X82974838Y-52206726D01*
X82857092Y-52317297D01*
X82787663Y-52382496D01*
X82754651Y-52413496D01*
X82562115Y-52646232D01*
X82561285Y-52647540D01*
X82402092Y-52898389D01*
X82400267Y-52901264D01*
X82399611Y-52902658D01*
X82285563Y-53145023D01*
X82271659Y-53174570D01*
X82178319Y-53461840D01*
X82121720Y-53758543D01*
X82102754Y-54060000D01*
X81665290Y-54060000D01*
X81667421Y-54050737D01*
X81667421Y-54050735D01*
X81668657Y-54045360D01*
X81666027Y-54033736D01*
X81664895Y-54020172D01*
X81670772Y-53915539D01*
X81678444Y-53778928D01*
X81680950Y-53734305D01*
X81681565Y-53728845D01*
X81733230Y-53424764D01*
X81734453Y-53419407D01*
X81813501Y-53145023D01*
X81819839Y-53123024D01*
X81821653Y-53117840D01*
X81827724Y-53103184D01*
X81939686Y-52832883D01*
X81942068Y-52827936D01*
X81953141Y-52807902D01*
X82016667Y-52692960D01*
X82091266Y-52557984D01*
X82094184Y-52553339D01*
X82272677Y-52301776D01*
X82276097Y-52297489D01*
X82481622Y-52067507D01*
X82485507Y-52063622D01*
X82715489Y-51858097D01*
X82719776Y-51854677D01*
X82971339Y-51676184D01*
X82975984Y-51673266D01*
X83110960Y-51598667D01*
X83245940Y-51524066D01*
X83250885Y-51521685D01*
X83535843Y-51403652D01*
X83541026Y-51401838D01*
X83837407Y-51316453D01*
X83842764Y-51315230D01*
X84146845Y-51263565D01*
X84152305Y-51262950D01*
X84392876Y-51249439D01*
X84437747Y-51246919D01*
X84451475Y-51248089D01*
X84462642Y-51250657D01*
X84480091Y-51246709D01*
X84490903Y-51245501D01*
X120434657Y-51245501D01*
X120445637Y-51246747D01*
G37*
%TD.AperFunction*%
%TD*%
M02*
