%TF.GenerationSoftware,KiCad,Pcbnew,(6.0.2)*%
%TF.CreationDate,2022-03-01T17:48:06+01:00*%
%TF.ProjectId,daughterboard,64617567-6874-4657-9262-6f6172642e6b,1.0*%
%TF.SameCoordinates,Original*%
%TF.FileFunction,Legend,Bot*%
%TF.FilePolarity,Positive*%
%FSLAX46Y46*%
G04 Gerber Fmt 4.6, Leading zero omitted, Abs format (unit mm)*
G04 Created by KiCad (PCBNEW (6.0.2)) date 2022-03-01 17:48:06*
%MOMM*%
%LPD*%
G01*
G04 APERTURE LIST*
%ADD10C,0.150000*%
%ADD11C,0.200000*%
%ADD12C,4.400000*%
%ADD13C,0.520000*%
%ADD14R,0.870000X0.300000*%
%ADD15O,1.100000X2.200000*%
G04 APERTURE END LIST*
D10*
%TO.C,J1*%
X102870333Y-54039380D02*
X102870333Y-54753666D01*
X102917952Y-54896523D01*
X103013190Y-54991761D01*
X103156047Y-55039380D01*
X103251285Y-55039380D01*
X101870333Y-55039380D02*
X102441761Y-55039380D01*
X102156047Y-55039380D02*
X102156047Y-54039380D01*
X102251285Y-54182238D01*
X102346523Y-54277476D01*
X102441761Y-54325095D01*
D11*
X104131000Y-60380000D02*
X104131000Y-61100000D01*
X100971000Y-52160000D02*
X100971000Y-52880000D01*
X104131000Y-52880000D02*
X104131000Y-52160000D01*
X100971000Y-61100000D02*
X100971000Y-60380000D01*
X104131000Y-52160000D02*
X100971000Y-52160000D01*
X104131000Y-61100000D02*
X100971000Y-61100000D01*
X103551000Y-61630000D02*
G75*
G03*
X103551000Y-61630000I-100000J0D01*
G01*
%TD*%
%LPC*%
D12*
%TO.C,H2*%
X84508000Y-56560000D03*
%TD*%
%TO.C,H1*%
X120539000Y-56529000D03*
%TD*%
D13*
%TO.C,J1*%
X102551000Y-52880000D03*
X102551000Y-60380000D03*
D14*
X103416000Y-59380000D03*
X103416000Y-57880000D03*
X103416000Y-57380000D03*
X103416000Y-56880000D03*
X103416000Y-56380000D03*
X103416000Y-55880000D03*
X103416000Y-55380000D03*
X103416000Y-53880000D03*
X101686000Y-53880000D03*
X101686000Y-55380000D03*
X101686000Y-55880000D03*
X101686000Y-56380000D03*
X101686000Y-56880000D03*
X101686000Y-57380000D03*
X101686000Y-57880000D03*
X101686000Y-59380000D03*
D15*
X104701000Y-59030000D03*
X100401000Y-59030000D03*
X104701000Y-54230000D03*
X100401000Y-54230000D03*
%TD*%
M02*
