M48
; DRILL file {KiCad (7.0.0)} date Fri Oct  6 02:17:20 2023
; FORMAT={-:-/ absolute / inch / decimal}
; #@! TF.CreationDate,2023-10-06T02:17:20-07:00
; #@! TF.GenerationSoftware,Kicad,Pcbnew,(7.0.0)
; #@! TF.FileFunction,Plated,1,2,PTH
FMAT,2
INCH
; #@! TA.AperFunction,Plated,PTH,ViaDrill
T1C0.0118
; #@! TA.AperFunction,Plated,PTH,ComponentDrill
T2C0.0276
; #@! TA.AperFunction,Plated,PTH,ComponentDrill
T3C0.0866
%
G90
G05
T1
X3.7066Y-2.1245
X3.8306Y-2.1633
X3.8722Y-2.3583
X3.8917Y-2.1281
X4.0374Y-2.2535
X4.0374Y-2.2858
X4.0377Y-2.1222
X4.0381Y-2.3379
X4.0387Y-2.1806
X4.1031Y-2.2394
X4.1196Y-2.2169
X4.1365Y-2.4008
X4.1493Y-2.1867
X4.1874Y-2.3287
X4.2308Y-2.2336
T2
X3.9528Y-2.135
X3.9528Y-2.324
X4.1221Y-2.135
X4.1221Y-2.324
T3
X3.3271Y-2.1283
X4.7456Y-2.1271
T0
M30
