%TF.GenerationSoftware,KiCad,Pcbnew,(6.0.9)*%
%TF.CreationDate,2022-12-14T22:58:47+01:00*%
%TF.ProjectId,daughterboard,64617567-6874-4657-9262-6f6172642e6b,1.0*%
%TF.SameCoordinates,Original*%
%TF.FileFunction,Copper,L1,Top*%
%TF.FilePolarity,Positive*%
%FSLAX46Y46*%
G04 Gerber Fmt 4.6, Leading zero omitted, Abs format (unit mm)*
G04 Created by KiCad (PCBNEW (6.0.9)) date 2022-12-14 22:58:47*
%MOMM*%
%LPD*%
G01*
G04 APERTURE LIST*
G04 Aperture macros list*
%AMRoundRect*
0 Rectangle with rounded corners*
0 $1 Rounding radius*
0 $2 $3 $4 $5 $6 $7 $8 $9 X,Y pos of 4 corners*
0 Add a 4 corners polygon primitive as box body*
4,1,4,$2,$3,$4,$5,$6,$7,$8,$9,$2,$3,0*
0 Add four circle primitives for the rounded corners*
1,1,$1+$1,$2,$3*
1,1,$1+$1,$4,$5*
1,1,$1+$1,$6,$7*
1,1,$1+$1,$8,$9*
0 Add four rect primitives between the rounded corners*
20,1,$1+$1,$2,$3,$4,$5,0*
20,1,$1+$1,$4,$5,$6,$7,0*
20,1,$1+$1,$6,$7,$8,$9,0*
20,1,$1+$1,$8,$9,$2,$3,0*%
G04 Aperture macros list end*
%TA.AperFunction,SMDPad,CuDef*%
%ADD10R,1.200000X1.800000*%
%TD*%
%TA.AperFunction,SMDPad,CuDef*%
%ADD11R,0.600000X1.550000*%
%TD*%
%TA.AperFunction,SMDPad,CuDef*%
%ADD12RoundRect,0.225000X0.250000X-0.225000X0.250000X0.225000X-0.250000X0.225000X-0.250000X-0.225000X0*%
%TD*%
%TA.AperFunction,SMDPad,CuDef*%
%ADD13R,1.100000X1.100000*%
%TD*%
%TA.AperFunction,SMDPad,CuDef*%
%ADD14RoundRect,0.170000X0.330000X-0.255000X0.330000X0.255000X-0.330000X0.255000X-0.330000X-0.255000X0*%
%TD*%
%TA.AperFunction,SMDPad,CuDef*%
%ADD15RoundRect,0.150000X0.150000X-0.512500X0.150000X0.512500X-0.150000X0.512500X-0.150000X-0.512500X0*%
%TD*%
%TA.AperFunction,SMDPad,CuDef*%
%ADD16RoundRect,0.170000X0.255000X0.330000X-0.255000X0.330000X-0.255000X-0.330000X0.255000X-0.330000X0*%
%TD*%
%TA.AperFunction,SMDPad,CuDef*%
%ADD17RoundRect,0.200000X-0.275000X0.200000X-0.275000X-0.200000X0.275000X-0.200000X0.275000X0.200000X0*%
%TD*%
%TA.AperFunction,SMDPad,CuDef*%
%ADD18RoundRect,0.243750X0.243750X0.456250X-0.243750X0.456250X-0.243750X-0.456250X0.243750X-0.456250X0*%
%TD*%
%TA.AperFunction,ComponentPad*%
%ADD19C,4.400000*%
%TD*%
%TA.AperFunction,SMDPad,CuDef*%
%ADD20RoundRect,0.225000X-0.250000X0.225000X-0.250000X-0.225000X0.250000X-0.225000X0.250000X0.225000X0*%
%TD*%
%TA.AperFunction,SMDPad,CuDef*%
%ADD21RoundRect,0.200000X0.275000X-0.200000X0.275000X0.200000X-0.275000X0.200000X-0.275000X-0.200000X0*%
%TD*%
%TA.AperFunction,ComponentPad*%
%ADD22C,1.100000*%
%TD*%
%TA.AperFunction,ViaPad*%
%ADD23C,0.600000*%
%TD*%
%TA.AperFunction,Conductor*%
%ADD24C,0.200000*%
%TD*%
%TA.AperFunction,Conductor*%
%ADD25C,0.300000*%
%TD*%
%TA.AperFunction,Conductor*%
%ADD26C,0.381000*%
%TD*%
%TA.AperFunction,Conductor*%
%ADD27C,0.500000*%
%TD*%
G04 APERTURE END LIST*
D10*
%TO.P,J2,*%
%TO.N,*%
X108439000Y-60210000D03*
X114039000Y-60210000D03*
D11*
%TO.P,J2,1,Pin_1*%
%TO.N,VCC*%
X109739000Y-56335000D03*
%TO.P,J2,2,Pin_2*%
%TO.N,/DC+*%
X110739000Y-56335000D03*
%TO.P,J2,3,Pin_3*%
%TO.N,/DC-*%
X111739000Y-56335000D03*
%TO.P,J2,4,Pin_4*%
%TO.N,GND*%
X112739000Y-56335000D03*
%TD*%
D12*
%TO.P,C2,1*%
%TO.N,VCC*%
X95357000Y-54986000D03*
%TO.P,C2,2*%
%TO.N,GND*%
X95357000Y-53436000D03*
%TD*%
D13*
%TO.P,D1,1,A1*%
%TO.N,GND*%
X98354000Y-61302000D03*
%TO.P,D1,2,A2*%
%TO.N,Net-(C1-Pad1)*%
X98354000Y-58502000D03*
%TD*%
D14*
%TO.P,FB1,1*%
%TO.N,Net-(C1-Pad1)*%
X93869000Y-56603000D03*
%TO.P,FB1,2*%
%TO.N,VCC*%
X93869000Y-55003000D03*
%TD*%
D15*
%TO.P,U1,1,IO1*%
%TO.N,/DUSB-*%
X106539000Y-55571500D03*
%TO.P,U1,2,GND*%
%TO.N,GND*%
X107489000Y-55571500D03*
%TO.P,U1,3,IO2*%
%TO.N,/DUSB+*%
X108439000Y-55571500D03*
%TO.P,U1,4,IO2*%
%TO.N,/D+*%
X108439000Y-53296500D03*
%TO.P,U1,5,VBUS*%
%TO.N,VCC*%
X107489000Y-53296500D03*
%TO.P,U1,6,IO1*%
%TO.N,/D-*%
X106539000Y-53296500D03*
%TD*%
D16*
%TO.P,FB2,1*%
%TO.N,Net-(FB2-Pad1)*%
X103581000Y-62296000D03*
%TO.P,FB2,2*%
%TO.N,GND*%
X101981000Y-62296000D03*
%TD*%
D17*
%TO.P,R1,1*%
%TO.N,Net-(J1-PadA5)*%
X106350000Y-58370000D03*
%TO.P,R1,2*%
%TO.N,GND*%
X106350000Y-60020000D03*
%TD*%
D18*
%TO.P,F1,1*%
%TO.N,Net-(F1-Pad1)*%
X98806500Y-56611000D03*
%TO.P,F1,2*%
%TO.N,Net-(C1-Pad1)*%
X96931500Y-56611000D03*
%TD*%
D19*
%TO.P,H2,1,1*%
%TO.N,unconnected-(H2-Pad1)*%
X84508000Y-54060000D03*
%TD*%
D17*
%TO.P,R3,1*%
%TO.N,/D-*%
X112002000Y-53005000D03*
%TO.P,R3,2*%
%TO.N,/DC-*%
X112002000Y-54655000D03*
%TD*%
%TO.P,R4,1*%
%TO.N,/D+*%
X110400000Y-53005000D03*
%TO.P,R4,2*%
%TO.N,/DC+*%
X110400000Y-54655000D03*
%TD*%
D20*
%TO.P,C1,1*%
%TO.N,Net-(C1-Pad1)*%
X95407000Y-56464000D03*
%TO.P,C1,2*%
%TO.N,GND*%
X95407000Y-58014000D03*
%TD*%
D19*
%TO.P,H1,1,1*%
%TO.N,Net-(FB2-Pad1)*%
X120539000Y-54029000D03*
%TD*%
D21*
%TO.P,R2,1*%
%TO.N,Net-(J1-PadB5)*%
X98790000Y-54868000D03*
%TO.P,R2,2*%
%TO.N,GND*%
X98790000Y-53218000D03*
%TD*%
D22*
%TO.P,J1,S1,SHIELD*%
%TO.N,Net-(FB2-Pad1)*%
X104701000Y-59030000D03*
%TO.P,J1,S2*%
%TO.N,N/C*%
X100401000Y-59030000D03*
%TO.P,J1,S3*%
X104701000Y-54230000D03*
%TO.P,J1,S4*%
X100401000Y-54230000D03*
%TD*%
D23*
%TO.N,GND*%
X107470000Y-56390000D03*
X102548000Y-54460000D03*
X102555000Y-58809000D03*
%TO.N,Net-(F1-Pad1)*%
X102582000Y-55387000D03*
X102550000Y-58060000D03*
%TO.N,/DUSB+*%
X104218000Y-56880500D03*
%TO.N,/DUSB-*%
X104638000Y-56309500D03*
X102550000Y-57240000D03*
%TO.N,Net-(J1-PadA5)*%
X106361000Y-59148000D03*
%TO.N,Net-(J1-PadB5)*%
X98849000Y-54054000D03*
%TD*%
D24*
%TO.N,/DUSB-*%
X102550000Y-57240000D02*
X103409011Y-56380989D01*
X103409011Y-56380989D02*
X104566511Y-56380989D01*
X104566511Y-56380989D02*
X104638000Y-56309500D01*
D25*
%TO.N,Net-(F1-Pad1)*%
X102550000Y-58060000D02*
X102417000Y-58060000D01*
X102417000Y-58060000D02*
X101358000Y-57001000D01*
X101358000Y-57001000D02*
X101358000Y-56319000D01*
X101358000Y-56319000D02*
X102290000Y-55387000D01*
X102290000Y-55387000D02*
X102582000Y-55387000D01*
D26*
%TO.N,Net-(C1-Pad1)*%
X96931500Y-56611000D02*
X96931500Y-57079500D01*
X96931500Y-57079500D02*
X98354000Y-58502000D01*
D27*
X96784500Y-56464000D02*
X96931500Y-56611000D01*
X95407000Y-56464000D02*
X96784500Y-56464000D01*
X95268000Y-56603000D02*
X95407000Y-56464000D01*
X93869000Y-56603000D02*
X95268000Y-56603000D01*
%TO.N,GND*%
X107489000Y-55571500D02*
X107489000Y-56371000D01*
X107489000Y-56371000D02*
X107470000Y-56390000D01*
%TO.N,VCC*%
X93886000Y-54986000D02*
X93869000Y-55003000D01*
X107489000Y-53296500D02*
X107489000Y-53958999D01*
X105785000Y-52948000D02*
X104886000Y-52049000D01*
X105785000Y-53915584D02*
X105785000Y-52948000D01*
X106242416Y-54373000D02*
X105785000Y-53915584D01*
X107074999Y-54373000D02*
X106242416Y-54373000D01*
X108773000Y-54373000D02*
X109739000Y-55339000D01*
X95357000Y-54986000D02*
X93886000Y-54986000D01*
X104886000Y-52049000D02*
X104950040Y-51984960D01*
X107489000Y-53296500D02*
X107489000Y-53715427D01*
X109739000Y-55339000D02*
X109739000Y-56335000D01*
X104950040Y-51984960D02*
X98358040Y-51984960D01*
X107074999Y-54373000D02*
X108773000Y-54373000D01*
X107489000Y-53958999D02*
X107074999Y-54373000D01*
X98358040Y-51984960D02*
X95357000Y-54986000D01*
%TO.N,Net-(F1-Pad1)*%
X98840500Y-56645000D02*
X101201000Y-56645000D01*
X98806500Y-56611000D02*
X98840500Y-56645000D01*
%TO.N,Net-(FB2-Pad1)*%
X114790000Y-62278000D02*
X103599000Y-62278000D01*
X120539000Y-56529000D02*
X114790000Y-62278000D01*
X103581000Y-62296000D02*
X103581000Y-60150000D01*
X120539000Y-56529000D02*
X120539000Y-54029000D01*
X103581000Y-60150000D02*
X104701000Y-59030000D01*
X103599000Y-62278000D02*
X103581000Y-62296000D01*
D24*
%TO.N,/DUSB+*%
X108439000Y-56441000D02*
X108439000Y-55571500D01*
X104218000Y-56880500D02*
X104319801Y-56880500D01*
X104319801Y-56880500D02*
X104621301Y-57182000D01*
X107698000Y-57182000D02*
X108439000Y-56441000D01*
X104621301Y-57182000D02*
X107698000Y-57182000D01*
%TO.N,/DUSB-*%
X106539000Y-56456800D02*
X106539000Y-55571500D01*
X106263800Y-56732000D02*
X106539000Y-56456800D01*
X104638000Y-56562301D02*
X104807699Y-56732000D01*
X104638000Y-56309500D02*
X104638000Y-56562301D01*
X104807699Y-56732000D02*
X106263800Y-56732000D01*
%TO.N,Net-(J1-PadA5)*%
X106361000Y-58381000D02*
X106350000Y-58370000D01*
X106361000Y-59148000D02*
X106361000Y-58381000D01*
%TO.N,Net-(J1-PadB5)*%
X98849000Y-54809000D02*
X98790000Y-54868000D01*
X98849000Y-54054000D02*
X98849000Y-54809000D01*
%TO.N,/D+*%
X109555000Y-52860557D02*
X109555000Y-53005000D01*
X108955000Y-53155000D02*
X108955000Y-53843885D01*
X109555000Y-53005000D02*
X109555000Y-53843885D01*
X109255000Y-53155000D02*
X109255000Y-52860557D01*
X109255000Y-53843885D02*
X109255000Y-53155000D01*
X108439000Y-53296500D02*
X108730500Y-53005000D01*
X109399442Y-52716115D02*
X109410558Y-52716115D01*
X110005000Y-53005000D02*
X110400000Y-53005000D01*
X108730500Y-53005000D02*
X108805000Y-53005000D01*
X109855000Y-53843885D02*
X109855000Y-53155000D01*
X109105000Y-53993900D02*
G75*
G02*
X108955000Y-53843885I0J150000D01*
G01*
X109555085Y-52860557D02*
G75*
G03*
X109410558Y-52716115I-144485J-43D01*
G01*
X110005000Y-53005000D02*
G75*
G03*
X109855000Y-53155000I0J-150000D01*
G01*
X108955000Y-53155000D02*
G75*
G03*
X108805000Y-53005000I-150000J0D01*
G01*
X109254985Y-53843885D02*
G75*
G02*
X109105000Y-53993885I-149985J-15D01*
G01*
X109399442Y-52716200D02*
G75*
G03*
X109255000Y-52860557I-42J-144400D01*
G01*
X109705000Y-53993900D02*
G75*
G02*
X109555000Y-53843885I0J150000D01*
G01*
X109854985Y-53843885D02*
G75*
G02*
X109705000Y-53993885I-149985J-15D01*
G01*
%TO.N,/D-*%
X112002000Y-53005000D02*
X111397000Y-52400000D01*
X106539000Y-53061000D02*
X107200000Y-52400000D01*
X111397000Y-52400000D02*
X107200000Y-52400000D01*
X106539000Y-53296500D02*
X106539000Y-53061000D01*
%TO.N,/DC-*%
X111739000Y-56335000D02*
X111739000Y-54918000D01*
X111739000Y-54918000D02*
X112002000Y-54655000D01*
%TO.N,/DC+*%
X110739000Y-56335000D02*
X110739000Y-54917000D01*
X110739000Y-54917000D02*
X110477000Y-54655000D01*
%TD*%
%TA.AperFunction,Conductor*%
%TO.N,Net-(FB2-Pad1)*%
G36*
X103818431Y-61934886D02*
G01*
X103880471Y-61958902D01*
X103899008Y-61965167D01*
X103938526Y-61978522D01*
X103994985Y-61994165D01*
X104021524Y-61999768D01*
X104052088Y-62006220D01*
X104052095Y-62006221D01*
X104052236Y-62006251D01*
X104097183Y-62012906D01*
X104112526Y-62015178D01*
X104112532Y-62015179D01*
X104112669Y-62015199D01*
X104168442Y-62020463D01*
X104178545Y-62021416D01*
X104178549Y-62021416D01*
X104178673Y-62021428D01*
X104178776Y-62021433D01*
X104178783Y-62021434D01*
X104199079Y-62022513D01*
X104252637Y-62025359D01*
X104252658Y-62025360D01*
X104252668Y-62025360D01*
X104296980Y-62026437D01*
X104336949Y-62027409D01*
X104422371Y-62027929D01*
X104430623Y-62031406D01*
X104434000Y-62039629D01*
X104434000Y-62516394D01*
X104430573Y-62524667D01*
X104422395Y-62528094D01*
X104382984Y-62528414D01*
X104340690Y-62528758D01*
X104269037Y-62531027D01*
X104259557Y-62531327D01*
X104259554Y-62531327D01*
X104259464Y-62531330D01*
X104188136Y-62536157D01*
X104188010Y-62536172D01*
X104188009Y-62536172D01*
X104124688Y-62543664D01*
X104124672Y-62543666D01*
X104124515Y-62543685D01*
X104124359Y-62543714D01*
X104124350Y-62543715D01*
X104103234Y-62547594D01*
X104066416Y-62554356D01*
X104066240Y-62554402D01*
X104066230Y-62554404D01*
X104029461Y-62563976D01*
X104011650Y-62568613D01*
X104011474Y-62568673D01*
X104011464Y-62568676D01*
X103958204Y-62586841D01*
X103958196Y-62586844D01*
X103958029Y-62586901D01*
X103903366Y-62609662D01*
X103903251Y-62609717D01*
X103903242Y-62609721D01*
X103866680Y-62627200D01*
X103845472Y-62637339D01*
X103789293Y-62666656D01*
X103780374Y-62667445D01*
X103776133Y-62665050D01*
X103591018Y-62501435D01*
X103591017Y-62501435D01*
X103589275Y-62499895D01*
X103377733Y-62312924D01*
X103373804Y-62304878D01*
X103374575Y-62299925D01*
X103375329Y-62297983D01*
X103750017Y-61906054D01*
X103818431Y-61934886D01*
G37*
%TD.AperFunction*%
%TD*%
%TA.AperFunction,Conductor*%
%TO.N,Net-(FB2-Pad1)*%
G36*
X103827661Y-61454427D02*
G01*
X103831088Y-61462611D01*
X103831711Y-61545042D01*
X103834119Y-61626804D01*
X103838633Y-61698551D01*
X103845659Y-61762550D01*
X103855609Y-61821068D01*
X103868889Y-61876370D01*
X103885910Y-61930722D01*
X103907079Y-61986392D01*
X103932806Y-62045645D01*
X103963500Y-62110747D01*
X103589275Y-62499895D01*
X103587749Y-62501482D01*
X103585974Y-62502303D01*
X103577026Y-62502666D01*
X103572628Y-62499794D01*
X103557400Y-62483959D01*
X103204087Y-62116557D01*
X103200822Y-62108218D01*
X103201937Y-62103458D01*
X103229152Y-62045733D01*
X103229163Y-62045709D01*
X103229193Y-62045645D01*
X103254920Y-61986392D01*
X103259625Y-61974020D01*
X103276029Y-61930881D01*
X103276033Y-61930868D01*
X103276089Y-61930722D01*
X103293110Y-61876370D01*
X103306390Y-61821068D01*
X103316340Y-61762550D01*
X103323366Y-61698551D01*
X103327880Y-61626804D01*
X103330288Y-61545042D01*
X103330912Y-61462611D01*
X103334402Y-61454364D01*
X103342612Y-61451000D01*
X103819388Y-61451000D01*
X103827661Y-61454427D01*
G37*
%TD.AperFunction*%
%TD*%
%TA.AperFunction,Conductor*%
%TO.N,Net-(FB2-Pad1)*%
G36*
X120544828Y-52939819D02*
G01*
X120546813Y-52942338D01*
X122090012Y-55576744D01*
X122091237Y-55585615D01*
X122088096Y-55591025D01*
X121773659Y-55898394D01*
X121773448Y-55898595D01*
X121493921Y-56158550D01*
X121493704Y-56158746D01*
X121244113Y-56379499D01*
X121243934Y-56379655D01*
X121012680Y-56575871D01*
X120788384Y-56762026D01*
X120559693Y-56952574D01*
X120315173Y-57162046D01*
X120043386Y-57404968D01*
X120033698Y-57414045D01*
X119733780Y-57695044D01*
X119732898Y-57695870D01*
X119732854Y-57695913D01*
X119732851Y-57695916D01*
X119380546Y-58041172D01*
X119372239Y-58044515D01*
X119364084Y-58041089D01*
X119026312Y-57703317D01*
X119022885Y-57695044D01*
X119025633Y-57687511D01*
X119255734Y-57414045D01*
X119255736Y-57414042D01*
X119256150Y-57413550D01*
X119394770Y-57146501D01*
X119448019Y-56889856D01*
X119429332Y-56638892D01*
X119352146Y-56388886D01*
X119229897Y-56135117D01*
X119076022Y-55872862D01*
X118904018Y-55597497D01*
X118903920Y-55597338D01*
X118727295Y-55304267D01*
X118726987Y-55303723D01*
X118562985Y-54995447D01*
X118562124Y-54986534D01*
X118564881Y-54981842D01*
X120528285Y-52940142D01*
X120536489Y-52936554D01*
X120544828Y-52939819D01*
G37*
%TD.AperFunction*%
%TD*%
%TA.AperFunction,Conductor*%
%TO.N,Net-(FB2-Pad1)*%
G36*
X104891628Y-58839049D02*
G01*
X104895216Y-58847711D01*
X104881657Y-59541305D01*
X104878069Y-59549509D01*
X104873689Y-59552165D01*
X104785320Y-59581889D01*
X104699923Y-59609548D01*
X104622823Y-59635147D01*
X104622719Y-59635185D01*
X104622708Y-59635189D01*
X104551705Y-59661253D01*
X104551539Y-59661314D01*
X104483590Y-59690679D01*
X104483390Y-59690784D01*
X104416708Y-59725761D01*
X104416703Y-59725764D01*
X104416495Y-59725873D01*
X104347772Y-59769524D01*
X104274941Y-59824263D01*
X104274795Y-59824389D01*
X104195641Y-59892615D01*
X104195630Y-59892625D01*
X104195521Y-59892719D01*
X104195401Y-59892834D01*
X104115300Y-59969597D01*
X104106956Y-59972847D01*
X104098932Y-59969423D01*
X103761577Y-59632068D01*
X103758150Y-59623795D01*
X103761403Y-59615700D01*
X103838165Y-59535598D01*
X103838280Y-59535478D01*
X103838374Y-59535369D01*
X103838384Y-59535358D01*
X103906610Y-59456204D01*
X103906736Y-59456058D01*
X103961475Y-59383227D01*
X104005126Y-59314504D01*
X104040320Y-59247409D01*
X104069685Y-59179460D01*
X104095852Y-59108176D01*
X104121451Y-59031076D01*
X104149110Y-58945679D01*
X104178835Y-58857311D01*
X104184720Y-58850562D01*
X104189695Y-58849343D01*
X104291960Y-58847344D01*
X104883289Y-58835784D01*
X104891628Y-58839049D01*
G37*
%TD.AperFunction*%
%TD*%
%TA.AperFunction,Conductor*%
%TO.N,/DUSB+*%
G36*
X108447433Y-55430269D02*
G01*
X108703187Y-55696222D01*
X108706452Y-55704561D01*
X108705144Y-55709712D01*
X108682318Y-55753793D01*
X108682054Y-55754274D01*
X108656561Y-55798315D01*
X108656404Y-55798577D01*
X108632274Y-55837786D01*
X108609970Y-55874317D01*
X108589981Y-55910306D01*
X108572713Y-55948020D01*
X108558574Y-55989729D01*
X108547971Y-56037700D01*
X108541310Y-56094201D01*
X108541302Y-56094445D01*
X108539388Y-56150201D01*
X108535680Y-56158352D01*
X108527695Y-56161500D01*
X108350305Y-56161500D01*
X108342032Y-56158073D01*
X108338612Y-56150202D01*
X108336697Y-56094446D01*
X108336697Y-56094445D01*
X108336689Y-56094201D01*
X108330028Y-56037700D01*
X108319425Y-55989729D01*
X108305286Y-55948020D01*
X108288018Y-55910306D01*
X108268029Y-55874317D01*
X108245725Y-55837786D01*
X108221595Y-55798577D01*
X108221438Y-55798315D01*
X108195945Y-55754274D01*
X108195681Y-55753793D01*
X108189612Y-55742072D01*
X108172855Y-55709711D01*
X108172094Y-55700790D01*
X108174812Y-55696222D01*
X108430567Y-55430269D01*
X108438771Y-55426681D01*
X108447433Y-55430269D01*
G37*
%TD.AperFunction*%
%TD*%
%TA.AperFunction,Conductor*%
%TO.N,/DUSB+*%
G36*
X104469689Y-56720565D02*
G01*
X104473773Y-56724967D01*
X104494852Y-56764626D01*
X104495537Y-56766176D01*
X104512899Y-56814703D01*
X104513213Y-56815725D01*
X104525863Y-56864818D01*
X104525953Y-56865193D01*
X104536596Y-56913233D01*
X104547975Y-56958308D01*
X104562895Y-56998682D01*
X104584204Y-57032796D01*
X104614746Y-57059093D01*
X104657367Y-57076013D01*
X104674735Y-57077820D01*
X104704426Y-57080909D01*
X104712300Y-57085173D01*
X104714915Y-57092546D01*
X104714915Y-57269813D01*
X104711488Y-57278086D01*
X104702738Y-57281503D01*
X104674312Y-57280344D01*
X104645719Y-57279178D01*
X104644688Y-57279090D01*
X104616775Y-57275418D01*
X104587093Y-57271514D01*
X104586028Y-57271324D01*
X104563390Y-57266184D01*
X104536935Y-57260177D01*
X104536032Y-57259932D01*
X104492806Y-57246357D01*
X104492229Y-57246159D01*
X104452271Y-57231278D01*
X104452167Y-57231239D01*
X104426015Y-57221216D01*
X104412997Y-57216227D01*
X104408890Y-57214828D01*
X104372669Y-57202493D01*
X104372658Y-57202490D01*
X104372462Y-57202423D01*
X104328105Y-57191055D01*
X104302775Y-57187198D01*
X104277735Y-57183385D01*
X104277732Y-57183385D01*
X104277445Y-57183341D01*
X104277154Y-57183327D01*
X104277153Y-57183327D01*
X104225954Y-57180879D01*
X104217854Y-57177061D01*
X104215436Y-57172958D01*
X104182478Y-57076013D01*
X104093815Y-56815220D01*
X104094396Y-56806284D01*
X104101126Y-56800377D01*
X104102314Y-56800042D01*
X104460864Y-56719046D01*
X104469689Y-56720565D01*
G37*
%TD.AperFunction*%
%TD*%
%TA.AperFunction,Conductor*%
%TO.N,/DUSB-*%
G36*
X106547433Y-55430269D02*
G01*
X106803187Y-55696222D01*
X106806452Y-55704561D01*
X106805144Y-55709712D01*
X106782318Y-55753793D01*
X106782054Y-55754274D01*
X106756561Y-55798315D01*
X106756404Y-55798577D01*
X106732274Y-55837786D01*
X106709970Y-55874317D01*
X106689981Y-55910306D01*
X106672713Y-55948020D01*
X106658574Y-55989729D01*
X106647971Y-56037700D01*
X106641310Y-56094201D01*
X106641302Y-56094445D01*
X106639388Y-56150201D01*
X106635680Y-56158352D01*
X106627695Y-56161500D01*
X106450305Y-56161500D01*
X106442032Y-56158073D01*
X106438612Y-56150202D01*
X106436697Y-56094446D01*
X106436697Y-56094445D01*
X106436689Y-56094201D01*
X106430028Y-56037700D01*
X106419425Y-55989729D01*
X106405286Y-55948020D01*
X106388018Y-55910306D01*
X106368029Y-55874317D01*
X106345725Y-55837786D01*
X106321595Y-55798577D01*
X106321438Y-55798315D01*
X106295945Y-55754274D01*
X106295681Y-55753793D01*
X106289612Y-55742072D01*
X106272855Y-55709711D01*
X106272094Y-55700790D01*
X106274812Y-55696222D01*
X106530567Y-55430269D01*
X106538771Y-55426681D01*
X106547433Y-55430269D01*
G37*
%TD.AperFunction*%
%TD*%
%TA.AperFunction,Conductor*%
%TO.N,/DUSB-*%
G36*
X104633810Y-56176481D02*
G01*
X104918867Y-56389894D01*
X104923436Y-56397594D01*
X104922977Y-56402892D01*
X104915782Y-56424916D01*
X104915684Y-56425202D01*
X104904416Y-56456714D01*
X104893098Y-56488780D01*
X104883255Y-56520152D01*
X104876361Y-56549727D01*
X104873889Y-56576401D01*
X104877314Y-56599069D01*
X104888110Y-56616628D01*
X104907749Y-56627973D01*
X104923399Y-56630077D01*
X104927567Y-56630637D01*
X104935310Y-56635136D01*
X104937708Y-56642233D01*
X104937708Y-56818734D01*
X104934281Y-56827007D01*
X104926008Y-56830434D01*
X104924546Y-56830342D01*
X104905437Y-56827935D01*
X104889952Y-56825985D01*
X104886676Y-56825073D01*
X104851634Y-56809541D01*
X104848819Y-56807777D01*
X104821591Y-56784739D01*
X104819889Y-56782959D01*
X104797680Y-56754208D01*
X104796928Y-56753111D01*
X104792837Y-56746348D01*
X104777391Y-56720810D01*
X104777332Y-56720711D01*
X104758278Y-56687820D01*
X104748365Y-56673437D01*
X104737738Y-56658015D01*
X104737734Y-56658010D01*
X104737423Y-56657559D01*
X104712170Y-56632640D01*
X104681616Y-56616628D01*
X104680771Y-56616185D01*
X104680769Y-56616184D01*
X104679902Y-56615730D01*
X104674494Y-56614926D01*
X104647446Y-56610904D01*
X104639767Y-56606297D01*
X104637484Y-56599963D01*
X104615116Y-56186479D01*
X104618091Y-56178033D01*
X104626167Y-56174164D01*
X104633810Y-56176481D01*
G37*
%TD.AperFunction*%
%TD*%
%TA.AperFunction,Conductor*%
%TO.N,Net-(J1-PadA5)*%
G36*
X106457968Y-58561427D02*
G01*
X106461388Y-58569298D01*
X106463310Y-58625298D01*
X106469971Y-58681799D01*
X106480574Y-58729770D01*
X106494713Y-58771479D01*
X106511981Y-58809193D01*
X106531970Y-58845182D01*
X106532021Y-58845265D01*
X106532023Y-58845269D01*
X106542972Y-58863202D01*
X106550800Y-58876024D01*
X106550800Y-58876023D01*
X106554274Y-58881713D01*
X106570815Y-58908590D01*
X106578399Y-58920913D01*
X106578561Y-58921184D01*
X106604054Y-58965225D01*
X106604318Y-58965706D01*
X106627145Y-59009789D01*
X106627906Y-59018710D01*
X106625188Y-59023278D01*
X106494784Y-59158881D01*
X106494783Y-59158883D01*
X106468344Y-59186376D01*
X106468344Y-59186375D01*
X106421620Y-59234963D01*
X106369433Y-59289231D01*
X106361229Y-59292819D01*
X106352567Y-59289231D01*
X106298768Y-59233286D01*
X106236049Y-59168066D01*
X106096812Y-59023278D01*
X106093547Y-59014939D01*
X106094855Y-59009788D01*
X106117681Y-58965706D01*
X106117945Y-58965225D01*
X106143438Y-58921184D01*
X106143600Y-58920913D01*
X106153858Y-58904246D01*
X106167725Y-58881713D01*
X106190029Y-58845182D01*
X106210018Y-58809193D01*
X106227286Y-58771479D01*
X106241425Y-58729770D01*
X106252028Y-58681799D01*
X106258689Y-58625298D01*
X106260612Y-58569298D01*
X106264321Y-58561148D01*
X106272305Y-58558000D01*
X106449695Y-58558000D01*
X106457968Y-58561427D01*
G37*
%TD.AperFunction*%
%TD*%
%TA.AperFunction,Conductor*%
%TO.N,Net-(J1-PadA5)*%
G36*
X106572141Y-58860673D02*
G01*
X106577855Y-58867567D01*
X106578003Y-58873949D01*
X106577466Y-58876024D01*
X106562728Y-58932968D01*
X106523424Y-59073967D01*
X106493899Y-59159802D01*
X106493484Y-59161008D01*
X106493481Y-59161013D01*
X106491823Y-59165833D01*
X106489481Y-59169827D01*
X106477609Y-59183101D01*
X106469539Y-59186983D01*
X106468811Y-59186903D01*
X106468430Y-59187093D01*
X106461000Y-59125000D01*
X106407720Y-59125000D01*
X106390713Y-59150400D01*
X106382059Y-59150400D01*
X106373786Y-59146973D01*
X106370359Y-59138700D01*
X106372337Y-59132190D01*
X106377151Y-59125000D01*
X106407720Y-59125000D01*
X106438080Y-59079658D01*
X106497658Y-58976626D01*
X106550800Y-58876024D01*
X106551538Y-58874627D01*
X106551539Y-58874626D01*
X106556331Y-58865553D01*
X106563225Y-58859839D01*
X106572141Y-58860673D01*
G37*
%TD.AperFunction*%
%TD*%
%TA.AperFunction,Conductor*%
%TO.N,Net-(J1-PadB5)*%
G36*
X98857433Y-53912769D02*
G01*
X99113187Y-54178722D01*
X99116452Y-54187061D01*
X99115144Y-54192212D01*
X99092318Y-54236293D01*
X99092054Y-54236774D01*
X99066561Y-54280815D01*
X99066404Y-54281077D01*
X99042274Y-54320286D01*
X99019970Y-54356817D01*
X98999981Y-54392806D01*
X98982713Y-54430520D01*
X98968574Y-54472229D01*
X98957971Y-54520200D01*
X98951310Y-54576701D01*
X98949000Y-54644000D01*
X98749000Y-54644000D01*
X98746689Y-54576701D01*
X98740028Y-54520200D01*
X98729425Y-54472229D01*
X98715286Y-54430520D01*
X98698018Y-54392806D01*
X98678029Y-54356817D01*
X98655725Y-54320286D01*
X98631595Y-54281077D01*
X98631438Y-54280815D01*
X98605945Y-54236774D01*
X98605681Y-54236293D01*
X98599612Y-54224572D01*
X98582855Y-54192211D01*
X98582094Y-54183290D01*
X98584812Y-54178722D01*
X98840567Y-53912769D01*
X98848771Y-53909181D01*
X98857433Y-53912769D01*
G37*
%TD.AperFunction*%
%TD*%
%TA.AperFunction,Conductor*%
%TO.N,Net-(J1-PadB5)*%
G36*
X98952728Y-54166879D02*
G01*
X98963247Y-54248496D01*
X98979553Y-54317453D01*
X99000646Y-54377351D01*
X99004221Y-54385173D01*
X99025525Y-54431792D01*
X99025597Y-54431929D01*
X99025600Y-54431935D01*
X99053186Y-54484376D01*
X99082558Y-54538575D01*
X99082709Y-54538864D01*
X99103301Y-54579522D01*
X99112705Y-54598091D01*
X99112987Y-54598690D01*
X99142686Y-54666625D01*
X99142993Y-54667402D01*
X99168801Y-54740196D01*
X99168336Y-54749139D01*
X99164930Y-54753362D01*
X98770370Y-55058406D01*
X98761729Y-55060755D01*
X98753685Y-55055939D01*
X98464273Y-54649730D01*
X98462264Y-54641004D01*
X98464350Y-54636046D01*
X98505392Y-54579787D01*
X98505790Y-54579271D01*
X98538993Y-54538706D01*
X98549609Y-54525736D01*
X98549827Y-54525478D01*
X98591076Y-54478117D01*
X98628954Y-54434079D01*
X98629054Y-54433963D01*
X98629140Y-54433852D01*
X98629153Y-54433836D01*
X98662799Y-54390352D01*
X98662981Y-54390117D01*
X98692205Y-54343536D01*
X98716073Y-54291177D01*
X98733930Y-54229997D01*
X98745123Y-54156952D01*
X98749000Y-54069000D01*
X98949000Y-54069000D01*
X98952728Y-54166879D01*
G37*
%TD.AperFunction*%
%TD*%
%TA.AperFunction,Conductor*%
%TO.N,/D+*%
G36*
X108850548Y-53175606D02*
G01*
X108850465Y-53175808D01*
X108852023Y-53176521D01*
X108975488Y-53233025D01*
X108981585Y-53239584D01*
X108981258Y-53248533D01*
X108977565Y-53253078D01*
X108933489Y-53285589D01*
X108887904Y-53321762D01*
X108876261Y-53331001D01*
X108876252Y-53331008D01*
X108818801Y-53377064D01*
X108818606Y-53377217D01*
X108795390Y-53394998D01*
X108767494Y-53416364D01*
X108766749Y-53416890D01*
X108729798Y-53440867D01*
X108725681Y-53442533D01*
X108724131Y-53442837D01*
X108715353Y-53441067D01*
X108710398Y-53433608D01*
X108710363Y-53429289D01*
X108711378Y-53423634D01*
X108711789Y-53421344D01*
X108710004Y-53421256D01*
X108710003Y-53421255D01*
X108690744Y-53420301D01*
X108671165Y-53419330D01*
X108663073Y-53415499D01*
X108660059Y-53407066D01*
X108663891Y-53398973D01*
X108671516Y-53395947D01*
X108720058Y-53394998D01*
X108720059Y-53394997D01*
X108722385Y-53394952D01*
X108722856Y-53393774D01*
X108722857Y-53393774D01*
X108735866Y-53361269D01*
X108736144Y-53360629D01*
X108754274Y-53322155D01*
X108754468Y-53321762D01*
X108775571Y-53281007D01*
X108775726Y-53280718D01*
X108797901Y-53240685D01*
X108798047Y-53240429D01*
X108819419Y-53204038D01*
X108819593Y-53203751D01*
X108834859Y-53179383D01*
X108842155Y-53174192D01*
X108850548Y-53175606D01*
G37*
%TD.AperFunction*%
%TD*%
%TA.AperFunction,Conductor*%
%TO.N,/D+*%
G36*
X110580354Y-52999027D02*
G01*
X110583914Y-53007244D01*
X110580726Y-53015462D01*
X110512202Y-53088087D01*
X110249128Y-53366906D01*
X110240959Y-53370572D01*
X110235686Y-53369486D01*
X110207326Y-53356298D01*
X110206939Y-53356109D01*
X110168903Y-53336689D01*
X110130012Y-53316612D01*
X110129938Y-53316576D01*
X110092020Y-53298194D01*
X110092013Y-53298191D01*
X110091840Y-53298107D01*
X110055764Y-53283305D01*
X110023160Y-53274336D01*
X110022478Y-53274311D01*
X110022476Y-53274311D01*
X109996682Y-53273375D01*
X109996680Y-53273375D01*
X109995404Y-53273329D01*
X109994229Y-53273825D01*
X109994228Y-53273825D01*
X109975483Y-53281735D01*
X109975482Y-53281736D01*
X109973875Y-53282414D01*
X109965806Y-53294760D01*
X109963618Y-53298107D01*
X109959948Y-53303721D01*
X109959770Y-53305004D01*
X109956400Y-53329288D01*
X109951868Y-53337012D01*
X109944811Y-53339380D01*
X109768254Y-53339380D01*
X109759981Y-53335953D01*
X109756554Y-53327680D01*
X109756644Y-53326229D01*
X109761648Y-53286200D01*
X109762552Y-53282932D01*
X109779803Y-53243795D01*
X109781559Y-53240978D01*
X109807125Y-53210643D01*
X109808899Y-53208941D01*
X109840718Y-53184278D01*
X109841807Y-53183528D01*
X109877446Y-53161859D01*
X109877577Y-53161781D01*
X109880188Y-53160253D01*
X109913760Y-53140609D01*
X109913944Y-53140480D01*
X109913952Y-53140475D01*
X109946625Y-53117587D01*
X109947079Y-53117269D01*
X109947461Y-53116873D01*
X109947465Y-53116870D01*
X109973920Y-53089476D01*
X109974520Y-53088855D01*
X109993140Y-53052416D01*
X109998573Y-53014862D01*
X110003149Y-53007165D01*
X110009963Y-53004839D01*
X110358590Y-52999192D01*
X110572028Y-52995735D01*
X110580354Y-52999027D01*
G37*
%TD.AperFunction*%
%TD*%
%TA.AperFunction,Conductor*%
%TO.N,/D-*%
G36*
X111522355Y-52383263D02*
G01*
X111581463Y-52437566D01*
X111581703Y-52437745D01*
X111581709Y-52437750D01*
X111642665Y-52483216D01*
X111642960Y-52483436D01*
X111700334Y-52516231D01*
X111700681Y-52516374D01*
X111700685Y-52516376D01*
X111746113Y-52535097D01*
X111755333Y-52538897D01*
X111755643Y-52538985D01*
X111755648Y-52538987D01*
X111809482Y-52554317D01*
X111809487Y-52554318D01*
X111809704Y-52554380D01*
X111865193Y-52565625D01*
X111865299Y-52565643D01*
X111865304Y-52565644D01*
X111923446Y-52575562D01*
X111923600Y-52575589D01*
X111986231Y-52587136D01*
X111986773Y-52587249D01*
X112055469Y-52603312D01*
X112056217Y-52603514D01*
X112114141Y-52621285D01*
X112125170Y-52624669D01*
X112132074Y-52630371D01*
X112133436Y-52635623D01*
X112135841Y-52758648D01*
X112143183Y-53134256D01*
X112139918Y-53142595D01*
X112131256Y-53146183D01*
X111971492Y-53143060D01*
X111632624Y-53136436D01*
X111624421Y-53132848D01*
X111621669Y-53128170D01*
X111600517Y-53059227D01*
X111600309Y-53058459D01*
X111584249Y-52989774D01*
X111584136Y-52989231D01*
X111572589Y-52926600D01*
X111572562Y-52926446D01*
X111562644Y-52868304D01*
X111562643Y-52868299D01*
X111562625Y-52868193D01*
X111551380Y-52812704D01*
X111535897Y-52758333D01*
X111513231Y-52703334D01*
X111480436Y-52645960D01*
X111464555Y-52624669D01*
X111434750Y-52584709D01*
X111434745Y-52584703D01*
X111434566Y-52584463D01*
X111380263Y-52525355D01*
X111377189Y-52516945D01*
X111380606Y-52509167D01*
X111506167Y-52383606D01*
X111514440Y-52380179D01*
X111522355Y-52383263D01*
G37*
%TD.AperFunction*%
%TD*%
%TA.AperFunction,Conductor*%
%TO.N,/D-*%
G36*
X106752233Y-52722692D02*
G01*
X106877607Y-52848066D01*
X106881034Y-52856339D01*
X106878006Y-52864193D01*
X106850871Y-52894152D01*
X106825471Y-52930156D01*
X106808251Y-52964669D01*
X106808109Y-52965145D01*
X106808107Y-52965150D01*
X106807281Y-52967918D01*
X106798182Y-52998408D01*
X106794234Y-53032091D01*
X106795379Y-53066435D01*
X106800587Y-53102158D01*
X106808829Y-53139978D01*
X106808839Y-53140018D01*
X106808843Y-53140035D01*
X106819076Y-53180612D01*
X106828277Y-53216817D01*
X106826993Y-53225680D01*
X106823498Y-53229386D01*
X106518805Y-53435754D01*
X106510034Y-53437556D01*
X106502557Y-53432628D01*
X106501797Y-53431334D01*
X106399982Y-53229386D01*
X106330735Y-53092038D01*
X106330070Y-53083108D01*
X106333028Y-53078381D01*
X106345654Y-53066111D01*
X106373821Y-53038737D01*
X106374072Y-53038500D01*
X106415529Y-53000618D01*
X106415791Y-53000385D01*
X106453531Y-52967918D01*
X106453744Y-52967740D01*
X106456904Y-52965150D01*
X106489331Y-52938569D01*
X106524376Y-52910531D01*
X106544360Y-52894444D01*
X106560281Y-52881627D01*
X106560356Y-52881565D01*
X106598626Y-52849716D01*
X106598685Y-52849667D01*
X106641064Y-52812591D01*
X106689003Y-52768250D01*
X106689031Y-52768222D01*
X106689052Y-52768203D01*
X106735788Y-52722592D01*
X106744103Y-52719266D01*
X106752233Y-52722692D01*
G37*
%TD.AperFunction*%
%TD*%
%TA.AperFunction,Conductor*%
%TO.N,/DC-*%
G36*
X111835968Y-55748427D02*
G01*
X111839388Y-55756298D01*
X111841310Y-55812298D01*
X111847971Y-55868799D01*
X111858574Y-55916770D01*
X111872713Y-55958479D01*
X111889981Y-55996193D01*
X111909970Y-56032182D01*
X111910021Y-56032265D01*
X111910023Y-56032269D01*
X111932274Y-56068713D01*
X111956399Y-56107913D01*
X111956561Y-56108184D01*
X111982054Y-56152225D01*
X111982318Y-56152706D01*
X112005145Y-56196789D01*
X112005906Y-56205710D01*
X112003188Y-56210278D01*
X111747433Y-56476231D01*
X111739229Y-56479819D01*
X111730567Y-56476231D01*
X111474812Y-56210278D01*
X111471547Y-56201939D01*
X111472855Y-56196788D01*
X111495681Y-56152706D01*
X111495945Y-56152225D01*
X111521438Y-56108184D01*
X111521600Y-56107913D01*
X111545725Y-56068713D01*
X111567976Y-56032269D01*
X111567978Y-56032265D01*
X111568029Y-56032182D01*
X111588018Y-55996193D01*
X111605286Y-55958479D01*
X111619425Y-55916770D01*
X111630028Y-55868799D01*
X111636689Y-55812298D01*
X111638612Y-55756298D01*
X111642321Y-55748148D01*
X111650305Y-55745000D01*
X111827695Y-55745000D01*
X111835968Y-55748427D01*
G37*
%TD.AperFunction*%
%TD*%
%TA.AperFunction,Conductor*%
%TO.N,/DC-*%
G36*
X112127858Y-54509014D02*
G01*
X112133417Y-54516035D01*
X112133848Y-54518638D01*
X112159159Y-55014412D01*
X112156158Y-55022850D01*
X112151961Y-55025815D01*
X112105702Y-55045023D01*
X112105698Y-55045013D01*
X112105650Y-55045044D01*
X112055284Y-55065671D01*
X112008847Y-55086172D01*
X111966911Y-55108102D01*
X111929998Y-55133038D01*
X111898628Y-55162557D01*
X111898292Y-55163031D01*
X111898290Y-55163033D01*
X111873674Y-55197739D01*
X111873672Y-55197742D01*
X111873322Y-55198236D01*
X111854601Y-55241652D01*
X111842987Y-55294381D01*
X111842959Y-55294832D01*
X111839687Y-55347032D01*
X111835749Y-55355074D01*
X111828010Y-55358000D01*
X111650575Y-55358000D01*
X111642302Y-55354573D01*
X111638876Y-55346425D01*
X111637965Y-55261092D01*
X111637965Y-55261077D01*
X111637964Y-55261019D01*
X111637283Y-55241142D01*
X111635155Y-55179091D01*
X111635154Y-55179073D01*
X111635152Y-55179010D01*
X111631008Y-55108581D01*
X111625976Y-55046341D01*
X111620500Y-54988900D01*
X111615024Y-54932867D01*
X111610000Y-54874954D01*
X111609983Y-54874733D01*
X111605858Y-54811615D01*
X111605842Y-54811308D01*
X111603042Y-54739464D01*
X111603034Y-54739152D01*
X111602110Y-54663950D01*
X111605435Y-54655635D01*
X111610609Y-54652552D01*
X112118963Y-54507981D01*
X112127858Y-54509014D01*
G37*
%TD.AperFunction*%
%TD*%
%TA.AperFunction,Conductor*%
%TO.N,/DC+*%
G36*
X110835968Y-55748427D02*
G01*
X110839388Y-55756298D01*
X110841310Y-55812298D01*
X110847971Y-55868799D01*
X110858574Y-55916770D01*
X110872713Y-55958479D01*
X110889981Y-55996193D01*
X110909970Y-56032182D01*
X110910021Y-56032265D01*
X110910023Y-56032269D01*
X110932274Y-56068713D01*
X110956399Y-56107913D01*
X110956561Y-56108184D01*
X110982054Y-56152225D01*
X110982318Y-56152706D01*
X111005145Y-56196789D01*
X111005906Y-56205710D01*
X111003188Y-56210278D01*
X110747433Y-56476231D01*
X110739229Y-56479819D01*
X110730567Y-56476231D01*
X110474812Y-56210278D01*
X110471547Y-56201939D01*
X110472855Y-56196788D01*
X110495681Y-56152706D01*
X110495945Y-56152225D01*
X110521438Y-56108184D01*
X110521600Y-56107913D01*
X110545725Y-56068713D01*
X110567976Y-56032269D01*
X110567978Y-56032265D01*
X110568029Y-56032182D01*
X110588018Y-55996193D01*
X110605286Y-55958479D01*
X110619425Y-55916770D01*
X110630028Y-55868799D01*
X110636689Y-55812298D01*
X110638612Y-55756298D01*
X110642321Y-55748148D01*
X110650305Y-55745000D01*
X110827695Y-55745000D01*
X110835968Y-55748427D01*
G37*
%TD.AperFunction*%
%TD*%
%TA.AperFunction,Conductor*%
%TO.N,/DC+*%
G36*
X110257621Y-54537324D02*
G01*
X110790914Y-54653029D01*
X110798272Y-54658132D01*
X110800132Y-54664297D01*
X110801092Y-54731957D01*
X110804056Y-54797804D01*
X110808424Y-54855639D01*
X110813728Y-54908562D01*
X110819500Y-54959671D01*
X110825272Y-55012065D01*
X110828218Y-55043606D01*
X110830560Y-55068686D01*
X110830584Y-55068980D01*
X110834932Y-55132934D01*
X110834950Y-55133265D01*
X110837902Y-55207801D01*
X110837910Y-55208120D01*
X110838854Y-55284632D01*
X110835530Y-55292946D01*
X110827155Y-55296476D01*
X110649828Y-55296476D01*
X110641555Y-55293049D01*
X110638163Y-55285681D01*
X110634760Y-55241814D01*
X110634717Y-55241258D01*
X110633520Y-55236893D01*
X110622533Y-55196818D01*
X110622532Y-55196815D01*
X110622356Y-55196174D01*
X110602647Y-55159945D01*
X110576320Y-55131294D01*
X110544107Y-55108943D01*
X110506739Y-55091616D01*
X110464944Y-55078033D01*
X110419455Y-55066918D01*
X110371002Y-55056994D01*
X110328359Y-55048571D01*
X110320906Y-55043606D01*
X110319063Y-55038880D01*
X110243577Y-54550545D01*
X110245700Y-54541846D01*
X110253353Y-54537195D01*
X110257621Y-54537324D01*
G37*
%TD.AperFunction*%
%TD*%
%TA.AperFunction,Conductor*%
%TO.N,/DUSB-*%
G36*
X102904475Y-56760092D02*
G01*
X103029908Y-56885525D01*
X103033335Y-56893798D01*
X103030187Y-56901782D01*
X103017808Y-56915041D01*
X102995471Y-56938966D01*
X102991948Y-56942739D01*
X102991805Y-56942920D01*
X102991800Y-56942926D01*
X102980857Y-56956794D01*
X102956706Y-56987401D01*
X102930284Y-57028819D01*
X102910789Y-57068309D01*
X102896331Y-57107187D01*
X102885018Y-57146770D01*
X102884989Y-57146890D01*
X102874958Y-57188371D01*
X102864296Y-57233156D01*
X102864219Y-57233461D01*
X102851103Y-57282633D01*
X102850949Y-57283160D01*
X102835924Y-57330460D01*
X102830153Y-57337308D01*
X102825002Y-57338616D01*
X102680652Y-57341438D01*
X102456099Y-57345828D01*
X102447760Y-57342563D01*
X102444172Y-57333901D01*
X102451384Y-56964998D01*
X102454972Y-56956794D01*
X102459540Y-56954076D01*
X102506839Y-56939050D01*
X102507366Y-56938896D01*
X102556538Y-56925780D01*
X102556843Y-56925703D01*
X102601628Y-56915041D01*
X102643109Y-56905010D01*
X102643108Y-56905010D01*
X102643229Y-56904981D01*
X102682812Y-56893668D01*
X102721690Y-56879210D01*
X102721968Y-56879073D01*
X102760883Y-56859862D01*
X102760888Y-56859859D01*
X102761180Y-56859715D01*
X102761453Y-56859541D01*
X102761458Y-56859538D01*
X102778507Y-56848661D01*
X102802598Y-56833293D01*
X102847260Y-56798051D01*
X102862184Y-56784118D01*
X102888218Y-56759813D01*
X102896604Y-56756672D01*
X102904475Y-56760092D01*
G37*
%TD.AperFunction*%
%TD*%
%TA.AperFunction,Conductor*%
%TO.N,/DUSB-*%
G36*
X104453889Y-56082596D02*
G01*
X104773157Y-56267670D01*
X104778596Y-56274784D01*
X104777174Y-56284049D01*
X104649579Y-56485575D01*
X104579800Y-56595784D01*
X104572479Y-56600941D01*
X104567154Y-56600895D01*
X104513325Y-56587824D01*
X104512709Y-56587656D01*
X104485232Y-56579373D01*
X104480336Y-56576444D01*
X104456342Y-56552450D01*
X104343304Y-56494854D01*
X104218000Y-56475008D01*
X104217091Y-56475152D01*
X104151279Y-56485575D01*
X104148349Y-56485667D01*
X104121353Y-56483118D01*
X104121349Y-56483118D01*
X104121161Y-56483100D01*
X104120980Y-56483095D01*
X104120966Y-56483094D01*
X104057880Y-56481310D01*
X104049707Y-56477651D01*
X104046511Y-56469615D01*
X104046511Y-56292245D01*
X104049938Y-56283972D01*
X104057758Y-56280554D01*
X104100427Y-56278902D01*
X104108247Y-56278599D01*
X104144004Y-56273771D01*
X104159803Y-56271638D01*
X104159808Y-56271637D01*
X104160149Y-56271591D01*
X104204097Y-56260209D01*
X104204455Y-56260062D01*
X104204462Y-56260060D01*
X104241610Y-56244840D01*
X104241612Y-56244839D01*
X104241966Y-56244694D01*
X104275634Y-56225290D01*
X104275892Y-56225100D01*
X104275897Y-56225097D01*
X104287934Y-56216245D01*
X104306980Y-56202239D01*
X104337880Y-56175784D01*
X104370213Y-56146167D01*
X104370228Y-56146154D01*
X104388828Y-56129174D01*
X104405760Y-56113718D01*
X104405958Y-56113542D01*
X104422193Y-56099541D01*
X104440380Y-56083858D01*
X104448883Y-56081050D01*
X104453889Y-56082596D01*
G37*
%TD.AperFunction*%
%TD*%
%TA.AperFunction,Conductor*%
%TO.N,Net-(F1-Pad1)*%
G36*
X102177781Y-57608265D02*
G01*
X102211752Y-57640654D01*
X102211763Y-57640664D01*
X102211888Y-57640783D01*
X102250709Y-57673547D01*
X102287010Y-57699502D01*
X102287263Y-57699647D01*
X102287269Y-57699651D01*
X102321525Y-57719304D01*
X102321534Y-57719309D01*
X102321826Y-57719476D01*
X102322137Y-57719610D01*
X102355889Y-57734166D01*
X102355893Y-57734167D01*
X102356191Y-57734296D01*
X102356500Y-57734389D01*
X102356506Y-57734391D01*
X102373466Y-57739484D01*
X102391139Y-57744792D01*
X102427704Y-57751791D01*
X102466920Y-57756122D01*
X102509822Y-57758613D01*
X102517862Y-57758863D01*
X102549354Y-57759842D01*
X102557516Y-57763524D01*
X102560061Y-57767754D01*
X102610439Y-57915265D01*
X102679403Y-58117200D01*
X102678834Y-58126136D01*
X102671677Y-58132192D01*
X102317933Y-58237756D01*
X102309025Y-58236838D01*
X102305191Y-58233517D01*
X102273147Y-58190332D01*
X102273088Y-58190251D01*
X102241097Y-58146356D01*
X102241083Y-58146337D01*
X102212233Y-58106584D01*
X102184866Y-58069429D01*
X102157303Y-58033302D01*
X102127854Y-57996615D01*
X102127829Y-57996585D01*
X102127808Y-57996560D01*
X102094866Y-57957826D01*
X102094828Y-57957781D01*
X102056534Y-57915211D01*
X102011282Y-57867318D01*
X101965517Y-57820785D01*
X101962159Y-57812484D01*
X101965586Y-57804308D01*
X102161434Y-57608460D01*
X102169707Y-57605033D01*
X102177781Y-57608265D01*
G37*
%TD.AperFunction*%
%TD*%
%TA.AperFunction,Conductor*%
%TO.N,Net-(F1-Pad1)*%
G36*
X102377401Y-55179139D02*
G01*
X102718830Y-55372704D01*
X102724337Y-55379764D01*
X102723238Y-55388651D01*
X102721550Y-55390931D01*
X102659237Y-55456653D01*
X102469277Y-55657004D01*
X102461099Y-55660649D01*
X102456475Y-55659829D01*
X102436023Y-55651719D01*
X102431705Y-55650007D01*
X102401139Y-55640352D01*
X102371777Y-55634155D01*
X102343260Y-55631796D01*
X102342821Y-55631825D01*
X102342816Y-55631825D01*
X102316968Y-55633535D01*
X102315227Y-55633650D01*
X102287322Y-55640097D01*
X102286897Y-55640269D01*
X102286895Y-55640270D01*
X102259568Y-55651355D01*
X102259565Y-55651356D01*
X102259184Y-55651511D01*
X102258830Y-55651717D01*
X102258827Y-55651719D01*
X102239927Y-55662746D01*
X102230456Y-55668272D01*
X102230179Y-55668482D01*
X102201004Y-55690583D01*
X102200994Y-55690591D01*
X102200778Y-55690755D01*
X102200571Y-55690946D01*
X102200559Y-55690956D01*
X102178052Y-55711720D01*
X102169648Y-55714812D01*
X102161846Y-55711394D01*
X101966113Y-55515661D01*
X101962686Y-55507388D01*
X101966293Y-55498939D01*
X102010441Y-55456653D01*
X102010845Y-55456283D01*
X102057826Y-55415320D01*
X102058253Y-55414965D01*
X102100757Y-55381321D01*
X102101149Y-55381024D01*
X102102886Y-55379764D01*
X102140399Y-55352554D01*
X102140600Y-55352413D01*
X102177804Y-55326997D01*
X102213987Y-55302634D01*
X102219105Y-55299053D01*
X102250067Y-55277387D01*
X102250087Y-55277372D01*
X102250166Y-55277317D01*
X102287460Y-55248969D01*
X102326988Y-55215511D01*
X102363583Y-55180825D01*
X102371945Y-55177621D01*
X102377401Y-55179139D01*
G37*
%TD.AperFunction*%
%TD*%
%TA.AperFunction,Conductor*%
%TO.N,Net-(C1-Pad1)*%
G36*
X97726223Y-57604297D02*
G01*
X97726505Y-57604561D01*
X97808658Y-57681559D01*
X97808826Y-57681694D01*
X97808836Y-57681702D01*
X97890595Y-57747079D01*
X97890808Y-57747249D01*
X97966859Y-57796998D01*
X97967131Y-57797138D01*
X97967135Y-57797140D01*
X98039006Y-57834049D01*
X98039014Y-57834053D01*
X98039266Y-57834182D01*
X98110480Y-57862175D01*
X98110701Y-57862243D01*
X98110702Y-57862243D01*
X98149845Y-57874223D01*
X98182953Y-57884356D01*
X98259139Y-57904098D01*
X98341405Y-57924758D01*
X98341592Y-57924807D01*
X98432240Y-57949715D01*
X98432695Y-57949851D01*
X98526530Y-57979909D01*
X98533364Y-57985696D01*
X98534659Y-57990822D01*
X98548216Y-58684289D01*
X98544951Y-58692628D01*
X98536289Y-58696216D01*
X97842822Y-58682659D01*
X97834618Y-58679071D01*
X97831909Y-58674530D01*
X97801853Y-58580702D01*
X97801713Y-58580233D01*
X97776816Y-58489626D01*
X97776750Y-58489376D01*
X97756098Y-58407139D01*
X97736385Y-58331065D01*
X97736356Y-58330953D01*
X97714175Y-58258480D01*
X97686182Y-58187266D01*
X97686053Y-58187014D01*
X97686049Y-58187006D01*
X97649140Y-58115135D01*
X97649138Y-58115131D01*
X97648998Y-58114859D01*
X97599249Y-58038808D01*
X97556779Y-57985696D01*
X97533702Y-57956836D01*
X97533694Y-57956826D01*
X97533559Y-57956658D01*
X97499610Y-57920437D01*
X97456297Y-57874223D01*
X97453140Y-57865843D01*
X97456561Y-57857949D01*
X97709949Y-57604561D01*
X97718222Y-57601134D01*
X97726223Y-57604297D01*
G37*
%TD.AperFunction*%
%TD*%
%TA.AperFunction,Conductor*%
%TO.N,Net-(C1-Pad1)*%
G36*
X97067152Y-56506896D02*
G01*
X97373199Y-56798743D01*
X97376821Y-56806931D01*
X97375909Y-56811743D01*
X97355155Y-56861100D01*
X97334871Y-56914711D01*
X97319265Y-56965823D01*
X97309423Y-57015114D01*
X97306429Y-57063266D01*
X97306479Y-57063748D01*
X97306479Y-57063751D01*
X97309013Y-57088219D01*
X97311367Y-57110957D01*
X97325322Y-57158869D01*
X97349378Y-57207680D01*
X97384619Y-57258071D01*
X97384860Y-57258338D01*
X97424685Y-57302471D01*
X97427684Y-57310909D01*
X97424272Y-57318582D01*
X97171064Y-57571790D01*
X97162791Y-57575217D01*
X97154451Y-57571722D01*
X97080496Y-57496549D01*
X97080350Y-57496399D01*
X97011665Y-57424035D01*
X97011518Y-57423877D01*
X96953363Y-57360303D01*
X96953235Y-57360160D01*
X96902588Y-57302936D01*
X96902504Y-57302840D01*
X96856284Y-57249454D01*
X96856267Y-57249435D01*
X96811467Y-57197460D01*
X96765197Y-57144605D01*
X96765184Y-57144590D01*
X96765132Y-57144531D01*
X96714249Y-57088219D01*
X96655804Y-57026090D01*
X96586786Y-56955714D01*
X96920952Y-56367479D01*
X97067152Y-56506896D01*
G37*
%TD.AperFunction*%
%TD*%
%TA.AperFunction,Conductor*%
%TO.N,Net-(C1-Pad1)*%
G36*
X96861138Y-56132068D02*
G01*
X96864473Y-56135884D01*
X97164003Y-56684186D01*
X96597073Y-56965703D01*
X96541728Y-56914326D01*
X96532024Y-56905845D01*
X96490546Y-56869593D01*
X96490532Y-56869581D01*
X96490409Y-56869474D01*
X96441050Y-56830885D01*
X96433322Y-56825793D01*
X96391839Y-56798461D01*
X96391834Y-56798458D01*
X96391588Y-56798296D01*
X96339956Y-56771442D01*
X96339635Y-56771319D01*
X96284395Y-56750177D01*
X96284389Y-56750175D01*
X96284091Y-56750061D01*
X96283782Y-56749981D01*
X96283777Y-56749979D01*
X96251270Y-56741523D01*
X96221928Y-56733889D01*
X96221663Y-56733847D01*
X96221659Y-56733846D01*
X96172116Y-56725961D01*
X96151401Y-56722664D01*
X96151172Y-56722646D01*
X96151168Y-56722645D01*
X96140494Y-56721783D01*
X96106632Y-56719046D01*
X96106631Y-56719046D01*
X96070447Y-56716122D01*
X95977000Y-56714000D01*
X95977000Y-56214000D01*
X96100166Y-56212997D01*
X96171473Y-56211012D01*
X96205724Y-56210059D01*
X96205756Y-56210058D01*
X96205816Y-56210056D01*
X96214228Y-56209618D01*
X96297487Y-56205283D01*
X96297503Y-56205282D01*
X96297617Y-56205276D01*
X96379237Y-56198757D01*
X96454343Y-56190598D01*
X96483411Y-56186696D01*
X96526540Y-56180908D01*
X96526571Y-56180903D01*
X96526604Y-56180899D01*
X96533155Y-56179900D01*
X96599643Y-56169766D01*
X96599686Y-56169759D01*
X96642150Y-56162927D01*
X96677248Y-56157280D01*
X96677258Y-56157278D01*
X96762901Y-56143570D01*
X96762988Y-56143556D01*
X96852444Y-56129926D01*
X96861138Y-56132068D01*
G37*
%TD.AperFunction*%
%TD*%
%TA.AperFunction,Conductor*%
%TO.N,Net-(C1-Pad1)*%
G36*
X95610462Y-56062497D02*
G01*
X95673230Y-56092520D01*
X95736395Y-56121232D01*
X95736458Y-56121258D01*
X95736465Y-56121261D01*
X95795036Y-56145378D01*
X95795046Y-56145382D01*
X95795180Y-56145437D01*
X95795312Y-56145483D01*
X95795332Y-56145491D01*
X95836149Y-56159826D01*
X95852120Y-56165436D01*
X95852292Y-56165484D01*
X95852295Y-56165485D01*
X95909563Y-56181479D01*
X95909569Y-56181480D01*
X95909750Y-56181531D01*
X95970607Y-56194024D01*
X95970787Y-56194049D01*
X95970788Y-56194049D01*
X96037042Y-56203191D01*
X96037046Y-56203191D01*
X96037224Y-56203216D01*
X96062038Y-56205267D01*
X96112003Y-56209397D01*
X96112015Y-56209398D01*
X96112139Y-56209408D01*
X96112262Y-56209413D01*
X96112278Y-56209414D01*
X96132295Y-56210229D01*
X96197886Y-56212902D01*
X96297000Y-56214000D01*
X96297000Y-56714000D01*
X96197886Y-56715097D01*
X96112139Y-56718591D01*
X96106633Y-56719046D01*
X96106632Y-56719046D01*
X96037224Y-56724783D01*
X96037046Y-56724808D01*
X96037042Y-56724808D01*
X95971542Y-56733846D01*
X95970607Y-56733975D01*
X95909750Y-56746468D01*
X95909569Y-56746519D01*
X95909563Y-56746520D01*
X95852295Y-56762514D01*
X95852120Y-56762563D01*
X95836149Y-56768173D01*
X95795332Y-56782508D01*
X95795312Y-56782516D01*
X95795180Y-56782562D01*
X95795046Y-56782617D01*
X95795036Y-56782621D01*
X95736465Y-56806738D01*
X95736395Y-56806767D01*
X95673230Y-56835479D01*
X95610464Y-56865501D01*
X95601522Y-56865979D01*
X95597305Y-56863379D01*
X95448979Y-56720741D01*
X95182000Y-56464000D01*
X95377328Y-56276162D01*
X95397157Y-56257094D01*
X95597306Y-56064620D01*
X95605645Y-56061355D01*
X95610462Y-56062497D01*
G37*
%TD.AperFunction*%
%TD*%
%TA.AperFunction,Conductor*%
%TO.N,Net-(C1-Pad1)*%
G36*
X94061542Y-56223937D02*
G01*
X94119266Y-56251152D01*
X94119290Y-56251163D01*
X94119354Y-56251193D01*
X94119428Y-56251225D01*
X94119441Y-56251231D01*
X94141776Y-56260928D01*
X94178607Y-56276920D01*
X94178706Y-56276957D01*
X94178719Y-56276963D01*
X94234118Y-56298029D01*
X94234131Y-56298033D01*
X94234277Y-56298089D01*
X94288629Y-56315110D01*
X94343931Y-56328390D01*
X94402449Y-56338340D01*
X94402609Y-56338358D01*
X94402612Y-56338358D01*
X94443814Y-56342881D01*
X94466448Y-56345366D01*
X94466561Y-56345373D01*
X94466571Y-56345374D01*
X94538081Y-56349873D01*
X94538090Y-56349873D01*
X94538195Y-56349880D01*
X94619957Y-56352288D01*
X94714000Y-56353000D01*
X94714000Y-56853000D01*
X94648254Y-56853497D01*
X94648247Y-56853497D01*
X94642531Y-56853540D01*
X94619957Y-56853711D01*
X94619895Y-56853713D01*
X94619883Y-56853713D01*
X94595319Y-56854437D01*
X94538195Y-56856119D01*
X94538090Y-56856126D01*
X94538081Y-56856126D01*
X94466571Y-56860625D01*
X94466561Y-56860626D01*
X94466448Y-56860633D01*
X94443814Y-56863118D01*
X94402612Y-56867641D01*
X94402609Y-56867641D01*
X94402449Y-56867659D01*
X94343931Y-56877609D01*
X94288629Y-56890889D01*
X94234277Y-56907910D01*
X94234131Y-56907966D01*
X94234118Y-56907970D01*
X94178719Y-56929036D01*
X94178706Y-56929042D01*
X94178607Y-56929079D01*
X94143273Y-56944421D01*
X94119411Y-56954781D01*
X94119398Y-56954787D01*
X94119354Y-56954806D01*
X94119311Y-56954827D01*
X94119305Y-56954829D01*
X94061543Y-56982063D01*
X94052598Y-56982491D01*
X94048443Y-56979913D01*
X93973515Y-56907858D01*
X93665269Y-56611433D01*
X93661681Y-56603229D01*
X93665269Y-56594567D01*
X93917210Y-56352288D01*
X94048443Y-56226087D01*
X94056782Y-56222822D01*
X94061542Y-56223937D01*
G37*
%TD.AperFunction*%
%TD*%
%TA.AperFunction,Conductor*%
%TO.N,Net-(C1-Pad1)*%
G36*
X95102779Y-56142687D02*
G01*
X95182372Y-56181382D01*
X95621044Y-56394648D01*
X95446620Y-56720396D01*
X95349080Y-56902559D01*
X95342154Y-56908235D01*
X95337166Y-56908626D01*
X95257003Y-56897563D01*
X95178820Y-56887107D01*
X95107460Y-56878269D01*
X95107426Y-56878265D01*
X95107390Y-56878261D01*
X95058361Y-56872962D01*
X95039697Y-56870945D01*
X94999071Y-56867380D01*
X94972410Y-56865040D01*
X94972379Y-56865038D01*
X94972304Y-56865031D01*
X94972247Y-56865027D01*
X94972218Y-56865025D01*
X94940763Y-56862963D01*
X94902056Y-56860424D01*
X94825728Y-56857021D01*
X94825704Y-56857020D01*
X94825695Y-56857020D01*
X94798911Y-56856300D01*
X94740093Y-56854718D01*
X94740081Y-56854718D01*
X94740052Y-56854717D01*
X94693653Y-56854100D01*
X94641925Y-56853412D01*
X94528000Y-56853000D01*
X94528000Y-56353000D01*
X94610224Y-56351456D01*
X94612851Y-56351407D01*
X94612857Y-56351407D01*
X94613002Y-56351404D01*
X94687190Y-56346377D01*
X94752266Y-56337556D01*
X94778113Y-56331739D01*
X94809635Y-56324646D01*
X94809642Y-56324644D01*
X94809931Y-56324579D01*
X94838464Y-56314971D01*
X94861575Y-56307189D01*
X94861579Y-56307187D01*
X94861886Y-56307084D01*
X94862177Y-56306948D01*
X94862185Y-56306945D01*
X94909550Y-56284842D01*
X94909549Y-56284842D01*
X94909833Y-56284710D01*
X94910092Y-56284553D01*
X94910100Y-56284549D01*
X94955243Y-56257233D01*
X94955473Y-56257094D01*
X95000508Y-56223875D01*
X95046638Y-56184691D01*
X95089694Y-56144642D01*
X95098086Y-56141517D01*
X95102779Y-56142687D01*
G37*
%TD.AperFunction*%
%TD*%
%TA.AperFunction,Conductor*%
%TO.N,VCC*%
G36*
X107497433Y-53155269D02*
G01*
X107753840Y-53421901D01*
X107757105Y-53430240D01*
X107756326Y-53434213D01*
X107748702Y-53454024D01*
X107741532Y-53484734D01*
X107741495Y-53485019D01*
X107740469Y-53492899D01*
X107740468Y-53492913D01*
X107737007Y-53519510D01*
X107734648Y-53558467D01*
X107733972Y-53601722D01*
X107734499Y-53649390D01*
X107735746Y-53701586D01*
X107735909Y-53707831D01*
X107735909Y-53707832D01*
X107737231Y-53758356D01*
X107737233Y-53758425D01*
X107738477Y-53819954D01*
X107738479Y-53820099D01*
X107738907Y-53874708D01*
X107735545Y-53883008D01*
X107727207Y-53886500D01*
X107250792Y-53886500D01*
X107242519Y-53883073D01*
X107239092Y-53874708D01*
X107239520Y-53820099D01*
X107239522Y-53819954D01*
X107240766Y-53758425D01*
X107240768Y-53758356D01*
X107242092Y-53707753D01*
X107242092Y-53707752D01*
X107242253Y-53701586D01*
X107243500Y-53649390D01*
X107244027Y-53601722D01*
X107243351Y-53558467D01*
X107240992Y-53519510D01*
X107237531Y-53492913D01*
X107237530Y-53492899D01*
X107236504Y-53485019D01*
X107236467Y-53484734D01*
X107229297Y-53454024D01*
X107221673Y-53434212D01*
X107221899Y-53425261D01*
X107224159Y-53421901D01*
X107480567Y-53155269D01*
X107488771Y-53151681D01*
X107497433Y-53155269D01*
G37*
%TD.AperFunction*%
%TD*%
%TA.AperFunction,Conductor*%
%TO.N,VCC*%
G36*
X95166694Y-54586620D02*
G01*
X95208042Y-54626383D01*
X95208042Y-54626382D01*
X95582000Y-54986000D01*
X95421095Y-55140735D01*
X95421094Y-55140735D01*
X95419502Y-55142266D01*
X95166695Y-55385379D01*
X95158356Y-55388644D01*
X95153537Y-55387501D01*
X95090809Y-55357498D01*
X95090769Y-55357479D01*
X95027604Y-55328767D01*
X95027534Y-55328738D01*
X94968963Y-55304621D01*
X94968953Y-55304617D01*
X94968819Y-55304562D01*
X94968687Y-55304516D01*
X94968667Y-55304508D01*
X94927850Y-55290173D01*
X94911879Y-55284563D01*
X94911704Y-55284514D01*
X94854436Y-55268520D01*
X94854430Y-55268519D01*
X94854249Y-55268468D01*
X94793392Y-55255975D01*
X94793211Y-55255950D01*
X94726957Y-55246808D01*
X94726953Y-55246808D01*
X94726775Y-55246783D01*
X94701025Y-55244655D01*
X94651996Y-55240602D01*
X94651984Y-55240601D01*
X94651860Y-55240591D01*
X94651737Y-55240586D01*
X94651721Y-55240585D01*
X94596649Y-55238341D01*
X94566113Y-55237097D01*
X94467000Y-55236000D01*
X94467000Y-54736000D01*
X94566113Y-54734902D01*
X94622687Y-54732597D01*
X94651721Y-54731414D01*
X94651737Y-54731413D01*
X94651860Y-54731408D01*
X94651984Y-54731398D01*
X94651996Y-54731397D01*
X94701025Y-54727344D01*
X94726775Y-54725216D01*
X94726953Y-54725191D01*
X94726957Y-54725191D01*
X94793211Y-54716049D01*
X94793212Y-54716049D01*
X94793392Y-54716024D01*
X94854249Y-54703531D01*
X94854430Y-54703480D01*
X94854436Y-54703479D01*
X94911704Y-54687485D01*
X94911707Y-54687484D01*
X94911879Y-54687436D01*
X94927850Y-54681826D01*
X94968667Y-54667491D01*
X94968687Y-54667483D01*
X94968819Y-54667437D01*
X94968953Y-54667382D01*
X94968963Y-54667378D01*
X95027534Y-54643261D01*
X95027541Y-54643258D01*
X95027604Y-54643232D01*
X95090769Y-54614520D01*
X95090793Y-54614508D01*
X95090818Y-54614497D01*
X95149100Y-54586620D01*
X95153537Y-54584498D01*
X95162478Y-54584020D01*
X95166694Y-54586620D01*
G37*
%TD.AperFunction*%
%TD*%
%TA.AperFunction,Conductor*%
%TO.N,VCC*%
G36*
X94046312Y-54616582D02*
G01*
X94107071Y-54642351D01*
X94168911Y-54666453D01*
X94203157Y-54678113D01*
X94226650Y-54686112D01*
X94226660Y-54686115D01*
X94226789Y-54686159D01*
X94283086Y-54701884D01*
X94283267Y-54701923D01*
X94283281Y-54701926D01*
X94340009Y-54714008D01*
X94340017Y-54714009D01*
X94340184Y-54714045D01*
X94357794Y-54716679D01*
X94400292Y-54723036D01*
X94400307Y-54723038D01*
X94400462Y-54723061D01*
X94400627Y-54723077D01*
X94400629Y-54723077D01*
X94406791Y-54723665D01*
X94466302Y-54729347D01*
X94466432Y-54729354D01*
X94466445Y-54729355D01*
X94498242Y-54731067D01*
X94540084Y-54733321D01*
X94540155Y-54733323D01*
X94540161Y-54733323D01*
X94580227Y-54734313D01*
X94580233Y-54734313D01*
X94624190Y-54735399D01*
X94721000Y-54736000D01*
X94721000Y-55236000D01*
X94627732Y-55236757D01*
X94546551Y-55239325D01*
X94546451Y-55239332D01*
X94546446Y-55239332D01*
X94532974Y-55240242D01*
X94475264Y-55244142D01*
X94411682Y-55251649D01*
X94411527Y-55251677D01*
X94411523Y-55251678D01*
X94353803Y-55262251D01*
X94353793Y-55262253D01*
X94353614Y-55262286D01*
X94298870Y-55276493D01*
X94245259Y-55294710D01*
X94245111Y-55294772D01*
X94245096Y-55294777D01*
X94206728Y-55310686D01*
X94190590Y-55317378D01*
X94190479Y-55317431D01*
X94190465Y-55317437D01*
X94155335Y-55334154D01*
X94132675Y-55344937D01*
X94088878Y-55367675D01*
X94076464Y-55374119D01*
X94067542Y-55374890D01*
X94063305Y-55372484D01*
X93665767Y-55019531D01*
X93661856Y-55011476D01*
X93665096Y-55002678D01*
X94033306Y-54619249D01*
X94041508Y-54615655D01*
X94046312Y-54616582D01*
G37*
%TD.AperFunction*%
%TD*%
%TA.AperFunction,Conductor*%
%TO.N,VCC*%
G36*
X107495930Y-53154646D02*
G01*
X107746928Y-53449708D01*
X107744188Y-53457652D01*
X107742125Y-53470719D01*
X107740647Y-53488457D01*
X107740436Y-53493152D01*
X107740436Y-53493155D01*
X107739662Y-53510413D01*
X107739079Y-53536137D01*
X107739079Y-53536178D01*
X107738807Y-53565174D01*
X107738754Y-53597074D01*
X107738754Y-53597100D01*
X107738830Y-53631384D01*
X107738830Y-53631420D01*
X107738942Y-53667634D01*
X107738942Y-53667652D01*
X107738988Y-53697849D01*
X107738155Y-53702202D01*
X107736868Y-53705427D01*
X107241199Y-53705427D01*
X107239789Y-53701753D01*
X107239012Y-53697542D01*
X107239057Y-53667670D01*
X107239057Y-53667652D01*
X107239169Y-53631384D01*
X107239245Y-53597074D01*
X107239245Y-53597055D01*
X107239192Y-53565174D01*
X107238920Y-53536178D01*
X107238920Y-53536137D01*
X107238337Y-53510413D01*
X107238332Y-53510295D01*
X107237575Y-53493415D01*
X107237574Y-53493401D01*
X107237352Y-53488457D01*
X107235874Y-53470719D01*
X107233811Y-53457652D01*
X107231072Y-53449708D01*
X107482117Y-53154591D01*
X107488771Y-53151681D01*
X107495930Y-53154646D01*
G37*
%TD.AperFunction*%
%TD*%
%TA.AperFunction,Conductor*%
%TO.N,VCC*%
G36*
X109985480Y-55748427D02*
G01*
X109988907Y-55756792D01*
X109988478Y-55811474D01*
X109987233Y-55873073D01*
X109985746Y-55929913D01*
X109984499Y-55982109D01*
X109983972Y-56029777D01*
X109984648Y-56073032D01*
X109987007Y-56111989D01*
X109991532Y-56146765D01*
X109998702Y-56177475D01*
X110006327Y-56197288D01*
X110006101Y-56206238D01*
X110003841Y-56209599D01*
X109747433Y-56476231D01*
X109739229Y-56479819D01*
X109730567Y-56476231D01*
X109474159Y-56209599D01*
X109470894Y-56201260D01*
X109471673Y-56197287D01*
X109479149Y-56177859D01*
X109479297Y-56177475D01*
X109486467Y-56146765D01*
X109490992Y-56111989D01*
X109493351Y-56073032D01*
X109494027Y-56029777D01*
X109493500Y-55982109D01*
X109492253Y-55929913D01*
X109490766Y-55873073D01*
X109489521Y-55811474D01*
X109489092Y-55756791D01*
X109492454Y-55748492D01*
X109500792Y-55745000D01*
X109977207Y-55745000D01*
X109985480Y-55748427D01*
G37*
%TD.AperFunction*%
%TD*%
%TA.AperFunction,Conductor*%
%TO.N,VCC*%
G36*
X95817729Y-54188082D02*
G01*
X96154918Y-54525271D01*
X96158345Y-54533544D01*
X96155009Y-54541725D01*
X96136232Y-54560923D01*
X96093792Y-54604313D01*
X96035631Y-54667415D01*
X95987037Y-54724766D01*
X95946430Y-54778371D01*
X95912232Y-54830236D01*
X95882862Y-54882368D01*
X95856741Y-54936772D01*
X95856687Y-54936901D01*
X95856680Y-54936917D01*
X95832323Y-54995374D01*
X95832290Y-54995454D01*
X95807928Y-55060421D01*
X95807894Y-55060518D01*
X95784775Y-55126031D01*
X95778791Y-55132693D01*
X95773971Y-55133836D01*
X95506555Y-55139064D01*
X95421094Y-55140735D01*
X95197901Y-55145099D01*
X95208042Y-54626383D01*
X95209164Y-54569028D01*
X95212751Y-54560825D01*
X95216967Y-54558225D01*
X95282476Y-54535107D01*
X95282578Y-54535071D01*
X95347545Y-54510709D01*
X95347612Y-54510681D01*
X95347625Y-54510676D01*
X95406082Y-54486319D01*
X95406098Y-54486312D01*
X95406227Y-54486258D01*
X95460631Y-54460137D01*
X95460786Y-54460050D01*
X95460795Y-54460045D01*
X95512596Y-54430861D01*
X95512763Y-54430767D01*
X95512913Y-54430668D01*
X95512923Y-54430662D01*
X95536152Y-54415345D01*
X95564628Y-54396569D01*
X95618233Y-54355962D01*
X95675584Y-54307368D01*
X95738686Y-54249207D01*
X95738723Y-54249170D01*
X95738744Y-54249151D01*
X95801275Y-54187991D01*
X95809586Y-54184656D01*
X95817729Y-54188082D01*
G37*
%TD.AperFunction*%
%TD*%
%TA.AperFunction,Conductor*%
%TO.N,Net-(F1-Pad1)*%
G36*
X99055687Y-56191910D02*
G01*
X99123309Y-56230500D01*
X99190351Y-56267608D01*
X99252552Y-56299443D01*
X99312716Y-56326248D01*
X99312904Y-56326316D01*
X99312914Y-56326320D01*
X99366330Y-56345621D01*
X99373648Y-56348265D01*
X99438153Y-56365735D01*
X99509036Y-56378902D01*
X99589101Y-56388006D01*
X99616026Y-56389552D01*
X99681044Y-56393286D01*
X99681060Y-56393287D01*
X99681154Y-56393292D01*
X99681244Y-56393293D01*
X99681259Y-56393294D01*
X99776487Y-56394816D01*
X99784704Y-56398375D01*
X99788000Y-56406515D01*
X99788000Y-56883448D01*
X99784573Y-56891721D01*
X99776449Y-56895147D01*
X99674460Y-56896441D01*
X99576866Y-56900874D01*
X99576774Y-56900882D01*
X99576762Y-56900883D01*
X99542001Y-56903991D01*
X99492037Y-56908458D01*
X99451127Y-56914382D01*
X99416973Y-56919328D01*
X99416962Y-56919330D01*
X99416789Y-56919355D01*
X99382366Y-56926540D01*
X99348124Y-56933687D01*
X99348118Y-56933689D01*
X99347943Y-56933725D01*
X99282316Y-56951730D01*
X99282187Y-56951773D01*
X99282180Y-56951775D01*
X99216857Y-56973485D01*
X99216836Y-56973492D01*
X99216726Y-56973529D01*
X99216608Y-56973573D01*
X99216586Y-56973581D01*
X99171198Y-56990589D01*
X99147993Y-56999284D01*
X99147953Y-56999300D01*
X99072934Y-57029156D01*
X99003348Y-57057256D01*
X98995938Y-57060248D01*
X98986983Y-57060168D01*
X98982887Y-57057256D01*
X98571496Y-56603280D01*
X98568480Y-56594848D01*
X98572654Y-56586453D01*
X98915314Y-56299508D01*
X99042379Y-56193103D01*
X99050922Y-56190419D01*
X99055687Y-56191910D01*
G37*
%TD.AperFunction*%
%TD*%
%TA.AperFunction,Conductor*%
%TO.N,GND*%
G36*
X120445637Y-51246747D02*
G01*
X120447961Y-51247281D01*
X120457264Y-51249421D01*
X120457266Y-51249421D01*
X120462641Y-51250657D01*
X120468023Y-51249439D01*
X120468024Y-51249439D01*
X120474265Y-51248027D01*
X120487826Y-51246895D01*
X120628000Y-51254767D01*
X120773696Y-51262950D01*
X120779156Y-51263565D01*
X121083237Y-51315230D01*
X121088594Y-51316453D01*
X121311007Y-51380529D01*
X121384972Y-51401838D01*
X121384975Y-51401839D01*
X121390158Y-51403653D01*
X121675117Y-51521687D01*
X121680060Y-51524067D01*
X121784024Y-51581526D01*
X121950017Y-51673267D01*
X121954670Y-51676191D01*
X122206215Y-51854672D01*
X122210511Y-51858098D01*
X122440493Y-52063623D01*
X122444378Y-52067508D01*
X122649903Y-52297489D01*
X122653329Y-52301785D01*
X122704195Y-52373474D01*
X122831813Y-52553334D01*
X122834732Y-52557980D01*
X122962333Y-52788856D01*
X122983932Y-52827937D01*
X122986314Y-52832884D01*
X123086435Y-53074597D01*
X123104347Y-53117840D01*
X123106161Y-53123024D01*
X123112499Y-53145023D01*
X123191547Y-53419407D01*
X123192770Y-53424764D01*
X123244435Y-53728845D01*
X123245050Y-53734305D01*
X123254856Y-53908904D01*
X123257975Y-53964435D01*
X123261081Y-54019747D01*
X123259911Y-54033478D01*
X123258580Y-54039264D01*
X123258580Y-54039267D01*
X123257344Y-54044642D01*
X123261168Y-54061542D01*
X123261292Y-54062088D01*
X123262500Y-54072903D01*
X123262500Y-61016657D01*
X123261254Y-61027637D01*
X123257344Y-61044641D01*
X123258562Y-61050023D01*
X123258562Y-61050024D01*
X123259974Y-61056265D01*
X123261106Y-61069829D01*
X123245051Y-61355696D01*
X123244436Y-61361156D01*
X123192771Y-61665237D01*
X123191548Y-61670594D01*
X123146344Y-61827500D01*
X123118168Y-61925303D01*
X123106162Y-61966975D01*
X123104348Y-61972158D01*
X123071471Y-62051532D01*
X122986316Y-62257114D01*
X122983932Y-62262065D01*
X122834734Y-62532017D01*
X122831816Y-62536662D01*
X122653323Y-62788225D01*
X122649903Y-62792512D01*
X122444378Y-63022493D01*
X122440493Y-63026378D01*
X122210512Y-63231903D01*
X122206225Y-63235323D01*
X121954668Y-63413812D01*
X121950017Y-63416734D01*
X121815041Y-63491333D01*
X121680063Y-63565933D01*
X121675118Y-63568314D01*
X121390161Y-63686347D01*
X121384977Y-63688161D01*
X121311007Y-63709472D01*
X121088594Y-63773548D01*
X121083237Y-63774771D01*
X120779156Y-63826436D01*
X120773696Y-63827051D01*
X120542871Y-63840015D01*
X120488254Y-63843082D01*
X120474526Y-63841912D01*
X120463359Y-63839344D01*
X120445910Y-63843292D01*
X120435098Y-63844500D01*
X84491344Y-63844500D01*
X84480363Y-63843254D01*
X84479616Y-63843082D01*
X84478040Y-63842720D01*
X84468737Y-63840580D01*
X84468735Y-63840580D01*
X84463360Y-63839344D01*
X84457978Y-63840562D01*
X84457977Y-63840562D01*
X84451736Y-63841974D01*
X84438175Y-63843106D01*
X84298001Y-63835234D01*
X84152305Y-63827051D01*
X84146845Y-63826436D01*
X83842763Y-63774771D01*
X83837406Y-63773548D01*
X83541025Y-63688163D01*
X83535839Y-63686348D01*
X83535837Y-63686347D01*
X83250883Y-63568315D01*
X83245940Y-63565935D01*
X83110960Y-63491334D01*
X82975984Y-63416735D01*
X82971339Y-63413817D01*
X82719776Y-63235324D01*
X82715489Y-63231904D01*
X82485507Y-63026379D01*
X82481622Y-63022494D01*
X82276097Y-62792512D01*
X82272677Y-62788225D01*
X82181189Y-62659284D01*
X101356001Y-62659284D01*
X101356261Y-62662832D01*
X101366150Y-62730023D01*
X101368386Y-62737217D01*
X101419208Y-62840728D01*
X101423860Y-62847226D01*
X101505301Y-62928525D01*
X101511810Y-62933168D01*
X101615419Y-62983813D01*
X101622593Y-62986030D01*
X101689173Y-62995743D01*
X101692710Y-62996000D01*
X101821253Y-62996000D01*
X101828145Y-62993145D01*
X101831000Y-62986253D01*
X101831000Y-62986252D01*
X102131000Y-62986252D01*
X102133855Y-62993144D01*
X102140747Y-62995999D01*
X102269284Y-62995999D01*
X102272832Y-62995739D01*
X102340023Y-62985850D01*
X102347217Y-62983614D01*
X102450728Y-62932792D01*
X102457226Y-62928140D01*
X102538525Y-62846699D01*
X102543168Y-62840190D01*
X102593813Y-62736581D01*
X102596030Y-62729407D01*
X102605743Y-62662827D01*
X102606000Y-62659290D01*
X102606000Y-62455747D01*
X102603145Y-62448855D01*
X102596253Y-62446000D01*
X102140747Y-62446000D01*
X102133855Y-62448855D01*
X102131000Y-62455747D01*
X102131000Y-62986252D01*
X101831000Y-62986252D01*
X101831000Y-62455747D01*
X101828145Y-62448855D01*
X101821253Y-62446000D01*
X101365748Y-62446000D01*
X101358856Y-62448855D01*
X101356001Y-62455747D01*
X101356001Y-62659284D01*
X82181189Y-62659284D01*
X82094184Y-62536662D01*
X82091266Y-62532017D01*
X81942068Y-62262065D01*
X81939684Y-62257114D01*
X81889622Y-62136253D01*
X101356000Y-62136253D01*
X101358855Y-62143145D01*
X101365747Y-62146000D01*
X101821253Y-62146000D01*
X101828145Y-62143145D01*
X101831000Y-62136253D01*
X102131000Y-62136253D01*
X102133855Y-62143145D01*
X102140747Y-62146000D01*
X102596252Y-62146000D01*
X102603144Y-62143145D01*
X102605999Y-62136253D01*
X102605999Y-61932716D01*
X102605739Y-61929168D01*
X102595850Y-61861977D01*
X102593614Y-61854783D01*
X102542792Y-61751272D01*
X102538140Y-61744774D01*
X102456699Y-61663475D01*
X102450190Y-61658832D01*
X102346581Y-61608187D01*
X102339407Y-61605970D01*
X102272827Y-61596257D01*
X102269290Y-61596000D01*
X102140747Y-61596000D01*
X102133855Y-61598855D01*
X102131000Y-61605747D01*
X102131000Y-62136253D01*
X101831000Y-62136253D01*
X101831000Y-61605748D01*
X101828145Y-61598856D01*
X101821253Y-61596001D01*
X101692716Y-61596001D01*
X101689168Y-61596261D01*
X101621977Y-61606150D01*
X101614783Y-61608386D01*
X101511272Y-61659208D01*
X101504774Y-61663860D01*
X101423475Y-61745301D01*
X101418832Y-61751810D01*
X101368187Y-61855419D01*
X101365970Y-61862593D01*
X101356257Y-61929173D01*
X101356000Y-61932710D01*
X101356000Y-62136253D01*
X81889622Y-62136253D01*
X81854530Y-62051532D01*
X81821652Y-61972158D01*
X81819838Y-61966975D01*
X81807833Y-61925303D01*
X81791697Y-61869295D01*
X97604000Y-61869295D01*
X97604468Y-61874052D01*
X97614663Y-61925303D01*
X97618285Y-61934049D01*
X97657128Y-61992181D01*
X97663819Y-61998872D01*
X97721951Y-62037715D01*
X97730697Y-62041337D01*
X97781948Y-62051532D01*
X97786705Y-62052000D01*
X98194253Y-62052000D01*
X98201145Y-62049145D01*
X98204000Y-62042253D01*
X98504000Y-62042253D01*
X98506855Y-62049145D01*
X98513747Y-62052000D01*
X98921295Y-62052000D01*
X98926052Y-62051532D01*
X98977303Y-62041337D01*
X98986049Y-62037715D01*
X99044181Y-61998872D01*
X99050872Y-61992181D01*
X99089715Y-61934049D01*
X99093337Y-61925303D01*
X99103532Y-61874052D01*
X99104000Y-61869295D01*
X99104000Y-61461747D01*
X99101145Y-61454855D01*
X99094253Y-61452000D01*
X98513747Y-61452000D01*
X98506855Y-61454855D01*
X98504000Y-61461747D01*
X98504000Y-62042253D01*
X98204000Y-62042253D01*
X98204000Y-61461747D01*
X98201145Y-61454855D01*
X98194253Y-61452000D01*
X97613747Y-61452000D01*
X97606855Y-61454855D01*
X97604000Y-61461747D01*
X97604000Y-61869295D01*
X81791697Y-61869295D01*
X81779656Y-61827500D01*
X81734452Y-61670594D01*
X81733229Y-61665237D01*
X81681564Y-61361156D01*
X81680949Y-61355695D01*
X81668962Y-61142253D01*
X97604000Y-61142253D01*
X97606855Y-61149145D01*
X97613747Y-61152000D01*
X98194253Y-61152000D01*
X98201145Y-61149145D01*
X98204000Y-61142253D01*
X98504000Y-61142253D01*
X98506855Y-61149145D01*
X98513747Y-61152000D01*
X99094253Y-61152000D01*
X99101145Y-61149145D01*
X99104000Y-61142253D01*
X99104000Y-60734705D01*
X99103532Y-60729948D01*
X99093337Y-60678697D01*
X99089715Y-60669951D01*
X99050872Y-60611819D01*
X99044181Y-60605128D01*
X99021003Y-60589641D01*
X102055344Y-60589641D01*
X102056942Y-60596702D01*
X102057730Y-60601116D01*
X102073125Y-60718046D01*
X102122549Y-60837367D01*
X102201171Y-60939829D01*
X102303634Y-61018451D01*
X102306597Y-61019678D01*
X102306600Y-61019680D01*
X102419988Y-61066647D01*
X102419992Y-61066648D01*
X102422954Y-61067875D01*
X102426135Y-61068294D01*
X102426136Y-61068294D01*
X102547817Y-61084314D01*
X102551000Y-61084733D01*
X102679046Y-61067875D01*
X102798367Y-61018451D01*
X102900829Y-60939829D01*
X102979451Y-60837367D01*
X103028875Y-60718046D01*
X103032919Y-60687329D01*
X103051671Y-60654851D01*
X103087896Y-60645144D01*
X103120374Y-60663896D01*
X103130500Y-60693725D01*
X103130500Y-61431471D01*
X103129484Y-61441395D01*
X103125418Y-61461055D01*
X103125400Y-61463463D01*
X103124815Y-61540703D01*
X103124795Y-61541772D01*
X103122912Y-61605748D01*
X103122594Y-61616538D01*
X103122518Y-61618173D01*
X103121847Y-61628839D01*
X103106640Y-61659881D01*
X103107341Y-61660581D01*
X103020199Y-61747875D01*
X103018420Y-61751515D01*
X103018419Y-61751516D01*
X102983754Y-61822433D01*
X102966032Y-61858689D01*
X102955500Y-61930883D01*
X102955501Y-62661116D01*
X102955760Y-62662872D01*
X102955760Y-62662879D01*
X102962304Y-62707334D01*
X102966220Y-62733939D01*
X102967897Y-62737354D01*
X102967897Y-62737355D01*
X102970525Y-62742707D01*
X103020581Y-62844659D01*
X103107875Y-62931801D01*
X103111515Y-62933580D01*
X103111516Y-62933581D01*
X103215268Y-62984296D01*
X103218689Y-62985968D01*
X103290883Y-62996500D01*
X103580674Y-62996500D01*
X103871116Y-62996499D01*
X103872872Y-62996240D01*
X103872879Y-62996240D01*
X103922386Y-62988952D01*
X103943939Y-62985780D01*
X103947946Y-62983813D01*
X103994794Y-62960811D01*
X104054659Y-62931419D01*
X104141801Y-62844125D01*
X104179336Y-62767336D01*
X104207446Y-62742511D01*
X104220049Y-62739967D01*
X104244229Y-62738331D01*
X104268788Y-62736669D01*
X104270545Y-62736582D01*
X104289948Y-62735967D01*
X104344234Y-62734248D01*
X104345329Y-62734227D01*
X104424065Y-62733587D01*
X104443968Y-62729501D01*
X104453822Y-62728500D01*
X114760327Y-62728500D01*
X114766085Y-62728840D01*
X114804310Y-62733364D01*
X114863253Y-62722599D01*
X114864708Y-62722358D01*
X114923962Y-62713449D01*
X114927264Y-62711863D01*
X114930574Y-62710845D01*
X114933966Y-62709684D01*
X114937573Y-62709025D01*
X114990701Y-62681427D01*
X114992051Y-62680753D01*
X115012383Y-62670990D01*
X115042777Y-62656395D01*
X115042779Y-62656394D01*
X115046079Y-62654809D01*
X115048768Y-62652323D01*
X115051798Y-62650264D01*
X115051994Y-62650553D01*
X115053187Y-62649714D01*
X115052994Y-62649427D01*
X115055312Y-62647865D01*
X115057788Y-62646579D01*
X115059910Y-62644767D01*
X115062105Y-62642893D01*
X115062113Y-62642885D01*
X115062828Y-62642275D01*
X115101136Y-62603967D01*
X115102523Y-62602633D01*
X115142865Y-62565342D01*
X115142866Y-62565340D01*
X115145556Y-62562854D01*
X115147395Y-62559687D01*
X115149687Y-62556827D01*
X115149724Y-62556857D01*
X115154657Y-62550446D01*
X119499940Y-58205163D01*
X119507778Y-58198796D01*
X119517573Y-58192393D01*
X119524381Y-58187943D01*
X119526099Y-58186260D01*
X119526102Y-58186257D01*
X119874638Y-57844694D01*
X119875432Y-57843933D01*
X120181738Y-57556947D01*
X120182534Y-57556219D01*
X120397257Y-57364301D01*
X120450125Y-57317048D01*
X120450900Y-57316370D01*
X120686897Y-57114199D01*
X120692076Y-57109762D01*
X120692587Y-57109331D01*
X120732060Y-57076442D01*
X120919931Y-56919905D01*
X121143922Y-56734003D01*
X121145519Y-56732663D01*
X121145534Y-56732650D01*
X121145546Y-56732640D01*
X121145634Y-56732566D01*
X121376888Y-56536350D01*
X121380079Y-56533586D01*
X121629849Y-56312677D01*
X121631448Y-56311248D01*
X121631665Y-56311052D01*
X121633868Y-56309033D01*
X121650342Y-56293713D01*
X121798652Y-56155787D01*
X121913395Y-56049078D01*
X121915190Y-56047389D01*
X121915401Y-56047188D01*
X121915409Y-56047181D01*
X121917308Y-56045347D01*
X121917396Y-56045261D01*
X121974033Y-55989897D01*
X122231745Y-55737978D01*
X122245491Y-55720316D01*
X122250615Y-55714695D01*
X122291225Y-55676561D01*
X122291237Y-55676548D01*
X122292349Y-55675504D01*
X122461943Y-55470500D01*
X122483900Y-55443959D01*
X122483902Y-55443956D01*
X122484885Y-55442768D01*
X122567047Y-55313302D01*
X122645905Y-55189041D01*
X122645907Y-55189037D01*
X122646733Y-55187736D01*
X122677772Y-55121775D01*
X122774691Y-54915812D01*
X122774693Y-54915808D01*
X122775341Y-54914430D01*
X122868681Y-54627160D01*
X122925280Y-54330457D01*
X122940805Y-54083700D01*
X122944149Y-54030542D01*
X122944246Y-54029000D01*
X122937178Y-53916649D01*
X122925377Y-53729085D01*
X122925280Y-53727543D01*
X122868681Y-53430840D01*
X122775341Y-53143570D01*
X122771122Y-53134603D01*
X122647389Y-52871658D01*
X122646733Y-52870264D01*
X122629496Y-52843102D01*
X122497167Y-52634585D01*
X122484885Y-52615232D01*
X122479276Y-52608451D01*
X122404139Y-52517627D01*
X122292349Y-52382496D01*
X122282279Y-52373039D01*
X122201826Y-52297489D01*
X122072162Y-52175726D01*
X121827795Y-51998184D01*
X121563104Y-51852668D01*
X121360559Y-51772475D01*
X121283687Y-51742039D01*
X121283684Y-51742038D01*
X121282262Y-51741475D01*
X120989698Y-51666358D01*
X120988181Y-51666166D01*
X120988179Y-51666166D01*
X120931399Y-51658993D01*
X120690027Y-51628500D01*
X120387973Y-51628500D01*
X120146601Y-51658993D01*
X120089821Y-51666166D01*
X120089819Y-51666166D01*
X120088302Y-51666358D01*
X119795738Y-51741475D01*
X119794316Y-51742038D01*
X119794313Y-51742039D01*
X119717441Y-51772475D01*
X119514896Y-51852668D01*
X119250205Y-51998184D01*
X119005838Y-52175726D01*
X118876174Y-52297489D01*
X118795722Y-52373039D01*
X118785651Y-52382496D01*
X118673861Y-52517627D01*
X118598725Y-52608451D01*
X118593115Y-52615232D01*
X118580833Y-52634585D01*
X118448505Y-52843102D01*
X118431267Y-52870264D01*
X118430611Y-52871658D01*
X118306879Y-53134603D01*
X118302659Y-53143570D01*
X118209319Y-53430840D01*
X118152720Y-53727543D01*
X118152623Y-53729085D01*
X118140823Y-53916649D01*
X118133754Y-54029000D01*
X118133851Y-54030542D01*
X118137195Y-54083700D01*
X118152720Y-54330457D01*
X118209319Y-54627160D01*
X118302659Y-54914430D01*
X118303307Y-54915808D01*
X118303309Y-54915812D01*
X118328326Y-54968976D01*
X118366836Y-55050812D01*
X118371769Y-55061296D01*
X118374349Y-55068025D01*
X118380865Y-55089656D01*
X118380868Y-55089662D01*
X118381561Y-55091964D01*
X118398030Y-55122921D01*
X118421165Y-55166408D01*
X118422243Y-55168559D01*
X118431267Y-55187736D01*
X118434801Y-55193304D01*
X118437957Y-55198278D01*
X118439843Y-55201518D01*
X118493073Y-55301574D01*
X118545563Y-55400240D01*
X118548160Y-55404971D01*
X118548468Y-55405515D01*
X118551288Y-55410341D01*
X118551329Y-55410409D01*
X118711731Y-55676561D01*
X118727913Y-55703412D01*
X118729628Y-55706207D01*
X118899876Y-55978763D01*
X118900579Y-55979925D01*
X119047382Y-56230127D01*
X119049265Y-56233658D01*
X119158740Y-56460910D01*
X119161414Y-56467721D01*
X119224489Y-56672022D01*
X119226535Y-56682839D01*
X119240433Y-56869494D01*
X119239546Y-56883086D01*
X119224716Y-56954563D01*
X119200769Y-57069985D01*
X119200689Y-57070369D01*
X119196202Y-57082987D01*
X119097044Y-57274014D01*
X119086748Y-57293849D01*
X119080751Y-57302821D01*
X119049238Y-57340274D01*
X118879292Y-57542249D01*
X118868391Y-57555204D01*
X118867320Y-57557055D01*
X118867319Y-57557056D01*
X118861577Y-57566978D01*
X118853815Y-57577082D01*
X114617749Y-61813148D01*
X114583101Y-61827500D01*
X104453284Y-61827500D01*
X104443433Y-61826499D01*
X104425986Y-61822918D01*
X104425984Y-61822918D01*
X104423622Y-61822433D01*
X104421213Y-61822418D01*
X104421210Y-61822418D01*
X104358554Y-61822037D01*
X104340535Y-61821927D01*
X104339659Y-61821914D01*
X104261293Y-61820010D01*
X104259909Y-61819956D01*
X104203563Y-61816961D01*
X104169726Y-61800790D01*
X104162182Y-61789629D01*
X104141419Y-61747341D01*
X104054441Y-61660514D01*
X104040157Y-61628916D01*
X104039481Y-61618174D01*
X104039405Y-61616538D01*
X104039088Y-61605748D01*
X104037204Y-61541773D01*
X104037184Y-61540703D01*
X104036600Y-61463441D01*
X104036582Y-61461058D01*
X104032497Y-61441117D01*
X104031500Y-61431283D01*
X104031500Y-61129748D01*
X107638500Y-61129748D01*
X107650133Y-61188231D01*
X107694448Y-61254552D01*
X107760769Y-61298867D01*
X107819252Y-61310500D01*
X109058748Y-61310500D01*
X109117231Y-61298867D01*
X109183552Y-61254552D01*
X109227867Y-61188231D01*
X109239500Y-61129748D01*
X113238500Y-61129748D01*
X113250133Y-61188231D01*
X113294448Y-61254552D01*
X113360769Y-61298867D01*
X113419252Y-61310500D01*
X114658748Y-61310500D01*
X114717231Y-61298867D01*
X114783552Y-61254552D01*
X114827867Y-61188231D01*
X114839500Y-61129748D01*
X114839500Y-59290252D01*
X114827867Y-59231769D01*
X114818549Y-59217823D01*
X114799709Y-59189628D01*
X114783552Y-59165448D01*
X114717231Y-59121133D01*
X114658748Y-59109500D01*
X113419252Y-59109500D01*
X113360769Y-59121133D01*
X113294448Y-59165448D01*
X113278291Y-59189628D01*
X113259452Y-59217823D01*
X113250133Y-59231769D01*
X113238500Y-59290252D01*
X113238500Y-61129748D01*
X109239500Y-61129748D01*
X109239500Y-59290252D01*
X109227867Y-59231769D01*
X109218549Y-59217823D01*
X109199709Y-59189628D01*
X109183552Y-59165448D01*
X109117231Y-59121133D01*
X109058748Y-59109500D01*
X107819252Y-59109500D01*
X107760769Y-59121133D01*
X107694448Y-59165448D01*
X107678291Y-59189628D01*
X107659452Y-59217823D01*
X107650133Y-59231769D01*
X107638500Y-59290252D01*
X107638500Y-61129748D01*
X104031500Y-61129748D01*
X104031500Y-60356899D01*
X104045852Y-60322251D01*
X104118547Y-60249556D01*
X105675001Y-60249556D01*
X105675302Y-60253379D01*
X105689232Y-60341342D01*
X105691585Y-60348582D01*
X105745609Y-60454611D01*
X105750085Y-60460771D01*
X105834229Y-60544915D01*
X105840389Y-60549391D01*
X105946418Y-60603415D01*
X105953658Y-60605768D01*
X106041621Y-60619699D01*
X106045443Y-60620000D01*
X106190253Y-60620000D01*
X106197145Y-60617145D01*
X106200000Y-60610253D01*
X106200000Y-60610252D01*
X106500000Y-60610252D01*
X106502855Y-60617144D01*
X106509747Y-60619999D01*
X106654556Y-60619999D01*
X106658379Y-60619698D01*
X106746342Y-60605768D01*
X106753582Y-60603415D01*
X106859611Y-60549391D01*
X106865771Y-60544915D01*
X106949915Y-60460771D01*
X106954391Y-60454611D01*
X107008415Y-60348582D01*
X107010768Y-60341342D01*
X107024699Y-60253379D01*
X107025000Y-60249557D01*
X107025000Y-60179747D01*
X107022145Y-60172855D01*
X107015253Y-60170000D01*
X106509747Y-60170000D01*
X106502855Y-60172855D01*
X106500000Y-60179747D01*
X106500000Y-60610252D01*
X106200000Y-60610252D01*
X106200000Y-60179747D01*
X106197145Y-60172855D01*
X106190253Y-60170000D01*
X105684748Y-60170000D01*
X105677856Y-60172855D01*
X105675001Y-60179747D01*
X105675001Y-60249556D01*
X104118547Y-60249556D01*
X104233408Y-60134695D01*
X104241706Y-60128031D01*
X104255454Y-60119262D01*
X104255453Y-60119262D01*
X104257486Y-60117966D01*
X104305613Y-60071845D01*
X104332873Y-60045721D01*
X104334785Y-60043984D01*
X104402649Y-59985489D01*
X104405200Y-59983434D01*
X104463238Y-59939813D01*
X104466397Y-59937628D01*
X104517774Y-59904993D01*
X104521285Y-59902962D01*
X104570579Y-59877105D01*
X104573902Y-59875518D01*
X104626502Y-59852787D01*
X104629054Y-59851768D01*
X104689906Y-59829430D01*
X104691351Y-59828925D01*
X104710039Y-59822720D01*
X104763969Y-59804814D01*
X104764227Y-59804730D01*
X104808336Y-59790444D01*
X104848640Y-59777390D01*
X104850836Y-59776666D01*
X104939205Y-59746942D01*
X104973593Y-59730971D01*
X104979090Y-59728810D01*
X105010390Y-59718640D01*
X105012997Y-59717793D01*
X105157623Y-59631578D01*
X105279554Y-59515465D01*
X105281070Y-59513184D01*
X105281072Y-59513181D01*
X105358654Y-59396410D01*
X105372731Y-59375223D01*
X105432521Y-59217823D01*
X105445498Y-59125494D01*
X105455740Y-59052620D01*
X105455740Y-59052615D01*
X105455955Y-59051088D01*
X105456249Y-59030000D01*
X105446324Y-58941511D01*
X105437787Y-58865400D01*
X105437786Y-58865396D01*
X105437481Y-58862676D01*
X105436580Y-58860089D01*
X105436579Y-58860084D01*
X105383009Y-58706254D01*
X105383007Y-58706251D01*
X105382108Y-58703668D01*
X105380659Y-58701349D01*
X105380657Y-58701345D01*
X105294337Y-58563204D01*
X105294336Y-58563203D01*
X105292884Y-58560879D01*
X105290953Y-58558934D01*
X105176174Y-58443351D01*
X105176171Y-58443349D01*
X105174242Y-58441406D01*
X105167218Y-58436948D01*
X105128692Y-58412499D01*
X105032079Y-58351187D01*
X104873462Y-58294706D01*
X104870741Y-58294382D01*
X104870739Y-58294381D01*
X104789867Y-58284737D01*
X104706273Y-58274769D01*
X104703552Y-58275055D01*
X104703549Y-58275055D01*
X104622547Y-58283569D01*
X104538821Y-58292369D01*
X104536228Y-58293252D01*
X104536227Y-58293252D01*
X104513046Y-58301144D01*
X104379431Y-58346630D01*
X104236022Y-58434856D01*
X104234067Y-58436770D01*
X104234065Y-58436772D01*
X104117680Y-58550745D01*
X104117678Y-58550748D01*
X104115724Y-58552661D01*
X104114242Y-58554961D01*
X104114241Y-58554962D01*
X104095275Y-58584392D01*
X104024515Y-58694190D01*
X104020124Y-58706254D01*
X103998993Y-58764309D01*
X103995452Y-58771931D01*
X103984059Y-58791793D01*
X103983292Y-58794072D01*
X103983292Y-58794073D01*
X103954334Y-58880161D01*
X103953609Y-58882359D01*
X103953570Y-58882478D01*
X103926269Y-58966772D01*
X103926157Y-58967115D01*
X103902074Y-59039648D01*
X103901569Y-59041093D01*
X103879231Y-59101945D01*
X103878212Y-59104497D01*
X103855481Y-59157097D01*
X103853894Y-59160420D01*
X103828037Y-59209714D01*
X103826006Y-59213225D01*
X103821461Y-59220381D01*
X103793371Y-59264602D01*
X103791186Y-59267761D01*
X103747565Y-59325799D01*
X103745510Y-59328350D01*
X103687015Y-59396214D01*
X103685278Y-59398126D01*
X103614654Y-59471823D01*
X103613032Y-59473516D01*
X103611761Y-59475486D01*
X103602489Y-59489853D01*
X103595966Y-59497931D01*
X103283435Y-59810462D01*
X103279123Y-59814294D01*
X103248890Y-59838128D01*
X103246807Y-59841142D01*
X103246805Y-59841144D01*
X103214840Y-59887393D01*
X103213945Y-59888646D01*
X103178366Y-59936816D01*
X103177153Y-59940271D01*
X103175511Y-59943372D01*
X103173950Y-59946559D01*
X103171869Y-59949569D01*
X103170765Y-59953060D01*
X103170764Y-59953062D01*
X103153811Y-60006667D01*
X103153338Y-60008085D01*
X103133481Y-60064631D01*
X103133337Y-60068291D01*
X103132651Y-60071890D01*
X103132312Y-60071825D01*
X103132062Y-60073260D01*
X103132397Y-60073325D01*
X103131863Y-60076066D01*
X103131020Y-60078730D01*
X103130801Y-60081514D01*
X103130542Y-60082842D01*
X103109827Y-60114105D01*
X103073073Y-60121563D01*
X103041810Y-60100848D01*
X103033866Y-60079864D01*
X103029294Y-60045136D01*
X103029294Y-60045135D01*
X103028875Y-60041954D01*
X103027648Y-60038992D01*
X103027647Y-60038988D01*
X102980680Y-59925600D01*
X102980678Y-59925597D01*
X102979451Y-59922634D01*
X102900829Y-59820171D01*
X102798367Y-59741549D01*
X102679046Y-59692125D01*
X102551000Y-59675267D01*
X102547817Y-59675686D01*
X102426136Y-59691706D01*
X102426135Y-59691706D01*
X102422954Y-59692125D01*
X102419992Y-59693352D01*
X102419988Y-59693353D01*
X102306600Y-59740320D01*
X102306597Y-59740322D01*
X102303634Y-59741549D01*
X102201171Y-59820171D01*
X102122549Y-59922634D01*
X102121322Y-59925597D01*
X102121320Y-59925600D01*
X102074353Y-60038988D01*
X102074352Y-60038992D01*
X102073125Y-60041954D01*
X102072706Y-60045135D01*
X102072706Y-60045136D01*
X102057919Y-60157455D01*
X102057091Y-60162042D01*
X102056580Y-60164262D01*
X102056580Y-60164266D01*
X102055344Y-60169641D01*
X102057631Y-60179747D01*
X102059292Y-60187087D01*
X102060500Y-60197902D01*
X102060500Y-60372091D01*
X102060041Y-60447253D01*
X102060371Y-60448409D01*
X102060500Y-60450298D01*
X102060500Y-60561657D01*
X102059254Y-60572637D01*
X102055344Y-60589641D01*
X99021003Y-60589641D01*
X98986049Y-60566285D01*
X98977303Y-60562663D01*
X98926052Y-60552468D01*
X98921295Y-60552000D01*
X98513747Y-60552000D01*
X98506855Y-60554855D01*
X98504000Y-60561747D01*
X98504000Y-61142253D01*
X98204000Y-61142253D01*
X98204000Y-60561747D01*
X98201145Y-60554855D01*
X98194253Y-60552000D01*
X97786705Y-60552000D01*
X97781948Y-60552468D01*
X97730697Y-60562663D01*
X97721951Y-60566285D01*
X97663819Y-60605128D01*
X97657128Y-60611819D01*
X97618285Y-60669951D01*
X97614663Y-60678697D01*
X97604468Y-60729948D01*
X97604000Y-60734705D01*
X97604000Y-61142253D01*
X81668962Y-61142253D01*
X81664931Y-61070472D01*
X81666119Y-61056663D01*
X81667301Y-61051565D01*
X81668656Y-61045718D01*
X81668657Y-61045000D01*
X81664728Y-61027776D01*
X81663501Y-61016878D01*
X81663501Y-58270526D01*
X94732001Y-58270526D01*
X94732302Y-58274349D01*
X94747159Y-58368163D01*
X94749512Y-58375403D01*
X94807132Y-58488489D01*
X94811608Y-58494649D01*
X94901351Y-58584392D01*
X94907511Y-58588868D01*
X95020597Y-58646488D01*
X95027837Y-58648841D01*
X95121651Y-58663699D01*
X95125473Y-58664000D01*
X95247253Y-58664000D01*
X95254145Y-58661145D01*
X95257000Y-58654253D01*
X95257000Y-58654252D01*
X95557000Y-58654252D01*
X95559855Y-58661144D01*
X95566747Y-58663999D01*
X95688526Y-58663999D01*
X95692349Y-58663698D01*
X95786163Y-58648841D01*
X95793403Y-58646488D01*
X95906489Y-58588868D01*
X95912649Y-58584392D01*
X96002392Y-58494649D01*
X96006868Y-58488489D01*
X96064488Y-58375403D01*
X96066841Y-58368163D01*
X96081699Y-58274349D01*
X96082000Y-58270527D01*
X96082000Y-58173747D01*
X96079145Y-58166855D01*
X96072253Y-58164000D01*
X95566747Y-58164000D01*
X95559855Y-58166855D01*
X95557000Y-58173747D01*
X95557000Y-58654252D01*
X95257000Y-58654252D01*
X95257000Y-58173747D01*
X95254145Y-58166855D01*
X95247253Y-58164000D01*
X94741748Y-58164000D01*
X94734856Y-58166855D01*
X94732001Y-58173747D01*
X94732001Y-58270526D01*
X81663501Y-58270526D01*
X81663501Y-57854253D01*
X94732000Y-57854253D01*
X94734855Y-57861145D01*
X94741747Y-57864000D01*
X95247253Y-57864000D01*
X95254145Y-57861145D01*
X95257000Y-57854253D01*
X95557000Y-57854253D01*
X95559855Y-57861145D01*
X95566747Y-57864000D01*
X96072252Y-57864000D01*
X96079144Y-57861145D01*
X96081999Y-57854253D01*
X96081999Y-57757474D01*
X96081698Y-57753651D01*
X96066841Y-57659837D01*
X96064488Y-57652597D01*
X96006868Y-57539511D01*
X96002392Y-57533351D01*
X95912649Y-57443608D01*
X95906489Y-57439132D01*
X95793403Y-57381512D01*
X95786163Y-57379159D01*
X95692349Y-57364301D01*
X95688527Y-57364000D01*
X95566747Y-57364000D01*
X95559855Y-57366855D01*
X95557000Y-57373747D01*
X95557000Y-57854253D01*
X95257000Y-57854253D01*
X95257000Y-57373748D01*
X95254145Y-57366856D01*
X95247253Y-57364001D01*
X95125474Y-57364001D01*
X95121651Y-57364302D01*
X95027837Y-57379159D01*
X95020597Y-57381512D01*
X94907511Y-57439132D01*
X94901351Y-57443608D01*
X94811608Y-57533351D01*
X94807132Y-57539511D01*
X94749512Y-57652597D01*
X94747159Y-57659837D01*
X94732301Y-57753651D01*
X94732000Y-57757473D01*
X94732000Y-57854253D01*
X81663501Y-57854253D01*
X81663501Y-54073344D01*
X81664747Y-54062363D01*
X81665290Y-54060000D01*
X82102754Y-54060000D01*
X82102851Y-54061542D01*
X82106856Y-54125200D01*
X82121720Y-54361457D01*
X82178319Y-54658160D01*
X82271659Y-54945430D01*
X82272307Y-54946808D01*
X82272309Y-54946812D01*
X82390640Y-55198278D01*
X82400267Y-55218736D01*
X82401094Y-55220039D01*
X82401095Y-55220041D01*
X82455079Y-55305106D01*
X82562115Y-55473768D01*
X82563098Y-55474956D01*
X82563100Y-55474959D01*
X82614668Y-55537294D01*
X82754651Y-55706504D01*
X82755770Y-55707554D01*
X82755772Y-55707557D01*
X82766152Y-55717304D01*
X82974838Y-55913274D01*
X83101993Y-56005657D01*
X83212461Y-56085916D01*
X83219205Y-56090816D01*
X83220556Y-56091559D01*
X83220558Y-56091560D01*
X83270435Y-56118980D01*
X83483896Y-56236332D01*
X83628824Y-56293713D01*
X83673502Y-56311402D01*
X83764738Y-56347525D01*
X84057302Y-56422642D01*
X84058819Y-56422834D01*
X84058821Y-56422834D01*
X84110680Y-56429385D01*
X84356973Y-56460500D01*
X84659027Y-56460500D01*
X84905320Y-56429385D01*
X84957179Y-56422834D01*
X84957181Y-56422834D01*
X84958698Y-56422642D01*
X85251262Y-56347525D01*
X85338758Y-56312883D01*
X93168500Y-56312883D01*
X93168501Y-56893116D01*
X93168760Y-56894872D01*
X93168760Y-56894879D01*
X93175729Y-56942220D01*
X93179220Y-56965939D01*
X93233581Y-57076659D01*
X93320875Y-57163801D01*
X93324515Y-57165580D01*
X93324516Y-57165581D01*
X93428268Y-57216296D01*
X93431689Y-57217968D01*
X93503883Y-57228500D01*
X93868590Y-57228500D01*
X94234116Y-57228499D01*
X94235872Y-57228240D01*
X94235879Y-57228240D01*
X94298487Y-57219024D01*
X94306939Y-57217780D01*
X94317659Y-57212517D01*
X94377543Y-57183115D01*
X94417659Y-57163419D01*
X94504486Y-57076441D01*
X94536083Y-57062157D01*
X94546851Y-57061480D01*
X94548441Y-57061406D01*
X94623153Y-57059206D01*
X94624222Y-57059186D01*
X94625295Y-57059178D01*
X94647261Y-57059012D01*
X94648282Y-57059015D01*
X94695019Y-57059636D01*
X94735646Y-57060176D01*
X94736270Y-57060190D01*
X94756348Y-57060730D01*
X94817952Y-57062387D01*
X94818815Y-57062418D01*
X94863376Y-57064404D01*
X94890227Y-57065601D01*
X94891188Y-57065653D01*
X94955999Y-57069903D01*
X94956998Y-57069979D01*
X94960167Y-57070257D01*
X94978126Y-57075410D01*
X95020437Y-57096968D01*
X95023874Y-57098719D01*
X95027679Y-57099322D01*
X95027680Y-57099322D01*
X95058859Y-57104260D01*
X95123512Y-57114500D01*
X95690488Y-57114500D01*
X95755141Y-57104260D01*
X95786320Y-57099322D01*
X95786321Y-57099322D01*
X95790126Y-57098719D01*
X95863359Y-57061405D01*
X95906786Y-57039278D01*
X95906787Y-57039277D01*
X95910220Y-57037528D01*
X96000402Y-56947346D01*
X96028352Y-56933454D01*
X96040690Y-56931752D01*
X96058419Y-56929305D01*
X96061080Y-56929012D01*
X96062013Y-56928935D01*
X96102831Y-56925561D01*
X96110807Y-56925553D01*
X96120490Y-56926336D01*
X96125046Y-56926704D01*
X96128799Y-56927154D01*
X96177468Y-56934900D01*
X96182103Y-56935870D01*
X96206838Y-56942305D01*
X96236757Y-56964918D01*
X96243501Y-56989726D01*
X96243501Y-57120332D01*
X96246440Y-57151434D01*
X96247428Y-57154247D01*
X96247429Y-57154252D01*
X96284349Y-57259385D01*
X96290702Y-57277476D01*
X96370070Y-57384930D01*
X96477524Y-57464298D01*
X96480985Y-57465513D01*
X96480986Y-57465514D01*
X96543139Y-57487340D01*
X96603566Y-57508560D01*
X96606538Y-57508841D01*
X96633521Y-57511392D01*
X96633528Y-57511392D01*
X96634667Y-57511500D01*
X96790247Y-57511500D01*
X96824895Y-57525852D01*
X96840516Y-57541473D01*
X96842022Y-57543047D01*
X96860039Y-57562742D01*
X96862615Y-57565507D01*
X96922923Y-57629045D01*
X96931248Y-57637816D01*
X96931370Y-57637944D01*
X96933829Y-57640488D01*
X96933856Y-57640516D01*
X96997313Y-57705019D01*
X97007957Y-57715839D01*
X97022990Y-57726018D01*
X97025537Y-57727743D01*
X97032711Y-57733668D01*
X97290123Y-57991080D01*
X97297077Y-57999839D01*
X97306358Y-58014753D01*
X97308003Y-58016508D01*
X97376794Y-58089904D01*
X97379312Y-58092812D01*
X97431177Y-58157674D01*
X97433913Y-58161451D01*
X97469715Y-58216182D01*
X97472297Y-58220621D01*
X97497563Y-58269820D01*
X97499578Y-58274279D01*
X97519312Y-58324482D01*
X97520555Y-58328042D01*
X97532835Y-58368163D01*
X97538236Y-58385809D01*
X97538814Y-58387858D01*
X97556936Y-58457792D01*
X97557027Y-58458148D01*
X97577431Y-58539398D01*
X97577439Y-58539429D01*
X97577474Y-58539564D01*
X97577477Y-58539577D01*
X97578052Y-58541811D01*
X97578057Y-58541831D01*
X97578070Y-58541882D01*
X97578123Y-58542081D01*
X97578661Y-58544075D01*
X97601749Y-58628099D01*
X97603500Y-58641082D01*
X97603500Y-59071748D01*
X97615133Y-59130231D01*
X97617815Y-59134245D01*
X97627006Y-59148000D01*
X97659448Y-59196552D01*
X97725769Y-59240867D01*
X97784252Y-59252500D01*
X98923748Y-59252500D01*
X98982231Y-59240867D01*
X99048552Y-59196552D01*
X99080994Y-59148000D01*
X99090185Y-59134245D01*
X99092867Y-59130231D01*
X99104500Y-59071748D01*
X99104500Y-59019455D01*
X99645825Y-59019455D01*
X99646092Y-59022178D01*
X99646092Y-59022179D01*
X99660533Y-59169459D01*
X99662255Y-59187025D01*
X99715402Y-59346791D01*
X99716821Y-59349135D01*
X99716822Y-59349136D01*
X99749496Y-59403087D01*
X99802624Y-59490812D01*
X99804524Y-59492780D01*
X99804526Y-59492782D01*
X99826431Y-59515465D01*
X99919586Y-59611929D01*
X100060475Y-59704125D01*
X100099505Y-59718640D01*
X100215725Y-59761862D01*
X100215729Y-59761863D01*
X100218289Y-59762815D01*
X100220998Y-59763176D01*
X100221000Y-59763177D01*
X100301736Y-59773949D01*
X100385183Y-59785083D01*
X100387908Y-59784835D01*
X100387910Y-59784835D01*
X100550132Y-59770072D01*
X100550135Y-59770071D01*
X100552864Y-59769823D01*
X100712997Y-59717793D01*
X100857623Y-59631578D01*
X100979554Y-59515465D01*
X100981070Y-59513184D01*
X100981072Y-59513181D01*
X101058654Y-59396410D01*
X101072731Y-59375223D01*
X101132521Y-59217823D01*
X101145498Y-59125494D01*
X101155740Y-59052620D01*
X101155740Y-59052615D01*
X101155955Y-59051088D01*
X101156249Y-59030000D01*
X101146324Y-58941511D01*
X101137787Y-58865400D01*
X101137786Y-58865396D01*
X101137481Y-58862676D01*
X101136580Y-58860089D01*
X101136579Y-58860084D01*
X101083009Y-58706254D01*
X101083007Y-58706251D01*
X101082108Y-58703668D01*
X101080659Y-58701349D01*
X101080657Y-58701345D01*
X100994337Y-58563204D01*
X100994336Y-58563203D01*
X100992884Y-58560879D01*
X100990953Y-58558934D01*
X100876174Y-58443351D01*
X100876171Y-58443349D01*
X100874242Y-58441406D01*
X100867218Y-58436948D01*
X100828692Y-58412499D01*
X100732079Y-58351187D01*
X100573462Y-58294706D01*
X100570741Y-58294382D01*
X100570739Y-58294381D01*
X100489867Y-58284737D01*
X100406273Y-58274769D01*
X100403552Y-58275055D01*
X100403549Y-58275055D01*
X100322547Y-58283569D01*
X100238821Y-58292369D01*
X100236228Y-58293252D01*
X100236227Y-58293252D01*
X100213046Y-58301144D01*
X100079431Y-58346630D01*
X99936022Y-58434856D01*
X99934067Y-58436770D01*
X99934065Y-58436772D01*
X99817680Y-58550745D01*
X99817678Y-58550748D01*
X99815724Y-58552661D01*
X99814242Y-58554961D01*
X99814241Y-58554962D01*
X99795275Y-58584392D01*
X99724515Y-58694190D01*
X99666927Y-58852409D01*
X99645825Y-59019455D01*
X99104500Y-59019455D01*
X99104500Y-57932252D01*
X99092867Y-57873769D01*
X99086340Y-57864000D01*
X99051232Y-57811459D01*
X99048552Y-57807448D01*
X98982231Y-57763133D01*
X98923748Y-57751500D01*
X98493082Y-57751500D01*
X98480099Y-57749749D01*
X98396165Y-57726686D01*
X98396150Y-57726682D01*
X98396041Y-57726652D01*
X98393681Y-57726018D01*
X98393669Y-57726015D01*
X98393621Y-57726002D01*
X98393576Y-57725991D01*
X98393494Y-57725969D01*
X98391459Y-57725447D01*
X98391324Y-57725413D01*
X98310117Y-57705019D01*
X98309761Y-57704928D01*
X98239858Y-57686814D01*
X98237820Y-57686239D01*
X98180042Y-57668555D01*
X98176482Y-57667312D01*
X98126279Y-57647578D01*
X98121820Y-57645563D01*
X98072621Y-57620297D01*
X98068182Y-57617715D01*
X98013451Y-57581913D01*
X98009674Y-57579177D01*
X97944812Y-57527312D01*
X97941904Y-57524794D01*
X97939728Y-57522754D01*
X97866753Y-57454358D01*
X97851039Y-57444402D01*
X97842616Y-57437659D01*
X97622720Y-57217763D01*
X97608368Y-57183115D01*
X97611136Y-57166880D01*
X97615570Y-57154253D01*
X97615570Y-57154252D01*
X97616560Y-57151434D01*
X97618201Y-57134078D01*
X97619392Y-57121479D01*
X97619392Y-57121472D01*
X97619500Y-57120333D01*
X97619499Y-56101668D01*
X97617498Y-56080489D01*
X97616841Y-56073537D01*
X97616841Y-56073535D01*
X97616560Y-56070566D01*
X97615572Y-56067753D01*
X97615571Y-56067748D01*
X97573514Y-55947986D01*
X97573513Y-55947985D01*
X97572298Y-55944524D01*
X97492930Y-55837070D01*
X97385476Y-55757702D01*
X97382015Y-55756487D01*
X97382014Y-55756486D01*
X97262253Y-55714430D01*
X97259434Y-55713440D01*
X97256462Y-55713159D01*
X97229479Y-55710608D01*
X97229472Y-55710608D01*
X97228333Y-55710500D01*
X96931629Y-55710500D01*
X96634668Y-55710501D01*
X96615397Y-55712322D01*
X96606537Y-55713159D01*
X96606535Y-55713159D01*
X96603566Y-55713440D01*
X96600753Y-55714428D01*
X96600748Y-55714429D01*
X96480986Y-55756486D01*
X96480985Y-55756487D01*
X96477524Y-55757702D01*
X96370070Y-55837070D01*
X96290702Y-55944524D01*
X96289487Y-55947984D01*
X96289486Y-55947986D01*
X96281792Y-55969897D01*
X96256771Y-55997833D01*
X96238109Y-56002596D01*
X96220992Y-56003487D01*
X96198161Y-56004676D01*
X96196993Y-56004723D01*
X96191766Y-56004868D01*
X96162618Y-56005679D01*
X96159262Y-56005657D01*
X96142786Y-56004986D01*
X96125791Y-56004294D01*
X96123795Y-56004171D01*
X96061076Y-55998987D01*
X96058418Y-55998694D01*
X96028350Y-55994545D01*
X96000401Y-55980653D01*
X95910220Y-55890472D01*
X95906787Y-55888723D01*
X95906786Y-55888722D01*
X95833140Y-55851198D01*
X95790126Y-55829281D01*
X95786321Y-55828678D01*
X95786320Y-55828678D01*
X95755141Y-55823740D01*
X95690488Y-55813500D01*
X95123512Y-55813500D01*
X95058859Y-55823740D01*
X95027680Y-55828678D01*
X95027679Y-55828678D01*
X95023874Y-55829281D01*
X94980860Y-55851198D01*
X94907214Y-55888722D01*
X94907213Y-55888723D01*
X94903780Y-55890472D01*
X94808472Y-55985780D01*
X94806723Y-55989213D01*
X94806722Y-55989214D01*
X94790057Y-56021922D01*
X94748876Y-56102744D01*
X94748875Y-56102745D01*
X94747476Y-56105491D01*
X94747281Y-56105874D01*
X94746530Y-56105491D01*
X94724606Y-56131154D01*
X94708948Y-56136048D01*
X94690530Y-56138545D01*
X94668043Y-56141593D01*
X94664782Y-56141924D01*
X94605293Y-56145955D01*
X94602924Y-56146056D01*
X94601185Y-56146089D01*
X94598852Y-56146077D01*
X94548440Y-56144593D01*
X94546847Y-56144519D01*
X94536160Y-56143847D01*
X94505119Y-56128640D01*
X94504419Y-56129341D01*
X94419993Y-56045062D01*
X94417125Y-56042199D01*
X94406637Y-56037072D01*
X94309732Y-55989704D01*
X94309731Y-55989704D01*
X94306311Y-55988032D01*
X94234117Y-55977500D01*
X93869410Y-55977500D01*
X93503884Y-55977501D01*
X93502128Y-55977760D01*
X93502121Y-55977760D01*
X93452614Y-55985048D01*
X93431061Y-55988220D01*
X93427646Y-55989897D01*
X93427645Y-55989897D01*
X93380206Y-56013189D01*
X93320341Y-56042581D01*
X93233199Y-56129875D01*
X93231420Y-56133515D01*
X93231419Y-56133516D01*
X93180704Y-56237268D01*
X93179032Y-56240689D01*
X93168500Y-56312883D01*
X85338758Y-56312883D01*
X85342499Y-56311402D01*
X85387176Y-56293713D01*
X85532104Y-56236332D01*
X85745565Y-56118980D01*
X85795442Y-56091560D01*
X85795444Y-56091559D01*
X85796795Y-56090816D01*
X85803540Y-56085916D01*
X85914007Y-56005657D01*
X86041162Y-55913274D01*
X86249848Y-55717304D01*
X86260228Y-55707557D01*
X86260230Y-55707554D01*
X86261349Y-55706504D01*
X86401332Y-55537294D01*
X86452900Y-55474959D01*
X86452902Y-55474956D01*
X86453885Y-55473768D01*
X86560921Y-55305106D01*
X86614905Y-55220041D01*
X86614906Y-55220039D01*
X86615733Y-55218736D01*
X86625360Y-55198278D01*
X86743691Y-54946812D01*
X86743693Y-54946808D01*
X86744341Y-54945430D01*
X86819900Y-54712883D01*
X93168500Y-54712883D01*
X93168501Y-55293116D01*
X93168760Y-55294872D01*
X93168760Y-55294879D01*
X93173148Y-55324689D01*
X93179220Y-55365939D01*
X93180897Y-55369354D01*
X93180897Y-55369355D01*
X93194863Y-55397800D01*
X93233581Y-55476659D01*
X93320875Y-55563801D01*
X93324515Y-55565580D01*
X93324516Y-55565581D01*
X93428268Y-55616296D01*
X93431689Y-55617968D01*
X93503883Y-55628500D01*
X93868590Y-55628500D01*
X94234116Y-55628499D01*
X94235872Y-55628240D01*
X94235879Y-55628240D01*
X94286972Y-55620719D01*
X94306939Y-55617780D01*
X94417659Y-55563419D01*
X94504801Y-55476125D01*
X94506581Y-55472484D01*
X94508932Y-55469188D01*
X94509744Y-55469767D01*
X94534623Y-55447792D01*
X94547226Y-55445248D01*
X94555910Y-55444661D01*
X94557590Y-55444579D01*
X94585631Y-55443691D01*
X94589167Y-55443707D01*
X94638211Y-55445705D01*
X94640204Y-55445828D01*
X94702923Y-55451012D01*
X94705580Y-55451305D01*
X94735648Y-55455454D01*
X94763598Y-55469346D01*
X94853780Y-55559528D01*
X94857213Y-55561277D01*
X94857214Y-55561278D01*
X94913827Y-55590124D01*
X94973874Y-55620719D01*
X94977679Y-55621322D01*
X94977680Y-55621322D01*
X95008859Y-55626260D01*
X95073512Y-55636500D01*
X95640488Y-55636500D01*
X95705141Y-55626260D01*
X95736320Y-55621322D01*
X95736321Y-55621322D01*
X95740126Y-55620719D01*
X95800173Y-55590124D01*
X95856786Y-55561278D01*
X95856787Y-55561277D01*
X95860220Y-55559528D01*
X95955528Y-55464220D01*
X95958549Y-55458292D01*
X95994874Y-55387000D01*
X96016719Y-55344126D01*
X96019798Y-55324689D01*
X96023247Y-55302908D01*
X96032500Y-55244488D01*
X96032500Y-55059048D01*
X96036269Y-55040203D01*
X96043847Y-55022017D01*
X96044892Y-55019685D01*
X96064525Y-54978793D01*
X96065991Y-54975981D01*
X96069461Y-54969823D01*
X96086906Y-54938857D01*
X96088689Y-54935935D01*
X96113414Y-54898436D01*
X96115254Y-54895835D01*
X96146638Y-54854406D01*
X96148311Y-54852318D01*
X96188993Y-54804304D01*
X96190348Y-54802771D01*
X96242330Y-54746373D01*
X96243330Y-54745320D01*
X96300258Y-54687117D01*
X96300262Y-54687113D01*
X96301920Y-54685417D01*
X96312971Y-54668578D01*
X96319288Y-54660815D01*
X96343622Y-54636481D01*
X98114500Y-54636481D01*
X98114501Y-55099518D01*
X98129354Y-55193304D01*
X98135544Y-55205453D01*
X98184521Y-55301574D01*
X98186950Y-55306342D01*
X98276658Y-55396050D01*
X98280091Y-55397799D01*
X98280092Y-55397800D01*
X98323305Y-55419818D01*
X98389696Y-55453646D01*
X98393501Y-55454249D01*
X98393502Y-55454249D01*
X98418316Y-55458179D01*
X98483481Y-55468500D01*
X98790000Y-55468500D01*
X99096518Y-55468499D01*
X99145220Y-55460786D01*
X99186498Y-55454249D01*
X99186499Y-55454249D01*
X99190304Y-55453646D01*
X99256695Y-55419818D01*
X99299908Y-55397800D01*
X99299909Y-55397799D01*
X99303342Y-55396050D01*
X99393050Y-55306342D01*
X99395480Y-55301574D01*
X99444456Y-55205453D01*
X99450646Y-55193304D01*
X99465500Y-55099519D01*
X99465499Y-54636482D01*
X99450646Y-54542696D01*
X99393050Y-54429658D01*
X99306736Y-54343344D01*
X99292384Y-54308696D01*
X99296658Y-54288682D01*
X99296981Y-54287961D01*
X99297630Y-54286707D01*
X99314323Y-54242790D01*
X99314421Y-54242404D01*
X99316755Y-54236537D01*
X99317282Y-54235450D01*
X99325031Y-54219455D01*
X99645825Y-54219455D01*
X99646092Y-54222178D01*
X99646092Y-54222179D01*
X99661347Y-54377760D01*
X99662255Y-54387025D01*
X99715402Y-54546791D01*
X99716821Y-54549135D01*
X99716822Y-54549136D01*
X99799357Y-54685417D01*
X99802624Y-54690812D01*
X99804524Y-54692780D01*
X99804526Y-54692782D01*
X99850173Y-54740050D01*
X99919586Y-54811929D01*
X100060475Y-54904125D01*
X100099505Y-54918640D01*
X100215725Y-54961862D01*
X100215729Y-54961863D01*
X100218289Y-54962815D01*
X100220998Y-54963176D01*
X100221000Y-54963177D01*
X100301736Y-54973949D01*
X100385183Y-54985083D01*
X100387908Y-54984835D01*
X100387910Y-54984835D01*
X100550132Y-54970072D01*
X100550135Y-54970071D01*
X100552864Y-54969823D01*
X100712997Y-54917793D01*
X100857623Y-54831578D01*
X100901037Y-54790236D01*
X100977567Y-54717357D01*
X100979554Y-54715465D01*
X100981070Y-54713184D01*
X100981072Y-54713181D01*
X101071216Y-54577503D01*
X101072731Y-54575223D01*
X101132521Y-54417823D01*
X101140660Y-54359915D01*
X101155740Y-54252620D01*
X101155740Y-54252615D01*
X101155955Y-54251088D01*
X101156053Y-54244105D01*
X101156227Y-54231545D01*
X101156249Y-54230000D01*
X101144996Y-54129676D01*
X101137787Y-54065400D01*
X101137786Y-54065396D01*
X101137481Y-54062676D01*
X101136580Y-54060089D01*
X101136579Y-54060084D01*
X101083009Y-53906254D01*
X101083007Y-53906251D01*
X101082108Y-53903668D01*
X101080659Y-53901349D01*
X101080657Y-53901345D01*
X100994337Y-53763204D01*
X100994336Y-53763203D01*
X100992884Y-53760879D01*
X100990953Y-53758934D01*
X100876174Y-53643351D01*
X100876171Y-53643349D01*
X100874242Y-53641406D01*
X100732079Y-53551187D01*
X100573462Y-53494706D01*
X100570741Y-53494382D01*
X100570739Y-53494381D01*
X100489867Y-53484737D01*
X100406273Y-53474769D01*
X100403552Y-53475055D01*
X100403549Y-53475055D01*
X100322547Y-53483569D01*
X100238821Y-53492369D01*
X100236228Y-53493252D01*
X100236227Y-53493252D01*
X100213046Y-53501144D01*
X100079431Y-53546630D01*
X99936022Y-53634856D01*
X99934067Y-53636770D01*
X99934065Y-53636772D01*
X99817680Y-53750745D01*
X99817678Y-53750748D01*
X99815724Y-53752661D01*
X99814242Y-53754961D01*
X99814241Y-53754962D01*
X99805672Y-53768258D01*
X99724515Y-53894190D01*
X99666927Y-54052409D01*
X99645825Y-54219455D01*
X99325031Y-54219455D01*
X99330710Y-54207733D01*
X99351191Y-54086000D01*
X99354183Y-54068216D01*
X99354183Y-54068213D01*
X99354496Y-54066354D01*
X99354647Y-54054000D01*
X99334323Y-53912082D01*
X99285972Y-53805739D01*
X99284696Y-53768258D01*
X99301778Y-53745815D01*
X99305774Y-53742912D01*
X99389915Y-53658771D01*
X99394391Y-53652611D01*
X99448415Y-53546582D01*
X99450768Y-53539342D01*
X99464699Y-53451379D01*
X99465000Y-53447557D01*
X99465000Y-53377747D01*
X99462145Y-53370855D01*
X99455253Y-53368000D01*
X98124748Y-53368000D01*
X98117856Y-53370855D01*
X98115001Y-53377747D01*
X98115001Y-53447556D01*
X98115302Y-53451379D01*
X98129232Y-53539342D01*
X98131585Y-53546582D01*
X98185609Y-53652611D01*
X98190085Y-53658771D01*
X98274229Y-53742915D01*
X98280389Y-53747391D01*
X98366909Y-53791475D01*
X98391265Y-53819992D01*
X98389018Y-53855959D01*
X98365447Y-53906163D01*
X98357332Y-53958281D01*
X98343927Y-54044377D01*
X98343927Y-54044381D01*
X98343391Y-54047823D01*
X98343843Y-54051280D01*
X98343843Y-54051283D01*
X98360875Y-54181532D01*
X98361980Y-54189979D01*
X98363386Y-54193174D01*
X98381612Y-54234596D01*
X98382430Y-54272090D01*
X98359008Y-54297990D01*
X98280092Y-54338200D01*
X98280091Y-54338201D01*
X98276658Y-54339950D01*
X98186950Y-54429658D01*
X98129354Y-54542696D01*
X98114500Y-54636481D01*
X96343622Y-54636481D01*
X98031618Y-52948485D01*
X98066266Y-52934133D01*
X98100914Y-52948485D01*
X98114948Y-52986519D01*
X98115000Y-52986519D01*
X98115000Y-52986659D01*
X98115115Y-52986971D01*
X98115000Y-52988435D01*
X98115000Y-53058253D01*
X98117855Y-53065145D01*
X98124747Y-53068000D01*
X98630253Y-53068000D01*
X98637145Y-53065145D01*
X98640000Y-53058253D01*
X98940000Y-53058253D01*
X98942855Y-53065145D01*
X98949747Y-53068000D01*
X99455252Y-53068000D01*
X99462144Y-53065145D01*
X99464999Y-53058253D01*
X99464999Y-52988444D01*
X99464698Y-52984621D01*
X99450768Y-52896658D01*
X99448415Y-52889418D01*
X99394391Y-52783389D01*
X99389915Y-52777229D01*
X99305771Y-52693085D01*
X99299611Y-52688609D01*
X99193582Y-52634585D01*
X99186342Y-52632232D01*
X99098379Y-52618301D01*
X99094557Y-52618000D01*
X98949747Y-52618000D01*
X98942855Y-52620855D01*
X98940000Y-52627747D01*
X98940000Y-53058253D01*
X98640000Y-53058253D01*
X98640000Y-52627748D01*
X98637145Y-52620856D01*
X98630253Y-52618001D01*
X98485452Y-52618001D01*
X98483980Y-52618117D01*
X98483623Y-52618001D01*
X98483520Y-52618001D01*
X98483520Y-52617968D01*
X98448311Y-52606531D01*
X98431282Y-52573117D01*
X98442868Y-52537448D01*
X98445483Y-52534620D01*
X98530291Y-52449812D01*
X98564939Y-52435460D01*
X102121257Y-52435460D01*
X102155905Y-52449812D01*
X102170257Y-52484460D01*
X102159196Y-52512403D01*
X102160646Y-52513433D01*
X102076449Y-52631911D01*
X102075318Y-52635051D01*
X102075317Y-52635054D01*
X102037423Y-52740309D01*
X102027214Y-52768666D01*
X102026970Y-52771994D01*
X102026969Y-52771997D01*
X102022861Y-52827937D01*
X102016569Y-52913624D01*
X102045298Y-53056104D01*
X102046814Y-53059080D01*
X102046815Y-53059082D01*
X102109765Y-53182630D01*
X102109767Y-53182633D01*
X102111284Y-53185610D01*
X102209667Y-53292601D01*
X102333197Y-53369193D01*
X102472774Y-53409743D01*
X102483082Y-53410500D01*
X102587413Y-53410500D01*
X102589060Y-53410274D01*
X102589066Y-53410274D01*
X102641542Y-53403085D01*
X102695003Y-53395762D01*
X102698070Y-53394435D01*
X102825331Y-53339364D01*
X102825332Y-53339363D01*
X102828397Y-53338037D01*
X102941354Y-53246567D01*
X103014549Y-53143570D01*
X103023616Y-53130812D01*
X103023616Y-53130811D01*
X103025551Y-53128089D01*
X103044810Y-53074597D01*
X103073655Y-52994476D01*
X103073655Y-52994475D01*
X103074786Y-52991334D01*
X103075107Y-52986971D01*
X103081496Y-52899959D01*
X103085431Y-52846376D01*
X103056702Y-52703896D01*
X103042622Y-52676262D01*
X102992235Y-52577370D01*
X102992233Y-52577367D01*
X102990716Y-52574390D01*
X102938520Y-52517627D01*
X102925632Y-52482408D01*
X102941422Y-52448391D01*
X102974589Y-52435460D01*
X104615061Y-52435460D01*
X104649709Y-52449812D01*
X105320148Y-53120251D01*
X105334500Y-53154899D01*
X105334500Y-53683904D01*
X105320148Y-53718552D01*
X105285500Y-53732904D01*
X105250731Y-53718431D01*
X105176174Y-53643351D01*
X105176171Y-53643349D01*
X105174242Y-53641406D01*
X105032079Y-53551187D01*
X104873462Y-53494706D01*
X104870741Y-53494382D01*
X104870739Y-53494381D01*
X104789867Y-53484737D01*
X104706273Y-53474769D01*
X104703552Y-53475055D01*
X104703549Y-53475055D01*
X104622547Y-53483569D01*
X104538821Y-53492369D01*
X104536228Y-53493252D01*
X104536227Y-53493252D01*
X104513046Y-53501144D01*
X104379431Y-53546630D01*
X104236022Y-53634856D01*
X104234067Y-53636770D01*
X104234065Y-53636772D01*
X104117680Y-53750745D01*
X104117678Y-53750748D01*
X104115724Y-53752661D01*
X104114242Y-53754961D01*
X104114241Y-53754962D01*
X104105672Y-53768258D01*
X104024515Y-53894190D01*
X103966927Y-54052409D01*
X103945825Y-54219455D01*
X103946092Y-54222178D01*
X103946092Y-54222179D01*
X103961347Y-54377760D01*
X103962255Y-54387025D01*
X104015402Y-54546791D01*
X104016821Y-54549135D01*
X104016822Y-54549136D01*
X104099357Y-54685417D01*
X104102624Y-54690812D01*
X104104524Y-54692780D01*
X104104526Y-54692782D01*
X104150173Y-54740050D01*
X104219586Y-54811929D01*
X104360475Y-54904125D01*
X104399505Y-54918640D01*
X104515725Y-54961862D01*
X104515729Y-54961863D01*
X104518289Y-54962815D01*
X104520998Y-54963176D01*
X104521000Y-54963177D01*
X104601736Y-54973949D01*
X104685183Y-54985083D01*
X104687908Y-54984835D01*
X104687910Y-54984835D01*
X104850132Y-54970072D01*
X104850135Y-54970071D01*
X104852864Y-54969823D01*
X105012997Y-54917793D01*
X105157623Y-54831578D01*
X105201037Y-54790236D01*
X105277567Y-54717357D01*
X105279554Y-54715465D01*
X105281070Y-54713184D01*
X105281072Y-54713181D01*
X105371216Y-54577503D01*
X105372731Y-54575223D01*
X105432521Y-54417823D01*
X105445659Y-54324345D01*
X105464693Y-54292032D01*
X105501002Y-54282642D01*
X105528830Y-54296517D01*
X105902878Y-54670565D01*
X105906710Y-54674877D01*
X105930544Y-54705110D01*
X105933555Y-54707191D01*
X105933556Y-54707192D01*
X105979804Y-54739156D01*
X105981047Y-54740044D01*
X106029233Y-54775634D01*
X106032687Y-54776847D01*
X106035775Y-54778482D01*
X106038969Y-54780047D01*
X106041985Y-54782131D01*
X106067613Y-54790236D01*
X106096321Y-54814367D01*
X106099557Y-54851730D01*
X106096860Y-54858473D01*
X106050136Y-54954060D01*
X106050135Y-54954064D01*
X106048464Y-54957482D01*
X106038500Y-55025782D01*
X106038500Y-56117218D01*
X106038759Y-56118975D01*
X106038759Y-56118980D01*
X106042530Y-56144594D01*
X106048642Y-56186112D01*
X106050319Y-56189527D01*
X106050319Y-56189528D01*
X106052220Y-56193399D01*
X106100068Y-56290855D01*
X106155392Y-56346083D01*
X106169773Y-56380716D01*
X106155421Y-56415407D01*
X106153680Y-56417148D01*
X106119032Y-56431500D01*
X105182982Y-56431500D01*
X105148334Y-56417148D01*
X105133982Y-56382500D01*
X105134661Y-56374371D01*
X105143182Y-56323718D01*
X105143496Y-56321854D01*
X105143647Y-56309500D01*
X105123323Y-56167582D01*
X105063984Y-56037072D01*
X105036975Y-56005726D01*
X104972680Y-55931109D01*
X104970400Y-55928463D01*
X104850095Y-55850485D01*
X104712739Y-55809407D01*
X104641681Y-55808973D01*
X104572868Y-55808552D01*
X104572866Y-55808552D01*
X104569376Y-55808531D01*
X104566021Y-55809490D01*
X104566020Y-55809490D01*
X104434884Y-55846969D01*
X104431529Y-55847928D01*
X104310280Y-55924430D01*
X104308029Y-55926979D01*
X104307055Y-55927733D01*
X104306175Y-55928232D01*
X104271753Y-55957916D01*
X104269431Y-55959949D01*
X104269233Y-55960125D01*
X104267212Y-55961946D01*
X104231680Y-55994382D01*
X104231423Y-55994617D01*
X104220409Y-56004706D01*
X104202228Y-56021359D01*
X104200999Y-56022448D01*
X104180484Y-56040012D01*
X104177652Y-56042260D01*
X104168300Y-56049138D01*
X104165307Y-56051339D01*
X104160744Y-56054318D01*
X104154140Y-56058124D01*
X104148261Y-56061006D01*
X104142148Y-56063511D01*
X104135876Y-56065598D01*
X104123322Y-56068849D01*
X104117606Y-56069970D01*
X104092791Y-56073321D01*
X104088148Y-56073723D01*
X104067367Y-56074528D01*
X104052098Y-56075119D01*
X104052095Y-56075119D01*
X104049807Y-56075208D01*
X104035169Y-56078564D01*
X104032177Y-56079250D01*
X104021227Y-56080489D01*
X103464637Y-56080489D01*
X103457816Y-56079988D01*
X103453669Y-56078564D01*
X103403291Y-56080455D01*
X103401453Y-56080489D01*
X103381063Y-56080489D01*
X103378842Y-56080903D01*
X103377373Y-56081038D01*
X103372085Y-56081626D01*
X103346328Y-56082593D01*
X103346327Y-56082593D01*
X103341803Y-56082763D01*
X103337644Y-56084550D01*
X103337643Y-56084550D01*
X103326117Y-56089502D01*
X103315747Y-56092653D01*
X103303403Y-56094952D01*
X103303402Y-56094952D01*
X103298958Y-56095780D01*
X103295109Y-56098152D01*
X103295105Y-56098154D01*
X103273162Y-56111680D01*
X103266794Y-56114989D01*
X103257515Y-56118976D01*
X103238948Y-56126953D01*
X103234062Y-56130967D01*
X103225564Y-56139465D01*
X103216628Y-56146529D01*
X103207515Y-56152146D01*
X103207513Y-56152148D01*
X103203663Y-56154521D01*
X103200924Y-56158123D01*
X103200923Y-56158124D01*
X103183947Y-56180449D01*
X103179591Y-56185438D01*
X102771574Y-56593455D01*
X102762741Y-56600455D01*
X102747981Y-56609600D01*
X102746217Y-56611247D01*
X102714751Y-56640623D01*
X102711666Y-56643273D01*
X102685318Y-56664063D01*
X102681319Y-56666905D01*
X102662389Y-56678982D01*
X102657729Y-56681608D01*
X102647973Y-56686425D01*
X102642437Y-56689158D01*
X102637823Y-56691149D01*
X102620438Y-56697613D01*
X102616834Y-56698796D01*
X102591769Y-56705961D01*
X102589854Y-56706465D01*
X102553816Y-56715179D01*
X102553648Y-56715220D01*
X102509250Y-56725790D01*
X102506541Y-56726455D01*
X102506236Y-56726532D01*
X102503575Y-56727222D01*
X102454403Y-56740338D01*
X102454238Y-56740384D01*
X102454220Y-56740389D01*
X102449810Y-56741621D01*
X102449770Y-56741632D01*
X102449725Y-56741645D01*
X102449681Y-56741658D01*
X102449628Y-56741673D01*
X102449379Y-56741746D01*
X102449198Y-56741799D01*
X102444620Y-56743195D01*
X102444486Y-56743238D01*
X102444462Y-56743245D01*
X102418745Y-56751415D01*
X102397321Y-56758221D01*
X102370951Y-56770066D01*
X102364357Y-56772475D01*
X102343529Y-56778428D01*
X102222280Y-56854930D01*
X102127377Y-56962388D01*
X102125894Y-56965546D01*
X102125893Y-56965548D01*
X102100481Y-57019674D01*
X102066447Y-57092163D01*
X102065911Y-57095606D01*
X102065910Y-57095609D01*
X102065426Y-57098719D01*
X102064929Y-57101917D01*
X102064908Y-57102049D01*
X102045398Y-57134078D01*
X102008955Y-57142930D01*
X101981843Y-57129161D01*
X101722852Y-56870170D01*
X101708500Y-56835522D01*
X101708500Y-56484478D01*
X101722852Y-56449830D01*
X102294034Y-55878648D01*
X102303119Y-55871493D01*
X102315332Y-55864025D01*
X102315334Y-55864023D01*
X102317392Y-55862765D01*
X102322813Y-55857765D01*
X102358010Y-55844820D01*
X102374097Y-55848230D01*
X102380726Y-55850859D01*
X102381911Y-55851195D01*
X102381919Y-55851198D01*
X102419407Y-55861836D01*
X102419412Y-55861837D01*
X102420592Y-55862172D01*
X102425216Y-55862992D01*
X102425209Y-55863029D01*
X102432194Y-55864597D01*
X102501157Y-55886142D01*
X102504647Y-55886206D01*
X102524558Y-55886571D01*
X102644499Y-55888770D01*
X102782817Y-55851060D01*
X102785788Y-55849236D01*
X102785790Y-55849235D01*
X102902018Y-55777871D01*
X102902021Y-55777869D01*
X102904991Y-55776045D01*
X102921595Y-55757702D01*
X102998855Y-55672345D01*
X102998856Y-55672344D01*
X103001200Y-55669754D01*
X103017312Y-55636500D01*
X103062189Y-55543872D01*
X103063710Y-55540733D01*
X103068542Y-55512016D01*
X103087183Y-55401216D01*
X103087183Y-55401213D01*
X103087496Y-55399354D01*
X103087647Y-55387000D01*
X103067323Y-55245082D01*
X103007984Y-55114572D01*
X102995077Y-55099592D01*
X102916680Y-55008609D01*
X102914400Y-55005963D01*
X102794095Y-54927985D01*
X102656739Y-54886907D01*
X102585681Y-54886473D01*
X102516868Y-54886052D01*
X102516866Y-54886052D01*
X102513376Y-54886031D01*
X102510021Y-54886990D01*
X102510020Y-54886990D01*
X102378884Y-54924469D01*
X102375529Y-54925428D01*
X102372578Y-54927290D01*
X102293198Y-54977375D01*
X102254280Y-55001930D01*
X102245985Y-55011323D01*
X102239935Y-55018173D01*
X102229329Y-55027193D01*
X102224257Y-55030389D01*
X102224254Y-55030391D01*
X102222215Y-55031676D01*
X102220467Y-55033332D01*
X102218565Y-55034810D01*
X102217947Y-55034015D01*
X102198477Y-55043139D01*
X102198773Y-55044158D01*
X102194884Y-55045288D01*
X102190861Y-55045764D01*
X102187209Y-55047518D01*
X102183322Y-55048647D01*
X102183247Y-55048389D01*
X102182637Y-55048583D01*
X102182723Y-55048835D01*
X102178890Y-55050147D01*
X102174897Y-55050812D01*
X102171335Y-55052734D01*
X102171332Y-55052735D01*
X102131814Y-55074058D01*
X102129757Y-55075106D01*
X102085674Y-55096274D01*
X102081726Y-55099592D01*
X102081681Y-55099538D01*
X102078796Y-55101589D01*
X102078971Y-55101815D01*
X102075766Y-55104301D01*
X102072206Y-55106222D01*
X102069460Y-55109192D01*
X102069458Y-55109194D01*
X102037518Y-55143747D01*
X102036184Y-55145134D01*
X101909248Y-55272070D01*
X101906802Y-55274355D01*
X101875794Y-55301391D01*
X101872052Y-55304736D01*
X101871648Y-55305106D01*
X101868294Y-55308247D01*
X101868237Y-55308302D01*
X101868189Y-55308347D01*
X101827250Y-55347560D01*
X101824146Y-55350533D01*
X101822742Y-55352563D01*
X101822739Y-55352566D01*
X101811758Y-55368438D01*
X101806110Y-55375208D01*
X101140305Y-56041013D01*
X101132236Y-56047530D01*
X101122252Y-56053976D01*
X101122248Y-56053980D01*
X101118848Y-56056175D01*
X101097182Y-56083658D01*
X101093358Y-56087960D01*
X101089572Y-56091746D01*
X101088395Y-56093393D01*
X101078277Y-56107551D01*
X101076900Y-56109387D01*
X101046608Y-56147811D01*
X101045267Y-56151630D01*
X101043314Y-56155182D01*
X101043079Y-56155053D01*
X101042784Y-56155620D01*
X101043025Y-56155738D01*
X101041244Y-56159374D01*
X101038889Y-56162669D01*
X101037729Y-56166547D01*
X101037479Y-56167058D01*
X101009347Y-56191859D01*
X100993476Y-56194500D01*
X99808916Y-56194500D01*
X99798588Y-56193399D01*
X99782130Y-56189850D01*
X99782126Y-56189850D01*
X99779772Y-56189342D01*
X99777368Y-56189304D01*
X99777363Y-56189303D01*
X99697392Y-56188025D01*
X99689679Y-56187902D01*
X99687657Y-56187827D01*
X99607967Y-56183251D01*
X99605263Y-56183020D01*
X99541167Y-56175732D01*
X99537761Y-56175222D01*
X99534548Y-56174625D01*
X99503104Y-56154186D01*
X99494499Y-56126450D01*
X99494499Y-56101668D01*
X99492498Y-56080489D01*
X99491841Y-56073537D01*
X99491841Y-56073535D01*
X99491560Y-56070566D01*
X99490572Y-56067753D01*
X99490571Y-56067748D01*
X99448514Y-55947986D01*
X99448513Y-55947985D01*
X99447298Y-55944524D01*
X99367930Y-55837070D01*
X99260476Y-55757702D01*
X99257015Y-55756487D01*
X99257014Y-55756486D01*
X99137253Y-55714430D01*
X99134434Y-55713440D01*
X99131462Y-55713159D01*
X99104479Y-55710608D01*
X99104472Y-55710608D01*
X99103333Y-55710500D01*
X98806629Y-55710500D01*
X98509668Y-55710501D01*
X98490397Y-55712322D01*
X98481537Y-55713159D01*
X98481535Y-55713159D01*
X98478566Y-55713440D01*
X98475753Y-55714428D01*
X98475748Y-55714429D01*
X98355986Y-55756486D01*
X98355985Y-55756487D01*
X98352524Y-55757702D01*
X98245070Y-55837070D01*
X98165702Y-55944524D01*
X98164487Y-55947985D01*
X98164486Y-55947986D01*
X98134131Y-56034428D01*
X98121440Y-56070566D01*
X98121159Y-56073537D01*
X98121159Y-56073538D01*
X98119057Y-56095780D01*
X98118500Y-56101667D01*
X98118501Y-57120332D01*
X98121440Y-57151434D01*
X98122428Y-57154247D01*
X98122429Y-57154252D01*
X98159349Y-57259385D01*
X98165702Y-57277476D01*
X98245070Y-57384930D01*
X98352524Y-57464298D01*
X98355985Y-57465513D01*
X98355986Y-57465514D01*
X98418139Y-57487340D01*
X98478566Y-57508560D01*
X98481538Y-57508841D01*
X98508521Y-57511392D01*
X98508528Y-57511392D01*
X98509667Y-57511500D01*
X98806371Y-57511500D01*
X99103332Y-57511499D01*
X99122603Y-57509678D01*
X99131463Y-57508841D01*
X99131465Y-57508841D01*
X99134434Y-57508560D01*
X99137247Y-57507572D01*
X99137252Y-57507571D01*
X99257014Y-57465514D01*
X99257015Y-57465513D01*
X99260476Y-57464298D01*
X99367930Y-57384930D01*
X99447298Y-57277476D01*
X99454534Y-57256872D01*
X99490570Y-57154253D01*
X99490570Y-57154252D01*
X99491560Y-57151434D01*
X99491784Y-57149065D01*
X99513120Y-57118457D01*
X99535171Y-57110922D01*
X99589615Y-57106054D01*
X99591755Y-57105909D01*
X99598480Y-57105604D01*
X99679648Y-57101917D01*
X99681249Y-57101871D01*
X99754025Y-57100948D01*
X99779056Y-57100630D01*
X99781376Y-57100145D01*
X99781380Y-57100145D01*
X99798664Y-57096535D01*
X99808681Y-57095500D01*
X100981456Y-57095500D01*
X101016104Y-57109852D01*
X101024579Y-57121231D01*
X101045062Y-57159193D01*
X101046096Y-57161224D01*
X101067274Y-57205326D01*
X101070034Y-57208610D01*
X101070592Y-57209274D01*
X101070538Y-57209319D01*
X101072589Y-57212204D01*
X101072815Y-57212029D01*
X101075301Y-57215234D01*
X101077222Y-57218794D01*
X101080192Y-57221540D01*
X101080194Y-57221542D01*
X101114747Y-57253482D01*
X101116134Y-57254816D01*
X101801705Y-57940387D01*
X101808023Y-57948151D01*
X101817676Y-57962861D01*
X101817684Y-57962870D01*
X101819003Y-57964881D01*
X101820690Y-57966596D01*
X101820693Y-57966600D01*
X101862953Y-58009568D01*
X101863635Y-58010276D01*
X101905014Y-58054072D01*
X101905826Y-58054952D01*
X101939672Y-58092576D01*
X101940569Y-58093602D01*
X101968949Y-58126972D01*
X101969832Y-58128041D01*
X101993621Y-58157674D01*
X101995085Y-58159498D01*
X101995810Y-58160425D01*
X102016806Y-58187943D01*
X102020201Y-58192393D01*
X102020683Y-58193036D01*
X102039315Y-58218332D01*
X102046150Y-58227612D01*
X102046354Y-58227890D01*
X102074766Y-58267039D01*
X102075009Y-58267373D01*
X102106977Y-58311236D01*
X102107014Y-58311287D01*
X102108056Y-58312703D01*
X102133230Y-58346630D01*
X102140159Y-58355969D01*
X102170644Y-58388847D01*
X102171660Y-58389727D01*
X102171661Y-58389728D01*
X102174478Y-58392168D01*
X102174391Y-58392269D01*
X102180069Y-58397807D01*
X102212970Y-58436948D01*
X102332313Y-58516390D01*
X102469157Y-58559142D01*
X102472647Y-58559206D01*
X102492558Y-58559571D01*
X102612499Y-58561770D01*
X102750817Y-58524060D01*
X102753788Y-58522236D01*
X102753790Y-58522235D01*
X102870018Y-58450871D01*
X102870021Y-58450869D01*
X102872991Y-58449045D01*
X102879906Y-58441406D01*
X102966855Y-58345345D01*
X102966856Y-58345344D01*
X102969200Y-58342754D01*
X102992637Y-58294381D01*
X103030189Y-58216872D01*
X103031710Y-58213733D01*
X103035246Y-58192721D01*
X103044371Y-58138481D01*
X105674500Y-58138481D01*
X105674501Y-58601518D01*
X105674802Y-58603417D01*
X105684349Y-58663698D01*
X105689354Y-58695304D01*
X105718152Y-58751823D01*
X105739680Y-58794073D01*
X105746950Y-58808342D01*
X105836658Y-58898050D01*
X105865990Y-58912995D01*
X105890345Y-58941511D01*
X105888097Y-58977478D01*
X105878930Y-58997001D01*
X105878927Y-58997011D01*
X105877447Y-59000163D01*
X105872561Y-59031545D01*
X105855927Y-59138377D01*
X105855927Y-59138381D01*
X105855391Y-59141823D01*
X105855843Y-59145280D01*
X105855843Y-59145283D01*
X105871859Y-59267761D01*
X105873980Y-59283979D01*
X105875386Y-59287174D01*
X105923451Y-59396410D01*
X105924269Y-59433904D01*
X105900847Y-59459804D01*
X105840389Y-59490609D01*
X105834229Y-59495085D01*
X105750085Y-59579229D01*
X105745609Y-59585389D01*
X105691585Y-59691418D01*
X105689232Y-59698658D01*
X105675301Y-59786621D01*
X105675000Y-59790443D01*
X105675000Y-59860253D01*
X105677855Y-59867145D01*
X105684747Y-59870000D01*
X107015252Y-59870000D01*
X107022144Y-59867145D01*
X107024999Y-59860253D01*
X107024999Y-59790444D01*
X107024698Y-59786621D01*
X107010768Y-59698658D01*
X107008415Y-59691418D01*
X106954391Y-59585389D01*
X106949915Y-59579229D01*
X106865771Y-59495085D01*
X106859611Y-59490609D01*
X106815456Y-59468111D01*
X106791100Y-59439594D01*
X106793605Y-59403087D01*
X106841189Y-59304872D01*
X106842710Y-59301733D01*
X106844237Y-59292662D01*
X106866183Y-59162216D01*
X106866183Y-59162213D01*
X106866496Y-59160354D01*
X106866647Y-59148000D01*
X106846323Y-59006082D01*
X106843632Y-59000163D01*
X106829042Y-58968072D01*
X106827766Y-58930591D01*
X106851401Y-58904134D01*
X106863342Y-58898050D01*
X106953050Y-58808342D01*
X106960321Y-58794073D01*
X106981848Y-58751823D01*
X107010646Y-58695304D01*
X107025500Y-58601519D01*
X107025499Y-58138482D01*
X107010646Y-58044696D01*
X106953050Y-57931658D01*
X106863342Y-57841950D01*
X106859909Y-57840201D01*
X106859908Y-57840200D01*
X106795628Y-57807448D01*
X106750304Y-57784354D01*
X106746499Y-57783751D01*
X106746498Y-57783751D01*
X106717316Y-57779129D01*
X106656519Y-57769500D01*
X106654595Y-57769500D01*
X106350001Y-57769501D01*
X106043482Y-57769501D01*
X105996304Y-57776973D01*
X105953502Y-57783751D01*
X105953501Y-57783751D01*
X105949696Y-57784354D01*
X105904372Y-57807448D01*
X105840092Y-57840200D01*
X105840091Y-57840201D01*
X105836658Y-57841950D01*
X105746950Y-57931658D01*
X105689354Y-58044696D01*
X105688751Y-58048501D01*
X105688751Y-58048502D01*
X105684129Y-58077684D01*
X105674500Y-58138481D01*
X103044371Y-58138481D01*
X103055183Y-58074216D01*
X103055183Y-58074213D01*
X103055496Y-58072354D01*
X103055647Y-58060000D01*
X103035323Y-57918082D01*
X102975984Y-57787572D01*
X102972692Y-57783751D01*
X102884024Y-57680847D01*
X102872280Y-57645231D01*
X102884817Y-57615980D01*
X102966855Y-57525345D01*
X102966856Y-57525344D01*
X102969200Y-57522754D01*
X102987731Y-57484507D01*
X103017468Y-57423129D01*
X103031710Y-57393733D01*
X103032010Y-57391950D01*
X103046805Y-57345374D01*
X103048200Y-57340801D01*
X103048354Y-57340274D01*
X103049300Y-57336890D01*
X103049610Y-57335779D01*
X103049615Y-57335761D01*
X103049661Y-57335596D01*
X103062777Y-57286424D01*
X103063467Y-57283763D01*
X103063544Y-57283458D01*
X103064209Y-57280749D01*
X103064989Y-57277476D01*
X103074779Y-57236351D01*
X103074820Y-57236183D01*
X103083534Y-57200145D01*
X103084038Y-57198230D01*
X103091203Y-57173165D01*
X103092386Y-57169561D01*
X103098850Y-57152176D01*
X103100841Y-57147562D01*
X103108389Y-57132273D01*
X103111017Y-57127610D01*
X103123094Y-57108680D01*
X103125936Y-57104681D01*
X103146726Y-57078333D01*
X103149377Y-57075247D01*
X103158362Y-57065623D01*
X103180396Y-57042023D01*
X103190249Y-57026423D01*
X103197030Y-57017941D01*
X103519130Y-56695841D01*
X103553778Y-56681489D01*
X103685195Y-56681489D01*
X103719843Y-56695841D01*
X103734195Y-56730489D01*
X103733612Y-56738025D01*
X103730534Y-56757798D01*
X103712927Y-56870877D01*
X103712927Y-56870881D01*
X103712391Y-56874323D01*
X103712843Y-56877780D01*
X103712843Y-56877783D01*
X103730527Y-57013017D01*
X103730980Y-57016479D01*
X103788720Y-57147703D01*
X103790966Y-57150375D01*
X103878536Y-57254552D01*
X103880970Y-57257448D01*
X104000313Y-57336890D01*
X104003645Y-57337931D01*
X104012832Y-57340801D01*
X104137157Y-57379642D01*
X104140647Y-57379706D01*
X104148771Y-57379855D01*
X104188685Y-57380586D01*
X104199626Y-57382030D01*
X104209862Y-57384580D01*
X104213806Y-57385563D01*
X104213808Y-57385563D01*
X104216139Y-57386144D01*
X104218542Y-57386259D01*
X104218543Y-57386259D01*
X104230850Y-57386847D01*
X104254489Y-57387977D01*
X104259519Y-57388480D01*
X104282307Y-57391950D01*
X104284605Y-57392300D01*
X104289391Y-57393275D01*
X104311902Y-57399044D01*
X104315533Y-57400126D01*
X104342198Y-57409206D01*
X104343936Y-57409834D01*
X104378625Y-57423129D01*
X104380446Y-57423817D01*
X104420508Y-57438737D01*
X104425529Y-57440533D01*
X104426106Y-57440731D01*
X104426288Y-57440791D01*
X104426342Y-57440809D01*
X104431057Y-57442358D01*
X104431234Y-57442416D01*
X104431357Y-57442455D01*
X104431383Y-57442463D01*
X104437561Y-57444403D01*
X104474460Y-57455991D01*
X104474638Y-57456043D01*
X104474664Y-57456051D01*
X104480294Y-57457698D01*
X104482222Y-57458262D01*
X104482394Y-57458309D01*
X104482434Y-57458320D01*
X104482708Y-57458394D01*
X104483125Y-57458507D01*
X104487402Y-57459572D01*
X104491199Y-57460518D01*
X104491222Y-57460523D01*
X104491433Y-57460576D01*
X104520644Y-57467209D01*
X104527342Y-57468730D01*
X104534648Y-57471002D01*
X104561923Y-57481883D01*
X104566314Y-57482314D01*
X104567030Y-57482384D01*
X104567036Y-57482384D01*
X104568216Y-57482500D01*
X104580237Y-57482500D01*
X104591551Y-57483824D01*
X104601963Y-57486295D01*
X104601964Y-57486295D01*
X104606367Y-57487340D01*
X104625575Y-57484726D01*
X104635251Y-57484375D01*
X104635725Y-57484405D01*
X104637347Y-57484507D01*
X104661862Y-57485507D01*
X104691836Y-57486729D01*
X104691838Y-57486729D01*
X104694366Y-57486832D01*
X104716243Y-57483172D01*
X104724328Y-57482500D01*
X107642374Y-57482500D01*
X107649195Y-57483001D01*
X107653342Y-57484425D01*
X107703720Y-57482534D01*
X107705558Y-57482500D01*
X107725948Y-57482500D01*
X107728169Y-57482086D01*
X107729638Y-57481951D01*
X107734926Y-57481363D01*
X107760683Y-57480396D01*
X107760684Y-57480396D01*
X107765208Y-57480226D01*
X107769367Y-57478439D01*
X107769368Y-57478439D01*
X107780894Y-57473487D01*
X107791264Y-57470336D01*
X107803608Y-57468037D01*
X107803609Y-57468037D01*
X107808053Y-57467209D01*
X107811902Y-57464837D01*
X107811906Y-57464835D01*
X107833849Y-57451309D01*
X107840217Y-57448000D01*
X107864891Y-57437399D01*
X107864892Y-57437398D01*
X107868063Y-57436036D01*
X107872949Y-57432022D01*
X107881447Y-57423524D01*
X107890383Y-57416460D01*
X107899496Y-57410843D01*
X107899498Y-57410841D01*
X107903348Y-57408468D01*
X107909692Y-57400126D01*
X107923064Y-57382540D01*
X107927420Y-57377551D01*
X108612154Y-56692818D01*
X108617328Y-56688351D01*
X108621269Y-56686425D01*
X108655548Y-56649472D01*
X108656824Y-56648148D01*
X108671248Y-56633724D01*
X108672521Y-56631868D01*
X108673457Y-56630742D01*
X108676789Y-56626574D01*
X108697401Y-56604354D01*
X108703728Y-56588495D01*
X108708833Y-56578934D01*
X108715933Y-56568584D01*
X108718492Y-56564854D01*
X108725489Y-56535369D01*
X108727653Y-56528527D01*
X108737599Y-56503597D01*
X108737599Y-56503595D01*
X108738883Y-56500378D01*
X108739500Y-56494085D01*
X108739500Y-56482064D01*
X108740824Y-56470750D01*
X108743295Y-56460338D01*
X108743295Y-56460337D01*
X108744340Y-56455934D01*
X108741743Y-56436854D01*
X108751292Y-56400589D01*
X108768701Y-56386264D01*
X108792221Y-56374716D01*
X108795855Y-56372932D01*
X108878293Y-56290350D01*
X108881789Y-56283198D01*
X108927865Y-56188937D01*
X108927865Y-56188936D01*
X108929536Y-56185518D01*
X108939500Y-56117218D01*
X108939500Y-55294899D01*
X108953852Y-55260251D01*
X108988500Y-55245899D01*
X109023148Y-55260251D01*
X109230706Y-55467809D01*
X109245058Y-55502457D01*
X109244117Y-55512011D01*
X109238500Y-55540252D01*
X109238500Y-57129748D01*
X109250133Y-57188231D01*
X109252815Y-57192245D01*
X109270370Y-57218517D01*
X109294448Y-57254552D01*
X109360769Y-57298867D01*
X109419252Y-57310500D01*
X110058748Y-57310500D01*
X110117231Y-57298867D01*
X110183552Y-57254552D01*
X110198258Y-57232543D01*
X110229441Y-57211708D01*
X110266223Y-57219024D01*
X110279741Y-57232542D01*
X110294448Y-57254552D01*
X110360769Y-57298867D01*
X110419252Y-57310500D01*
X111058748Y-57310500D01*
X111117231Y-57298867D01*
X111183552Y-57254552D01*
X111198258Y-57232543D01*
X111229441Y-57211708D01*
X111266223Y-57219024D01*
X111279741Y-57232542D01*
X111294448Y-57254552D01*
X111360769Y-57298867D01*
X111419252Y-57310500D01*
X112058748Y-57310500D01*
X112117231Y-57298867D01*
X112183552Y-57254552D01*
X112198559Y-57232093D01*
X112229741Y-57211259D01*
X112266523Y-57218575D01*
X112280042Y-57232093D01*
X112292129Y-57250182D01*
X112298819Y-57256872D01*
X112356951Y-57295715D01*
X112365697Y-57299337D01*
X112416948Y-57309532D01*
X112421705Y-57310000D01*
X112579253Y-57310000D01*
X112586145Y-57307145D01*
X112589000Y-57300253D01*
X112889000Y-57300253D01*
X112891855Y-57307145D01*
X112898747Y-57310000D01*
X113056295Y-57310000D01*
X113061052Y-57309532D01*
X113112303Y-57299337D01*
X113121049Y-57295715D01*
X113179181Y-57256872D01*
X113185872Y-57250181D01*
X113224715Y-57192049D01*
X113228337Y-57183303D01*
X113238532Y-57132052D01*
X113239000Y-57127295D01*
X113239000Y-56494747D01*
X113236145Y-56487855D01*
X113229253Y-56485000D01*
X112898747Y-56485000D01*
X112891855Y-56487855D01*
X112889000Y-56494747D01*
X112889000Y-57300253D01*
X112589000Y-57300253D01*
X112589000Y-56175253D01*
X112889000Y-56175253D01*
X112891855Y-56182145D01*
X112898747Y-56185000D01*
X113229253Y-56185000D01*
X113236145Y-56182145D01*
X113239000Y-56175253D01*
X113239000Y-55542705D01*
X113238532Y-55537948D01*
X113228337Y-55486697D01*
X113224715Y-55477951D01*
X113185872Y-55419819D01*
X113179181Y-55413128D01*
X113121049Y-55374285D01*
X113112303Y-55370663D01*
X113061052Y-55360468D01*
X113056295Y-55360000D01*
X112898747Y-55360000D01*
X112891855Y-55362855D01*
X112889000Y-55369747D01*
X112889000Y-56175253D01*
X112589000Y-56175253D01*
X112589000Y-55369747D01*
X112586145Y-55362855D01*
X112579253Y-55360000D01*
X112421705Y-55360000D01*
X112416948Y-55360468D01*
X112365697Y-55370663D01*
X112356951Y-55374285D01*
X112298819Y-55413128D01*
X112292129Y-55419818D01*
X112280042Y-55437907D01*
X112248859Y-55458742D01*
X112212076Y-55451425D01*
X112198558Y-55437906D01*
X112198264Y-55437465D01*
X112183552Y-55415448D01*
X112117231Y-55371133D01*
X112104859Y-55368672D01*
X112101461Y-55367996D01*
X112070278Y-55347160D01*
X112062963Y-55310378D01*
X112083799Y-55279195D01*
X112088302Y-55276524D01*
X112096629Y-55272169D01*
X112099523Y-55270776D01*
X112124673Y-55259673D01*
X112144462Y-55255499D01*
X112308518Y-55255499D01*
X112366060Y-55246386D01*
X112398498Y-55241249D01*
X112398499Y-55241249D01*
X112402304Y-55240646D01*
X112476251Y-55202968D01*
X112511908Y-55184800D01*
X112511909Y-55184799D01*
X112515342Y-55183050D01*
X112605050Y-55093342D01*
X112662646Y-54980304D01*
X112677500Y-54886519D01*
X112677499Y-54423482D01*
X112662646Y-54329696D01*
X112619035Y-54244105D01*
X112606800Y-54220092D01*
X112606799Y-54220091D01*
X112605050Y-54216658D01*
X112515342Y-54126950D01*
X112511909Y-54125201D01*
X112511908Y-54125200D01*
X112434973Y-54086000D01*
X112402304Y-54069354D01*
X112398499Y-54068751D01*
X112398498Y-54068751D01*
X112369316Y-54064129D01*
X112308519Y-54054500D01*
X112306595Y-54054500D01*
X112002001Y-54054501D01*
X111695482Y-54054501D01*
X111651023Y-54061542D01*
X111605502Y-54068751D01*
X111605501Y-54068751D01*
X111601696Y-54069354D01*
X111569027Y-54086000D01*
X111492092Y-54125200D01*
X111492091Y-54125201D01*
X111488658Y-54126950D01*
X111398950Y-54216658D01*
X111397201Y-54220091D01*
X111397200Y-54220092D01*
X111384965Y-54244105D01*
X111341354Y-54329696D01*
X111326500Y-54423481D01*
X111326501Y-54886518D01*
X111331140Y-54915812D01*
X111339734Y-54970072D01*
X111341354Y-54980304D01*
X111398950Y-55093342D01*
X111412665Y-55107057D01*
X111426932Y-55138827D01*
X111429823Y-55187965D01*
X111429879Y-55189163D01*
X111432482Y-55265059D01*
X111432508Y-55266216D01*
X111433040Y-55316021D01*
X111419059Y-55350820D01*
X111393603Y-55364602D01*
X111360769Y-55371133D01*
X111294448Y-55415448D01*
X111291768Y-55419459D01*
X111279742Y-55437457D01*
X111248559Y-55458292D01*
X111211777Y-55450976D01*
X111198258Y-55437457D01*
X111186232Y-55419459D01*
X111183552Y-55415448D01*
X111117231Y-55371133D01*
X111078938Y-55363516D01*
X111047758Y-55342682D01*
X111039500Y-55315459D01*
X111039500Y-55312615D01*
X111040327Y-55303650D01*
X111041347Y-55298167D01*
X111044338Y-55282097D01*
X111043394Y-55205585D01*
X111043392Y-55205453D01*
X111043346Y-55202996D01*
X111043345Y-55202968D01*
X111043337Y-55202649D01*
X111043241Y-55199669D01*
X111040289Y-55125133D01*
X111040153Y-55122224D01*
X111040147Y-55122106D01*
X111040129Y-55121775D01*
X111039959Y-55118995D01*
X111039613Y-55113906D01*
X111039500Y-55110582D01*
X111039500Y-55033569D01*
X111044841Y-55011323D01*
X111058896Y-54983738D01*
X111060646Y-54980304D01*
X111075500Y-54886519D01*
X111075499Y-54423482D01*
X111060646Y-54329696D01*
X111017035Y-54244105D01*
X111004800Y-54220092D01*
X111004799Y-54220091D01*
X111003050Y-54216658D01*
X110913342Y-54126950D01*
X110909909Y-54125201D01*
X110909908Y-54125200D01*
X110832973Y-54086000D01*
X110800304Y-54069354D01*
X110796499Y-54068751D01*
X110796498Y-54068751D01*
X110767316Y-54064129D01*
X110706519Y-54054500D01*
X110691149Y-54054500D01*
X110178698Y-54054501D01*
X110144050Y-54040149D01*
X110129698Y-54005501D01*
X110133427Y-53986753D01*
X110142670Y-53964435D01*
X110142673Y-53964426D01*
X110143899Y-53961464D01*
X110149120Y-53921780D01*
X110152188Y-53910017D01*
X110152352Y-53909608D01*
X110154883Y-53903263D01*
X110155500Y-53896970D01*
X110155500Y-53876491D01*
X110155919Y-53870099D01*
X110156982Y-53862020D01*
X110157307Y-53859908D01*
X110159392Y-53848078D01*
X110159392Y-53848076D01*
X110160136Y-53843854D01*
X110156245Y-53821798D01*
X110155500Y-53813287D01*
X110155500Y-53654500D01*
X110169852Y-53619852D01*
X110204500Y-53605500D01*
X110685700Y-53605499D01*
X110706518Y-53605499D01*
X110768095Y-53595747D01*
X110796498Y-53591249D01*
X110796499Y-53591249D01*
X110800304Y-53590646D01*
X110874863Y-53552656D01*
X110909908Y-53534800D01*
X110909909Y-53534799D01*
X110913342Y-53533050D01*
X111003050Y-53443342D01*
X111027970Y-53394435D01*
X111036472Y-53377747D01*
X111060646Y-53330304D01*
X111075500Y-53236519D01*
X111075499Y-52773482D01*
X111074239Y-52765524D01*
X111072915Y-52757164D01*
X111081671Y-52720698D01*
X111113648Y-52701103D01*
X111121312Y-52700500D01*
X111240167Y-52700500D01*
X111274815Y-52714852D01*
X111279442Y-52720201D01*
X111290906Y-52735569D01*
X111306443Y-52756399D01*
X111309707Y-52761380D01*
X111320041Y-52779459D01*
X111326500Y-52803775D01*
X111326501Y-53236518D01*
X111328425Y-53248668D01*
X111335662Y-53294360D01*
X111341354Y-53330304D01*
X111365528Y-53377747D01*
X111374031Y-53394435D01*
X111398950Y-53443342D01*
X111488658Y-53533050D01*
X111492091Y-53534799D01*
X111492092Y-53534800D01*
X111527137Y-53552656D01*
X111601696Y-53590646D01*
X111605501Y-53591249D01*
X111605502Y-53591249D01*
X111633903Y-53595747D01*
X111695481Y-53605500D01*
X112002000Y-53605500D01*
X112308518Y-53605499D01*
X112370095Y-53595747D01*
X112398498Y-53591249D01*
X112398499Y-53591249D01*
X112402304Y-53590646D01*
X112476863Y-53552656D01*
X112511908Y-53534800D01*
X112511909Y-53534799D01*
X112515342Y-53533050D01*
X112605050Y-53443342D01*
X112629970Y-53394435D01*
X112638472Y-53377747D01*
X112662646Y-53330304D01*
X112677500Y-53236519D01*
X112677499Y-52773482D01*
X112668214Y-52714852D01*
X112663249Y-52683502D01*
X112663249Y-52683501D01*
X112662646Y-52679696D01*
X112608341Y-52573117D01*
X112606800Y-52570092D01*
X112606799Y-52570091D01*
X112605050Y-52566658D01*
X112515342Y-52476950D01*
X112511909Y-52475201D01*
X112511908Y-52475200D01*
X112434893Y-52435959D01*
X112402304Y-52419354D01*
X112398499Y-52418751D01*
X112398498Y-52418751D01*
X112358669Y-52412443D01*
X112308519Y-52404500D01*
X112113427Y-52404500D01*
X112102277Y-52403127D01*
X112102258Y-52403210D01*
X112033734Y-52387187D01*
X112033705Y-52387180D01*
X112033562Y-52387147D01*
X112028715Y-52386075D01*
X112028431Y-52386016D01*
X112028299Y-52385988D01*
X112028264Y-52385981D01*
X112028173Y-52385962D01*
X112026826Y-52385697D01*
X112023572Y-52385058D01*
X112023556Y-52385055D01*
X112023490Y-52385042D01*
X111960859Y-52373495D01*
X111958158Y-52373016D01*
X111957995Y-52372988D01*
X111957971Y-52372984D01*
X111939813Y-52369886D01*
X111903645Y-52363716D01*
X111902186Y-52363444D01*
X111860178Y-52354931D01*
X111856503Y-52354037D01*
X111825517Y-52345213D01*
X111820280Y-52343396D01*
X111793756Y-52332465D01*
X111788118Y-52329706D01*
X111758374Y-52312704D01*
X111753405Y-52309447D01*
X111714762Y-52280623D01*
X111710909Y-52277430D01*
X111663059Y-52233471D01*
X111661384Y-52231932D01*
X111659457Y-52230731D01*
X111659453Y-52230728D01*
X111651685Y-52225887D01*
X111642614Y-52217527D01*
X111642425Y-52217731D01*
X111605459Y-52183440D01*
X111604135Y-52182164D01*
X111589723Y-52167752D01*
X111587866Y-52166478D01*
X111586729Y-52165533D01*
X111582572Y-52162209D01*
X111563668Y-52144673D01*
X111560354Y-52141599D01*
X111556159Y-52139925D01*
X111556152Y-52139921D01*
X111544491Y-52135269D01*
X111534931Y-52130165D01*
X111524584Y-52123067D01*
X111524585Y-52123067D01*
X111520854Y-52120508D01*
X111516452Y-52119463D01*
X111516451Y-52119463D01*
X111506767Y-52117165D01*
X111491369Y-52113511D01*
X111484527Y-52111347D01*
X111459597Y-52101401D01*
X111459595Y-52101401D01*
X111456378Y-52100117D01*
X111452933Y-52099779D01*
X111452932Y-52099779D01*
X111451271Y-52099616D01*
X111451265Y-52099616D01*
X111450085Y-52099500D01*
X111438064Y-52099500D01*
X111426750Y-52098176D01*
X111416338Y-52095705D01*
X111416337Y-52095705D01*
X111411934Y-52094660D01*
X111386099Y-52098176D01*
X111379662Y-52099052D01*
X111373054Y-52099500D01*
X107255626Y-52099500D01*
X107248805Y-52098999D01*
X107244658Y-52097575D01*
X107194280Y-52099466D01*
X107192442Y-52099500D01*
X107172052Y-52099500D01*
X107169831Y-52099914D01*
X107168362Y-52100049D01*
X107163074Y-52100637D01*
X107137317Y-52101604D01*
X107137316Y-52101604D01*
X107132792Y-52101774D01*
X107128633Y-52103561D01*
X107128632Y-52103561D01*
X107117106Y-52108513D01*
X107106736Y-52111664D01*
X107094392Y-52113963D01*
X107094391Y-52113963D01*
X107089947Y-52114791D01*
X107086098Y-52117163D01*
X107086094Y-52117165D01*
X107064151Y-52130691D01*
X107057783Y-52134000D01*
X107040097Y-52141599D01*
X107029937Y-52145964D01*
X107025051Y-52149978D01*
X107016553Y-52158476D01*
X107007617Y-52165540D01*
X106998504Y-52171157D01*
X106998502Y-52171159D01*
X106994652Y-52173532D01*
X106991913Y-52177134D01*
X106991912Y-52177135D01*
X106974936Y-52199460D01*
X106970580Y-52204449D01*
X106755881Y-52419148D01*
X106721233Y-52433500D01*
X106355782Y-52433500D01*
X106354025Y-52433759D01*
X106354020Y-52433759D01*
X106315639Y-52439410D01*
X106286888Y-52443642D01*
X106182145Y-52495068D01*
X106110397Y-52566941D01*
X106075764Y-52581322D01*
X106041073Y-52566970D01*
X105410260Y-51936157D01*
X105396030Y-51904969D01*
X105394916Y-51889227D01*
X105394915Y-51889224D01*
X105394657Y-51885576D01*
X105380131Y-51848028D01*
X105378472Y-51842920D01*
X105369098Y-51807568D01*
X105369097Y-51807566D01*
X105368158Y-51804024D01*
X105357300Y-51786614D01*
X105353187Y-51778382D01*
X105345779Y-51759234D01*
X105320864Y-51727630D01*
X105317767Y-51723223D01*
X105298413Y-51692189D01*
X105296473Y-51689078D01*
X105293707Y-51686678D01*
X105293702Y-51686672D01*
X105280974Y-51675627D01*
X105274609Y-51668956D01*
X105272561Y-51666358D01*
X105261912Y-51652850D01*
X105258902Y-51650770D01*
X105258898Y-51650766D01*
X105228812Y-51629974D01*
X105224555Y-51626672D01*
X105196927Y-51602697D01*
X105196925Y-51602695D01*
X105194156Y-51600293D01*
X105175390Y-51591996D01*
X105167350Y-51587494D01*
X105158714Y-51581526D01*
X105150471Y-51575829D01*
X105146980Y-51574725D01*
X105146978Y-51574724D01*
X105112108Y-51563696D01*
X105107071Y-51561793D01*
X105073607Y-51546999D01*
X105070257Y-51545518D01*
X105066620Y-51545087D01*
X105066618Y-51545087D01*
X105049883Y-51543106D01*
X105040872Y-51541166D01*
X105021310Y-51534980D01*
X105014703Y-51534460D01*
X104979712Y-51534460D01*
X104973953Y-51534120D01*
X104935729Y-51529596D01*
X104932126Y-51530254D01*
X104913461Y-51533663D01*
X104904657Y-51534460D01*
X98387712Y-51534460D01*
X98381953Y-51534120D01*
X98343729Y-51529596D01*
X98340127Y-51530254D01*
X98340125Y-51530254D01*
X98284812Y-51540356D01*
X98283294Y-51540608D01*
X98227700Y-51548966D01*
X98227697Y-51548967D01*
X98224078Y-51549511D01*
X98220778Y-51551095D01*
X98217447Y-51552120D01*
X98214069Y-51553277D01*
X98210466Y-51553935D01*
X98157326Y-51581538D01*
X98155975Y-51582213D01*
X98135599Y-51591998D01*
X98101961Y-51608151D01*
X98099271Y-51610638D01*
X98096242Y-51612696D01*
X98096050Y-51612414D01*
X98094859Y-51613251D01*
X98095048Y-51613531D01*
X98092728Y-51615094D01*
X98090251Y-51616381D01*
X98085212Y-51620685D01*
X98046904Y-51658993D01*
X98045517Y-51660327D01*
X98005175Y-51697618D01*
X98005174Y-51697620D01*
X98002484Y-51700106D01*
X98000645Y-51703273D01*
X97998353Y-51706133D01*
X97998316Y-51706103D01*
X97993383Y-51712514D01*
X96106744Y-53599153D01*
X96072096Y-53613505D01*
X96037448Y-53599153D01*
X96031111Y-53589669D01*
X96022253Y-53586000D01*
X95516747Y-53586000D01*
X95509855Y-53588855D01*
X95507000Y-53595747D01*
X95507000Y-54076252D01*
X95509855Y-54083144D01*
X95511197Y-54083700D01*
X95537715Y-54110219D01*
X95537715Y-54147722D01*
X95524121Y-54166355D01*
X95490681Y-54194688D01*
X95488593Y-54196361D01*
X95447164Y-54227745D01*
X95444563Y-54229585D01*
X95407064Y-54254310D01*
X95404142Y-54256093D01*
X95398883Y-54259056D01*
X95367010Y-54277012D01*
X95364206Y-54278474D01*
X95323314Y-54298107D01*
X95320976Y-54299154D01*
X95272755Y-54319247D01*
X95271112Y-54319897D01*
X95237822Y-54332380D01*
X95220618Y-54335500D01*
X95073512Y-54335500D01*
X95023987Y-54343344D01*
X94977680Y-54350678D01*
X94977679Y-54350678D01*
X94973874Y-54351281D01*
X94922416Y-54377500D01*
X94857214Y-54410722D01*
X94857213Y-54410723D01*
X94853780Y-54412472D01*
X94763599Y-54502653D01*
X94735650Y-54516545D01*
X94705581Y-54520694D01*
X94702923Y-54520987D01*
X94640204Y-54526171D01*
X94638208Y-54526294D01*
X94611766Y-54527371D01*
X94580390Y-54528649D01*
X94577185Y-54528675D01*
X94548948Y-54527977D01*
X94547527Y-54527921D01*
X94529886Y-54526972D01*
X94519177Y-54526396D01*
X94487194Y-54512146D01*
X94417125Y-54442199D01*
X94398495Y-54433092D01*
X94309732Y-54389704D01*
X94309731Y-54389704D01*
X94306311Y-54388032D01*
X94234117Y-54377500D01*
X93869410Y-54377500D01*
X93503884Y-54377501D01*
X93502128Y-54377760D01*
X93502121Y-54377760D01*
X93452614Y-54385048D01*
X93431061Y-54388220D01*
X93320341Y-54442581D01*
X93233199Y-54529875D01*
X93231420Y-54533515D01*
X93231419Y-54533516D01*
X93181089Y-54636481D01*
X93179032Y-54640689D01*
X93168500Y-54712883D01*
X86819900Y-54712883D01*
X86837681Y-54658160D01*
X86894280Y-54361457D01*
X86909144Y-54125200D01*
X86913149Y-54061542D01*
X86913246Y-54060000D01*
X86912325Y-54045353D01*
X86894377Y-53760085D01*
X86894280Y-53758543D01*
X86881687Y-53692526D01*
X94682001Y-53692526D01*
X94682302Y-53696349D01*
X94697159Y-53790163D01*
X94699512Y-53797403D01*
X94757132Y-53910489D01*
X94761608Y-53916649D01*
X94851351Y-54006392D01*
X94857511Y-54010868D01*
X94970597Y-54068488D01*
X94977837Y-54070841D01*
X95071651Y-54085699D01*
X95075473Y-54086000D01*
X95197253Y-54086000D01*
X95204145Y-54083145D01*
X95207000Y-54076253D01*
X95207000Y-53595747D01*
X95204145Y-53588855D01*
X95197253Y-53586000D01*
X94691748Y-53586000D01*
X94684856Y-53588855D01*
X94682001Y-53595747D01*
X94682001Y-53692526D01*
X86881687Y-53692526D01*
X86837681Y-53461840D01*
X86777380Y-53276253D01*
X94682000Y-53276253D01*
X94684855Y-53283145D01*
X94691747Y-53286000D01*
X95197253Y-53286000D01*
X95204145Y-53283145D01*
X95207000Y-53276253D01*
X95507000Y-53276253D01*
X95509855Y-53283145D01*
X95516747Y-53286000D01*
X96022252Y-53286000D01*
X96029144Y-53283145D01*
X96031999Y-53276253D01*
X96031999Y-53179474D01*
X96031698Y-53175651D01*
X96016841Y-53081837D01*
X96014488Y-53074597D01*
X95956868Y-52961511D01*
X95952392Y-52955351D01*
X95862649Y-52865608D01*
X95856489Y-52861132D01*
X95743403Y-52803512D01*
X95736163Y-52801159D01*
X95642349Y-52786301D01*
X95638527Y-52786000D01*
X95516747Y-52786000D01*
X95509855Y-52788855D01*
X95507000Y-52795747D01*
X95507000Y-53276253D01*
X95207000Y-53276253D01*
X95207000Y-52795748D01*
X95204145Y-52788856D01*
X95197253Y-52786001D01*
X95075474Y-52786001D01*
X95071651Y-52786302D01*
X94977837Y-52801159D01*
X94970597Y-52803512D01*
X94857511Y-52861132D01*
X94851351Y-52865608D01*
X94761608Y-52955351D01*
X94757132Y-52961511D01*
X94699512Y-53074597D01*
X94697159Y-53081837D01*
X94682301Y-53175651D01*
X94682000Y-53179473D01*
X94682000Y-53276253D01*
X86777380Y-53276253D01*
X86744341Y-53174570D01*
X86730438Y-53145023D01*
X86616389Y-52902658D01*
X86615733Y-52901264D01*
X86596945Y-52871658D01*
X86454715Y-52647540D01*
X86453885Y-52646232D01*
X86432892Y-52620855D01*
X86363891Y-52537448D01*
X86261349Y-52413496D01*
X86251770Y-52404500D01*
X86142389Y-52301785D01*
X86041162Y-52206726D01*
X85846718Y-52065455D01*
X85798045Y-52030092D01*
X85798043Y-52030091D01*
X85796795Y-52029184D01*
X85532104Y-51883668D01*
X85277065Y-51782691D01*
X85252687Y-51773039D01*
X85252684Y-51773038D01*
X85251262Y-51772475D01*
X84958698Y-51697358D01*
X84957181Y-51697166D01*
X84957179Y-51697166D01*
X84874111Y-51686672D01*
X84659027Y-51659500D01*
X84356973Y-51659500D01*
X84141889Y-51686672D01*
X84058821Y-51697166D01*
X84058819Y-51697166D01*
X84057302Y-51697358D01*
X83764738Y-51772475D01*
X83763316Y-51773038D01*
X83763313Y-51773039D01*
X83738935Y-51782691D01*
X83483896Y-51883668D01*
X83219205Y-52029184D01*
X83217957Y-52030091D01*
X83217955Y-52030092D01*
X83169282Y-52065455D01*
X82974838Y-52206726D01*
X82873611Y-52301785D01*
X82764231Y-52404500D01*
X82754651Y-52413496D01*
X82652109Y-52537448D01*
X82583109Y-52620855D01*
X82562115Y-52646232D01*
X82561285Y-52647540D01*
X82419056Y-52871658D01*
X82400267Y-52901264D01*
X82399611Y-52902658D01*
X82285563Y-53145023D01*
X82271659Y-53174570D01*
X82178319Y-53461840D01*
X82121720Y-53758543D01*
X82121623Y-53760085D01*
X82103676Y-54045353D01*
X82102754Y-54060000D01*
X81665290Y-54060000D01*
X81667421Y-54050737D01*
X81667421Y-54050735D01*
X81668657Y-54045360D01*
X81666637Y-54036434D01*
X81666027Y-54033736D01*
X81664895Y-54020172D01*
X81668026Y-53964435D01*
X81676036Y-53821801D01*
X81680950Y-53734305D01*
X81681565Y-53728845D01*
X81733230Y-53424764D01*
X81734453Y-53419407D01*
X81813501Y-53145023D01*
X81819839Y-53123024D01*
X81821653Y-53117840D01*
X81839565Y-53074597D01*
X81939686Y-52832883D01*
X81942068Y-52827936D01*
X81955422Y-52803775D01*
X82051913Y-52629188D01*
X82091266Y-52557984D01*
X82094184Y-52553339D01*
X82272677Y-52301776D01*
X82276097Y-52297489D01*
X82481622Y-52067507D01*
X82485507Y-52063622D01*
X82715489Y-51858097D01*
X82719776Y-51854677D01*
X82971339Y-51676184D01*
X82975984Y-51673266D01*
X83152282Y-51575829D01*
X83245940Y-51524066D01*
X83250885Y-51521685D01*
X83535843Y-51403652D01*
X83541026Y-51401838D01*
X83837407Y-51316453D01*
X83842764Y-51315230D01*
X84146845Y-51263565D01*
X84152305Y-51262950D01*
X84392876Y-51249439D01*
X84437747Y-51246919D01*
X84451475Y-51248089D01*
X84462642Y-51250657D01*
X84480091Y-51246709D01*
X84490903Y-51245501D01*
X120434657Y-51245501D01*
X120445637Y-51246747D01*
G37*
%TD.AperFunction*%
%TA.AperFunction,Conductor*%
G36*
X107624648Y-55435852D02*
G01*
X107639000Y-55470500D01*
X107639000Y-56424252D01*
X107641855Y-56431144D01*
X107648747Y-56433999D01*
X107670392Y-56433999D01*
X107673940Y-56433739D01*
X107737201Y-56424428D01*
X107744384Y-56422196D01*
X107841927Y-56374305D01*
X107848422Y-56369655D01*
X107927881Y-56290057D01*
X107929128Y-56291302D01*
X107955602Y-56274755D01*
X107992145Y-56283187D01*
X107999947Y-56290976D01*
X108000068Y-56290855D01*
X108047484Y-56338188D01*
X108061866Y-56372824D01*
X108047514Y-56407515D01*
X107587881Y-56867148D01*
X107553233Y-56881500D01*
X106657567Y-56881500D01*
X106622919Y-56867148D01*
X106608567Y-56832500D01*
X106622919Y-56797852D01*
X106712150Y-56708621D01*
X106717327Y-56704152D01*
X106721269Y-56702225D01*
X106754033Y-56666905D01*
X106755560Y-56665259D01*
X106756836Y-56663935D01*
X106771248Y-56649523D01*
X106772522Y-56647666D01*
X106773467Y-56646529D01*
X106776791Y-56642372D01*
X106778414Y-56640623D01*
X106797401Y-56620154D01*
X106803728Y-56604297D01*
X106808831Y-56594739D01*
X106815934Y-56584384D01*
X106818493Y-56580654D01*
X106821358Y-56568584D01*
X106825491Y-56551165D01*
X106827655Y-56544322D01*
X106837603Y-56519387D01*
X106837603Y-56519385D01*
X106838883Y-56516178D01*
X106839500Y-56509885D01*
X106839500Y-56497865D01*
X106840824Y-56486552D01*
X106843295Y-56476140D01*
X106843295Y-56476137D01*
X106844340Y-56471734D01*
X106839948Y-56439462D01*
X106839500Y-56432854D01*
X106839500Y-56431131D01*
X106853852Y-56396483D01*
X106866904Y-56387147D01*
X106892218Y-56374718D01*
X106892221Y-56374716D01*
X106895855Y-56372932D01*
X106978293Y-56290350D01*
X106979437Y-56291492D01*
X107006242Y-56274752D01*
X107042782Y-56283198D01*
X107050317Y-56290723D01*
X107050479Y-56290561D01*
X107130075Y-56370018D01*
X107136584Y-56374661D01*
X107234211Y-56422382D01*
X107241385Y-56424599D01*
X107304065Y-56433743D01*
X107307602Y-56434000D01*
X107329253Y-56434000D01*
X107336145Y-56431145D01*
X107339000Y-56424253D01*
X107339000Y-55470500D01*
X107353352Y-55435852D01*
X107388000Y-55421500D01*
X107590000Y-55421500D01*
X107624648Y-55435852D01*
G37*
%TD.AperFunction*%
%TD*%
M02*
