%TF.GenerationSoftware,KiCad,Pcbnew,7.0.1*%
%TF.CreationDate,2023-04-25T19:49:51+02:00*%
%TF.ProjectId,daughterboard,64617567-6874-4657-9262-6f6172642e6b,1.0*%
%TF.SameCoordinates,Original*%
%TF.FileFunction,Copper,L2,Bot*%
%TF.FilePolarity,Positive*%
%FSLAX46Y46*%
G04 Gerber Fmt 4.6, Leading zero omitted, Abs format (unit mm)*
G04 Created by KiCad (PCBNEW 7.0.1) date 2023-04-25 19:49:51*
%MOMM*%
%LPD*%
G01*
G04 APERTURE LIST*
G04 Aperture macros list*
%AMRotRect*
0 Rectangle, with rotation*
0 The origin of the aperture is its center*
0 $1 length*
0 $2 width*
0 $3 Rotation angle, in degrees counterclockwise*
0 Add horizontal line*
21,1,$1,$2,0,0,$3*%
G04 Aperture macros list end*
%TA.AperFunction,ComponentPad*%
%ADD10C,4.400000*%
%TD*%
%TA.AperFunction,SMDPad,CuDef*%
%ADD11R,0.850000X0.300000*%
%TD*%
%TA.AperFunction,ComponentPad*%
%ADD12C,1.100000*%
%TD*%
%TA.AperFunction,SMDPad,CuDef*%
%ADD13RotRect,1.030000X0.500000X50.000000*%
%TD*%
%TA.AperFunction,SMDPad,CuDef*%
%ADD14RotRect,1.030000X0.500000X130.000000*%
%TD*%
%TA.AperFunction,ViaPad*%
%ADD15C,0.600000*%
%TD*%
%TA.AperFunction,Conductor*%
%ADD16C,0.300000*%
%TD*%
%TA.AperFunction,Conductor*%
%ADD17C,0.200000*%
%TD*%
G04 APERTURE END LIST*
D10*
%TO.P,H2,1,1*%
%TO.N,unconnected-(H2-Pad1)*%
X84508000Y-54060000D03*
%TD*%
%TO.P,H1,1,1*%
%TO.N,Net-(J1-SHIELD)*%
X120539000Y-54029000D03*
%TD*%
D11*
%TO.P,J1,A1,GND*%
%TO.N,GND*%
X103381000Y-59380000D03*
%TO.P,J1,A2*%
%TO.N,N/C*%
X103381000Y-58880000D03*
%TO.P,J1,A3*%
X103381000Y-58380000D03*
%TO.P,J1,A4,VBUS*%
%TO.N,Net-(F1-Pad1)*%
X103381000Y-57880000D03*
%TO.P,J1,A5,CC1*%
%TO.N,Net-(J1-CC1)*%
X103381000Y-57380000D03*
%TO.P,J1,A6,D+*%
%TO.N,/DUSB+*%
X103381000Y-56880000D03*
%TO.P,J1,A7,D-*%
%TO.N,/DUSB-*%
X103381000Y-56380000D03*
%TO.P,J1,A8,SBU1*%
%TO.N,unconnected-(J1-SBU1-PadA8)*%
X103381000Y-55880000D03*
%TO.P,J1,A9,VBUS*%
%TO.N,Net-(F1-Pad1)*%
X103381000Y-55380000D03*
%TO.P,J1,A10*%
%TO.N,N/C*%
X103381000Y-54880000D03*
%TO.P,J1,A11*%
X103381000Y-54380000D03*
%TO.P,J1,A12,GND*%
%TO.N,GND*%
X103381000Y-53880000D03*
%TO.P,J1,B1,GND*%
X101721000Y-53880000D03*
%TO.P,J1,B2*%
%TO.N,N/C*%
X101721000Y-54380000D03*
%TO.P,J1,B3*%
X101721000Y-54880000D03*
%TO.P,J1,B4,VBUS*%
%TO.N,Net-(F1-Pad1)*%
X101721000Y-55380000D03*
%TO.P,J1,B5,CC2*%
%TO.N,Net-(J1-CC2)*%
X101721000Y-55880000D03*
%TO.P,J1,B6,D+*%
%TO.N,/DUSB+*%
X101721000Y-56380000D03*
%TO.P,J1,B7,D-*%
%TO.N,/DUSB-*%
X101721000Y-56880000D03*
%TO.P,J1,B8,SBU2*%
%TO.N,unconnected-(J1-SBU2-PadB8)*%
X101721000Y-57380000D03*
%TO.P,J1,B9,VBUS*%
%TO.N,Net-(F1-Pad1)*%
X101721000Y-57880000D03*
%TO.P,J1,B10*%
%TO.N,N/C*%
X101721000Y-58380000D03*
%TO.P,J1,B11*%
X101721000Y-58880000D03*
%TO.P,J1,B12,GND*%
%TO.N,GND*%
X101721000Y-59380000D03*
D12*
%TO.P,J1,S1,SHIELD*%
%TO.N,Net-(J1-SHIELD)*%
X104701000Y-59030000D03*
%TO.P,J1,S2*%
%TO.N,N/C*%
X100401000Y-59030000D03*
%TO.P,J1,S3*%
X104701000Y-54230000D03*
%TO.P,J1,S4*%
X100401000Y-54230000D03*
D13*
%TO.P,J1,S5*%
X103686000Y-60510000D03*
D14*
%TO.P,J1,S6*%
X101416000Y-60510000D03*
%TO.P,J1,S7*%
X103686000Y-52750000D03*
D13*
%TO.P,J1,S8*%
X101416000Y-52750000D03*
%TD*%
D15*
%TO.N,GND*%
X105067651Y-60979667D03*
X98354000Y-59902000D03*
X97296208Y-54946572D03*
X105391461Y-55543064D03*
X94148434Y-53962805D03*
X107461603Y-56733283D03*
X102557396Y-53903198D03*
X102566528Y-59383867D03*
%TO.N,Net-(F1-Pad1)*%
X102582000Y-55387000D03*
X102550000Y-58060000D03*
%TO.N,/DUSB+*%
X104218000Y-56880500D03*
%TO.N,/DUSB-*%
X104638000Y-56309500D03*
X102550000Y-57240000D03*
%TO.N,Net-(J1-CC1)*%
X106361000Y-59148000D03*
%TO.N,Net-(J1-CC2)*%
X98849000Y-54054000D03*
%TD*%
D16*
%TO.N,Net-(F1-Pad1)*%
X102582000Y-55387000D02*
X102577000Y-55387000D01*
X103416000Y-57880000D02*
X102678000Y-57880000D01*
X102577000Y-55387000D02*
X102570000Y-55380000D01*
X102678000Y-57880000D02*
X101686000Y-57880000D01*
X102570000Y-55380000D02*
X101686000Y-55380000D01*
X103416000Y-55380000D02*
X102570000Y-55380000D01*
D17*
%TO.N,/DUSB+*%
X104218000Y-56880500D02*
X104217500Y-56880000D01*
X102510000Y-56380000D02*
X101686000Y-56380000D01*
X104217500Y-56880000D02*
X103010000Y-56880000D01*
X103010000Y-56880000D02*
X102510000Y-56380000D01*
%TO.N,/DUSB-*%
X102190000Y-56880000D02*
X101686000Y-56880000D01*
X104638000Y-56309500D02*
X104567500Y-56380000D01*
X102550000Y-57240000D02*
X102190000Y-56880000D01*
X104567500Y-56380000D02*
X103416000Y-56380000D01*
%TO.N,Net-(J1-CC1)*%
X103416000Y-57380000D02*
X105351000Y-57380000D01*
X106361000Y-58390000D02*
X106361000Y-59148000D01*
X105351000Y-57380000D02*
X106361000Y-58390000D01*
%TO.N,Net-(J1-CC2)*%
X99861000Y-55880000D02*
X98849000Y-54868000D01*
X98849000Y-54868000D02*
X98849000Y-54054000D01*
X101686000Y-55880000D02*
X99861000Y-55880000D01*
%TD*%
%TA.AperFunction,Conductor*%
%TO.N,Net-(F1-Pad1)*%
G36*
X103077592Y-57731756D02*
G01*
X103081988Y-57736050D01*
X103083602Y-57741979D01*
X103083602Y-58019607D01*
X103080649Y-58027377D01*
X103073281Y-58031225D01*
X102986558Y-58041520D01*
X102924493Y-58074250D01*
X102878806Y-58125429D01*
X102831187Y-58191887D01*
X102830541Y-58192708D01*
X102770338Y-58262604D01*
X102765066Y-58266103D01*
X102758744Y-58266345D01*
X102753219Y-58263261D01*
X102752559Y-58262604D01*
X102552461Y-58063445D01*
X102549904Y-58059625D01*
X102549016Y-58055114D01*
X102549062Y-58041521D01*
X102549962Y-57771388D01*
X102553306Y-57763239D01*
X102561385Y-57759731D01*
X102682454Y-57756880D01*
X102776307Y-57749440D01*
X102857190Y-57740571D01*
X102857400Y-57740551D01*
X102950834Y-57733144D01*
X102951440Y-57733113D01*
X103071627Y-57730282D01*
X103077592Y-57731756D01*
G37*
%TD.AperFunction*%
%TD*%
%TA.AperFunction,Conductor*%
%TO.N,Net-(F1-Pad1)*%
G36*
X102148557Y-57733113D02*
G01*
X102149166Y-57733144D01*
X102242592Y-57740551D01*
X102242814Y-57740572D01*
X102323692Y-57749440D01*
X102417545Y-57756880D01*
X102538613Y-57759731D01*
X102546693Y-57763239D01*
X102550037Y-57771389D01*
X102550983Y-58055114D01*
X102550095Y-58059625D01*
X102547537Y-58063446D01*
X102346780Y-58263261D01*
X102341255Y-58266345D01*
X102334933Y-58266103D01*
X102329661Y-58262604D01*
X102269456Y-58192708D01*
X102268810Y-58191887D01*
X102262431Y-58182984D01*
X102221194Y-58125432D01*
X102221191Y-58125428D01*
X102221187Y-58125423D01*
X102175507Y-58074250D01*
X102113441Y-58041520D01*
X102026719Y-58031225D01*
X102019351Y-58027377D01*
X102016398Y-58019607D01*
X102016398Y-57741979D01*
X102018012Y-57736050D01*
X102022408Y-57731756D01*
X102028372Y-57730282D01*
X102148557Y-57733113D01*
G37*
%TD.AperFunction*%
%TD*%
%TA.AperFunction,Conductor*%
%TO.N,Net-(F1-Pad1)*%
G36*
X102468015Y-55115910D02*
G01*
X102471743Y-55120722D01*
X102502084Y-55193339D01*
X102581115Y-55382489D01*
X102582019Y-55387000D01*
X102581115Y-55391511D01*
X102471794Y-55653154D01*
X102468031Y-55657993D01*
X102462338Y-55660266D01*
X102456277Y-55659348D01*
X102352008Y-55613360D01*
X102351867Y-55613297D01*
X102269004Y-55575438D01*
X102269002Y-55575437D01*
X102195341Y-55549558D01*
X102107838Y-55534730D01*
X101994647Y-55530427D01*
X101986663Y-55526851D01*
X101983392Y-55518736D01*
X101983392Y-55241389D01*
X101986708Y-55233228D01*
X101994776Y-55229693D01*
X102107313Y-55226659D01*
X102195046Y-55215172D01*
X102269200Y-55193339D01*
X102352380Y-55158960D01*
X102456348Y-55114476D01*
X102462374Y-55113621D01*
X102468015Y-55115910D01*
G37*
%TD.AperFunction*%
%TD*%
%TA.AperFunction,Conductor*%
%TO.N,Net-(F1-Pad1)*%
G36*
X102707651Y-55114476D02*
G01*
X102811619Y-55158960D01*
X102894799Y-55193339D01*
X102968952Y-55215172D01*
X103056686Y-55226659D01*
X103169223Y-55229693D01*
X103177292Y-55233228D01*
X103180608Y-55241389D01*
X103180608Y-55518736D01*
X103177337Y-55526851D01*
X103169352Y-55530427D01*
X103056160Y-55534730D01*
X103056161Y-55534730D01*
X102968656Y-55549558D01*
X102894994Y-55575438D01*
X102812158Y-55613284D01*
X102812018Y-55613347D01*
X102707722Y-55659348D01*
X102701660Y-55660266D01*
X102695967Y-55657993D01*
X102692205Y-55653156D01*
X102582883Y-55391507D01*
X102581980Y-55387000D01*
X102582883Y-55382492D01*
X102692257Y-55120719D01*
X102695984Y-55115910D01*
X102701625Y-55113621D01*
X102707651Y-55114476D01*
G37*
%TD.AperFunction*%
%TD*%
%TA.AperFunction,Conductor*%
%TO.N,/DUSB+*%
G36*
X102150539Y-56232421D02*
G01*
X102175999Y-56246000D01*
X102200367Y-56256559D01*
X102206000Y-56259000D01*
X102236000Y-56268999D01*
X102266000Y-56275999D01*
X102266001Y-56275999D01*
X102266005Y-56276000D01*
X102285846Y-56278646D01*
X102293103Y-56282536D01*
X102296000Y-56290243D01*
X102296000Y-56469757D01*
X102293103Y-56477464D01*
X102285846Y-56481353D01*
X102284042Y-56481594D01*
X102266005Y-56483998D01*
X102236002Y-56490999D01*
X102205991Y-56501002D01*
X102175999Y-56513998D01*
X102150539Y-56527578D01*
X102145918Y-56528921D01*
X102141147Y-56528291D01*
X101751342Y-56391036D01*
X101745679Y-56386761D01*
X101743528Y-56380000D01*
X101745679Y-56373239D01*
X101751342Y-56368964D01*
X102141150Y-56231707D01*
X102145918Y-56231078D01*
X102150539Y-56232421D01*
G37*
%TD.AperFunction*%
%TD*%
%TA.AperFunction,Conductor*%
%TO.N,/DUSB+*%
G36*
X104104082Y-56609793D02*
G01*
X104107946Y-56614707D01*
X104217115Y-56875989D01*
X104218019Y-56880500D01*
X104217115Y-56885011D01*
X104107949Y-57146284D01*
X104104082Y-57151200D01*
X104098236Y-57153423D01*
X104092080Y-57152316D01*
X103986361Y-57101448D01*
X103985459Y-57100964D01*
X103903740Y-57052423D01*
X103831712Y-57014069D01*
X103744828Y-56988987D01*
X103628971Y-56980771D01*
X103621238Y-56977075D01*
X103618099Y-56969100D01*
X103618099Y-56790907D01*
X103621241Y-56782929D01*
X103628979Y-56779236D01*
X103744776Y-56771110D01*
X103831682Y-56746263D01*
X103903758Y-56708195D01*
X103985518Y-56659894D01*
X103986404Y-56659422D01*
X104092086Y-56608670D01*
X104098239Y-56607569D01*
X104104082Y-56609793D01*
G37*
%TD.AperFunction*%
%TD*%
%TA.AperFunction,Conductor*%
%TO.N,/DUSB+*%
G36*
X103006401Y-56668977D02*
G01*
X103016807Y-56671375D01*
X103016811Y-56671375D01*
X103016825Y-56671379D01*
X103113006Y-56690534D01*
X103171234Y-56700314D01*
X103209178Y-56706688D01*
X103223306Y-56708620D01*
X103305367Y-56719844D01*
X103389611Y-56728739D01*
X103395343Y-56730971D01*
X103399152Y-56735804D01*
X103399981Y-56741901D01*
X103382960Y-56871189D01*
X103379359Y-56878200D01*
X103372128Y-56881337D01*
X102960682Y-56908399D01*
X102952401Y-56905693D01*
X102920645Y-56879094D01*
X102885293Y-56852485D01*
X102849934Y-56828869D01*
X102814579Y-56808257D01*
X102814574Y-56808254D01*
X102814568Y-56808251D01*
X102793776Y-56797893D01*
X102788600Y-56792795D01*
X102787432Y-56785626D01*
X102790718Y-56779150D01*
X102916064Y-56653804D01*
X102921107Y-56650833D01*
X102926957Y-56650678D01*
X103006401Y-56668977D01*
G37*
%TD.AperFunction*%
%TD*%
%TA.AperFunction,Conductor*%
%TO.N,/DUSB-*%
G36*
X102150130Y-56789760D02*
G01*
X102183932Y-56812439D01*
X102221865Y-56834890D01*
X102247817Y-56848197D01*
X102259800Y-56854342D01*
X102276726Y-56861682D01*
X102297730Y-56870791D01*
X102318195Y-56878047D01*
X102324208Y-56882877D01*
X102325909Y-56890400D01*
X102322557Y-56897347D01*
X102198727Y-57021177D01*
X102193784Y-57024120D01*
X102188035Y-57024351D01*
X102184591Y-57023623D01*
X102174948Y-57023037D01*
X102165298Y-57023905D01*
X102155648Y-57026226D01*
X102150057Y-57028413D01*
X102141891Y-57028545D01*
X101759102Y-56893032D01*
X101753243Y-56888450D01*
X101751330Y-56881262D01*
X101754137Y-56874374D01*
X101760528Y-56870569D01*
X102141139Y-56788042D01*
X102145808Y-56787985D01*
X102150130Y-56789760D01*
G37*
%TD.AperFunction*%
%TD*%
%TA.AperFunction,Conductor*%
%TO.N,/DUSB-*%
G36*
X102174939Y-56784186D02*
G01*
X102244728Y-56788038D01*
X102246704Y-56788319D01*
X102346472Y-56811346D01*
X102348577Y-56812049D01*
X102432278Y-56849170D01*
X102432987Y-56849512D01*
X102529053Y-56900139D01*
X102654631Y-56958137D01*
X102660615Y-56964482D01*
X102660548Y-56973203D01*
X102552852Y-57235489D01*
X102550310Y-57239311D01*
X102546493Y-57241860D01*
X102285307Y-57349657D01*
X102278754Y-57350354D01*
X102272864Y-57347399D01*
X102269506Y-57341732D01*
X102246860Y-57252820D01*
X102246499Y-57249933D01*
X102246499Y-57220101D01*
X102240682Y-57190850D01*
X102240487Y-57189405D01*
X102237026Y-57140434D01*
X102226731Y-57056972D01*
X102188910Y-57000659D01*
X102188909Y-57000658D01*
X102108193Y-56982088D01*
X102101662Y-56977973D01*
X102099116Y-56970686D01*
X102099116Y-56792364D01*
X102100793Y-56786329D01*
X102105342Y-56782023D01*
X102111461Y-56780682D01*
X102174939Y-56784186D01*
G37*
%TD.AperFunction*%
%TD*%
%TA.AperFunction,Conductor*%
%TO.N,/DUSB-*%
G36*
X104524178Y-56039315D02*
G01*
X104528217Y-56044356D01*
X104637115Y-56304989D01*
X104638019Y-56309500D01*
X104637115Y-56314011D01*
X104527705Y-56575868D01*
X104521353Y-56582180D01*
X104512398Y-56582153D01*
X104469260Y-56564129D01*
X104465498Y-56561606D01*
X104456343Y-56552451D01*
X104456343Y-56552450D01*
X104456342Y-56552450D01*
X104399823Y-56523652D01*
X104343303Y-56494853D01*
X104217999Y-56475007D01*
X104173472Y-56482060D01*
X104171427Y-56482201D01*
X104063506Y-56480211D01*
X104055374Y-56476711D01*
X104052023Y-56468514D01*
X104052023Y-56290326D01*
X104054951Y-56282584D01*
X104062269Y-56278717D01*
X104132865Y-56269875D01*
X104179620Y-56264020D01*
X104262035Y-56222155D01*
X104327705Y-56163567D01*
X104327874Y-56163421D01*
X104404415Y-56097977D01*
X104406367Y-56096627D01*
X104511782Y-56038616D01*
X104518079Y-56037186D01*
X104524178Y-56039315D01*
G37*
%TD.AperFunction*%
%TD*%
%TA.AperFunction,Conductor*%
%TO.N,/DUSB-*%
G36*
X103810539Y-56232421D02*
G01*
X103835999Y-56246000D01*
X103860367Y-56256559D01*
X103866000Y-56259000D01*
X103896000Y-56268999D01*
X103926000Y-56275999D01*
X103926001Y-56275999D01*
X103926005Y-56276000D01*
X103945846Y-56278646D01*
X103953103Y-56282536D01*
X103956000Y-56290243D01*
X103956000Y-56469757D01*
X103953103Y-56477464D01*
X103945846Y-56481353D01*
X103944042Y-56481594D01*
X103926005Y-56483998D01*
X103896002Y-56490999D01*
X103865991Y-56501002D01*
X103835999Y-56513998D01*
X103810539Y-56527578D01*
X103805918Y-56528921D01*
X103801147Y-56528291D01*
X103411342Y-56391036D01*
X103405679Y-56386761D01*
X103403528Y-56380000D01*
X103405679Y-56373239D01*
X103411342Y-56368964D01*
X103801150Y-56231707D01*
X103805918Y-56231078D01*
X103810539Y-56232421D01*
G37*
%TD.AperFunction*%
%TD*%
%TA.AperFunction,Conductor*%
%TO.N,Net-(J1-CC1)*%
G36*
X103810539Y-57232421D02*
G01*
X103835999Y-57246000D01*
X103860367Y-57256559D01*
X103866000Y-57259000D01*
X103896000Y-57268999D01*
X103926000Y-57275999D01*
X103926001Y-57275999D01*
X103926005Y-57276000D01*
X103945846Y-57278646D01*
X103953103Y-57282536D01*
X103956000Y-57290243D01*
X103956000Y-57469757D01*
X103953103Y-57477464D01*
X103945846Y-57481353D01*
X103944042Y-57481594D01*
X103926005Y-57483998D01*
X103896002Y-57490999D01*
X103865991Y-57501002D01*
X103835999Y-57513998D01*
X103810539Y-57527578D01*
X103805918Y-57528921D01*
X103801147Y-57528291D01*
X103411342Y-57391036D01*
X103405679Y-57386761D01*
X103403528Y-57380000D01*
X103405679Y-57373239D01*
X103411342Y-57368964D01*
X103801150Y-57231707D01*
X103805918Y-57231078D01*
X103810539Y-57232421D01*
G37*
%TD.AperFunction*%
%TD*%
%TA.AperFunction,Conductor*%
%TO.N,Net-(J1-CC1)*%
G36*
X106458073Y-58551141D02*
G01*
X106461767Y-58558877D01*
X106469935Y-58674728D01*
X106494896Y-58761639D01*
X106533101Y-58833703D01*
X106581527Y-58915466D01*
X106582005Y-58916359D01*
X106632822Y-59022082D01*
X106633926Y-59028237D01*
X106631703Y-59034082D01*
X106626788Y-59037947D01*
X106365511Y-59147115D01*
X106361000Y-59148019D01*
X106356489Y-59147115D01*
X106095210Y-59037947D01*
X106090295Y-59034082D01*
X106088072Y-59028237D01*
X106089175Y-59022086D01*
X106139998Y-58916346D01*
X106140468Y-58915470D01*
X106140471Y-58915466D01*
X106188893Y-58833709D01*
X106188897Y-58833703D01*
X106204066Y-58805089D01*
X106227102Y-58761640D01*
X106252062Y-58674727D01*
X106260232Y-58558877D01*
X106263927Y-58551141D01*
X106271904Y-58548000D01*
X106450096Y-58548000D01*
X106458073Y-58551141D01*
G37*
%TD.AperFunction*%
%TD*%
%TA.AperFunction,Conductor*%
%TO.N,Net-(J1-CC2)*%
G36*
X98853507Y-54054883D02*
G01*
X99076917Y-54148228D01*
X99114788Y-54164052D01*
X99119703Y-54167917D01*
X99121926Y-54173762D01*
X99120822Y-54179917D01*
X99070005Y-54285638D01*
X99069527Y-54286531D01*
X99021101Y-54368295D01*
X98982896Y-54440359D01*
X98957935Y-54527270D01*
X98949767Y-54643123D01*
X98946073Y-54650859D01*
X98938096Y-54654000D01*
X98759904Y-54654000D01*
X98751927Y-54650859D01*
X98748233Y-54643123D01*
X98740062Y-54527270D01*
X98715102Y-54440359D01*
X98676896Y-54368294D01*
X98628470Y-54286531D01*
X98627992Y-54285638D01*
X98577177Y-54179917D01*
X98576073Y-54173762D01*
X98578296Y-54167917D01*
X98583210Y-54164052D01*
X98844492Y-54054883D01*
X98849000Y-54053980D01*
X98853507Y-54054883D01*
G37*
%TD.AperFunction*%
%TD*%
%TA.AperFunction,Conductor*%
%TO.N,Net-(J1-CC2)*%
G36*
X101300849Y-55731707D02*
G01*
X101545435Y-55817829D01*
X101690657Y-55868964D01*
X101696320Y-55873239D01*
X101698471Y-55880000D01*
X101696320Y-55886761D01*
X101690657Y-55891036D01*
X101300852Y-56028291D01*
X101296081Y-56028921D01*
X101291460Y-56027578D01*
X101266000Y-56013998D01*
X101236008Y-56001002D01*
X101236003Y-56001000D01*
X101236000Y-56000999D01*
X101206000Y-55991000D01*
X101205997Y-55990999D01*
X101175994Y-55983998D01*
X101158137Y-55981618D01*
X101156153Y-55981353D01*
X101148897Y-55977464D01*
X101146000Y-55969757D01*
X101146000Y-55790243D01*
X101148897Y-55782536D01*
X101156154Y-55778646D01*
X101175994Y-55776000D01*
X101175995Y-55775999D01*
X101176000Y-55775999D01*
X101206000Y-55768999D01*
X101236000Y-55759000D01*
X101266000Y-55746000D01*
X101291461Y-55732420D01*
X101296081Y-55731078D01*
X101300849Y-55731707D01*
G37*
%TD.AperFunction*%
%TD*%
%TA.AperFunction,Conductor*%
%TO.N,GND*%
G36*
X102687210Y-58572405D02*
G01*
X102730046Y-58605835D01*
X102754477Y-58654370D01*
X102755810Y-58708688D01*
X102755500Y-58710252D01*
X102755500Y-59049748D01*
X102766906Y-59107089D01*
X102766906Y-59155469D01*
X102756000Y-59210302D01*
X102756000Y-59230000D01*
X102921527Y-59230000D01*
X102926604Y-59230500D01*
X103407000Y-59230500D01*
X103469000Y-59247113D01*
X103514387Y-59292500D01*
X103531000Y-59354500D01*
X103531000Y-59730000D01*
X103549309Y-59748309D01*
X103553117Y-59749419D01*
X103598874Y-59801595D01*
X103609431Y-59870185D01*
X103581482Y-59933704D01*
X103374106Y-60180847D01*
X103060490Y-60554601D01*
X103011951Y-60589866D01*
X102952539Y-60598216D01*
X102896160Y-60577696D01*
X102856015Y-60533109D01*
X102841500Y-60474895D01*
X102841500Y-60118778D01*
X102831941Y-60092515D01*
X102806461Y-60022510D01*
X102740610Y-59944031D01*
X102651889Y-59892809D01*
X102551000Y-59875019D01*
X102450111Y-59892809D01*
X102417203Y-59911808D01*
X102361389Y-59944031D01*
X102295539Y-60022509D01*
X102260500Y-60118778D01*
X102260500Y-60474895D01*
X102245985Y-60533109D01*
X102205840Y-60577696D01*
X102149461Y-60598216D01*
X102090049Y-60589866D01*
X102041510Y-60554601D01*
X101727894Y-60180847D01*
X101520517Y-59933704D01*
X101492569Y-59870185D01*
X101503126Y-59801595D01*
X101548883Y-59749419D01*
X101552690Y-59748309D01*
X101571000Y-59730000D01*
X101571000Y-59530000D01*
X101871000Y-59530000D01*
X101871000Y-59730000D01*
X102165697Y-59730000D01*
X102224036Y-59718395D01*
X102290192Y-59674192D01*
X102334395Y-59608036D01*
X102346000Y-59549697D01*
X102346000Y-59530000D01*
X102756000Y-59530000D01*
X102756000Y-59549697D01*
X102767604Y-59608036D01*
X102811807Y-59674192D01*
X102877963Y-59718395D01*
X102936303Y-59730000D01*
X103231000Y-59730000D01*
X103231000Y-59530000D01*
X102756000Y-59530000D01*
X102346000Y-59530000D01*
X101871000Y-59530000D01*
X101571000Y-59530000D01*
X101571000Y-59354500D01*
X101587613Y-59292500D01*
X101633000Y-59247113D01*
X101695000Y-59230500D01*
X102175396Y-59230500D01*
X102180473Y-59230000D01*
X102346000Y-59230000D01*
X102346000Y-59210301D01*
X102335094Y-59155474D01*
X102335094Y-59107090D01*
X102346500Y-59049749D01*
X102346500Y-58710255D01*
X102346500Y-58710252D01*
X102346189Y-58708688D01*
X102347523Y-58654370D01*
X102371954Y-58605835D01*
X102414790Y-58572405D01*
X102467807Y-58560500D01*
X102634193Y-58560500D01*
X102687210Y-58572405D01*
G37*
%TD.AperFunction*%
%TA.AperFunction,Conductor*%
G36*
X120466243Y-51045670D02*
G01*
X120770007Y-51061591D01*
X120770046Y-51061593D01*
X120782953Y-51062950D01*
X120914089Y-51083719D01*
X121080209Y-51110029D01*
X121092896Y-51112725D01*
X121383625Y-51190626D01*
X121395965Y-51194636D01*
X121514005Y-51239948D01*
X121676934Y-51302490D01*
X121688790Y-51307768D01*
X121956976Y-51444416D01*
X121968183Y-51450886D01*
X122220619Y-51614820D01*
X122231108Y-51622441D01*
X122378101Y-51741474D01*
X122465010Y-51811851D01*
X122474655Y-51820536D01*
X122687464Y-52033345D01*
X122696149Y-52042990D01*
X122885558Y-52276891D01*
X122893182Y-52287385D01*
X123057110Y-52539811D01*
X123063591Y-52551037D01*
X123200230Y-52819209D01*
X123205509Y-52831066D01*
X123313362Y-53112034D01*
X123317373Y-53124377D01*
X123395272Y-53415098D01*
X123397970Y-53427794D01*
X123445051Y-53725047D01*
X123446408Y-53737956D01*
X123462330Y-54041777D01*
X123462500Y-54048266D01*
X123462500Y-61041754D01*
X123462330Y-61048244D01*
X123446407Y-61352046D01*
X123445050Y-61364953D01*
X123397971Y-61662205D01*
X123395273Y-61674902D01*
X123317374Y-61965623D01*
X123313363Y-61977966D01*
X123205510Y-62258935D01*
X123200231Y-62270793D01*
X123063591Y-62538963D01*
X123057101Y-62550203D01*
X122893187Y-62802608D01*
X122885558Y-62813109D01*
X122696149Y-63047010D01*
X122687464Y-63056655D01*
X122474655Y-63269464D01*
X122465010Y-63278149D01*
X122231109Y-63467558D01*
X122220608Y-63475187D01*
X121968203Y-63639101D01*
X121956963Y-63645591D01*
X121688793Y-63782231D01*
X121676935Y-63787510D01*
X121395966Y-63895363D01*
X121383623Y-63899374D01*
X121092902Y-63977273D01*
X121080205Y-63979971D01*
X120782953Y-64027050D01*
X120770046Y-64028407D01*
X120466244Y-64044330D01*
X120459754Y-64044500D01*
X84466246Y-64044500D01*
X84459757Y-64044330D01*
X84155956Y-64028409D01*
X84143047Y-64027052D01*
X83845794Y-63979971D01*
X83833098Y-63977273D01*
X83542376Y-63899374D01*
X83530033Y-63895363D01*
X83249065Y-63787510D01*
X83237207Y-63782231D01*
X83106401Y-63715582D01*
X82969030Y-63645588D01*
X82957811Y-63639111D01*
X82705385Y-63475183D01*
X82694891Y-63467559D01*
X82460989Y-63278149D01*
X82451344Y-63269464D01*
X82238530Y-63056651D01*
X82229845Y-63047005D01*
X82040445Y-62813114D01*
X82032822Y-62802623D01*
X81868885Y-62550183D01*
X81862415Y-62538977D01*
X81725765Y-62270786D01*
X81720496Y-62258950D01*
X81612633Y-61977959D01*
X81608624Y-61965621D01*
X81570315Y-61822651D01*
X81530724Y-61674896D01*
X81528028Y-61662205D01*
X81480949Y-61364953D01*
X81479592Y-61352046D01*
X81463671Y-61048263D01*
X81463501Y-61041773D01*
X81463501Y-54059999D01*
X82102753Y-54059999D01*
X82121719Y-54361452D01*
X82178319Y-54658163D01*
X82271658Y-54945428D01*
X82400268Y-55218739D01*
X82524968Y-55415234D01*
X82562115Y-55473768D01*
X82691361Y-55630000D01*
X82754650Y-55706503D01*
X82974839Y-55913276D01*
X83219204Y-56090816D01*
X83275786Y-56121922D01*
X83483896Y-56236332D01*
X83624317Y-56291928D01*
X83764737Y-56347525D01*
X83919141Y-56387168D01*
X84057302Y-56422642D01*
X84289350Y-56451957D01*
X84356972Y-56460500D01*
X84356973Y-56460500D01*
X84659027Y-56460500D01*
X84659028Y-56460500D01*
X84726650Y-56451957D01*
X84958698Y-56422642D01*
X85251262Y-56347525D01*
X85532104Y-56236332D01*
X85796795Y-56090816D01*
X85812370Y-56079500D01*
X86041160Y-55913276D01*
X86074171Y-55882276D01*
X86261349Y-55706504D01*
X86453885Y-55473768D01*
X86615733Y-55218736D01*
X86744341Y-54945430D01*
X86837681Y-54658160D01*
X86894280Y-54361457D01*
X86913246Y-54060000D01*
X86912868Y-54053999D01*
X98343353Y-54053999D01*
X98363834Y-54196455D01*
X98363835Y-54196457D01*
X98376910Y-54225089D01*
X98382093Y-54238427D01*
X98391961Y-54268941D01*
X98391963Y-54268945D01*
X98442765Y-54374640D01*
X98446831Y-54382650D01*
X98447273Y-54383476D01*
X98447293Y-54383511D01*
X98451655Y-54391254D01*
X98496131Y-54466348D01*
X98498987Y-54471441D01*
X98517444Y-54506256D01*
X98527071Y-54530111D01*
X98532994Y-54550736D01*
X98537504Y-54576236D01*
X98543242Y-54657583D01*
X98544397Y-54661959D01*
X98548500Y-54693592D01*
X98548500Y-54798757D01*
X98545756Y-54815577D01*
X98548368Y-54872079D01*
X98548500Y-54877805D01*
X98548500Y-54896819D01*
X98550181Y-54911307D01*
X98551415Y-54937993D01*
X98554213Y-54944330D01*
X98562666Y-54971626D01*
X98563938Y-54978434D01*
X98577997Y-55001140D01*
X98586002Y-55016327D01*
X98596792Y-55040763D01*
X98601688Y-55045659D01*
X98619434Y-55068063D01*
X98623081Y-55073952D01*
X98644396Y-55090048D01*
X98657351Y-55101322D01*
X99599550Y-56043521D01*
X99609507Y-56057358D01*
X99617041Y-56064226D01*
X99617042Y-56064228D01*
X99628650Y-56074810D01*
X99651316Y-56095474D01*
X99655457Y-56099429D01*
X99668888Y-56112860D01*
X99680328Y-56121922D01*
X99700065Y-56139915D01*
X99700066Y-56139915D01*
X99700067Y-56139916D01*
X99706340Y-56142346D01*
X99706523Y-56142417D01*
X99731810Y-56155745D01*
X99737519Y-56159656D01*
X99763514Y-56165769D01*
X99779910Y-56170846D01*
X99804827Y-56180500D01*
X99811751Y-56180500D01*
X99840140Y-56183793D01*
X99846881Y-56185379D01*
X99873333Y-56181688D01*
X99890465Y-56180500D01*
X100971500Y-56180500D01*
X101033500Y-56197113D01*
X101078887Y-56242500D01*
X101095500Y-56304500D01*
X101095500Y-56549747D01*
X101106651Y-56605809D01*
X101106651Y-56654188D01*
X101095500Y-56710252D01*
X101095500Y-57049747D01*
X101106651Y-57105810D01*
X101106651Y-57154190D01*
X101095500Y-57210253D01*
X101095500Y-57549747D01*
X101106651Y-57605810D01*
X101106651Y-57654190D01*
X101095500Y-57710253D01*
X101095500Y-58049747D01*
X101106651Y-58105810D01*
X101106651Y-58154190D01*
X101103914Y-58167950D01*
X101097109Y-58202166D01*
X101095500Y-58210253D01*
X101095500Y-58363771D01*
X101081985Y-58420066D01*
X101044385Y-58464089D01*
X100990898Y-58486244D01*
X100933182Y-58481702D01*
X100883819Y-58451452D01*
X100871891Y-58439524D01*
X100871891Y-58439523D01*
X100871890Y-58439523D01*
X100728690Y-58349544D01*
X100569059Y-58293687D01*
X100569058Y-58293686D01*
X100569056Y-58293686D01*
X100401000Y-58274750D01*
X100232943Y-58293686D01*
X100073310Y-58349544D01*
X99930108Y-58439524D01*
X99810524Y-58559108D01*
X99720544Y-58702310D01*
X99664686Y-58861943D01*
X99645750Y-59030000D01*
X99664686Y-59198056D01*
X99664686Y-59198058D01*
X99664687Y-59198059D01*
X99720544Y-59357690D01*
X99810523Y-59500890D01*
X99930110Y-59620477D01*
X100073310Y-59710456D01*
X100232941Y-59766313D01*
X100401000Y-59785249D01*
X100569059Y-59766313D01*
X100728690Y-59710456D01*
X100871890Y-59620477D01*
X100911334Y-59581032D01*
X100957239Y-59551963D01*
X101011168Y-59545311D01*
X101062763Y-59562356D01*
X101102116Y-59599824D01*
X101142912Y-59660880D01*
X101163168Y-59717167D01*
X101154713Y-59776388D01*
X101119516Y-59824759D01*
X100749448Y-60135284D01*
X100712122Y-60181789D01*
X100689803Y-60258367D01*
X100698486Y-60337656D01*
X100698487Y-60337657D01*
X100727168Y-60389935D01*
X101408780Y-61202250D01*
X101414628Y-61209219D01*
X101461128Y-61246539D01*
X101461129Y-61246539D01*
X101461130Y-61246540D01*
X101537707Y-61268859D01*
X101616997Y-61260176D01*
X101669276Y-61231495D01*
X102082553Y-60884714D01*
X102119877Y-60838211D01*
X102122036Y-60830804D01*
X102156809Y-60774541D01*
X102215563Y-60744156D01*
X102281578Y-60748301D01*
X102336070Y-60785794D01*
X102361390Y-60815969D01*
X102450111Y-60867191D01*
X102551000Y-60884981D01*
X102651889Y-60867191D01*
X102740610Y-60815969D01*
X102765927Y-60785796D01*
X102820419Y-60748302D01*
X102886434Y-60744156D01*
X102945188Y-60774538D01*
X102979964Y-60830804D01*
X102982122Y-60838210D01*
X102982123Y-60838211D01*
X103019447Y-60884714D01*
X103432724Y-61231495D01*
X103485003Y-61260176D01*
X103564293Y-61268859D01*
X103640870Y-61246540D01*
X103687374Y-61209217D01*
X104374832Y-60389935D01*
X104403513Y-60337657D01*
X104412196Y-60258367D01*
X104389877Y-60181789D01*
X104352553Y-60135286D01*
X104332880Y-60118778D01*
X103982483Y-59824759D01*
X103947286Y-59776388D01*
X103938831Y-59717167D01*
X103959087Y-59660880D01*
X103999883Y-59599824D01*
X104039236Y-59562356D01*
X104090831Y-59545311D01*
X104144759Y-59551962D01*
X104190666Y-59581033D01*
X104230110Y-59620477D01*
X104373310Y-59710456D01*
X104532941Y-59766313D01*
X104701000Y-59785249D01*
X104869059Y-59766313D01*
X105028690Y-59710456D01*
X105171890Y-59620477D01*
X105291477Y-59500890D01*
X105381456Y-59357690D01*
X105437313Y-59198059D01*
X105456249Y-59030000D01*
X105437313Y-58861941D01*
X105381456Y-58702310D01*
X105291477Y-58559110D01*
X105171890Y-58439523D01*
X105028690Y-58349544D01*
X104869059Y-58293687D01*
X104869058Y-58293686D01*
X104869056Y-58293686D01*
X104701000Y-58274750D01*
X104532943Y-58293686D01*
X104373310Y-58349544D01*
X104230108Y-58439524D01*
X104218181Y-58451452D01*
X104168818Y-58481702D01*
X104111102Y-58486244D01*
X104057615Y-58464089D01*
X104020015Y-58420066D01*
X104006500Y-58363771D01*
X104006500Y-58210253D01*
X104006500Y-58210252D01*
X103995348Y-58154187D01*
X103995348Y-58105813D01*
X104006500Y-58049748D01*
X104006500Y-57804500D01*
X104023113Y-57742500D01*
X104068500Y-57697113D01*
X104130500Y-57680500D01*
X105175167Y-57680500D01*
X105222620Y-57689939D01*
X105262848Y-57716819D01*
X106017569Y-58471540D01*
X106046048Y-58515829D01*
X106053581Y-58567944D01*
X106049504Y-58625759D01*
X106044994Y-58651262D01*
X106039071Y-58671887D01*
X106029443Y-58695745D01*
X106010990Y-58730550D01*
X106008127Y-58735655D01*
X105963646Y-58810759D01*
X105959474Y-58818149D01*
X105958977Y-58819074D01*
X105954788Y-58827307D01*
X105903956Y-58933065D01*
X105894092Y-58963570D01*
X105888903Y-58976925D01*
X105875835Y-59005540D01*
X105855353Y-59148000D01*
X105875834Y-59290457D01*
X105935623Y-59421374D01*
X106004524Y-59500890D01*
X106029872Y-59530143D01*
X106150947Y-59607953D01*
X106289039Y-59648500D01*
X106432961Y-59648500D01*
X106571053Y-59607953D01*
X106692128Y-59530143D01*
X106786377Y-59421373D01*
X106846165Y-59290457D01*
X106866647Y-59148000D01*
X106846165Y-59005543D01*
X106833086Y-58976906D01*
X106827902Y-58963563D01*
X106818037Y-58933056D01*
X106783855Y-58861941D01*
X106767214Y-58827319D01*
X106763185Y-58819383D01*
X106762723Y-58818520D01*
X106762704Y-58818486D01*
X106758342Y-58810743D01*
X106713871Y-58735659D01*
X106711013Y-58730561D01*
X106692549Y-58695733D01*
X106682926Y-58671887D01*
X106677001Y-58651259D01*
X106672492Y-58625754D01*
X106666758Y-58544422D01*
X106665603Y-58540044D01*
X106661500Y-58508412D01*
X106661500Y-58459244D01*
X106664243Y-58442423D01*
X106663772Y-58432237D01*
X106663773Y-58432236D01*
X106661631Y-58385920D01*
X106661500Y-58380196D01*
X106661500Y-58361178D01*
X106659817Y-58346680D01*
X106658585Y-58320009D01*
X106655786Y-58313671D01*
X106647332Y-58286367D01*
X106646061Y-58279568D01*
X106646061Y-58279567D01*
X106631997Y-58256853D01*
X106623994Y-58241669D01*
X106613206Y-58217235D01*
X106608310Y-58212338D01*
X106590563Y-58189933D01*
X106586919Y-58184048D01*
X106565602Y-58167950D01*
X106552648Y-58156677D01*
X105612450Y-57216479D01*
X105602497Y-57202645D01*
X105560681Y-57164524D01*
X105556540Y-57160569D01*
X105543110Y-57147139D01*
X105531678Y-57138083D01*
X105511934Y-57120084D01*
X105505468Y-57117579D01*
X105480192Y-57104256D01*
X105474481Y-57100344D01*
X105474480Y-57100343D01*
X105474478Y-57100342D01*
X105448484Y-57094228D01*
X105432087Y-57089151D01*
X105407173Y-57079500D01*
X105400249Y-57079500D01*
X105371859Y-57076206D01*
X105365119Y-57074621D01*
X105365118Y-57074621D01*
X105353757Y-57076206D01*
X105338666Y-57078311D01*
X105321535Y-57079500D01*
X104838139Y-57079500D01*
X104771100Y-57059816D01*
X104725345Y-57007012D01*
X104715401Y-56937854D01*
X104723492Y-56881576D01*
X104738843Y-56837222D01*
X104769580Y-56801750D01*
X104811294Y-56780245D01*
X104848053Y-56769453D01*
X104969128Y-56691643D01*
X105063377Y-56582873D01*
X105123165Y-56451957D01*
X105143647Y-56309500D01*
X105123165Y-56167043D01*
X105122582Y-56165767D01*
X105063376Y-56036125D01*
X104969129Y-55927358D01*
X104969128Y-55927357D01*
X104848053Y-55849547D01*
X104709961Y-55809000D01*
X104566039Y-55809000D01*
X104566038Y-55809000D01*
X104471062Y-55836885D01*
X104465313Y-55838383D01*
X104460816Y-55839894D01*
X104427946Y-55849546D01*
X104424540Y-55851735D01*
X104417293Y-55856051D01*
X104307284Y-55916590D01*
X104289481Y-55927605D01*
X104287520Y-55928962D01*
X104270871Y-55941783D01*
X104211084Y-55992904D01*
X104147540Y-56021482D01*
X104078617Y-56011282D01*
X104026074Y-55965526D01*
X104006500Y-55898658D01*
X104006500Y-55710253D01*
X104005754Y-55706503D01*
X103995348Y-55654187D01*
X103995348Y-55605813D01*
X104006500Y-55549748D01*
X104006500Y-55210252D01*
X104002022Y-55187739D01*
X103995349Y-55154190D01*
X103995349Y-55105807D01*
X104006500Y-55049749D01*
X104006500Y-54896229D01*
X104020015Y-54839934D01*
X104057615Y-54795911D01*
X104111102Y-54773756D01*
X104168818Y-54778298D01*
X104218181Y-54808548D01*
X104230110Y-54820477D01*
X104373310Y-54910456D01*
X104532941Y-54966313D01*
X104701000Y-54985249D01*
X104869059Y-54966313D01*
X105028690Y-54910456D01*
X105171890Y-54820477D01*
X105291477Y-54700890D01*
X105381456Y-54557690D01*
X105437313Y-54398059D01*
X105456249Y-54230000D01*
X105437313Y-54061941D01*
X105425786Y-54028999D01*
X118133753Y-54028999D01*
X118152719Y-54330452D01*
X118209319Y-54627163D01*
X118302658Y-54914428D01*
X118431268Y-55187739D01*
X118555968Y-55384234D01*
X118593115Y-55442768D01*
X118654939Y-55517500D01*
X118785650Y-55675503D01*
X119005839Y-55882276D01*
X119250204Y-56059816D01*
X119359831Y-56120084D01*
X119514896Y-56205332D01*
X119608772Y-56242500D01*
X119795737Y-56316525D01*
X119916476Y-56347525D01*
X120088302Y-56391642D01*
X120333687Y-56422642D01*
X120387972Y-56429500D01*
X120387973Y-56429500D01*
X120690027Y-56429500D01*
X120690028Y-56429500D01*
X120733360Y-56424025D01*
X120989698Y-56391642D01*
X121282262Y-56316525D01*
X121563104Y-56205332D01*
X121827795Y-56059816D01*
X121839884Y-56051033D01*
X122072160Y-55882276D01*
X122107014Y-55849546D01*
X122292349Y-55675504D01*
X122484885Y-55442768D01*
X122646733Y-55187736D01*
X122775341Y-54914430D01*
X122868681Y-54627160D01*
X122925280Y-54330457D01*
X122944246Y-54029000D01*
X122925280Y-53727543D01*
X122868681Y-53430840D01*
X122867691Y-53427794D01*
X122785414Y-53174571D01*
X122775341Y-53143570D01*
X122646733Y-52870264D01*
X122646732Y-52870263D01*
X122646731Y-52870260D01*
X122526578Y-52680930D01*
X122484885Y-52615232D01*
X122292349Y-52382496D01*
X122191073Y-52287391D01*
X122072160Y-52175723D01*
X121827795Y-51998183D01*
X121563102Y-51852667D01*
X121282262Y-51741474D01*
X120989700Y-51666358D01*
X120690028Y-51628500D01*
X120690027Y-51628500D01*
X120387973Y-51628500D01*
X120387972Y-51628500D01*
X120088299Y-51666358D01*
X119795737Y-51741474D01*
X119514897Y-51852667D01*
X119250204Y-51998183D01*
X119005839Y-52175723D01*
X118785650Y-52382496D01*
X118593114Y-52615233D01*
X118431268Y-52870260D01*
X118302658Y-53143571D01*
X118209319Y-53430836D01*
X118152719Y-53727547D01*
X118133753Y-54028999D01*
X105425786Y-54028999D01*
X105381456Y-53902310D01*
X105291477Y-53759110D01*
X105171890Y-53639523D01*
X105028690Y-53549544D01*
X104869059Y-53493687D01*
X104869058Y-53493686D01*
X104869056Y-53493686D01*
X104700999Y-53474750D01*
X104532943Y-53493686D01*
X104373310Y-53549544D01*
X104230107Y-53639525D01*
X104190665Y-53678967D01*
X104144758Y-53708037D01*
X104090830Y-53714688D01*
X104039236Y-53697643D01*
X103999883Y-53660175D01*
X103959087Y-53599119D01*
X103938831Y-53542831D01*
X103947286Y-53483611D01*
X103982483Y-53435240D01*
X104036618Y-53389815D01*
X104352553Y-53124714D01*
X104389877Y-53078211D01*
X104412196Y-53001633D01*
X104403513Y-52922343D01*
X104374832Y-52870065D01*
X103687374Y-52050783D01*
X103687372Y-52050781D01*
X103687371Y-52050780D01*
X103640871Y-52013460D01*
X103602581Y-52002300D01*
X103564293Y-51991141D01*
X103564292Y-51991141D01*
X103485004Y-51999823D01*
X103460148Y-52013460D01*
X103432724Y-52028505D01*
X103432722Y-52028506D01*
X103432721Y-52028507D01*
X103019448Y-52375284D01*
X102982122Y-52421789D01*
X102959803Y-52498367D01*
X102968486Y-52577656D01*
X102989102Y-52615233D01*
X102997168Y-52629935D01*
X103532021Y-53267349D01*
X103581482Y-53326294D01*
X103609431Y-53389815D01*
X103598874Y-53458405D01*
X103553117Y-53510581D01*
X103549309Y-53511690D01*
X103531000Y-53530000D01*
X103531000Y-53905500D01*
X103514387Y-53967500D01*
X103469000Y-54012887D01*
X103407000Y-54029500D01*
X102926604Y-54029500D01*
X102921527Y-54030000D01*
X102756000Y-54030000D01*
X102756000Y-54049697D01*
X102766906Y-54104528D01*
X102766906Y-54152908D01*
X102755500Y-54210253D01*
X102755500Y-54549747D01*
X102766651Y-54605809D01*
X102766651Y-54654188D01*
X102755500Y-54710252D01*
X102755500Y-54762500D01*
X102738887Y-54824500D01*
X102693500Y-54869887D01*
X102631500Y-54886500D01*
X102510039Y-54886500D01*
X102505434Y-54887852D01*
X102448484Y-54890905D01*
X102396190Y-54868142D01*
X102359616Y-54824380D01*
X102346500Y-54768875D01*
X102346500Y-54710250D01*
X102335349Y-54654190D01*
X102335349Y-54605807D01*
X102346500Y-54549749D01*
X102346500Y-54210251D01*
X102335094Y-54152910D01*
X102335094Y-54104526D01*
X102346000Y-54049699D01*
X102346000Y-54030000D01*
X102180473Y-54030000D01*
X102175396Y-54029500D01*
X102165748Y-54029500D01*
X101695000Y-54029500D01*
X101633000Y-54012887D01*
X101587613Y-53967500D01*
X101571000Y-53905500D01*
X101571000Y-53530000D01*
X101871000Y-53530000D01*
X101871000Y-53730000D01*
X102346000Y-53730000D01*
X102756000Y-53730000D01*
X103231000Y-53730000D01*
X103231000Y-53530000D01*
X102936303Y-53530000D01*
X102877963Y-53541604D01*
X102811807Y-53585807D01*
X102767604Y-53651963D01*
X102756000Y-53710303D01*
X102756000Y-53730000D01*
X102346000Y-53730000D01*
X102346000Y-53710303D01*
X102334395Y-53651963D01*
X102290192Y-53585807D01*
X102224036Y-53541604D01*
X102165697Y-53530000D01*
X101871000Y-53530000D01*
X101571000Y-53530000D01*
X101552690Y-53511690D01*
X101548883Y-53510581D01*
X101503126Y-53458405D01*
X101492569Y-53389815D01*
X101520518Y-53326294D01*
X101569979Y-53267349D01*
X102104832Y-52629935D01*
X102133513Y-52577657D01*
X102142196Y-52498367D01*
X102119877Y-52421789D01*
X102082553Y-52375286D01*
X101965289Y-52276890D01*
X101695822Y-52050780D01*
X101669276Y-52028505D01*
X101616997Y-51999824D01*
X101616996Y-51999823D01*
X101616995Y-51999823D01*
X101537707Y-51991141D01*
X101461128Y-52013460D01*
X101414628Y-52050780D01*
X100727166Y-52870067D01*
X100698486Y-52922343D01*
X100689803Y-53001632D01*
X100712122Y-53078210D01*
X100749448Y-53124715D01*
X101119516Y-53435240D01*
X101154713Y-53483611D01*
X101163168Y-53542832D01*
X101142912Y-53599119D01*
X101102116Y-53660175D01*
X101062763Y-53697643D01*
X101011168Y-53714688D01*
X100957240Y-53708037D01*
X100911333Y-53678966D01*
X100871891Y-53639524D01*
X100871890Y-53639523D01*
X100728690Y-53549544D01*
X100569059Y-53493687D01*
X100569058Y-53493686D01*
X100569056Y-53493686D01*
X100400999Y-53474750D01*
X100232943Y-53493686D01*
X100073310Y-53549544D01*
X99930108Y-53639524D01*
X99810524Y-53759108D01*
X99720544Y-53902310D01*
X99664686Y-54061943D01*
X99645750Y-54230000D01*
X99664686Y-54398056D01*
X99664686Y-54398058D01*
X99664687Y-54398059D01*
X99720544Y-54557690D01*
X99810523Y-54700890D01*
X99930110Y-54820477D01*
X100073310Y-54910456D01*
X100232941Y-54966313D01*
X100401000Y-54985249D01*
X100569059Y-54966313D01*
X100728690Y-54910456D01*
X100871890Y-54820477D01*
X100883819Y-54808548D01*
X100933182Y-54778298D01*
X100990898Y-54773756D01*
X101044385Y-54795911D01*
X101081985Y-54839934D01*
X101095500Y-54896229D01*
X101095500Y-55049748D01*
X101099144Y-55068066D01*
X101106651Y-55105809D01*
X101106651Y-55154188D01*
X101095500Y-55210252D01*
X101095500Y-55455500D01*
X101078887Y-55517500D01*
X101033500Y-55562887D01*
X100971500Y-55579500D01*
X100036833Y-55579500D01*
X99989380Y-55570061D01*
X99949152Y-55543181D01*
X99186115Y-54780144D01*
X99154082Y-54724784D01*
X99153900Y-54660828D01*
X99154758Y-54657576D01*
X99160493Y-54576236D01*
X99165002Y-54550737D01*
X99165286Y-54549747D01*
X99170926Y-54530110D01*
X99180547Y-54506267D01*
X99199026Y-54471411D01*
X99201888Y-54466309D01*
X99246342Y-54391253D01*
X99250704Y-54383511D01*
X99251182Y-54382618D01*
X99255219Y-54374665D01*
X99306036Y-54268944D01*
X99315902Y-54238435D01*
X99321081Y-54225103D01*
X99334165Y-54196457D01*
X99354647Y-54054000D01*
X99334165Y-53911543D01*
X99331405Y-53905500D01*
X99274376Y-53780625D01*
X99180129Y-53671858D01*
X99180128Y-53671857D01*
X99059053Y-53594047D01*
X98920961Y-53553500D01*
X98777039Y-53553500D01*
X98638947Y-53594047D01*
X98517870Y-53671858D01*
X98423623Y-53780625D01*
X98363834Y-53911542D01*
X98343353Y-54053999D01*
X86912868Y-54053999D01*
X86895669Y-53780625D01*
X86894280Y-53758543D01*
X86837681Y-53461840D01*
X86827608Y-53430840D01*
X86744341Y-53174571D01*
X86729753Y-53143570D01*
X86615733Y-52901264D01*
X86615732Y-52901263D01*
X86615731Y-52901260D01*
X86541440Y-52784197D01*
X86453885Y-52646232D01*
X86261349Y-52413496D01*
X86041160Y-52206723D01*
X85796795Y-52029183D01*
X85532102Y-51883667D01*
X85251262Y-51772474D01*
X84958700Y-51697358D01*
X84659028Y-51659500D01*
X84659027Y-51659500D01*
X84356973Y-51659500D01*
X84356972Y-51659500D01*
X84057299Y-51697358D01*
X83764737Y-51772474D01*
X83483897Y-51883667D01*
X83219204Y-52029183D01*
X82974839Y-52206723D01*
X82754650Y-52413496D01*
X82562114Y-52646233D01*
X82400268Y-52901260D01*
X82271658Y-53174571D01*
X82178319Y-53461836D01*
X82121719Y-53758547D01*
X82102753Y-54059999D01*
X81463501Y-54059999D01*
X81463501Y-54048246D01*
X81463671Y-54041757D01*
X81465184Y-54012887D01*
X81479592Y-53737937D01*
X81480946Y-53725065D01*
X81528031Y-53427784D01*
X81530724Y-53415108D01*
X81608628Y-53124368D01*
X81612637Y-53112033D01*
X81625620Y-53078211D01*
X81720494Y-52831055D01*
X81725764Y-52819216D01*
X81862420Y-52551015D01*
X81868886Y-52539816D01*
X82032825Y-52287372D01*
X82040427Y-52276909D01*
X82229859Y-52042979D01*
X82238526Y-52033354D01*
X82451354Y-51820526D01*
X82460979Y-51811859D01*
X82694909Y-51622427D01*
X82705372Y-51614825D01*
X82957816Y-51450886D01*
X82969015Y-51444420D01*
X83237216Y-51307764D01*
X83249055Y-51302494D01*
X83530040Y-51194634D01*
X83542368Y-51190628D01*
X83833108Y-51112724D01*
X83845784Y-51110031D01*
X84143065Y-51062946D01*
X84155937Y-51061592D01*
X84459757Y-51045670D01*
X84466246Y-51045501D01*
X120459754Y-51045501D01*
X120466243Y-51045670D01*
G37*
%TD.AperFunction*%
%TD*%
M02*
