%TF.GenerationSoftware,KiCad,Pcbnew,(6.0.2)*%
%TF.CreationDate,2022-03-19T16:05:11+01:00*%
%TF.ProjectId,daughterboard,64617567-6874-4657-9262-6f6172642e6b,1.0*%
%TF.SameCoordinates,Original*%
%TF.FileFunction,Copper,L1,Top*%
%TF.FilePolarity,Positive*%
%FSLAX46Y46*%
G04 Gerber Fmt 4.6, Leading zero omitted, Abs format (unit mm)*
G04 Created by KiCad (PCBNEW (6.0.2)) date 2022-03-19 16:05:11*
%MOMM*%
%LPD*%
G01*
G04 APERTURE LIST*
G04 Aperture macros list*
%AMRoundRect*
0 Rectangle with rounded corners*
0 $1 Rounding radius*
0 $2 $3 $4 $5 $6 $7 $8 $9 X,Y pos of 4 corners*
0 Add a 4 corners polygon primitive as box body*
4,1,4,$2,$3,$4,$5,$6,$7,$8,$9,$2,$3,0*
0 Add four circle primitives for the rounded corners*
1,1,$1+$1,$2,$3*
1,1,$1+$1,$4,$5*
1,1,$1+$1,$6,$7*
1,1,$1+$1,$8,$9*
0 Add four rect primitives between the rounded corners*
20,1,$1+$1,$2,$3,$4,$5,0*
20,1,$1+$1,$4,$5,$6,$7,0*
20,1,$1+$1,$6,$7,$8,$9,0*
20,1,$1+$1,$8,$9,$2,$3,0*%
G04 Aperture macros list end*
%TA.AperFunction,SMDPad,CuDef*%
%ADD10R,1.200000X1.800000*%
%TD*%
%TA.AperFunction,SMDPad,CuDef*%
%ADD11R,0.600000X1.550000*%
%TD*%
%TA.AperFunction,SMDPad,CuDef*%
%ADD12RoundRect,0.225000X0.250000X-0.225000X0.250000X0.225000X-0.250000X0.225000X-0.250000X-0.225000X0*%
%TD*%
%TA.AperFunction,SMDPad,CuDef*%
%ADD13R,1.100000X1.100000*%
%TD*%
%TA.AperFunction,SMDPad,CuDef*%
%ADD14RoundRect,0.170000X0.330000X-0.255000X0.330000X0.255000X-0.330000X0.255000X-0.330000X-0.255000X0*%
%TD*%
%TA.AperFunction,SMDPad,CuDef*%
%ADD15RoundRect,0.150000X0.150000X-0.512500X0.150000X0.512500X-0.150000X0.512500X-0.150000X-0.512500X0*%
%TD*%
%TA.AperFunction,SMDPad,CuDef*%
%ADD16RoundRect,0.170000X0.255000X0.330000X-0.255000X0.330000X-0.255000X-0.330000X0.255000X-0.330000X0*%
%TD*%
%TA.AperFunction,SMDPad,CuDef*%
%ADD17RoundRect,0.200000X-0.275000X0.200000X-0.275000X-0.200000X0.275000X-0.200000X0.275000X0.200000X0*%
%TD*%
%TA.AperFunction,SMDPad,CuDef*%
%ADD18RoundRect,0.243750X0.243750X0.456250X-0.243750X0.456250X-0.243750X-0.456250X0.243750X-0.456250X0*%
%TD*%
%TA.AperFunction,ComponentPad*%
%ADD19C,4.400000*%
%TD*%
%TA.AperFunction,SMDPad,CuDef*%
%ADD20RoundRect,0.225000X-0.250000X0.225000X-0.250000X-0.225000X0.250000X-0.225000X0.250000X0.225000X0*%
%TD*%
%TA.AperFunction,SMDPad,CuDef*%
%ADD21RoundRect,0.200000X0.275000X-0.200000X0.275000X0.200000X-0.275000X0.200000X-0.275000X-0.200000X0*%
%TD*%
%TA.AperFunction,ComponentPad*%
%ADD22O,1.100000X2.200000*%
%TD*%
%TA.AperFunction,ViaPad*%
%ADD23C,0.600000*%
%TD*%
%TA.AperFunction,Conductor*%
%ADD24C,0.200000*%
%TD*%
%TA.AperFunction,Conductor*%
%ADD25C,0.500000*%
%TD*%
%TA.AperFunction,Conductor*%
%ADD26C,0.381000*%
%TD*%
%TA.AperFunction,Conductor*%
%ADD27C,0.300000*%
%TD*%
G04 APERTURE END LIST*
D10*
%TO.P,J2,*%
%TO.N,*%
X108439000Y-60210000D03*
X114039000Y-60210000D03*
D11*
%TO.P,J2,1,Pin_1*%
%TO.N,VCC*%
X109739000Y-56335000D03*
%TO.P,J2,2,Pin_2*%
%TO.N,/DC+*%
X110739000Y-56335000D03*
%TO.P,J2,3,Pin_3*%
%TO.N,/DC-*%
X111739000Y-56335000D03*
%TO.P,J2,4,Pin_4*%
%TO.N,GND*%
X112739000Y-56335000D03*
%TD*%
D12*
%TO.P,C2,1*%
%TO.N,VCC*%
X95357000Y-54986000D03*
%TO.P,C2,2*%
%TO.N,GND*%
X95357000Y-53436000D03*
%TD*%
D13*
%TO.P,D1,1,A1*%
%TO.N,GND*%
X98354000Y-61302000D03*
%TO.P,D1,2,A2*%
%TO.N,Net-(C1-Pad1)*%
X98354000Y-58502000D03*
%TD*%
D14*
%TO.P,FB1,1*%
%TO.N,Net-(C1-Pad1)*%
X93869000Y-56603000D03*
%TO.P,FB1,2*%
%TO.N,VCC*%
X93869000Y-55003000D03*
%TD*%
D15*
%TO.P,U1,1,IO1*%
%TO.N,/DUSB-*%
X106539000Y-55571500D03*
%TO.P,U1,2,GND*%
%TO.N,GND*%
X107489000Y-55571500D03*
%TO.P,U1,3,IO2*%
%TO.N,/DUSB+*%
X108439000Y-55571500D03*
%TO.P,U1,4,IO2*%
%TO.N,/D+*%
X108439000Y-53296500D03*
%TO.P,U1,5,VBUS*%
%TO.N,VCC*%
X107489000Y-53296500D03*
%TO.P,U1,6,IO1*%
%TO.N,/D-*%
X106539000Y-53296500D03*
%TD*%
D16*
%TO.P,FB2,1*%
%TO.N,Net-(FB2-Pad1)*%
X103581000Y-62296000D03*
%TO.P,FB2,2*%
%TO.N,GND*%
X101981000Y-62296000D03*
%TD*%
D17*
%TO.P,R1,1*%
%TO.N,Net-(J1-PadA5)*%
X106350000Y-58370000D03*
%TO.P,R1,2*%
%TO.N,GND*%
X106350000Y-60020000D03*
%TD*%
D18*
%TO.P,F1,1*%
%TO.N,Net-(F1-Pad1)*%
X98806500Y-56611000D03*
%TO.P,F1,2*%
%TO.N,Net-(C1-Pad1)*%
X96931500Y-56611000D03*
%TD*%
D19*
%TO.P,H2,1,1*%
%TO.N,unconnected-(H2-Pad1)*%
X84508000Y-56560000D03*
%TD*%
D17*
%TO.P,R3,1*%
%TO.N,/D-*%
X112002000Y-53005000D03*
%TO.P,R3,2*%
%TO.N,/DC-*%
X112002000Y-54655000D03*
%TD*%
%TO.P,R4,1*%
%TO.N,/D+*%
X110400000Y-53005000D03*
%TO.P,R4,2*%
%TO.N,/DC+*%
X110400000Y-54655000D03*
%TD*%
D20*
%TO.P,C1,1*%
%TO.N,Net-(C1-Pad1)*%
X95407000Y-56464000D03*
%TO.P,C1,2*%
%TO.N,GND*%
X95407000Y-58014000D03*
%TD*%
D19*
%TO.P,H1,1,1*%
%TO.N,Net-(FB2-Pad1)*%
X120539000Y-56529000D03*
%TD*%
D21*
%TO.P,R2,1*%
%TO.N,Net-(J1-PadB5)*%
X98790000Y-54868000D03*
%TO.P,R2,2*%
%TO.N,GND*%
X98790000Y-53218000D03*
%TD*%
D22*
%TO.P,J1,S1,SHIELD*%
%TO.N,Net-(FB2-Pad1)*%
X104701000Y-59030000D03*
%TO.P,J1,S2*%
%TO.N,N/C*%
X100401000Y-59030000D03*
%TO.P,J1,S3*%
X104701000Y-54230000D03*
%TO.P,J1,S4*%
X100401000Y-54230000D03*
%TD*%
D23*
%TO.N,GND*%
X102548000Y-54460000D03*
X102555000Y-58809000D03*
%TO.N,Net-(F1-Pad1)*%
X102582000Y-55387000D03*
X102549341Y-57911830D03*
%TO.N,/DUSB+*%
X104218000Y-56880500D03*
%TO.N,/DUSB-*%
X104638000Y-56309500D03*
X102520138Y-57212938D03*
%TO.N,Net-(J1-PadA5)*%
X106361000Y-59148000D03*
%TO.N,Net-(J1-PadB5)*%
X98849000Y-54054000D03*
%TD*%
D24*
%TO.N,/D+*%
X109255000Y-53843885D02*
X109255000Y-53155000D01*
X108955000Y-53155000D02*
X108955000Y-53843885D01*
X109705000Y-53993885D02*
G75*
G02*
X109555000Y-53843885I0J150000D01*
G01*
X109555000Y-52860557D02*
G75*
G03*
X109410558Y-52716115I-144442J0D01*
G01*
X109105000Y-53993885D02*
G75*
G02*
X108955000Y-53843885I0J150000D01*
G01*
X109855000Y-53843885D02*
X109855000Y-53155000D01*
X109855000Y-53843885D02*
G75*
G02*
X109705000Y-53993885I-150000J0D01*
G01*
X109399442Y-52716115D02*
G75*
G03*
X109255000Y-52860557I0J-144442D01*
G01*
X109255000Y-53155000D02*
X109255000Y-52860557D01*
X109255000Y-53843885D02*
G75*
G02*
X109105000Y-53993885I-150000J0D01*
G01*
X108730500Y-53005000D02*
X108805000Y-53005000D01*
X108955000Y-53155000D02*
G75*
G03*
X108805000Y-53005000I-150000J0D01*
G01*
X108439000Y-53296500D02*
X108730500Y-53005000D01*
X110005000Y-53005000D02*
G75*
G03*
X109855000Y-53155000I0J-150000D01*
G01*
X109399442Y-52716115D02*
X109410558Y-52716115D01*
X109555000Y-52860557D02*
X109555000Y-53005000D01*
X109555000Y-53005000D02*
X109555000Y-53843885D01*
X110005000Y-53005000D02*
X110400000Y-53005000D01*
%TO.N,/D-*%
X106539000Y-53296500D02*
X106539000Y-53061000D01*
X106539000Y-53061000D02*
X107200000Y-52400000D01*
X112002000Y-53005000D02*
X111397000Y-52400000D01*
X111397000Y-52400000D02*
X107200000Y-52400000D01*
D25*
%TO.N,VCC*%
X108773000Y-54373000D02*
X109739000Y-55339000D01*
X107074999Y-54373000D02*
X108773000Y-54373000D01*
X107489000Y-53296500D02*
X107489000Y-53715427D01*
X109739000Y-55339000D02*
X109739000Y-56335000D01*
D26*
%TO.N,Net-(C1-Pad1)*%
X96931500Y-56611000D02*
X96931500Y-57079500D01*
X96931500Y-57079500D02*
X98354000Y-58502000D01*
D25*
X96784500Y-56464000D02*
X96931500Y-56611000D01*
X95407000Y-56464000D02*
X96784500Y-56464000D01*
X95268000Y-56603000D02*
X95407000Y-56464000D01*
X93869000Y-56603000D02*
X95268000Y-56603000D01*
%TO.N,VCC*%
X93886000Y-54986000D02*
X93869000Y-55003000D01*
X107489000Y-53296500D02*
X107489000Y-53958999D01*
X105785000Y-52948000D02*
X104886000Y-52049000D01*
X105785000Y-53915584D02*
X105785000Y-52948000D01*
X106242416Y-54373000D02*
X105785000Y-53915584D01*
X107074999Y-54373000D02*
X106242416Y-54373000D01*
X95357000Y-54986000D02*
X93886000Y-54986000D01*
X104886000Y-52049000D02*
X104950040Y-51984960D01*
X104950040Y-51984960D02*
X98358040Y-51984960D01*
X107489000Y-53958999D02*
X107074999Y-54373000D01*
X98358040Y-51984960D02*
X95357000Y-54986000D01*
D27*
%TO.N,Net-(F1-Pad1)*%
X102290000Y-55387000D02*
X101358000Y-56319000D01*
X101358000Y-56319000D02*
X101358000Y-56611000D01*
D25*
X98840500Y-56645000D02*
X101201000Y-56645000D01*
D27*
X102582000Y-55387000D02*
X102290000Y-55387000D01*
X101358000Y-57001000D02*
X101358000Y-56611000D01*
X102268830Y-57911830D02*
X101358000Y-57001000D01*
X102549341Y-57911830D02*
X102268830Y-57911830D01*
D25*
X98806500Y-56611000D02*
X98840500Y-56645000D01*
%TO.N,Net-(FB2-Pad1)*%
X114790000Y-62278000D02*
X103599000Y-62278000D01*
X120539000Y-56529000D02*
X114790000Y-62278000D01*
X103581000Y-62296000D02*
X103581000Y-60150000D01*
X103581000Y-60150000D02*
X104701000Y-59030000D01*
X103599000Y-62278000D02*
X103581000Y-62296000D01*
D24*
%TO.N,/DUSB+*%
X107334352Y-56887100D02*
X108439000Y-55782452D01*
X104621301Y-57182000D02*
X106450200Y-57182000D01*
X106745100Y-56887100D02*
X107334352Y-56887100D01*
X104218000Y-56880500D02*
X104319801Y-56880500D01*
X104319801Y-56880500D02*
X104621301Y-57182000D01*
X106450200Y-57182000D02*
X106745100Y-56887100D01*
X108439000Y-55782452D02*
X108439000Y-55571500D01*
%TO.N,/DUSB-*%
X106539000Y-56456800D02*
X106539000Y-55571500D01*
X106263800Y-56732000D02*
X106539000Y-56456800D01*
X104638000Y-56562301D02*
X104807699Y-56732000D01*
X104638000Y-56309500D02*
X104566511Y-56380989D01*
X103352087Y-56380989D02*
X102520138Y-57212938D01*
X104638000Y-56309500D02*
X104638000Y-56562301D01*
X104807699Y-56732000D02*
X106263800Y-56732000D01*
X104566511Y-56380989D02*
X103352087Y-56380989D01*
%TO.N,Net-(J1-PadA5)*%
X106361000Y-58381000D02*
X106350000Y-58370000D01*
X106361000Y-59148000D02*
X106361000Y-58381000D01*
%TO.N,Net-(J1-PadB5)*%
X98849000Y-54809000D02*
X98790000Y-54868000D01*
X98849000Y-54054000D02*
X98849000Y-54809000D01*
%TO.N,/DC+*%
X110739000Y-56335000D02*
X110739000Y-54917000D01*
X110739000Y-54917000D02*
X110477000Y-54655000D01*
%TO.N,/DC-*%
X111739000Y-56335000D02*
X111739000Y-54918000D01*
X111739000Y-54918000D02*
X112002000Y-54655000D01*
%TD*%
%TA.AperFunction,Conductor*%
%TO.N,/DUSB+*%
G36*
X108486047Y-55438070D02*
G01*
X108658554Y-55764230D01*
X108659393Y-55773145D01*
X108656713Y-55777738D01*
X108615220Y-55821613D01*
X108614751Y-55822080D01*
X108574586Y-55859766D01*
X108571911Y-55862276D01*
X108571380Y-55862745D01*
X108532290Y-55895209D01*
X108531329Y-55896007D01*
X108530868Y-55896369D01*
X108492132Y-55925331D01*
X108491898Y-55925501D01*
X108453035Y-55952747D01*
X108412818Y-55980729D01*
X108412775Y-55980761D01*
X108412767Y-55980766D01*
X108370121Y-56011838D01*
X108370105Y-56011850D01*
X108370023Y-56011910D01*
X108323306Y-56048841D01*
X108271321Y-56094070D01*
X108271236Y-56094151D01*
X108271232Y-56094155D01*
X108220996Y-56142232D01*
X108212649Y-56145476D01*
X108204633Y-56142052D01*
X108079202Y-56016621D01*
X108075775Y-56008348D01*
X108078825Y-56000470D01*
X108096837Y-55980691D01*
X108107828Y-55968623D01*
X108134849Y-55931060D01*
X108137783Y-55925418D01*
X108153074Y-55896007D01*
X108153489Y-55895209D01*
X108153635Y-55894762D01*
X108153637Y-55894756D01*
X108164128Y-55862520D01*
X108164869Y-55860244D01*
X108170107Y-55825337D01*
X108170129Y-55821853D01*
X108170324Y-55789962D01*
X108170326Y-55789663D01*
X108166646Y-55752393D01*
X108160186Y-55712702D01*
X108152077Y-55669817D01*
X108152089Y-55669759D01*
X108152067Y-55669763D01*
X108144903Y-55630855D01*
X108146775Y-55622098D01*
X108150540Y-55618615D01*
X108469835Y-55433419D01*
X108478711Y-55432233D01*
X108486047Y-55438070D01*
G37*
%TD.AperFunction*%
%TD*%
%TA.AperFunction,Conductor*%
%TO.N,/DUSB+*%
G36*
X104469689Y-56720565D02*
G01*
X104473773Y-56724967D01*
X104494852Y-56764626D01*
X104495537Y-56766176D01*
X104512899Y-56814703D01*
X104513213Y-56815725D01*
X104525863Y-56864818D01*
X104525953Y-56865193D01*
X104536596Y-56913233D01*
X104547975Y-56958308D01*
X104562895Y-56998682D01*
X104584204Y-57032796D01*
X104614746Y-57059093D01*
X104657367Y-57076013D01*
X104674735Y-57077820D01*
X104704426Y-57080909D01*
X104712300Y-57085173D01*
X104714915Y-57092546D01*
X104714915Y-57269927D01*
X104711488Y-57278200D01*
X104702848Y-57281621D01*
X104670218Y-57280595D01*
X104641793Y-57279702D01*
X104640966Y-57279647D01*
X104579859Y-57273373D01*
X104578976Y-57273248D01*
X104526874Y-57263846D01*
X104526055Y-57263668D01*
X104480200Y-57251948D01*
X104479600Y-57251777D01*
X104437301Y-57238529D01*
X104437055Y-57238449D01*
X104427810Y-57235327D01*
X104395678Y-57224476D01*
X104395643Y-57224465D01*
X104395620Y-57224457D01*
X104372380Y-57216979D01*
X104352824Y-57210686D01*
X104306025Y-57197975D01*
X104305851Y-57197940D01*
X104305839Y-57197937D01*
X104252914Y-57187243D01*
X104252902Y-57187241D01*
X104252694Y-57187199D01*
X104252471Y-57187170D01*
X104252468Y-57187170D01*
X104198034Y-57180209D01*
X104190262Y-57175761D01*
X104188215Y-57171626D01*
X104092918Y-56815209D01*
X104092771Y-56814659D01*
X104093945Y-56805783D01*
X104101495Y-56800226D01*
X104434653Y-56724967D01*
X104460864Y-56719046D01*
X104469689Y-56720565D01*
G37*
%TD.AperFunction*%
%TD*%
%TA.AperFunction,Conductor*%
%TO.N,/DUSB-*%
G36*
X106547433Y-55430269D02*
G01*
X106803187Y-55696222D01*
X106806452Y-55704561D01*
X106805144Y-55709712D01*
X106782318Y-55753793D01*
X106782054Y-55754274D01*
X106756561Y-55798315D01*
X106756404Y-55798577D01*
X106732274Y-55837786D01*
X106709970Y-55874317D01*
X106689981Y-55910306D01*
X106672713Y-55948020D01*
X106658574Y-55989729D01*
X106647971Y-56037700D01*
X106641310Y-56094201D01*
X106641302Y-56094445D01*
X106639388Y-56150201D01*
X106635680Y-56158352D01*
X106627695Y-56161500D01*
X106450305Y-56161500D01*
X106442032Y-56158073D01*
X106438612Y-56150202D01*
X106436697Y-56094446D01*
X106436697Y-56094445D01*
X106436689Y-56094201D01*
X106430028Y-56037700D01*
X106419425Y-55989729D01*
X106405286Y-55948020D01*
X106388018Y-55910306D01*
X106368029Y-55874317D01*
X106345725Y-55837786D01*
X106321595Y-55798577D01*
X106321438Y-55798315D01*
X106295945Y-55754274D01*
X106295681Y-55753793D01*
X106289612Y-55742072D01*
X106272855Y-55709711D01*
X106272094Y-55700790D01*
X106274812Y-55696222D01*
X106530567Y-55430269D01*
X106538771Y-55426681D01*
X106547433Y-55430269D01*
G37*
%TD.AperFunction*%
%TD*%
%TA.AperFunction,Conductor*%
%TO.N,/DUSB-*%
G36*
X104623447Y-56168722D02*
G01*
X104777276Y-56283889D01*
X104778948Y-56285141D01*
X104778949Y-56285142D01*
X104851031Y-56339107D01*
X104918867Y-56389894D01*
X104923436Y-56397594D01*
X104922977Y-56402892D01*
X104915782Y-56424916D01*
X104915684Y-56425202D01*
X104904416Y-56456714D01*
X104893098Y-56488780D01*
X104883255Y-56520152D01*
X104883211Y-56520343D01*
X104883208Y-56520352D01*
X104877075Y-56546665D01*
X104876361Y-56549727D01*
X104873889Y-56576401D01*
X104877314Y-56599069D01*
X104888110Y-56616628D01*
X104907749Y-56627973D01*
X104923399Y-56630077D01*
X104927567Y-56630637D01*
X104935310Y-56635136D01*
X104937708Y-56642233D01*
X104937708Y-56819805D01*
X104934281Y-56828078D01*
X104925524Y-56831495D01*
X104861393Y-56828836D01*
X104848640Y-56828307D01*
X104847444Y-56828196D01*
X104789655Y-56819805D01*
X104772643Y-56817335D01*
X104771152Y-56817018D01*
X104707977Y-56799219D01*
X104706300Y-56798604D01*
X104671424Y-56782717D01*
X104652440Y-56774070D01*
X104650823Y-56773171D01*
X104603878Y-56741962D01*
X104602549Y-56740933D01*
X104592823Y-56732219D01*
X104590205Y-56728817D01*
X104546467Y-56642977D01*
X104546050Y-56642158D01*
X104456342Y-56552450D01*
X104433666Y-56540896D01*
X104392678Y-56482176D01*
X104606966Y-56171332D01*
X104608152Y-56169612D01*
X104609697Y-56168523D01*
X104618434Y-56166560D01*
X104623447Y-56168722D01*
G37*
%TD.AperFunction*%
%TD*%
%TA.AperFunction,Conductor*%
%TO.N,/DUSB-*%
G36*
X102874613Y-56733030D02*
G01*
X103000046Y-56858463D01*
X103003473Y-56866736D01*
X103000325Y-56874720D01*
X102987946Y-56887979D01*
X102965609Y-56911904D01*
X102962086Y-56915677D01*
X102961943Y-56915858D01*
X102961938Y-56915864D01*
X102950995Y-56929732D01*
X102926844Y-56960339D01*
X102900422Y-57001757D01*
X102880927Y-57041247D01*
X102866469Y-57080125D01*
X102855156Y-57119708D01*
X102855127Y-57119828D01*
X102845096Y-57161309D01*
X102834434Y-57206094D01*
X102834357Y-57206399D01*
X102821241Y-57255571D01*
X102821087Y-57256098D01*
X102806062Y-57303398D01*
X102800291Y-57310246D01*
X102795140Y-57311554D01*
X102650790Y-57314376D01*
X102426237Y-57318766D01*
X102417898Y-57315501D01*
X102414310Y-57306839D01*
X102421522Y-56937936D01*
X102425110Y-56929732D01*
X102429678Y-56927014D01*
X102476977Y-56911988D01*
X102477504Y-56911834D01*
X102526676Y-56898718D01*
X102526981Y-56898641D01*
X102571766Y-56887979D01*
X102613247Y-56877948D01*
X102613246Y-56877948D01*
X102613367Y-56877919D01*
X102652950Y-56866606D01*
X102691828Y-56852148D01*
X102692106Y-56852011D01*
X102731021Y-56832800D01*
X102731026Y-56832797D01*
X102731318Y-56832653D01*
X102731591Y-56832479D01*
X102731596Y-56832476D01*
X102748645Y-56821599D01*
X102772736Y-56806231D01*
X102817398Y-56770989D01*
X102832322Y-56757056D01*
X102858356Y-56732751D01*
X102866742Y-56729610D01*
X102874613Y-56733030D01*
G37*
%TD.AperFunction*%
%TD*%
%TA.AperFunction,Conductor*%
%TO.N,/DUSB-*%
G36*
X104453889Y-56082596D02*
G01*
X104733187Y-56244500D01*
X104773224Y-56267709D01*
X104778663Y-56274823D01*
X104778884Y-56279831D01*
X104778521Y-56281922D01*
X104575310Y-56602876D01*
X104513023Y-56587751D01*
X104482416Y-56578524D01*
X104456342Y-56552450D01*
X104343304Y-56494854D01*
X104218000Y-56475008D01*
X104217091Y-56475152D01*
X104151279Y-56485575D01*
X104148349Y-56485667D01*
X104121353Y-56483118D01*
X104121349Y-56483118D01*
X104121161Y-56483100D01*
X104120980Y-56483095D01*
X104120966Y-56483094D01*
X104057880Y-56481310D01*
X104049707Y-56477651D01*
X104046511Y-56469615D01*
X104046511Y-56292245D01*
X104049938Y-56283972D01*
X104057758Y-56280554D01*
X104100427Y-56278902D01*
X104108247Y-56278599D01*
X104144004Y-56273771D01*
X104159803Y-56271638D01*
X104159808Y-56271637D01*
X104160149Y-56271591D01*
X104204097Y-56260209D01*
X104204455Y-56260062D01*
X104204462Y-56260060D01*
X104241610Y-56244840D01*
X104241612Y-56244839D01*
X104241966Y-56244694D01*
X104275634Y-56225290D01*
X104275892Y-56225100D01*
X104275897Y-56225097D01*
X104287934Y-56216245D01*
X104306980Y-56202239D01*
X104337880Y-56175784D01*
X104370213Y-56146167D01*
X104370228Y-56146154D01*
X104388828Y-56129174D01*
X104405760Y-56113718D01*
X104405958Y-56113542D01*
X104422193Y-56099541D01*
X104440380Y-56083858D01*
X104448883Y-56081050D01*
X104453889Y-56082596D01*
G37*
%TD.AperFunction*%
%TD*%
%TA.AperFunction,Conductor*%
%TO.N,Net-(FB2-Pad1)*%
G36*
X104891628Y-58839049D02*
G01*
X104895216Y-58847711D01*
X104881657Y-59541305D01*
X104878069Y-59549509D01*
X104873689Y-59552165D01*
X104785320Y-59581889D01*
X104699923Y-59609548D01*
X104622823Y-59635147D01*
X104622719Y-59635185D01*
X104622708Y-59635189D01*
X104551705Y-59661253D01*
X104551539Y-59661314D01*
X104483590Y-59690679D01*
X104483390Y-59690784D01*
X104416708Y-59725761D01*
X104416703Y-59725764D01*
X104416495Y-59725873D01*
X104347772Y-59769524D01*
X104274941Y-59824263D01*
X104274795Y-59824389D01*
X104195641Y-59892615D01*
X104195630Y-59892625D01*
X104195521Y-59892719D01*
X104195401Y-59892834D01*
X104115300Y-59969597D01*
X104106956Y-59972847D01*
X104098932Y-59969423D01*
X103761577Y-59632068D01*
X103758150Y-59623795D01*
X103761403Y-59615700D01*
X103838165Y-59535598D01*
X103838280Y-59535478D01*
X103838374Y-59535369D01*
X103838384Y-59535358D01*
X103906610Y-59456204D01*
X103906736Y-59456058D01*
X103961475Y-59383227D01*
X104005126Y-59314504D01*
X104040320Y-59247409D01*
X104069685Y-59179460D01*
X104095852Y-59108176D01*
X104121451Y-59031076D01*
X104149110Y-58945679D01*
X104178835Y-58857311D01*
X104184720Y-58850562D01*
X104189695Y-58849343D01*
X104291960Y-58847344D01*
X104883289Y-58835784D01*
X104891628Y-58839049D01*
G37*
%TD.AperFunction*%
%TD*%
%TA.AperFunction,Conductor*%
%TO.N,Net-(J1-PadA5)*%
G36*
X106463310Y-58625298D02*
G01*
X106469971Y-58681799D01*
X106480574Y-58729770D01*
X106494713Y-58771479D01*
X106511981Y-58809193D01*
X106526862Y-58835986D01*
X106531970Y-58845182D01*
X106532021Y-58845265D01*
X106532023Y-58845269D01*
X106554274Y-58881713D01*
X106578399Y-58920913D01*
X106578561Y-58921184D01*
X106604054Y-58965225D01*
X106604318Y-58965706D01*
X106627145Y-59009789D01*
X106627906Y-59018710D01*
X106625188Y-59023278D01*
X106369433Y-59289231D01*
X106361229Y-59292819D01*
X106352567Y-59289231D01*
X106096812Y-59023278D01*
X106093547Y-59014939D01*
X106094855Y-59009788D01*
X106117681Y-58965706D01*
X106117945Y-58965225D01*
X106143438Y-58921184D01*
X106143600Y-58920913D01*
X106167725Y-58881713D01*
X106189976Y-58845269D01*
X106189978Y-58845265D01*
X106190029Y-58845182D01*
X106190083Y-58845086D01*
X106191198Y-58843077D01*
X106210018Y-58809193D01*
X106227286Y-58771479D01*
X106241425Y-58729770D01*
X106252028Y-58681799D01*
X106258689Y-58625298D01*
X106261000Y-58558000D01*
X106461000Y-58558000D01*
X106463310Y-58625298D01*
G37*
%TD.AperFunction*%
%TD*%
%TA.AperFunction,Conductor*%
%TO.N,Net-(J1-PadA5)*%
G36*
X106352379Y-58178954D02*
G01*
X106353678Y-58180184D01*
X106694691Y-58556426D01*
X106697708Y-58564857D01*
X106696107Y-58570214D01*
X106663658Y-58625389D01*
X106663364Y-58625863D01*
X106653077Y-58641562D01*
X106627856Y-58680055D01*
X106627693Y-58680298D01*
X106593850Y-58729232D01*
X106562403Y-58775484D01*
X106534056Y-58821692D01*
X106509444Y-58870596D01*
X106489199Y-58924938D01*
X106473955Y-58987458D01*
X106464344Y-59060898D01*
X106461000Y-59148000D01*
X106261000Y-59148000D01*
X106257603Y-59062709D01*
X106247810Y-58990825D01*
X106232217Y-58929709D01*
X106211417Y-58876721D01*
X106186007Y-58829224D01*
X106180905Y-58821483D01*
X106156660Y-58784696D01*
X106156650Y-58784682D01*
X106156581Y-58784577D01*
X106123736Y-58740142D01*
X106115431Y-58729232D01*
X106088115Y-58693346D01*
X106087975Y-58693157D01*
X106050316Y-58641562D01*
X106050015Y-58641129D01*
X106015377Y-58588885D01*
X106013661Y-58580096D01*
X106016041Y-58575050D01*
X106019964Y-58570214D01*
X106335923Y-58180671D01*
X106343795Y-58176404D01*
X106352379Y-58178954D01*
G37*
%TD.AperFunction*%
%TD*%
%TA.AperFunction,Conductor*%
%TO.N,Net-(J1-PadB5)*%
G36*
X98857433Y-53912769D02*
G01*
X99113187Y-54178722D01*
X99116452Y-54187061D01*
X99115144Y-54192212D01*
X99092318Y-54236293D01*
X99092054Y-54236774D01*
X99066561Y-54280815D01*
X99066404Y-54281077D01*
X99042274Y-54320286D01*
X99019970Y-54356817D01*
X98999981Y-54392806D01*
X98982713Y-54430520D01*
X98968574Y-54472229D01*
X98957971Y-54520200D01*
X98951310Y-54576701D01*
X98949000Y-54644000D01*
X98749000Y-54644000D01*
X98746689Y-54576701D01*
X98740028Y-54520200D01*
X98729425Y-54472229D01*
X98715286Y-54430520D01*
X98698018Y-54392806D01*
X98678029Y-54356817D01*
X98655725Y-54320286D01*
X98631595Y-54281077D01*
X98631438Y-54280815D01*
X98605945Y-54236774D01*
X98605681Y-54236293D01*
X98599612Y-54224572D01*
X98582855Y-54192211D01*
X98582094Y-54183290D01*
X98584812Y-54178722D01*
X98840567Y-53912769D01*
X98848771Y-53909181D01*
X98857433Y-53912769D01*
G37*
%TD.AperFunction*%
%TD*%
%TA.AperFunction,Conductor*%
%TO.N,Net-(J1-PadB5)*%
G36*
X98952728Y-54166879D02*
G01*
X98963247Y-54248496D01*
X98979553Y-54317453D01*
X99000646Y-54377351D01*
X99004221Y-54385173D01*
X99025525Y-54431792D01*
X99025597Y-54431929D01*
X99025600Y-54431935D01*
X99053186Y-54484376D01*
X99082558Y-54538575D01*
X99082709Y-54538864D01*
X99103301Y-54579522D01*
X99112705Y-54598091D01*
X99112987Y-54598690D01*
X99142686Y-54666625D01*
X99142993Y-54667402D01*
X99168801Y-54740196D01*
X99168336Y-54749139D01*
X99164930Y-54753362D01*
X98770370Y-55058406D01*
X98761729Y-55060755D01*
X98753685Y-55055939D01*
X98464273Y-54649730D01*
X98462264Y-54641004D01*
X98464350Y-54636046D01*
X98505392Y-54579787D01*
X98505790Y-54579271D01*
X98538993Y-54538706D01*
X98549609Y-54525736D01*
X98549827Y-54525478D01*
X98591076Y-54478117D01*
X98628954Y-54434079D01*
X98629054Y-54433963D01*
X98629140Y-54433852D01*
X98629153Y-54433836D01*
X98662799Y-54390352D01*
X98662981Y-54390117D01*
X98692205Y-54343536D01*
X98716073Y-54291177D01*
X98733930Y-54229997D01*
X98745123Y-54156952D01*
X98749000Y-54069000D01*
X98949000Y-54069000D01*
X98952728Y-54166879D01*
G37*
%TD.AperFunction*%
%TD*%
%TA.AperFunction,Conductor*%
%TO.N,/DC+*%
G36*
X110835968Y-55748427D02*
G01*
X110839388Y-55756298D01*
X110841310Y-55812298D01*
X110847971Y-55868799D01*
X110858574Y-55916770D01*
X110872713Y-55958479D01*
X110889981Y-55996193D01*
X110909970Y-56032182D01*
X110910021Y-56032265D01*
X110910023Y-56032269D01*
X110932274Y-56068713D01*
X110956399Y-56107913D01*
X110956561Y-56108184D01*
X110982054Y-56152225D01*
X110982318Y-56152706D01*
X111005145Y-56196789D01*
X111005906Y-56205710D01*
X111003188Y-56210278D01*
X110747433Y-56476231D01*
X110739229Y-56479819D01*
X110730567Y-56476231D01*
X110474812Y-56210278D01*
X110471547Y-56201939D01*
X110472855Y-56196788D01*
X110495681Y-56152706D01*
X110495945Y-56152225D01*
X110521438Y-56108184D01*
X110521600Y-56107913D01*
X110545725Y-56068713D01*
X110567976Y-56032269D01*
X110567978Y-56032265D01*
X110568029Y-56032182D01*
X110588018Y-55996193D01*
X110605286Y-55958479D01*
X110619425Y-55916770D01*
X110630028Y-55868799D01*
X110636689Y-55812298D01*
X110638612Y-55756298D01*
X110642321Y-55748148D01*
X110650305Y-55745000D01*
X110827695Y-55745000D01*
X110835968Y-55748427D01*
G37*
%TD.AperFunction*%
%TD*%
%TA.AperFunction,Conductor*%
%TO.N,/DC+*%
G36*
X110757175Y-54477916D02*
G01*
X110760510Y-54482151D01*
X110790035Y-54545736D01*
X110798301Y-54563539D01*
X110798672Y-54564433D01*
X110827314Y-54642439D01*
X110827665Y-54643570D01*
X110845754Y-54714227D01*
X110846003Y-54715477D01*
X110855537Y-54782307D01*
X110855643Y-54783451D01*
X110858535Y-54849969D01*
X110858542Y-54850795D01*
X110856648Y-54920495D01*
X110856630Y-54920900D01*
X110851808Y-54997153D01*
X110845974Y-55083050D01*
X110841064Y-55181718D01*
X110841063Y-55181799D01*
X110841062Y-55181815D01*
X110839207Y-55284986D01*
X110835632Y-55293197D01*
X110827509Y-55296476D01*
X110649828Y-55296476D01*
X110641555Y-55293049D01*
X110638163Y-55285681D01*
X110634760Y-55241814D01*
X110634717Y-55241258D01*
X110622356Y-55196174D01*
X110602647Y-55159945D01*
X110576320Y-55131294D01*
X110544107Y-55108943D01*
X110506739Y-55091616D01*
X110464944Y-55078033D01*
X110419455Y-55066918D01*
X110371002Y-55056994D01*
X110328359Y-55048571D01*
X110320906Y-55043606D01*
X110319063Y-55038880D01*
X110242834Y-54545736D01*
X110244957Y-54537037D01*
X110253063Y-54532325D01*
X110748565Y-54475455D01*
X110757175Y-54477916D01*
G37*
%TD.AperFunction*%
%TD*%
%TA.AperFunction,Conductor*%
%TO.N,/DC-*%
G36*
X111835968Y-55748427D02*
G01*
X111839388Y-55756298D01*
X111841310Y-55812298D01*
X111847971Y-55868799D01*
X111858574Y-55916770D01*
X111872713Y-55958479D01*
X111889981Y-55996193D01*
X111909970Y-56032182D01*
X111910021Y-56032265D01*
X111910023Y-56032269D01*
X111932274Y-56068713D01*
X111956399Y-56107913D01*
X111956561Y-56108184D01*
X111982054Y-56152225D01*
X111982318Y-56152706D01*
X112005145Y-56196789D01*
X112005906Y-56205710D01*
X112003188Y-56210278D01*
X111747433Y-56476231D01*
X111739229Y-56479819D01*
X111730567Y-56476231D01*
X111474812Y-56210278D01*
X111471547Y-56201939D01*
X111472855Y-56196788D01*
X111495681Y-56152706D01*
X111495945Y-56152225D01*
X111521438Y-56108184D01*
X111521600Y-56107913D01*
X111545725Y-56068713D01*
X111567976Y-56032269D01*
X111567978Y-56032265D01*
X111568029Y-56032182D01*
X111588018Y-55996193D01*
X111605286Y-55958479D01*
X111619425Y-55916770D01*
X111630028Y-55868799D01*
X111636689Y-55812298D01*
X111638612Y-55756298D01*
X111642321Y-55748148D01*
X111650305Y-55745000D01*
X111827695Y-55745000D01*
X111835968Y-55748427D01*
G37*
%TD.AperFunction*%
%TD*%
%TA.AperFunction,Conductor*%
%TO.N,/DC-*%
G36*
X112129529Y-54507725D02*
G01*
X112133719Y-54516112D01*
X112159159Y-55014412D01*
X112156158Y-55022850D01*
X112151961Y-55025815D01*
X112105702Y-55045023D01*
X112105698Y-55045013D01*
X112105650Y-55045044D01*
X112055284Y-55065671D01*
X112008847Y-55086172D01*
X111966911Y-55108102D01*
X111929998Y-55133038D01*
X111898628Y-55162557D01*
X111898292Y-55163031D01*
X111898290Y-55163033D01*
X111873674Y-55197739D01*
X111873672Y-55197742D01*
X111873322Y-55198236D01*
X111854601Y-55241652D01*
X111854482Y-55242194D01*
X111854481Y-55242196D01*
X111843084Y-55293940D01*
X111842987Y-55294381D01*
X111842959Y-55294832D01*
X111839687Y-55347032D01*
X111835749Y-55355074D01*
X111828010Y-55358000D01*
X111650378Y-55358000D01*
X111642105Y-55354573D01*
X111638683Y-55346626D01*
X111635892Y-55246575D01*
X111635887Y-55246389D01*
X111627830Y-55151408D01*
X111616748Y-55069394D01*
X111604564Y-54996683D01*
X111593236Y-54929850D01*
X111593173Y-54929433D01*
X111584621Y-54864932D01*
X111584540Y-54864089D01*
X111580628Y-54798308D01*
X111580615Y-54797190D01*
X111583182Y-54726216D01*
X111583282Y-54725052D01*
X111594239Y-54645019D01*
X111594427Y-54643989D01*
X111613941Y-54558965D01*
X111619132Y-54551668D01*
X111624290Y-54549930D01*
X111958950Y-54519695D01*
X112120981Y-54505056D01*
X112129529Y-54507725D01*
G37*
%TD.AperFunction*%
%TD*%
%TA.AperFunction,Conductor*%
%TO.N,Net-(FB2-Pad1)*%
G36*
X103827661Y-61454427D02*
G01*
X103831088Y-61462611D01*
X103831711Y-61545042D01*
X103834119Y-61626804D01*
X103838633Y-61698551D01*
X103845659Y-61762550D01*
X103855609Y-61821068D01*
X103868889Y-61876370D01*
X103885910Y-61930722D01*
X103907079Y-61986392D01*
X103932806Y-62045645D01*
X103963500Y-62110747D01*
X103589275Y-62499895D01*
X103587749Y-62501482D01*
X103585974Y-62502303D01*
X103577026Y-62502666D01*
X103572628Y-62499794D01*
X103557400Y-62483959D01*
X103204087Y-62116557D01*
X103200822Y-62108218D01*
X103201937Y-62103458D01*
X103229152Y-62045733D01*
X103229163Y-62045709D01*
X103229193Y-62045645D01*
X103254920Y-61986392D01*
X103259625Y-61974020D01*
X103276029Y-61930881D01*
X103276033Y-61930868D01*
X103276089Y-61930722D01*
X103293110Y-61876370D01*
X103306390Y-61821068D01*
X103316340Y-61762550D01*
X103323366Y-61698551D01*
X103327880Y-61626804D01*
X103330288Y-61545042D01*
X103330912Y-61462611D01*
X103334402Y-61454364D01*
X103342612Y-61451000D01*
X103819388Y-61451000D01*
X103827661Y-61454427D01*
G37*
%TD.AperFunction*%
%TD*%
%TA.AperFunction,Conductor*%
%TO.N,/D+*%
G36*
X108800949Y-52908731D02*
G01*
X108805000Y-52917585D01*
X108805000Y-53094841D01*
X108801573Y-53103114D01*
X108794942Y-53106425D01*
X108790966Y-53106988D01*
X108787561Y-53107470D01*
X108787560Y-53107470D01*
X108786722Y-53107589D01*
X108771204Y-53114673D01*
X108758278Y-53125230D01*
X108747777Y-53138233D01*
X108747547Y-53138636D01*
X108747544Y-53138640D01*
X108739716Y-53152341D01*
X108739712Y-53152349D01*
X108739535Y-53152659D01*
X108733383Y-53167483D01*
X108729155Y-53181682D01*
X108726684Y-53194231D01*
X108725802Y-53204105D01*
X108725492Y-53204077D01*
X108722421Y-53211492D01*
X108719286Y-53213731D01*
X108363546Y-53387604D01*
X108354608Y-53388158D01*
X108347896Y-53382230D01*
X108347342Y-53373292D01*
X108347896Y-53371954D01*
X108522236Y-53015258D01*
X108528947Y-53009331D01*
X108531996Y-53008721D01*
X108536355Y-53008441D01*
X108551574Y-53001801D01*
X108570747Y-52990652D01*
X108593748Y-52976405D01*
X108620246Y-52960595D01*
X108620690Y-52960345D01*
X108650352Y-52944470D01*
X108651088Y-52944108D01*
X108683948Y-52929430D01*
X108684964Y-52929033D01*
X108709372Y-52920790D01*
X108720832Y-52916920D01*
X108722145Y-52916560D01*
X108760927Y-52908326D01*
X108762505Y-52908102D01*
X108776325Y-52907093D01*
X108792449Y-52905916D01*
X108800949Y-52908731D01*
G37*
%TD.AperFunction*%
%TD*%
%TA.AperFunction,Conductor*%
%TO.N,/D-*%
G36*
X106752162Y-52722621D02*
G01*
X106877607Y-52848066D01*
X106881034Y-52856339D01*
X106878006Y-52864193D01*
X106850871Y-52894152D01*
X106825471Y-52930156D01*
X106808251Y-52964669D01*
X106798182Y-52998408D01*
X106794234Y-53032091D01*
X106795379Y-53066435D01*
X106800587Y-53102158D01*
X106808829Y-53139978D01*
X106808839Y-53140018D01*
X106808843Y-53140035D01*
X106819076Y-53180612D01*
X106828277Y-53216817D01*
X106826993Y-53225680D01*
X106823498Y-53229386D01*
X106517862Y-53436393D01*
X106509091Y-53438195D01*
X106501365Y-53432884D01*
X106306553Y-53119541D01*
X106305095Y-53110705D01*
X106307453Y-53105931D01*
X106346271Y-53058738D01*
X106346754Y-53058187D01*
X106387181Y-53014874D01*
X106387729Y-53014324D01*
X106425976Y-52978441D01*
X106426501Y-52977977D01*
X106463938Y-52946854D01*
X106464318Y-52946551D01*
X106485793Y-52930156D01*
X106502351Y-52917515D01*
X106502474Y-52917422D01*
X106542334Y-52887931D01*
X106542351Y-52887918D01*
X106585193Y-52855466D01*
X106632251Y-52817477D01*
X106684782Y-52771361D01*
X106693443Y-52763056D01*
X106735791Y-52722449D01*
X106744134Y-52719197D01*
X106752162Y-52722621D01*
G37*
%TD.AperFunction*%
%TD*%
%TA.AperFunction,Conductor*%
%TO.N,/D-*%
G36*
X111522355Y-52383263D02*
G01*
X111581463Y-52437566D01*
X111581703Y-52437745D01*
X111581709Y-52437750D01*
X111642665Y-52483216D01*
X111642960Y-52483436D01*
X111700334Y-52516231D01*
X111700681Y-52516374D01*
X111700685Y-52516376D01*
X111746113Y-52535097D01*
X111755333Y-52538897D01*
X111755643Y-52538985D01*
X111755648Y-52538987D01*
X111809482Y-52554317D01*
X111809487Y-52554318D01*
X111809704Y-52554380D01*
X111865193Y-52565625D01*
X111865299Y-52565643D01*
X111865304Y-52565644D01*
X111923446Y-52575562D01*
X111923600Y-52575589D01*
X111986231Y-52587136D01*
X111986773Y-52587249D01*
X112055469Y-52603312D01*
X112056217Y-52603514D01*
X112114141Y-52621285D01*
X112125170Y-52624669D01*
X112132074Y-52630371D01*
X112133436Y-52635623D01*
X112135841Y-52758648D01*
X112143183Y-53134256D01*
X112139918Y-53142595D01*
X112131256Y-53146183D01*
X111971492Y-53143060D01*
X111632624Y-53136436D01*
X111624421Y-53132848D01*
X111621669Y-53128170D01*
X111600517Y-53059227D01*
X111600309Y-53058459D01*
X111584249Y-52989774D01*
X111584136Y-52989231D01*
X111572589Y-52926600D01*
X111572562Y-52926446D01*
X111562644Y-52868304D01*
X111562643Y-52868299D01*
X111562625Y-52868193D01*
X111551380Y-52812704D01*
X111535897Y-52758333D01*
X111513231Y-52703334D01*
X111480436Y-52645960D01*
X111464555Y-52624669D01*
X111434750Y-52584709D01*
X111434745Y-52584703D01*
X111434566Y-52584463D01*
X111380263Y-52525355D01*
X111377189Y-52516945D01*
X111380606Y-52509167D01*
X111506167Y-52383606D01*
X111514440Y-52380179D01*
X111522355Y-52383263D01*
G37*
%TD.AperFunction*%
%TD*%
%TA.AperFunction,Conductor*%
%TO.N,VCC*%
G36*
X107495930Y-53154646D02*
G01*
X107746928Y-53449708D01*
X107744188Y-53457652D01*
X107742125Y-53470719D01*
X107740647Y-53488457D01*
X107740436Y-53493152D01*
X107740436Y-53493155D01*
X107739662Y-53510413D01*
X107739079Y-53536137D01*
X107739079Y-53536178D01*
X107738807Y-53565174D01*
X107738754Y-53597074D01*
X107738754Y-53597100D01*
X107738830Y-53631384D01*
X107738830Y-53631420D01*
X107738942Y-53667634D01*
X107738942Y-53667652D01*
X107738988Y-53697849D01*
X107738155Y-53702202D01*
X107736868Y-53705427D01*
X107241199Y-53705427D01*
X107239789Y-53701753D01*
X107239012Y-53697542D01*
X107239057Y-53667670D01*
X107239057Y-53667652D01*
X107239169Y-53631384D01*
X107239245Y-53597074D01*
X107239245Y-53597055D01*
X107239192Y-53565174D01*
X107238920Y-53536178D01*
X107238920Y-53536137D01*
X107238337Y-53510413D01*
X107238332Y-53510295D01*
X107237575Y-53493415D01*
X107237574Y-53493401D01*
X107237352Y-53488457D01*
X107235874Y-53470719D01*
X107233811Y-53457652D01*
X107231072Y-53449708D01*
X107482117Y-53154591D01*
X107488771Y-53151681D01*
X107495930Y-53154646D01*
G37*
%TD.AperFunction*%
%TD*%
%TA.AperFunction,Conductor*%
%TO.N,VCC*%
G36*
X109985480Y-55748427D02*
G01*
X109988907Y-55756792D01*
X109988478Y-55811474D01*
X109987233Y-55873073D01*
X109985746Y-55929913D01*
X109984499Y-55982109D01*
X109983972Y-56029777D01*
X109984648Y-56073032D01*
X109987007Y-56111989D01*
X109991532Y-56146765D01*
X109998702Y-56177475D01*
X110006327Y-56197288D01*
X110006101Y-56206238D01*
X110003841Y-56209599D01*
X109747433Y-56476231D01*
X109739229Y-56479819D01*
X109730567Y-56476231D01*
X109474159Y-56209599D01*
X109470894Y-56201260D01*
X109471673Y-56197287D01*
X109479149Y-56177859D01*
X109479297Y-56177475D01*
X109486467Y-56146765D01*
X109490992Y-56111989D01*
X109493351Y-56073032D01*
X109494027Y-56029777D01*
X109493500Y-55982109D01*
X109492253Y-55929913D01*
X109490766Y-55873073D01*
X109489521Y-55811474D01*
X109489092Y-55756791D01*
X109492454Y-55748492D01*
X109500792Y-55745000D01*
X109977207Y-55745000D01*
X109985480Y-55748427D01*
G37*
%TD.AperFunction*%
%TD*%
%TA.AperFunction,Conductor*%
%TO.N,Net-(C1-Pad1)*%
G36*
X97726223Y-57604297D02*
G01*
X97726505Y-57604561D01*
X97808658Y-57681559D01*
X97808826Y-57681694D01*
X97808836Y-57681702D01*
X97890595Y-57747079D01*
X97890808Y-57747249D01*
X97966859Y-57796998D01*
X97967131Y-57797138D01*
X97967135Y-57797140D01*
X98039006Y-57834049D01*
X98039014Y-57834053D01*
X98039266Y-57834182D01*
X98110480Y-57862175D01*
X98110701Y-57862243D01*
X98110702Y-57862243D01*
X98149845Y-57874223D01*
X98182953Y-57884356D01*
X98259139Y-57904098D01*
X98341405Y-57924758D01*
X98341592Y-57924807D01*
X98432240Y-57949715D01*
X98432695Y-57949851D01*
X98526530Y-57979909D01*
X98533364Y-57985696D01*
X98534659Y-57990822D01*
X98548216Y-58684289D01*
X98544951Y-58692628D01*
X98536289Y-58696216D01*
X97842822Y-58682659D01*
X97834618Y-58679071D01*
X97831909Y-58674530D01*
X97801853Y-58580702D01*
X97801713Y-58580233D01*
X97776816Y-58489626D01*
X97776750Y-58489376D01*
X97756098Y-58407139D01*
X97736385Y-58331065D01*
X97736356Y-58330953D01*
X97714175Y-58258480D01*
X97686182Y-58187266D01*
X97686053Y-58187014D01*
X97686049Y-58187006D01*
X97649140Y-58115135D01*
X97649138Y-58115131D01*
X97648998Y-58114859D01*
X97599249Y-58038808D01*
X97556779Y-57985696D01*
X97533702Y-57956836D01*
X97533694Y-57956826D01*
X97533559Y-57956658D01*
X97499610Y-57920437D01*
X97456297Y-57874223D01*
X97453140Y-57865843D01*
X97456561Y-57857949D01*
X97709949Y-57604561D01*
X97718222Y-57601134D01*
X97726223Y-57604297D01*
G37*
%TD.AperFunction*%
%TD*%
%TA.AperFunction,Conductor*%
%TO.N,Net-(C1-Pad1)*%
G36*
X97067152Y-56506896D02*
G01*
X97373199Y-56798743D01*
X97376821Y-56806931D01*
X97375909Y-56811743D01*
X97355155Y-56861100D01*
X97334871Y-56914711D01*
X97319265Y-56965823D01*
X97309423Y-57015114D01*
X97306429Y-57063266D01*
X97311367Y-57110957D01*
X97325322Y-57158869D01*
X97349378Y-57207680D01*
X97384619Y-57258071D01*
X97399072Y-57274087D01*
X97424685Y-57302471D01*
X97427684Y-57310909D01*
X97424272Y-57318582D01*
X97170896Y-57571958D01*
X97162623Y-57575385D01*
X97154451Y-57572058D01*
X97064489Y-57484261D01*
X97064480Y-57484252D01*
X97064462Y-57484235D01*
X96978458Y-57403932D01*
X96902802Y-57335218D01*
X96835652Y-57274152D01*
X96835474Y-57273986D01*
X96811363Y-57251125D01*
X96775052Y-57216695D01*
X96774728Y-57216375D01*
X96719045Y-57158811D01*
X96718563Y-57158281D01*
X96665675Y-57096452D01*
X96665172Y-57095821D01*
X96613047Y-57025605D01*
X96612609Y-57024972D01*
X96559285Y-56942293D01*
X96558948Y-56941738D01*
X96545610Y-56918296D01*
X96545608Y-56918293D01*
X96502358Y-56842284D01*
X96920952Y-56367479D01*
X97067152Y-56506896D01*
G37*
%TD.AperFunction*%
%TD*%
%TA.AperFunction,Conductor*%
%TO.N,Net-(C1-Pad1)*%
G36*
X96861138Y-56132068D02*
G01*
X96864473Y-56135884D01*
X97164003Y-56684186D01*
X96597073Y-56965703D01*
X96544512Y-56916910D01*
X96544510Y-56916908D01*
X96541809Y-56914401D01*
X96541803Y-56914395D01*
X96541728Y-56914326D01*
X96517057Y-56892764D01*
X96490546Y-56869593D01*
X96490532Y-56869581D01*
X96490409Y-56869474D01*
X96441050Y-56830885D01*
X96433322Y-56825793D01*
X96391839Y-56798461D01*
X96391834Y-56798458D01*
X96391588Y-56798296D01*
X96339956Y-56771442D01*
X96339635Y-56771319D01*
X96284395Y-56750177D01*
X96284389Y-56750175D01*
X96284091Y-56750061D01*
X96283782Y-56749981D01*
X96283777Y-56749979D01*
X96251270Y-56741523D01*
X96221928Y-56733889D01*
X96221663Y-56733847D01*
X96221659Y-56733846D01*
X96172116Y-56725961D01*
X96151401Y-56722664D01*
X96151172Y-56722646D01*
X96151168Y-56722645D01*
X96140494Y-56721783D01*
X96106632Y-56719046D01*
X96106631Y-56719046D01*
X96070447Y-56716122D01*
X95977000Y-56714000D01*
X95977000Y-56214000D01*
X96100166Y-56212997D01*
X96171473Y-56211012D01*
X96205724Y-56210059D01*
X96205756Y-56210058D01*
X96205816Y-56210056D01*
X96214228Y-56209618D01*
X96297487Y-56205283D01*
X96297503Y-56205282D01*
X96297617Y-56205276D01*
X96379237Y-56198757D01*
X96454343Y-56190598D01*
X96483411Y-56186696D01*
X96526540Y-56180908D01*
X96526571Y-56180903D01*
X96526604Y-56180899D01*
X96533155Y-56179900D01*
X96599643Y-56169766D01*
X96599686Y-56169759D01*
X96642150Y-56162927D01*
X96677248Y-56157280D01*
X96677258Y-56157278D01*
X96762901Y-56143570D01*
X96762988Y-56143556D01*
X96852444Y-56129926D01*
X96861138Y-56132068D01*
G37*
%TD.AperFunction*%
%TD*%
%TA.AperFunction,Conductor*%
%TO.N,Net-(C1-Pad1)*%
G36*
X95610462Y-56062497D02*
G01*
X95673230Y-56092520D01*
X95736395Y-56121232D01*
X95736458Y-56121258D01*
X95736465Y-56121261D01*
X95795036Y-56145378D01*
X95795046Y-56145382D01*
X95795180Y-56145437D01*
X95795312Y-56145483D01*
X95795332Y-56145491D01*
X95836149Y-56159826D01*
X95852120Y-56165436D01*
X95852292Y-56165484D01*
X95852295Y-56165485D01*
X95909563Y-56181479D01*
X95909569Y-56181480D01*
X95909750Y-56181531D01*
X95970607Y-56194024D01*
X95970787Y-56194049D01*
X95970788Y-56194049D01*
X96037042Y-56203191D01*
X96037046Y-56203191D01*
X96037224Y-56203216D01*
X96062038Y-56205267D01*
X96112003Y-56209397D01*
X96112015Y-56209398D01*
X96112139Y-56209408D01*
X96112262Y-56209413D01*
X96112278Y-56209414D01*
X96132295Y-56210229D01*
X96197886Y-56212902D01*
X96297000Y-56214000D01*
X96297000Y-56714000D01*
X96197886Y-56715097D01*
X96112139Y-56718591D01*
X96106633Y-56719046D01*
X96106632Y-56719046D01*
X96037224Y-56724783D01*
X96037046Y-56724808D01*
X96037042Y-56724808D01*
X95971542Y-56733846D01*
X95970607Y-56733975D01*
X95909750Y-56746468D01*
X95909569Y-56746519D01*
X95909563Y-56746520D01*
X95852295Y-56762514D01*
X95852120Y-56762563D01*
X95836149Y-56768173D01*
X95795332Y-56782508D01*
X95795312Y-56782516D01*
X95795180Y-56782562D01*
X95795046Y-56782617D01*
X95795036Y-56782621D01*
X95736465Y-56806738D01*
X95736395Y-56806767D01*
X95673230Y-56835479D01*
X95610464Y-56865501D01*
X95601522Y-56865979D01*
X95597305Y-56863379D01*
X95448979Y-56720741D01*
X95182000Y-56464000D01*
X95377328Y-56276162D01*
X95397157Y-56257094D01*
X95597306Y-56064620D01*
X95605645Y-56061355D01*
X95610462Y-56062497D01*
G37*
%TD.AperFunction*%
%TD*%
%TA.AperFunction,Conductor*%
%TO.N,Net-(C1-Pad1)*%
G36*
X94061542Y-56223937D02*
G01*
X94119266Y-56251152D01*
X94119290Y-56251163D01*
X94119354Y-56251193D01*
X94119428Y-56251225D01*
X94119441Y-56251231D01*
X94141776Y-56260928D01*
X94178607Y-56276920D01*
X94178706Y-56276957D01*
X94178719Y-56276963D01*
X94234118Y-56298029D01*
X94234131Y-56298033D01*
X94234277Y-56298089D01*
X94288629Y-56315110D01*
X94343931Y-56328390D01*
X94402449Y-56338340D01*
X94402609Y-56338358D01*
X94402612Y-56338358D01*
X94443814Y-56342881D01*
X94466448Y-56345366D01*
X94466561Y-56345373D01*
X94466571Y-56345374D01*
X94538081Y-56349873D01*
X94538090Y-56349873D01*
X94538195Y-56349880D01*
X94619957Y-56352288D01*
X94714000Y-56353000D01*
X94714000Y-56853000D01*
X94648254Y-56853497D01*
X94648247Y-56853497D01*
X94642531Y-56853540D01*
X94619957Y-56853711D01*
X94619895Y-56853713D01*
X94619883Y-56853713D01*
X94595319Y-56854437D01*
X94538195Y-56856119D01*
X94538090Y-56856126D01*
X94538081Y-56856126D01*
X94466571Y-56860625D01*
X94466561Y-56860626D01*
X94466448Y-56860633D01*
X94443814Y-56863118D01*
X94402612Y-56867641D01*
X94402609Y-56867641D01*
X94402449Y-56867659D01*
X94343931Y-56877609D01*
X94288629Y-56890889D01*
X94234277Y-56907910D01*
X94234131Y-56907966D01*
X94234118Y-56907970D01*
X94178719Y-56929036D01*
X94178706Y-56929042D01*
X94178607Y-56929079D01*
X94143273Y-56944421D01*
X94119411Y-56954781D01*
X94119398Y-56954787D01*
X94119354Y-56954806D01*
X94119311Y-56954827D01*
X94119305Y-56954829D01*
X94061543Y-56982063D01*
X94052598Y-56982491D01*
X94048443Y-56979913D01*
X93973515Y-56907858D01*
X93665269Y-56611433D01*
X93661681Y-56603229D01*
X93665269Y-56594567D01*
X93917210Y-56352288D01*
X94048443Y-56226087D01*
X94056782Y-56222822D01*
X94061542Y-56223937D01*
G37*
%TD.AperFunction*%
%TD*%
%TA.AperFunction,Conductor*%
%TO.N,Net-(C1-Pad1)*%
G36*
X95102779Y-56142687D02*
G01*
X95182372Y-56181382D01*
X95621044Y-56394648D01*
X95446620Y-56720396D01*
X95349080Y-56902559D01*
X95342154Y-56908235D01*
X95337166Y-56908626D01*
X95257003Y-56897563D01*
X95178820Y-56887107D01*
X95107460Y-56878269D01*
X95107426Y-56878265D01*
X95107390Y-56878261D01*
X95058361Y-56872962D01*
X95039697Y-56870945D01*
X94999071Y-56867380D01*
X94972410Y-56865040D01*
X94972379Y-56865038D01*
X94972304Y-56865031D01*
X94972247Y-56865027D01*
X94972218Y-56865025D01*
X94940763Y-56862963D01*
X94902056Y-56860424D01*
X94825728Y-56857021D01*
X94825704Y-56857020D01*
X94825695Y-56857020D01*
X94798911Y-56856300D01*
X94740093Y-56854718D01*
X94740081Y-56854718D01*
X94740052Y-56854717D01*
X94693653Y-56854100D01*
X94641925Y-56853412D01*
X94528000Y-56853000D01*
X94528000Y-56353000D01*
X94610224Y-56351456D01*
X94612851Y-56351407D01*
X94612857Y-56351407D01*
X94613002Y-56351404D01*
X94687190Y-56346377D01*
X94752266Y-56337556D01*
X94778113Y-56331739D01*
X94809635Y-56324646D01*
X94809642Y-56324644D01*
X94809931Y-56324579D01*
X94838464Y-56314971D01*
X94861575Y-56307189D01*
X94861579Y-56307187D01*
X94861886Y-56307084D01*
X94862177Y-56306948D01*
X94862185Y-56306945D01*
X94909550Y-56284842D01*
X94909549Y-56284842D01*
X94909833Y-56284710D01*
X94910092Y-56284553D01*
X94910100Y-56284549D01*
X94955243Y-56257233D01*
X94955473Y-56257094D01*
X95000508Y-56223875D01*
X95046638Y-56184691D01*
X95089694Y-56144642D01*
X95098086Y-56141517D01*
X95102779Y-56142687D01*
G37*
%TD.AperFunction*%
%TD*%
%TA.AperFunction,Conductor*%
%TO.N,VCC*%
G36*
X107497433Y-53155269D02*
G01*
X107753840Y-53421901D01*
X107757105Y-53430240D01*
X107756326Y-53434213D01*
X107748702Y-53454024D01*
X107741532Y-53484734D01*
X107741495Y-53485019D01*
X107740469Y-53492899D01*
X107740468Y-53492913D01*
X107737007Y-53519510D01*
X107734648Y-53558467D01*
X107733972Y-53601722D01*
X107734499Y-53649390D01*
X107735746Y-53701586D01*
X107735909Y-53707831D01*
X107735909Y-53707832D01*
X107737231Y-53758356D01*
X107737233Y-53758425D01*
X107738477Y-53819954D01*
X107738479Y-53820099D01*
X107738907Y-53874708D01*
X107735545Y-53883008D01*
X107727207Y-53886500D01*
X107250792Y-53886500D01*
X107242519Y-53883073D01*
X107239092Y-53874708D01*
X107239520Y-53820099D01*
X107239522Y-53819954D01*
X107240766Y-53758425D01*
X107240768Y-53758356D01*
X107242092Y-53707753D01*
X107242092Y-53707752D01*
X107242253Y-53701586D01*
X107243500Y-53649390D01*
X107244027Y-53601722D01*
X107243351Y-53558467D01*
X107240992Y-53519510D01*
X107237531Y-53492913D01*
X107237530Y-53492899D01*
X107236504Y-53485019D01*
X107236467Y-53484734D01*
X107229297Y-53454024D01*
X107221673Y-53434212D01*
X107221899Y-53425261D01*
X107224159Y-53421901D01*
X107480567Y-53155269D01*
X107488771Y-53151681D01*
X107497433Y-53155269D01*
G37*
%TD.AperFunction*%
%TD*%
%TA.AperFunction,Conductor*%
%TO.N,VCC*%
G36*
X95166694Y-54586620D02*
G01*
X95208042Y-54626383D01*
X95208042Y-54626382D01*
X95582000Y-54986000D01*
X95421095Y-55140735D01*
X95421094Y-55140735D01*
X95419502Y-55142266D01*
X95166695Y-55385379D01*
X95158356Y-55388644D01*
X95153537Y-55387501D01*
X95090809Y-55357498D01*
X95090769Y-55357479D01*
X95027604Y-55328767D01*
X95027534Y-55328738D01*
X94968963Y-55304621D01*
X94968953Y-55304617D01*
X94968819Y-55304562D01*
X94968687Y-55304516D01*
X94968667Y-55304508D01*
X94927850Y-55290173D01*
X94911879Y-55284563D01*
X94911704Y-55284514D01*
X94854436Y-55268520D01*
X94854430Y-55268519D01*
X94854249Y-55268468D01*
X94793392Y-55255975D01*
X94793211Y-55255950D01*
X94726957Y-55246808D01*
X94726953Y-55246808D01*
X94726775Y-55246783D01*
X94701025Y-55244655D01*
X94651996Y-55240602D01*
X94651984Y-55240601D01*
X94651860Y-55240591D01*
X94651737Y-55240586D01*
X94651721Y-55240585D01*
X94596649Y-55238341D01*
X94566113Y-55237097D01*
X94467000Y-55236000D01*
X94467000Y-54736000D01*
X94566113Y-54734902D01*
X94622687Y-54732597D01*
X94651721Y-54731414D01*
X94651737Y-54731413D01*
X94651860Y-54731408D01*
X94651984Y-54731398D01*
X94651996Y-54731397D01*
X94701025Y-54727344D01*
X94726775Y-54725216D01*
X94726953Y-54725191D01*
X94726957Y-54725191D01*
X94793211Y-54716049D01*
X94793212Y-54716049D01*
X94793392Y-54716024D01*
X94854249Y-54703531D01*
X94854430Y-54703480D01*
X94854436Y-54703479D01*
X94911704Y-54687485D01*
X94911707Y-54687484D01*
X94911879Y-54687436D01*
X94927850Y-54681826D01*
X94968667Y-54667491D01*
X94968687Y-54667483D01*
X94968819Y-54667437D01*
X94968953Y-54667382D01*
X94968963Y-54667378D01*
X95027534Y-54643261D01*
X95027541Y-54643258D01*
X95027604Y-54643232D01*
X95090769Y-54614520D01*
X95090793Y-54614508D01*
X95090818Y-54614497D01*
X95149100Y-54586620D01*
X95153537Y-54584498D01*
X95162478Y-54584020D01*
X95166694Y-54586620D01*
G37*
%TD.AperFunction*%
%TD*%
%TA.AperFunction,Conductor*%
%TO.N,VCC*%
G36*
X94046312Y-54616582D02*
G01*
X94107071Y-54642351D01*
X94168911Y-54666453D01*
X94203157Y-54678113D01*
X94226650Y-54686112D01*
X94226660Y-54686115D01*
X94226789Y-54686159D01*
X94283086Y-54701884D01*
X94283267Y-54701923D01*
X94283281Y-54701926D01*
X94340009Y-54714008D01*
X94340017Y-54714009D01*
X94340184Y-54714045D01*
X94357794Y-54716679D01*
X94400292Y-54723036D01*
X94400307Y-54723038D01*
X94400462Y-54723061D01*
X94400627Y-54723077D01*
X94400629Y-54723077D01*
X94406791Y-54723665D01*
X94466302Y-54729347D01*
X94466432Y-54729354D01*
X94466445Y-54729355D01*
X94498242Y-54731067D01*
X94540084Y-54733321D01*
X94540155Y-54733323D01*
X94540161Y-54733323D01*
X94580227Y-54734313D01*
X94580233Y-54734313D01*
X94624190Y-54735399D01*
X94721000Y-54736000D01*
X94721000Y-55236000D01*
X94627732Y-55236757D01*
X94546551Y-55239325D01*
X94546451Y-55239332D01*
X94546446Y-55239332D01*
X94532974Y-55240242D01*
X94475264Y-55244142D01*
X94411682Y-55251649D01*
X94411527Y-55251677D01*
X94411523Y-55251678D01*
X94353803Y-55262251D01*
X94353793Y-55262253D01*
X94353614Y-55262286D01*
X94298870Y-55276493D01*
X94245259Y-55294710D01*
X94245111Y-55294772D01*
X94245096Y-55294777D01*
X94206728Y-55310686D01*
X94190590Y-55317378D01*
X94190479Y-55317431D01*
X94190465Y-55317437D01*
X94155335Y-55334154D01*
X94132675Y-55344937D01*
X94088878Y-55367675D01*
X94076464Y-55374119D01*
X94067542Y-55374890D01*
X94063305Y-55372484D01*
X93665767Y-55019531D01*
X93661856Y-55011476D01*
X93665096Y-55002678D01*
X94033306Y-54619249D01*
X94041508Y-54615655D01*
X94046312Y-54616582D01*
G37*
%TD.AperFunction*%
%TD*%
%TA.AperFunction,Conductor*%
%TO.N,VCC*%
G36*
X95817729Y-54188082D02*
G01*
X96154918Y-54525271D01*
X96158345Y-54533544D01*
X96155009Y-54541725D01*
X96136232Y-54560923D01*
X96093792Y-54604313D01*
X96035631Y-54667415D01*
X95987037Y-54724766D01*
X95946430Y-54778371D01*
X95912232Y-54830236D01*
X95882862Y-54882368D01*
X95856741Y-54936772D01*
X95856687Y-54936901D01*
X95856680Y-54936917D01*
X95832323Y-54995374D01*
X95832290Y-54995454D01*
X95807928Y-55060421D01*
X95807894Y-55060518D01*
X95784775Y-55126031D01*
X95778791Y-55132693D01*
X95773971Y-55133836D01*
X95506555Y-55139064D01*
X95421094Y-55140735D01*
X95197901Y-55145099D01*
X95208042Y-54626383D01*
X95209164Y-54569028D01*
X95212751Y-54560825D01*
X95216967Y-54558225D01*
X95282476Y-54535107D01*
X95282578Y-54535071D01*
X95347545Y-54510709D01*
X95347612Y-54510681D01*
X95347625Y-54510676D01*
X95406082Y-54486319D01*
X95406098Y-54486312D01*
X95406227Y-54486258D01*
X95460631Y-54460137D01*
X95460786Y-54460050D01*
X95460795Y-54460045D01*
X95512596Y-54430861D01*
X95512763Y-54430767D01*
X95512913Y-54430668D01*
X95512923Y-54430662D01*
X95536152Y-54415345D01*
X95564628Y-54396569D01*
X95618233Y-54355962D01*
X95675584Y-54307368D01*
X95738686Y-54249207D01*
X95738723Y-54249170D01*
X95738744Y-54249151D01*
X95801275Y-54187991D01*
X95809586Y-54184656D01*
X95817729Y-54188082D01*
G37*
%TD.AperFunction*%
%TD*%
%TA.AperFunction,Conductor*%
%TO.N,Net-(F1-Pad1)*%
G36*
X102445105Y-55128748D02*
G01*
X102545510Y-55216756D01*
X102722691Y-55372060D01*
X102726654Y-55380090D01*
X102723469Y-55388908D01*
X102469277Y-55657004D01*
X102461099Y-55660649D01*
X102456475Y-55659829D01*
X102436023Y-55651719D01*
X102431705Y-55650007D01*
X102401139Y-55640352D01*
X102371777Y-55634155D01*
X102343260Y-55631796D01*
X102342821Y-55631825D01*
X102342816Y-55631825D01*
X102316968Y-55633535D01*
X102315227Y-55633650D01*
X102287322Y-55640097D01*
X102286897Y-55640269D01*
X102286895Y-55640270D01*
X102259568Y-55651355D01*
X102259565Y-55651356D01*
X102259184Y-55651511D01*
X102258830Y-55651717D01*
X102258827Y-55651719D01*
X102239927Y-55662746D01*
X102230456Y-55668272D01*
X102230179Y-55668482D01*
X102201004Y-55690583D01*
X102200994Y-55690591D01*
X102200778Y-55690755D01*
X102200571Y-55690946D01*
X102200559Y-55690956D01*
X102178052Y-55711720D01*
X102169648Y-55714812D01*
X102161846Y-55711394D01*
X101965937Y-55515485D01*
X101962510Y-55507212D01*
X101965940Y-55498935D01*
X102018180Y-55446741D01*
X102018222Y-55446700D01*
X102070467Y-55395023D01*
X102070579Y-55394914D01*
X102116587Y-55350601D01*
X102116790Y-55350410D01*
X102158596Y-55312024D01*
X102158906Y-55311749D01*
X102198558Y-55277847D01*
X102198939Y-55277536D01*
X102213718Y-55266000D01*
X102238476Y-55246677D01*
X102238929Y-55246340D01*
X102280440Y-55217049D01*
X102280877Y-55216756D01*
X102326464Y-55187569D01*
X102326828Y-55187345D01*
X102342780Y-55177935D01*
X102378608Y-55156800D01*
X102378829Y-55156674D01*
X102431717Y-55127317D01*
X102440612Y-55126298D01*
X102445105Y-55128748D01*
G37*
%TD.AperFunction*%
%TD*%
%TA.AperFunction,Conductor*%
%TO.N,Net-(F1-Pad1)*%
G36*
X99055687Y-56191910D02*
G01*
X99123309Y-56230500D01*
X99190351Y-56267608D01*
X99252552Y-56299443D01*
X99312716Y-56326248D01*
X99312904Y-56326316D01*
X99312914Y-56326320D01*
X99366330Y-56345621D01*
X99373648Y-56348265D01*
X99438153Y-56365735D01*
X99509036Y-56378902D01*
X99589101Y-56388006D01*
X99616026Y-56389552D01*
X99681044Y-56393286D01*
X99681060Y-56393287D01*
X99681154Y-56393292D01*
X99681244Y-56393293D01*
X99681259Y-56393294D01*
X99776487Y-56394816D01*
X99784704Y-56398375D01*
X99788000Y-56406515D01*
X99788000Y-56883448D01*
X99784573Y-56891721D01*
X99776449Y-56895147D01*
X99674460Y-56896441D01*
X99576866Y-56900874D01*
X99576774Y-56900882D01*
X99576762Y-56900883D01*
X99542001Y-56903991D01*
X99492037Y-56908458D01*
X99451127Y-56914382D01*
X99416973Y-56919328D01*
X99416962Y-56919330D01*
X99416789Y-56919355D01*
X99382366Y-56926540D01*
X99348124Y-56933687D01*
X99348118Y-56933689D01*
X99347943Y-56933725D01*
X99282316Y-56951730D01*
X99282187Y-56951773D01*
X99282180Y-56951775D01*
X99216857Y-56973485D01*
X99216836Y-56973492D01*
X99216726Y-56973529D01*
X99216608Y-56973573D01*
X99216586Y-56973581D01*
X99171198Y-56990589D01*
X99147993Y-56999284D01*
X99147953Y-56999300D01*
X99072934Y-57029156D01*
X99003348Y-57057256D01*
X98995938Y-57060248D01*
X98986983Y-57060168D01*
X98982887Y-57057256D01*
X98571496Y-56603280D01*
X98568480Y-56594848D01*
X98572654Y-56586453D01*
X98915314Y-56299508D01*
X99042379Y-56193103D01*
X99050922Y-56190419D01*
X99055687Y-56191910D01*
G37*
%TD.AperFunction*%
%TD*%
%TA.AperFunction,Conductor*%
%TO.N,Net-(F1-Pad1)*%
G36*
X102149811Y-57580060D02*
G01*
X102161957Y-57591295D01*
X102172607Y-57601147D01*
X102172613Y-57601152D01*
X102172800Y-57601325D01*
X102202646Y-57624135D01*
X102231480Y-57641235D01*
X102259691Y-57653008D01*
X102260147Y-57653119D01*
X102260146Y-57653119D01*
X102287221Y-57659728D01*
X102287225Y-57659729D01*
X102287673Y-57659838D01*
X102315817Y-57662112D01*
X102321934Y-57661707D01*
X102344140Y-57660238D01*
X102344145Y-57660237D01*
X102344513Y-57660213D01*
X102344873Y-57660144D01*
X102344880Y-57660143D01*
X102360857Y-57657076D01*
X102374153Y-57654525D01*
X102389189Y-57650112D01*
X102404932Y-57645492D01*
X102404937Y-57645490D01*
X102405129Y-57645434D01*
X102416036Y-57641395D01*
X102430401Y-57636076D01*
X102439349Y-57636417D01*
X102443144Y-57639203D01*
X102574468Y-57784551D01*
X102690815Y-57913322D01*
X102693819Y-57921758D01*
X102689633Y-57930146D01*
X102515377Y-58075633D01*
X102406286Y-58166713D01*
X102397740Y-58169385D01*
X102392858Y-58167818D01*
X102341360Y-58137542D01*
X102341088Y-58137377D01*
X102290702Y-58105882D01*
X102290344Y-58105649D01*
X102246011Y-58075633D01*
X102245596Y-58075338D01*
X102205269Y-58045392D01*
X102204850Y-58045066D01*
X102166388Y-58013701D01*
X102166062Y-58013424D01*
X102146896Y-57996455D01*
X102127386Y-57979181D01*
X102127120Y-57978938D01*
X102105180Y-57958273D01*
X102086189Y-57940385D01*
X102086087Y-57940287D01*
X102040809Y-57895942D01*
X101989251Y-57844488D01*
X101937678Y-57792824D01*
X101934258Y-57784548D01*
X101937685Y-57776285D01*
X102133594Y-57580376D01*
X102141867Y-57576949D01*
X102149811Y-57580060D01*
G37*
%TD.AperFunction*%
%TD*%
%TA.AperFunction,Conductor*%
%TO.N,Net-(FB2-Pad1)*%
G36*
X103818431Y-61934886D02*
G01*
X103880471Y-61958902D01*
X103899008Y-61965167D01*
X103938526Y-61978522D01*
X103994985Y-61994165D01*
X104021524Y-61999768D01*
X104052088Y-62006220D01*
X104052095Y-62006221D01*
X104052236Y-62006251D01*
X104097183Y-62012906D01*
X104112526Y-62015178D01*
X104112532Y-62015179D01*
X104112669Y-62015199D01*
X104168442Y-62020463D01*
X104178545Y-62021416D01*
X104178549Y-62021416D01*
X104178673Y-62021428D01*
X104178776Y-62021433D01*
X104178783Y-62021434D01*
X104199079Y-62022513D01*
X104252637Y-62025359D01*
X104252658Y-62025360D01*
X104252668Y-62025360D01*
X104296980Y-62026437D01*
X104336949Y-62027409D01*
X104422371Y-62027929D01*
X104430623Y-62031406D01*
X104434000Y-62039629D01*
X104434000Y-62516394D01*
X104430573Y-62524667D01*
X104422395Y-62528094D01*
X104382984Y-62528414D01*
X104340690Y-62528758D01*
X104269037Y-62531027D01*
X104259557Y-62531327D01*
X104259554Y-62531327D01*
X104259464Y-62531330D01*
X104188136Y-62536157D01*
X104188010Y-62536172D01*
X104188009Y-62536172D01*
X104124688Y-62543664D01*
X104124672Y-62543666D01*
X104124515Y-62543685D01*
X104124359Y-62543714D01*
X104124350Y-62543715D01*
X104103234Y-62547594D01*
X104066416Y-62554356D01*
X104066240Y-62554402D01*
X104066230Y-62554404D01*
X104029461Y-62563976D01*
X104011650Y-62568613D01*
X104011474Y-62568673D01*
X104011464Y-62568676D01*
X103958204Y-62586841D01*
X103958196Y-62586844D01*
X103958029Y-62586901D01*
X103903366Y-62609662D01*
X103903251Y-62609717D01*
X103903242Y-62609721D01*
X103866680Y-62627200D01*
X103845472Y-62637339D01*
X103789293Y-62666656D01*
X103780374Y-62667445D01*
X103776133Y-62665050D01*
X103591018Y-62501435D01*
X103591017Y-62501435D01*
X103589275Y-62499895D01*
X103377733Y-62312924D01*
X103373804Y-62304878D01*
X103374575Y-62299925D01*
X103375329Y-62297983D01*
X103750017Y-61906054D01*
X103818431Y-61934886D01*
G37*
%TD.AperFunction*%
%TD*%
%TA.AperFunction,Conductor*%
%TO.N,Net-(FB2-Pad1)*%
G36*
X121312991Y-55754686D02*
G01*
X121316579Y-55763348D01*
X121261153Y-58598555D01*
X121257565Y-58606759D01*
X121252724Y-58609560D01*
X120804784Y-58739920D01*
X120803661Y-58740187D01*
X120665204Y-58765997D01*
X120394031Y-58816546D01*
X120393139Y-58816677D01*
X120167953Y-58840905D01*
X120019630Y-58856863D01*
X120019201Y-58856900D01*
X119672089Y-58880939D01*
X119341945Y-58908879D01*
X119191748Y-58933050D01*
X119019726Y-58960733D01*
X119019723Y-58960734D01*
X119019348Y-58960794D01*
X118694655Y-59056773D01*
X118694233Y-59056974D01*
X118694230Y-59056975D01*
X118358634Y-59216708D01*
X118358631Y-59216710D01*
X118358225Y-59216903D01*
X118000413Y-59461274D01*
X118000124Y-59461534D01*
X118000123Y-59461534D01*
X117619828Y-59802576D01*
X117611381Y-59805549D01*
X117603744Y-59802139D01*
X117265861Y-59464256D01*
X117262434Y-59455983D01*
X117265424Y-59448172D01*
X117606465Y-59067876D01*
X117606465Y-59067875D01*
X117606725Y-59067586D01*
X117851096Y-58709774D01*
X118011226Y-58373344D01*
X118107205Y-58048651D01*
X118159120Y-57726054D01*
X118187060Y-57395910D01*
X118211099Y-57048798D01*
X118211137Y-57048362D01*
X118251322Y-56674860D01*
X118251453Y-56673968D01*
X118327811Y-56264340D01*
X118328079Y-56263215D01*
X118458440Y-55815276D01*
X118464042Y-55808290D01*
X118469445Y-55806847D01*
X121304652Y-55751421D01*
X121312991Y-55754686D01*
G37*
%TD.AperFunction*%
%TD*%
%TA.AperFunction,Conductor*%
%TO.N,GND*%
G36*
X120445695Y-51246247D02*
G01*
X120457265Y-51248908D01*
X120457267Y-51248908D01*
X120462642Y-51250144D01*
X120474223Y-51247524D01*
X120487781Y-51246393D01*
X120599805Y-51252684D01*
X120773751Y-51262453D01*
X120779211Y-51263068D01*
X121083348Y-51314743D01*
X121088705Y-51315966D01*
X121385140Y-51401367D01*
X121390323Y-51403181D01*
X121675334Y-51521236D01*
X121680277Y-51523616D01*
X121774749Y-51575829D01*
X121950283Y-51672844D01*
X121954928Y-51675762D01*
X122206536Y-51854287D01*
X122210815Y-51857699D01*
X122259095Y-51900845D01*
X122440847Y-52063268D01*
X122444731Y-52067152D01*
X122597868Y-52238512D01*
X122650299Y-52297183D01*
X122653714Y-52301465D01*
X122832239Y-52553073D01*
X122835157Y-52557718D01*
X122902572Y-52679696D01*
X122982911Y-52825056D01*
X122984383Y-52827720D01*
X122986765Y-52832667D01*
X123098761Y-53103050D01*
X123104819Y-53117675D01*
X123106634Y-53122861D01*
X123192035Y-53419296D01*
X123193258Y-53424653D01*
X123244933Y-53728790D01*
X123245548Y-53734250D01*
X123253185Y-53870231D01*
X123260832Y-54006392D01*
X123261584Y-54019791D01*
X123260415Y-54033517D01*
X123257857Y-54044643D01*
X123260156Y-54054802D01*
X123261792Y-54062033D01*
X123263000Y-54072847D01*
X123263000Y-61016714D01*
X123261754Y-61027695D01*
X123257857Y-61044642D01*
X123260477Y-61056222D01*
X123261608Y-61069783D01*
X123245548Y-61355751D01*
X123244933Y-61361211D01*
X123193258Y-61665348D01*
X123192035Y-61670705D01*
X123106634Y-61967140D01*
X123104820Y-61972323D01*
X123036919Y-62136253D01*
X122986767Y-62257330D01*
X122984383Y-62262281D01*
X122835157Y-62532283D01*
X122832239Y-62536928D01*
X122653714Y-62788536D01*
X122650302Y-62792815D01*
X122468279Y-62996499D01*
X122444733Y-63022847D01*
X122440847Y-63026733D01*
X122210818Y-63232299D01*
X122206536Y-63235714D01*
X121954928Y-63414239D01*
X121950283Y-63417157D01*
X121815282Y-63491770D01*
X121680277Y-63566385D01*
X121675334Y-63568765D01*
X121390326Y-63686819D01*
X121385140Y-63688634D01*
X121088705Y-63774035D01*
X121083348Y-63775258D01*
X120779211Y-63826933D01*
X120773751Y-63827548D01*
X120561758Y-63839454D01*
X120488209Y-63843584D01*
X120474484Y-63842415D01*
X120470119Y-63841412D01*
X120468734Y-63841093D01*
X120468733Y-63841093D01*
X120463358Y-63839857D01*
X120446887Y-63843584D01*
X120445968Y-63843792D01*
X120435154Y-63845000D01*
X84491287Y-63845000D01*
X84480306Y-63843754D01*
X84468736Y-63841093D01*
X84468734Y-63841093D01*
X84463359Y-63839857D01*
X84452053Y-63842415D01*
X84451779Y-63842477D01*
X84438220Y-63843608D01*
X84326196Y-63837317D01*
X84152250Y-63827548D01*
X84146790Y-63826933D01*
X83842653Y-63775258D01*
X83837296Y-63774035D01*
X83540861Y-63688634D01*
X83535675Y-63686819D01*
X83250667Y-63568765D01*
X83245724Y-63566385D01*
X83110719Y-63491770D01*
X82975718Y-63417157D01*
X82971073Y-63414239D01*
X82719465Y-63235714D01*
X82715183Y-63232299D01*
X82485154Y-63026733D01*
X82481268Y-63022847D01*
X82457722Y-62996499D01*
X82275699Y-62792815D01*
X82272287Y-62788536D01*
X82180578Y-62659284D01*
X101356001Y-62659284D01*
X101356261Y-62662832D01*
X101366150Y-62730023D01*
X101368386Y-62737217D01*
X101419208Y-62840728D01*
X101423860Y-62847226D01*
X101505301Y-62928525D01*
X101511810Y-62933168D01*
X101615419Y-62983813D01*
X101622593Y-62986030D01*
X101689173Y-62995743D01*
X101692710Y-62996000D01*
X101821253Y-62996000D01*
X101828145Y-62993145D01*
X101831000Y-62986253D01*
X101831000Y-62986252D01*
X102131000Y-62986252D01*
X102133855Y-62993144D01*
X102140747Y-62995999D01*
X102269284Y-62995999D01*
X102272832Y-62995739D01*
X102340023Y-62985850D01*
X102347217Y-62983614D01*
X102450728Y-62932792D01*
X102457226Y-62928140D01*
X102538525Y-62846699D01*
X102543168Y-62840190D01*
X102593813Y-62736581D01*
X102596030Y-62729407D01*
X102605743Y-62662827D01*
X102606000Y-62659290D01*
X102606000Y-62455747D01*
X102603145Y-62448855D01*
X102596253Y-62446000D01*
X102140747Y-62446000D01*
X102133855Y-62448855D01*
X102131000Y-62455747D01*
X102131000Y-62986252D01*
X101831000Y-62986252D01*
X101831000Y-62455747D01*
X101828145Y-62448855D01*
X101821253Y-62446000D01*
X101365748Y-62446000D01*
X101358856Y-62448855D01*
X101356001Y-62455747D01*
X101356001Y-62659284D01*
X82180578Y-62659284D01*
X82093762Y-62536928D01*
X82090844Y-62532283D01*
X81941618Y-62262281D01*
X81939234Y-62257330D01*
X81889083Y-62136253D01*
X101356000Y-62136253D01*
X101358855Y-62143145D01*
X101365747Y-62146000D01*
X101821253Y-62146000D01*
X101828145Y-62143145D01*
X101831000Y-62136253D01*
X102131000Y-62136253D01*
X102133855Y-62143145D01*
X102140747Y-62146000D01*
X102596252Y-62146000D01*
X102603144Y-62143145D01*
X102605999Y-62136253D01*
X102605999Y-61932716D01*
X102605865Y-61930883D01*
X102955500Y-61930883D01*
X102955501Y-62661116D01*
X102955760Y-62662872D01*
X102955760Y-62662879D01*
X102962304Y-62707334D01*
X102966220Y-62733939D01*
X103020581Y-62844659D01*
X103107875Y-62931801D01*
X103111515Y-62933580D01*
X103111516Y-62933581D01*
X103215268Y-62984296D01*
X103218689Y-62985968D01*
X103290883Y-62996500D01*
X103580674Y-62996500D01*
X103871116Y-62996499D01*
X103872872Y-62996240D01*
X103872879Y-62996240D01*
X103922386Y-62988952D01*
X103943939Y-62985780D01*
X103947946Y-62983813D01*
X103994794Y-62960811D01*
X104054659Y-62931419D01*
X104141801Y-62844125D01*
X104182122Y-62761636D01*
X104210231Y-62736811D01*
X104222835Y-62734267D01*
X104268522Y-62731175D01*
X104270278Y-62731088D01*
X104270608Y-62731078D01*
X104275363Y-62730927D01*
X104275379Y-62730927D01*
X104312059Y-62729765D01*
X104344143Y-62728749D01*
X104345240Y-62728728D01*
X104372505Y-62728506D01*
X104372944Y-62728502D01*
X104373342Y-62728500D01*
X114760327Y-62728500D01*
X114766085Y-62728840D01*
X114804310Y-62733364D01*
X114863253Y-62722599D01*
X114864708Y-62722358D01*
X114923962Y-62713449D01*
X114927264Y-62711863D01*
X114930574Y-62710845D01*
X114933966Y-62709684D01*
X114937573Y-62709025D01*
X114990701Y-62681427D01*
X114992051Y-62680753D01*
X115012383Y-62670990D01*
X115042777Y-62656395D01*
X115042779Y-62656394D01*
X115046079Y-62654809D01*
X115048768Y-62652323D01*
X115051798Y-62650264D01*
X115051994Y-62650553D01*
X115053187Y-62649714D01*
X115052994Y-62649427D01*
X115055312Y-62647865D01*
X115057788Y-62646579D01*
X115059910Y-62644767D01*
X115062105Y-62642893D01*
X115062113Y-62642885D01*
X115062828Y-62642275D01*
X115101136Y-62603967D01*
X115102523Y-62602633D01*
X115142865Y-62565342D01*
X115142866Y-62565340D01*
X115145556Y-62562854D01*
X115147395Y-62559687D01*
X115149687Y-62556827D01*
X115149724Y-62556857D01*
X115154657Y-62550446D01*
X117755065Y-59950038D01*
X117756999Y-59948206D01*
X118074928Y-59663093D01*
X118121703Y-59621146D01*
X118126780Y-59617164D01*
X118134254Y-59612060D01*
X118305530Y-59495085D01*
X118455060Y-59392962D01*
X118461636Y-59389182D01*
X118762944Y-59245768D01*
X118770113Y-59243022D01*
X118777404Y-59240867D01*
X119060760Y-59157108D01*
X119066863Y-59155720D01*
X119223525Y-59130509D01*
X119281787Y-59121133D01*
X119364483Y-59107825D01*
X119368136Y-59107378D01*
X119463824Y-59099280D01*
X119687133Y-59080381D01*
X119687742Y-59080334D01*
X120033019Y-59056422D01*
X120036387Y-59056160D01*
X120036464Y-59056153D01*
X120036481Y-59056152D01*
X120036688Y-59056134D01*
X120036683Y-59056134D01*
X120036816Y-59056123D01*
X120039007Y-59055911D01*
X120040874Y-59055730D01*
X120040925Y-59055725D01*
X120041025Y-59055715D01*
X120189348Y-59039757D01*
X120414534Y-59015529D01*
X120417163Y-59015195D01*
X120421951Y-59014586D01*
X120422000Y-59014579D01*
X120422199Y-59014554D01*
X120422380Y-59014527D01*
X120422427Y-59014521D01*
X120422738Y-59014475D01*
X120423091Y-59014423D01*
X120430682Y-59013159D01*
X120701855Y-58962610D01*
X120840312Y-58936800D01*
X120849923Y-58934763D01*
X120850470Y-58934633D01*
X120850702Y-58934578D01*
X120850717Y-58934574D01*
X120851046Y-58934496D01*
X120860670Y-58931953D01*
X120956262Y-58904134D01*
X121069507Y-58871178D01*
X121071013Y-58870765D01*
X121280782Y-58816905D01*
X121282262Y-58816525D01*
X121311604Y-58804908D01*
X121384806Y-58775925D01*
X121563104Y-58705332D01*
X121827795Y-58559816D01*
X122072162Y-58382274D01*
X122225425Y-58238350D01*
X122291228Y-58176557D01*
X122291230Y-58176554D01*
X122292349Y-58175504D01*
X122484885Y-57942768D01*
X122584307Y-57786104D01*
X122645905Y-57689041D01*
X122645906Y-57689039D01*
X122646733Y-57687736D01*
X122669477Y-57639402D01*
X122774691Y-57415812D01*
X122774693Y-57415808D01*
X122775341Y-57414430D01*
X122868681Y-57127160D01*
X122925280Y-56830457D01*
X122944246Y-56529000D01*
X122925280Y-56227543D01*
X122868681Y-55930840D01*
X122775341Y-55643570D01*
X122771873Y-55636199D01*
X122647389Y-55371658D01*
X122646733Y-55370264D01*
X122644209Y-55366286D01*
X122485715Y-55116540D01*
X122484885Y-55115232D01*
X122477432Y-55106222D01*
X122410985Y-55025902D01*
X122292349Y-54882496D01*
X122282657Y-54873394D01*
X122143341Y-54742568D01*
X122072162Y-54675726D01*
X121875389Y-54532763D01*
X121829045Y-54499092D01*
X121829043Y-54499091D01*
X121827795Y-54498184D01*
X121563104Y-54352668D01*
X121360559Y-54272475D01*
X121283687Y-54242039D01*
X121283684Y-54242038D01*
X121282262Y-54241475D01*
X120989698Y-54166358D01*
X120988181Y-54166166D01*
X120988179Y-54166166D01*
X120919502Y-54157490D01*
X120690027Y-54128500D01*
X120387973Y-54128500D01*
X120158498Y-54157490D01*
X120089821Y-54166166D01*
X120089819Y-54166166D01*
X120088302Y-54166358D01*
X119795738Y-54241475D01*
X119794316Y-54242038D01*
X119794313Y-54242039D01*
X119717441Y-54272475D01*
X119514896Y-54352668D01*
X119250205Y-54498184D01*
X119248957Y-54499091D01*
X119248955Y-54499092D01*
X119202611Y-54532763D01*
X119005838Y-54675726D01*
X118934659Y-54742568D01*
X118795344Y-54873394D01*
X118785651Y-54882496D01*
X118667015Y-55025902D01*
X118600569Y-55106222D01*
X118593115Y-55115232D01*
X118592285Y-55116540D01*
X118433792Y-55366286D01*
X118431267Y-55370264D01*
X118430611Y-55371658D01*
X118306128Y-55636199D01*
X118302659Y-55643570D01*
X118209319Y-55930840D01*
X118209031Y-55932351D01*
X118209030Y-55932354D01*
X118203385Y-55961949D01*
X118196423Y-55998447D01*
X118196071Y-56000290D01*
X118194988Y-56004796D01*
X118136046Y-56207329D01*
X118133523Y-56216868D01*
X118133455Y-56217152D01*
X118133445Y-56217193D01*
X118133337Y-56217648D01*
X118133255Y-56217993D01*
X118133180Y-56218346D01*
X118133179Y-56218351D01*
X118131551Y-56226028D01*
X118131198Y-56227690D01*
X118054840Y-56637318D01*
X118053576Y-56644908D01*
X118053445Y-56645800D01*
X118053416Y-56646025D01*
X118053411Y-56646064D01*
X118052530Y-56652991D01*
X118052470Y-56653466D01*
X118052446Y-56653689D01*
X118052444Y-56653706D01*
X118013070Y-57019674D01*
X118012285Y-57026968D01*
X118011892Y-57030997D01*
X118011854Y-57031433D01*
X118011577Y-57034980D01*
X117987665Y-57380257D01*
X117987618Y-57380866D01*
X117974713Y-57533351D01*
X117960621Y-57699863D01*
X117960174Y-57703516D01*
X117912279Y-58001136D01*
X117910891Y-58007240D01*
X117856442Y-58191441D01*
X117824977Y-58297884D01*
X117822231Y-58305053D01*
X117678816Y-58606364D01*
X117675036Y-58612940D01*
X117535996Y-58816525D01*
X117453854Y-58936800D01*
X117450835Y-58941220D01*
X117446853Y-58946297D01*
X117194447Y-59227755D01*
X117119793Y-59311002D01*
X117117961Y-59312936D01*
X114617749Y-61813148D01*
X114583101Y-61827500D01*
X104352624Y-61827500D01*
X104352326Y-61827499D01*
X104352168Y-61827498D01*
X104340479Y-61827427D01*
X104339605Y-61827414D01*
X104321466Y-61826973D01*
X104301846Y-61826496D01*
X104301840Y-61826496D01*
X104261046Y-61825504D01*
X104259675Y-61825451D01*
X104216923Y-61823179D01*
X104209698Y-61822795D01*
X104209697Y-61822795D01*
X104207087Y-61822656D01*
X104206333Y-61822616D01*
X104172498Y-61806440D01*
X104164956Y-61795280D01*
X104143203Y-61750975D01*
X104141419Y-61747341D01*
X104054125Y-61660199D01*
X104053953Y-61660115D01*
X104034957Y-61629716D01*
X104034382Y-61624706D01*
X104033986Y-61618414D01*
X104033910Y-61616779D01*
X104031704Y-61541886D01*
X104031684Y-61540813D01*
X104031501Y-61516581D01*
X104031500Y-61516211D01*
X104031500Y-61129748D01*
X107638500Y-61129748D01*
X107650133Y-61188231D01*
X107694448Y-61254552D01*
X107760769Y-61298867D01*
X107819252Y-61310500D01*
X109058748Y-61310500D01*
X109117231Y-61298867D01*
X109183552Y-61254552D01*
X109227867Y-61188231D01*
X109239500Y-61129748D01*
X113238500Y-61129748D01*
X113250133Y-61188231D01*
X113294448Y-61254552D01*
X113360769Y-61298867D01*
X113419252Y-61310500D01*
X114658748Y-61310500D01*
X114717231Y-61298867D01*
X114783552Y-61254552D01*
X114827867Y-61188231D01*
X114839500Y-61129748D01*
X114839500Y-59290252D01*
X114827867Y-59231769D01*
X114783552Y-59165448D01*
X114717231Y-59121133D01*
X114658748Y-59109500D01*
X113419252Y-59109500D01*
X113360769Y-59121133D01*
X113294448Y-59165448D01*
X113250133Y-59231769D01*
X113238500Y-59290252D01*
X113238500Y-61129748D01*
X109239500Y-61129748D01*
X109239500Y-59290252D01*
X109227867Y-59231769D01*
X109183552Y-59165448D01*
X109117231Y-59121133D01*
X109058748Y-59109500D01*
X107819252Y-59109500D01*
X107760769Y-59121133D01*
X107694448Y-59165448D01*
X107650133Y-59231769D01*
X107638500Y-59290252D01*
X107638500Y-61129748D01*
X104031500Y-61129748D01*
X104031500Y-60356899D01*
X104045852Y-60322251D01*
X104181234Y-60186869D01*
X104215882Y-60172517D01*
X104245233Y-60182281D01*
X104246310Y-60183087D01*
X104248372Y-60185040D01*
X104250829Y-60186467D01*
X104397237Y-60271508D01*
X104397242Y-60271510D01*
X104399702Y-60272939D01*
X104402431Y-60273765D01*
X104402432Y-60273766D01*
X104564468Y-60322842D01*
X104564471Y-60322842D01*
X104567193Y-60323667D01*
X104654528Y-60329085D01*
X104739022Y-60334327D01*
X104739024Y-60334327D01*
X104741862Y-60334503D01*
X104914340Y-60304866D01*
X104916960Y-60303751D01*
X104916964Y-60303750D01*
X105044327Y-60249556D01*
X105675001Y-60249556D01*
X105675302Y-60253379D01*
X105689232Y-60341342D01*
X105691585Y-60348582D01*
X105745609Y-60454611D01*
X105750085Y-60460771D01*
X105834229Y-60544915D01*
X105840389Y-60549391D01*
X105946418Y-60603415D01*
X105953658Y-60605768D01*
X106041621Y-60619699D01*
X106045443Y-60620000D01*
X106190253Y-60620000D01*
X106197145Y-60617145D01*
X106200000Y-60610253D01*
X106200000Y-60610252D01*
X106500000Y-60610252D01*
X106502855Y-60617144D01*
X106509747Y-60619999D01*
X106654556Y-60619999D01*
X106658379Y-60619698D01*
X106746342Y-60605768D01*
X106753582Y-60603415D01*
X106859611Y-60549391D01*
X106865771Y-60544915D01*
X106949915Y-60460771D01*
X106954391Y-60454611D01*
X107008415Y-60348582D01*
X107010768Y-60341342D01*
X107024699Y-60253379D01*
X107025000Y-60249557D01*
X107025000Y-60179747D01*
X107022145Y-60172855D01*
X107015253Y-60170000D01*
X106509747Y-60170000D01*
X106502855Y-60172855D01*
X106500000Y-60179747D01*
X106500000Y-60610252D01*
X106200000Y-60610252D01*
X106200000Y-60179747D01*
X106197145Y-60172855D01*
X106190253Y-60170000D01*
X105684748Y-60170000D01*
X105677856Y-60172855D01*
X105675001Y-60179747D01*
X105675001Y-60249556D01*
X105044327Y-60249556D01*
X105072750Y-60237462D01*
X105072749Y-60237462D01*
X105075373Y-60236346D01*
X105216324Y-60132617D01*
X105250840Y-60091990D01*
X105327791Y-60001412D01*
X105329632Y-59999245D01*
X105409219Y-59843384D01*
X105422173Y-59790444D01*
X105450297Y-59675513D01*
X105450298Y-59675507D01*
X105450815Y-59673394D01*
X105451500Y-59662352D01*
X105451500Y-58436178D01*
X105436343Y-58306172D01*
X105380920Y-58153486D01*
X105377601Y-58144341D01*
X105377601Y-58144340D01*
X105376631Y-58141669D01*
X105374541Y-58138481D01*
X105674500Y-58138481D01*
X105674501Y-58601518D01*
X105675424Y-58607343D01*
X105684349Y-58663698D01*
X105689354Y-58695304D01*
X105746950Y-58808342D01*
X105836658Y-58898050D01*
X105840091Y-58899799D01*
X105840092Y-58899800D01*
X105865989Y-58912995D01*
X105890345Y-58941512D01*
X105888097Y-58977479D01*
X105878931Y-58997001D01*
X105878930Y-58997004D01*
X105877447Y-59000163D01*
X105876910Y-59003610D01*
X105876910Y-59003611D01*
X105855927Y-59138377D01*
X105855927Y-59138381D01*
X105855391Y-59141823D01*
X105855843Y-59145280D01*
X105855843Y-59145283D01*
X105873527Y-59280517D01*
X105873980Y-59283979D01*
X105920990Y-59390817D01*
X105923451Y-59396410D01*
X105924269Y-59433904D01*
X105900847Y-59459804D01*
X105840389Y-59490609D01*
X105834229Y-59495085D01*
X105750085Y-59579229D01*
X105745609Y-59585389D01*
X105691585Y-59691418D01*
X105689232Y-59698658D01*
X105675301Y-59786621D01*
X105675000Y-59790443D01*
X105675000Y-59860253D01*
X105677855Y-59867145D01*
X105684747Y-59870000D01*
X107015252Y-59870000D01*
X107022144Y-59867145D01*
X107024999Y-59860253D01*
X107024999Y-59790444D01*
X107024698Y-59786621D01*
X107010768Y-59698658D01*
X107008415Y-59691418D01*
X106954391Y-59585389D01*
X106949915Y-59579229D01*
X106865771Y-59495085D01*
X106859611Y-59490609D01*
X106815456Y-59468111D01*
X106791100Y-59439594D01*
X106793605Y-59403087D01*
X106837282Y-59312936D01*
X106842710Y-59301733D01*
X106844237Y-59292662D01*
X106866183Y-59162216D01*
X106866183Y-59162213D01*
X106866496Y-59160354D01*
X106866647Y-59148000D01*
X106846323Y-59006082D01*
X106833318Y-58977479D01*
X106829042Y-58968074D01*
X106827766Y-58930593D01*
X106851402Y-58904134D01*
X106859907Y-58899800D01*
X106863342Y-58898050D01*
X106953050Y-58808342D01*
X107010646Y-58695304D01*
X107025500Y-58601519D01*
X107025499Y-58138482D01*
X107010646Y-58044696D01*
X106958711Y-57942768D01*
X106954800Y-57935092D01*
X106954799Y-57935091D01*
X106953050Y-57931658D01*
X106863342Y-57841950D01*
X106859909Y-57840201D01*
X106859908Y-57840200D01*
X106795628Y-57807448D01*
X106750304Y-57784354D01*
X106746499Y-57783751D01*
X106746498Y-57783751D01*
X106717316Y-57779129D01*
X106656519Y-57769500D01*
X106654595Y-57769500D01*
X106350001Y-57769501D01*
X106043482Y-57769501D01*
X105996304Y-57776973D01*
X105953502Y-57783751D01*
X105953501Y-57783751D01*
X105949696Y-57784354D01*
X105904372Y-57807448D01*
X105840092Y-57840200D01*
X105840091Y-57840201D01*
X105836658Y-57841950D01*
X105746950Y-57931658D01*
X105745201Y-57935091D01*
X105745200Y-57935092D01*
X105741289Y-57942768D01*
X105689354Y-58044696D01*
X105688751Y-58048501D01*
X105688751Y-58048502D01*
X105686594Y-58062124D01*
X105674500Y-58138481D01*
X105374541Y-58138481D01*
X105373960Y-58137594D01*
X105328792Y-58068702D01*
X105280677Y-57995315D01*
X105153628Y-57874960D01*
X105093784Y-57840200D01*
X105004763Y-57788492D01*
X105004758Y-57788490D01*
X105002298Y-57787061D01*
X104999569Y-57786235D01*
X104999568Y-57786234D01*
X104837532Y-57737158D01*
X104837529Y-57737158D01*
X104834807Y-57736333D01*
X104745006Y-57730762D01*
X104662978Y-57725673D01*
X104662976Y-57725673D01*
X104660138Y-57725497D01*
X104487660Y-57755134D01*
X104485040Y-57756249D01*
X104485036Y-57756250D01*
X104412626Y-57787061D01*
X104326627Y-57823654D01*
X104185676Y-57927383D01*
X104183834Y-57929551D01*
X104183832Y-57929553D01*
X104086011Y-58044696D01*
X104072368Y-58060755D01*
X103992781Y-58216616D01*
X103992104Y-58219383D01*
X103951703Y-58384487D01*
X103951702Y-58384493D01*
X103951185Y-58386606D01*
X103950500Y-58397648D01*
X103950500Y-58902067D01*
X103948116Y-58917165D01*
X103939461Y-58943889D01*
X103931401Y-58968773D01*
X103922029Y-58997001D01*
X103907267Y-59041461D01*
X103906762Y-59042906D01*
X103884335Y-59104002D01*
X103883319Y-59106546D01*
X103861853Y-59156218D01*
X103860452Y-59159459D01*
X103858873Y-59162768D01*
X103843256Y-59192541D01*
X103832804Y-59212467D01*
X103830773Y-59215978D01*
X103797905Y-59267724D01*
X103795713Y-59270892D01*
X103751865Y-59329233D01*
X103749811Y-59331784D01*
X103691078Y-59399925D01*
X103689340Y-59401837D01*
X103627163Y-59466719D01*
X103626433Y-59467464D01*
X103283435Y-59810462D01*
X103279123Y-59814294D01*
X103248890Y-59838128D01*
X103246807Y-59841142D01*
X103246805Y-59841144D01*
X103214840Y-59887393D01*
X103213945Y-59888646D01*
X103178366Y-59936816D01*
X103177153Y-59940271D01*
X103175511Y-59943372D01*
X103173950Y-59946559D01*
X103171869Y-59949569D01*
X103170765Y-59953060D01*
X103170764Y-59953062D01*
X103153811Y-60006667D01*
X103153338Y-60008085D01*
X103133481Y-60064631D01*
X103133337Y-60068291D01*
X103132651Y-60071890D01*
X103132312Y-60071825D01*
X103132062Y-60073260D01*
X103132397Y-60073325D01*
X103131863Y-60076065D01*
X103131020Y-60078730D01*
X103130500Y-60085337D01*
X103130500Y-60139537D01*
X103130462Y-60141461D01*
X103128162Y-60199994D01*
X103129102Y-60203537D01*
X103129503Y-60207174D01*
X103129456Y-60207179D01*
X103130500Y-60215196D01*
X103130500Y-61516079D01*
X103130499Y-61516449D01*
X103130315Y-61540813D01*
X103130295Y-61541886D01*
X103128089Y-61616779D01*
X103128013Y-61618412D01*
X103127617Y-61624707D01*
X103111119Y-61658386D01*
X103110002Y-61659274D01*
X103107341Y-61660581D01*
X103020199Y-61747875D01*
X103018420Y-61751515D01*
X103018419Y-61751516D01*
X102981313Y-61827427D01*
X102966032Y-61858689D01*
X102955500Y-61930883D01*
X102605865Y-61930883D01*
X102605739Y-61929168D01*
X102595850Y-61861977D01*
X102593614Y-61854783D01*
X102542792Y-61751272D01*
X102538140Y-61744774D01*
X102456699Y-61663475D01*
X102450190Y-61658832D01*
X102346581Y-61608187D01*
X102339407Y-61605970D01*
X102272827Y-61596257D01*
X102269290Y-61596000D01*
X102140747Y-61596000D01*
X102133855Y-61598855D01*
X102131000Y-61605747D01*
X102131000Y-62136253D01*
X101831000Y-62136253D01*
X101831000Y-61605748D01*
X101828145Y-61598856D01*
X101821253Y-61596001D01*
X101692716Y-61596001D01*
X101689168Y-61596261D01*
X101621977Y-61606150D01*
X101614783Y-61608386D01*
X101511272Y-61659208D01*
X101504774Y-61663860D01*
X101423475Y-61745301D01*
X101418832Y-61751810D01*
X101368187Y-61855419D01*
X101365970Y-61862593D01*
X101356257Y-61929173D01*
X101356000Y-61932710D01*
X101356000Y-62136253D01*
X81889083Y-62136253D01*
X81821181Y-61972323D01*
X81819367Y-61967140D01*
X81791178Y-61869295D01*
X97604000Y-61869295D01*
X97604468Y-61874052D01*
X97614663Y-61925303D01*
X97618285Y-61934049D01*
X97657128Y-61992181D01*
X97663819Y-61998872D01*
X97721951Y-62037715D01*
X97730697Y-62041337D01*
X97781948Y-62051532D01*
X97786705Y-62052000D01*
X98194253Y-62052000D01*
X98201145Y-62049145D01*
X98204000Y-62042253D01*
X98504000Y-62042253D01*
X98506855Y-62049145D01*
X98513747Y-62052000D01*
X98921295Y-62052000D01*
X98926052Y-62051532D01*
X98977303Y-62041337D01*
X98986049Y-62037715D01*
X99044181Y-61998872D01*
X99050872Y-61992181D01*
X99089715Y-61934049D01*
X99093337Y-61925303D01*
X99103532Y-61874052D01*
X99104000Y-61869295D01*
X99104000Y-61461747D01*
X99101145Y-61454855D01*
X99094253Y-61452000D01*
X98513747Y-61452000D01*
X98506855Y-61454855D01*
X98504000Y-61461747D01*
X98504000Y-62042253D01*
X98204000Y-62042253D01*
X98204000Y-61461747D01*
X98201145Y-61454855D01*
X98194253Y-61452000D01*
X97613747Y-61452000D01*
X97606855Y-61454855D01*
X97604000Y-61461747D01*
X97604000Y-61869295D01*
X81791178Y-61869295D01*
X81733966Y-61670705D01*
X81732743Y-61665348D01*
X81681068Y-61361211D01*
X81680453Y-61355751D01*
X81668463Y-61142253D01*
X97604000Y-61142253D01*
X97606855Y-61149145D01*
X97613747Y-61152000D01*
X98194253Y-61152000D01*
X98201145Y-61149145D01*
X98204000Y-61142253D01*
X98504000Y-61142253D01*
X98506855Y-61149145D01*
X98513747Y-61152000D01*
X99094253Y-61152000D01*
X99101145Y-61149145D01*
X99104000Y-61142253D01*
X99104000Y-60734705D01*
X99103532Y-60729948D01*
X99093337Y-60678697D01*
X99089715Y-60669951D01*
X99050872Y-60611819D01*
X99044181Y-60605128D01*
X98986049Y-60566285D01*
X98977303Y-60562663D01*
X98926052Y-60552468D01*
X98921295Y-60552000D01*
X98513747Y-60552000D01*
X98506855Y-60554855D01*
X98504000Y-60561747D01*
X98504000Y-61142253D01*
X98204000Y-61142253D01*
X98204000Y-60561747D01*
X98201145Y-60554855D01*
X98194253Y-60552000D01*
X97786705Y-60552000D01*
X97781948Y-60552468D01*
X97730697Y-60562663D01*
X97721951Y-60566285D01*
X97663819Y-60605128D01*
X97657128Y-60611819D01*
X97618285Y-60669951D01*
X97614663Y-60678697D01*
X97604468Y-60729948D01*
X97604000Y-60734705D01*
X97604000Y-61142253D01*
X81668463Y-61142253D01*
X81664417Y-61070210D01*
X81665586Y-61056481D01*
X81666908Y-61050734D01*
X81666908Y-61050733D01*
X81668144Y-61045358D01*
X81664209Y-61027967D01*
X81663001Y-61017154D01*
X81663001Y-60343461D01*
X102086734Y-60343461D01*
X102096514Y-60481590D01*
X102097835Y-60485004D01*
X102127525Y-60561747D01*
X102146477Y-60610736D01*
X102232205Y-60719482D01*
X102346119Y-60798213D01*
X102426168Y-60823529D01*
X102475485Y-60839126D01*
X102475487Y-60839126D01*
X102478148Y-60839968D01*
X102484907Y-60840500D01*
X102585601Y-60840500D01*
X102637305Y-60832727D01*
X102684312Y-60825660D01*
X102684314Y-60825659D01*
X102687935Y-60825115D01*
X102750349Y-60795144D01*
X102809461Y-60766759D01*
X102809463Y-60766758D01*
X102812763Y-60765173D01*
X102815451Y-60762689D01*
X102815453Y-60762687D01*
X102865300Y-60716609D01*
X102914448Y-60671177D01*
X102944350Y-60619698D01*
X102982159Y-60554604D01*
X102982159Y-60554603D01*
X102983999Y-60551436D01*
X103015266Y-60416539D01*
X103005486Y-60278410D01*
X102963545Y-60170000D01*
X102956844Y-60152678D01*
X102956843Y-60152677D01*
X102955523Y-60149264D01*
X102869795Y-60040518D01*
X102755881Y-59961787D01*
X102669094Y-59934340D01*
X102626515Y-59920874D01*
X102626513Y-59920874D01*
X102623852Y-59920032D01*
X102617093Y-59919500D01*
X102516399Y-59919500D01*
X102464695Y-59927273D01*
X102417688Y-59934340D01*
X102417686Y-59934341D01*
X102414065Y-59934885D01*
X102376212Y-59953062D01*
X102292539Y-59993241D01*
X102292537Y-59993242D01*
X102289237Y-59994827D01*
X102286549Y-59997311D01*
X102286547Y-59997313D01*
X102242060Y-60038437D01*
X102187552Y-60088823D01*
X102185714Y-60091988D01*
X102185712Y-60091990D01*
X102138939Y-60172517D01*
X102118001Y-60208564D01*
X102117174Y-60212132D01*
X102088324Y-60336603D01*
X102086734Y-60343461D01*
X81663001Y-60343461D01*
X81663001Y-59623822D01*
X99650500Y-59623822D01*
X99665657Y-59753828D01*
X99725369Y-59918331D01*
X99726928Y-59920708D01*
X99726929Y-59920711D01*
X99753860Y-59961787D01*
X99821323Y-60064685D01*
X99823390Y-60066643D01*
X99945460Y-60182281D01*
X99948372Y-60185040D01*
X99950834Y-60186470D01*
X100097237Y-60271508D01*
X100097242Y-60271510D01*
X100099702Y-60272939D01*
X100102431Y-60273765D01*
X100102432Y-60273766D01*
X100264468Y-60322842D01*
X100264471Y-60322842D01*
X100267193Y-60323667D01*
X100354528Y-60329085D01*
X100439022Y-60334327D01*
X100439024Y-60334327D01*
X100441862Y-60334503D01*
X100614340Y-60304866D01*
X100616960Y-60303751D01*
X100616964Y-60303750D01*
X100772750Y-60237462D01*
X100772749Y-60237462D01*
X100775373Y-60236346D01*
X100916324Y-60132617D01*
X100950840Y-60091990D01*
X101027791Y-60001412D01*
X101029632Y-59999245D01*
X101109219Y-59843384D01*
X101122173Y-59790444D01*
X101150297Y-59675513D01*
X101150298Y-59675507D01*
X101150815Y-59673394D01*
X101151500Y-59662352D01*
X101151500Y-58436178D01*
X101136343Y-58306172D01*
X101080920Y-58153486D01*
X101077601Y-58144341D01*
X101077601Y-58144340D01*
X101076631Y-58141669D01*
X101073960Y-58137594D01*
X101028792Y-58068702D01*
X100980677Y-57995315D01*
X100853628Y-57874960D01*
X100793784Y-57840200D01*
X100704763Y-57788492D01*
X100704758Y-57788490D01*
X100702298Y-57787061D01*
X100699569Y-57786235D01*
X100699568Y-57786234D01*
X100537532Y-57737158D01*
X100537529Y-57737158D01*
X100534807Y-57736333D01*
X100445006Y-57730762D01*
X100362978Y-57725673D01*
X100362976Y-57725673D01*
X100360138Y-57725497D01*
X100187660Y-57755134D01*
X100185040Y-57756249D01*
X100185036Y-57756250D01*
X100112626Y-57787061D01*
X100026627Y-57823654D01*
X99885676Y-57927383D01*
X99883834Y-57929551D01*
X99883832Y-57929553D01*
X99786011Y-58044696D01*
X99772368Y-58060755D01*
X99692781Y-58216616D01*
X99692104Y-58219383D01*
X99651703Y-58384487D01*
X99651702Y-58384493D01*
X99651185Y-58386606D01*
X99650500Y-58397648D01*
X99650500Y-59623822D01*
X81663001Y-59623822D01*
X81663001Y-56560000D01*
X82102754Y-56560000D01*
X82121720Y-56861457D01*
X82178319Y-57158160D01*
X82271659Y-57445430D01*
X82272307Y-57446808D01*
X82272309Y-57446812D01*
X82388447Y-57693618D01*
X82400267Y-57718736D01*
X82401094Y-57720039D01*
X82401095Y-57720041D01*
X82422425Y-57753651D01*
X82562115Y-57973768D01*
X82754651Y-58206504D01*
X82755770Y-58207554D01*
X82755772Y-58207557D01*
X82789067Y-58238823D01*
X82974838Y-58413274D01*
X83219205Y-58590816D01*
X83220556Y-58591559D01*
X83220558Y-58591560D01*
X83259448Y-58612940D01*
X83483896Y-58736332D01*
X83657100Y-58804908D01*
X83687401Y-58816905D01*
X83764738Y-58847525D01*
X84057302Y-58922642D01*
X84058819Y-58922834D01*
X84058821Y-58922834D01*
X84079220Y-58925411D01*
X84356973Y-58960500D01*
X84659027Y-58960500D01*
X84936780Y-58925411D01*
X84957179Y-58922834D01*
X84957181Y-58922834D01*
X84958698Y-58922642D01*
X85251262Y-58847525D01*
X85328600Y-58816905D01*
X85358900Y-58804908D01*
X85532104Y-58736332D01*
X85756552Y-58612940D01*
X85795442Y-58591560D01*
X85795444Y-58591559D01*
X85796795Y-58590816D01*
X86041162Y-58413274D01*
X86193173Y-58270526D01*
X94732001Y-58270526D01*
X94732302Y-58274349D01*
X94747159Y-58368163D01*
X94749512Y-58375403D01*
X94807132Y-58488489D01*
X94811608Y-58494649D01*
X94901351Y-58584392D01*
X94907511Y-58588868D01*
X95020597Y-58646488D01*
X95027837Y-58648841D01*
X95121651Y-58663699D01*
X95125473Y-58664000D01*
X95247253Y-58664000D01*
X95254145Y-58661145D01*
X95257000Y-58654253D01*
X95257000Y-58654252D01*
X95557000Y-58654252D01*
X95559855Y-58661144D01*
X95566747Y-58663999D01*
X95688526Y-58663999D01*
X95692349Y-58663698D01*
X95786163Y-58648841D01*
X95793403Y-58646488D01*
X95906489Y-58588868D01*
X95912649Y-58584392D01*
X96002392Y-58494649D01*
X96006868Y-58488489D01*
X96064488Y-58375403D01*
X96066841Y-58368163D01*
X96081699Y-58274349D01*
X96082000Y-58270527D01*
X96082000Y-58173747D01*
X96079145Y-58166855D01*
X96072253Y-58164000D01*
X95566747Y-58164000D01*
X95559855Y-58166855D01*
X95557000Y-58173747D01*
X95557000Y-58654252D01*
X95257000Y-58654252D01*
X95257000Y-58173747D01*
X95254145Y-58166855D01*
X95247253Y-58164000D01*
X94741748Y-58164000D01*
X94734856Y-58166855D01*
X94732001Y-58173747D01*
X94732001Y-58270526D01*
X86193173Y-58270526D01*
X86226933Y-58238823D01*
X86260228Y-58207557D01*
X86260230Y-58207554D01*
X86261349Y-58206504D01*
X86453885Y-57973768D01*
X86529731Y-57854253D01*
X94732000Y-57854253D01*
X94734855Y-57861145D01*
X94741747Y-57864000D01*
X95247253Y-57864000D01*
X95254145Y-57861145D01*
X95257000Y-57854253D01*
X95557000Y-57854253D01*
X95559855Y-57861145D01*
X95566747Y-57864000D01*
X96072252Y-57864000D01*
X96079144Y-57861145D01*
X96081999Y-57854253D01*
X96081999Y-57757474D01*
X96081698Y-57753651D01*
X96066841Y-57659837D01*
X96064488Y-57652597D01*
X96006868Y-57539511D01*
X96002392Y-57533351D01*
X95912649Y-57443608D01*
X95906489Y-57439132D01*
X95793403Y-57381512D01*
X95786163Y-57379159D01*
X95692349Y-57364301D01*
X95688527Y-57364000D01*
X95566747Y-57364000D01*
X95559855Y-57366855D01*
X95557000Y-57373747D01*
X95557000Y-57854253D01*
X95257000Y-57854253D01*
X95257000Y-57373748D01*
X95254145Y-57366856D01*
X95247253Y-57364001D01*
X95125474Y-57364001D01*
X95121651Y-57364302D01*
X95027837Y-57379159D01*
X95020597Y-57381512D01*
X94907511Y-57439132D01*
X94901351Y-57443608D01*
X94811608Y-57533351D01*
X94807132Y-57539511D01*
X94749512Y-57652597D01*
X94747159Y-57659837D01*
X94732301Y-57753651D01*
X94732000Y-57757473D01*
X94732000Y-57854253D01*
X86529731Y-57854253D01*
X86593575Y-57753651D01*
X86614905Y-57720041D01*
X86614906Y-57720039D01*
X86615733Y-57718736D01*
X86627553Y-57693618D01*
X86743691Y-57446812D01*
X86743693Y-57446808D01*
X86744341Y-57445430D01*
X86837681Y-57158160D01*
X86894280Y-56861457D01*
X86913246Y-56560000D01*
X86907411Y-56467247D01*
X86903763Y-56409271D01*
X86897699Y-56312883D01*
X93168500Y-56312883D01*
X93168501Y-56893116D01*
X93168760Y-56894872D01*
X93168760Y-56894879D01*
X93175729Y-56942220D01*
X93179220Y-56965939D01*
X93233581Y-57076659D01*
X93320875Y-57163801D01*
X93324515Y-57165580D01*
X93324516Y-57165581D01*
X93428268Y-57216296D01*
X93431689Y-57217968D01*
X93503883Y-57228500D01*
X93868590Y-57228500D01*
X94234116Y-57228499D01*
X94235872Y-57228240D01*
X94235879Y-57228240D01*
X94298487Y-57219024D01*
X94306939Y-57217780D01*
X94317659Y-57212517D01*
X94370724Y-57186463D01*
X94417659Y-57163419D01*
X94504801Y-57076125D01*
X94504887Y-57075950D01*
X94535291Y-57056956D01*
X94540291Y-57056382D01*
X94546620Y-57055984D01*
X94548192Y-57055911D01*
X94601205Y-57054350D01*
X94601228Y-57054350D01*
X94623116Y-57053704D01*
X94624190Y-57053684D01*
X94644046Y-57053534D01*
X94644049Y-57053534D01*
X94647192Y-57053510D01*
X94648218Y-57053513D01*
X94690994Y-57054082D01*
X94735730Y-57054676D01*
X94736345Y-57054689D01*
X94761570Y-57055368D01*
X94793526Y-57056228D01*
X94793537Y-57056228D01*
X94798907Y-57056372D01*
X94818138Y-57056890D01*
X94819002Y-57056921D01*
X94874589Y-57059399D01*
X94890563Y-57060111D01*
X94891555Y-57060165D01*
X94918692Y-57061945D01*
X94927671Y-57062534D01*
X94927674Y-57062534D01*
X94927680Y-57062535D01*
X94927707Y-57062537D01*
X94927710Y-57062537D01*
X94946518Y-57063770D01*
X94965557Y-57069006D01*
X95020437Y-57096968D01*
X95023874Y-57098719D01*
X95027679Y-57099322D01*
X95027680Y-57099322D01*
X95047746Y-57102500D01*
X95123512Y-57114500D01*
X95690488Y-57114500D01*
X95766254Y-57102500D01*
X95786320Y-57099322D01*
X95786321Y-57099322D01*
X95790126Y-57098719D01*
X95862299Y-57061945D01*
X95906786Y-57039278D01*
X95906787Y-57039277D01*
X95910220Y-57037528D01*
X96005528Y-56942220D01*
X96006867Y-56943559D01*
X96034392Y-56927069D01*
X96048251Y-56925156D01*
X96057839Y-56923833D01*
X96060497Y-56923541D01*
X96102820Y-56920043D01*
X96110797Y-56920035D01*
X96124381Y-56921133D01*
X96124388Y-56921133D01*
X96124501Y-56921143D01*
X96125715Y-56921241D01*
X96129471Y-56921691D01*
X96136620Y-56922829D01*
X96140680Y-56923475D01*
X96140681Y-56923475D01*
X96178608Y-56929512D01*
X96183225Y-56930477D01*
X96200912Y-56935079D01*
X96200913Y-56935079D01*
X96200741Y-56935739D01*
X96200746Y-56935743D01*
X96200918Y-56935081D01*
X96206835Y-56936620D01*
X96236755Y-56959231D01*
X96243501Y-56984042D01*
X96243501Y-57120332D01*
X96246440Y-57151434D01*
X96247428Y-57154247D01*
X96247429Y-57154252D01*
X96283833Y-57257916D01*
X96290702Y-57277476D01*
X96370070Y-57384930D01*
X96477524Y-57464298D01*
X96480985Y-57465513D01*
X96480986Y-57465514D01*
X96566923Y-57495692D01*
X96603566Y-57508560D01*
X96606538Y-57508841D01*
X96633521Y-57511392D01*
X96633528Y-57511392D01*
X96634667Y-57511500D01*
X96780489Y-57511500D01*
X96813433Y-57524228D01*
X96833636Y-57542577D01*
X96842748Y-57550853D01*
X96843216Y-57551283D01*
X96880798Y-57586374D01*
X96925935Y-57628519D01*
X96926718Y-57629266D01*
X96992657Y-57693618D01*
X96993081Y-57694038D01*
X97314835Y-58015792D01*
X97315939Y-58016932D01*
X97353683Y-58057204D01*
X97353686Y-58057208D01*
X97380953Y-58086300D01*
X97383472Y-58089208D01*
X97400576Y-58110599D01*
X97400577Y-58110600D01*
X97435640Y-58154450D01*
X97438376Y-58158227D01*
X97474476Y-58213413D01*
X97477058Y-58217852D01*
X97502580Y-58267548D01*
X97504595Y-58272007D01*
X97524511Y-58322673D01*
X97525754Y-58326233D01*
X97543184Y-58383181D01*
X97543531Y-58384314D01*
X97544109Y-58386363D01*
X97562235Y-58456313D01*
X97562326Y-58456669D01*
X97582773Y-58538089D01*
X97583375Y-58540427D01*
X97583441Y-58540677D01*
X97583482Y-58540829D01*
X97583964Y-58542618D01*
X97601749Y-58607343D01*
X97603500Y-58620326D01*
X97603500Y-59071748D01*
X97615133Y-59130231D01*
X97617815Y-59134245D01*
X97627006Y-59148000D01*
X97659448Y-59196552D01*
X97725769Y-59240867D01*
X97784252Y-59252500D01*
X98923748Y-59252500D01*
X98982231Y-59240867D01*
X99048552Y-59196552D01*
X99080994Y-59148000D01*
X99090185Y-59134245D01*
X99092867Y-59130231D01*
X99104500Y-59071748D01*
X99104500Y-57932252D01*
X99092867Y-57873769D01*
X99086340Y-57864000D01*
X99051232Y-57811459D01*
X99048552Y-57807448D01*
X98982231Y-57763133D01*
X98923748Y-57751500D01*
X98472324Y-57751500D01*
X98459341Y-57749749D01*
X98394638Y-57731970D01*
X98394621Y-57731966D01*
X98394583Y-57731955D01*
X98393675Y-57731711D01*
X98392337Y-57731352D01*
X98392287Y-57731339D01*
X98392100Y-57731290D01*
X98390120Y-57730781D01*
X98336608Y-57717342D01*
X98308732Y-57710341D01*
X98308376Y-57710250D01*
X98238336Y-57692101D01*
X98236298Y-57691526D01*
X98208376Y-57682980D01*
X98178249Y-57673760D01*
X98174671Y-57672511D01*
X98124003Y-57652594D01*
X98119553Y-57650583D01*
X98069852Y-57625058D01*
X98065414Y-57622476D01*
X98010223Y-57586374D01*
X98006444Y-57583637D01*
X97941205Y-57531469D01*
X97938299Y-57528952D01*
X97868916Y-57463923D01*
X97867776Y-57462819D01*
X97622720Y-57217763D01*
X97608368Y-57183115D01*
X97611136Y-57166880D01*
X97615570Y-57154253D01*
X97615570Y-57154252D01*
X97616560Y-57151434D01*
X97617405Y-57142499D01*
X97619392Y-57121479D01*
X97619392Y-57121472D01*
X97619500Y-57120333D01*
X97619499Y-56101668D01*
X97617498Y-56080489D01*
X97616841Y-56073537D01*
X97616841Y-56073535D01*
X97616560Y-56070566D01*
X97615572Y-56067753D01*
X97615571Y-56067748D01*
X97573514Y-55947986D01*
X97573513Y-55947985D01*
X97572298Y-55944524D01*
X97492930Y-55837070D01*
X97385476Y-55757702D01*
X97382015Y-55756487D01*
X97382014Y-55756486D01*
X97262253Y-55714430D01*
X97259434Y-55713440D01*
X97256462Y-55713159D01*
X97229479Y-55710608D01*
X97229472Y-55710608D01*
X97228333Y-55710500D01*
X96931629Y-55710500D01*
X96634668Y-55710501D01*
X96615397Y-55712322D01*
X96606537Y-55713159D01*
X96606535Y-55713159D01*
X96603566Y-55713440D01*
X96600753Y-55714428D01*
X96600748Y-55714429D01*
X96480986Y-55756486D01*
X96480985Y-55756487D01*
X96477524Y-55757702D01*
X96370070Y-55837070D01*
X96290702Y-55944524D01*
X96289488Y-55947981D01*
X96289487Y-55947983D01*
X96279821Y-55975508D01*
X96254800Y-56003444D01*
X96236137Y-56008207D01*
X96203828Y-56009889D01*
X96198390Y-56010172D01*
X96197278Y-56010216D01*
X96165910Y-56011089D01*
X96165894Y-56011089D01*
X96162565Y-56011182D01*
X96159205Y-56011160D01*
X96148071Y-56010706D01*
X96140439Y-56010395D01*
X96140431Y-56010395D01*
X96125468Y-56009786D01*
X96123449Y-56009662D01*
X96096998Y-56007475D01*
X96078515Y-56005947D01*
X96078513Y-56005947D01*
X96060457Y-56004455D01*
X96057847Y-56004167D01*
X96040250Y-56001739D01*
X96034391Y-56000930D01*
X96006868Y-55984440D01*
X96005528Y-55985780D01*
X95910220Y-55890472D01*
X95906787Y-55888723D01*
X95906786Y-55888722D01*
X95834669Y-55851977D01*
X95790126Y-55829281D01*
X95786321Y-55828678D01*
X95786320Y-55828678D01*
X95755141Y-55823740D01*
X95690488Y-55813500D01*
X95123512Y-55813500D01*
X95058859Y-55823740D01*
X95027680Y-55828678D01*
X95027679Y-55828678D01*
X95023874Y-55829281D01*
X94979331Y-55851977D01*
X94907214Y-55888722D01*
X94907213Y-55888723D01*
X94903780Y-55890472D01*
X94808472Y-55985780D01*
X94806723Y-55989213D01*
X94806722Y-55989214D01*
X94795576Y-56011089D01*
X94747281Y-56105874D01*
X94746827Y-56108738D01*
X94722725Y-56136957D01*
X94707061Y-56141854D01*
X94668593Y-56147068D01*
X94665327Y-56147400D01*
X94605549Y-56151451D01*
X94603187Y-56151552D01*
X94601136Y-56151591D01*
X94598809Y-56151579D01*
X94548186Y-56150088D01*
X94546619Y-56150015D01*
X94540289Y-56149617D01*
X94506611Y-56133116D01*
X94505726Y-56132003D01*
X94504419Y-56129341D01*
X94417125Y-56042199D01*
X94406637Y-56037072D01*
X94309732Y-55989704D01*
X94309731Y-55989704D01*
X94306311Y-55988032D01*
X94234117Y-55977500D01*
X93869410Y-55977500D01*
X93503884Y-55977501D01*
X93502128Y-55977760D01*
X93502121Y-55977760D01*
X93452614Y-55985048D01*
X93431061Y-55988220D01*
X93427646Y-55989897D01*
X93427645Y-55989897D01*
X93385896Y-56010395D01*
X93320341Y-56042581D01*
X93233199Y-56129875D01*
X93231420Y-56133515D01*
X93231419Y-56133516D01*
X93185458Y-56227543D01*
X93179032Y-56240689D01*
X93168500Y-56312883D01*
X86897699Y-56312883D01*
X86894280Y-56258543D01*
X86837681Y-55961840D01*
X86744341Y-55674570D01*
X86730438Y-55645023D01*
X86616389Y-55402658D01*
X86615733Y-55401264D01*
X86606345Y-55386470D01*
X86454715Y-55147540D01*
X86453885Y-55146232D01*
X86451830Y-55143747D01*
X86372886Y-55048321D01*
X86261349Y-54913496D01*
X86233013Y-54886886D01*
X86155788Y-54814367D01*
X86047719Y-54712883D01*
X93168500Y-54712883D01*
X93168501Y-55293116D01*
X93168760Y-55294872D01*
X93168760Y-55294879D01*
X93175449Y-55340320D01*
X93179220Y-55365939D01*
X93180897Y-55369354D01*
X93180897Y-55369355D01*
X93194863Y-55397800D01*
X93233581Y-55476659D01*
X93320875Y-55563801D01*
X93324515Y-55565580D01*
X93324516Y-55565581D01*
X93428268Y-55616296D01*
X93431689Y-55617968D01*
X93503883Y-55628500D01*
X93868590Y-55628500D01*
X94234116Y-55628499D01*
X94235872Y-55628240D01*
X94235879Y-55628240D01*
X94286972Y-55620719D01*
X94306939Y-55617780D01*
X94417659Y-55563419D01*
X94504801Y-55476125D01*
X94509303Y-55466916D01*
X94537410Y-55442090D01*
X94550013Y-55439547D01*
X94555598Y-55439169D01*
X94557292Y-55439085D01*
X94585699Y-55438187D01*
X94589216Y-55438204D01*
X94638545Y-55440214D01*
X94640538Y-55440337D01*
X94684538Y-55443974D01*
X94684560Y-55443977D01*
X94696205Y-55444939D01*
X94703542Y-55445545D01*
X94706179Y-55445836D01*
X94723502Y-55448226D01*
X94729608Y-55449069D01*
X94757133Y-55465559D01*
X94758472Y-55464220D01*
X94853780Y-55559528D01*
X94857213Y-55561277D01*
X94857214Y-55561278D01*
X94913827Y-55590124D01*
X94973874Y-55620719D01*
X94977679Y-55621322D01*
X94977680Y-55621322D01*
X95008859Y-55626260D01*
X95073512Y-55636500D01*
X95640488Y-55636500D01*
X95705141Y-55626260D01*
X95736320Y-55621322D01*
X95736321Y-55621322D01*
X95740126Y-55620719D01*
X95800173Y-55590124D01*
X95856786Y-55561278D01*
X95856787Y-55561277D01*
X95860220Y-55559528D01*
X95955528Y-55464220D01*
X95958549Y-55458292D01*
X95995144Y-55386470D01*
X96016719Y-55344126D01*
X96019798Y-55324689D01*
X96023247Y-55302908D01*
X96032500Y-55244488D01*
X96032500Y-55044748D01*
X96036269Y-55025902D01*
X96038824Y-55019770D01*
X96039883Y-55017407D01*
X96043101Y-55010706D01*
X96059629Y-54976281D01*
X96061108Y-54973443D01*
X96082200Y-54936005D01*
X96083983Y-54933082D01*
X96108928Y-54895251D01*
X96110777Y-54892638D01*
X96142357Y-54850948D01*
X96144032Y-54848858D01*
X96184850Y-54800685D01*
X96186204Y-54799153D01*
X96238358Y-54742568D01*
X96239358Y-54741514D01*
X96273580Y-54706526D01*
X96273962Y-54706141D01*
X96343622Y-54636481D01*
X98114500Y-54636481D01*
X98114501Y-55099518D01*
X98129354Y-55193304D01*
X98152584Y-55238896D01*
X98182069Y-55296762D01*
X98186950Y-55306342D01*
X98276658Y-55396050D01*
X98280091Y-55397799D01*
X98280092Y-55397800D01*
X98323305Y-55419818D01*
X98389696Y-55453646D01*
X98393501Y-55454249D01*
X98393502Y-55454249D01*
X98419030Y-55458292D01*
X98483481Y-55468500D01*
X98790000Y-55468500D01*
X99096518Y-55468499D01*
X99145220Y-55460786D01*
X99186498Y-55454249D01*
X99186499Y-55454249D01*
X99190304Y-55453646D01*
X99256695Y-55419818D01*
X99299908Y-55397800D01*
X99299909Y-55397799D01*
X99303342Y-55396050D01*
X99393050Y-55306342D01*
X99397932Y-55296762D01*
X99427416Y-55238896D01*
X99450646Y-55193304D01*
X99465500Y-55099519D01*
X99465499Y-54823822D01*
X99650500Y-54823822D01*
X99665657Y-54953828D01*
X99700783Y-55050598D01*
X99724364Y-55115561D01*
X99725369Y-55118331D01*
X99821323Y-55264685D01*
X99855184Y-55296762D01*
X99933692Y-55371133D01*
X99948372Y-55385040D01*
X99950834Y-55386470D01*
X100097237Y-55471508D01*
X100097242Y-55471510D01*
X100099702Y-55472939D01*
X100102431Y-55473765D01*
X100102432Y-55473766D01*
X100264468Y-55522842D01*
X100264471Y-55522842D01*
X100267193Y-55523667D01*
X100354527Y-55529085D01*
X100439022Y-55534327D01*
X100439024Y-55534327D01*
X100441862Y-55534503D01*
X100614340Y-55504866D01*
X100616960Y-55503751D01*
X100616964Y-55503750D01*
X100771046Y-55438187D01*
X100775373Y-55436346D01*
X100916324Y-55332617D01*
X100920842Y-55327300D01*
X101027791Y-55201412D01*
X101029632Y-55199245D01*
X101109219Y-55043384D01*
X101120612Y-54996825D01*
X101150297Y-54875513D01*
X101150298Y-54875507D01*
X101150815Y-54873394D01*
X101151500Y-54862352D01*
X101151500Y-53636178D01*
X101136343Y-53506172D01*
X101076631Y-53341669D01*
X101071432Y-53333738D01*
X101023581Y-53260755D01*
X100980677Y-53195315D01*
X100876790Y-53096902D01*
X100855695Y-53076918D01*
X100853628Y-53074960D01*
X100804429Y-53046383D01*
X100704763Y-52988492D01*
X100704758Y-52988490D01*
X100702298Y-52987061D01*
X100699569Y-52986235D01*
X100699568Y-52986234D01*
X100537532Y-52937158D01*
X100537529Y-52937158D01*
X100534807Y-52936333D01*
X100447473Y-52930915D01*
X100362978Y-52925673D01*
X100362976Y-52925673D01*
X100360138Y-52925497D01*
X100187660Y-52955134D01*
X100185040Y-52956249D01*
X100185036Y-52956250D01*
X100100619Y-52992170D01*
X100026627Y-53023654D01*
X99885676Y-53127383D01*
X99883834Y-53129551D01*
X99883832Y-53129553D01*
X99774209Y-53258588D01*
X99772368Y-53260755D01*
X99692781Y-53416616D01*
X99692104Y-53419383D01*
X99651703Y-53584487D01*
X99651702Y-53584493D01*
X99651185Y-53586606D01*
X99650500Y-53597648D01*
X99650500Y-54823822D01*
X99465499Y-54823822D01*
X99465499Y-54636482D01*
X99450646Y-54542696D01*
X99393050Y-54429658D01*
X99303342Y-54339950D01*
X99305058Y-54338234D01*
X99289532Y-54313003D01*
X99293817Y-54283883D01*
X99329188Y-54210875D01*
X99329189Y-54210873D01*
X99330710Y-54207733D01*
X99331905Y-54200635D01*
X99354183Y-54068216D01*
X99354183Y-54068213D01*
X99354496Y-54066354D01*
X99354647Y-54054000D01*
X99334323Y-53912082D01*
X99285972Y-53805739D01*
X99284696Y-53768258D01*
X99301778Y-53745815D01*
X99305774Y-53742912D01*
X99389915Y-53658771D01*
X99394391Y-53652611D01*
X99448415Y-53546582D01*
X99450768Y-53539342D01*
X99464699Y-53451379D01*
X99465000Y-53447557D01*
X99465000Y-53377747D01*
X99462145Y-53370855D01*
X99455253Y-53368000D01*
X98124748Y-53368000D01*
X98117856Y-53370855D01*
X98115001Y-53377747D01*
X98115001Y-53447556D01*
X98115302Y-53451379D01*
X98129232Y-53539342D01*
X98131585Y-53546582D01*
X98185609Y-53652611D01*
X98190085Y-53658771D01*
X98274229Y-53742915D01*
X98280389Y-53747391D01*
X98366909Y-53791475D01*
X98391265Y-53819992D01*
X98389018Y-53855959D01*
X98365447Y-53906163D01*
X98357329Y-53958305D01*
X98343927Y-54044377D01*
X98343927Y-54044381D01*
X98343391Y-54047823D01*
X98343843Y-54051280D01*
X98343843Y-54051283D01*
X98358866Y-54166166D01*
X98361980Y-54189979D01*
X98366669Y-54200635D01*
X98381612Y-54234596D01*
X98382430Y-54272090D01*
X98359008Y-54297990D01*
X98280092Y-54338200D01*
X98280091Y-54338201D01*
X98276658Y-54339950D01*
X98186950Y-54429658D01*
X98129354Y-54542696D01*
X98114500Y-54636481D01*
X96343622Y-54636481D01*
X98031618Y-52948485D01*
X98066266Y-52934133D01*
X98100914Y-52948485D01*
X98114948Y-52986519D01*
X98115000Y-52986519D01*
X98115000Y-52986659D01*
X98115115Y-52986971D01*
X98115000Y-52988435D01*
X98115000Y-53058253D01*
X98117855Y-53065145D01*
X98124747Y-53068000D01*
X98630253Y-53068000D01*
X98637145Y-53065145D01*
X98640000Y-53058253D01*
X98940000Y-53058253D01*
X98942855Y-53065145D01*
X98949747Y-53068000D01*
X99455252Y-53068000D01*
X99462144Y-53065145D01*
X99464999Y-53058253D01*
X99464999Y-52988444D01*
X99464698Y-52984621D01*
X99450768Y-52896658D01*
X99448415Y-52889418D01*
X99394391Y-52783389D01*
X99389915Y-52777229D01*
X99305771Y-52693085D01*
X99299611Y-52688609D01*
X99193582Y-52634585D01*
X99186342Y-52632232D01*
X99098379Y-52618301D01*
X99094557Y-52618000D01*
X98949747Y-52618000D01*
X98942855Y-52620855D01*
X98940000Y-52627747D01*
X98940000Y-53058253D01*
X98640000Y-53058253D01*
X98640000Y-52627748D01*
X98637145Y-52620856D01*
X98630253Y-52618001D01*
X98485452Y-52618001D01*
X98483980Y-52618117D01*
X98483623Y-52618001D01*
X98483520Y-52618001D01*
X98483520Y-52617968D01*
X98448311Y-52606531D01*
X98431282Y-52573117D01*
X98442868Y-52537448D01*
X98445483Y-52534620D01*
X98530291Y-52449812D01*
X98564939Y-52435460D01*
X102136195Y-52435460D01*
X102170843Y-52449812D01*
X102185195Y-52484460D01*
X102175070Y-52514289D01*
X102149191Y-52548016D01*
X102147962Y-52550983D01*
X102104068Y-52656950D01*
X102104067Y-52656954D01*
X102102840Y-52659916D01*
X102102421Y-52663097D01*
X102102421Y-52663098D01*
X102089101Y-52764276D01*
X102088256Y-52768938D01*
X102085858Y-52779285D01*
X102085857Y-52780001D01*
X102086472Y-52782697D01*
X102089773Y-52797168D01*
X102091000Y-52808066D01*
X102091000Y-52819450D01*
X102089734Y-52830514D01*
X102087561Y-52839889D01*
X102087561Y-52839895D01*
X102086734Y-52843461D01*
X102088302Y-52865608D01*
X102090878Y-52901989D01*
X102091000Y-52905450D01*
X102091000Y-52951497D01*
X102089734Y-52962561D01*
X102085858Y-52979283D01*
X102085857Y-52979999D01*
X102086473Y-52982700D01*
X102088123Y-52989936D01*
X102088931Y-52994435D01*
X102099532Y-53074960D01*
X102102840Y-53100084D01*
X102104067Y-53103046D01*
X102104068Y-53103050D01*
X102117138Y-53134603D01*
X102149191Y-53211984D01*
X102222924Y-53308076D01*
X102225468Y-53310028D01*
X102301020Y-53368000D01*
X102319016Y-53381809D01*
X102321983Y-53383038D01*
X102427950Y-53426932D01*
X102427954Y-53426933D01*
X102430916Y-53428160D01*
X102434097Y-53428579D01*
X102434098Y-53428579D01*
X102481944Y-53434878D01*
X102535276Y-53441899D01*
X102539936Y-53442744D01*
X102542517Y-53443342D01*
X102547581Y-53444516D01*
X102547583Y-53444516D01*
X102550283Y-53445142D01*
X102550999Y-53445143D01*
X102551001Y-53445143D01*
X102553677Y-53444533D01*
X102553683Y-53444532D01*
X102560938Y-53442877D01*
X102565437Y-53442069D01*
X102667902Y-53428579D01*
X102667903Y-53428579D01*
X102671084Y-53428160D01*
X102674046Y-53426933D01*
X102674050Y-53426932D01*
X102780017Y-53383038D01*
X102782984Y-53381809D01*
X102800981Y-53368000D01*
X102876532Y-53310028D01*
X102879076Y-53308076D01*
X102952809Y-53211984D01*
X102984862Y-53134603D01*
X102997932Y-53103050D01*
X102997933Y-53103046D01*
X102999160Y-53100084D01*
X103012899Y-52995722D01*
X103013745Y-52991056D01*
X103014340Y-52988492D01*
X103016142Y-52980715D01*
X103016143Y-52979999D01*
X103012227Y-52962832D01*
X103011000Y-52951934D01*
X103011000Y-52940550D01*
X103012266Y-52929486D01*
X103014439Y-52920111D01*
X103014439Y-52920105D01*
X103015266Y-52916539D01*
X103011122Y-52858011D01*
X103011000Y-52854550D01*
X103011000Y-52808503D01*
X103012266Y-52797439D01*
X103012658Y-52795747D01*
X103016142Y-52780717D01*
X103016143Y-52780001D01*
X103015511Y-52777229D01*
X103013877Y-52770064D01*
X103013069Y-52765565D01*
X102999579Y-52663098D01*
X102999579Y-52663097D01*
X102999160Y-52659916D01*
X102997933Y-52656954D01*
X102997932Y-52656950D01*
X102954038Y-52550983D01*
X102952809Y-52548016D01*
X102926930Y-52514289D01*
X102917224Y-52478064D01*
X102935976Y-52445585D01*
X102965805Y-52435460D01*
X104615061Y-52435460D01*
X104649709Y-52449812D01*
X105176984Y-52977087D01*
X105191336Y-53011735D01*
X105176984Y-53046383D01*
X105142336Y-53060735D01*
X105117725Y-53054106D01*
X105004763Y-52988492D01*
X105004758Y-52988490D01*
X105002298Y-52987061D01*
X104999569Y-52986235D01*
X104999568Y-52986234D01*
X104837532Y-52937158D01*
X104837529Y-52937158D01*
X104834807Y-52936333D01*
X104747473Y-52930915D01*
X104662978Y-52925673D01*
X104662976Y-52925673D01*
X104660138Y-52925497D01*
X104487660Y-52955134D01*
X104485040Y-52956249D01*
X104485036Y-52956250D01*
X104400619Y-52992170D01*
X104326627Y-53023654D01*
X104185676Y-53127383D01*
X104183834Y-53129551D01*
X104183832Y-53129553D01*
X104074209Y-53258588D01*
X104072368Y-53260755D01*
X103992781Y-53416616D01*
X103992104Y-53419383D01*
X103951703Y-53584487D01*
X103951702Y-53584493D01*
X103951185Y-53586606D01*
X103950500Y-53597648D01*
X103950500Y-54823822D01*
X103965657Y-54953828D01*
X104000783Y-55050598D01*
X104024364Y-55115561D01*
X104025369Y-55118331D01*
X104121323Y-55264685D01*
X104155184Y-55296762D01*
X104233692Y-55371133D01*
X104248372Y-55385040D01*
X104250834Y-55386470D01*
X104397237Y-55471508D01*
X104397242Y-55471510D01*
X104399702Y-55472939D01*
X104402431Y-55473765D01*
X104402432Y-55473766D01*
X104564468Y-55522842D01*
X104564471Y-55522842D01*
X104567193Y-55523667D01*
X104654527Y-55529085D01*
X104739022Y-55534327D01*
X104739024Y-55534327D01*
X104741862Y-55534503D01*
X104914340Y-55504866D01*
X104916960Y-55503751D01*
X104916964Y-55503750D01*
X105071046Y-55438187D01*
X105075373Y-55436346D01*
X105216324Y-55332617D01*
X105220842Y-55327300D01*
X105327791Y-55201412D01*
X105329632Y-55199245D01*
X105409219Y-55043384D01*
X105420612Y-54996825D01*
X105450297Y-54875513D01*
X105450298Y-54875507D01*
X105450815Y-54873394D01*
X105451500Y-54862352D01*
X105451500Y-54337483D01*
X105465852Y-54302835D01*
X105500500Y-54288483D01*
X105535148Y-54302835D01*
X105902878Y-54670565D01*
X105906710Y-54674877D01*
X105930544Y-54705110D01*
X105933555Y-54707191D01*
X105933556Y-54707192D01*
X105979804Y-54739156D01*
X105981047Y-54740044D01*
X106029233Y-54775634D01*
X106032687Y-54776847D01*
X106035775Y-54778482D01*
X106038969Y-54780047D01*
X106041985Y-54782131D01*
X106067613Y-54790236D01*
X106096321Y-54814367D01*
X106099557Y-54851730D01*
X106096860Y-54858473D01*
X106050136Y-54954060D01*
X106050135Y-54954064D01*
X106048464Y-54957482D01*
X106038500Y-55025782D01*
X106038500Y-56117218D01*
X106038759Y-56118975D01*
X106038759Y-56118980D01*
X106043558Y-56151579D01*
X106048642Y-56186112D01*
X106050319Y-56189527D01*
X106050319Y-56189528D01*
X106069056Y-56227690D01*
X106100068Y-56290855D01*
X106155392Y-56346083D01*
X106169773Y-56380716D01*
X106155421Y-56415407D01*
X106153680Y-56417148D01*
X106119032Y-56431500D01*
X105182982Y-56431500D01*
X105148334Y-56417148D01*
X105133982Y-56382500D01*
X105134661Y-56374371D01*
X105143183Y-56323718D01*
X105143184Y-56323710D01*
X105143496Y-56321854D01*
X105143647Y-56309500D01*
X105123323Y-56167582D01*
X105063984Y-56037072D01*
X105041596Y-56011089D01*
X104972680Y-55931109D01*
X104970400Y-55928463D01*
X104850095Y-55850485D01*
X104712739Y-55809407D01*
X104641681Y-55808973D01*
X104572868Y-55808552D01*
X104572866Y-55808552D01*
X104569376Y-55808531D01*
X104566021Y-55809490D01*
X104566020Y-55809490D01*
X104444139Y-55844324D01*
X104431529Y-55847928D01*
X104310280Y-55924430D01*
X104303282Y-55932354D01*
X104284609Y-55953497D01*
X104279883Y-55958168D01*
X104275499Y-55961949D01*
X104275429Y-55962010D01*
X104275342Y-55962085D01*
X104273085Y-55964060D01*
X104272887Y-55964236D01*
X104270924Y-55966005D01*
X104253992Y-55981461D01*
X104253687Y-55981127D01*
X104253683Y-55981136D01*
X104253985Y-55981467D01*
X104235385Y-55998447D01*
X104235335Y-55998393D01*
X104235143Y-55998668D01*
X104235122Y-55998687D01*
X104222340Y-56010396D01*
X104205866Y-56025486D01*
X104204652Y-56026561D01*
X104186386Y-56042199D01*
X104183909Y-56044320D01*
X104181073Y-56046571D01*
X104171004Y-56053976D01*
X104169447Y-56055121D01*
X104169445Y-56055123D01*
X104168315Y-56055954D01*
X104163762Y-56058928D01*
X104156566Y-56063075D01*
X104150679Y-56065960D01*
X104143903Y-56068736D01*
X104137612Y-56070829D01*
X104124391Y-56074253D01*
X104118680Y-56075375D01*
X104117257Y-56075567D01*
X104117250Y-56075568D01*
X104117245Y-56075569D01*
X104117243Y-56075570D01*
X104117239Y-56075570D01*
X104093265Y-56078807D01*
X104088627Y-56079209D01*
X104058210Y-56080387D01*
X104056528Y-56080452D01*
X104054633Y-56080489D01*
X103407719Y-56080489D01*
X103400894Y-56079987D01*
X103396745Y-56078563D01*
X103346352Y-56080455D01*
X103344514Y-56080489D01*
X103324139Y-56080489D01*
X103321919Y-56080902D01*
X103320418Y-56081041D01*
X103315163Y-56081626D01*
X103289398Y-56082593D01*
X103289396Y-56082593D01*
X103284879Y-56082763D01*
X103280726Y-56084547D01*
X103280723Y-56084548D01*
X103269193Y-56089502D01*
X103258823Y-56092653D01*
X103255251Y-56093318D01*
X103242034Y-56095780D01*
X103221495Y-56108440D01*
X103216234Y-56111683D01*
X103209866Y-56114991D01*
X103185201Y-56125588D01*
X103185199Y-56125589D01*
X103182025Y-56126953D01*
X103179357Y-56129144D01*
X103179355Y-56129145D01*
X103178467Y-56129875D01*
X103177138Y-56130966D01*
X103168637Y-56139467D01*
X103159701Y-56146531D01*
X103146739Y-56154521D01*
X103139224Y-56164404D01*
X103127023Y-56180450D01*
X103122666Y-56185439D01*
X102911621Y-56396483D01*
X102717564Y-56590540D01*
X102716355Y-56591709D01*
X102695839Y-56610863D01*
X102695836Y-56610865D01*
X102688466Y-56617745D01*
X102685383Y-56620393D01*
X102658655Y-56641484D01*
X102654654Y-56644328D01*
X102641134Y-56652953D01*
X102641084Y-56652985D01*
X102641075Y-56652991D01*
X102635232Y-56656719D01*
X102630582Y-56659340D01*
X102614743Y-56667159D01*
X102610136Y-56669146D01*
X102592303Y-56675778D01*
X102588697Y-56676962D01*
X102563329Y-56684212D01*
X102561382Y-56684725D01*
X102525185Y-56693479D01*
X102525015Y-56693520D01*
X102480661Y-56704079D01*
X102478191Y-56704684D01*
X102478145Y-56704695D01*
X102477809Y-56704779D01*
X102477723Y-56704801D01*
X102477720Y-56704802D01*
X102475131Y-56705474D01*
X102450334Y-56712088D01*
X102426078Y-56718558D01*
X102426046Y-56718567D01*
X102425959Y-56718590D01*
X102421406Y-56719863D01*
X102421296Y-56719895D01*
X102421247Y-56719909D01*
X102420976Y-56719989D01*
X102420879Y-56720017D01*
X102416423Y-56721375D01*
X102416286Y-56721419D01*
X102416249Y-56721430D01*
X102397582Y-56727360D01*
X102396212Y-56727774D01*
X102313667Y-56751366D01*
X102192418Y-56827868D01*
X102097515Y-56935326D01*
X102096032Y-56938484D01*
X102096031Y-56938486D01*
X102061225Y-57012621D01*
X102036585Y-57065101D01*
X102036049Y-57068544D01*
X102036048Y-57068547D01*
X102035423Y-57072565D01*
X102015913Y-57104593D01*
X101979469Y-57113445D01*
X101952358Y-57099676D01*
X101722852Y-56870170D01*
X101708500Y-56835522D01*
X101708500Y-56484478D01*
X101722852Y-56449830D01*
X102316665Y-55856017D01*
X102351313Y-55841665D01*
X102365925Y-55843894D01*
X102486609Y-55881597D01*
X102501157Y-55886142D01*
X102504647Y-55886206D01*
X102524558Y-55886571D01*
X102644499Y-55888770D01*
X102782817Y-55851060D01*
X102785788Y-55849236D01*
X102785790Y-55849235D01*
X102902018Y-55777871D01*
X102902021Y-55777869D01*
X102904991Y-55776045D01*
X102921595Y-55757702D01*
X102998855Y-55672345D01*
X102998856Y-55672344D01*
X103001200Y-55669754D01*
X103017312Y-55636500D01*
X103062189Y-55543872D01*
X103063710Y-55540733D01*
X103064759Y-55534503D01*
X103087183Y-55401216D01*
X103087183Y-55401213D01*
X103087496Y-55399354D01*
X103087647Y-55387000D01*
X103067323Y-55245082D01*
X103007984Y-55114572D01*
X102995077Y-55099592D01*
X102916680Y-55008609D01*
X102914400Y-55005963D01*
X102794095Y-54927985D01*
X102656739Y-54886907D01*
X102585681Y-54886473D01*
X102516868Y-54886052D01*
X102516866Y-54886052D01*
X102513376Y-54886031D01*
X102510021Y-54886990D01*
X102510020Y-54886990D01*
X102420962Y-54912443D01*
X102375529Y-54925428D01*
X102319577Y-54960731D01*
X102317242Y-54962114D01*
X102281764Y-54981807D01*
X102281734Y-54981824D01*
X102281690Y-54981848D01*
X102279771Y-54982929D01*
X102279550Y-54983055D01*
X102279455Y-54983110D01*
X102277125Y-54984461D01*
X102276991Y-54984539D01*
X102241164Y-55005673D01*
X102225212Y-55015083D01*
X102222009Y-55017013D01*
X102221645Y-55017237D01*
X102218624Y-55019134D01*
X102218557Y-55019177D01*
X102173037Y-55048321D01*
X102169561Y-55050598D01*
X102169448Y-55050673D01*
X102169103Y-55050904D01*
X102169020Y-55050961D01*
X102165171Y-55053608D01*
X102165046Y-55053695D01*
X102152800Y-55062337D01*
X102147819Y-55065423D01*
X102131812Y-55074060D01*
X102129811Y-55075080D01*
X102085674Y-55096274D01*
X102081726Y-55099592D01*
X102081681Y-55099538D01*
X102078796Y-55101589D01*
X102078971Y-55101815D01*
X102075766Y-55104301D01*
X102072206Y-55106222D01*
X102069460Y-55109192D01*
X102069458Y-55109194D01*
X102037518Y-55143747D01*
X102036184Y-55145134D01*
X101140305Y-56041013D01*
X101132236Y-56047530D01*
X101122252Y-56053976D01*
X101122248Y-56053980D01*
X101118848Y-56056175D01*
X101097182Y-56083658D01*
X101093358Y-56087960D01*
X101089572Y-56091746D01*
X101088395Y-56093393D01*
X101078277Y-56107551D01*
X101076900Y-56109387D01*
X101046608Y-56147811D01*
X101045267Y-56151630D01*
X101043314Y-56155182D01*
X101043079Y-56155053D01*
X101042784Y-56155620D01*
X101043025Y-56155738D01*
X101041244Y-56159374D01*
X101038889Y-56162669D01*
X101037729Y-56166547D01*
X101037479Y-56167058D01*
X101009347Y-56191859D01*
X100993476Y-56194500D01*
X99758688Y-56194500D01*
X99757905Y-56194494D01*
X99745853Y-56194301D01*
X99689497Y-56193401D01*
X99687474Y-56193326D01*
X99677788Y-56192770D01*
X99627497Y-56189881D01*
X99627491Y-56189881D01*
X99607497Y-56188733D01*
X99604795Y-56188502D01*
X99540350Y-56181175D01*
X99536950Y-56180666D01*
X99534551Y-56180221D01*
X99503106Y-56159784D01*
X99494499Y-56132045D01*
X99494499Y-56101668D01*
X99492498Y-56080489D01*
X99491841Y-56073537D01*
X99491841Y-56073535D01*
X99491560Y-56070566D01*
X99490572Y-56067753D01*
X99490571Y-56067748D01*
X99448514Y-55947986D01*
X99448513Y-55947985D01*
X99447298Y-55944524D01*
X99367930Y-55837070D01*
X99260476Y-55757702D01*
X99257015Y-55756487D01*
X99257014Y-55756486D01*
X99137253Y-55714430D01*
X99134434Y-55713440D01*
X99131462Y-55713159D01*
X99104479Y-55710608D01*
X99104472Y-55710608D01*
X99103333Y-55710500D01*
X98806629Y-55710500D01*
X98509668Y-55710501D01*
X98490397Y-55712322D01*
X98481537Y-55713159D01*
X98481535Y-55713159D01*
X98478566Y-55713440D01*
X98475753Y-55714428D01*
X98475748Y-55714429D01*
X98355986Y-55756486D01*
X98355985Y-55756487D01*
X98352524Y-55757702D01*
X98245070Y-55837070D01*
X98165702Y-55944524D01*
X98164487Y-55947985D01*
X98164486Y-55947986D01*
X98142294Y-56011182D01*
X98121440Y-56070566D01*
X98121159Y-56073537D01*
X98121159Y-56073538D01*
X98119057Y-56095780D01*
X98118500Y-56101667D01*
X98118501Y-57120332D01*
X98121440Y-57151434D01*
X98122428Y-57154247D01*
X98122429Y-57154252D01*
X98158833Y-57257916D01*
X98165702Y-57277476D01*
X98245070Y-57384930D01*
X98352524Y-57464298D01*
X98355985Y-57465513D01*
X98355986Y-57465514D01*
X98441923Y-57495692D01*
X98478566Y-57508560D01*
X98481538Y-57508841D01*
X98508521Y-57511392D01*
X98508528Y-57511392D01*
X98509667Y-57511500D01*
X98806371Y-57511500D01*
X99103332Y-57511499D01*
X99122603Y-57509678D01*
X99131463Y-57508841D01*
X99131465Y-57508841D01*
X99134434Y-57508560D01*
X99137247Y-57507572D01*
X99137252Y-57507571D01*
X99257014Y-57465514D01*
X99257015Y-57465513D01*
X99260476Y-57464298D01*
X99367930Y-57384930D01*
X99447298Y-57277476D01*
X99454534Y-57256872D01*
X99490570Y-57154253D01*
X99490570Y-57154252D01*
X99491560Y-57151434D01*
X99491841Y-57148462D01*
X99492482Y-57145541D01*
X99493702Y-57145809D01*
X99509283Y-57116367D01*
X99536161Y-57105310D01*
X99559811Y-57103196D01*
X99559815Y-57103196D01*
X99581319Y-57101273D01*
X99589220Y-57100567D01*
X99591352Y-57100422D01*
X99608514Y-57099643D01*
X99679480Y-57096420D01*
X99681081Y-57096374D01*
X99749598Y-57095504D01*
X99750220Y-57095500D01*
X100981456Y-57095500D01*
X101016104Y-57109852D01*
X101024579Y-57121231D01*
X101045062Y-57159193D01*
X101046096Y-57161224D01*
X101067274Y-57205326D01*
X101070034Y-57208610D01*
X101070592Y-57209274D01*
X101070538Y-57209319D01*
X101072589Y-57212204D01*
X101072815Y-57212029D01*
X101075301Y-57215234D01*
X101077222Y-57218794D01*
X101080192Y-57221540D01*
X101080194Y-57221542D01*
X101114747Y-57253482D01*
X101116134Y-57254816D01*
X101990843Y-58129525D01*
X101997360Y-58137594D01*
X102003806Y-58147578D01*
X102003810Y-58147582D01*
X102006005Y-58150982D01*
X102033488Y-58172648D01*
X102037790Y-58176472D01*
X102041576Y-58180258D01*
X102043223Y-58181435D01*
X102057381Y-58191553D01*
X102059217Y-58192930D01*
X102097641Y-58223222D01*
X102101460Y-58224563D01*
X102105012Y-58226516D01*
X102104883Y-58226751D01*
X102105449Y-58227046D01*
X102105567Y-58226805D01*
X102109205Y-58228587D01*
X102112499Y-58230941D01*
X102116378Y-58232101D01*
X102116380Y-58232102D01*
X102116506Y-58232140D01*
X102130391Y-58238823D01*
X102131979Y-58239924D01*
X102133882Y-58241245D01*
X102178215Y-58271261D01*
X102181248Y-58273274D01*
X102181606Y-58273507D01*
X102184693Y-58275476D01*
X102235079Y-58306971D01*
X102237358Y-58308374D01*
X102237630Y-58308539D01*
X102239998Y-58309954D01*
X102240107Y-58310018D01*
X102274133Y-58330022D01*
X102276452Y-58331474D01*
X102331654Y-58368220D01*
X102468498Y-58410972D01*
X102471988Y-58411036D01*
X102491899Y-58411401D01*
X102611840Y-58413600D01*
X102750158Y-58375890D01*
X102753129Y-58374066D01*
X102753131Y-58374065D01*
X102869359Y-58302701D01*
X102869362Y-58302699D01*
X102872332Y-58300875D01*
X102875040Y-58297884D01*
X102966196Y-58197175D01*
X102966197Y-58197174D01*
X102968541Y-58194584D01*
X102978307Y-58174428D01*
X103029530Y-58068702D01*
X103031051Y-58065563D01*
X103032225Y-58058588D01*
X103054524Y-57926046D01*
X103054524Y-57926043D01*
X103054837Y-57924184D01*
X103054988Y-57911830D01*
X103034664Y-57769912D01*
X102975325Y-57639402D01*
X102965948Y-57628519D01*
X102922584Y-57578193D01*
X102910840Y-57542577D01*
X102923375Y-57513327D01*
X102939338Y-57495692D01*
X102945475Y-57483026D01*
X103000325Y-57369815D01*
X103000325Y-57369813D01*
X103001848Y-57366671D01*
X103008073Y-57329671D01*
X103009693Y-57322968D01*
X103011701Y-57316647D01*
X103013058Y-57312196D01*
X103013212Y-57311669D01*
X103013810Y-57309532D01*
X103014437Y-57307288D01*
X103014442Y-57307269D01*
X103014485Y-57307116D01*
X103016686Y-57298867D01*
X103027601Y-57257944D01*
X103027608Y-57257916D01*
X103028273Y-57255355D01*
X103028317Y-57255182D01*
X103028350Y-57255050D01*
X103028408Y-57254816D01*
X103028996Y-57252414D01*
X103039555Y-57208060D01*
X103039596Y-57207890D01*
X103044038Y-57189525D01*
X103048351Y-57171690D01*
X103048863Y-57169746D01*
X103056113Y-57144378D01*
X103057300Y-57140765D01*
X103063928Y-57122941D01*
X103065918Y-57118327D01*
X103073732Y-57102500D01*
X103076359Y-57097839D01*
X103088738Y-57078434D01*
X103091581Y-57074434D01*
X103108003Y-57053622D01*
X103108005Y-57053618D01*
X103112679Y-57047695D01*
X103115329Y-57044610D01*
X103134136Y-57024466D01*
X103141366Y-57016722D01*
X103142534Y-57015513D01*
X103462206Y-56695841D01*
X103496854Y-56681489D01*
X103685195Y-56681489D01*
X103719843Y-56695841D01*
X103734195Y-56730489D01*
X103733612Y-56738027D01*
X103712927Y-56870877D01*
X103712927Y-56870881D01*
X103712391Y-56874323D01*
X103712843Y-56877780D01*
X103712843Y-56877783D01*
X103726738Y-56984042D01*
X103730980Y-57016479D01*
X103788720Y-57147703D01*
X103790966Y-57150375D01*
X103878536Y-57254552D01*
X103880970Y-57257448D01*
X104000313Y-57336890D01*
X104137157Y-57379642D01*
X104185521Y-57380529D01*
X104190832Y-57380917D01*
X104203270Y-57382507D01*
X104218408Y-57384443D01*
X104221896Y-57385018D01*
X104258367Y-57392387D01*
X104261506Y-57393129D01*
X104294856Y-57402187D01*
X104297013Y-57402826D01*
X104303349Y-57404865D01*
X104311106Y-57407361D01*
X104311130Y-57407370D01*
X104332794Y-57414341D01*
X104333451Y-57414558D01*
X104347990Y-57419468D01*
X104363821Y-57424814D01*
X104373041Y-57427928D01*
X104373066Y-57427936D01*
X104373165Y-57427969D01*
X104375070Y-57428600D01*
X104375203Y-57428644D01*
X104375449Y-57428724D01*
X104377524Y-57429387D01*
X104419823Y-57442635D01*
X104424783Y-57444118D01*
X104425383Y-57444289D01*
X104425529Y-57444329D01*
X104425556Y-57444336D01*
X104430576Y-57445693D01*
X104430629Y-57445707D01*
X104430674Y-57445719D01*
X104430749Y-57445738D01*
X104430779Y-57445746D01*
X104445150Y-57449419D01*
X104476529Y-57457439D01*
X104483579Y-57459105D01*
X104483720Y-57459136D01*
X104483761Y-57459145D01*
X104484022Y-57459201D01*
X104484398Y-57459283D01*
X104484617Y-57459327D01*
X104484643Y-57459332D01*
X104491108Y-57460618D01*
X104491357Y-57460667D01*
X104500973Y-57462402D01*
X104503550Y-57462940D01*
X104526932Y-57468489D01*
X104533771Y-57470651D01*
X104561923Y-57481883D01*
X104565368Y-57482221D01*
X104565369Y-57482221D01*
X104567030Y-57482384D01*
X104567036Y-57482384D01*
X104568216Y-57482500D01*
X104580237Y-57482500D01*
X104591551Y-57483824D01*
X104601963Y-57486295D01*
X104601964Y-57486295D01*
X104606367Y-57487340D01*
X104638639Y-57482948D01*
X104645247Y-57482500D01*
X106394574Y-57482500D01*
X106401395Y-57483001D01*
X106405542Y-57484425D01*
X106455920Y-57482534D01*
X106457758Y-57482500D01*
X106478148Y-57482500D01*
X106480369Y-57482086D01*
X106481838Y-57481951D01*
X106487126Y-57481363D01*
X106512883Y-57480396D01*
X106512884Y-57480396D01*
X106517408Y-57480226D01*
X106521567Y-57478439D01*
X106521568Y-57478439D01*
X106533094Y-57473487D01*
X106543464Y-57470336D01*
X106555808Y-57468037D01*
X106555809Y-57468037D01*
X106560253Y-57467209D01*
X106564102Y-57464837D01*
X106564106Y-57464835D01*
X106586049Y-57451309D01*
X106592417Y-57448000D01*
X106617091Y-57437399D01*
X106617092Y-57437398D01*
X106620263Y-57436036D01*
X106625149Y-57432022D01*
X106633647Y-57423524D01*
X106642583Y-57416460D01*
X106651696Y-57410843D01*
X106651698Y-57410841D01*
X106655548Y-57408468D01*
X106675264Y-57382540D01*
X106679620Y-57377551D01*
X106855219Y-57201952D01*
X106889867Y-57187600D01*
X107278726Y-57187600D01*
X107285547Y-57188101D01*
X107289694Y-57189525D01*
X107340072Y-57187634D01*
X107341910Y-57187600D01*
X107362300Y-57187600D01*
X107364521Y-57187186D01*
X107365990Y-57187051D01*
X107371278Y-57186463D01*
X107397035Y-57185496D01*
X107397036Y-57185496D01*
X107401560Y-57185326D01*
X107405719Y-57183539D01*
X107405720Y-57183539D01*
X107417246Y-57178587D01*
X107427616Y-57175436D01*
X107439960Y-57173137D01*
X107439961Y-57173137D01*
X107444405Y-57172309D01*
X107448254Y-57169937D01*
X107448258Y-57169935D01*
X107470201Y-57156409D01*
X107476569Y-57153100D01*
X107501243Y-57142499D01*
X107501244Y-57142498D01*
X107504415Y-57141136D01*
X107509301Y-57137122D01*
X107517799Y-57128624D01*
X107526735Y-57121560D01*
X107535848Y-57115943D01*
X107535850Y-57115941D01*
X107539700Y-57113568D01*
X107544562Y-57107175D01*
X107559416Y-57087640D01*
X107563772Y-57082651D01*
X108200118Y-56446305D01*
X108234766Y-56431953D01*
X108241840Y-56432466D01*
X108255782Y-56434500D01*
X108622218Y-56434500D01*
X108623975Y-56434241D01*
X108623980Y-56434241D01*
X108662361Y-56428590D01*
X108691112Y-56424358D01*
X108795855Y-56372932D01*
X108878293Y-56290350D01*
X108881789Y-56283198D01*
X108927865Y-56188937D01*
X108927865Y-56188936D01*
X108929536Y-56185518D01*
X108939500Y-56117218D01*
X108939500Y-55294899D01*
X108953852Y-55260251D01*
X108988500Y-55245899D01*
X109023148Y-55260251D01*
X109230706Y-55467809D01*
X109245058Y-55502457D01*
X109244117Y-55512011D01*
X109238500Y-55540252D01*
X109238500Y-57129748D01*
X109250133Y-57188231D01*
X109252815Y-57192245D01*
X109270370Y-57218517D01*
X109294448Y-57254552D01*
X109360769Y-57298867D01*
X109419252Y-57310500D01*
X110058748Y-57310500D01*
X110117231Y-57298867D01*
X110183552Y-57254552D01*
X110198258Y-57232543D01*
X110229441Y-57211708D01*
X110266223Y-57219024D01*
X110279741Y-57232542D01*
X110294448Y-57254552D01*
X110360769Y-57298867D01*
X110419252Y-57310500D01*
X111058748Y-57310500D01*
X111117231Y-57298867D01*
X111183552Y-57254552D01*
X111198258Y-57232543D01*
X111229441Y-57211708D01*
X111266223Y-57219024D01*
X111279741Y-57232542D01*
X111294448Y-57254552D01*
X111360769Y-57298867D01*
X111419252Y-57310500D01*
X112058748Y-57310500D01*
X112117231Y-57298867D01*
X112183552Y-57254552D01*
X112198559Y-57232093D01*
X112229741Y-57211259D01*
X112266523Y-57218575D01*
X112280042Y-57232093D01*
X112292129Y-57250182D01*
X112298819Y-57256872D01*
X112356951Y-57295715D01*
X112365697Y-57299337D01*
X112416948Y-57309532D01*
X112421705Y-57310000D01*
X112579253Y-57310000D01*
X112586145Y-57307145D01*
X112589000Y-57300253D01*
X112889000Y-57300253D01*
X112891855Y-57307145D01*
X112898747Y-57310000D01*
X113056295Y-57310000D01*
X113061052Y-57309532D01*
X113112303Y-57299337D01*
X113121049Y-57295715D01*
X113179181Y-57256872D01*
X113185872Y-57250181D01*
X113224715Y-57192049D01*
X113228337Y-57183303D01*
X113238532Y-57132052D01*
X113239000Y-57127295D01*
X113239000Y-56494747D01*
X113236145Y-56487855D01*
X113229253Y-56485000D01*
X112898747Y-56485000D01*
X112891855Y-56487855D01*
X112889000Y-56494747D01*
X112889000Y-57300253D01*
X112589000Y-57300253D01*
X112589000Y-56175253D01*
X112889000Y-56175253D01*
X112891855Y-56182145D01*
X112898747Y-56185000D01*
X113229253Y-56185000D01*
X113236145Y-56182145D01*
X113239000Y-56175253D01*
X113239000Y-55542705D01*
X113238532Y-55537948D01*
X113228337Y-55486697D01*
X113224715Y-55477951D01*
X113185872Y-55419819D01*
X113179181Y-55413128D01*
X113121049Y-55374285D01*
X113112303Y-55370663D01*
X113061052Y-55360468D01*
X113056295Y-55360000D01*
X112898747Y-55360000D01*
X112891855Y-55362855D01*
X112889000Y-55369747D01*
X112889000Y-56175253D01*
X112589000Y-56175253D01*
X112589000Y-55369747D01*
X112586145Y-55362855D01*
X112579253Y-55360000D01*
X112421705Y-55360000D01*
X112416948Y-55360468D01*
X112365697Y-55370663D01*
X112356951Y-55374285D01*
X112298819Y-55413128D01*
X112292129Y-55419818D01*
X112280042Y-55437907D01*
X112248859Y-55458742D01*
X112212076Y-55451425D01*
X112198558Y-55437906D01*
X112198264Y-55437465D01*
X112183552Y-55415448D01*
X112117231Y-55371133D01*
X112092864Y-55366286D01*
X112061682Y-55345450D01*
X112054366Y-55308668D01*
X112075202Y-55277486D01*
X112079717Y-55274807D01*
X112094231Y-55267217D01*
X112097149Y-55265812D01*
X112111055Y-55259673D01*
X112130844Y-55255499D01*
X112308518Y-55255499D01*
X112366060Y-55246386D01*
X112398498Y-55241249D01*
X112398499Y-55241249D01*
X112402304Y-55240646D01*
X112488523Y-55196715D01*
X112511908Y-55184800D01*
X112511909Y-55184799D01*
X112515342Y-55183050D01*
X112605050Y-55093342D01*
X112619275Y-55065425D01*
X112638567Y-55027561D01*
X112662646Y-54980304D01*
X112677500Y-54886519D01*
X112677499Y-54423482D01*
X112666194Y-54352099D01*
X112663249Y-54333502D01*
X112663249Y-54333501D01*
X112662646Y-54329696D01*
X112617695Y-54241475D01*
X112606800Y-54220092D01*
X112606799Y-54220091D01*
X112605050Y-54216658D01*
X112515342Y-54126950D01*
X112511909Y-54125201D01*
X112511908Y-54125200D01*
X112434973Y-54086000D01*
X112402304Y-54069354D01*
X112398499Y-54068751D01*
X112398498Y-54068751D01*
X112357804Y-54062306D01*
X112308519Y-54054500D01*
X112306595Y-54054500D01*
X112002001Y-54054501D01*
X111695482Y-54054501D01*
X111648304Y-54061973D01*
X111605502Y-54068751D01*
X111605501Y-54068751D01*
X111601696Y-54069354D01*
X111569027Y-54086000D01*
X111492092Y-54125200D01*
X111492091Y-54125201D01*
X111488658Y-54126950D01*
X111398950Y-54216658D01*
X111397201Y-54220091D01*
X111397200Y-54220092D01*
X111386305Y-54241475D01*
X111341354Y-54329696D01*
X111326500Y-54423481D01*
X111326501Y-54886518D01*
X111326802Y-54888417D01*
X111340718Y-54976285D01*
X111341354Y-54980304D01*
X111365433Y-55027561D01*
X111384726Y-55065425D01*
X111398950Y-55093342D01*
X111409473Y-55103865D01*
X111423384Y-55131951D01*
X111425314Y-55146232D01*
X111428804Y-55172064D01*
X111429069Y-55174473D01*
X111435169Y-55246386D01*
X111436006Y-55256256D01*
X111436162Y-55259031D01*
X111437702Y-55314248D01*
X111424322Y-55349283D01*
X111398284Y-55363671D01*
X111360769Y-55371133D01*
X111294448Y-55415448D01*
X111281614Y-55434656D01*
X111279742Y-55437457D01*
X111248559Y-55458292D01*
X111211777Y-55450976D01*
X111198258Y-55437457D01*
X111196387Y-55434656D01*
X111183552Y-55415448D01*
X111117231Y-55371133D01*
X111078938Y-55363516D01*
X111047758Y-55342682D01*
X111039500Y-55315459D01*
X111039500Y-55270945D01*
X111039508Y-55270064D01*
X111039706Y-55259031D01*
X111040962Y-55189241D01*
X111041014Y-55187702D01*
X111041159Y-55184800D01*
X111042839Y-55151019D01*
X111045616Y-55095220D01*
X111045668Y-55094335D01*
X111051348Y-55010706D01*
X111051355Y-55010596D01*
X111051363Y-55010482D01*
X111051409Y-55009775D01*
X111051588Y-55006945D01*
X111056831Y-54987791D01*
X111060646Y-54980304D01*
X111075500Y-54886519D01*
X111075499Y-54423482D01*
X111064194Y-54352099D01*
X111061249Y-54333502D01*
X111061249Y-54333501D01*
X111060646Y-54329696D01*
X111015695Y-54241475D01*
X111004800Y-54220092D01*
X111004799Y-54220091D01*
X111003050Y-54216658D01*
X110913342Y-54126950D01*
X110909909Y-54125201D01*
X110909908Y-54125200D01*
X110832973Y-54086000D01*
X110800304Y-54069354D01*
X110796499Y-54068751D01*
X110796498Y-54068751D01*
X110755804Y-54062306D01*
X110706519Y-54054500D01*
X110691150Y-54054500D01*
X110178711Y-54054501D01*
X110144063Y-54040149D01*
X110129711Y-54005501D01*
X110133441Y-53986750D01*
X110142674Y-53964458D01*
X110143904Y-53961489D01*
X110149139Y-53921729D01*
X110152207Y-53909971D01*
X110153603Y-53906471D01*
X110154883Y-53903263D01*
X110155500Y-53896970D01*
X110155500Y-53876625D01*
X110155919Y-53870231D01*
X110157040Y-53861714D01*
X110157365Y-53859599D01*
X110159392Y-53848103D01*
X110160136Y-53843885D01*
X110156244Y-53821812D01*
X110155500Y-53813303D01*
X110155500Y-53654500D01*
X110169852Y-53619852D01*
X110204500Y-53605500D01*
X110685700Y-53605499D01*
X110706518Y-53605499D01*
X110756091Y-53597648D01*
X110796498Y-53591249D01*
X110796499Y-53591249D01*
X110800304Y-53590646D01*
X110886784Y-53546582D01*
X110909908Y-53534800D01*
X110909909Y-53534799D01*
X110913342Y-53533050D01*
X111003050Y-53443342D01*
X111011412Y-53426932D01*
X111058896Y-53333738D01*
X111060646Y-53330304D01*
X111064570Y-53305532D01*
X111069207Y-53276253D01*
X111075500Y-53236519D01*
X111075499Y-52773482D01*
X111072915Y-52757164D01*
X111081671Y-52720698D01*
X111113648Y-52701103D01*
X111121312Y-52700500D01*
X111247028Y-52700500D01*
X111281676Y-52714852D01*
X111286305Y-52720203D01*
X111304160Y-52744141D01*
X111304163Y-52744145D01*
X111304240Y-52744248D01*
X111311056Y-52753386D01*
X111314319Y-52758365D01*
X111320040Y-52768373D01*
X111326500Y-52792691D01*
X111326501Y-53022538D01*
X111326501Y-53236518D01*
X111341354Y-53330304D01*
X111343104Y-53333738D01*
X111390589Y-53426932D01*
X111398950Y-53443342D01*
X111488658Y-53533050D01*
X111492091Y-53534799D01*
X111492092Y-53534800D01*
X111515216Y-53546582D01*
X111601696Y-53590646D01*
X111605501Y-53591249D01*
X111605502Y-53591249D01*
X111633903Y-53595747D01*
X111695481Y-53605500D01*
X112002000Y-53605500D01*
X112308518Y-53605499D01*
X112358091Y-53597648D01*
X112398498Y-53591249D01*
X112398499Y-53591249D01*
X112402304Y-53590646D01*
X112488784Y-53546582D01*
X112511908Y-53534800D01*
X112511909Y-53534799D01*
X112515342Y-53533050D01*
X112605050Y-53443342D01*
X112613412Y-53426932D01*
X112660896Y-53333738D01*
X112662646Y-53330304D01*
X112666570Y-53305532D01*
X112671207Y-53276253D01*
X112677500Y-53236519D01*
X112677499Y-52773482D01*
X112665941Y-52700500D01*
X112663249Y-52683502D01*
X112663249Y-52683501D01*
X112662646Y-52679696D01*
X112605050Y-52566658D01*
X112515342Y-52476950D01*
X112511909Y-52475201D01*
X112511908Y-52475200D01*
X112434893Y-52435959D01*
X112402304Y-52419354D01*
X112398499Y-52418751D01*
X112398498Y-52418751D01*
X112369316Y-52414129D01*
X112308519Y-52404500D01*
X112089275Y-52404500D01*
X112078119Y-52403213D01*
X112032502Y-52392547D01*
X112032310Y-52392502D01*
X112032140Y-52392464D01*
X112032090Y-52392453D01*
X112027815Y-52391508D01*
X112027789Y-52391502D01*
X112027593Y-52391459D01*
X112027522Y-52391444D01*
X112027466Y-52391432D01*
X112027148Y-52391366D01*
X112027124Y-52391361D01*
X112027051Y-52391346D01*
X112023981Y-52390743D01*
X112022611Y-52390474D01*
X112022588Y-52390470D01*
X112022493Y-52390451D01*
X111959862Y-52378904D01*
X111958138Y-52378594D01*
X111957984Y-52378567D01*
X111957077Y-52378410D01*
X111902643Y-52369125D01*
X111901203Y-52368857D01*
X111858879Y-52360280D01*
X111855194Y-52359383D01*
X111835351Y-52353733D01*
X111823712Y-52350419D01*
X111818464Y-52348596D01*
X111791334Y-52337415D01*
X111785693Y-52334655D01*
X111755363Y-52317319D01*
X111750384Y-52314056D01*
X111711252Y-52284867D01*
X111707401Y-52281677D01*
X111661980Y-52239948D01*
X111660483Y-52238512D01*
X111648821Y-52226850D01*
X111644352Y-52221673D01*
X111642425Y-52217731D01*
X111605459Y-52183440D01*
X111604135Y-52182164D01*
X111589723Y-52167752D01*
X111587866Y-52166478D01*
X111586729Y-52165533D01*
X111582572Y-52162209D01*
X111563668Y-52144673D01*
X111560354Y-52141599D01*
X111556159Y-52139925D01*
X111556152Y-52139921D01*
X111544491Y-52135269D01*
X111534931Y-52130165D01*
X111524584Y-52123067D01*
X111524585Y-52123067D01*
X111520854Y-52120508D01*
X111516452Y-52119463D01*
X111516451Y-52119463D01*
X111506767Y-52117165D01*
X111491369Y-52113511D01*
X111484527Y-52111347D01*
X111459597Y-52101401D01*
X111459595Y-52101401D01*
X111456378Y-52100117D01*
X111452933Y-52099779D01*
X111452932Y-52099779D01*
X111451271Y-52099616D01*
X111451265Y-52099616D01*
X111450085Y-52099500D01*
X111438064Y-52099500D01*
X111426750Y-52098176D01*
X111416338Y-52095705D01*
X111416337Y-52095705D01*
X111411934Y-52094660D01*
X111386099Y-52098176D01*
X111379662Y-52099052D01*
X111373054Y-52099500D01*
X107255626Y-52099500D01*
X107248805Y-52098999D01*
X107244658Y-52097575D01*
X107194280Y-52099466D01*
X107192442Y-52099500D01*
X107172052Y-52099500D01*
X107169831Y-52099914D01*
X107168362Y-52100049D01*
X107163074Y-52100637D01*
X107137317Y-52101604D01*
X107137316Y-52101604D01*
X107132792Y-52101774D01*
X107128633Y-52103561D01*
X107128632Y-52103561D01*
X107117106Y-52108513D01*
X107106736Y-52111664D01*
X107094392Y-52113963D01*
X107094391Y-52113963D01*
X107089947Y-52114791D01*
X107086098Y-52117163D01*
X107086094Y-52117165D01*
X107064151Y-52130691D01*
X107057783Y-52134000D01*
X107040097Y-52141599D01*
X107029937Y-52145964D01*
X107025051Y-52149978D01*
X107016553Y-52158476D01*
X107007617Y-52165540D01*
X106998504Y-52171157D01*
X106998502Y-52171159D01*
X106994652Y-52173532D01*
X106991913Y-52177134D01*
X106991912Y-52177135D01*
X106974936Y-52199460D01*
X106970580Y-52204449D01*
X106755881Y-52419148D01*
X106721233Y-52433500D01*
X106355782Y-52433500D01*
X106354025Y-52433759D01*
X106354020Y-52433759D01*
X106315639Y-52439410D01*
X106286888Y-52443642D01*
X106283473Y-52445319D01*
X106283472Y-52445319D01*
X106274321Y-52449812D01*
X106182145Y-52495068D01*
X106110397Y-52566941D01*
X106075764Y-52581322D01*
X106041073Y-52566970D01*
X105410260Y-51936157D01*
X105396030Y-51904969D01*
X105394916Y-51889227D01*
X105394915Y-51889224D01*
X105394657Y-51885576D01*
X105380131Y-51848028D01*
X105378472Y-51842920D01*
X105369098Y-51807568D01*
X105369097Y-51807566D01*
X105368158Y-51804024D01*
X105357300Y-51786614D01*
X105353187Y-51778382D01*
X105345779Y-51759234D01*
X105320864Y-51727630D01*
X105317767Y-51723223D01*
X105298413Y-51692189D01*
X105296473Y-51689078D01*
X105293707Y-51686678D01*
X105293702Y-51686672D01*
X105280974Y-51675627D01*
X105274609Y-51668956D01*
X105270445Y-51663674D01*
X105261912Y-51652850D01*
X105258902Y-51650770D01*
X105258898Y-51650766D01*
X105228812Y-51629974D01*
X105224555Y-51626672D01*
X105196927Y-51602697D01*
X105196925Y-51602695D01*
X105194156Y-51600293D01*
X105175390Y-51591996D01*
X105167350Y-51587494D01*
X105158714Y-51581526D01*
X105150471Y-51575829D01*
X105146980Y-51574725D01*
X105146978Y-51574724D01*
X105112108Y-51563696D01*
X105107071Y-51561793D01*
X105073607Y-51546999D01*
X105070257Y-51545518D01*
X105066620Y-51545087D01*
X105066618Y-51545087D01*
X105049883Y-51543106D01*
X105040872Y-51541166D01*
X105021310Y-51534980D01*
X105014703Y-51534460D01*
X104979712Y-51534460D01*
X104973953Y-51534120D01*
X104935729Y-51529596D01*
X104932126Y-51530254D01*
X104913461Y-51533663D01*
X104904657Y-51534460D01*
X98387712Y-51534460D01*
X98381953Y-51534120D01*
X98343729Y-51529596D01*
X98340127Y-51530254D01*
X98340125Y-51530254D01*
X98284812Y-51540356D01*
X98283294Y-51540608D01*
X98227700Y-51548966D01*
X98227697Y-51548967D01*
X98224078Y-51549511D01*
X98220778Y-51551095D01*
X98217447Y-51552120D01*
X98214069Y-51553277D01*
X98210466Y-51553935D01*
X98157326Y-51581538D01*
X98155975Y-51582213D01*
X98135599Y-51591998D01*
X98101961Y-51608151D01*
X98099271Y-51610638D01*
X98096242Y-51612696D01*
X98096050Y-51612414D01*
X98094859Y-51613251D01*
X98095048Y-51613531D01*
X98092728Y-51615094D01*
X98090251Y-51616381D01*
X98085212Y-51620685D01*
X98046904Y-51658993D01*
X98045517Y-51660327D01*
X98005175Y-51697618D01*
X98005174Y-51697620D01*
X98002484Y-51700106D01*
X98000645Y-51703273D01*
X97998353Y-51706133D01*
X97998316Y-51706103D01*
X97993383Y-51712514D01*
X96106744Y-53599153D01*
X96072096Y-53613505D01*
X96037448Y-53599153D01*
X96031111Y-53589669D01*
X96022253Y-53586000D01*
X95516747Y-53586000D01*
X95509855Y-53588855D01*
X95507000Y-53595747D01*
X95507000Y-54076252D01*
X95509855Y-54083144D01*
X95516911Y-54086067D01*
X95543430Y-54112585D01*
X95543430Y-54150088D01*
X95529836Y-54168722D01*
X95494148Y-54198961D01*
X95492060Y-54200635D01*
X95450342Y-54232237D01*
X95447727Y-54234086D01*
X95426058Y-54248374D01*
X95426054Y-54248376D01*
X95426042Y-54248384D01*
X95426037Y-54248387D01*
X95409938Y-54259003D01*
X95407021Y-54260784D01*
X95369559Y-54281890D01*
X95366714Y-54283372D01*
X95325581Y-54303120D01*
X95323220Y-54304178D01*
X95274777Y-54324363D01*
X95273136Y-54325012D01*
X95253488Y-54332380D01*
X95236283Y-54335500D01*
X95073512Y-54335500D01*
X95008859Y-54345740D01*
X94977680Y-54350678D01*
X94977679Y-54350678D01*
X94973874Y-54351281D01*
X94969898Y-54353307D01*
X94857214Y-54410722D01*
X94857213Y-54410723D01*
X94853780Y-54412472D01*
X94758472Y-54507780D01*
X94757132Y-54506440D01*
X94729609Y-54522930D01*
X94725415Y-54523509D01*
X94706180Y-54526163D01*
X94703542Y-54526454D01*
X94689061Y-54527651D01*
X94684552Y-54528023D01*
X94684532Y-54528025D01*
X94668618Y-54529341D01*
X94640542Y-54531662D01*
X94638531Y-54531786D01*
X94614545Y-54532763D01*
X94580434Y-54534153D01*
X94577259Y-54534179D01*
X94548609Y-54533471D01*
X94547240Y-54533417D01*
X94535357Y-54532777D01*
X94525007Y-54532219D01*
X94493027Y-54517969D01*
X94474117Y-54499092D01*
X94417125Y-54442199D01*
X94398495Y-54433092D01*
X94309732Y-54389704D01*
X94309731Y-54389704D01*
X94306311Y-54388032D01*
X94234117Y-54377500D01*
X93869410Y-54377500D01*
X93503884Y-54377501D01*
X93502128Y-54377760D01*
X93502121Y-54377760D01*
X93461986Y-54383668D01*
X93431061Y-54388220D01*
X93320341Y-54442581D01*
X93233199Y-54529875D01*
X93231420Y-54533515D01*
X93231419Y-54533516D01*
X93181089Y-54636481D01*
X93179032Y-54640689D01*
X93168500Y-54712883D01*
X86047719Y-54712883D01*
X86041162Y-54706726D01*
X85801721Y-54532763D01*
X85798045Y-54530092D01*
X85798043Y-54530091D01*
X85796795Y-54529184D01*
X85791297Y-54526161D01*
X85737711Y-54496702D01*
X85532104Y-54383668D01*
X85331335Y-54304178D01*
X85252687Y-54273039D01*
X85252684Y-54273038D01*
X85251262Y-54272475D01*
X84958698Y-54197358D01*
X84957181Y-54197166D01*
X84957179Y-54197166D01*
X84872884Y-54186517D01*
X84659027Y-54159500D01*
X84356973Y-54159500D01*
X84143116Y-54186517D01*
X84058821Y-54197166D01*
X84058819Y-54197166D01*
X84057302Y-54197358D01*
X83764738Y-54272475D01*
X83763316Y-54273038D01*
X83763313Y-54273039D01*
X83684665Y-54304178D01*
X83483896Y-54383668D01*
X83278289Y-54496702D01*
X83224704Y-54526161D01*
X83219205Y-54529184D01*
X83217957Y-54530091D01*
X83217955Y-54530092D01*
X83214279Y-54532763D01*
X82974838Y-54706726D01*
X82860212Y-54814367D01*
X82782988Y-54886886D01*
X82754651Y-54913496D01*
X82643114Y-55048321D01*
X82564171Y-55143747D01*
X82562115Y-55146232D01*
X82561285Y-55147540D01*
X82409656Y-55386470D01*
X82400267Y-55401264D01*
X82399611Y-55402658D01*
X82285563Y-55645023D01*
X82271659Y-55674570D01*
X82178319Y-55961840D01*
X82121720Y-56258543D01*
X82112237Y-56409271D01*
X82108590Y-56467247D01*
X82102754Y-56560000D01*
X81663001Y-56560000D01*
X81663001Y-54073287D01*
X81664247Y-54062306D01*
X81666908Y-54050736D01*
X81666908Y-54050734D01*
X81668144Y-54045359D01*
X81665524Y-54033778D01*
X81664393Y-54020218D01*
X81665170Y-54006392D01*
X81674533Y-53839665D01*
X81680453Y-53734250D01*
X81681068Y-53728790D01*
X81687230Y-53692526D01*
X94682001Y-53692526D01*
X94682302Y-53696349D01*
X94697159Y-53790163D01*
X94699512Y-53797403D01*
X94757132Y-53910489D01*
X94761608Y-53916649D01*
X94851351Y-54006392D01*
X94857511Y-54010868D01*
X94970597Y-54068488D01*
X94977837Y-54070841D01*
X95071651Y-54085699D01*
X95075473Y-54086000D01*
X95197253Y-54086000D01*
X95204145Y-54083145D01*
X95207000Y-54076253D01*
X95207000Y-53595747D01*
X95204145Y-53588855D01*
X95197253Y-53586000D01*
X94691748Y-53586000D01*
X94684856Y-53588855D01*
X94682001Y-53595747D01*
X94682001Y-53692526D01*
X81687230Y-53692526D01*
X81732743Y-53424653D01*
X81733966Y-53419296D01*
X81775176Y-53276253D01*
X94682000Y-53276253D01*
X94684855Y-53283145D01*
X94691747Y-53286000D01*
X95197253Y-53286000D01*
X95204145Y-53283145D01*
X95207000Y-53276253D01*
X95507000Y-53276253D01*
X95509855Y-53283145D01*
X95516747Y-53286000D01*
X96022252Y-53286000D01*
X96029144Y-53283145D01*
X96031999Y-53276253D01*
X96031999Y-53179474D01*
X96031698Y-53175651D01*
X96016841Y-53081837D01*
X96014488Y-53074597D01*
X95956868Y-52961511D01*
X95952392Y-52955351D01*
X95862649Y-52865608D01*
X95856489Y-52861132D01*
X95743403Y-52803512D01*
X95736163Y-52801159D01*
X95642349Y-52786301D01*
X95638527Y-52786000D01*
X95516747Y-52786000D01*
X95509855Y-52788855D01*
X95507000Y-52795747D01*
X95507000Y-53276253D01*
X95207000Y-53276253D01*
X95207000Y-52795748D01*
X95204145Y-52788856D01*
X95197253Y-52786001D01*
X95075474Y-52786001D01*
X95071651Y-52786302D01*
X94977837Y-52801159D01*
X94970597Y-52803512D01*
X94857511Y-52861132D01*
X94851351Y-52865608D01*
X94761608Y-52955351D01*
X94757132Y-52961511D01*
X94699512Y-53074597D01*
X94697159Y-53081837D01*
X94682301Y-53175651D01*
X94682000Y-53179473D01*
X94682000Y-53276253D01*
X81775176Y-53276253D01*
X81819367Y-53122861D01*
X81821182Y-53117675D01*
X81827240Y-53103050D01*
X81939236Y-52832667D01*
X81941618Y-52827720D01*
X81943091Y-52825056D01*
X82023429Y-52679696D01*
X82090844Y-52557718D01*
X82093762Y-52553073D01*
X82272287Y-52301465D01*
X82275702Y-52297183D01*
X82328134Y-52238512D01*
X82481270Y-52067152D01*
X82485154Y-52063268D01*
X82666906Y-51900845D01*
X82715186Y-51857699D01*
X82719465Y-51854287D01*
X82971073Y-51675762D01*
X82975718Y-51672844D01*
X83151252Y-51575829D01*
X83245724Y-51523616D01*
X83250667Y-51521236D01*
X83535678Y-51403181D01*
X83540861Y-51401367D01*
X83837296Y-51315966D01*
X83842653Y-51314743D01*
X84146790Y-51263068D01*
X84152250Y-51262453D01*
X84371427Y-51250144D01*
X84437792Y-51246417D01*
X84451517Y-51247586D01*
X84455882Y-51248589D01*
X84457267Y-51248908D01*
X84457268Y-51248908D01*
X84462643Y-51250144D01*
X84480034Y-51246209D01*
X84490847Y-51245001D01*
X120434714Y-51245001D01*
X120445695Y-51246247D01*
G37*
%TD.AperFunction*%
%TD*%
M02*
