%TF.GenerationSoftware,KiCad,Pcbnew,(7.0.0)*%
%TF.CreationDate,2023-10-06T02:17:28-07:00*%
%TF.ProjectId,daughterboard,64617567-6874-4657-9262-6f6172642e6b,1.0*%
%TF.SameCoordinates,Original*%
%TF.FileFunction,Legend,Top*%
%TF.FilePolarity,Positive*%
%FSLAX46Y46*%
G04 Gerber Fmt 4.6, Leading zero omitted, Abs format (unit mm)*
G04 Created by KiCad (PCBNEW (7.0.0)) date 2023-10-06 02:17:28*
%MOMM*%
%LPD*%
G01*
G04 APERTURE LIST*
G04 Aperture macros list*
%AMRoundRect*
0 Rectangle with rounded corners*
0 $1 Rounding radius*
0 $2 $3 $4 $5 $6 $7 $8 $9 X,Y pos of 4 corners*
0 Add a 4 corners polygon primitive as box body*
4,1,4,$2,$3,$4,$5,$6,$7,$8,$9,$2,$3,0*
0 Add four circle primitives for the rounded corners*
1,1,$1+$1,$2,$3*
1,1,$1+$1,$4,$5*
1,1,$1+$1,$6,$7*
1,1,$1+$1,$8,$9*
0 Add four rect primitives between the rounded corners*
20,1,$1+$1,$2,$3,$4,$5,0*
20,1,$1+$1,$4,$5,$6,$7,0*
20,1,$1+$1,$6,$7,$8,$9,0*
20,1,$1+$1,$8,$9,$2,$3,0*%
G04 Aperture macros list end*
%ADD10C,0.150000*%
%ADD11C,0.120000*%
%ADD12R,1.200000X1.800000*%
%ADD13R,0.600000X1.550000*%
%ADD14RoundRect,0.225000X0.250000X-0.225000X0.250000X0.225000X-0.250000X0.225000X-0.250000X-0.225000X0*%
%ADD15R,1.100000X1.100000*%
%ADD16RoundRect,0.170000X0.330000X-0.255000X0.330000X0.255000X-0.330000X0.255000X-0.330000X-0.255000X0*%
%ADD17RoundRect,0.150000X0.150000X-0.512500X0.150000X0.512500X-0.150000X0.512500X-0.150000X-0.512500X0*%
%ADD18RoundRect,0.170000X0.255000X0.330000X-0.255000X0.330000X-0.255000X-0.330000X0.255000X-0.330000X0*%
%ADD19RoundRect,0.200000X-0.275000X0.200000X-0.275000X-0.200000X0.275000X-0.200000X0.275000X0.200000X0*%
%ADD20RoundRect,0.243750X0.243750X0.456250X-0.243750X0.456250X-0.243750X-0.456250X0.243750X-0.456250X0*%
%ADD21C,4.400000*%
%ADD22RoundRect,0.225000X-0.250000X0.225000X-0.250000X-0.225000X0.250000X-0.225000X0.250000X0.225000X0*%
%ADD23RoundRect,0.200000X0.275000X-0.200000X0.275000X0.200000X-0.275000X0.200000X-0.275000X-0.200000X0*%
%ADD24C,0.580000*%
%ADD25C,0.660000*%
%ADD26C,1.100000*%
G04 APERTURE END LIST*
D10*
%TO.C,J2*%
X108239000Y-56710000D02*
X109239000Y-56710000D01*
X108239000Y-59110000D02*
X108239000Y-56710000D01*
X113239000Y-56710000D02*
X114239000Y-56710000D01*
X113239000Y-60910000D02*
X109239000Y-60910000D01*
X114239000Y-56710000D02*
X114239000Y-59110000D01*
D11*
%TO.C,C2*%
X94847000Y-54351580D02*
X94847000Y-54070420D01*
X95867000Y-54351580D02*
X95867000Y-54070420D01*
%TO.C,D1*%
X97354000Y-62102000D02*
X99354000Y-62102000D01*
X97354000Y-62102000D02*
X97354000Y-58252000D01*
X99354000Y-62102000D02*
X99354000Y-58252000D01*
D10*
%TO.C,FB1*%
X93219000Y-56703000D02*
X93219000Y-55003000D01*
X94519000Y-56703000D02*
X94519000Y-55003000D01*
D11*
%TO.C,U1*%
X105929000Y-54434000D02*
X105929000Y-56234000D01*
X105929000Y-54434000D02*
X105929000Y-53634000D01*
X109049000Y-54434000D02*
X109049000Y-55234000D01*
X109049000Y-54434000D02*
X109049000Y-53634000D01*
D10*
%TO.C,FB2*%
X103681000Y-62946000D02*
X101981000Y-62946000D01*
X103681000Y-61646000D02*
X101981000Y-61646000D01*
D11*
%TO.C,R1*%
X106872500Y-58957742D02*
X106872500Y-59432258D01*
X105827500Y-58957742D02*
X105827500Y-59432258D01*
%TO.C,F1*%
X98127578Y-57321000D02*
X97610422Y-57321000D01*
X98127578Y-55901000D02*
X97610422Y-55901000D01*
%TO.C,R3*%
X110922500Y-53592742D02*
X110922500Y-54067258D01*
X109877500Y-53592742D02*
X109877500Y-54067258D01*
%TO.C,R4*%
X112524511Y-53592733D02*
X112524511Y-54067249D01*
X111479511Y-53592733D02*
X111479511Y-54067249D01*
%TO.C,C1*%
X95917000Y-57098420D02*
X95917000Y-57379580D01*
X94897000Y-57098420D02*
X94897000Y-57379580D01*
%TO.C,R2*%
X98267500Y-54280258D02*
X98267500Y-53805742D01*
X99312500Y-54280258D02*
X99312500Y-53805742D01*
%TD*%
%LPC*%
%TO.C,G\u002A\u002A\u002A*%
G36*
X90833000Y-60925268D02*
G01*
X90695000Y-60990401D01*
X90664068Y-61004969D01*
X90635400Y-61018415D01*
X90609799Y-61030363D01*
X90588074Y-61040441D01*
X90571029Y-61048274D01*
X90559471Y-61053490D01*
X90554205Y-61055713D01*
X90554000Y-61055766D01*
X90553412Y-61051939D01*
X90552863Y-61040868D01*
X90552363Y-61023310D01*
X90551924Y-61000020D01*
X90551557Y-60971754D01*
X90551274Y-60939270D01*
X90551085Y-60903322D01*
X90551002Y-60864668D01*
X90551000Y-60856000D01*
X90551000Y-60656000D01*
X90835106Y-60656000D01*
X90833000Y-60925268D01*
G37*
G36*
X90558000Y-60037813D02*
G01*
X90563126Y-60040054D01*
X90574659Y-60045267D01*
X90591746Y-60053061D01*
X90613533Y-60063045D01*
X90639168Y-60074828D01*
X90667799Y-60088020D01*
X90698572Y-60102229D01*
X90700000Y-60102889D01*
X90835000Y-60165297D01*
X90835000Y-60432000D01*
X90551000Y-60432000D01*
X90551000Y-60233572D01*
X90551012Y-60188602D01*
X90551066Y-60150991D01*
X90551183Y-60120094D01*
X90551387Y-60095271D01*
X90551700Y-60075877D01*
X90552146Y-60061271D01*
X90552748Y-60050811D01*
X90553528Y-60043853D01*
X90554510Y-60039756D01*
X90555716Y-60037877D01*
X90557170Y-60037573D01*
X90558000Y-60037813D01*
G37*
G36*
X90586665Y-58681808D02*
G01*
X91187385Y-58681808D01*
X91189735Y-58707880D01*
X91198020Y-58731870D01*
X91211368Y-58752967D01*
X91228906Y-58770363D01*
X91249763Y-58783246D01*
X91273067Y-58790807D01*
X91297944Y-58792235D01*
X91323523Y-58786722D01*
X91331000Y-58783685D01*
X91354841Y-58769013D01*
X91373633Y-58749549D01*
X91386838Y-58726603D01*
X91393917Y-58701486D01*
X91394334Y-58675506D01*
X91387551Y-58649974D01*
X91386685Y-58648000D01*
X91371396Y-58623212D01*
X91351096Y-58604056D01*
X91326931Y-58591057D01*
X91300049Y-58584739D01*
X91271596Y-58585628D01*
X91257464Y-58588843D01*
X91242798Y-58596000D01*
X91226785Y-58608237D01*
X91211552Y-58623428D01*
X91199226Y-58639447D01*
X91191932Y-58654166D01*
X91191843Y-58654464D01*
X91187385Y-58681808D01*
X90586665Y-58681808D01*
X90586849Y-58679544D01*
X90587420Y-58676512D01*
X90593061Y-58666115D01*
X90600416Y-58658917D01*
X90600420Y-58658915D01*
X90604380Y-58657836D01*
X90612569Y-58656870D01*
X90625420Y-58656006D01*
X90643368Y-58655233D01*
X90666844Y-58654539D01*
X90696283Y-58653913D01*
X90732117Y-58653344D01*
X90774780Y-58652820D01*
X90824704Y-58652330D01*
X90864451Y-58652000D01*
X91119903Y-58650000D01*
X91127004Y-58627047D01*
X91141152Y-58593611D01*
X91161506Y-58565028D01*
X91188292Y-58541040D01*
X91218915Y-58522759D01*
X91230384Y-58517323D01*
X91239946Y-58513699D01*
X91249725Y-58511522D01*
X91261848Y-58510424D01*
X91278438Y-58510040D01*
X91292915Y-58510000D01*
X91313589Y-58510108D01*
X91328411Y-58510685D01*
X91339531Y-58512109D01*
X91349096Y-58514757D01*
X91359255Y-58519009D01*
X91368026Y-58523216D01*
X91399511Y-58542960D01*
X91425889Y-58568792D01*
X91446867Y-58600413D01*
X91450547Y-58607738D01*
X91457081Y-58621877D01*
X91461271Y-58633034D01*
X91463631Y-58643788D01*
X91464673Y-58656721D01*
X91464910Y-58674413D01*
X91464903Y-58680000D01*
X91463546Y-58709810D01*
X91459124Y-58734383D01*
X91450884Y-58756139D01*
X91438071Y-58777500D01*
X91431932Y-58785904D01*
X91407079Y-58812591D01*
X91378749Y-58832732D01*
X91347910Y-58846431D01*
X91315533Y-58853792D01*
X91282587Y-58854920D01*
X91250043Y-58849917D01*
X91218870Y-58838888D01*
X91190039Y-58821936D01*
X91164518Y-58799166D01*
X91143278Y-58770682D01*
X91134428Y-58754034D01*
X91122245Y-58728000D01*
X90658960Y-58728000D01*
X90661000Y-59505868D01*
X90897000Y-59642893D01*
X90937532Y-59666468D01*
X90976570Y-59689256D01*
X91013473Y-59710875D01*
X91047600Y-59730948D01*
X91078312Y-59749096D01*
X91104967Y-59764940D01*
X91126926Y-59778101D01*
X91143548Y-59788199D01*
X91154192Y-59794857D01*
X91157000Y-59796726D01*
X91201041Y-59832410D01*
X91239725Y-59873888D01*
X91272707Y-59920721D01*
X91299638Y-59972465D01*
X91305200Y-59985656D01*
X91318247Y-60018000D01*
X91634623Y-60019024D01*
X91951000Y-60020048D01*
X91951000Y-59556754D01*
X91925106Y-59544637D01*
X91894729Y-59526233D01*
X91869025Y-59502219D01*
X91848611Y-59473749D01*
X91834100Y-59441979D01*
X91826107Y-59408063D01*
X91825573Y-59386403D01*
X91887304Y-59386403D01*
X91890533Y-59414081D01*
X91900396Y-59439171D01*
X91915876Y-59460706D01*
X91935955Y-59477723D01*
X91959617Y-59489255D01*
X91985845Y-59494337D01*
X92000757Y-59494056D01*
X92015904Y-59491093D01*
X92033009Y-59485553D01*
X92042199Y-59481588D01*
X92064986Y-59466187D01*
X92082368Y-59445435D01*
X92093694Y-59420414D01*
X92098316Y-59392207D01*
X92098391Y-59388000D01*
X92094737Y-59358963D01*
X92084097Y-59333300D01*
X92066950Y-59311795D01*
X92043779Y-59295232D01*
X92040442Y-59293529D01*
X92013414Y-59284255D01*
X91986536Y-59282240D01*
X91960860Y-59286846D01*
X91937437Y-59297435D01*
X91917319Y-59313371D01*
X91901555Y-59334015D01*
X91891198Y-59358731D01*
X91887304Y-59386403D01*
X91825573Y-59386403D01*
X91825247Y-59373157D01*
X91826890Y-59360035D01*
X91836379Y-59324589D01*
X91851594Y-59293756D01*
X91871669Y-59267671D01*
X91895737Y-59246467D01*
X91922934Y-59230280D01*
X91952393Y-59219246D01*
X91983249Y-59213498D01*
X92014636Y-59213171D01*
X92045688Y-59218401D01*
X92075539Y-59229323D01*
X92103324Y-59246070D01*
X92128177Y-59268779D01*
X92149232Y-59297583D01*
X92155410Y-59308865D01*
X92168289Y-59342586D01*
X92173793Y-59377068D01*
X92172327Y-59411317D01*
X92164297Y-59444338D01*
X92150106Y-59475135D01*
X92130161Y-59502716D01*
X92104865Y-59526084D01*
X92074624Y-59544246D01*
X92056685Y-59551436D01*
X92033000Y-59559430D01*
X92029000Y-60071822D01*
X92006820Y-60094000D01*
X91337000Y-60096140D01*
X91335791Y-60264098D01*
X91334583Y-60432057D01*
X91597068Y-60431028D01*
X91859552Y-60430000D01*
X91866340Y-60409947D01*
X91881675Y-60376083D01*
X91902678Y-60346961D01*
X91928459Y-60323128D01*
X91958129Y-60305132D01*
X91990799Y-60293519D01*
X92025580Y-60288836D01*
X92059352Y-60291233D01*
X92095413Y-60301158D01*
X92127748Y-60317548D01*
X92155574Y-60339700D01*
X92178105Y-60366913D01*
X92194556Y-60398483D01*
X92200830Y-60417840D01*
X92206439Y-60454397D01*
X92204607Y-60489954D01*
X92195894Y-60523654D01*
X92180856Y-60554637D01*
X92160053Y-60582044D01*
X92134042Y-60605016D01*
X92103382Y-60622695D01*
X92068631Y-60634221D01*
X92058964Y-60636109D01*
X92023984Y-60638084D01*
X91989561Y-60632696D01*
X91956850Y-60620560D01*
X91927006Y-60602289D01*
X91901184Y-60578499D01*
X91880539Y-60549804D01*
X91874362Y-60537893D01*
X91862245Y-60511999D01*
X91599252Y-60512000D01*
X91336259Y-60512000D01*
X91333641Y-60581000D01*
X91332802Y-60607700D01*
X91332074Y-60639643D01*
X91331501Y-60674073D01*
X91331132Y-60708234D01*
X91331012Y-60736933D01*
X91331000Y-60823866D01*
X92006820Y-60826000D01*
X92017910Y-60837088D01*
X92029000Y-60848177D01*
X92031000Y-61110373D01*
X92033000Y-61372568D01*
X92056685Y-61380563D01*
X92089338Y-61395579D01*
X92117570Y-61416555D01*
X92140772Y-61442481D01*
X92158341Y-61472350D01*
X92169670Y-61505154D01*
X92174153Y-61539884D01*
X92171802Y-61572139D01*
X92162099Y-61607570D01*
X92146442Y-61638684D01*
X92125722Y-61665192D01*
X92100832Y-61686804D01*
X92072662Y-61703233D01*
X92042106Y-61714188D01*
X92010053Y-61719382D01*
X91977397Y-61718524D01*
X91945029Y-61711325D01*
X91913839Y-61697497D01*
X91884721Y-61676751D01*
X91875558Y-61668177D01*
X91852925Y-61640301D01*
X91837108Y-61609552D01*
X91827940Y-61576955D01*
X91825251Y-61543534D01*
X91825809Y-61538417D01*
X91891340Y-61538417D01*
X91893881Y-61565319D01*
X91902708Y-61590122D01*
X91917067Y-61611780D01*
X91936202Y-61629247D01*
X91959358Y-61641476D01*
X91985779Y-61647420D01*
X91995000Y-61647824D01*
X92017384Y-61645328D01*
X92035000Y-61639685D01*
X92058841Y-61625013D01*
X92077633Y-61605549D01*
X92090838Y-61582603D01*
X92097917Y-61557486D01*
X92098334Y-61531506D01*
X92091551Y-61505974D01*
X92090685Y-61504000D01*
X92075396Y-61479212D01*
X92055096Y-61460056D01*
X92030931Y-61447057D01*
X92004049Y-61440739D01*
X91975596Y-61441628D01*
X91961464Y-61444843D01*
X91946798Y-61452000D01*
X91930785Y-61464237D01*
X91915552Y-61479428D01*
X91903226Y-61495447D01*
X91895932Y-61510166D01*
X91895843Y-61510464D01*
X91891340Y-61538417D01*
X91825809Y-61538417D01*
X91828871Y-61510314D01*
X91838632Y-61478319D01*
X91854363Y-61448574D01*
X91875896Y-61422104D01*
X91903061Y-61399932D01*
X91921637Y-61389294D01*
X91951000Y-61374783D01*
X91951000Y-60904000D01*
X91332245Y-60904000D01*
X91329780Y-60961000D01*
X91325500Y-61015304D01*
X91317448Y-61063586D01*
X91305322Y-61107032D01*
X91288817Y-61146829D01*
X91276458Y-61169841D01*
X91260636Y-61193155D01*
X91239959Y-61218248D01*
X91216513Y-61242925D01*
X91192388Y-61264991D01*
X91169670Y-61282249D01*
X91169396Y-61282430D01*
X91161977Y-61287058D01*
X91148271Y-61295333D01*
X91128908Y-61306883D01*
X91104519Y-61321336D01*
X91075734Y-61338320D01*
X91043184Y-61357464D01*
X91007500Y-61378395D01*
X90969311Y-61400744D01*
X90929249Y-61424137D01*
X90905396Y-61438041D01*
X90665000Y-61578082D01*
X90662954Y-62248000D01*
X90893102Y-62248000D01*
X90941894Y-62247988D01*
X90983298Y-62247940D01*
X91017923Y-62247838D01*
X91046381Y-62247663D01*
X91069283Y-62247397D01*
X91087240Y-62247021D01*
X91100863Y-62246518D01*
X91110763Y-62245868D01*
X91117552Y-62245053D01*
X91121839Y-62244056D01*
X91124235Y-62242856D01*
X91125353Y-62241437D01*
X91125520Y-62241000D01*
X91134399Y-62219387D01*
X91146781Y-62196733D01*
X91160757Y-62176250D01*
X91171190Y-62164190D01*
X91199170Y-62141391D01*
X91229812Y-62125501D01*
X91262157Y-62116297D01*
X91295241Y-62113557D01*
X91328105Y-62117056D01*
X91359785Y-62126573D01*
X91389322Y-62141884D01*
X91415753Y-62162767D01*
X91438118Y-62188999D01*
X91455454Y-62220356D01*
X91459651Y-62231067D01*
X91465838Y-62256911D01*
X91468048Y-62286319D01*
X91466282Y-62315917D01*
X91460540Y-62342326D01*
X91459651Y-62344932D01*
X91443999Y-62377802D01*
X91422688Y-62406003D01*
X91396706Y-62429066D01*
X91367042Y-62446524D01*
X91334682Y-62457909D01*
X91300617Y-62462754D01*
X91265833Y-62460589D01*
X91233748Y-62451892D01*
X91200252Y-62435039D01*
X91171671Y-62412016D01*
X91148540Y-62383349D01*
X91132629Y-62352676D01*
X91123413Y-62330000D01*
X90607177Y-62326000D01*
X90596088Y-62314910D01*
X90585000Y-62303820D01*
X90584957Y-62296566D01*
X91189156Y-62296566D01*
X91193745Y-62322207D01*
X91204332Y-62345560D01*
X91220276Y-62365590D01*
X91240937Y-62381260D01*
X91265676Y-62391537D01*
X91293853Y-62395385D01*
X91295000Y-62395391D01*
X91310158Y-62394512D01*
X91324164Y-62392275D01*
X91329736Y-62390695D01*
X91355246Y-62377309D01*
X91375910Y-62358331D01*
X91390893Y-62334945D01*
X91399355Y-62308335D01*
X91400963Y-62290000D01*
X91397265Y-62261693D01*
X91386784Y-62236464D01*
X91370440Y-62215228D01*
X91349150Y-62198897D01*
X91323834Y-62188386D01*
X91295410Y-62184609D01*
X91295000Y-62184608D01*
X91265963Y-62188262D01*
X91240300Y-62198902D01*
X91218795Y-62216049D01*
X91202232Y-62239220D01*
X91200529Y-62242557D01*
X91191204Y-62269671D01*
X91189156Y-62296566D01*
X90584957Y-62296566D01*
X90583000Y-61964438D01*
X90581000Y-61625055D01*
X90547000Y-61645546D01*
X90509963Y-61664811D01*
X90469371Y-61680549D01*
X90426753Y-61692503D01*
X90383636Y-61700417D01*
X90341550Y-61704034D01*
X90302022Y-61703100D01*
X90266581Y-61697356D01*
X90256000Y-61694348D01*
X90247000Y-61691460D01*
X90247000Y-61925855D01*
X90247011Y-61975129D01*
X90247058Y-62017008D01*
X90247157Y-62052098D01*
X90247328Y-62081003D01*
X90247587Y-62104331D01*
X90247953Y-62122685D01*
X90248443Y-62136671D01*
X90249076Y-62146894D01*
X90249869Y-62153961D01*
X90250840Y-62158476D01*
X90252008Y-62161044D01*
X90253390Y-62162271D01*
X90254000Y-62162520D01*
X90289395Y-62177874D01*
X90319950Y-62199089D01*
X90345070Y-62225475D01*
X90364160Y-62256340D01*
X90376625Y-62290995D01*
X90380082Y-62308786D01*
X90381331Y-62344194D01*
X90375271Y-62378332D01*
X90362585Y-62410284D01*
X90343955Y-62439134D01*
X90320064Y-62463966D01*
X90291596Y-62483865D01*
X90259233Y-62497916D01*
X90234655Y-62503776D01*
X90219150Y-62506166D01*
X90208232Y-62507205D01*
X90198603Y-62506898D01*
X90186968Y-62505251D01*
X90179000Y-62503861D01*
X90143783Y-62493877D01*
X90112240Y-62477594D01*
X90085009Y-62455890D01*
X90062730Y-62429641D01*
X90046040Y-62399721D01*
X90035579Y-62367008D01*
X90031985Y-62332377D01*
X90032814Y-62322417D01*
X90107340Y-62322417D01*
X90109881Y-62349319D01*
X90118708Y-62374122D01*
X90133067Y-62395780D01*
X90152202Y-62413247D01*
X90175358Y-62425476D01*
X90201779Y-62431420D01*
X90211000Y-62431824D01*
X90233384Y-62429328D01*
X90251000Y-62423685D01*
X90274841Y-62409013D01*
X90293633Y-62389549D01*
X90306838Y-62366603D01*
X90313917Y-62341486D01*
X90314334Y-62315506D01*
X90307551Y-62289974D01*
X90306685Y-62288000D01*
X90291396Y-62263212D01*
X90271096Y-62244056D01*
X90246931Y-62231057D01*
X90220049Y-62224739D01*
X90191596Y-62225628D01*
X90177464Y-62228843D01*
X90162798Y-62236000D01*
X90146785Y-62248237D01*
X90131552Y-62263428D01*
X90119226Y-62279447D01*
X90111932Y-62294166D01*
X90111843Y-62294464D01*
X90107340Y-62322417D01*
X90032814Y-62322417D01*
X90034237Y-62305328D01*
X90044088Y-62269394D01*
X90060814Y-62236944D01*
X90083783Y-62208693D01*
X90112361Y-62185362D01*
X90145918Y-62167667D01*
X90160000Y-62162520D01*
X90161485Y-62161649D01*
X90162744Y-62159669D01*
X90163797Y-62155968D01*
X90164661Y-62149934D01*
X90165355Y-62140957D01*
X90165897Y-62128424D01*
X90166306Y-62111724D01*
X90166600Y-62090245D01*
X90166798Y-62063377D01*
X90166918Y-62030507D01*
X90166979Y-61991024D01*
X90166999Y-61944316D01*
X90167000Y-61930493D01*
X90167000Y-61700735D01*
X90146910Y-61707159D01*
X90126716Y-61710761D01*
X90100793Y-61710937D01*
X90070523Y-61707931D01*
X90037288Y-61701983D01*
X90002469Y-61693337D01*
X89967448Y-61682233D01*
X89937000Y-61670383D01*
X89917944Y-61661853D01*
X89899277Y-61652851D01*
X89883705Y-61644713D01*
X89877000Y-61640815D01*
X89857000Y-61628360D01*
X89853000Y-62303820D01*
X89830822Y-62326000D01*
X89568633Y-62328000D01*
X89306445Y-62330000D01*
X89299658Y-62350052D01*
X89284342Y-62383872D01*
X89263358Y-62412974D01*
X89237601Y-62436807D01*
X89207965Y-62454819D01*
X89175346Y-62466460D01*
X89140637Y-62471179D01*
X89106860Y-62468802D01*
X89071341Y-62459088D01*
X89040161Y-62443430D01*
X89013607Y-62422717D01*
X88991968Y-62397837D01*
X88975531Y-62369679D01*
X88964585Y-62339132D01*
X88959417Y-62307085D01*
X88959707Y-62296566D01*
X89029156Y-62296566D01*
X89033745Y-62322207D01*
X89044332Y-62345560D01*
X89060276Y-62365590D01*
X89080937Y-62381260D01*
X89105676Y-62391537D01*
X89133853Y-62395385D01*
X89135000Y-62395391D01*
X89150158Y-62394512D01*
X89164164Y-62392275D01*
X89169736Y-62390695D01*
X89195437Y-62377323D01*
X89215850Y-62358776D01*
X89230499Y-62336227D01*
X89238913Y-62310850D01*
X89240617Y-62283819D01*
X89235139Y-62256306D01*
X89229470Y-62242557D01*
X89213589Y-62218658D01*
X89192666Y-62200722D01*
X89167486Y-62189232D01*
X89138833Y-62184668D01*
X89135000Y-62184608D01*
X89105963Y-62188262D01*
X89080300Y-62198902D01*
X89058795Y-62216049D01*
X89042232Y-62239220D01*
X89040529Y-62242557D01*
X89031204Y-62269671D01*
X89029156Y-62296566D01*
X88959707Y-62296566D01*
X88960316Y-62274426D01*
X88967570Y-62242043D01*
X88981467Y-62210826D01*
X89002295Y-62181663D01*
X89010822Y-62172558D01*
X89038698Y-62149925D01*
X89069447Y-62134108D01*
X89102044Y-62124940D01*
X89135465Y-62122251D01*
X89168685Y-62125871D01*
X89200680Y-62135632D01*
X89230425Y-62151363D01*
X89256895Y-62172896D01*
X89279067Y-62200061D01*
X89289705Y-62218637D01*
X89304216Y-62248000D01*
X89779045Y-62248000D01*
X89778022Y-61915145D01*
X89777000Y-61582290D01*
X89532427Y-61446145D01*
X89490996Y-61423044D01*
X89451102Y-61400730D01*
X89413380Y-61379561D01*
X89378464Y-61359896D01*
X89346989Y-61342095D01*
X89319587Y-61326517D01*
X89296892Y-61313520D01*
X89279540Y-61303464D01*
X89268164Y-61296707D01*
X89264427Y-61294358D01*
X89243160Y-61278379D01*
X89219876Y-61257965D01*
X89196917Y-61235387D01*
X89176627Y-61212917D01*
X89164672Y-61197644D01*
X89139906Y-61156698D01*
X89120310Y-61110804D01*
X89106267Y-61061426D01*
X89098162Y-61010028D01*
X89096380Y-60958074D01*
X89097250Y-60941000D01*
X89099951Y-60904000D01*
X88471000Y-60904000D01*
X88471000Y-61374783D01*
X88500362Y-61389294D01*
X88531202Y-61408724D01*
X88556513Y-61433249D01*
X88575964Y-61461883D01*
X88589228Y-61493644D01*
X88595975Y-61527545D01*
X88595875Y-61562604D01*
X88588599Y-61597834D01*
X88578557Y-61623118D01*
X88559915Y-61653091D01*
X88536308Y-61677671D01*
X88508774Y-61696714D01*
X88478351Y-61710076D01*
X88446078Y-61717614D01*
X88412992Y-61719185D01*
X88380132Y-61714645D01*
X88348535Y-61703851D01*
X88319241Y-61686659D01*
X88293288Y-61662926D01*
X88292973Y-61662569D01*
X88271271Y-61632396D01*
X88256741Y-61600161D01*
X88249134Y-61566792D01*
X88248456Y-61542403D01*
X88323304Y-61542403D01*
X88326533Y-61570081D01*
X88336396Y-61595171D01*
X88351876Y-61616706D01*
X88371955Y-61633723D01*
X88395617Y-61645255D01*
X88421845Y-61650337D01*
X88436757Y-61650056D01*
X88451904Y-61647093D01*
X88469009Y-61641553D01*
X88478199Y-61637588D01*
X88500986Y-61622187D01*
X88518368Y-61601435D01*
X88529694Y-61576414D01*
X88534316Y-61548207D01*
X88534391Y-61544000D01*
X88530737Y-61514963D01*
X88520097Y-61489300D01*
X88502950Y-61467795D01*
X88479779Y-61451232D01*
X88476442Y-61449529D01*
X88449414Y-61440255D01*
X88422536Y-61438240D01*
X88396860Y-61442846D01*
X88373437Y-61453435D01*
X88353319Y-61469371D01*
X88337555Y-61490015D01*
X88327198Y-61514731D01*
X88323304Y-61542403D01*
X88248456Y-61542403D01*
X88248201Y-61533217D01*
X88253694Y-61500363D01*
X88265363Y-61469159D01*
X88282960Y-61440530D01*
X88306237Y-61415406D01*
X88334943Y-61394714D01*
X88368831Y-61379381D01*
X88368947Y-61379341D01*
X88389000Y-61372554D01*
X88391000Y-61110366D01*
X88393000Y-60848177D01*
X88404089Y-60837088D01*
X88415179Y-60826000D01*
X89098999Y-60823868D01*
X89098999Y-60667934D01*
X89099000Y-60512000D01*
X88560216Y-60512000D01*
X88545705Y-60541362D01*
X88526275Y-60572202D01*
X88501750Y-60597513D01*
X88473116Y-60616964D01*
X88441355Y-60630228D01*
X88407454Y-60636975D01*
X88372395Y-60636875D01*
X88337165Y-60629599D01*
X88311881Y-60619557D01*
X88281908Y-60600915D01*
X88257328Y-60577308D01*
X88238285Y-60549774D01*
X88224923Y-60519351D01*
X88217385Y-60487078D01*
X88216886Y-60476566D01*
X88285156Y-60476566D01*
X88289745Y-60502207D01*
X88300332Y-60525560D01*
X88316276Y-60545590D01*
X88336937Y-60561260D01*
X88361676Y-60571537D01*
X88389853Y-60575385D01*
X88391000Y-60575391D01*
X88406158Y-60574512D01*
X88420164Y-60572275D01*
X88425736Y-60570695D01*
X88451437Y-60557323D01*
X88471850Y-60538776D01*
X88486499Y-60516227D01*
X88491814Y-60500196D01*
X89339137Y-60500196D01*
X89339138Y-60546000D01*
X89339140Y-60614493D01*
X89339160Y-60675476D01*
X89339220Y-60729436D01*
X89339341Y-60776862D01*
X89339546Y-60818242D01*
X89339857Y-60854066D01*
X89340295Y-60884822D01*
X89340882Y-60910999D01*
X89341640Y-60933086D01*
X89342591Y-60951570D01*
X89343756Y-60966941D01*
X89345158Y-60979688D01*
X89346819Y-60990299D01*
X89348759Y-60999263D01*
X89351002Y-61007068D01*
X89353569Y-61014203D01*
X89356481Y-61021158D01*
X89359761Y-61028419D01*
X89360806Y-61030701D01*
X89365809Y-61040879D01*
X89371414Y-61050311D01*
X89378198Y-61059413D01*
X89386738Y-61068604D01*
X89397610Y-61078302D01*
X89411392Y-61088925D01*
X89428660Y-61100890D01*
X89449992Y-61114616D01*
X89475964Y-61130520D01*
X89507153Y-61149021D01*
X89544137Y-61170536D01*
X89587492Y-61195484D01*
X89591228Y-61197626D01*
X89626061Y-61217627D01*
X89659369Y-61236809D01*
X89690389Y-61254730D01*
X89718358Y-61270947D01*
X89742516Y-61285016D01*
X89762100Y-61296496D01*
X89776347Y-61304942D01*
X89784497Y-61309913D01*
X89785000Y-61310236D01*
X89792548Y-61314820D01*
X89805792Y-61322529D01*
X89823758Y-61332819D01*
X89845474Y-61345146D01*
X89869968Y-61358969D01*
X89896268Y-61373743D01*
X89923400Y-61388926D01*
X89950393Y-61403975D01*
X89976274Y-61418346D01*
X90000070Y-61431496D01*
X90020810Y-61442882D01*
X90037521Y-61451962D01*
X90049230Y-61458191D01*
X90054966Y-61461027D01*
X90055000Y-61461040D01*
X90067132Y-61463329D01*
X90083035Y-61463360D01*
X90098861Y-61461313D01*
X90108315Y-61458543D01*
X90124098Y-61448230D01*
X90137542Y-61432628D01*
X90146361Y-61414449D01*
X90146823Y-61412875D01*
X90147629Y-61405843D01*
X90148350Y-61390909D01*
X90148986Y-61368169D01*
X90149536Y-61337720D01*
X90149999Y-61299661D01*
X90150374Y-61254088D01*
X90150660Y-61201097D01*
X90150855Y-61140787D01*
X90150959Y-61073255D01*
X90150977Y-61031000D01*
X90151000Y-60664000D01*
X89879246Y-60664000D01*
X89877000Y-61007362D01*
X89867360Y-61017620D01*
X89853563Y-61027459D01*
X89836398Y-61030782D01*
X89815195Y-61027677D01*
X89807778Y-61025450D01*
X89798099Y-61021507D01*
X89782631Y-61014296D01*
X89762584Y-61004422D01*
X89739169Y-60992493D01*
X89713596Y-60979114D01*
X89690000Y-60966477D01*
X89595000Y-60915027D01*
X89595000Y-60542604D01*
X90283006Y-60542604D01*
X90283009Y-60641389D01*
X90283019Y-60732489D01*
X90283037Y-60816221D01*
X90283068Y-60892900D01*
X90283112Y-60962841D01*
X90283173Y-61026362D01*
X90283252Y-61083776D01*
X90283354Y-61135400D01*
X90283479Y-61181550D01*
X90283630Y-61222541D01*
X90283811Y-61258689D01*
X90284022Y-61290310D01*
X90284268Y-61317719D01*
X90284550Y-61341232D01*
X90284871Y-61361165D01*
X90285234Y-61377834D01*
X90285640Y-61391553D01*
X90286092Y-61402640D01*
X90286593Y-61411409D01*
X90287146Y-61418176D01*
X90287752Y-61423257D01*
X90288415Y-61426968D01*
X90289136Y-61429624D01*
X90289919Y-61431541D01*
X90290006Y-61431715D01*
X90302725Y-61448473D01*
X90320063Y-61459853D01*
X90340260Y-61465303D01*
X90361554Y-61464269D01*
X90377000Y-61458998D01*
X90381566Y-61456471D01*
X90392560Y-61450228D01*
X90409484Y-61440558D01*
X90431839Y-61427746D01*
X90459126Y-61412079D01*
X90490845Y-61393845D01*
X90526499Y-61373330D01*
X90565588Y-61350820D01*
X90607614Y-61326603D01*
X90652078Y-61300965D01*
X90698480Y-61274193D01*
X90704772Y-61270561D01*
X90763082Y-61236865D01*
X90814781Y-61206895D01*
X90860224Y-61180439D01*
X90899764Y-61157284D01*
X90933753Y-61137219D01*
X90962546Y-61120031D01*
X90986496Y-61105508D01*
X91005956Y-61093438D01*
X91021280Y-61083608D01*
X91032821Y-61075806D01*
X91040932Y-61069820D01*
X91045396Y-61066000D01*
X91051284Y-61060447D01*
X91056457Y-61055451D01*
X91060967Y-61050485D01*
X91064866Y-61045018D01*
X91068204Y-61038522D01*
X91071035Y-61030469D01*
X91073409Y-61020330D01*
X91075379Y-61007576D01*
X91076997Y-60991679D01*
X91078313Y-60972109D01*
X91079381Y-60948338D01*
X91080251Y-60919837D01*
X91080975Y-60886079D01*
X91081606Y-60846533D01*
X91082195Y-60800671D01*
X91082793Y-60747964D01*
X91083453Y-60687885D01*
X91083585Y-60676000D01*
X91084160Y-60621332D01*
X91084677Y-60565817D01*
X91085131Y-60510440D01*
X91085372Y-60476566D01*
X91925156Y-60476566D01*
X91929745Y-60502207D01*
X91940332Y-60525560D01*
X91956276Y-60545590D01*
X91976937Y-60561260D01*
X92001676Y-60571537D01*
X92029853Y-60575385D01*
X92031000Y-60575391D01*
X92046158Y-60574512D01*
X92060164Y-60572275D01*
X92065736Y-60570695D01*
X92091246Y-60557309D01*
X92111910Y-60538331D01*
X92126893Y-60514945D01*
X92135355Y-60488335D01*
X92136963Y-60470000D01*
X92133265Y-60441693D01*
X92122784Y-60416464D01*
X92106440Y-60395228D01*
X92085150Y-60378897D01*
X92059834Y-60368386D01*
X92031410Y-60364609D01*
X92031000Y-60364608D01*
X92001963Y-60368262D01*
X91976300Y-60378902D01*
X91954795Y-60396049D01*
X91938232Y-60419220D01*
X91936529Y-60422557D01*
X91927204Y-60449671D01*
X91925156Y-60476566D01*
X91085372Y-60476566D01*
X91085517Y-60456187D01*
X91085830Y-60404044D01*
X91086064Y-60354996D01*
X91086214Y-60310028D01*
X91086275Y-60270126D01*
X91086241Y-60236275D01*
X91086111Y-60210000D01*
X91085806Y-60172852D01*
X91085501Y-60142812D01*
X91085136Y-60118986D01*
X91084650Y-60100480D01*
X91083981Y-60086403D01*
X91083068Y-60075862D01*
X91081851Y-60067962D01*
X91080269Y-60061812D01*
X91078259Y-60056519D01*
X91075762Y-60051189D01*
X91075179Y-60050000D01*
X91071609Y-60042902D01*
X91067935Y-60036327D01*
X91063733Y-60030003D01*
X91058581Y-60023661D01*
X91052058Y-60017029D01*
X91043741Y-60009836D01*
X91033207Y-60001812D01*
X91020035Y-59992686D01*
X91003803Y-59982188D01*
X90984087Y-59970046D01*
X90960467Y-59955990D01*
X90932519Y-59939749D01*
X90899822Y-59921053D01*
X90861953Y-59899630D01*
X90818490Y-59875211D01*
X90769011Y-59847523D01*
X90713093Y-59816297D01*
X90694674Y-59806018D01*
X90639273Y-59775105D01*
X90590412Y-59747863D01*
X90547647Y-59724060D01*
X90510537Y-59703464D01*
X90478637Y-59685843D01*
X90451503Y-59670965D01*
X90428694Y-59658599D01*
X90409765Y-59648511D01*
X90394274Y-59640471D01*
X90381776Y-59634246D01*
X90371830Y-59629605D01*
X90363990Y-59626315D01*
X90357815Y-59624145D01*
X90352861Y-59622862D01*
X90348684Y-59622236D01*
X90344842Y-59622033D01*
X90343000Y-59622018D01*
X90320910Y-59625094D01*
X90303708Y-59634453D01*
X90291161Y-59650234D01*
X90289493Y-59653525D01*
X90288758Y-59655546D01*
X90288080Y-59658597D01*
X90287457Y-59662990D01*
X90286887Y-59669038D01*
X90286367Y-59677055D01*
X90285895Y-59687353D01*
X90285468Y-59700246D01*
X90285085Y-59716045D01*
X90284744Y-59735065D01*
X90284441Y-59757617D01*
X90284175Y-59784016D01*
X90283943Y-59814574D01*
X90283743Y-59849603D01*
X90283573Y-59889418D01*
X90283431Y-59934330D01*
X90283314Y-59984653D01*
X90283219Y-60040700D01*
X90283145Y-60102784D01*
X90283090Y-60171217D01*
X90283050Y-60246313D01*
X90283025Y-60328384D01*
X90283011Y-60417743D01*
X90283006Y-60514705D01*
X90283006Y-60542604D01*
X89595000Y-60542604D01*
X89595000Y-60514705D01*
X89595000Y-60172815D01*
X89686610Y-60122386D01*
X89712273Y-60108324D01*
X89736537Y-60095147D01*
X89758242Y-60083477D01*
X89776226Y-60073936D01*
X89789328Y-60067145D01*
X89795610Y-60064066D01*
X89811545Y-60058961D01*
X89829414Y-60056437D01*
X89846170Y-60056681D01*
X89858769Y-60059884D01*
X89859221Y-60060118D01*
X89863872Y-60062859D01*
X89867730Y-60066136D01*
X89870871Y-60070672D01*
X89873366Y-60077189D01*
X89875292Y-60086412D01*
X89876721Y-60099063D01*
X89877726Y-60115864D01*
X89878383Y-60137540D01*
X89878765Y-60164813D01*
X89878945Y-60198407D01*
X89878998Y-60239043D01*
X89879000Y-60253801D01*
X89879000Y-60420000D01*
X90151000Y-60420000D01*
X90150977Y-60055000D01*
X90150931Y-59983196D01*
X90150800Y-59919253D01*
X90150584Y-59863034D01*
X90150280Y-59814398D01*
X90149887Y-59773207D01*
X90149404Y-59739324D01*
X90148828Y-59712609D01*
X90148158Y-59692924D01*
X90147393Y-59680131D01*
X90146606Y-59674335D01*
X90137161Y-59653075D01*
X90122633Y-59636441D01*
X90104359Y-59625394D01*
X90083681Y-59620893D01*
X90072801Y-59621406D01*
X90064804Y-59623991D01*
X90050740Y-59630161D01*
X90031449Y-59639464D01*
X90007771Y-59651451D01*
X89980548Y-59665671D01*
X89950619Y-59681673D01*
X89918825Y-59699006D01*
X89886006Y-59717220D01*
X89853002Y-59735864D01*
X89820655Y-59754487D01*
X89789804Y-59772638D01*
X89781000Y-59777904D01*
X89767159Y-59786120D01*
X89747382Y-59797722D01*
X89722677Y-59812125D01*
X89694054Y-59828744D01*
X89662520Y-59846993D01*
X89629085Y-59866287D01*
X89594758Y-59886042D01*
X89577000Y-59896239D01*
X89535651Y-59920037D01*
X89500664Y-59940405D01*
X89471412Y-59957807D01*
X89447269Y-59972708D01*
X89427609Y-59985573D01*
X89411805Y-59996867D01*
X89399231Y-60007054D01*
X89389261Y-60016599D01*
X89381268Y-60025967D01*
X89374627Y-60035623D01*
X89368711Y-60046030D01*
X89364819Y-60053701D01*
X89360812Y-60061821D01*
X89357245Y-60069291D01*
X89354092Y-60076601D01*
X89351327Y-60084240D01*
X89348926Y-60092699D01*
X89346863Y-60102468D01*
X89345112Y-60114036D01*
X89343647Y-60127894D01*
X89342443Y-60144531D01*
X89341475Y-60164438D01*
X89340717Y-60188105D01*
X89340143Y-60216021D01*
X89339727Y-60248676D01*
X89339445Y-60286561D01*
X89339271Y-60330166D01*
X89339178Y-60379980D01*
X89339142Y-60436493D01*
X89339137Y-60500196D01*
X88491814Y-60500196D01*
X88494913Y-60490850D01*
X88496617Y-60463819D01*
X88491139Y-60436306D01*
X88485470Y-60422557D01*
X88469589Y-60398658D01*
X88448666Y-60380722D01*
X88423486Y-60369232D01*
X88394833Y-60364668D01*
X88391000Y-60364608D01*
X88361963Y-60368262D01*
X88336300Y-60378902D01*
X88314795Y-60396049D01*
X88298232Y-60419220D01*
X88296529Y-60422557D01*
X88287204Y-60449671D01*
X88285156Y-60476566D01*
X88216886Y-60476566D01*
X88215814Y-60453992D01*
X88220354Y-60421132D01*
X88231148Y-60389535D01*
X88248340Y-60360241D01*
X88272073Y-60334288D01*
X88272430Y-60333973D01*
X88302604Y-60312271D01*
X88334839Y-60297740D01*
X88368208Y-60290133D01*
X88401783Y-60289201D01*
X88434636Y-60294694D01*
X88465841Y-60306364D01*
X88494469Y-60323961D01*
X88519593Y-60347238D01*
X88540286Y-60375946D01*
X88555621Y-60409835D01*
X88555659Y-60409947D01*
X88562447Y-60430000D01*
X88830723Y-60431028D01*
X89099000Y-60432056D01*
X89098999Y-60264094D01*
X89098999Y-60096131D01*
X88757089Y-60095065D01*
X88415179Y-60094000D01*
X88404089Y-60082911D01*
X88393000Y-60071822D01*
X88391000Y-59815633D01*
X88389000Y-59559445D01*
X88368947Y-59552658D01*
X88335084Y-59537325D01*
X88305963Y-59516323D01*
X88282131Y-59490543D01*
X88264134Y-59460873D01*
X88252520Y-59428204D01*
X88247836Y-59393424D01*
X88247897Y-59392566D01*
X88321156Y-59392566D01*
X88325745Y-59418207D01*
X88336332Y-59441560D01*
X88352276Y-59461590D01*
X88372937Y-59477260D01*
X88397676Y-59487537D01*
X88425853Y-59491385D01*
X88427000Y-59491391D01*
X88442158Y-59490512D01*
X88456164Y-59488275D01*
X88461736Y-59486695D01*
X88487437Y-59473323D01*
X88507850Y-59454776D01*
X88522499Y-59432227D01*
X88530913Y-59406850D01*
X88532617Y-59379819D01*
X88527139Y-59352306D01*
X88521470Y-59338557D01*
X88505589Y-59314658D01*
X88484666Y-59296722D01*
X88459486Y-59285232D01*
X88430833Y-59280668D01*
X88427000Y-59280608D01*
X88397963Y-59284262D01*
X88372300Y-59294902D01*
X88350795Y-59312049D01*
X88334232Y-59335220D01*
X88332529Y-59338557D01*
X88323204Y-59365671D01*
X88321156Y-59392566D01*
X88247897Y-59392566D01*
X88250233Y-59359647D01*
X88260158Y-59323586D01*
X88276548Y-59291251D01*
X88298700Y-59263425D01*
X88325913Y-59240894D01*
X88357483Y-59224443D01*
X88376840Y-59218169D01*
X88413397Y-59212560D01*
X88448954Y-59214392D01*
X88482654Y-59223105D01*
X88513637Y-59238143D01*
X88541044Y-59258946D01*
X88564016Y-59284957D01*
X88581695Y-59315617D01*
X88593221Y-59350368D01*
X88595109Y-59360035D01*
X88597084Y-59395015D01*
X88591696Y-59429438D01*
X88579560Y-59462149D01*
X88561289Y-59491993D01*
X88537499Y-59517815D01*
X88508804Y-59538460D01*
X88496893Y-59544637D01*
X88471000Y-59556754D01*
X88470999Y-59788400D01*
X88470999Y-60020047D01*
X88791180Y-60019023D01*
X89111360Y-60018000D01*
X89122180Y-59986000D01*
X89140438Y-59942227D01*
X89164622Y-59901984D01*
X89195266Y-59864598D01*
X89232902Y-59829398D01*
X89267191Y-59803212D01*
X89274730Y-59798289D01*
X89288537Y-59789692D01*
X89307981Y-59777799D01*
X89332434Y-59762989D01*
X89361264Y-59745640D01*
X89393843Y-59726130D01*
X89429540Y-59704838D01*
X89467725Y-59682142D01*
X89507769Y-59658421D01*
X89532296Y-59643930D01*
X89773000Y-59501861D01*
X89774019Y-59114930D01*
X89775039Y-58728000D01*
X89311754Y-58728000D01*
X89299571Y-58754034D01*
X89280854Y-58785430D01*
X89257351Y-58811157D01*
X89230031Y-58831104D01*
X89199863Y-58845160D01*
X89167814Y-58853212D01*
X89134854Y-58855150D01*
X89101951Y-58850863D01*
X89070074Y-58840239D01*
X89040191Y-58823166D01*
X89013272Y-58799534D01*
X89003436Y-58788075D01*
X88988048Y-58765840D01*
X88977700Y-58743539D01*
X88971669Y-58718899D01*
X88969476Y-58692566D01*
X89037156Y-58692566D01*
X89041745Y-58718207D01*
X89052332Y-58741560D01*
X89068276Y-58761590D01*
X89088937Y-58777260D01*
X89113676Y-58787537D01*
X89141853Y-58791385D01*
X89143000Y-58791391D01*
X89158158Y-58790512D01*
X89172164Y-58788275D01*
X89177736Y-58786695D01*
X89203437Y-58773323D01*
X89223850Y-58754776D01*
X89238499Y-58732227D01*
X89246913Y-58706850D01*
X89248617Y-58679819D01*
X89243139Y-58652306D01*
X89237470Y-58638557D01*
X89221589Y-58614658D01*
X89200666Y-58596722D01*
X89175486Y-58585232D01*
X89146833Y-58580668D01*
X89143000Y-58580608D01*
X89113963Y-58584262D01*
X89088300Y-58594902D01*
X89066795Y-58612049D01*
X89050232Y-58635220D01*
X89048529Y-58638557D01*
X89039204Y-58665671D01*
X89037156Y-58692566D01*
X88969476Y-58692566D01*
X88969233Y-58689645D01*
X88969096Y-58680000D01*
X88969210Y-58660680D01*
X88969997Y-58646778D01*
X88971972Y-58635714D01*
X88975647Y-58624905D01*
X88981534Y-58611772D01*
X88983452Y-58607738D01*
X89003205Y-58574983D01*
X89028305Y-58548062D01*
X89058494Y-58527239D01*
X89065973Y-58523415D01*
X89080477Y-58516931D01*
X89093202Y-58512819D01*
X89107130Y-58510412D01*
X89125242Y-58509043D01*
X89131451Y-58508755D01*
X89161614Y-58508850D01*
X89186904Y-58512432D01*
X89209928Y-58520157D01*
X89233296Y-58532684D01*
X89237805Y-58535541D01*
X89264032Y-58556966D01*
X89286041Y-58583955D01*
X89302315Y-58614541D01*
X89305649Y-58623513D01*
X89314561Y-58650000D01*
X89569780Y-58652000D01*
X89624222Y-58652461D01*
X89671146Y-58652941D01*
X89711032Y-58653451D01*
X89744364Y-58654005D01*
X89771623Y-58654616D01*
X89793290Y-58655296D01*
X89809847Y-58656058D01*
X89821776Y-58656917D01*
X89829558Y-58657883D01*
X89833675Y-58658972D01*
X89833958Y-58659118D01*
X89837405Y-58661023D01*
X89840454Y-58662881D01*
X89843129Y-58665166D01*
X89845455Y-58668354D01*
X89847456Y-58672920D01*
X89849156Y-58679339D01*
X89850580Y-58688087D01*
X89851753Y-58699640D01*
X89852698Y-58714472D01*
X89853440Y-58733058D01*
X89854004Y-58755875D01*
X89854413Y-58783398D01*
X89854693Y-58816101D01*
X89854868Y-58854461D01*
X89854961Y-58898952D01*
X89854998Y-58950051D01*
X89855003Y-59008231D01*
X89855000Y-59069156D01*
X89855000Y-59450710D01*
X89898000Y-59429458D01*
X89946035Y-59408556D01*
X89993604Y-59393966D01*
X90043729Y-59384801D01*
X90054811Y-59383488D01*
X90082965Y-59381281D01*
X90108068Y-59381483D01*
X90132733Y-59384388D01*
X90159575Y-59390291D01*
X90188032Y-59398497D01*
X90222313Y-59409125D01*
X90247794Y-59398924D01*
X90288182Y-59386320D01*
X90329871Y-59380485D01*
X90373329Y-59381475D01*
X90419027Y-59389345D01*
X90467432Y-59404151D01*
X90519015Y-59425947D01*
X90532296Y-59432412D01*
X90549933Y-59441147D01*
X90564848Y-59448419D01*
X90575664Y-59453565D01*
X90581001Y-59455921D01*
X90581296Y-59456000D01*
X90581539Y-59452091D01*
X90581771Y-59440729D01*
X90581991Y-59422461D01*
X90582195Y-59397834D01*
X90582382Y-59367395D01*
X90582549Y-59331691D01*
X90582693Y-59291269D01*
X90582813Y-59246676D01*
X90582905Y-59198459D01*
X90582967Y-59147165D01*
X90582997Y-59093341D01*
X90583000Y-59072596D01*
X90583034Y-59000822D01*
X90583141Y-58936833D01*
X90583321Y-58880416D01*
X90583577Y-58831357D01*
X90583912Y-58789443D01*
X90584328Y-58754458D01*
X90584827Y-58726190D01*
X90585412Y-58704424D01*
X90586085Y-58688946D01*
X90586665Y-58681808D01*
G37*
G36*
X88456732Y-53645030D02*
G01*
X88524152Y-53662113D01*
X88585437Y-53691002D01*
X88639300Y-53730491D01*
X88684459Y-53779375D01*
X88719629Y-53836449D01*
X88743524Y-53900507D01*
X88747709Y-53918052D01*
X88749715Y-53934772D01*
X88751516Y-53964132D01*
X88753112Y-54004769D01*
X88754503Y-54055324D01*
X88755688Y-54114433D01*
X88756669Y-54180737D01*
X88757445Y-54252874D01*
X88758016Y-54329483D01*
X88758382Y-54409202D01*
X88758543Y-54490670D01*
X88758499Y-54572525D01*
X88758250Y-54653407D01*
X88757795Y-54731954D01*
X88757136Y-54806804D01*
X88756272Y-54876597D01*
X88755203Y-54939971D01*
X88753929Y-54995565D01*
X88752450Y-55042018D01*
X88750766Y-55077968D01*
X88748877Y-55102054D01*
X88747709Y-55109948D01*
X88726930Y-55175495D01*
X88694447Y-55234609D01*
X88651599Y-55285952D01*
X88599726Y-55328183D01*
X88540164Y-55359965D01*
X88478589Y-55379068D01*
X88433370Y-55386524D01*
X88393249Y-55387590D01*
X88350856Y-55382249D01*
X88333589Y-55378749D01*
X88269293Y-55357835D01*
X88211018Y-55325143D01*
X88160200Y-55282125D01*
X88118277Y-55230233D01*
X88086682Y-55170918D01*
X88067739Y-55109948D01*
X88065733Y-55093228D01*
X88063932Y-55063868D01*
X88062337Y-55023230D01*
X88060946Y-54972676D01*
X88059760Y-54913566D01*
X88058779Y-54847262D01*
X88058003Y-54775125D01*
X88057432Y-54698517D01*
X88057066Y-54618798D01*
X88056906Y-54537330D01*
X88056950Y-54455475D01*
X88057199Y-54374593D01*
X88057653Y-54296046D01*
X88058312Y-54221195D01*
X88059176Y-54151402D01*
X88060245Y-54088028D01*
X88061519Y-54032434D01*
X88062998Y-53985981D01*
X88064682Y-53950032D01*
X88066572Y-53925946D01*
X88067739Y-53918052D01*
X88088106Y-53853583D01*
X88119629Y-53795655D01*
X88160786Y-53745336D01*
X88210058Y-53703692D01*
X88265924Y-53671790D01*
X88326865Y-53650698D01*
X88391360Y-53641482D01*
X88456732Y-53645030D01*
G37*
G36*
X91957283Y-53645030D02*
G01*
X92024703Y-53662113D01*
X92085988Y-53691002D01*
X92139852Y-53730491D01*
X92185011Y-53779375D01*
X92220180Y-53836449D01*
X92244075Y-53900507D01*
X92248260Y-53918052D01*
X92250266Y-53934772D01*
X92252067Y-53964132D01*
X92253663Y-54004769D01*
X92255054Y-54055324D01*
X92256240Y-54114433D01*
X92257221Y-54180737D01*
X92257996Y-54252874D01*
X92258567Y-54329483D01*
X92258933Y-54409202D01*
X92259094Y-54490670D01*
X92259050Y-54572525D01*
X92258801Y-54653407D01*
X92258347Y-54731954D01*
X92257688Y-54806804D01*
X92256823Y-54876597D01*
X92255754Y-54939971D01*
X92254480Y-54995565D01*
X92253001Y-55042018D01*
X92251317Y-55077968D01*
X92249428Y-55102054D01*
X92248260Y-55109948D01*
X92227481Y-55175495D01*
X92194999Y-55234609D01*
X92152151Y-55285952D01*
X92100277Y-55328183D01*
X92040716Y-55359965D01*
X91979141Y-55379068D01*
X91933921Y-55386524D01*
X91893800Y-55387590D01*
X91851407Y-55382249D01*
X91834140Y-55378749D01*
X91769844Y-55357835D01*
X91711569Y-55325143D01*
X91660752Y-55282125D01*
X91618828Y-55230233D01*
X91587233Y-55170918D01*
X91568290Y-55109948D01*
X91566285Y-55093228D01*
X91564484Y-55063868D01*
X91562888Y-55023230D01*
X91561497Y-54972676D01*
X91560311Y-54913566D01*
X91559330Y-54847262D01*
X91558554Y-54775125D01*
X91557984Y-54698517D01*
X91557618Y-54618798D01*
X91557457Y-54537330D01*
X91557501Y-54455475D01*
X91557750Y-54374593D01*
X91558204Y-54296046D01*
X91558863Y-54221195D01*
X91559727Y-54151402D01*
X91560796Y-54088028D01*
X91562071Y-54032434D01*
X91563550Y-53985981D01*
X91565234Y-53950032D01*
X91567123Y-53925946D01*
X91568290Y-53918052D01*
X91588658Y-53853583D01*
X91620180Y-53795655D01*
X91661337Y-53745336D01*
X91710609Y-53703692D01*
X91766475Y-53671790D01*
X91827416Y-53650698D01*
X91891911Y-53641482D01*
X91957283Y-53645030D01*
G37*
G36*
X89364808Y-53125882D02*
G01*
X89425674Y-53147170D01*
X89481439Y-53179248D01*
X89530584Y-53221051D01*
X89571588Y-53271511D01*
X89602930Y-53329560D01*
X89622847Y-53392969D01*
X89624283Y-53406824D01*
X89625618Y-53433733D01*
X89626853Y-53472747D01*
X89627987Y-53522917D01*
X89629020Y-53583296D01*
X89629953Y-53652936D01*
X89630785Y-53730888D01*
X89631516Y-53816203D01*
X89632147Y-53907933D01*
X89632677Y-54005131D01*
X89633106Y-54106847D01*
X89633435Y-54212134D01*
X89633663Y-54320043D01*
X89633790Y-54429625D01*
X89633817Y-54539934D01*
X89633743Y-54650019D01*
X89633568Y-54758933D01*
X89633293Y-54865728D01*
X89632917Y-54969455D01*
X89632440Y-55069166D01*
X89631863Y-55163912D01*
X89631185Y-55252746D01*
X89630407Y-55334719D01*
X89629527Y-55408883D01*
X89628547Y-55474289D01*
X89627467Y-55529989D01*
X89626285Y-55575034D01*
X89625003Y-55608478D01*
X89623621Y-55629370D01*
X89622847Y-55635030D01*
X89602068Y-55700578D01*
X89569585Y-55759692D01*
X89526737Y-55811034D01*
X89474863Y-55853266D01*
X89415302Y-55885047D01*
X89353727Y-55904150D01*
X89308508Y-55911606D01*
X89268386Y-55912672D01*
X89225994Y-55907332D01*
X89208727Y-55903832D01*
X89144430Y-55882918D01*
X89086156Y-55850226D01*
X89035338Y-55807208D01*
X88993414Y-55755316D01*
X88961820Y-55696001D01*
X88942877Y-55635030D01*
X88941441Y-55621175D01*
X88940106Y-55594267D01*
X88938871Y-55555253D01*
X88937737Y-55505082D01*
X88936704Y-55444703D01*
X88935771Y-55375064D01*
X88934939Y-55297112D01*
X88934208Y-55211797D01*
X88933577Y-55120066D01*
X88933047Y-55022869D01*
X88932618Y-54921152D01*
X88932289Y-54815866D01*
X88932061Y-54707957D01*
X88931934Y-54598374D01*
X88931907Y-54488066D01*
X88931981Y-54377981D01*
X88932156Y-54269066D01*
X88932431Y-54162272D01*
X88932807Y-54058545D01*
X88933283Y-53958834D01*
X88933861Y-53864087D01*
X88934539Y-53775253D01*
X88935317Y-53693280D01*
X88936197Y-53619117D01*
X88937177Y-53553711D01*
X88938257Y-53498011D01*
X88939439Y-53452965D01*
X88940721Y-53419522D01*
X88942103Y-53398630D01*
X88942877Y-53392969D01*
X88963649Y-53327302D01*
X88996028Y-53268308D01*
X89038728Y-53217192D01*
X89090465Y-53175159D01*
X89149954Y-53143415D01*
X89215912Y-53123164D01*
X89233854Y-53119947D01*
X89300361Y-53116452D01*
X89364808Y-53125882D01*
G37*
G36*
X91115083Y-53125882D02*
G01*
X91175949Y-53147170D01*
X91231715Y-53179248D01*
X91280860Y-53221051D01*
X91321863Y-53271511D01*
X91353206Y-53329560D01*
X91373123Y-53392969D01*
X91374559Y-53406824D01*
X91375894Y-53433733D01*
X91377129Y-53472747D01*
X91378263Y-53522917D01*
X91379296Y-53583296D01*
X91380229Y-53652936D01*
X91381061Y-53730888D01*
X91381792Y-53816203D01*
X91382423Y-53907933D01*
X91382953Y-54005131D01*
X91383382Y-54106847D01*
X91383711Y-54212134D01*
X91383939Y-54320043D01*
X91384066Y-54429625D01*
X91384093Y-54539934D01*
X91384019Y-54650019D01*
X91383844Y-54758933D01*
X91383569Y-54865728D01*
X91383193Y-54969455D01*
X91382716Y-55069166D01*
X91382139Y-55163912D01*
X91381461Y-55252746D01*
X91380682Y-55334719D01*
X91379803Y-55408883D01*
X91378823Y-55474289D01*
X91377742Y-55529989D01*
X91376561Y-55575034D01*
X91375279Y-55608478D01*
X91373896Y-55629370D01*
X91373123Y-55635030D01*
X91352344Y-55700578D01*
X91319861Y-55759692D01*
X91277013Y-55811034D01*
X91225139Y-55853266D01*
X91165578Y-55885047D01*
X91104003Y-55904150D01*
X91058783Y-55911606D01*
X91018662Y-55912672D01*
X90976270Y-55907332D01*
X90959002Y-55903832D01*
X90894706Y-55882918D01*
X90836431Y-55850226D01*
X90785614Y-55807208D01*
X90743690Y-55755316D01*
X90712096Y-55696001D01*
X90693153Y-55635030D01*
X90691717Y-55621175D01*
X90690381Y-55594267D01*
X90689147Y-55555253D01*
X90688013Y-55505082D01*
X90686979Y-55444703D01*
X90686047Y-55375064D01*
X90685215Y-55297112D01*
X90684483Y-55211797D01*
X90683853Y-55120066D01*
X90683323Y-55022869D01*
X90682893Y-54921152D01*
X90682565Y-54815866D01*
X90682337Y-54707957D01*
X90682209Y-54598374D01*
X90682183Y-54488066D01*
X90682256Y-54377981D01*
X90682431Y-54269066D01*
X90682706Y-54162272D01*
X90683082Y-54058545D01*
X90683559Y-53958834D01*
X90684136Y-53864087D01*
X90684814Y-53775253D01*
X90685593Y-53693280D01*
X90686472Y-53619117D01*
X90687452Y-53553711D01*
X90688533Y-53498011D01*
X90689714Y-53452965D01*
X90690996Y-53419522D01*
X90692379Y-53398630D01*
X90693153Y-53392969D01*
X90713925Y-53327302D01*
X90746303Y-53268308D01*
X90789003Y-53217192D01*
X90840740Y-53175159D01*
X90900230Y-53143415D01*
X90966187Y-53123164D01*
X90984130Y-53119947D01*
X91050637Y-53116452D01*
X91115083Y-53125882D01*
G37*
G36*
X90239945Y-52600799D02*
G01*
X90300812Y-52622087D01*
X90356577Y-52654166D01*
X90405722Y-52695968D01*
X90446725Y-52746428D01*
X90478068Y-52804478D01*
X90497985Y-52867887D01*
X90499164Y-52880478D01*
X90500276Y-52906302D01*
X90501322Y-52944587D01*
X90502300Y-52994563D01*
X90503213Y-53055460D01*
X90504058Y-53126508D01*
X90504837Y-53206936D01*
X90505549Y-53295973D01*
X90506194Y-53392851D01*
X90506773Y-53496797D01*
X90507285Y-53607043D01*
X90507730Y-53722817D01*
X90508109Y-53843350D01*
X90508421Y-53967870D01*
X90508666Y-54095609D01*
X90508845Y-54225795D01*
X90508957Y-54357658D01*
X90509002Y-54490428D01*
X90508980Y-54623334D01*
X90508892Y-54755607D01*
X90508737Y-54886476D01*
X90508515Y-55015170D01*
X90508227Y-55140920D01*
X90507872Y-55262954D01*
X90507451Y-55380504D01*
X90506962Y-55492798D01*
X90506407Y-55599066D01*
X90505785Y-55698537D01*
X90505097Y-55790442D01*
X90504342Y-55874011D01*
X90503520Y-55948472D01*
X90502631Y-56013056D01*
X90501676Y-56066992D01*
X90500654Y-56109510D01*
X90499566Y-56139840D01*
X90498410Y-56157211D01*
X90497985Y-56160113D01*
X90477206Y-56225661D01*
X90444723Y-56284775D01*
X90401875Y-56336117D01*
X90350001Y-56378348D01*
X90290440Y-56410130D01*
X90228865Y-56429233D01*
X90183645Y-56436689D01*
X90143524Y-56437755D01*
X90101132Y-56432415D01*
X90083865Y-56428914D01*
X90019568Y-56408001D01*
X89961293Y-56375309D01*
X89910476Y-56332291D01*
X89868552Y-56280398D01*
X89836958Y-56221084D01*
X89818015Y-56160113D01*
X89816836Y-56147521D01*
X89815724Y-56121697D01*
X89814678Y-56083412D01*
X89813699Y-56033436D01*
X89812787Y-55972539D01*
X89811941Y-55901492D01*
X89811163Y-55821064D01*
X89810451Y-55732026D01*
X89809805Y-55635149D01*
X89809227Y-55531202D01*
X89808715Y-55420957D01*
X89808269Y-55305183D01*
X89807891Y-55184650D01*
X89807579Y-55060129D01*
X89807333Y-54932391D01*
X89807155Y-54802205D01*
X89807043Y-54670342D01*
X89806998Y-54537572D01*
X89807019Y-54404665D01*
X89807108Y-54272392D01*
X89807262Y-54141524D01*
X89807484Y-54012829D01*
X89807772Y-53887080D01*
X89808127Y-53765045D01*
X89808549Y-53647496D01*
X89809037Y-53535202D01*
X89809592Y-53428934D01*
X89810214Y-53329462D01*
X89810903Y-53237557D01*
X89811658Y-53153989D01*
X89812480Y-53079527D01*
X89813368Y-53014944D01*
X89814323Y-52961007D01*
X89815345Y-52918489D01*
X89816434Y-52888160D01*
X89817589Y-52870788D01*
X89818015Y-52867887D01*
X89838787Y-52802220D01*
X89871165Y-52743225D01*
X89913865Y-52692109D01*
X89965602Y-52650076D01*
X90025092Y-52618332D01*
X90091049Y-52598081D01*
X90108992Y-52594864D01*
X90175499Y-52591369D01*
X90239945Y-52600799D01*
G37*
%TD*%
D12*
%TO.C,J2*%
X108438999Y-60209999D03*
X114038999Y-60209999D03*
D13*
X109738999Y-56334999D03*
X110738999Y-56334999D03*
X111738999Y-56334999D03*
X112738999Y-56334999D03*
%TD*%
D14*
%TO.C,C2*%
X95357000Y-54986000D03*
X95357000Y-53436000D03*
%TD*%
D15*
%TO.C,D1*%
X98353999Y-61301999D03*
X98353999Y-58501999D03*
%TD*%
D16*
%TO.C,FB1*%
X93869000Y-56603000D03*
X93869000Y-55003000D03*
%TD*%
D17*
%TO.C,U1*%
X106539000Y-55571500D03*
X107489000Y-55571500D03*
X108439000Y-55571500D03*
X108439000Y-53296500D03*
X107489000Y-53296500D03*
X106539000Y-53296500D03*
%TD*%
D18*
%TO.C,FB2*%
X103581000Y-62296000D03*
X101981000Y-62296000D03*
%TD*%
D19*
%TO.C,R1*%
X106350000Y-58370000D03*
X106350000Y-60020000D03*
%TD*%
D20*
%TO.C,F1*%
X98806500Y-56611000D03*
X96931500Y-56611000D03*
%TD*%
D21*
%TO.C,H2*%
X84508000Y-54060000D03*
%TD*%
D19*
%TO.C,R3*%
X110400000Y-53005000D03*
X110400000Y-54655000D03*
%TD*%
%TO.C,R4*%
X112002011Y-53004991D03*
X112002011Y-54654991D03*
%TD*%
D22*
%TO.C,C1*%
X95407000Y-56464000D03*
X95407000Y-58014000D03*
%TD*%
D21*
%TO.C,H1*%
X120539000Y-54029000D03*
%TD*%
D23*
%TO.C,R2*%
X98790000Y-54868000D03*
X98790000Y-53218000D03*
%TD*%
D24*
%TO.C,J1*%
X102551000Y-60380000D03*
D25*
X102551000Y-52880000D03*
D26*
X104701000Y-59030000D03*
X100401000Y-59030000D03*
X104701000Y-54230000D03*
X100401000Y-54230000D03*
%TD*%
M02*
