%TF.GenerationSoftware,KiCad,Pcbnew,(6.0.9)*%
%TF.CreationDate,2022-12-14T22:58:49+01:00*%
%TF.ProjectId,daughterboard,64617567-6874-4657-9262-6f6172642e6b,1.0*%
%TF.SameCoordinates,Original*%
%TF.FileFunction,Drillmap*%
%TF.FilePolarity,Positive*%
%FSLAX45Y45*%
G04 Gerber Fmt 4.5, Leading zero omitted, Abs format (unit mm)*
G04 Created by KiCad (PCBNEW (6.0.9)) date 2022-12-14 22:58:49*
%MOMM*%
%LPD*%
G01*
G04 APERTURE LIST*
%ADD10C,0.250000*%
%ADD11C,0.200000*%
%ADD12C,0.030000*%
%ADD13C,0.070000*%
%ADD14C,0.220000*%
%ADD15C,0.058000*%
%ADD16C,0.066000*%
G04 APERTURE END LIST*
D10*
X8446300Y-5104500D02*
G75*
G03*
X8146300Y-5404500I0J-300000D01*
G01*
X8146300Y-5404500D02*
X8146300Y-6104500D01*
X12046300Y-5104500D02*
X8446300Y-5104500D01*
X8446300Y-6404500D02*
X12046300Y-6404500D01*
X12346300Y-5404500D02*
G75*
G03*
X12046300Y-5104500I-300000J0D01*
G01*
X8146300Y-6104500D02*
G75*
G03*
X8446300Y-6404500I300000J0D01*
G01*
X12346300Y-6104500D02*
X12346300Y-5404500D01*
X12046300Y-6404500D02*
G75*
G03*
X12346300Y-6104500I0J300000D01*
G01*
D11*
D12*
X9869900Y-5390400D02*
X9899900Y-5420400D01*
X9899900Y-5390400D02*
X9869900Y-5420400D01*
X10239800Y-5431000D02*
X10269800Y-5461000D01*
X10269800Y-5431000D02*
X10239800Y-5461000D01*
X10240000Y-5709000D02*
X10270000Y-5739000D01*
X10270000Y-5709000D02*
X10240000Y-5739000D01*
X10240000Y-5791000D02*
X10270000Y-5821000D01*
X10270000Y-5791000D02*
X10240000Y-5821000D01*
X10240500Y-5865900D02*
X10270500Y-5895900D01*
X10270500Y-5865900D02*
X10240500Y-5895900D01*
X10243200Y-5523700D02*
X10273200Y-5553700D01*
X10273200Y-5523700D02*
X10243200Y-5553700D01*
X10406800Y-5673050D02*
X10436800Y-5703050D01*
X10436800Y-5673050D02*
X10406800Y-5703050D01*
X10448800Y-5615950D02*
X10478800Y-5645950D01*
X10478800Y-5615950D02*
X10448800Y-5645950D01*
X10621100Y-5899800D02*
X10651100Y-5929800D01*
X10651100Y-5899800D02*
X10621100Y-5929800D01*
X10732000Y-5624000D02*
X10762000Y-5654000D01*
X10762000Y-5624000D02*
X10732000Y-5654000D01*
D13*
X10075100Y-5423000D02*
G75*
G03*
X10075100Y-5423000I-35000J0D01*
G01*
X10075100Y-5903000D02*
G75*
G03*
X10075100Y-5903000I-35000J0D01*
G01*
X10505100Y-5423000D02*
G75*
G03*
X10505100Y-5423000I-35000J0D01*
G01*
X10505100Y-5903000D02*
G75*
G03*
X10505100Y-5903000I-35000J0D01*
G01*
D14*
X8450800Y-5296000D02*
X8450800Y-5516000D01*
X8340800Y-5406000D02*
X8560800Y-5406000D01*
X12053900Y-5292900D02*
X12053900Y-5512900D01*
X11943900Y-5402900D02*
X12163900Y-5402900D01*
D15*
X10275606Y-6058506D02*
X10275606Y-6017494D01*
X10234594Y-6017494D01*
X10234594Y-6058506D01*
X10275606Y-6058506D01*
D16*
X10255100Y-5321000D02*
X10288100Y-5288000D01*
X10255100Y-5255000D01*
X10222100Y-5288000D01*
X10255100Y-5321000D01*
D11*
X8391419Y-6727476D02*
X8391419Y-6527476D01*
X8439038Y-6527476D01*
X8467610Y-6537000D01*
X8486657Y-6556048D01*
X8496181Y-6575095D01*
X8505705Y-6613190D01*
X8505705Y-6641762D01*
X8496181Y-6679857D01*
X8486657Y-6698905D01*
X8467610Y-6717952D01*
X8439038Y-6727476D01*
X8391419Y-6727476D01*
X8591419Y-6727476D02*
X8591419Y-6594143D01*
X8591419Y-6632238D02*
X8600943Y-6613190D01*
X8610467Y-6603667D01*
X8629514Y-6594143D01*
X8648562Y-6594143D01*
X8715229Y-6727476D02*
X8715229Y-6594143D01*
X8715229Y-6527476D02*
X8705705Y-6537000D01*
X8715229Y-6546524D01*
X8724752Y-6537000D01*
X8715229Y-6527476D01*
X8715229Y-6546524D01*
X8839038Y-6727476D02*
X8819991Y-6717952D01*
X8810467Y-6698905D01*
X8810467Y-6527476D01*
X8943800Y-6727476D02*
X8924752Y-6717952D01*
X8915229Y-6698905D01*
X8915229Y-6527476D01*
X9172372Y-6727476D02*
X9172372Y-6527476D01*
X9239038Y-6670333D01*
X9305705Y-6527476D01*
X9305705Y-6727476D01*
X9486657Y-6727476D02*
X9486657Y-6622714D01*
X9477133Y-6603667D01*
X9458086Y-6594143D01*
X9419991Y-6594143D01*
X9400943Y-6603667D01*
X9486657Y-6717952D02*
X9467610Y-6727476D01*
X9419991Y-6727476D01*
X9400943Y-6717952D01*
X9391419Y-6698905D01*
X9391419Y-6679857D01*
X9400943Y-6660809D01*
X9419991Y-6651286D01*
X9467610Y-6651286D01*
X9486657Y-6641762D01*
X9581895Y-6594143D02*
X9581895Y-6794143D01*
X9581895Y-6603667D02*
X9600943Y-6594143D01*
X9639038Y-6594143D01*
X9658086Y-6603667D01*
X9667610Y-6613190D01*
X9677133Y-6632238D01*
X9677133Y-6689381D01*
X9667610Y-6708428D01*
X9658086Y-6717952D01*
X9639038Y-6727476D01*
X9600943Y-6727476D01*
X9581895Y-6717952D01*
X9762848Y-6708428D02*
X9772372Y-6717952D01*
X9762848Y-6727476D01*
X9753324Y-6717952D01*
X9762848Y-6708428D01*
X9762848Y-6727476D01*
X9762848Y-6603667D02*
X9772372Y-6613190D01*
X9762848Y-6622714D01*
X9753324Y-6613190D01*
X9762848Y-6603667D01*
X9762848Y-6622714D01*
D12*
X8103800Y-7042000D02*
X8133800Y-7072000D01*
X8133800Y-7042000D02*
X8103800Y-7072000D01*
D11*
X8429514Y-6947476D02*
X8448562Y-6947476D01*
X8467610Y-6957000D01*
X8477133Y-6966524D01*
X8486657Y-6985571D01*
X8496181Y-7023667D01*
X8496181Y-7071286D01*
X8486657Y-7109381D01*
X8477133Y-7128428D01*
X8467610Y-7137952D01*
X8448562Y-7147476D01*
X8429514Y-7147476D01*
X8410467Y-7137952D01*
X8400943Y-7128428D01*
X8391419Y-7109381D01*
X8381895Y-7071286D01*
X8381895Y-7023667D01*
X8391419Y-6985571D01*
X8400943Y-6966524D01*
X8410467Y-6957000D01*
X8429514Y-6947476D01*
X8581895Y-7128428D02*
X8591419Y-7137952D01*
X8581895Y-7147476D01*
X8572372Y-7137952D01*
X8581895Y-7128428D01*
X8581895Y-7147476D01*
X8658086Y-6947476D02*
X8781895Y-6947476D01*
X8715229Y-7023667D01*
X8743800Y-7023667D01*
X8762848Y-7033190D01*
X8772372Y-7042714D01*
X8781895Y-7061762D01*
X8781895Y-7109381D01*
X8772372Y-7128428D01*
X8762848Y-7137952D01*
X8743800Y-7147476D01*
X8686657Y-7147476D01*
X8667610Y-7137952D01*
X8658086Y-7128428D01*
X8905705Y-6947476D02*
X8924752Y-6947476D01*
X8943800Y-6957000D01*
X8953324Y-6966524D01*
X8962848Y-6985571D01*
X8972372Y-7023667D01*
X8972372Y-7071286D01*
X8962848Y-7109381D01*
X8953324Y-7128428D01*
X8943800Y-7137952D01*
X8924752Y-7147476D01*
X8905705Y-7147476D01*
X8886657Y-7137952D01*
X8877133Y-7128428D01*
X8867610Y-7109381D01*
X8858086Y-7071286D01*
X8858086Y-7023667D01*
X8867610Y-6985571D01*
X8877133Y-6966524D01*
X8886657Y-6957000D01*
X8905705Y-6947476D01*
X9096181Y-6947476D02*
X9115229Y-6947476D01*
X9134276Y-6957000D01*
X9143800Y-6966524D01*
X9153324Y-6985571D01*
X9162848Y-7023667D01*
X9162848Y-7071286D01*
X9153324Y-7109381D01*
X9143800Y-7128428D01*
X9134276Y-7137952D01*
X9115229Y-7147476D01*
X9096181Y-7147476D01*
X9077133Y-7137952D01*
X9067610Y-7128428D01*
X9058086Y-7109381D01*
X9048562Y-7071286D01*
X9048562Y-7023667D01*
X9058086Y-6985571D01*
X9067610Y-6966524D01*
X9077133Y-6957000D01*
X9096181Y-6947476D01*
X9248562Y-7147476D02*
X9248562Y-7014143D01*
X9248562Y-7033190D02*
X9258086Y-7023667D01*
X9277133Y-7014143D01*
X9305705Y-7014143D01*
X9324752Y-7023667D01*
X9334276Y-7042714D01*
X9334276Y-7147476D01*
X9334276Y-7042714D02*
X9343800Y-7023667D01*
X9362848Y-7014143D01*
X9391419Y-7014143D01*
X9410467Y-7023667D01*
X9419991Y-7042714D01*
X9419991Y-7147476D01*
X9515229Y-7147476D02*
X9515229Y-7014143D01*
X9515229Y-7033190D02*
X9524752Y-7023667D01*
X9543800Y-7014143D01*
X9572372Y-7014143D01*
X9591419Y-7023667D01*
X9600943Y-7042714D01*
X9600943Y-7147476D01*
X9600943Y-7042714D02*
X9610467Y-7023667D01*
X9629514Y-7014143D01*
X9658086Y-7014143D01*
X9677133Y-7023667D01*
X9686657Y-7042714D01*
X9686657Y-7147476D01*
X10077133Y-6937952D02*
X9905705Y-7195095D01*
X10334276Y-6947476D02*
X10353324Y-6947476D01*
X10372372Y-6957000D01*
X10381895Y-6966524D01*
X10391419Y-6985571D01*
X10400943Y-7023667D01*
X10400943Y-7071286D01*
X10391419Y-7109381D01*
X10381895Y-7128428D01*
X10372372Y-7137952D01*
X10353324Y-7147476D01*
X10334276Y-7147476D01*
X10315229Y-7137952D01*
X10305705Y-7128428D01*
X10296181Y-7109381D01*
X10286657Y-7071286D01*
X10286657Y-7023667D01*
X10296181Y-6985571D01*
X10305705Y-6966524D01*
X10315229Y-6957000D01*
X10334276Y-6947476D01*
X10486657Y-7128428D02*
X10496181Y-7137952D01*
X10486657Y-7147476D01*
X10477133Y-7137952D01*
X10486657Y-7128428D01*
X10486657Y-7147476D01*
X10619991Y-6947476D02*
X10639038Y-6947476D01*
X10658086Y-6957000D01*
X10667610Y-6966524D01*
X10677133Y-6985571D01*
X10686657Y-7023667D01*
X10686657Y-7071286D01*
X10677133Y-7109381D01*
X10667610Y-7128428D01*
X10658086Y-7137952D01*
X10639038Y-7147476D01*
X10619991Y-7147476D01*
X10600943Y-7137952D01*
X10591419Y-7128428D01*
X10581895Y-7109381D01*
X10572372Y-7071286D01*
X10572372Y-7023667D01*
X10581895Y-6985571D01*
X10591419Y-6966524D01*
X10600943Y-6957000D01*
X10619991Y-6947476D01*
X10877133Y-7147476D02*
X10762848Y-7147476D01*
X10819991Y-7147476D02*
X10819991Y-6947476D01*
X10800943Y-6976048D01*
X10781895Y-6995095D01*
X10762848Y-7004619D01*
X11067610Y-7147476D02*
X10953324Y-7147476D01*
X11010467Y-7147476D02*
X11010467Y-6947476D01*
X10991419Y-6976048D01*
X10972372Y-6995095D01*
X10953324Y-7004619D01*
X11181895Y-7033190D02*
X11162848Y-7023667D01*
X11153324Y-7014143D01*
X11143800Y-6995095D01*
X11143800Y-6985571D01*
X11153324Y-6966524D01*
X11162848Y-6957000D01*
X11181895Y-6947476D01*
X11219990Y-6947476D01*
X11239038Y-6957000D01*
X11248562Y-6966524D01*
X11258086Y-6985571D01*
X11258086Y-6995095D01*
X11248562Y-7014143D01*
X11239038Y-7023667D01*
X11219990Y-7033190D01*
X11181895Y-7033190D01*
X11162848Y-7042714D01*
X11153324Y-7052238D01*
X11143800Y-7071286D01*
X11143800Y-7109381D01*
X11153324Y-7128428D01*
X11162848Y-7137952D01*
X11181895Y-7147476D01*
X11219990Y-7147476D01*
X11239038Y-7137952D01*
X11248562Y-7128428D01*
X11258086Y-7109381D01*
X11258086Y-7071286D01*
X11248562Y-7052238D01*
X11239038Y-7042714D01*
X11219990Y-7033190D01*
X11334276Y-6947476D02*
X11334276Y-6985571D01*
X11410467Y-6947476D02*
X11410467Y-6985571D01*
X11705705Y-7223667D02*
X11696181Y-7214143D01*
X11677133Y-7185571D01*
X11667610Y-7166524D01*
X11658086Y-7137952D01*
X11648562Y-7090333D01*
X11648562Y-7052238D01*
X11658086Y-7004619D01*
X11667610Y-6976048D01*
X11677133Y-6957000D01*
X11696181Y-6928428D01*
X11705705Y-6918905D01*
X11886657Y-7147476D02*
X11772371Y-7147476D01*
X11829514Y-7147476D02*
X11829514Y-6947476D01*
X11810467Y-6976048D01*
X11791419Y-6995095D01*
X11772371Y-7004619D01*
X12010467Y-6947476D02*
X12029514Y-6947476D01*
X12048562Y-6957000D01*
X12058086Y-6966524D01*
X12067610Y-6985571D01*
X12077133Y-7023667D01*
X12077133Y-7071286D01*
X12067610Y-7109381D01*
X12058086Y-7128428D01*
X12048562Y-7137952D01*
X12029514Y-7147476D01*
X12010467Y-7147476D01*
X11991419Y-7137952D01*
X11981895Y-7128428D01*
X11972371Y-7109381D01*
X11962848Y-7071286D01*
X11962848Y-7023667D01*
X11972371Y-6985571D01*
X11981895Y-6966524D01*
X11991419Y-6957000D01*
X12010467Y-6947476D01*
X12315229Y-7147476D02*
X12315229Y-6947476D01*
X12400943Y-7147476D02*
X12400943Y-7042714D01*
X12391419Y-7023667D01*
X12372371Y-7014143D01*
X12343800Y-7014143D01*
X12324752Y-7023667D01*
X12315229Y-7033190D01*
X12524752Y-7147476D02*
X12505705Y-7137952D01*
X12496181Y-7128428D01*
X12486657Y-7109381D01*
X12486657Y-7052238D01*
X12496181Y-7033190D01*
X12505705Y-7023667D01*
X12524752Y-7014143D01*
X12553324Y-7014143D01*
X12572371Y-7023667D01*
X12581895Y-7033190D01*
X12591419Y-7052238D01*
X12591419Y-7109381D01*
X12581895Y-7128428D01*
X12572371Y-7137952D01*
X12553324Y-7147476D01*
X12524752Y-7147476D01*
X12705705Y-7147476D02*
X12686657Y-7137952D01*
X12677133Y-7118905D01*
X12677133Y-6947476D01*
X12858086Y-7137952D02*
X12839038Y-7147476D01*
X12800943Y-7147476D01*
X12781895Y-7137952D01*
X12772371Y-7118905D01*
X12772371Y-7042714D01*
X12781895Y-7023667D01*
X12800943Y-7014143D01*
X12839038Y-7014143D01*
X12858086Y-7023667D01*
X12867610Y-7042714D01*
X12867610Y-7061762D01*
X12772371Y-7080809D01*
X12943800Y-7137952D02*
X12962848Y-7147476D01*
X13000943Y-7147476D01*
X13019990Y-7137952D01*
X13029514Y-7118905D01*
X13029514Y-7109381D01*
X13019990Y-7090333D01*
X13000943Y-7080809D01*
X12972371Y-7080809D01*
X12953324Y-7071286D01*
X12943800Y-7052238D01*
X12943800Y-7042714D01*
X12953324Y-7023667D01*
X12972371Y-7014143D01*
X13000943Y-7014143D01*
X13019990Y-7023667D01*
X13096181Y-7223667D02*
X13105705Y-7214143D01*
X13124752Y-7185571D01*
X13134276Y-7166524D01*
X13143800Y-7137952D01*
X13153324Y-7090333D01*
X13153324Y-7052238D01*
X13143800Y-7004619D01*
X13134276Y-6976048D01*
X13124752Y-6957000D01*
X13105705Y-6928428D01*
X13096181Y-6918905D01*
D13*
X8133800Y-7321000D02*
G75*
G03*
X8133800Y-7321000I-35000J0D01*
G01*
D11*
X8429514Y-7211476D02*
X8448562Y-7211476D01*
X8467610Y-7221000D01*
X8477133Y-7230524D01*
X8486657Y-7249571D01*
X8496181Y-7287667D01*
X8496181Y-7335286D01*
X8486657Y-7373381D01*
X8477133Y-7392428D01*
X8467610Y-7401952D01*
X8448562Y-7411476D01*
X8429514Y-7411476D01*
X8410467Y-7401952D01*
X8400943Y-7392428D01*
X8391419Y-7373381D01*
X8381895Y-7335286D01*
X8381895Y-7287667D01*
X8391419Y-7249571D01*
X8400943Y-7230524D01*
X8410467Y-7221000D01*
X8429514Y-7211476D01*
X8581895Y-7392428D02*
X8591419Y-7401952D01*
X8581895Y-7411476D01*
X8572372Y-7401952D01*
X8581895Y-7392428D01*
X8581895Y-7411476D01*
X8658086Y-7211476D02*
X8791419Y-7211476D01*
X8705705Y-7411476D01*
X8905705Y-7211476D02*
X8924752Y-7211476D01*
X8943800Y-7221000D01*
X8953324Y-7230524D01*
X8962848Y-7249571D01*
X8972372Y-7287667D01*
X8972372Y-7335286D01*
X8962848Y-7373381D01*
X8953324Y-7392428D01*
X8943800Y-7401952D01*
X8924752Y-7411476D01*
X8905705Y-7411476D01*
X8886657Y-7401952D01*
X8877133Y-7392428D01*
X8867610Y-7373381D01*
X8858086Y-7335286D01*
X8858086Y-7287667D01*
X8867610Y-7249571D01*
X8877133Y-7230524D01*
X8886657Y-7221000D01*
X8905705Y-7211476D01*
X9096181Y-7211476D02*
X9115229Y-7211476D01*
X9134276Y-7221000D01*
X9143800Y-7230524D01*
X9153324Y-7249571D01*
X9162848Y-7287667D01*
X9162848Y-7335286D01*
X9153324Y-7373381D01*
X9143800Y-7392428D01*
X9134276Y-7401952D01*
X9115229Y-7411476D01*
X9096181Y-7411476D01*
X9077133Y-7401952D01*
X9067610Y-7392428D01*
X9058086Y-7373381D01*
X9048562Y-7335286D01*
X9048562Y-7287667D01*
X9058086Y-7249571D01*
X9067610Y-7230524D01*
X9077133Y-7221000D01*
X9096181Y-7211476D01*
X9248562Y-7411476D02*
X9248562Y-7278143D01*
X9248562Y-7297190D02*
X9258086Y-7287667D01*
X9277133Y-7278143D01*
X9305705Y-7278143D01*
X9324752Y-7287667D01*
X9334276Y-7306714D01*
X9334276Y-7411476D01*
X9334276Y-7306714D02*
X9343800Y-7287667D01*
X9362848Y-7278143D01*
X9391419Y-7278143D01*
X9410467Y-7287667D01*
X9419991Y-7306714D01*
X9419991Y-7411476D01*
X9515229Y-7411476D02*
X9515229Y-7278143D01*
X9515229Y-7297190D02*
X9524752Y-7287667D01*
X9543800Y-7278143D01*
X9572372Y-7278143D01*
X9591419Y-7287667D01*
X9600943Y-7306714D01*
X9600943Y-7411476D01*
X9600943Y-7306714D02*
X9610467Y-7287667D01*
X9629514Y-7278143D01*
X9658086Y-7278143D01*
X9677133Y-7287667D01*
X9686657Y-7306714D01*
X9686657Y-7411476D01*
X10077133Y-7201952D02*
X9905705Y-7459095D01*
X10334276Y-7211476D02*
X10353324Y-7211476D01*
X10372372Y-7221000D01*
X10381895Y-7230524D01*
X10391419Y-7249571D01*
X10400943Y-7287667D01*
X10400943Y-7335286D01*
X10391419Y-7373381D01*
X10381895Y-7392428D01*
X10372372Y-7401952D01*
X10353324Y-7411476D01*
X10334276Y-7411476D01*
X10315229Y-7401952D01*
X10305705Y-7392428D01*
X10296181Y-7373381D01*
X10286657Y-7335286D01*
X10286657Y-7287667D01*
X10296181Y-7249571D01*
X10305705Y-7230524D01*
X10315229Y-7221000D01*
X10334276Y-7211476D01*
X10486657Y-7392428D02*
X10496181Y-7401952D01*
X10486657Y-7411476D01*
X10477133Y-7401952D01*
X10486657Y-7392428D01*
X10486657Y-7411476D01*
X10619991Y-7211476D02*
X10639038Y-7211476D01*
X10658086Y-7221000D01*
X10667610Y-7230524D01*
X10677133Y-7249571D01*
X10686657Y-7287667D01*
X10686657Y-7335286D01*
X10677133Y-7373381D01*
X10667610Y-7392428D01*
X10658086Y-7401952D01*
X10639038Y-7411476D01*
X10619991Y-7411476D01*
X10600943Y-7401952D01*
X10591419Y-7392428D01*
X10581895Y-7373381D01*
X10572372Y-7335286D01*
X10572372Y-7287667D01*
X10581895Y-7249571D01*
X10591419Y-7230524D01*
X10600943Y-7221000D01*
X10619991Y-7211476D01*
X10762848Y-7230524D02*
X10772372Y-7221000D01*
X10791419Y-7211476D01*
X10839038Y-7211476D01*
X10858086Y-7221000D01*
X10867610Y-7230524D01*
X10877133Y-7249571D01*
X10877133Y-7268619D01*
X10867610Y-7297190D01*
X10753324Y-7411476D01*
X10877133Y-7411476D01*
X10943800Y-7211476D02*
X11077133Y-7211476D01*
X10991419Y-7411476D01*
X11239038Y-7211476D02*
X11200943Y-7211476D01*
X11181895Y-7221000D01*
X11172372Y-7230524D01*
X11153324Y-7259095D01*
X11143800Y-7297190D01*
X11143800Y-7373381D01*
X11153324Y-7392428D01*
X11162848Y-7401952D01*
X11181895Y-7411476D01*
X11219990Y-7411476D01*
X11239038Y-7401952D01*
X11248562Y-7392428D01*
X11258086Y-7373381D01*
X11258086Y-7325762D01*
X11248562Y-7306714D01*
X11239038Y-7297190D01*
X11219990Y-7287667D01*
X11181895Y-7287667D01*
X11162848Y-7297190D01*
X11153324Y-7306714D01*
X11143800Y-7325762D01*
X11334276Y-7211476D02*
X11334276Y-7249571D01*
X11410467Y-7211476D02*
X11410467Y-7249571D01*
X11705705Y-7487667D02*
X11696181Y-7478143D01*
X11677133Y-7449571D01*
X11667610Y-7430524D01*
X11658086Y-7401952D01*
X11648562Y-7354333D01*
X11648562Y-7316238D01*
X11658086Y-7268619D01*
X11667610Y-7240048D01*
X11677133Y-7221000D01*
X11696181Y-7192428D01*
X11705705Y-7182905D01*
X11867610Y-7278143D02*
X11867610Y-7411476D01*
X11819990Y-7201952D02*
X11772371Y-7344809D01*
X11896181Y-7344809D01*
X12124752Y-7411476D02*
X12124752Y-7211476D01*
X12210467Y-7411476D02*
X12210467Y-7306714D01*
X12200943Y-7287667D01*
X12181895Y-7278143D01*
X12153324Y-7278143D01*
X12134276Y-7287667D01*
X12124752Y-7297190D01*
X12334276Y-7411476D02*
X12315229Y-7401952D01*
X12305705Y-7392428D01*
X12296181Y-7373381D01*
X12296181Y-7316238D01*
X12305705Y-7297190D01*
X12315229Y-7287667D01*
X12334276Y-7278143D01*
X12362848Y-7278143D01*
X12381895Y-7287667D01*
X12391419Y-7297190D01*
X12400943Y-7316238D01*
X12400943Y-7373381D01*
X12391419Y-7392428D01*
X12381895Y-7401952D01*
X12362848Y-7411476D01*
X12334276Y-7411476D01*
X12515229Y-7411476D02*
X12496181Y-7401952D01*
X12486657Y-7382905D01*
X12486657Y-7211476D01*
X12667610Y-7401952D02*
X12648562Y-7411476D01*
X12610467Y-7411476D01*
X12591419Y-7401952D01*
X12581895Y-7382905D01*
X12581895Y-7306714D01*
X12591419Y-7287667D01*
X12610467Y-7278143D01*
X12648562Y-7278143D01*
X12667610Y-7287667D01*
X12677133Y-7306714D01*
X12677133Y-7325762D01*
X12581895Y-7344809D01*
X12753324Y-7401952D02*
X12772371Y-7411476D01*
X12810467Y-7411476D01*
X12829514Y-7401952D01*
X12839038Y-7382905D01*
X12839038Y-7373381D01*
X12829514Y-7354333D01*
X12810467Y-7344809D01*
X12781895Y-7344809D01*
X12762848Y-7335286D01*
X12753324Y-7316238D01*
X12753324Y-7306714D01*
X12762848Y-7287667D01*
X12781895Y-7278143D01*
X12810467Y-7278143D01*
X12829514Y-7287667D01*
X12905705Y-7487667D02*
X12915229Y-7478143D01*
X12934276Y-7449571D01*
X12943800Y-7430524D01*
X12953324Y-7401952D01*
X12962848Y-7354333D01*
X12962848Y-7316238D01*
X12953324Y-7268619D01*
X12943800Y-7240048D01*
X12934276Y-7221000D01*
X12915229Y-7192428D01*
X12905705Y-7182905D01*
X8033800Y-7485000D02*
X8033800Y-7685000D01*
X7933800Y-7585000D02*
X8133800Y-7585000D01*
X8381895Y-7494524D02*
X8391419Y-7485000D01*
X8410467Y-7475476D01*
X8458086Y-7475476D01*
X8477133Y-7485000D01*
X8486657Y-7494524D01*
X8496181Y-7513571D01*
X8496181Y-7532619D01*
X8486657Y-7561190D01*
X8372371Y-7675476D01*
X8496181Y-7675476D01*
X8581895Y-7656428D02*
X8591419Y-7665952D01*
X8581895Y-7675476D01*
X8572372Y-7665952D01*
X8581895Y-7656428D01*
X8581895Y-7675476D01*
X8667610Y-7494524D02*
X8677133Y-7485000D01*
X8696181Y-7475476D01*
X8743800Y-7475476D01*
X8762848Y-7485000D01*
X8772372Y-7494524D01*
X8781895Y-7513571D01*
X8781895Y-7532619D01*
X8772372Y-7561190D01*
X8658086Y-7675476D01*
X8781895Y-7675476D01*
X8905705Y-7475476D02*
X8924752Y-7475476D01*
X8943800Y-7485000D01*
X8953324Y-7494524D01*
X8962848Y-7513571D01*
X8972372Y-7551667D01*
X8972372Y-7599286D01*
X8962848Y-7637381D01*
X8953324Y-7656428D01*
X8943800Y-7665952D01*
X8924752Y-7675476D01*
X8905705Y-7675476D01*
X8886657Y-7665952D01*
X8877133Y-7656428D01*
X8867610Y-7637381D01*
X8858086Y-7599286D01*
X8858086Y-7551667D01*
X8867610Y-7513571D01*
X8877133Y-7494524D01*
X8886657Y-7485000D01*
X8905705Y-7475476D01*
X9096181Y-7475476D02*
X9115229Y-7475476D01*
X9134276Y-7485000D01*
X9143800Y-7494524D01*
X9153324Y-7513571D01*
X9162848Y-7551667D01*
X9162848Y-7599286D01*
X9153324Y-7637381D01*
X9143800Y-7656428D01*
X9134276Y-7665952D01*
X9115229Y-7675476D01*
X9096181Y-7675476D01*
X9077133Y-7665952D01*
X9067610Y-7656428D01*
X9058086Y-7637381D01*
X9048562Y-7599286D01*
X9048562Y-7551667D01*
X9058086Y-7513571D01*
X9067610Y-7494524D01*
X9077133Y-7485000D01*
X9096181Y-7475476D01*
X9248562Y-7675476D02*
X9248562Y-7542143D01*
X9248562Y-7561190D02*
X9258086Y-7551667D01*
X9277133Y-7542143D01*
X9305705Y-7542143D01*
X9324752Y-7551667D01*
X9334276Y-7570714D01*
X9334276Y-7675476D01*
X9334276Y-7570714D02*
X9343800Y-7551667D01*
X9362848Y-7542143D01*
X9391419Y-7542143D01*
X9410467Y-7551667D01*
X9419991Y-7570714D01*
X9419991Y-7675476D01*
X9515229Y-7675476D02*
X9515229Y-7542143D01*
X9515229Y-7561190D02*
X9524752Y-7551667D01*
X9543800Y-7542143D01*
X9572372Y-7542143D01*
X9591419Y-7551667D01*
X9600943Y-7570714D01*
X9600943Y-7675476D01*
X9600943Y-7570714D02*
X9610467Y-7551667D01*
X9629514Y-7542143D01*
X9658086Y-7542143D01*
X9677133Y-7551667D01*
X9686657Y-7570714D01*
X9686657Y-7675476D01*
X10077133Y-7465952D02*
X9905705Y-7723095D01*
X10334276Y-7475476D02*
X10353324Y-7475476D01*
X10372372Y-7485000D01*
X10381895Y-7494524D01*
X10391419Y-7513571D01*
X10400943Y-7551667D01*
X10400943Y-7599286D01*
X10391419Y-7637381D01*
X10381895Y-7656428D01*
X10372372Y-7665952D01*
X10353324Y-7675476D01*
X10334276Y-7675476D01*
X10315229Y-7665952D01*
X10305705Y-7656428D01*
X10296181Y-7637381D01*
X10286657Y-7599286D01*
X10286657Y-7551667D01*
X10296181Y-7513571D01*
X10305705Y-7494524D01*
X10315229Y-7485000D01*
X10334276Y-7475476D01*
X10486657Y-7656428D02*
X10496181Y-7665952D01*
X10486657Y-7675476D01*
X10477133Y-7665952D01*
X10486657Y-7656428D01*
X10486657Y-7675476D01*
X10619991Y-7475476D02*
X10639038Y-7475476D01*
X10658086Y-7485000D01*
X10667610Y-7494524D01*
X10677133Y-7513571D01*
X10686657Y-7551667D01*
X10686657Y-7599286D01*
X10677133Y-7637381D01*
X10667610Y-7656428D01*
X10658086Y-7665952D01*
X10639038Y-7675476D01*
X10619991Y-7675476D01*
X10600943Y-7665952D01*
X10591419Y-7656428D01*
X10581895Y-7637381D01*
X10572372Y-7599286D01*
X10572372Y-7551667D01*
X10581895Y-7513571D01*
X10591419Y-7494524D01*
X10600943Y-7485000D01*
X10619991Y-7475476D01*
X10800943Y-7561190D02*
X10781895Y-7551667D01*
X10772372Y-7542143D01*
X10762848Y-7523095D01*
X10762848Y-7513571D01*
X10772372Y-7494524D01*
X10781895Y-7485000D01*
X10800943Y-7475476D01*
X10839038Y-7475476D01*
X10858086Y-7485000D01*
X10867610Y-7494524D01*
X10877133Y-7513571D01*
X10877133Y-7523095D01*
X10867610Y-7542143D01*
X10858086Y-7551667D01*
X10839038Y-7561190D01*
X10800943Y-7561190D01*
X10781895Y-7570714D01*
X10772372Y-7580238D01*
X10762848Y-7599286D01*
X10762848Y-7637381D01*
X10772372Y-7656428D01*
X10781895Y-7665952D01*
X10800943Y-7675476D01*
X10839038Y-7675476D01*
X10858086Y-7665952D01*
X10867610Y-7656428D01*
X10877133Y-7637381D01*
X10877133Y-7599286D01*
X10867610Y-7580238D01*
X10858086Y-7570714D01*
X10839038Y-7561190D01*
X11048562Y-7475476D02*
X11010467Y-7475476D01*
X10991419Y-7485000D01*
X10981895Y-7494524D01*
X10962848Y-7523095D01*
X10953324Y-7561190D01*
X10953324Y-7637381D01*
X10962848Y-7656428D01*
X10972372Y-7665952D01*
X10991419Y-7675476D01*
X11029514Y-7675476D01*
X11048562Y-7665952D01*
X11058086Y-7656428D01*
X11067610Y-7637381D01*
X11067610Y-7589762D01*
X11058086Y-7570714D01*
X11048562Y-7561190D01*
X11029514Y-7551667D01*
X10991419Y-7551667D01*
X10972372Y-7561190D01*
X10962848Y-7570714D01*
X10953324Y-7589762D01*
X11239038Y-7475476D02*
X11200943Y-7475476D01*
X11181895Y-7485000D01*
X11172372Y-7494524D01*
X11153324Y-7523095D01*
X11143800Y-7561190D01*
X11143800Y-7637381D01*
X11153324Y-7656428D01*
X11162848Y-7665952D01*
X11181895Y-7675476D01*
X11219990Y-7675476D01*
X11239038Y-7665952D01*
X11248562Y-7656428D01*
X11258086Y-7637381D01*
X11258086Y-7589762D01*
X11248562Y-7570714D01*
X11239038Y-7561190D01*
X11219990Y-7551667D01*
X11181895Y-7551667D01*
X11162848Y-7561190D01*
X11153324Y-7570714D01*
X11143800Y-7589762D01*
X11334276Y-7475476D02*
X11334276Y-7513571D01*
X11410467Y-7475476D02*
X11410467Y-7513571D01*
X11705705Y-7751667D02*
X11696181Y-7742143D01*
X11677133Y-7713571D01*
X11667610Y-7694524D01*
X11658086Y-7665952D01*
X11648562Y-7618333D01*
X11648562Y-7580238D01*
X11658086Y-7532619D01*
X11667610Y-7504048D01*
X11677133Y-7485000D01*
X11696181Y-7456428D01*
X11705705Y-7446905D01*
X11772371Y-7494524D02*
X11781895Y-7485000D01*
X11800943Y-7475476D01*
X11848562Y-7475476D01*
X11867610Y-7485000D01*
X11877133Y-7494524D01*
X11886657Y-7513571D01*
X11886657Y-7532619D01*
X11877133Y-7561190D01*
X11762848Y-7675476D01*
X11886657Y-7675476D01*
X12124752Y-7675476D02*
X12124752Y-7475476D01*
X12210467Y-7675476D02*
X12210467Y-7570714D01*
X12200943Y-7551667D01*
X12181895Y-7542143D01*
X12153324Y-7542143D01*
X12134276Y-7551667D01*
X12124752Y-7561190D01*
X12334276Y-7675476D02*
X12315229Y-7665952D01*
X12305705Y-7656428D01*
X12296181Y-7637381D01*
X12296181Y-7580238D01*
X12305705Y-7561190D01*
X12315229Y-7551667D01*
X12334276Y-7542143D01*
X12362848Y-7542143D01*
X12381895Y-7551667D01*
X12391419Y-7561190D01*
X12400943Y-7580238D01*
X12400943Y-7637381D01*
X12391419Y-7656428D01*
X12381895Y-7665952D01*
X12362848Y-7675476D01*
X12334276Y-7675476D01*
X12515229Y-7675476D02*
X12496181Y-7665952D01*
X12486657Y-7646905D01*
X12486657Y-7475476D01*
X12667610Y-7665952D02*
X12648562Y-7675476D01*
X12610467Y-7675476D01*
X12591419Y-7665952D01*
X12581895Y-7646905D01*
X12581895Y-7570714D01*
X12591419Y-7551667D01*
X12610467Y-7542143D01*
X12648562Y-7542143D01*
X12667610Y-7551667D01*
X12677133Y-7570714D01*
X12677133Y-7589762D01*
X12581895Y-7608809D01*
X12753324Y-7665952D02*
X12772371Y-7675476D01*
X12810467Y-7675476D01*
X12829514Y-7665952D01*
X12839038Y-7646905D01*
X12839038Y-7637381D01*
X12829514Y-7618333D01*
X12810467Y-7608809D01*
X12781895Y-7608809D01*
X12762848Y-7599286D01*
X12753324Y-7580238D01*
X12753324Y-7570714D01*
X12762848Y-7551667D01*
X12781895Y-7542143D01*
X12810467Y-7542143D01*
X12829514Y-7551667D01*
X12905705Y-7751667D02*
X12915229Y-7742143D01*
X12934276Y-7713571D01*
X12943800Y-7694524D01*
X12953324Y-7665952D01*
X12962848Y-7618333D01*
X12962848Y-7580238D01*
X12953324Y-7532619D01*
X12943800Y-7504048D01*
X12934276Y-7485000D01*
X12915229Y-7456428D01*
X12905705Y-7446905D01*
D15*
X8125306Y-7925506D02*
X8125306Y-7884494D01*
X8084294Y-7884494D01*
X8084294Y-7925506D01*
X8125306Y-7925506D01*
D11*
X8429514Y-7795476D02*
X8448562Y-7795476D01*
X8467610Y-7805000D01*
X8477133Y-7814524D01*
X8486657Y-7833571D01*
X8496181Y-7871667D01*
X8496181Y-7919286D01*
X8486657Y-7957381D01*
X8477133Y-7976428D01*
X8467610Y-7985952D01*
X8448562Y-7995476D01*
X8429514Y-7995476D01*
X8410467Y-7985952D01*
X8400943Y-7976428D01*
X8391419Y-7957381D01*
X8381895Y-7919286D01*
X8381895Y-7871667D01*
X8391419Y-7833571D01*
X8400943Y-7814524D01*
X8410467Y-7805000D01*
X8429514Y-7795476D01*
X8581895Y-7976428D02*
X8591419Y-7985952D01*
X8581895Y-7995476D01*
X8572372Y-7985952D01*
X8581895Y-7976428D01*
X8581895Y-7995476D01*
X8772372Y-7795476D02*
X8677133Y-7795476D01*
X8667610Y-7890714D01*
X8677133Y-7881190D01*
X8696181Y-7871667D01*
X8743800Y-7871667D01*
X8762848Y-7881190D01*
X8772372Y-7890714D01*
X8781895Y-7909762D01*
X8781895Y-7957381D01*
X8772372Y-7976428D01*
X8762848Y-7985952D01*
X8743800Y-7995476D01*
X8696181Y-7995476D01*
X8677133Y-7985952D01*
X8667610Y-7976428D01*
X8896181Y-7881190D02*
X8877133Y-7871667D01*
X8867610Y-7862143D01*
X8858086Y-7843095D01*
X8858086Y-7833571D01*
X8867610Y-7814524D01*
X8877133Y-7805000D01*
X8896181Y-7795476D01*
X8934276Y-7795476D01*
X8953324Y-7805000D01*
X8962848Y-7814524D01*
X8972372Y-7833571D01*
X8972372Y-7843095D01*
X8962848Y-7862143D01*
X8953324Y-7871667D01*
X8934276Y-7881190D01*
X8896181Y-7881190D01*
X8877133Y-7890714D01*
X8867610Y-7900238D01*
X8858086Y-7919286D01*
X8858086Y-7957381D01*
X8867610Y-7976428D01*
X8877133Y-7985952D01*
X8896181Y-7995476D01*
X8934276Y-7995476D01*
X8953324Y-7985952D01*
X8962848Y-7976428D01*
X8972372Y-7957381D01*
X8972372Y-7919286D01*
X8962848Y-7900238D01*
X8953324Y-7890714D01*
X8934276Y-7881190D01*
X9096181Y-7795476D02*
X9115229Y-7795476D01*
X9134276Y-7805000D01*
X9143800Y-7814524D01*
X9153324Y-7833571D01*
X9162848Y-7871667D01*
X9162848Y-7919286D01*
X9153324Y-7957381D01*
X9143800Y-7976428D01*
X9134276Y-7985952D01*
X9115229Y-7995476D01*
X9096181Y-7995476D01*
X9077133Y-7985952D01*
X9067610Y-7976428D01*
X9058086Y-7957381D01*
X9048562Y-7919286D01*
X9048562Y-7871667D01*
X9058086Y-7833571D01*
X9067610Y-7814524D01*
X9077133Y-7805000D01*
X9096181Y-7795476D01*
X9248562Y-7995476D02*
X9248562Y-7862143D01*
X9248562Y-7881190D02*
X9258086Y-7871667D01*
X9277133Y-7862143D01*
X9305705Y-7862143D01*
X9324752Y-7871667D01*
X9334276Y-7890714D01*
X9334276Y-7995476D01*
X9334276Y-7890714D02*
X9343800Y-7871667D01*
X9362848Y-7862143D01*
X9391419Y-7862143D01*
X9410467Y-7871667D01*
X9419991Y-7890714D01*
X9419991Y-7995476D01*
X9515229Y-7995476D02*
X9515229Y-7862143D01*
X9515229Y-7881190D02*
X9524752Y-7871667D01*
X9543800Y-7862143D01*
X9572372Y-7862143D01*
X9591419Y-7871667D01*
X9600943Y-7890714D01*
X9600943Y-7995476D01*
X9600943Y-7890714D02*
X9610467Y-7871667D01*
X9629514Y-7862143D01*
X9658086Y-7862143D01*
X9677133Y-7871667D01*
X9686657Y-7890714D01*
X9686657Y-7995476D01*
X10077133Y-7785952D02*
X9905705Y-8043095D01*
X10334276Y-7795476D02*
X10353324Y-7795476D01*
X10372372Y-7805000D01*
X10381895Y-7814524D01*
X10391419Y-7833571D01*
X10400943Y-7871667D01*
X10400943Y-7919286D01*
X10391419Y-7957381D01*
X10381895Y-7976428D01*
X10372372Y-7985952D01*
X10353324Y-7995476D01*
X10334276Y-7995476D01*
X10315229Y-7985952D01*
X10305705Y-7976428D01*
X10296181Y-7957381D01*
X10286657Y-7919286D01*
X10286657Y-7871667D01*
X10296181Y-7833571D01*
X10305705Y-7814524D01*
X10315229Y-7805000D01*
X10334276Y-7795476D01*
X10486657Y-7976428D02*
X10496181Y-7985952D01*
X10486657Y-7995476D01*
X10477133Y-7985952D01*
X10486657Y-7976428D01*
X10486657Y-7995476D01*
X10619991Y-7795476D02*
X10639038Y-7795476D01*
X10658086Y-7805000D01*
X10667610Y-7814524D01*
X10677133Y-7833571D01*
X10686657Y-7871667D01*
X10686657Y-7919286D01*
X10677133Y-7957381D01*
X10667610Y-7976428D01*
X10658086Y-7985952D01*
X10639038Y-7995476D01*
X10619991Y-7995476D01*
X10600943Y-7985952D01*
X10591419Y-7976428D01*
X10581895Y-7957381D01*
X10572372Y-7919286D01*
X10572372Y-7871667D01*
X10581895Y-7833571D01*
X10591419Y-7814524D01*
X10600943Y-7805000D01*
X10619991Y-7795476D01*
X10762848Y-7814524D02*
X10772372Y-7805000D01*
X10791419Y-7795476D01*
X10839038Y-7795476D01*
X10858086Y-7805000D01*
X10867610Y-7814524D01*
X10877133Y-7833571D01*
X10877133Y-7852619D01*
X10867610Y-7881190D01*
X10753324Y-7995476D01*
X10877133Y-7995476D01*
X10953324Y-7814524D02*
X10962848Y-7805000D01*
X10981895Y-7795476D01*
X11029514Y-7795476D01*
X11048562Y-7805000D01*
X11058086Y-7814524D01*
X11067610Y-7833571D01*
X11067610Y-7852619D01*
X11058086Y-7881190D01*
X10943800Y-7995476D01*
X11067610Y-7995476D01*
X11181895Y-7881190D02*
X11162848Y-7871667D01*
X11153324Y-7862143D01*
X11143800Y-7843095D01*
X11143800Y-7833571D01*
X11153324Y-7814524D01*
X11162848Y-7805000D01*
X11181895Y-7795476D01*
X11219990Y-7795476D01*
X11239038Y-7805000D01*
X11248562Y-7814524D01*
X11258086Y-7833571D01*
X11258086Y-7843095D01*
X11248562Y-7862143D01*
X11239038Y-7871667D01*
X11219990Y-7881190D01*
X11181895Y-7881190D01*
X11162848Y-7890714D01*
X11153324Y-7900238D01*
X11143800Y-7919286D01*
X11143800Y-7957381D01*
X11153324Y-7976428D01*
X11162848Y-7985952D01*
X11181895Y-7995476D01*
X11219990Y-7995476D01*
X11239038Y-7985952D01*
X11248562Y-7976428D01*
X11258086Y-7957381D01*
X11258086Y-7919286D01*
X11248562Y-7900238D01*
X11239038Y-7890714D01*
X11219990Y-7881190D01*
X11334276Y-7795476D02*
X11334276Y-7833571D01*
X11410467Y-7795476D02*
X11410467Y-7833571D01*
X11705705Y-8071667D02*
X11696181Y-8062143D01*
X11677133Y-8033571D01*
X11667610Y-8014524D01*
X11658086Y-7985952D01*
X11648562Y-7938333D01*
X11648562Y-7900238D01*
X11658086Y-7852619D01*
X11667610Y-7824048D01*
X11677133Y-7805000D01*
X11696181Y-7776428D01*
X11705705Y-7766905D01*
X11886657Y-7995476D02*
X11772371Y-7995476D01*
X11829514Y-7995476D02*
X11829514Y-7795476D01*
X11810467Y-7824048D01*
X11791419Y-7843095D01*
X11772371Y-7852619D01*
X12124752Y-7995476D02*
X12124752Y-7795476D01*
X12210467Y-7995476D02*
X12210467Y-7890714D01*
X12200943Y-7871667D01*
X12181895Y-7862143D01*
X12153324Y-7862143D01*
X12134276Y-7871667D01*
X12124752Y-7881190D01*
X12334276Y-7995476D02*
X12315229Y-7985952D01*
X12305705Y-7976428D01*
X12296181Y-7957381D01*
X12296181Y-7900238D01*
X12305705Y-7881190D01*
X12315229Y-7871667D01*
X12334276Y-7862143D01*
X12362848Y-7862143D01*
X12381895Y-7871667D01*
X12391419Y-7881190D01*
X12400943Y-7900238D01*
X12400943Y-7957381D01*
X12391419Y-7976428D01*
X12381895Y-7985952D01*
X12362848Y-7995476D01*
X12334276Y-7995476D01*
X12515229Y-7995476D02*
X12496181Y-7985952D01*
X12486657Y-7966905D01*
X12486657Y-7795476D01*
X12667610Y-7985952D02*
X12648562Y-7995476D01*
X12610467Y-7995476D01*
X12591419Y-7985952D01*
X12581895Y-7966905D01*
X12581895Y-7890714D01*
X12591419Y-7871667D01*
X12610467Y-7862143D01*
X12648562Y-7862143D01*
X12667610Y-7871667D01*
X12677133Y-7890714D01*
X12677133Y-7909762D01*
X12581895Y-7928809D01*
X12743800Y-8071667D02*
X12753324Y-8062143D01*
X12772371Y-8033571D01*
X12781895Y-8014524D01*
X12791419Y-7985952D01*
X12800943Y-7938333D01*
X12800943Y-7900238D01*
X12791419Y-7852619D01*
X12781895Y-7824048D01*
X12772371Y-7805000D01*
X12753324Y-7776428D01*
X12743800Y-7766905D01*
X13105705Y-8071667D02*
X13096181Y-8062143D01*
X13077133Y-8033571D01*
X13067610Y-8014524D01*
X13058086Y-7985952D01*
X13048562Y-7938333D01*
X13048562Y-7900238D01*
X13058086Y-7852619D01*
X13067610Y-7824048D01*
X13077133Y-7805000D01*
X13096181Y-7776428D01*
X13105705Y-7766905D01*
X13181895Y-7862143D02*
X13181895Y-7995476D01*
X13181895Y-7881190D02*
X13191419Y-7871667D01*
X13210467Y-7862143D01*
X13239038Y-7862143D01*
X13258086Y-7871667D01*
X13267610Y-7890714D01*
X13267610Y-7995476D01*
X13391419Y-7995476D02*
X13372371Y-7985952D01*
X13362848Y-7976428D01*
X13353324Y-7957381D01*
X13353324Y-7900238D01*
X13362848Y-7881190D01*
X13372371Y-7871667D01*
X13391419Y-7862143D01*
X13419990Y-7862143D01*
X13439038Y-7871667D01*
X13448562Y-7881190D01*
X13458086Y-7900238D01*
X13458086Y-7957381D01*
X13448562Y-7976428D01*
X13439038Y-7985952D01*
X13419990Y-7995476D01*
X13391419Y-7995476D01*
X13515229Y-7862143D02*
X13591419Y-7862143D01*
X13543800Y-7795476D02*
X13543800Y-7966905D01*
X13553324Y-7985952D01*
X13572371Y-7995476D01*
X13591419Y-7995476D01*
X13810467Y-7862143D02*
X13810467Y-8062143D01*
X13810467Y-7871667D02*
X13829514Y-7862143D01*
X13867610Y-7862143D01*
X13886657Y-7871667D01*
X13896181Y-7881190D01*
X13905705Y-7900238D01*
X13905705Y-7957381D01*
X13896181Y-7976428D01*
X13886657Y-7985952D01*
X13867610Y-7995476D01*
X13829514Y-7995476D01*
X13810467Y-7985952D01*
X14019990Y-7995476D02*
X14000943Y-7985952D01*
X13991419Y-7966905D01*
X13991419Y-7795476D01*
X14181895Y-7995476D02*
X14181895Y-7890714D01*
X14172371Y-7871667D01*
X14153324Y-7862143D01*
X14115229Y-7862143D01*
X14096181Y-7871667D01*
X14181895Y-7985952D02*
X14162848Y-7995476D01*
X14115229Y-7995476D01*
X14096181Y-7985952D01*
X14086657Y-7966905D01*
X14086657Y-7947857D01*
X14096181Y-7928809D01*
X14115229Y-7919286D01*
X14162848Y-7919286D01*
X14181895Y-7909762D01*
X14248562Y-7862143D02*
X14324752Y-7862143D01*
X14277133Y-7795476D02*
X14277133Y-7966905D01*
X14286657Y-7985952D01*
X14305705Y-7995476D01*
X14324752Y-7995476D01*
X14467610Y-7985952D02*
X14448562Y-7995476D01*
X14410467Y-7995476D01*
X14391419Y-7985952D01*
X14381895Y-7966905D01*
X14381895Y-7890714D01*
X14391419Y-7871667D01*
X14410467Y-7862143D01*
X14448562Y-7862143D01*
X14467610Y-7871667D01*
X14477133Y-7890714D01*
X14477133Y-7909762D01*
X14381895Y-7928809D01*
X14648562Y-7995476D02*
X14648562Y-7795476D01*
X14648562Y-7985952D02*
X14629514Y-7995476D01*
X14591419Y-7995476D01*
X14572371Y-7985952D01*
X14562848Y-7976428D01*
X14553324Y-7957381D01*
X14553324Y-7900238D01*
X14562848Y-7881190D01*
X14572371Y-7871667D01*
X14591419Y-7862143D01*
X14629514Y-7862143D01*
X14648562Y-7871667D01*
X14724752Y-8071667D02*
X14734276Y-8062143D01*
X14753324Y-8033571D01*
X14762848Y-8014524D01*
X14772371Y-7985952D01*
X14781895Y-7938333D01*
X14781895Y-7900238D01*
X14772371Y-7852619D01*
X14762848Y-7824048D01*
X14753324Y-7805000D01*
X14734276Y-7776428D01*
X14724752Y-7766905D01*
D16*
X8100800Y-8202000D02*
X8133800Y-8169000D01*
X8100800Y-8136000D01*
X8067800Y-8169000D01*
X8100800Y-8202000D01*
D11*
X8429514Y-8059476D02*
X8448562Y-8059476D01*
X8467610Y-8069000D01*
X8477133Y-8078524D01*
X8486657Y-8097571D01*
X8496181Y-8135667D01*
X8496181Y-8183286D01*
X8486657Y-8221381D01*
X8477133Y-8240428D01*
X8467610Y-8249952D01*
X8448562Y-8259476D01*
X8429514Y-8259476D01*
X8410467Y-8249952D01*
X8400943Y-8240428D01*
X8391419Y-8221381D01*
X8381895Y-8183286D01*
X8381895Y-8135667D01*
X8391419Y-8097571D01*
X8400943Y-8078524D01*
X8410467Y-8069000D01*
X8429514Y-8059476D01*
X8581895Y-8240428D02*
X8591419Y-8249952D01*
X8581895Y-8259476D01*
X8572372Y-8249952D01*
X8581895Y-8240428D01*
X8581895Y-8259476D01*
X8762848Y-8059476D02*
X8724752Y-8059476D01*
X8705705Y-8069000D01*
X8696181Y-8078524D01*
X8677133Y-8107095D01*
X8667610Y-8145190D01*
X8667610Y-8221381D01*
X8677133Y-8240428D01*
X8686657Y-8249952D01*
X8705705Y-8259476D01*
X8743800Y-8259476D01*
X8762848Y-8249952D01*
X8772372Y-8240428D01*
X8781895Y-8221381D01*
X8781895Y-8173762D01*
X8772372Y-8154714D01*
X8762848Y-8145190D01*
X8743800Y-8135667D01*
X8705705Y-8135667D01*
X8686657Y-8145190D01*
X8677133Y-8154714D01*
X8667610Y-8173762D01*
X8953324Y-8059476D02*
X8915229Y-8059476D01*
X8896181Y-8069000D01*
X8886657Y-8078524D01*
X8867610Y-8107095D01*
X8858086Y-8145190D01*
X8858086Y-8221381D01*
X8867610Y-8240428D01*
X8877133Y-8249952D01*
X8896181Y-8259476D01*
X8934276Y-8259476D01*
X8953324Y-8249952D01*
X8962848Y-8240428D01*
X8972372Y-8221381D01*
X8972372Y-8173762D01*
X8962848Y-8154714D01*
X8953324Y-8145190D01*
X8934276Y-8135667D01*
X8896181Y-8135667D01*
X8877133Y-8145190D01*
X8867610Y-8154714D01*
X8858086Y-8173762D01*
X9096181Y-8059476D02*
X9115229Y-8059476D01*
X9134276Y-8069000D01*
X9143800Y-8078524D01*
X9153324Y-8097571D01*
X9162848Y-8135667D01*
X9162848Y-8183286D01*
X9153324Y-8221381D01*
X9143800Y-8240428D01*
X9134276Y-8249952D01*
X9115229Y-8259476D01*
X9096181Y-8259476D01*
X9077133Y-8249952D01*
X9067610Y-8240428D01*
X9058086Y-8221381D01*
X9048562Y-8183286D01*
X9048562Y-8135667D01*
X9058086Y-8097571D01*
X9067610Y-8078524D01*
X9077133Y-8069000D01*
X9096181Y-8059476D01*
X9248562Y-8259476D02*
X9248562Y-8126143D01*
X9248562Y-8145190D02*
X9258086Y-8135667D01*
X9277133Y-8126143D01*
X9305705Y-8126143D01*
X9324752Y-8135667D01*
X9334276Y-8154714D01*
X9334276Y-8259476D01*
X9334276Y-8154714D02*
X9343800Y-8135667D01*
X9362848Y-8126143D01*
X9391419Y-8126143D01*
X9410467Y-8135667D01*
X9419991Y-8154714D01*
X9419991Y-8259476D01*
X9515229Y-8259476D02*
X9515229Y-8126143D01*
X9515229Y-8145190D02*
X9524752Y-8135667D01*
X9543800Y-8126143D01*
X9572372Y-8126143D01*
X9591419Y-8135667D01*
X9600943Y-8154714D01*
X9600943Y-8259476D01*
X9600943Y-8154714D02*
X9610467Y-8135667D01*
X9629514Y-8126143D01*
X9658086Y-8126143D01*
X9677133Y-8135667D01*
X9686657Y-8154714D01*
X9686657Y-8259476D01*
X10077133Y-8049952D02*
X9905705Y-8307095D01*
X10334276Y-8059476D02*
X10353324Y-8059476D01*
X10372372Y-8069000D01*
X10381895Y-8078524D01*
X10391419Y-8097571D01*
X10400943Y-8135667D01*
X10400943Y-8183286D01*
X10391419Y-8221381D01*
X10381895Y-8240428D01*
X10372372Y-8249952D01*
X10353324Y-8259476D01*
X10334276Y-8259476D01*
X10315229Y-8249952D01*
X10305705Y-8240428D01*
X10296181Y-8221381D01*
X10286657Y-8183286D01*
X10286657Y-8135667D01*
X10296181Y-8097571D01*
X10305705Y-8078524D01*
X10315229Y-8069000D01*
X10334276Y-8059476D01*
X10486657Y-8240428D02*
X10496181Y-8249952D01*
X10486657Y-8259476D01*
X10477133Y-8249952D01*
X10486657Y-8240428D01*
X10486657Y-8259476D01*
X10619991Y-8059476D02*
X10639038Y-8059476D01*
X10658086Y-8069000D01*
X10667610Y-8078524D01*
X10677133Y-8097571D01*
X10686657Y-8135667D01*
X10686657Y-8183286D01*
X10677133Y-8221381D01*
X10667610Y-8240428D01*
X10658086Y-8249952D01*
X10639038Y-8259476D01*
X10619991Y-8259476D01*
X10600943Y-8249952D01*
X10591419Y-8240428D01*
X10581895Y-8221381D01*
X10572372Y-8183286D01*
X10572372Y-8135667D01*
X10581895Y-8097571D01*
X10591419Y-8078524D01*
X10600943Y-8069000D01*
X10619991Y-8059476D01*
X10762848Y-8078524D02*
X10772372Y-8069000D01*
X10791419Y-8059476D01*
X10839038Y-8059476D01*
X10858086Y-8069000D01*
X10867610Y-8078524D01*
X10877133Y-8097571D01*
X10877133Y-8116619D01*
X10867610Y-8145190D01*
X10753324Y-8259476D01*
X10877133Y-8259476D01*
X11048562Y-8059476D02*
X11010467Y-8059476D01*
X10991419Y-8069000D01*
X10981895Y-8078524D01*
X10962848Y-8107095D01*
X10953324Y-8145190D01*
X10953324Y-8221381D01*
X10962848Y-8240428D01*
X10972372Y-8249952D01*
X10991419Y-8259476D01*
X11029514Y-8259476D01*
X11048562Y-8249952D01*
X11058086Y-8240428D01*
X11067610Y-8221381D01*
X11067610Y-8173762D01*
X11058086Y-8154714D01*
X11048562Y-8145190D01*
X11029514Y-8135667D01*
X10991419Y-8135667D01*
X10972372Y-8145190D01*
X10962848Y-8154714D01*
X10953324Y-8173762D01*
X11191419Y-8059476D02*
X11210467Y-8059476D01*
X11229514Y-8069000D01*
X11239038Y-8078524D01*
X11248562Y-8097571D01*
X11258086Y-8135667D01*
X11258086Y-8183286D01*
X11248562Y-8221381D01*
X11239038Y-8240428D01*
X11229514Y-8249952D01*
X11210467Y-8259476D01*
X11191419Y-8259476D01*
X11172372Y-8249952D01*
X11162848Y-8240428D01*
X11153324Y-8221381D01*
X11143800Y-8183286D01*
X11143800Y-8135667D01*
X11153324Y-8097571D01*
X11162848Y-8078524D01*
X11172372Y-8069000D01*
X11191419Y-8059476D01*
X11334276Y-8059476D02*
X11334276Y-8097571D01*
X11410467Y-8059476D02*
X11410467Y-8097571D01*
X11705705Y-8335667D02*
X11696181Y-8326143D01*
X11677133Y-8297571D01*
X11667610Y-8278524D01*
X11658086Y-8249952D01*
X11648562Y-8202333D01*
X11648562Y-8164238D01*
X11658086Y-8116619D01*
X11667610Y-8088048D01*
X11677133Y-8069000D01*
X11696181Y-8040428D01*
X11705705Y-8030905D01*
X11886657Y-8259476D02*
X11772371Y-8259476D01*
X11829514Y-8259476D02*
X11829514Y-8059476D01*
X11810467Y-8088048D01*
X11791419Y-8107095D01*
X11772371Y-8116619D01*
X12124752Y-8259476D02*
X12124752Y-8059476D01*
X12210467Y-8259476D02*
X12210467Y-8154714D01*
X12200943Y-8135667D01*
X12181895Y-8126143D01*
X12153324Y-8126143D01*
X12134276Y-8135667D01*
X12124752Y-8145190D01*
X12334276Y-8259476D02*
X12315229Y-8249952D01*
X12305705Y-8240428D01*
X12296181Y-8221381D01*
X12296181Y-8164238D01*
X12305705Y-8145190D01*
X12315229Y-8135667D01*
X12334276Y-8126143D01*
X12362848Y-8126143D01*
X12381895Y-8135667D01*
X12391419Y-8145190D01*
X12400943Y-8164238D01*
X12400943Y-8221381D01*
X12391419Y-8240428D01*
X12381895Y-8249952D01*
X12362848Y-8259476D01*
X12334276Y-8259476D01*
X12515229Y-8259476D02*
X12496181Y-8249952D01*
X12486657Y-8230905D01*
X12486657Y-8059476D01*
X12667610Y-8249952D02*
X12648562Y-8259476D01*
X12610467Y-8259476D01*
X12591419Y-8249952D01*
X12581895Y-8230905D01*
X12581895Y-8154714D01*
X12591419Y-8135667D01*
X12610467Y-8126143D01*
X12648562Y-8126143D01*
X12667610Y-8135667D01*
X12677133Y-8154714D01*
X12677133Y-8173762D01*
X12581895Y-8192809D01*
X12743800Y-8335667D02*
X12753324Y-8326143D01*
X12772371Y-8297571D01*
X12781895Y-8278524D01*
X12791419Y-8249952D01*
X12800943Y-8202333D01*
X12800943Y-8164238D01*
X12791419Y-8116619D01*
X12781895Y-8088048D01*
X12772371Y-8069000D01*
X12753324Y-8040428D01*
X12743800Y-8030905D01*
X13105705Y-8335667D02*
X13096181Y-8326143D01*
X13077133Y-8297571D01*
X13067610Y-8278524D01*
X13058086Y-8249952D01*
X13048562Y-8202333D01*
X13048562Y-8164238D01*
X13058086Y-8116619D01*
X13067610Y-8088048D01*
X13077133Y-8069000D01*
X13096181Y-8040428D01*
X13105705Y-8030905D01*
X13181895Y-8126143D02*
X13181895Y-8259476D01*
X13181895Y-8145190D02*
X13191419Y-8135667D01*
X13210467Y-8126143D01*
X13239038Y-8126143D01*
X13258086Y-8135667D01*
X13267610Y-8154714D01*
X13267610Y-8259476D01*
X13391419Y-8259476D02*
X13372371Y-8249952D01*
X13362848Y-8240428D01*
X13353324Y-8221381D01*
X13353324Y-8164238D01*
X13362848Y-8145190D01*
X13372371Y-8135667D01*
X13391419Y-8126143D01*
X13419990Y-8126143D01*
X13439038Y-8135667D01*
X13448562Y-8145190D01*
X13458086Y-8164238D01*
X13458086Y-8221381D01*
X13448562Y-8240428D01*
X13439038Y-8249952D01*
X13419990Y-8259476D01*
X13391419Y-8259476D01*
X13515229Y-8126143D02*
X13591419Y-8126143D01*
X13543800Y-8059476D02*
X13543800Y-8230905D01*
X13553324Y-8249952D01*
X13572371Y-8259476D01*
X13591419Y-8259476D01*
X13810467Y-8126143D02*
X13810467Y-8326143D01*
X13810467Y-8135667D02*
X13829514Y-8126143D01*
X13867610Y-8126143D01*
X13886657Y-8135667D01*
X13896181Y-8145190D01*
X13905705Y-8164238D01*
X13905705Y-8221381D01*
X13896181Y-8240428D01*
X13886657Y-8249952D01*
X13867610Y-8259476D01*
X13829514Y-8259476D01*
X13810467Y-8249952D01*
X14019990Y-8259476D02*
X14000943Y-8249952D01*
X13991419Y-8230905D01*
X13991419Y-8059476D01*
X14181895Y-8259476D02*
X14181895Y-8154714D01*
X14172371Y-8135667D01*
X14153324Y-8126143D01*
X14115229Y-8126143D01*
X14096181Y-8135667D01*
X14181895Y-8249952D02*
X14162848Y-8259476D01*
X14115229Y-8259476D01*
X14096181Y-8249952D01*
X14086657Y-8230905D01*
X14086657Y-8211857D01*
X14096181Y-8192809D01*
X14115229Y-8183286D01*
X14162848Y-8183286D01*
X14181895Y-8173762D01*
X14248562Y-8126143D02*
X14324752Y-8126143D01*
X14277133Y-8059476D02*
X14277133Y-8230905D01*
X14286657Y-8249952D01*
X14305705Y-8259476D01*
X14324752Y-8259476D01*
X14467610Y-8249952D02*
X14448562Y-8259476D01*
X14410467Y-8259476D01*
X14391419Y-8249952D01*
X14381895Y-8230905D01*
X14381895Y-8154714D01*
X14391419Y-8135667D01*
X14410467Y-8126143D01*
X14448562Y-8126143D01*
X14467610Y-8135667D01*
X14477133Y-8154714D01*
X14477133Y-8173762D01*
X14381895Y-8192809D01*
X14648562Y-8259476D02*
X14648562Y-8059476D01*
X14648562Y-8249952D02*
X14629514Y-8259476D01*
X14591419Y-8259476D01*
X14572371Y-8249952D01*
X14562848Y-8240428D01*
X14553324Y-8221381D01*
X14553324Y-8164238D01*
X14562848Y-8145190D01*
X14572371Y-8135667D01*
X14591419Y-8126143D01*
X14629514Y-8126143D01*
X14648562Y-8135667D01*
X14724752Y-8335667D02*
X14734276Y-8326143D01*
X14753324Y-8297571D01*
X14762848Y-8278524D01*
X14772371Y-8249952D01*
X14781895Y-8202333D01*
X14781895Y-8164238D01*
X14772371Y-8116619D01*
X14762848Y-8088048D01*
X14753324Y-8069000D01*
X14734276Y-8040428D01*
X14724752Y-8030905D01*
M02*
