M48
; DRILL file {KiCad (6.0.2)} date Sat 19 Mar 2022 04:05:09 PM CET
; FORMAT={-:-/ absolute / metric / decimal}
; #@! TF.CreationDate,2022-03-19T16:05:09+01:00
; #@! TF.GenerationSoftware,Kicad,Pcbnew,(6.0.2)
; #@! TF.FileFunction,MixedPlating,1,2
FMAT,2
METRIC
; #@! TA.AperFunction,Plated,PTH,ViaDrill
T1C0.300
; #@! TA.AperFunction,Plated,PTH,ComponentDrill
T2C0.600
; #@! TA.AperFunction,Plated,PTH,ComponentDrill
T3C2.200
; #@! TA.AperFunction,NonPlated,NPTH,ComponentDrill
T4C0.520
%
G90
G05
T1
X98.849Y-54.054
X102.52Y-57.213
X102.548Y-54.46
X102.549Y-57.912
X102.555Y-58.809
X102.582Y-55.387
X104.218Y-56.88
X104.638Y-56.309
X106.361Y-59.148
T3
X84.508Y-56.56
X120.539Y-56.529
T4
X102.551Y-52.88
X102.551Y-60.38
T2
G00X100.401Y-54.355
M15
G01X100.401Y-54.105
M16
G05
G00X100.401Y-59.155
M15
G01X100.401Y-58.905
M16
G05
G00X104.701Y-54.355
M15
G01X104.701Y-54.105
M16
G05
G00X104.701Y-59.155
M15
G01X104.701Y-58.905
M16
G05
T0
M30
