%TF.GenerationSoftware,KiCad,Pcbnew,(7.0.0)*%
%TF.CreationDate,2023-10-06T02:17:28-07:00*%
%TF.ProjectId,daughterboard,64617567-6874-4657-9262-6f6172642e6b,1.0*%
%TF.SameCoordinates,Original*%
%TF.FileFunction,Copper,L2,Bot*%
%TF.FilePolarity,Positive*%
%FSLAX46Y46*%
G04 Gerber Fmt 4.6, Leading zero omitted, Abs format (unit mm)*
G04 Created by KiCad (PCBNEW (7.0.0)) date 2023-10-06 02:17:28*
%MOMM*%
%LPD*%
G01*
G04 APERTURE LIST*
G04 Aperture macros list*
%AMRotRect*
0 Rectangle, with rotation*
0 The origin of the aperture is its center*
0 $1 length*
0 $2 width*
0 $3 Rotation angle, in degrees counterclockwise*
0 Add horizontal line*
21,1,$1,$2,0,0,$3*%
G04 Aperture macros list end*
%TA.AperFunction,ComponentPad*%
%ADD10C,4.400000*%
%TD*%
%TA.AperFunction,SMDPad,CuDef*%
%ADD11R,0.850000X0.300000*%
%TD*%
%TA.AperFunction,ComponentPad*%
%ADD12C,1.100000*%
%TD*%
%TA.AperFunction,SMDPad,CuDef*%
%ADD13RotRect,1.030000X0.500000X50.000000*%
%TD*%
%TA.AperFunction,SMDPad,CuDef*%
%ADD14RotRect,1.030000X0.500000X130.000000*%
%TD*%
%TA.AperFunction,ViaPad*%
%ADD15C,0.600000*%
%TD*%
%TA.AperFunction,Conductor*%
%ADD16C,0.300000*%
%TD*%
%TA.AperFunction,Conductor*%
%ADD17C,0.200000*%
%TD*%
G04 APERTURE END LIST*
D10*
%TO.P,H2,1,1*%
%TO.N,unconnected-(H2-Pad1)*%
X84508000Y-54060000D03*
%TD*%
%TO.P,H1,1,1*%
%TO.N,Net-(J1-SHIELD)*%
X120539000Y-54029000D03*
%TD*%
D11*
%TO.P,J1,A1,GND*%
%TO.N,GND*%
X103380999Y-59379999D03*
%TO.P,J1,A2*%
%TO.N,N/C*%
X103380999Y-58879999D03*
%TO.P,J1,A3*%
X103380999Y-58379999D03*
%TO.P,J1,A4,VBUS*%
%TO.N,Net-(F1-Pad1)*%
X103380999Y-57879999D03*
%TO.P,J1,A5,CC1*%
%TO.N,Net-(J1-CC1)*%
X103380999Y-57379999D03*
%TO.P,J1,A6,D+*%
%TO.N,/DUSB+*%
X103380999Y-56879999D03*
%TO.P,J1,A7,D-*%
%TO.N,/DUSB-*%
X103380999Y-56379999D03*
%TO.P,J1,A8,SBU1*%
%TO.N,unconnected-(J1-SBU1-PadA8)*%
X103380999Y-55879999D03*
%TO.P,J1,A9,VBUS*%
%TO.N,Net-(F1-Pad1)*%
X103380999Y-55379999D03*
%TO.P,J1,A10*%
%TO.N,N/C*%
X103380999Y-54879999D03*
%TO.P,J1,A11*%
X103380999Y-54379999D03*
%TO.P,J1,A12,GND*%
%TO.N,GND*%
X103380999Y-53879999D03*
%TO.P,J1,B1,GND*%
X101720999Y-53879999D03*
%TO.P,J1,B2*%
%TO.N,N/C*%
X101720999Y-54379999D03*
%TO.P,J1,B3*%
X101720999Y-54879999D03*
%TO.P,J1,B4,VBUS*%
%TO.N,Net-(F1-Pad1)*%
X101720999Y-55379999D03*
%TO.P,J1,B5,CC2*%
%TO.N,Net-(J1-CC2)*%
X101720999Y-55879999D03*
%TO.P,J1,B6,D+*%
%TO.N,/DUSB+*%
X101720999Y-56379999D03*
%TO.P,J1,B7,D-*%
%TO.N,/DUSB-*%
X101720999Y-56879999D03*
%TO.P,J1,B8,SBU2*%
%TO.N,unconnected-(J1-SBU2-PadB8)*%
X101720999Y-57379999D03*
%TO.P,J1,B9,VBUS*%
%TO.N,Net-(F1-Pad1)*%
X101720999Y-57879999D03*
%TO.P,J1,B10*%
%TO.N,N/C*%
X101720999Y-58379999D03*
%TO.P,J1,B11*%
X101720999Y-58879999D03*
%TO.P,J1,B12,GND*%
%TO.N,GND*%
X101720999Y-59379999D03*
D12*
%TO.P,J1,S1,SHIELD*%
%TO.N,Net-(J1-SHIELD)*%
X104701000Y-59030000D03*
%TO.P,J1,S2*%
%TO.N,N/C*%
X100401000Y-59030000D03*
%TO.P,J1,S3*%
X104701000Y-54230000D03*
%TO.P,J1,S4*%
X100401000Y-54230000D03*
D13*
%TO.P,J1,S5*%
X103685999Y-60509999D03*
D14*
%TO.P,J1,S6*%
X101415999Y-60509999D03*
%TO.P,J1,S7*%
X103685999Y-52749999D03*
D13*
%TO.P,J1,S8*%
X101415999Y-52749999D03*
%TD*%
D15*
%TO.N,GND*%
X105067651Y-60979667D03*
X102557396Y-53903198D03*
X102566528Y-59383867D03*
X105391461Y-55543064D03*
X98354000Y-59902000D03*
X97296208Y-54946572D03*
X107461603Y-56733283D03*
X94148434Y-53962805D03*
%TO.N,Net-(F1-Pad1)*%
X102582000Y-55387000D03*
X102550000Y-58060000D03*
%TO.N,/DUSB+*%
X104218000Y-56880500D03*
%TO.N,/DUSB-*%
X104638000Y-56309500D03*
X102550000Y-57240000D03*
%TO.N,Net-(J1-CC1)*%
X106361000Y-59148000D03*
%TO.N,Net-(J1-CC2)*%
X98849000Y-54054000D03*
%TD*%
D16*
%TO.N,Net-(F1-Pad1)*%
X102582000Y-55387000D02*
X102577000Y-55387000D01*
X103416000Y-57880000D02*
X102678000Y-57880000D01*
X102577000Y-55387000D02*
X102570000Y-55380000D01*
X102678000Y-57880000D02*
X101686000Y-57880000D01*
X102570000Y-55380000D02*
X101686000Y-55380000D01*
X103416000Y-55380000D02*
X102570000Y-55380000D01*
D17*
%TO.N,/DUSB+*%
X104218000Y-56880500D02*
X104217500Y-56880000D01*
X102510000Y-56380000D02*
X101686000Y-56380000D01*
X104217500Y-56880000D02*
X103010000Y-56880000D01*
X103010000Y-56880000D02*
X102510000Y-56380000D01*
%TO.N,/DUSB-*%
X102190000Y-56880000D02*
X101686000Y-56880000D01*
X104638000Y-56309500D02*
X104567500Y-56380000D01*
X102550000Y-57240000D02*
X102190000Y-56880000D01*
X104567500Y-56380000D02*
X103416000Y-56380000D01*
%TO.N,Net-(J1-CC1)*%
X103416000Y-57380000D02*
X105351000Y-57380000D01*
X106361000Y-58390000D02*
X106361000Y-59148000D01*
X105351000Y-57380000D02*
X106361000Y-58390000D01*
%TO.N,Net-(J1-CC2)*%
X99861000Y-55880000D02*
X98849000Y-54868000D01*
X98849000Y-54868000D02*
X98849000Y-54054000D01*
X101686000Y-55880000D02*
X99861000Y-55880000D01*
%TD*%
%TA.AperFunction,Conductor*%
%TO.N,GND*%
G36*
X102675274Y-58565566D02*
G01*
X102724539Y-58597375D01*
X102753679Y-58648266D01*
X102755800Y-58698070D01*
X102757286Y-58698217D01*
X102756689Y-58704271D01*
X102755500Y-58710252D01*
X102755500Y-59049748D01*
X102756688Y-59055723D01*
X102756689Y-59055728D01*
X102766906Y-59107090D01*
X102766907Y-59155471D01*
X102757188Y-59204329D01*
X102756196Y-59214405D01*
X102759450Y-59226549D01*
X102772326Y-59230000D01*
X102931175Y-59230000D01*
X102934579Y-59230167D01*
X102936252Y-59230500D01*
X102941353Y-59230500D01*
X103407000Y-59230500D01*
X103469000Y-59247113D01*
X103514387Y-59292500D01*
X103531000Y-59354500D01*
X103531000Y-59713674D01*
X103534788Y-59727813D01*
X103537526Y-59730551D01*
X103580409Y-59754690D01*
X103612922Y-59806976D01*
X103616278Y-59868454D01*
X103589651Y-59923968D01*
X103060490Y-60554600D01*
X103011951Y-60589866D01*
X102952539Y-60598216D01*
X102896160Y-60577696D01*
X102856015Y-60533110D01*
X102841500Y-60474895D01*
X102841500Y-60129624D01*
X102841500Y-60118777D01*
X102806461Y-60022510D01*
X102740610Y-59944031D01*
X102651889Y-59892809D01*
X102641211Y-59890926D01*
X102641208Y-59890925D01*
X102561684Y-59876903D01*
X102551000Y-59875019D01*
X102540316Y-59876903D01*
X102460791Y-59890925D01*
X102460786Y-59890926D01*
X102450111Y-59892809D01*
X102440720Y-59898230D01*
X102440719Y-59898231D01*
X102370784Y-59938607D01*
X102370782Y-59938608D01*
X102361390Y-59944031D01*
X102354417Y-59952340D01*
X102354417Y-59952341D01*
X102302513Y-60014198D01*
X102302511Y-60014199D01*
X102295539Y-60022510D01*
X102291828Y-60032703D01*
X102291828Y-60032705D01*
X102264209Y-60108585D01*
X102264208Y-60108588D01*
X102260500Y-60118777D01*
X102260500Y-60129624D01*
X102260500Y-60474895D01*
X102245985Y-60533109D01*
X102205840Y-60577696D01*
X102149461Y-60598216D01*
X102090049Y-60589866D01*
X102041510Y-60554601D01*
X101868455Y-60348362D01*
X101512347Y-59923968D01*
X101485721Y-59868454D01*
X101489077Y-59806975D01*
X101521591Y-59754690D01*
X101564473Y-59730551D01*
X101567211Y-59727813D01*
X101571000Y-59713674D01*
X101871000Y-59713674D01*
X101874450Y-59726549D01*
X101887326Y-59730000D01*
X102159602Y-59730000D01*
X102171678Y-59728810D01*
X102212057Y-59720778D01*
X102234190Y-59711611D01*
X102280038Y-59680976D01*
X102296976Y-59664038D01*
X102327611Y-59618190D01*
X102336778Y-59596057D01*
X102344810Y-59555678D01*
X102345803Y-59545594D01*
X102756196Y-59545594D01*
X102757189Y-59555678D01*
X102765221Y-59596057D01*
X102774388Y-59618190D01*
X102805023Y-59664038D01*
X102821961Y-59680976D01*
X102867809Y-59711611D01*
X102889942Y-59720778D01*
X102930321Y-59728810D01*
X102942398Y-59730000D01*
X103214674Y-59730000D01*
X103227549Y-59726549D01*
X103231000Y-59713674D01*
X103231000Y-59546326D01*
X103227549Y-59533450D01*
X103214674Y-59530000D01*
X102772326Y-59530000D01*
X102759450Y-59533450D01*
X102756196Y-59545594D01*
X102345803Y-59545594D01*
X102342549Y-59533450D01*
X102329674Y-59530000D01*
X101887326Y-59530000D01*
X101874450Y-59533450D01*
X101871000Y-59546326D01*
X101871000Y-59713674D01*
X101571000Y-59713674D01*
X101571000Y-59354500D01*
X101587613Y-59292500D01*
X101633000Y-59247113D01*
X101695000Y-59230500D01*
X102160647Y-59230500D01*
X102165748Y-59230500D01*
X102167420Y-59230167D01*
X102170825Y-59230000D01*
X102329674Y-59230000D01*
X102342549Y-59226549D01*
X102345803Y-59214405D01*
X102344810Y-59204326D01*
X102335093Y-59155474D01*
X102335093Y-59107095D01*
X102346500Y-59049748D01*
X102346500Y-58710252D01*
X102345310Y-58704271D01*
X102344714Y-58698217D01*
X102346275Y-58698063D01*
X102348372Y-58648584D01*
X102377508Y-58597683D01*
X102426777Y-58565865D01*
X102478039Y-58560933D01*
X102478039Y-58560500D01*
X102482538Y-58560500D01*
X102613091Y-58560500D01*
X102621961Y-58560500D01*
X102622118Y-58560453D01*
X102675274Y-58565566D01*
G37*
%TD.AperFunction*%
%TA.AperFunction,Conductor*%
G36*
X120466243Y-51045670D02*
G01*
X120770007Y-51061591D01*
X120770046Y-51061593D01*
X120782953Y-51062950D01*
X120914089Y-51083719D01*
X121080209Y-51110029D01*
X121092896Y-51112725D01*
X121383625Y-51190626D01*
X121395965Y-51194636D01*
X121514005Y-51239948D01*
X121676934Y-51302490D01*
X121688790Y-51307768D01*
X121956976Y-51444416D01*
X121968183Y-51450886D01*
X122220619Y-51614820D01*
X122231109Y-51622442D01*
X122465010Y-51811851D01*
X122474655Y-51820536D01*
X122687464Y-52033345D01*
X122696149Y-52042990D01*
X122885558Y-52276891D01*
X122893182Y-52287385D01*
X123057110Y-52539811D01*
X123063591Y-52551037D01*
X123200230Y-52819209D01*
X123205509Y-52831066D01*
X123313362Y-53112034D01*
X123317373Y-53124377D01*
X123395272Y-53415098D01*
X123397970Y-53427794D01*
X123445051Y-53725047D01*
X123446408Y-53737956D01*
X123462330Y-54041776D01*
X123462500Y-54048265D01*
X123462500Y-61041754D01*
X123462330Y-61048244D01*
X123446407Y-61352046D01*
X123445050Y-61364953D01*
X123397971Y-61662205D01*
X123395273Y-61674902D01*
X123317374Y-61965623D01*
X123313363Y-61977966D01*
X123205510Y-62258935D01*
X123200231Y-62270793D01*
X123063591Y-62538963D01*
X123057101Y-62550203D01*
X122893187Y-62802608D01*
X122885558Y-62813109D01*
X122696149Y-63047010D01*
X122687464Y-63056655D01*
X122474655Y-63269464D01*
X122465010Y-63278149D01*
X122231109Y-63467558D01*
X122220608Y-63475187D01*
X121968203Y-63639101D01*
X121956963Y-63645591D01*
X121688793Y-63782231D01*
X121676935Y-63787510D01*
X121395966Y-63895363D01*
X121383623Y-63899374D01*
X121092902Y-63977273D01*
X121080205Y-63979971D01*
X120782953Y-64027050D01*
X120770046Y-64028407D01*
X120466244Y-64044330D01*
X120459754Y-64044500D01*
X84466246Y-64044500D01*
X84459757Y-64044330D01*
X84155956Y-64028409D01*
X84143047Y-64027052D01*
X83845794Y-63979971D01*
X83833098Y-63977273D01*
X83542376Y-63899374D01*
X83530033Y-63895363D01*
X83249065Y-63787510D01*
X83237207Y-63782231D01*
X83106401Y-63715582D01*
X82969030Y-63645588D01*
X82957811Y-63639111D01*
X82705385Y-63475183D01*
X82694891Y-63467559D01*
X82460989Y-63278149D01*
X82451344Y-63269464D01*
X82238530Y-63056651D01*
X82229845Y-63047005D01*
X82040445Y-62813114D01*
X82032822Y-62802623D01*
X81868885Y-62550183D01*
X81862415Y-62538977D01*
X81725765Y-62270786D01*
X81720496Y-62258950D01*
X81612633Y-61977959D01*
X81608624Y-61965621D01*
X81571141Y-61825734D01*
X81530724Y-61674896D01*
X81528028Y-61662205D01*
X81480949Y-61364953D01*
X81479592Y-61352046D01*
X81463671Y-61048263D01*
X81463501Y-61041773D01*
X81463501Y-54060000D01*
X82102754Y-54060000D01*
X82121720Y-54361457D01*
X82122447Y-54365269D01*
X82122449Y-54365283D01*
X82177561Y-54654189D01*
X82178319Y-54658160D01*
X82179523Y-54661867D01*
X82179524Y-54661869D01*
X82269230Y-54937956D01*
X82271659Y-54945430D01*
X82273315Y-54948949D01*
X82385679Y-55187736D01*
X82400267Y-55218736D01*
X82402349Y-55222017D01*
X82402352Y-55222022D01*
X82560024Y-55470474D01*
X82560028Y-55470480D01*
X82562115Y-55473768D01*
X82564594Y-55476765D01*
X82564598Y-55476770D01*
X82649584Y-55579500D01*
X82754651Y-55706504D01*
X82974838Y-55913274D01*
X82977993Y-55915566D01*
X82977994Y-55915567D01*
X82987625Y-55922564D01*
X83219205Y-56090816D01*
X83250883Y-56108231D01*
X83427507Y-56205332D01*
X83483896Y-56236332D01*
X83764738Y-56347525D01*
X84057302Y-56422642D01*
X84356973Y-56460500D01*
X84655133Y-56460500D01*
X84659027Y-56460500D01*
X84958698Y-56422642D01*
X85251262Y-56347525D01*
X85532104Y-56236332D01*
X85796795Y-56090816D01*
X86041162Y-55913274D01*
X86261349Y-55706504D01*
X86453885Y-55473768D01*
X86615733Y-55218736D01*
X86744341Y-54945430D01*
X86837681Y-54658160D01*
X86894280Y-54361457D01*
X86913246Y-54060000D01*
X86912869Y-54054000D01*
X98343353Y-54054000D01*
X98344615Y-54062777D01*
X98362572Y-54187677D01*
X98362573Y-54187681D01*
X98363835Y-54196457D01*
X98375991Y-54223077D01*
X98376913Y-54225095D01*
X98382100Y-54238448D01*
X98391961Y-54268942D01*
X98393781Y-54272728D01*
X98442493Y-54374074D01*
X98442785Y-54374680D01*
X98443081Y-54375264D01*
X98443083Y-54375267D01*
X98446514Y-54382026D01*
X98446540Y-54382077D01*
X98446828Y-54382643D01*
X98447290Y-54383506D01*
X98447611Y-54384077D01*
X98447632Y-54384114D01*
X98450279Y-54388811D01*
X98451646Y-54391238D01*
X98451989Y-54391817D01*
X98496121Y-54466332D01*
X98498984Y-54471438D01*
X98517443Y-54506255D01*
X98527070Y-54530110D01*
X98532993Y-54550734D01*
X98537504Y-54576237D01*
X98542832Y-54651778D01*
X98542833Y-54651784D01*
X98543242Y-54657581D01*
X98544726Y-54663206D01*
X98545677Y-54668943D01*
X98545311Y-54669003D01*
X98548500Y-54693592D01*
X98548500Y-54816144D01*
X98548251Y-54819724D01*
X98546227Y-54825765D01*
X98546757Y-54837239D01*
X98546757Y-54837243D01*
X98548368Y-54872080D01*
X98548500Y-54877806D01*
X98548500Y-54895844D01*
X98549552Y-54901471D01*
X98549635Y-54902368D01*
X98550031Y-54908072D01*
X98550488Y-54917949D01*
X98551415Y-54937992D01*
X98556054Y-54948499D01*
X98557792Y-54955888D01*
X98559082Y-54960052D01*
X98561827Y-54967137D01*
X98563939Y-54978433D01*
X98578001Y-55001146D01*
X98586003Y-55016327D01*
X98592152Y-55030254D01*
X98592153Y-55030256D01*
X98596794Y-55040765D01*
X98604917Y-55048888D01*
X98609209Y-55055153D01*
X98611915Y-55058569D01*
X98617031Y-55064181D01*
X98623081Y-55073952D01*
X98632249Y-55080875D01*
X98644396Y-55090048D01*
X98657351Y-55101322D01*
X99611841Y-56055812D01*
X99614202Y-56058525D01*
X99617042Y-56064228D01*
X99625530Y-56071966D01*
X99625531Y-56071967D01*
X99651317Y-56095474D01*
X99655459Y-56099430D01*
X99668203Y-56112174D01*
X99672930Y-56115412D01*
X99673621Y-56115986D01*
X99677928Y-56119733D01*
X99687574Y-56128527D01*
X99689189Y-56130000D01*
X99700067Y-56139916D01*
X99710782Y-56144067D01*
X99717246Y-56148069D01*
X99721074Y-56150087D01*
X99728039Y-56153162D01*
X99737519Y-56159656D01*
X99748706Y-56162287D01*
X99763506Y-56165768D01*
X99779912Y-56170848D01*
X99794108Y-56176348D01*
X99794111Y-56176348D01*
X99804827Y-56180500D01*
X99816320Y-56180500D01*
X99823794Y-56181897D01*
X99828094Y-56182396D01*
X99835692Y-56182747D01*
X99846881Y-56185379D01*
X99873332Y-56181689D01*
X99890465Y-56180500D01*
X100971500Y-56180500D01*
X101033500Y-56197113D01*
X101078887Y-56242500D01*
X101095500Y-56304500D01*
X101095500Y-56549748D01*
X101096688Y-56555723D01*
X101096689Y-56555728D01*
X101106651Y-56605808D01*
X101106651Y-56654187D01*
X101095500Y-56710252D01*
X101095500Y-57049748D01*
X101096688Y-57055723D01*
X101096689Y-57055728D01*
X101106651Y-57105809D01*
X101106651Y-57154191D01*
X101096689Y-57204271D01*
X101096688Y-57204277D01*
X101095500Y-57210252D01*
X101095500Y-57549748D01*
X101096688Y-57555723D01*
X101096689Y-57555728D01*
X101106651Y-57605808D01*
X101106652Y-57654189D01*
X101098114Y-57697113D01*
X101095500Y-57710252D01*
X101095500Y-58049748D01*
X101096688Y-58055723D01*
X101096689Y-58055728D01*
X101106651Y-58105809D01*
X101106651Y-58154191D01*
X101096689Y-58204271D01*
X101096689Y-58204276D01*
X101095500Y-58210252D01*
X101095500Y-58216348D01*
X101095500Y-58363771D01*
X101081985Y-58420066D01*
X101044385Y-58464089D01*
X100990898Y-58486244D01*
X100933182Y-58481702D01*
X100883819Y-58451452D01*
X100876818Y-58444451D01*
X100876817Y-58444450D01*
X100871890Y-58439523D01*
X100728690Y-58349544D01*
X100722124Y-58347246D01*
X100722121Y-58347245D01*
X100575633Y-58295987D01*
X100575630Y-58295986D01*
X100569059Y-58293687D01*
X100562142Y-58292907D01*
X100562135Y-58292906D01*
X100407923Y-58275531D01*
X100401000Y-58274751D01*
X100394077Y-58275531D01*
X100239864Y-58292906D01*
X100239855Y-58292907D01*
X100232941Y-58293687D01*
X100226371Y-58295985D01*
X100226366Y-58295987D01*
X100079878Y-58347245D01*
X100079872Y-58347247D01*
X100073310Y-58349544D01*
X100067419Y-58353245D01*
X100067418Y-58353246D01*
X99936010Y-58435815D01*
X99936005Y-58435818D01*
X99930110Y-58439523D01*
X99925185Y-58444447D01*
X99925181Y-58444451D01*
X99815451Y-58554181D01*
X99815447Y-58554185D01*
X99810523Y-58559110D01*
X99806818Y-58565005D01*
X99806815Y-58565010D01*
X99724671Y-58695742D01*
X99720544Y-58702310D01*
X99718247Y-58708872D01*
X99718245Y-58708878D01*
X99666987Y-58855366D01*
X99666985Y-58855371D01*
X99664687Y-58861941D01*
X99663907Y-58868855D01*
X99663906Y-58868864D01*
X99649415Y-58997478D01*
X99645751Y-59030000D01*
X99646531Y-59036923D01*
X99663906Y-59191135D01*
X99663907Y-59191142D01*
X99664687Y-59198059D01*
X99666986Y-59204630D01*
X99666987Y-59204633D01*
X99699841Y-59298526D01*
X99720544Y-59357690D01*
X99810523Y-59500890D01*
X99930110Y-59620477D01*
X100073310Y-59710456D01*
X100232941Y-59766313D01*
X100401000Y-59785249D01*
X100569059Y-59766313D01*
X100728690Y-59710456D01*
X100871890Y-59620477D01*
X100912809Y-59579557D01*
X100964492Y-59548579D01*
X101024679Y-59545621D01*
X101079153Y-59571385D01*
X101106756Y-59608602D01*
X101107604Y-59608036D01*
X101142913Y-59660879D01*
X101163169Y-59717167D01*
X101154714Y-59776388D01*
X101119517Y-59824759D01*
X100754114Y-60131369D01*
X100754108Y-60131374D01*
X100749447Y-60135286D01*
X100745637Y-60140032D01*
X100745632Y-60140038D01*
X100719769Y-60172261D01*
X100719766Y-60172265D01*
X100712123Y-60181789D01*
X100708705Y-60193513D01*
X100708705Y-60193515D01*
X100693220Y-60246644D01*
X100693219Y-60246647D01*
X100689804Y-60258367D01*
X100691133Y-60270503D01*
X100691133Y-60270505D01*
X100697157Y-60325517D01*
X100697157Y-60325519D01*
X100698487Y-60337657D01*
X100727168Y-60389935D01*
X100731078Y-60394595D01*
X100731079Y-60394596D01*
X101406059Y-61199008D01*
X101414626Y-61209217D01*
X101461130Y-61246540D01*
X101537707Y-61268859D01*
X101616997Y-61260176D01*
X101669276Y-61231495D01*
X102082553Y-60884714D01*
X102119877Y-60838211D01*
X102123294Y-60826483D01*
X102128935Y-60815650D01*
X102130802Y-60816622D01*
X102156803Y-60774544D01*
X102215558Y-60744156D01*
X102281577Y-60748300D01*
X102336070Y-60785794D01*
X102361390Y-60815969D01*
X102450111Y-60867191D01*
X102551000Y-60884981D01*
X102651889Y-60867191D01*
X102740610Y-60815969D01*
X102765929Y-60785794D01*
X102820417Y-60748301D01*
X102886432Y-60744154D01*
X102945187Y-60774536D01*
X102971198Y-60816621D01*
X102973065Y-60815650D01*
X102978705Y-60826485D01*
X102982123Y-60838211D01*
X102989768Y-60847736D01*
X102989769Y-60847738D01*
X103006894Y-60869074D01*
X103019447Y-60884714D01*
X103024114Y-60888630D01*
X103394007Y-61199008D01*
X103432724Y-61231495D01*
X103485003Y-61260176D01*
X103564293Y-61268859D01*
X103640870Y-61246540D01*
X103687374Y-61209217D01*
X104374832Y-60389935D01*
X104403513Y-60337657D01*
X104412196Y-60258367D01*
X104389877Y-60181789D01*
X104380816Y-60170500D01*
X104356367Y-60140038D01*
X104352553Y-60135286D01*
X104134528Y-59952341D01*
X103982482Y-59824759D01*
X103947285Y-59776388D01*
X103938830Y-59717166D01*
X103959087Y-59660877D01*
X103994397Y-59608034D01*
X103995245Y-59608601D01*
X104022840Y-59571390D01*
X104077314Y-59545623D01*
X104137503Y-59548578D01*
X104189191Y-59579558D01*
X104230110Y-59620477D01*
X104373310Y-59710456D01*
X104532941Y-59766313D01*
X104701000Y-59785249D01*
X104869059Y-59766313D01*
X105028690Y-59710456D01*
X105171890Y-59620477D01*
X105291477Y-59500890D01*
X105381456Y-59357690D01*
X105437313Y-59198059D01*
X105456249Y-59030000D01*
X105452584Y-58997477D01*
X105438093Y-58868864D01*
X105437313Y-58861941D01*
X105381456Y-58702310D01*
X105291477Y-58559110D01*
X105171890Y-58439523D01*
X105028690Y-58349544D01*
X105022124Y-58347246D01*
X105022121Y-58347245D01*
X104875633Y-58295987D01*
X104875630Y-58295986D01*
X104869059Y-58293687D01*
X104862142Y-58292907D01*
X104862135Y-58292906D01*
X104707923Y-58275531D01*
X104701000Y-58274751D01*
X104694077Y-58275531D01*
X104539864Y-58292906D01*
X104539855Y-58292907D01*
X104532941Y-58293687D01*
X104526371Y-58295985D01*
X104526366Y-58295987D01*
X104379878Y-58347245D01*
X104379872Y-58347247D01*
X104373310Y-58349544D01*
X104367419Y-58353245D01*
X104367418Y-58353246D01*
X104236010Y-58435815D01*
X104236005Y-58435818D01*
X104230110Y-58439523D01*
X104225185Y-58444447D01*
X104225181Y-58444451D01*
X104218181Y-58451452D01*
X104168818Y-58481702D01*
X104111102Y-58486244D01*
X104057615Y-58464089D01*
X104020015Y-58420066D01*
X104006500Y-58363771D01*
X104006500Y-58216348D01*
X104006500Y-58210252D01*
X103995348Y-58154187D01*
X103995348Y-58105813D01*
X104006500Y-58049748D01*
X104006500Y-57804500D01*
X104023113Y-57742500D01*
X104068500Y-57697113D01*
X104130500Y-57680500D01*
X105175167Y-57680500D01*
X105222620Y-57689939D01*
X105262848Y-57716819D01*
X106017569Y-58471540D01*
X106046048Y-58515830D01*
X106053581Y-58567946D01*
X106049503Y-58625761D01*
X106044994Y-58651260D01*
X106039072Y-58671883D01*
X106029443Y-58695742D01*
X106010983Y-58730561D01*
X106008120Y-58735667D01*
X105963653Y-58810747D01*
X105963359Y-58811267D01*
X105963336Y-58811308D01*
X105959696Y-58817762D01*
X105959385Y-58818314D01*
X105958915Y-58819190D01*
X105958621Y-58819767D01*
X105958593Y-58819822D01*
X105955090Y-58826713D01*
X105955053Y-58826786D01*
X105954781Y-58827323D01*
X105954501Y-58827904D01*
X105954482Y-58827944D01*
X105905772Y-58929288D01*
X105903958Y-58933063D01*
X105902672Y-58937037D01*
X105902669Y-58937047D01*
X105894091Y-58963573D01*
X105888904Y-58976924D01*
X105875835Y-59005543D01*
X105874573Y-59014317D01*
X105874573Y-59014319D01*
X105861235Y-59107088D01*
X105855353Y-59148000D01*
X105856615Y-59156777D01*
X105874572Y-59281677D01*
X105874573Y-59281681D01*
X105875835Y-59290457D01*
X105879519Y-59298525D01*
X105879520Y-59298526D01*
X105906539Y-59357690D01*
X105935623Y-59421373D01*
X105941430Y-59428075D01*
X105941431Y-59428076D01*
X106024065Y-59523442D01*
X106024067Y-59523444D01*
X106029872Y-59530143D01*
X106150947Y-59607953D01*
X106289039Y-59648500D01*
X106424090Y-59648500D01*
X106432961Y-59648500D01*
X106571053Y-59607953D01*
X106692128Y-59530143D01*
X106786377Y-59421373D01*
X106846165Y-59290457D01*
X106866647Y-59148000D01*
X106846165Y-59005543D01*
X106833086Y-58976906D01*
X106827897Y-58963547D01*
X106819328Y-58937049D01*
X106818037Y-58933056D01*
X106767220Y-58827333D01*
X106763182Y-58819379D01*
X106762704Y-58818486D01*
X106758342Y-58810744D01*
X106713865Y-58735649D01*
X106711031Y-58730595D01*
X106692552Y-58695739D01*
X106682929Y-58671892D01*
X106677003Y-58651258D01*
X106672492Y-58625750D01*
X106670491Y-58597375D01*
X106666758Y-58544422D01*
X106665274Y-58538798D01*
X106664323Y-58533053D01*
X106664688Y-58532992D01*
X106661500Y-58508408D01*
X106661500Y-58441857D01*
X106661748Y-58438276D01*
X106663773Y-58432236D01*
X106661632Y-58385921D01*
X106661500Y-58380195D01*
X106661500Y-58367894D01*
X106661500Y-58362156D01*
X106660444Y-58356512D01*
X106660365Y-58355656D01*
X106659967Y-58349926D01*
X106658585Y-58320009D01*
X106653942Y-58309493D01*
X106652200Y-58302087D01*
X106650923Y-58297964D01*
X106648172Y-58290864D01*
X106646061Y-58279567D01*
X106632001Y-58256859D01*
X106623995Y-58241671D01*
X106617847Y-58227747D01*
X106613206Y-58217235D01*
X106605078Y-58209107D01*
X106600783Y-58202837D01*
X106598083Y-58199429D01*
X106592968Y-58193818D01*
X106586919Y-58184048D01*
X106565602Y-58167950D01*
X106552648Y-58156677D01*
X105600155Y-57204184D01*
X105597797Y-57201474D01*
X105594958Y-57195772D01*
X105586466Y-57188030D01*
X105586465Y-57188029D01*
X105560681Y-57164524D01*
X105556539Y-57160568D01*
X105547852Y-57151881D01*
X105543797Y-57147826D01*
X105539066Y-57144584D01*
X105538386Y-57144020D01*
X105534067Y-57140262D01*
X105520423Y-57127823D01*
X105520421Y-57127821D01*
X105511933Y-57120084D01*
X105501220Y-57115933D01*
X105494780Y-57111946D01*
X105490902Y-57109902D01*
X105483958Y-57106835D01*
X105474481Y-57100344D01*
X105463302Y-57097714D01*
X105463294Y-57097711D01*
X105448484Y-57094228D01*
X105432086Y-57089150D01*
X105417891Y-57083651D01*
X105417885Y-57083649D01*
X105407173Y-57079500D01*
X105395682Y-57079500D01*
X105388208Y-57078103D01*
X105383905Y-57077603D01*
X105376302Y-57077251D01*
X105365119Y-57074621D01*
X105353741Y-57076208D01*
X105353737Y-57076208D01*
X105338667Y-57078311D01*
X105321535Y-57079500D01*
X104838139Y-57079500D01*
X104771100Y-57059816D01*
X104725345Y-57007012D01*
X104715401Y-56937854D01*
X104723492Y-56881576D01*
X104738843Y-56837221D01*
X104769580Y-56801750D01*
X104811299Y-56780244D01*
X104848053Y-56769453D01*
X104969128Y-56691643D01*
X105063377Y-56582873D01*
X105123165Y-56451957D01*
X105143647Y-56309500D01*
X105123165Y-56167043D01*
X105063377Y-56036127D01*
X105038465Y-56007377D01*
X104974934Y-55934057D01*
X104974932Y-55934055D01*
X104969128Y-55927357D01*
X104848053Y-55849547D01*
X104792863Y-55833341D01*
X104718473Y-55811499D01*
X104718470Y-55811498D01*
X104709961Y-55809000D01*
X104566039Y-55809000D01*
X104557537Y-55811496D01*
X104557532Y-55811497D01*
X104469067Y-55837471D01*
X104469063Y-55837473D01*
X104467409Y-55837959D01*
X104466273Y-55838218D01*
X104465478Y-55838519D01*
X104465389Y-55838522D01*
X104465398Y-55838550D01*
X104436456Y-55847048D01*
X104436453Y-55847049D01*
X104427947Y-55849547D01*
X104420489Y-55854339D01*
X104418644Y-55855182D01*
X104412649Y-55858475D01*
X104412705Y-55858577D01*
X104308673Y-55915826D01*
X104308645Y-55915841D01*
X104307290Y-55916588D01*
X104305965Y-55917407D01*
X104305944Y-55917420D01*
X104290822Y-55926776D01*
X104290804Y-55926787D01*
X104289475Y-55927610D01*
X104287523Y-55928960D01*
X104286279Y-55929917D01*
X104286253Y-55929937D01*
X104272133Y-55940811D01*
X104272107Y-55940831D01*
X104270867Y-55941787D01*
X104269697Y-55942786D01*
X104269658Y-55942819D01*
X104211084Y-55992904D01*
X104147541Y-56021482D01*
X104078617Y-56011282D01*
X104026074Y-55965526D01*
X104006500Y-55898658D01*
X104006500Y-55716348D01*
X104006500Y-55710252D01*
X103995348Y-55654187D01*
X103995348Y-55605813D01*
X104006500Y-55549748D01*
X104006500Y-55210252D01*
X103995348Y-55154187D01*
X103995349Y-55105808D01*
X104000308Y-55080875D01*
X104006500Y-55049748D01*
X104006500Y-54896229D01*
X104020015Y-54839934D01*
X104057615Y-54795911D01*
X104111102Y-54773756D01*
X104168818Y-54778298D01*
X104218181Y-54808548D01*
X104230110Y-54820477D01*
X104373310Y-54910456D01*
X104532941Y-54966313D01*
X104701000Y-54985249D01*
X104869059Y-54966313D01*
X105028690Y-54910456D01*
X105171890Y-54820477D01*
X105291477Y-54700890D01*
X105381456Y-54557690D01*
X105437313Y-54398059D01*
X105456249Y-54230000D01*
X105453378Y-54204524D01*
X105438093Y-54068864D01*
X105437313Y-54061941D01*
X105425787Y-54029000D01*
X118133754Y-54029000D01*
X118152720Y-54330457D01*
X118153447Y-54334269D01*
X118153449Y-54334283D01*
X118205708Y-54608231D01*
X118209319Y-54627160D01*
X118210523Y-54630867D01*
X118210524Y-54630869D01*
X118300164Y-54906753D01*
X118302659Y-54914430D01*
X118431267Y-55187736D01*
X118433349Y-55191017D01*
X118433352Y-55191022D01*
X118591024Y-55439474D01*
X118591028Y-55439480D01*
X118593115Y-55442768D01*
X118595594Y-55445765D01*
X118595598Y-55445770D01*
X118692486Y-55562887D01*
X118785651Y-55675504D01*
X119005838Y-55882274D01*
X119250205Y-56059816D01*
X119253612Y-56061689D01*
X119497506Y-56195772D01*
X119514896Y-56205332D01*
X119795738Y-56316525D01*
X120088302Y-56391642D01*
X120387973Y-56429500D01*
X120686133Y-56429500D01*
X120690027Y-56429500D01*
X120989698Y-56391642D01*
X121282262Y-56316525D01*
X121563104Y-56205332D01*
X121827795Y-56059816D01*
X122072162Y-55882274D01*
X122292349Y-55675504D01*
X122484885Y-55442768D01*
X122646733Y-55187736D01*
X122775341Y-54914430D01*
X122868681Y-54627160D01*
X122925280Y-54330457D01*
X122944246Y-54029000D01*
X122925280Y-53727543D01*
X122868681Y-53430840D01*
X122775341Y-53143570D01*
X122646733Y-52870264D01*
X122504558Y-52646232D01*
X122486975Y-52618525D01*
X122486973Y-52618522D01*
X122484885Y-52615232D01*
X122431777Y-52551036D01*
X122378508Y-52486644D01*
X122292349Y-52382496D01*
X122072162Y-52175726D01*
X122046053Y-52156757D01*
X121894944Y-52046970D01*
X121827795Y-51998184D01*
X121824391Y-51996313D01*
X121824387Y-51996310D01*
X121566521Y-51854546D01*
X121566514Y-51854542D01*
X121563104Y-51852668D01*
X121559478Y-51851232D01*
X121559473Y-51851230D01*
X121285890Y-51742911D01*
X121285884Y-51742909D01*
X121282262Y-51741475D01*
X121278484Y-51740505D01*
X121278481Y-51740504D01*
X120993476Y-51667328D01*
X120993475Y-51667327D01*
X120989698Y-51666358D01*
X120985835Y-51665870D01*
X120985830Y-51665869D01*
X120693891Y-51628988D01*
X120693888Y-51628987D01*
X120690027Y-51628500D01*
X120387973Y-51628500D01*
X120384112Y-51628987D01*
X120384108Y-51628988D01*
X120092169Y-51665869D01*
X120092161Y-51665870D01*
X120088302Y-51666358D01*
X120084527Y-51667327D01*
X120084523Y-51667328D01*
X119799518Y-51740504D01*
X119799511Y-51740506D01*
X119795738Y-51741475D01*
X119792120Y-51742907D01*
X119792109Y-51742911D01*
X119518526Y-51851230D01*
X119518515Y-51851234D01*
X119514896Y-51852668D01*
X119511491Y-51854539D01*
X119511478Y-51854546D01*
X119253612Y-51996310D01*
X119253600Y-51996317D01*
X119250205Y-51998184D01*
X119247061Y-52000467D01*
X119247055Y-52000472D01*
X119008994Y-52173432D01*
X119008983Y-52173440D01*
X119005838Y-52175726D01*
X119003003Y-52178387D01*
X119002996Y-52178394D01*
X118788488Y-52379831D01*
X118788481Y-52379838D01*
X118785651Y-52382496D01*
X118783176Y-52385487D01*
X118783172Y-52385492D01*
X118595598Y-52612229D01*
X118595588Y-52612241D01*
X118593115Y-52615232D01*
X118591033Y-52618511D01*
X118591024Y-52618525D01*
X118433352Y-52866977D01*
X118433345Y-52866988D01*
X118431267Y-52870264D01*
X118429614Y-52873774D01*
X118429611Y-52873782D01*
X118311532Y-53124714D01*
X118302659Y-53143570D01*
X118301457Y-53147267D01*
X118301455Y-53147274D01*
X118212396Y-53421370D01*
X118209319Y-53430840D01*
X118208590Y-53434660D01*
X118208588Y-53434669D01*
X118153449Y-53723716D01*
X118153446Y-53723732D01*
X118152720Y-53727543D01*
X118133754Y-54029000D01*
X105425787Y-54029000D01*
X105381456Y-53902310D01*
X105291477Y-53759110D01*
X105171890Y-53639523D01*
X105028690Y-53549544D01*
X105022124Y-53547246D01*
X105022121Y-53547245D01*
X104875633Y-53495987D01*
X104875630Y-53495986D01*
X104869059Y-53493687D01*
X104862142Y-53492907D01*
X104862135Y-53492906D01*
X104707923Y-53475531D01*
X104701000Y-53474751D01*
X104694077Y-53475531D01*
X104539864Y-53492906D01*
X104539855Y-53492907D01*
X104532941Y-53493687D01*
X104526371Y-53495985D01*
X104526366Y-53495987D01*
X104379878Y-53547245D01*
X104379872Y-53547247D01*
X104373310Y-53549544D01*
X104367419Y-53553245D01*
X104367418Y-53553246D01*
X104236010Y-53635815D01*
X104236005Y-53635818D01*
X104230110Y-53639523D01*
X104225184Y-53644448D01*
X104225180Y-53644452D01*
X104189190Y-53680442D01*
X104137503Y-53711421D01*
X104077315Y-53714377D01*
X104022842Y-53688611D01*
X103995245Y-53651397D01*
X103994396Y-53651965D01*
X103959086Y-53599121D01*
X103938830Y-53542833D01*
X103947285Y-53483611D01*
X103982478Y-53435243D01*
X104352553Y-53124714D01*
X104389877Y-53078211D01*
X104412196Y-53001633D01*
X104403513Y-52922343D01*
X104374832Y-52870065D01*
X104008524Y-52433515D01*
X103691287Y-52055446D01*
X103691285Y-52055444D01*
X103687374Y-52050783D01*
X103640870Y-52013460D01*
X103629145Y-52010042D01*
X103629144Y-52010042D01*
X103576015Y-51994557D01*
X103576012Y-51994556D01*
X103564293Y-51991141D01*
X103552155Y-51992470D01*
X103497144Y-51998494D01*
X103497141Y-51998494D01*
X103485003Y-51999824D01*
X103474294Y-52005698D01*
X103474294Y-52005699D01*
X103438064Y-52025575D01*
X103438061Y-52025577D01*
X103432724Y-52028505D01*
X103428066Y-52032413D01*
X103428058Y-52032419D01*
X103024114Y-52371369D01*
X103024108Y-52371374D01*
X103019447Y-52375286D01*
X103015637Y-52380032D01*
X103015632Y-52380038D01*
X102989769Y-52412261D01*
X102989766Y-52412265D01*
X102982123Y-52421789D01*
X102978705Y-52433513D01*
X102978705Y-52433515D01*
X102963220Y-52486644D01*
X102963219Y-52486647D01*
X102959804Y-52498367D01*
X102961133Y-52510503D01*
X102961133Y-52510505D01*
X102967157Y-52565517D01*
X102967157Y-52565519D01*
X102968487Y-52577657D01*
X102974359Y-52588361D01*
X102974360Y-52588362D01*
X102989101Y-52615232D01*
X102997168Y-52629935D01*
X103001078Y-52634595D01*
X103001079Y-52634596D01*
X103589651Y-53336030D01*
X103616278Y-53391544D01*
X103612923Y-53453021D01*
X103580411Y-53505306D01*
X103537527Y-53529447D01*
X103534788Y-53532186D01*
X103531000Y-53546326D01*
X103531000Y-53905500D01*
X103514387Y-53967500D01*
X103469000Y-54012887D01*
X103407000Y-54029500D01*
X102936252Y-54029500D01*
X102934579Y-54029832D01*
X102931175Y-54030000D01*
X102772326Y-54030000D01*
X102759450Y-54033450D01*
X102756196Y-54045594D01*
X102757189Y-54055678D01*
X102766906Y-54104527D01*
X102766906Y-54152909D01*
X102756689Y-54204271D01*
X102756689Y-54204276D01*
X102755500Y-54210252D01*
X102755500Y-54549748D01*
X102756688Y-54555723D01*
X102756689Y-54555728D01*
X102766651Y-54605808D01*
X102766651Y-54654187D01*
X102755500Y-54710252D01*
X102755500Y-54716348D01*
X102755500Y-54762500D01*
X102738887Y-54824500D01*
X102693500Y-54869887D01*
X102631500Y-54886500D01*
X102510039Y-54886500D01*
X102501525Y-54888999D01*
X102492753Y-54890261D01*
X102492506Y-54888545D01*
X102448481Y-54890904D01*
X102396188Y-54868141D01*
X102359616Y-54824379D01*
X102346500Y-54768875D01*
X102346500Y-54716348D01*
X102346500Y-54710252D01*
X102335348Y-54654187D01*
X102335349Y-54605808D01*
X102343813Y-54563256D01*
X102346500Y-54549748D01*
X102346500Y-54210252D01*
X102335093Y-54152905D01*
X102335093Y-54104525D01*
X102344810Y-54055673D01*
X102345803Y-54045594D01*
X102342549Y-54033450D01*
X102329674Y-54030000D01*
X102170825Y-54030000D01*
X102167420Y-54029832D01*
X102165748Y-54029500D01*
X101695000Y-54029500D01*
X101633000Y-54012887D01*
X101587613Y-53967500D01*
X101571000Y-53905500D01*
X101571000Y-53713674D01*
X101871000Y-53713674D01*
X101874450Y-53726549D01*
X101887326Y-53730000D01*
X102329674Y-53730000D01*
X102342549Y-53726549D01*
X102345803Y-53714405D01*
X102756196Y-53714405D01*
X102759450Y-53726549D01*
X102772326Y-53730000D01*
X103214674Y-53730000D01*
X103227549Y-53726549D01*
X103231000Y-53713674D01*
X103231000Y-53546326D01*
X103227549Y-53533450D01*
X103214674Y-53530000D01*
X102942398Y-53530000D01*
X102930321Y-53531189D01*
X102889942Y-53539221D01*
X102867809Y-53548388D01*
X102821961Y-53579023D01*
X102805023Y-53595961D01*
X102774388Y-53641809D01*
X102765221Y-53663942D01*
X102757190Y-53704319D01*
X102756196Y-53714405D01*
X102345803Y-53714405D01*
X102344810Y-53704319D01*
X102336778Y-53663942D01*
X102327611Y-53641809D01*
X102296976Y-53595961D01*
X102280038Y-53579023D01*
X102234190Y-53548388D01*
X102212057Y-53539221D01*
X102171678Y-53531189D01*
X102159602Y-53530000D01*
X101887326Y-53530000D01*
X101874450Y-53533450D01*
X101871000Y-53546326D01*
X101871000Y-53713674D01*
X101571000Y-53713674D01*
X101571000Y-53546326D01*
X101567211Y-53532186D01*
X101564473Y-53529448D01*
X101521588Y-53505307D01*
X101489076Y-53453022D01*
X101485721Y-53391544D01*
X101512346Y-53336032D01*
X102104832Y-52629935D01*
X102133513Y-52577657D01*
X102142196Y-52498367D01*
X102119877Y-52421789D01*
X102109266Y-52408569D01*
X102086367Y-52380038D01*
X102082553Y-52375286D01*
X101965291Y-52276891D01*
X101673941Y-52032419D01*
X101673938Y-52032417D01*
X101669276Y-52028505D01*
X101616997Y-51999824D01*
X101604856Y-51998494D01*
X101604855Y-51998494D01*
X101549845Y-51992470D01*
X101549843Y-51992470D01*
X101537707Y-51991141D01*
X101525987Y-51994556D01*
X101525984Y-51994557D01*
X101472855Y-52010042D01*
X101472852Y-52010043D01*
X101461130Y-52013460D01*
X101451605Y-52021104D01*
X101451604Y-52021105D01*
X101419376Y-52046970D01*
X101419371Y-52046974D01*
X101414626Y-52050783D01*
X101410719Y-52055438D01*
X101410712Y-52055446D01*
X100731079Y-52865403D01*
X100731075Y-52865408D01*
X100727168Y-52870065D01*
X100724244Y-52875394D01*
X100724239Y-52875402D01*
X100704360Y-52911637D01*
X100704359Y-52911639D01*
X100698487Y-52922343D01*
X100697158Y-52934478D01*
X100697157Y-52934482D01*
X100691133Y-52989494D01*
X100689804Y-53001633D01*
X100712123Y-53078211D01*
X100719768Y-53087736D01*
X100719769Y-53087738D01*
X100745632Y-53119961D01*
X100749447Y-53124714D01*
X100754114Y-53128630D01*
X101119517Y-53435240D01*
X101154714Y-53483611D01*
X101163169Y-53542832D01*
X101142913Y-53599119D01*
X101107604Y-53651963D01*
X101106756Y-53651396D01*
X101079151Y-53688616D01*
X101024677Y-53714378D01*
X100964492Y-53711420D01*
X100912808Y-53680441D01*
X100876818Y-53644451D01*
X100871890Y-53639523D01*
X100728690Y-53549544D01*
X100722124Y-53547246D01*
X100722121Y-53547245D01*
X100575633Y-53495987D01*
X100575630Y-53495986D01*
X100569059Y-53493687D01*
X100562142Y-53492907D01*
X100562135Y-53492906D01*
X100407923Y-53475531D01*
X100401000Y-53474751D01*
X100394077Y-53475531D01*
X100239864Y-53492906D01*
X100239855Y-53492907D01*
X100232941Y-53493687D01*
X100226371Y-53495985D01*
X100226366Y-53495987D01*
X100079878Y-53547245D01*
X100079872Y-53547247D01*
X100073310Y-53549544D01*
X100067419Y-53553245D01*
X100067418Y-53553246D01*
X99936010Y-53635815D01*
X99936005Y-53635818D01*
X99930110Y-53639523D01*
X99925185Y-53644447D01*
X99925181Y-53644451D01*
X99815451Y-53754181D01*
X99815447Y-53754185D01*
X99810523Y-53759110D01*
X99806818Y-53765005D01*
X99806815Y-53765010D01*
X99729692Y-53887751D01*
X99720544Y-53902310D01*
X99718247Y-53908872D01*
X99718245Y-53908878D01*
X99666987Y-54055366D01*
X99666985Y-54055371D01*
X99664687Y-54061941D01*
X99663907Y-54068855D01*
X99663906Y-54068864D01*
X99647976Y-54210252D01*
X99645751Y-54230000D01*
X99646531Y-54236923D01*
X99663906Y-54391135D01*
X99663907Y-54391142D01*
X99664687Y-54398059D01*
X99666986Y-54404630D01*
X99666987Y-54404633D01*
X99706543Y-54517679D01*
X99720544Y-54557690D01*
X99810523Y-54700890D01*
X99930110Y-54820477D01*
X100073310Y-54910456D01*
X100232941Y-54966313D01*
X100401000Y-54985249D01*
X100569059Y-54966313D01*
X100728690Y-54910456D01*
X100871890Y-54820477D01*
X100883819Y-54808548D01*
X100933182Y-54778298D01*
X100990898Y-54773756D01*
X101044385Y-54795911D01*
X101081985Y-54839934D01*
X101095500Y-54896229D01*
X101095500Y-55049748D01*
X101096688Y-55055723D01*
X101096689Y-55055728D01*
X101106651Y-55105808D01*
X101106651Y-55154187D01*
X101095500Y-55210252D01*
X101095500Y-55216348D01*
X101095500Y-55455500D01*
X101078887Y-55517500D01*
X101033500Y-55562887D01*
X100971500Y-55579500D01*
X100036833Y-55579500D01*
X99989380Y-55570061D01*
X99949152Y-55543181D01*
X99186116Y-54780145D01*
X99154082Y-54724779D01*
X99153927Y-54669212D01*
X99152323Y-54668947D01*
X99153274Y-54663202D01*
X99154758Y-54657578D01*
X99160492Y-54576246D01*
X99165002Y-54550741D01*
X99165004Y-54550734D01*
X99170931Y-54530098D01*
X99180554Y-54506255D01*
X99199035Y-54471393D01*
X99201857Y-54466362D01*
X99246343Y-54391251D01*
X99250704Y-54383511D01*
X99251182Y-54382618D01*
X99255219Y-54374665D01*
X99306036Y-54268944D01*
X99315901Y-54238436D01*
X99321088Y-54225089D01*
X99325080Y-54216348D01*
X99334165Y-54196457D01*
X99354647Y-54054000D01*
X99334165Y-53911543D01*
X99274377Y-53780627D01*
X99216996Y-53714405D01*
X99185934Y-53678557D01*
X99185932Y-53678555D01*
X99180128Y-53671857D01*
X99059053Y-53594047D01*
X98983242Y-53571787D01*
X98929473Y-53555999D01*
X98929470Y-53555998D01*
X98920961Y-53553500D01*
X98777039Y-53553500D01*
X98768530Y-53555998D01*
X98768526Y-53555999D01*
X98647461Y-53591547D01*
X98638947Y-53594047D01*
X98631484Y-53598842D01*
X98631484Y-53598843D01*
X98525329Y-53667064D01*
X98525325Y-53667066D01*
X98517872Y-53671857D01*
X98512070Y-53678551D01*
X98512065Y-53678557D01*
X98429431Y-53773923D01*
X98429428Y-53773927D01*
X98423623Y-53780627D01*
X98419941Y-53788689D01*
X98419938Y-53788694D01*
X98367520Y-53903473D01*
X98363835Y-53911543D01*
X98362573Y-53920316D01*
X98362572Y-53920322D01*
X98346804Y-54030000D01*
X98343353Y-54054000D01*
X86912869Y-54054000D01*
X86894280Y-53758543D01*
X86837681Y-53461840D01*
X86744341Y-53174570D01*
X86615733Y-52901264D01*
X86606682Y-52887002D01*
X86455975Y-52649525D01*
X86455973Y-52649522D01*
X86453885Y-52646232D01*
X86261349Y-52413496D01*
X86041162Y-52206726D01*
X85995336Y-52173432D01*
X85802521Y-52033344D01*
X85796795Y-52029184D01*
X85793391Y-52027313D01*
X85793387Y-52027310D01*
X85535521Y-51885546D01*
X85535514Y-51885542D01*
X85532104Y-51883668D01*
X85528478Y-51882232D01*
X85528473Y-51882230D01*
X85254890Y-51773911D01*
X85254884Y-51773909D01*
X85251262Y-51772475D01*
X85247484Y-51771505D01*
X85247481Y-51771504D01*
X84962476Y-51698328D01*
X84962475Y-51698327D01*
X84958698Y-51697358D01*
X84954835Y-51696870D01*
X84954830Y-51696869D01*
X84662891Y-51659988D01*
X84662888Y-51659987D01*
X84659027Y-51659500D01*
X84356973Y-51659500D01*
X84353112Y-51659987D01*
X84353108Y-51659988D01*
X84061169Y-51696869D01*
X84061161Y-51696870D01*
X84057302Y-51697358D01*
X84053527Y-51698327D01*
X84053523Y-51698328D01*
X83768518Y-51771504D01*
X83768511Y-51771506D01*
X83764738Y-51772475D01*
X83761120Y-51773907D01*
X83761109Y-51773911D01*
X83487526Y-51882230D01*
X83487515Y-51882234D01*
X83483896Y-51883668D01*
X83480491Y-51885539D01*
X83480478Y-51885546D01*
X83222612Y-52027310D01*
X83222600Y-52027317D01*
X83219205Y-52029184D01*
X83216061Y-52031467D01*
X83216055Y-52031472D01*
X82977994Y-52204432D01*
X82977983Y-52204440D01*
X82974838Y-52206726D01*
X82972003Y-52209387D01*
X82971996Y-52209394D01*
X82757488Y-52410831D01*
X82757481Y-52410838D01*
X82754651Y-52413496D01*
X82752176Y-52416487D01*
X82752172Y-52416492D01*
X82564598Y-52643229D01*
X82564588Y-52643241D01*
X82562115Y-52646232D01*
X82560033Y-52649511D01*
X82560024Y-52649525D01*
X82402352Y-52897977D01*
X82402345Y-52897988D01*
X82400267Y-52901264D01*
X82398614Y-52904774D01*
X82398611Y-52904782D01*
X82273315Y-53171050D01*
X82271659Y-53174570D01*
X82270457Y-53178267D01*
X82270455Y-53178274D01*
X82182420Y-53449217D01*
X82178319Y-53461840D01*
X82177590Y-53465660D01*
X82177588Y-53465669D01*
X82122449Y-53754716D01*
X82122446Y-53754732D01*
X82121720Y-53758543D01*
X82102754Y-54060000D01*
X81463501Y-54060000D01*
X81463501Y-54048246D01*
X81463671Y-54041757D01*
X81465184Y-54012887D01*
X81479592Y-53737937D01*
X81480946Y-53725065D01*
X81528031Y-53427784D01*
X81530724Y-53415108D01*
X81608628Y-53124368D01*
X81612637Y-53112033D01*
X81650516Y-53013355D01*
X81720494Y-52831055D01*
X81725764Y-52819216D01*
X81862420Y-52551015D01*
X81868886Y-52539816D01*
X82032825Y-52287372D01*
X82040427Y-52276909D01*
X82229859Y-52042979D01*
X82238526Y-52033354D01*
X82451354Y-51820526D01*
X82460979Y-51811859D01*
X82694909Y-51622427D01*
X82705372Y-51614825D01*
X82957816Y-51450886D01*
X82969015Y-51444420D01*
X83237216Y-51307764D01*
X83249055Y-51302494D01*
X83530040Y-51194634D01*
X83542368Y-51190628D01*
X83833108Y-51112724D01*
X83845784Y-51110031D01*
X84143065Y-51062946D01*
X84155937Y-51061592D01*
X84459757Y-51045670D01*
X84466246Y-51045501D01*
X120459754Y-51045501D01*
X120466243Y-51045670D01*
G37*
%TD.AperFunction*%
%TD*%
%TA.AperFunction,Conductor*%
%TO.N,Net-(F1-Pad1)*%
G36*
X102707651Y-55114476D02*
G01*
X102811619Y-55158960D01*
X102894799Y-55193339D01*
X102968952Y-55215172D01*
X103056686Y-55226659D01*
X103169223Y-55229693D01*
X103177292Y-55233228D01*
X103180608Y-55241389D01*
X103180608Y-55518736D01*
X103177337Y-55526851D01*
X103169352Y-55530427D01*
X103150505Y-55531144D01*
X103056532Y-55534715D01*
X103056518Y-55534716D01*
X103056161Y-55534730D01*
X103055796Y-55534791D01*
X103055794Y-55534792D01*
X102969145Y-55549475D01*
X102969141Y-55549475D01*
X102968657Y-55549558D01*
X102968196Y-55549719D01*
X102968188Y-55549722D01*
X102895241Y-55575351D01*
X102895235Y-55575353D01*
X102894997Y-55575437D01*
X102894779Y-55575536D01*
X102894758Y-55575545D01*
X102812158Y-55613284D01*
X102812018Y-55613347D01*
X102707722Y-55659348D01*
X102701660Y-55660266D01*
X102695967Y-55657993D01*
X102692205Y-55653156D01*
X102582883Y-55391507D01*
X102581980Y-55387000D01*
X102582883Y-55382492D01*
X102692257Y-55120719D01*
X102695984Y-55115910D01*
X102701625Y-55113621D01*
X102707651Y-55114476D01*
G37*
%TD.AperFunction*%
%TD*%
%TA.AperFunction,Conductor*%
%TO.N,/DUSB+*%
G36*
X102150539Y-56232421D02*
G01*
X102175767Y-56245877D01*
X102175791Y-56245888D01*
X102176000Y-56246000D01*
X102206000Y-56259000D01*
X102236000Y-56268999D01*
X102266000Y-56275999D01*
X102281813Y-56278107D01*
X102285847Y-56278646D01*
X102293103Y-56282536D01*
X102296000Y-56290243D01*
X102296000Y-56469757D01*
X102293103Y-56477464D01*
X102285846Y-56481353D01*
X102280955Y-56482005D01*
X102266282Y-56483962D01*
X102266273Y-56483963D01*
X102266000Y-56484000D01*
X102265740Y-56484060D01*
X102265727Y-56484063D01*
X102236267Y-56490937D01*
X102236252Y-56490940D01*
X102236000Y-56491000D01*
X102235747Y-56491084D01*
X102235741Y-56491086D01*
X102206249Y-56500915D01*
X102206229Y-56500922D01*
X102206000Y-56500999D01*
X102205764Y-56501101D01*
X102205749Y-56501107D01*
X102176232Y-56513898D01*
X102176222Y-56513902D01*
X102176000Y-56513999D01*
X102152274Y-56526653D01*
X102150539Y-56527579D01*
X102145918Y-56528921D01*
X102141147Y-56528291D01*
X101751342Y-56391036D01*
X101745679Y-56386761D01*
X101743528Y-56380000D01*
X101745679Y-56373239D01*
X101751342Y-56368964D01*
X102141150Y-56231707D01*
X102145918Y-56231078D01*
X102150539Y-56232421D01*
G37*
%TD.AperFunction*%
%TD*%
%TA.AperFunction,Conductor*%
%TO.N,Net-(F1-Pad1)*%
G36*
X103077592Y-57731756D02*
G01*
X103081988Y-57736050D01*
X103083602Y-57741979D01*
X103083602Y-58019607D01*
X103080649Y-58027377D01*
X103073281Y-58031225D01*
X102987629Y-58041393D01*
X102987625Y-58041394D01*
X102986557Y-58041521D01*
X102985604Y-58042023D01*
X102985602Y-58042024D01*
X102925418Y-58073761D01*
X102925413Y-58073764D01*
X102924493Y-58074250D01*
X102923798Y-58075028D01*
X102923796Y-58075030D01*
X102879012Y-58125198D01*
X102879004Y-58125207D01*
X102878804Y-58125432D01*
X102878625Y-58125681D01*
X102878624Y-58125683D01*
X102831187Y-58191887D01*
X102830541Y-58192708D01*
X102770338Y-58262604D01*
X102765066Y-58266103D01*
X102758744Y-58266345D01*
X102753219Y-58263261D01*
X102752559Y-58262604D01*
X102552461Y-58063445D01*
X102549904Y-58059625D01*
X102549016Y-58055114D01*
X102549062Y-58041521D01*
X102549962Y-57771388D01*
X102553306Y-57763239D01*
X102561385Y-57759731D01*
X102682454Y-57756880D01*
X102776307Y-57749440D01*
X102857184Y-57740572D01*
X102857406Y-57740551D01*
X102950834Y-57733144D01*
X102951440Y-57733113D01*
X103071627Y-57730282D01*
X103077592Y-57731756D01*
G37*
%TD.AperFunction*%
%TD*%
%TA.AperFunction,Conductor*%
%TO.N,/DUSB+*%
G36*
X104104082Y-56609793D02*
G01*
X104107946Y-56614707D01*
X104217115Y-56875989D01*
X104218019Y-56880500D01*
X104217115Y-56885011D01*
X104107949Y-57146284D01*
X104104082Y-57151200D01*
X104098236Y-57153423D01*
X104092080Y-57152316D01*
X103986361Y-57101448D01*
X103985459Y-57100964D01*
X103903858Y-57052493D01*
X103903836Y-57052480D01*
X103903739Y-57052423D01*
X103903636Y-57052368D01*
X103903618Y-57052358D01*
X103832247Y-57014354D01*
X103832243Y-57014352D01*
X103831711Y-57014069D01*
X103831130Y-57013901D01*
X103831127Y-57013900D01*
X103745415Y-56989156D01*
X103745408Y-56989154D01*
X103744827Y-56988987D01*
X103744223Y-56988944D01*
X103744217Y-56988943D01*
X103628971Y-56980771D01*
X103621238Y-56977075D01*
X103618099Y-56969100D01*
X103618099Y-56790907D01*
X103621241Y-56782929D01*
X103628979Y-56779236D01*
X103744776Y-56771110D01*
X103831682Y-56746263D01*
X103903758Y-56708195D01*
X103985518Y-56659894D01*
X103986385Y-56659430D01*
X104092086Y-56608670D01*
X104098239Y-56607569D01*
X104104082Y-56609793D01*
G37*
%TD.AperFunction*%
%TD*%
%TA.AperFunction,Conductor*%
%TO.N,/DUSB+*%
G36*
X103016825Y-56671379D02*
G01*
X103113006Y-56690534D01*
X103209186Y-56706689D01*
X103305367Y-56719844D01*
X103305495Y-56719857D01*
X103305499Y-56719858D01*
X103315942Y-56720960D01*
X103389611Y-56728739D01*
X103395343Y-56730971D01*
X103399152Y-56735804D01*
X103399981Y-56741901D01*
X103382960Y-56871189D01*
X103379359Y-56878200D01*
X103372128Y-56881337D01*
X102960682Y-56908399D01*
X102952401Y-56905693D01*
X102920743Y-56879177D01*
X102920644Y-56879094D01*
X102920551Y-56879024D01*
X102920541Y-56879016D01*
X102885428Y-56852587D01*
X102885289Y-56852482D01*
X102885147Y-56852387D01*
X102850092Y-56828974D01*
X102850079Y-56828966D01*
X102849934Y-56828869D01*
X102849793Y-56828787D01*
X102849771Y-56828773D01*
X102814733Y-56808347D01*
X102814579Y-56808257D01*
X102814425Y-56808180D01*
X102814419Y-56808177D01*
X102793776Y-56797894D01*
X102788601Y-56792796D01*
X102787432Y-56785626D01*
X102790718Y-56779150D01*
X102916064Y-56653804D01*
X102921107Y-56650833D01*
X102926957Y-56650678D01*
X103016825Y-56671379D01*
G37*
%TD.AperFunction*%
%TD*%
%TA.AperFunction,Conductor*%
%TO.N,/DUSB-*%
G36*
X103810539Y-56232421D02*
G01*
X103835767Y-56245877D01*
X103835791Y-56245888D01*
X103836000Y-56246000D01*
X103866000Y-56259000D01*
X103896000Y-56268999D01*
X103926000Y-56275999D01*
X103941813Y-56278107D01*
X103945847Y-56278646D01*
X103953103Y-56282536D01*
X103956000Y-56290243D01*
X103956000Y-56469757D01*
X103953103Y-56477464D01*
X103945846Y-56481353D01*
X103940955Y-56482005D01*
X103926282Y-56483962D01*
X103926273Y-56483963D01*
X103926000Y-56484000D01*
X103925740Y-56484060D01*
X103925727Y-56484063D01*
X103896267Y-56490937D01*
X103896252Y-56490940D01*
X103896000Y-56491000D01*
X103895747Y-56491084D01*
X103895741Y-56491086D01*
X103866249Y-56500915D01*
X103866229Y-56500922D01*
X103866000Y-56500999D01*
X103865764Y-56501101D01*
X103865749Y-56501107D01*
X103836232Y-56513898D01*
X103836222Y-56513902D01*
X103836000Y-56513999D01*
X103812274Y-56526653D01*
X103810539Y-56527579D01*
X103805918Y-56528921D01*
X103801147Y-56528291D01*
X103411342Y-56391036D01*
X103405679Y-56386761D01*
X103403528Y-56380000D01*
X103405679Y-56373239D01*
X103411342Y-56368964D01*
X103801150Y-56231707D01*
X103805918Y-56231078D01*
X103810539Y-56232421D01*
G37*
%TD.AperFunction*%
%TD*%
%TA.AperFunction,Conductor*%
%TO.N,/DUSB-*%
G36*
X102150130Y-56789760D02*
G01*
X102183932Y-56812439D01*
X102221865Y-56834890D01*
X102222027Y-56834973D01*
X102222036Y-56834978D01*
X102244418Y-56846454D01*
X102259797Y-56854340D01*
X102297730Y-56870791D01*
X102318195Y-56878047D01*
X102324208Y-56882877D01*
X102325909Y-56890400D01*
X102322557Y-56897347D01*
X102198727Y-57021177D01*
X102193784Y-57024120D01*
X102188036Y-57024351D01*
X102185026Y-57023715D01*
X102185019Y-57023714D01*
X102184593Y-57023624D01*
X102184154Y-57023597D01*
X102184152Y-57023597D01*
X102175391Y-57023065D01*
X102175389Y-57023065D01*
X102174945Y-57023038D01*
X102174512Y-57023076D01*
X102174503Y-57023077D01*
X102165716Y-57023868D01*
X102165713Y-57023868D01*
X102165296Y-57023906D01*
X102164893Y-57024002D01*
X102164886Y-57024004D01*
X102156044Y-57026130D01*
X102156033Y-57026133D01*
X102155648Y-57026226D01*
X102155282Y-57026368D01*
X102155260Y-57026376D01*
X102150057Y-57028412D01*
X102141891Y-57028545D01*
X101759102Y-56893032D01*
X101753243Y-56888450D01*
X101751330Y-56881262D01*
X101754137Y-56874374D01*
X101760528Y-56870569D01*
X102141139Y-56788042D01*
X102145808Y-56787985D01*
X102150130Y-56789760D01*
G37*
%TD.AperFunction*%
%TD*%
%TA.AperFunction,Conductor*%
%TO.N,Net-(J1-CC2)*%
G36*
X98853507Y-54054883D02*
G01*
X99076917Y-54148228D01*
X99114788Y-54164052D01*
X99119703Y-54167917D01*
X99121926Y-54173762D01*
X99120822Y-54179917D01*
X99070005Y-54285638D01*
X99069527Y-54286531D01*
X99021184Y-54368155D01*
X99021166Y-54368185D01*
X99021105Y-54368290D01*
X99021049Y-54368394D01*
X99021028Y-54368433D01*
X98983184Y-54439816D01*
X98983181Y-54439822D01*
X98982897Y-54440359D01*
X98982728Y-54440944D01*
X98982727Y-54440949D01*
X98958105Y-54526680D01*
X98958103Y-54526689D01*
X98957936Y-54527272D01*
X98957893Y-54527876D01*
X98957892Y-54527884D01*
X98949767Y-54643123D01*
X98946073Y-54650859D01*
X98938096Y-54654000D01*
X98759904Y-54654000D01*
X98751927Y-54650859D01*
X98748233Y-54643123D01*
X98740105Y-54527884D01*
X98740062Y-54527272D01*
X98715102Y-54440359D01*
X98676893Y-54368290D01*
X98628462Y-54286517D01*
X98628000Y-54285654D01*
X98577176Y-54179916D01*
X98576073Y-54173762D01*
X98578296Y-54167917D01*
X98583210Y-54164052D01*
X98844492Y-54054883D01*
X98849000Y-54053980D01*
X98853507Y-54054883D01*
G37*
%TD.AperFunction*%
%TD*%
%TA.AperFunction,Conductor*%
%TO.N,Net-(F1-Pad1)*%
G36*
X102148557Y-57733113D02*
G01*
X102149166Y-57733144D01*
X102242586Y-57740550D01*
X102242821Y-57740572D01*
X102323692Y-57749440D01*
X102417545Y-57756880D01*
X102538613Y-57759731D01*
X102546693Y-57763239D01*
X102550037Y-57771389D01*
X102550983Y-58055114D01*
X102550095Y-58059625D01*
X102547537Y-58063446D01*
X102346780Y-58263261D01*
X102341255Y-58266345D01*
X102334933Y-58266103D01*
X102329661Y-58262604D01*
X102269456Y-58192708D01*
X102268810Y-58191887D01*
X102264386Y-58185713D01*
X102221194Y-58125432D01*
X102175506Y-58074250D01*
X102155018Y-58063446D01*
X102114396Y-58042024D01*
X102114395Y-58042023D01*
X102113442Y-58041521D01*
X102112372Y-58041393D01*
X102112369Y-58041393D01*
X102026719Y-58031225D01*
X102019351Y-58027377D01*
X102016398Y-58019607D01*
X102016398Y-57741979D01*
X102018012Y-57736050D01*
X102022408Y-57731756D01*
X102028372Y-57730282D01*
X102148557Y-57733113D01*
G37*
%TD.AperFunction*%
%TD*%
%TA.AperFunction,Conductor*%
%TO.N,Net-(J1-CC1)*%
G36*
X103810539Y-57232421D02*
G01*
X103835767Y-57245877D01*
X103835791Y-57245888D01*
X103836000Y-57246000D01*
X103866000Y-57259000D01*
X103896000Y-57268999D01*
X103926000Y-57275999D01*
X103941813Y-57278107D01*
X103945847Y-57278646D01*
X103953103Y-57282536D01*
X103956000Y-57290243D01*
X103956000Y-57469757D01*
X103953103Y-57477464D01*
X103945846Y-57481353D01*
X103940954Y-57482006D01*
X103926282Y-57483962D01*
X103926273Y-57483963D01*
X103926000Y-57484000D01*
X103925740Y-57484060D01*
X103925727Y-57484063D01*
X103896267Y-57490937D01*
X103896252Y-57490940D01*
X103896000Y-57491000D01*
X103895747Y-57491084D01*
X103895741Y-57491086D01*
X103866249Y-57500915D01*
X103866229Y-57500922D01*
X103866000Y-57500999D01*
X103865764Y-57501101D01*
X103865749Y-57501107D01*
X103836232Y-57513898D01*
X103836222Y-57513902D01*
X103836000Y-57513999D01*
X103812274Y-57526653D01*
X103810539Y-57527579D01*
X103805918Y-57528921D01*
X103801147Y-57528291D01*
X103411342Y-57391036D01*
X103405679Y-57386761D01*
X103403528Y-57380000D01*
X103405679Y-57373239D01*
X103411342Y-57368964D01*
X103801150Y-57231707D01*
X103805918Y-57231078D01*
X103810539Y-57232421D01*
G37*
%TD.AperFunction*%
%TD*%
%TA.AperFunction,Conductor*%
%TO.N,Net-(J1-CC2)*%
G36*
X101300849Y-55731707D02*
G01*
X101545435Y-55817829D01*
X101690657Y-55868964D01*
X101696320Y-55873239D01*
X101698471Y-55880000D01*
X101696320Y-55886761D01*
X101690657Y-55891036D01*
X101300852Y-56028291D01*
X101296081Y-56028921D01*
X101291460Y-56027578D01*
X101266224Y-56014118D01*
X101266214Y-56014113D01*
X101266000Y-56013999D01*
X101265767Y-56013898D01*
X101236250Y-56001107D01*
X101236243Y-56001104D01*
X101236000Y-56000999D01*
X101235763Y-56000920D01*
X101235750Y-56000915D01*
X101206258Y-55991086D01*
X101206000Y-55991000D01*
X101205741Y-55990939D01*
X101205732Y-55990937D01*
X101176272Y-55984063D01*
X101176262Y-55984061D01*
X101176000Y-55984000D01*
X101175722Y-55983962D01*
X101175717Y-55983962D01*
X101162674Y-55982223D01*
X101156153Y-55981353D01*
X101148897Y-55977464D01*
X101146000Y-55969757D01*
X101146000Y-55790243D01*
X101148897Y-55782536D01*
X101156153Y-55778646D01*
X101159069Y-55778257D01*
X101176000Y-55775999D01*
X101206000Y-55768999D01*
X101236000Y-55759000D01*
X101266000Y-55746000D01*
X101266218Y-55745883D01*
X101266232Y-55745877D01*
X101283576Y-55736625D01*
X101291461Y-55732420D01*
X101296081Y-55731078D01*
X101300849Y-55731707D01*
G37*
%TD.AperFunction*%
%TD*%
%TA.AperFunction,Conductor*%
%TO.N,/DUSB-*%
G36*
X102174939Y-56784186D02*
G01*
X102244728Y-56788038D01*
X102246704Y-56788319D01*
X102346472Y-56811346D01*
X102348577Y-56812049D01*
X102432278Y-56849170D01*
X102432987Y-56849512D01*
X102529053Y-56900139D01*
X102654631Y-56958137D01*
X102660615Y-56964482D01*
X102660548Y-56973203D01*
X102552852Y-57235489D01*
X102550310Y-57239311D01*
X102546493Y-57241860D01*
X102285307Y-57349657D01*
X102278754Y-57350354D01*
X102272864Y-57347399D01*
X102269506Y-57341732D01*
X102246860Y-57252820D01*
X102246499Y-57249933D01*
X102246499Y-57220682D01*
X102246499Y-57220102D01*
X102240680Y-57190842D01*
X102240488Y-57189419D01*
X102237026Y-57140434D01*
X102226731Y-57056972D01*
X102211559Y-57034382D01*
X102190153Y-57002509D01*
X102190152Y-57002508D01*
X102188910Y-57000659D01*
X102160851Y-56994203D01*
X102108193Y-56982088D01*
X102101662Y-56977973D01*
X102099116Y-56970686D01*
X102099116Y-56792364D01*
X102100793Y-56786329D01*
X102105342Y-56782023D01*
X102111461Y-56780682D01*
X102174939Y-56784186D01*
G37*
%TD.AperFunction*%
%TD*%
%TA.AperFunction,Conductor*%
%TO.N,Net-(J1-CC1)*%
G36*
X106458073Y-58551141D02*
G01*
X106461767Y-58558877D01*
X106469892Y-58674114D01*
X106469893Y-58674121D01*
X106469936Y-58674727D01*
X106470103Y-58675311D01*
X106470105Y-58675318D01*
X106494727Y-58761049D01*
X106494897Y-58761640D01*
X106495182Y-58762179D01*
X106495184Y-58762182D01*
X106533028Y-58833565D01*
X106533039Y-58833586D01*
X106533105Y-58833709D01*
X106533177Y-58833831D01*
X106533184Y-58833843D01*
X106581527Y-58915466D01*
X106582005Y-58916359D01*
X106632822Y-59022082D01*
X106633926Y-59028237D01*
X106631703Y-59034082D01*
X106626788Y-59037947D01*
X106365511Y-59147115D01*
X106361000Y-59148019D01*
X106356489Y-59147115D01*
X106095210Y-59037947D01*
X106090295Y-59034082D01*
X106088072Y-59028237D01*
X106089175Y-59022086D01*
X106139998Y-58916346D01*
X106140468Y-58915470D01*
X106188893Y-58833709D01*
X106227102Y-58761640D01*
X106252062Y-58674727D01*
X106260232Y-58558877D01*
X106263927Y-58551141D01*
X106271904Y-58548000D01*
X106450096Y-58548000D01*
X106458073Y-58551141D01*
G37*
%TD.AperFunction*%
%TD*%
%TA.AperFunction,Conductor*%
%TO.N,Net-(F1-Pad1)*%
G36*
X102468015Y-55115910D02*
G01*
X102471744Y-55120723D01*
X102581115Y-55382489D01*
X102582019Y-55387000D01*
X102581115Y-55391511D01*
X102471794Y-55653154D01*
X102468031Y-55657993D01*
X102462338Y-55660266D01*
X102456277Y-55659348D01*
X102352008Y-55613360D01*
X102351867Y-55613297D01*
X102269240Y-55575545D01*
X102269226Y-55575539D01*
X102269002Y-55575437D01*
X102257739Y-55571480D01*
X102195809Y-55549722D01*
X102195804Y-55549720D01*
X102195341Y-55549558D01*
X102194853Y-55549475D01*
X102194852Y-55549475D01*
X102108204Y-55534792D01*
X102108203Y-55534791D01*
X102107838Y-55534730D01*
X102107478Y-55534716D01*
X102107466Y-55534715D01*
X102013874Y-55531158D01*
X101994647Y-55530427D01*
X101986663Y-55526851D01*
X101983392Y-55518736D01*
X101983392Y-55241389D01*
X101986708Y-55233228D01*
X101994776Y-55229693D01*
X102107313Y-55226659D01*
X102195046Y-55215172D01*
X102269200Y-55193339D01*
X102352380Y-55158960D01*
X102456348Y-55114476D01*
X102462374Y-55113621D01*
X102468015Y-55115910D01*
G37*
%TD.AperFunction*%
%TD*%
%TA.AperFunction,Conductor*%
%TO.N,/DUSB-*%
G36*
X104524178Y-56039315D02*
G01*
X104528217Y-56044356D01*
X104637115Y-56304989D01*
X104638019Y-56309500D01*
X104637115Y-56314011D01*
X104527705Y-56575868D01*
X104521353Y-56582180D01*
X104512398Y-56582153D01*
X104469260Y-56564129D01*
X104465498Y-56561606D01*
X104456993Y-56553101D01*
X104456992Y-56553100D01*
X104456342Y-56552450D01*
X104455526Y-56552034D01*
X104455523Y-56552032D01*
X104344124Y-56495271D01*
X104344119Y-56495269D01*
X104343304Y-56494854D01*
X104342397Y-56494710D01*
X104342393Y-56494709D01*
X104218909Y-56475152D01*
X104218000Y-56475008D01*
X104217091Y-56475152D01*
X104173473Y-56482059D01*
X104171427Y-56482201D01*
X104085542Y-56480618D01*
X104063506Y-56480211D01*
X104055374Y-56476711D01*
X104052023Y-56468514D01*
X104052023Y-56290326D01*
X104054951Y-56282584D01*
X104062269Y-56278717D01*
X104113545Y-56272295D01*
X104179620Y-56264020D01*
X104262035Y-56222155D01*
X104327705Y-56163567D01*
X104327874Y-56163421D01*
X104404415Y-56097977D01*
X104406367Y-56096627D01*
X104511782Y-56038616D01*
X104518079Y-56037186D01*
X104524178Y-56039315D01*
G37*
%TD.AperFunction*%
%TD*%
M02*
