%TF.GenerationSoftware,KiCad,Pcbnew,(6.0.9)*%
%TF.CreationDate,2022-12-14T22:58:47+01:00*%
%TF.ProjectId,daughterboard,64617567-6874-4657-9262-6f6172642e6b,1.0*%
%TF.SameCoordinates,Original*%
%TF.FileFunction,Copper,L2,Bot*%
%TF.FilePolarity,Positive*%
%FSLAX46Y46*%
G04 Gerber Fmt 4.6, Leading zero omitted, Abs format (unit mm)*
G04 Created by KiCad (PCBNEW (6.0.9)) date 2022-12-14 22:58:47*
%MOMM*%
%LPD*%
G01*
G04 APERTURE LIST*
G04 Aperture macros list*
%AMRotRect*
0 Rectangle, with rotation*
0 The origin of the aperture is its center*
0 $1 length*
0 $2 width*
0 $3 Rotation angle, in degrees counterclockwise*
0 Add horizontal line*
21,1,$1,$2,0,0,$3*%
G04 Aperture macros list end*
%TA.AperFunction,ComponentPad*%
%ADD10C,4.400000*%
%TD*%
%TA.AperFunction,SMDPad,CuDef*%
%ADD11R,0.850000X0.300000*%
%TD*%
%TA.AperFunction,ComponentPad*%
%ADD12C,1.100000*%
%TD*%
%TA.AperFunction,SMDPad,CuDef*%
%ADD13RotRect,1.030000X0.500000X50.000000*%
%TD*%
%TA.AperFunction,SMDPad,CuDef*%
%ADD14RotRect,1.030000X0.500000X130.000000*%
%TD*%
%TA.AperFunction,ViaPad*%
%ADD15C,0.600000*%
%TD*%
%TA.AperFunction,Conductor*%
%ADD16C,0.200000*%
%TD*%
%TA.AperFunction,Conductor*%
%ADD17C,0.300000*%
%TD*%
G04 APERTURE END LIST*
D10*
%TO.P,H2,1,1*%
%TO.N,unconnected-(H2-Pad1)*%
X84508000Y-54060000D03*
%TD*%
%TO.P,H1,1,1*%
%TO.N,Net-(FB2-Pad1)*%
X120539000Y-54029000D03*
%TD*%
D11*
%TO.P,J1,A1,GND*%
%TO.N,GND*%
X103381000Y-59380000D03*
%TO.P,J1,A2*%
%TO.N,N/C*%
X103381000Y-58880000D03*
%TO.P,J1,A3*%
X103381000Y-58380000D03*
%TO.P,J1,A4,VBUS*%
%TO.N,Net-(F1-Pad1)*%
X103381000Y-57880000D03*
%TO.P,J1,A5,CC1*%
%TO.N,Net-(J1-PadA5)*%
X103381000Y-57380000D03*
%TO.P,J1,A6,D+*%
%TO.N,/DUSB+*%
X103381000Y-56880000D03*
%TO.P,J1,A7,D-*%
%TO.N,/DUSB-*%
X103381000Y-56380000D03*
%TO.P,J1,A8,SBU1*%
%TO.N,unconnected-(J1-PadA8)*%
X103381000Y-55880000D03*
%TO.P,J1,A9,VBUS*%
%TO.N,Net-(F1-Pad1)*%
X103381000Y-55380000D03*
%TO.P,J1,A10*%
%TO.N,N/C*%
X103381000Y-54880000D03*
%TO.P,J1,A11*%
X103381000Y-54380000D03*
%TO.P,J1,A12,GND*%
%TO.N,GND*%
X103381000Y-53880000D03*
%TO.P,J1,B1,GND*%
X101721000Y-53880000D03*
%TO.P,J1,B2*%
%TO.N,N/C*%
X101721000Y-54380000D03*
%TO.P,J1,B3*%
X101721000Y-54880000D03*
%TO.P,J1,B4,VBUS*%
%TO.N,Net-(F1-Pad1)*%
X101721000Y-55380000D03*
%TO.P,J1,B5,CC2*%
%TO.N,Net-(J1-PadB5)*%
X101721000Y-55880000D03*
%TO.P,J1,B6,D+*%
%TO.N,/DUSB+*%
X101721000Y-56380000D03*
%TO.P,J1,B7,D-*%
%TO.N,/DUSB-*%
X101721000Y-56880000D03*
%TO.P,J1,B8,SBU2*%
%TO.N,unconnected-(J1-PadB8)*%
X101721000Y-57380000D03*
%TO.P,J1,B9,VBUS*%
%TO.N,Net-(F1-Pad1)*%
X101721000Y-57880000D03*
%TO.P,J1,B10*%
%TO.N,N/C*%
X101721000Y-58380000D03*
%TO.P,J1,B11*%
X101721000Y-58880000D03*
%TO.P,J1,B12,GND*%
%TO.N,GND*%
X101721000Y-59380000D03*
D12*
%TO.P,J1,S1,SHIELD*%
%TO.N,Net-(FB2-Pad1)*%
X104701000Y-59030000D03*
%TO.P,J1,S2*%
%TO.N,N/C*%
X100401000Y-59030000D03*
%TO.P,J1,S3*%
X104701000Y-54230000D03*
%TO.P,J1,S4*%
X100401000Y-54230000D03*
D13*
%TO.P,J1,S5*%
X103686000Y-60510000D03*
D14*
%TO.P,J1,S6*%
X101416000Y-60510000D03*
%TO.P,J1,S7*%
X103686000Y-52750000D03*
D13*
%TO.P,J1,S8*%
X101416000Y-52750000D03*
%TD*%
D15*
%TO.N,GND*%
X107470000Y-56390000D03*
X102548000Y-54460000D03*
X102555000Y-58809000D03*
%TO.N,Net-(F1-Pad1)*%
X102582000Y-55387000D03*
X102550000Y-58060000D03*
%TO.N,/DUSB+*%
X104218000Y-56880500D03*
%TO.N,/DUSB-*%
X104638000Y-56309500D03*
X102550000Y-57240000D03*
%TO.N,Net-(J1-PadA5)*%
X106361000Y-59148000D03*
%TO.N,Net-(J1-PadB5)*%
X98849000Y-54054000D03*
%TD*%
D16*
%TO.N,/DUSB-*%
X102550000Y-57240000D02*
X102190000Y-56880000D01*
X102190000Y-56880000D02*
X101686000Y-56880000D01*
%TO.N,/DUSB+*%
X104218000Y-56880500D02*
X104217500Y-56880000D01*
X103010000Y-56880000D02*
X102510000Y-56380000D01*
X104217500Y-56880000D02*
X103010000Y-56880000D01*
X102510000Y-56380000D02*
X101686000Y-56380000D01*
D17*
%TO.N,Net-(F1-Pad1)*%
X102582000Y-55387000D02*
X102577000Y-55387000D01*
X103416000Y-57880000D02*
X102678000Y-57880000D01*
X102577000Y-55387000D02*
X102570000Y-55380000D01*
X102678000Y-57880000D02*
X101686000Y-57880000D01*
X102570000Y-55380000D02*
X101686000Y-55380000D01*
X103416000Y-55380000D02*
X102570000Y-55380000D01*
D16*
%TO.N,/DUSB-*%
X104638000Y-56309500D02*
X104567500Y-56380000D01*
X104567500Y-56380000D02*
X103416000Y-56380000D01*
%TO.N,Net-(J1-PadA5)*%
X103416000Y-57380000D02*
X105351000Y-57380000D01*
X106361000Y-58390000D02*
X106361000Y-59148000D01*
X105351000Y-57380000D02*
X106361000Y-58390000D01*
%TO.N,Net-(J1-PadB5)*%
X99861000Y-55880000D02*
X98849000Y-54868000D01*
X98849000Y-54868000D02*
X98849000Y-54054000D01*
X101686000Y-55880000D02*
X99861000Y-55880000D01*
%TD*%
%TA.AperFunction,Conductor*%
%TO.N,Net-(J1-PadA5)*%
G36*
X106457968Y-58561427D02*
G01*
X106461388Y-58569298D01*
X106463310Y-58625298D01*
X106469971Y-58681799D01*
X106480574Y-58729770D01*
X106494713Y-58771479D01*
X106511981Y-58809193D01*
X106531970Y-58845182D01*
X106532021Y-58845265D01*
X106532023Y-58845269D01*
X106554274Y-58881713D01*
X106578399Y-58920913D01*
X106578561Y-58921184D01*
X106604054Y-58965225D01*
X106604318Y-58965706D01*
X106627145Y-59009789D01*
X106627906Y-59018710D01*
X106625188Y-59023278D01*
X106369433Y-59289231D01*
X106361229Y-59292819D01*
X106352567Y-59289231D01*
X106096812Y-59023278D01*
X106093547Y-59014939D01*
X106094855Y-59009788D01*
X106117681Y-58965706D01*
X106117945Y-58965225D01*
X106143438Y-58921184D01*
X106143600Y-58920913D01*
X106167725Y-58881713D01*
X106189976Y-58845269D01*
X106189978Y-58845265D01*
X106190029Y-58845182D01*
X106210018Y-58809193D01*
X106227286Y-58771479D01*
X106241425Y-58729770D01*
X106252028Y-58681799D01*
X106258689Y-58625298D01*
X106260612Y-58569298D01*
X106264321Y-58561148D01*
X106272305Y-58558000D01*
X106449695Y-58558000D01*
X106457968Y-58561427D01*
G37*
%TD.AperFunction*%
%TD*%
%TA.AperFunction,Conductor*%
%TO.N,/DUSB-*%
G36*
X104456175Y-56080751D02*
G01*
X104773569Y-56269031D01*
X104778936Y-56276199D01*
X104777422Y-56285452D01*
X104653648Y-56476658D01*
X104582555Y-56586482D01*
X104576913Y-56595197D01*
X104569540Y-56600280D01*
X104564235Y-56600185D01*
X104509793Y-56586482D01*
X104509222Y-56586323D01*
X104484605Y-56578781D01*
X104479759Y-56575867D01*
X104456342Y-56552450D01*
X104343304Y-56494854D01*
X104218000Y-56475008D01*
X104152955Y-56485310D01*
X104150069Y-56485406D01*
X104143304Y-56484793D01*
X104112993Y-56482044D01*
X104112840Y-56482040D01*
X104112826Y-56482039D01*
X104048883Y-56480308D01*
X104040706Y-56476658D01*
X104037500Y-56468612D01*
X104037500Y-56291268D01*
X104040927Y-56282995D01*
X104048760Y-56279576D01*
X104100709Y-56277620D01*
X104153895Y-56270635D01*
X104160260Y-56269031D01*
X104198593Y-56259371D01*
X104198600Y-56259369D01*
X104198976Y-56259274D01*
X104237875Y-56243767D01*
X104272513Y-56224343D01*
X104304811Y-56201231D01*
X104336689Y-56174662D01*
X104336817Y-56174548D01*
X104370062Y-56144872D01*
X104370069Y-56144865D01*
X104406787Y-56112146D01*
X104406967Y-56111989D01*
X104442660Y-56081872D01*
X104451194Y-56079156D01*
X104456175Y-56080751D01*
G37*
%TD.AperFunction*%
%TD*%
%TA.AperFunction,Conductor*%
%TO.N,/DUSB-*%
G36*
X103453605Y-56248273D02*
G01*
X103468195Y-56254883D01*
X103468204Y-56254887D01*
X103468359Y-56254957D01*
X103468505Y-56255013D01*
X103468508Y-56255014D01*
X103488784Y-56262755D01*
X103488793Y-56262758D01*
X103488971Y-56262826D01*
X103508895Y-56268852D01*
X103509115Y-56268901D01*
X103509123Y-56268903D01*
X103517389Y-56270740D01*
X103528810Y-56273279D01*
X103528994Y-56273306D01*
X103529002Y-56273308D01*
X103540111Y-56274967D01*
X103549391Y-56276353D01*
X103571317Y-56278319D01*
X103595263Y-56279422D01*
X103595293Y-56279423D01*
X103595304Y-56279423D01*
X103621888Y-56279906D01*
X103621908Y-56279906D01*
X103651927Y-56280017D01*
X103674294Y-56280006D01*
X103682569Y-56283429D01*
X103686000Y-56291706D01*
X103686000Y-56468294D01*
X103682573Y-56476567D01*
X103674294Y-56479994D01*
X103651927Y-56479982D01*
X103621908Y-56480093D01*
X103621888Y-56480093D01*
X103595304Y-56480576D01*
X103595293Y-56480576D01*
X103595263Y-56480577D01*
X103571317Y-56481680D01*
X103549391Y-56483646D01*
X103540111Y-56485032D01*
X103529002Y-56486691D01*
X103528994Y-56486693D01*
X103528810Y-56486720D01*
X103517389Y-56489259D01*
X103509123Y-56491096D01*
X103509115Y-56491098D01*
X103508895Y-56491147D01*
X103488971Y-56497173D01*
X103488793Y-56497241D01*
X103488784Y-56497244D01*
X103468508Y-56504985D01*
X103468359Y-56505042D01*
X103468220Y-56505105D01*
X103468208Y-56505110D01*
X103453606Y-56511727D01*
X103444656Y-56512020D01*
X103440667Y-56509503D01*
X103314769Y-56388433D01*
X103311181Y-56380229D01*
X103314769Y-56371567D01*
X103440667Y-56250497D01*
X103449006Y-56247232D01*
X103453605Y-56248273D01*
G37*
%TD.AperFunction*%
%TD*%
%TA.AperFunction,Conductor*%
%TO.N,Net-(J1-PadA5)*%
G36*
X103453605Y-57248273D02*
G01*
X103468195Y-57254883D01*
X103468204Y-57254887D01*
X103468359Y-57254957D01*
X103468505Y-57255013D01*
X103468508Y-57255014D01*
X103488784Y-57262755D01*
X103488793Y-57262758D01*
X103488971Y-57262826D01*
X103508895Y-57268852D01*
X103509115Y-57268901D01*
X103509123Y-57268903D01*
X103517389Y-57270740D01*
X103528810Y-57273279D01*
X103528994Y-57273306D01*
X103529002Y-57273308D01*
X103540111Y-57274967D01*
X103549391Y-57276353D01*
X103571317Y-57278319D01*
X103595263Y-57279422D01*
X103595293Y-57279423D01*
X103595304Y-57279423D01*
X103621888Y-57279906D01*
X103621908Y-57279906D01*
X103651927Y-57280017D01*
X103674294Y-57280006D01*
X103682569Y-57283429D01*
X103686000Y-57291706D01*
X103686000Y-57468294D01*
X103682573Y-57476567D01*
X103674294Y-57479994D01*
X103651927Y-57479982D01*
X103621908Y-57480093D01*
X103621888Y-57480093D01*
X103595304Y-57480576D01*
X103595293Y-57480576D01*
X103595263Y-57480577D01*
X103571317Y-57481680D01*
X103549391Y-57483646D01*
X103540111Y-57485032D01*
X103529002Y-57486691D01*
X103528994Y-57486693D01*
X103528810Y-57486720D01*
X103517389Y-57489259D01*
X103509123Y-57491096D01*
X103509115Y-57491098D01*
X103508895Y-57491147D01*
X103488971Y-57497173D01*
X103488793Y-57497241D01*
X103488784Y-57497244D01*
X103468508Y-57504985D01*
X103468359Y-57505042D01*
X103468220Y-57505105D01*
X103468208Y-57505110D01*
X103453606Y-57511727D01*
X103444656Y-57512020D01*
X103440667Y-57509503D01*
X103314769Y-57388433D01*
X103311181Y-57380229D01*
X103314769Y-57371567D01*
X103440667Y-57250497D01*
X103449006Y-57247232D01*
X103453605Y-57248273D01*
G37*
%TD.AperFunction*%
%TD*%
%TA.AperFunction,Conductor*%
%TO.N,Net-(F1-Pad1)*%
G36*
X102713379Y-55117229D02*
G01*
X102753804Y-55135867D01*
X102753844Y-55135886D01*
X102781606Y-55148814D01*
X102796217Y-55155619D01*
X102835010Y-55173049D01*
X102872027Y-55188156D01*
X102872172Y-55188206D01*
X102872180Y-55188209D01*
X102888230Y-55193742D01*
X102909108Y-55200940D01*
X102909309Y-55200994D01*
X102909319Y-55200997D01*
X102927472Y-55205867D01*
X102948099Y-55211400D01*
X102957207Y-55213134D01*
X102990659Y-55219503D01*
X102990671Y-55219505D01*
X102990840Y-55219537D01*
X103039176Y-55225349D01*
X103094948Y-55228837D01*
X103095100Y-55228840D01*
X103095107Y-55228840D01*
X103148509Y-55229795D01*
X103156720Y-55233369D01*
X103160000Y-55241493D01*
X103160000Y-55518518D01*
X103156573Y-55526791D01*
X103148520Y-55530216D01*
X103096612Y-55531193D01*
X103096598Y-55531194D01*
X103096471Y-55531196D01*
X103096322Y-55531206D01*
X103096319Y-55531206D01*
X103042142Y-55534791D01*
X103042137Y-55534791D01*
X103041963Y-55534803D01*
X102994716Y-55540847D01*
X102994509Y-55540889D01*
X102994498Y-55540891D01*
X102974724Y-55544922D01*
X102952971Y-55549355D01*
X102914969Y-55560353D01*
X102878949Y-55573867D01*
X102843154Y-55589925D01*
X102843062Y-55589971D01*
X102843047Y-55589978D01*
X102805824Y-55608552D01*
X102805783Y-55608573D01*
X102765201Y-55629773D01*
X102765199Y-55629775D01*
X102726784Y-55649830D01*
X102717864Y-55650621D01*
X102713474Y-55648093D01*
X102649914Y-55589978D01*
X102582141Y-55528010D01*
X102432048Y-55390775D01*
X102581852Y-55239275D01*
X102591024Y-55230000D01*
X102700161Y-55119628D01*
X102708414Y-55116154D01*
X102713379Y-55117229D01*
G37*
%TD.AperFunction*%
%TD*%
%TA.AperFunction,Conductor*%
%TO.N,Net-(J1-PadB5)*%
G36*
X98857433Y-53912769D02*
G01*
X99113187Y-54178722D01*
X99116452Y-54187061D01*
X99115144Y-54192212D01*
X99092318Y-54236293D01*
X99092054Y-54236774D01*
X99066561Y-54280815D01*
X99066404Y-54281077D01*
X99042274Y-54320286D01*
X99019970Y-54356817D01*
X98999981Y-54392806D01*
X98982713Y-54430520D01*
X98968574Y-54472229D01*
X98957971Y-54520200D01*
X98951310Y-54576701D01*
X98951302Y-54576945D01*
X98949388Y-54632701D01*
X98945680Y-54640852D01*
X98937695Y-54644000D01*
X98760305Y-54644000D01*
X98752032Y-54640573D01*
X98748612Y-54632702D01*
X98746697Y-54576946D01*
X98746697Y-54576945D01*
X98746689Y-54576701D01*
X98740028Y-54520200D01*
X98729425Y-54472229D01*
X98715286Y-54430520D01*
X98698018Y-54392806D01*
X98678029Y-54356817D01*
X98655725Y-54320286D01*
X98631595Y-54281077D01*
X98631438Y-54280815D01*
X98605945Y-54236774D01*
X98605681Y-54236293D01*
X98599612Y-54224572D01*
X98582855Y-54192211D01*
X98582094Y-54183290D01*
X98584812Y-54178722D01*
X98840567Y-53912769D01*
X98848771Y-53909181D01*
X98857433Y-53912769D01*
G37*
%TD.AperFunction*%
%TD*%
%TA.AperFunction,Conductor*%
%TO.N,Net-(J1-PadB5)*%
G36*
X101661332Y-55750496D02*
G01*
X101787231Y-55871567D01*
X101790819Y-55879771D01*
X101787231Y-55888433D01*
X101661333Y-56009503D01*
X101652994Y-56012768D01*
X101648394Y-56011727D01*
X101633791Y-56005110D01*
X101633779Y-56005105D01*
X101633640Y-56005042D01*
X101633491Y-56004985D01*
X101613215Y-55997244D01*
X101613206Y-55997241D01*
X101613028Y-55997173D01*
X101593104Y-55991147D01*
X101592884Y-55991098D01*
X101592876Y-55991096D01*
X101584610Y-55989259D01*
X101573189Y-55986720D01*
X101573005Y-55986693D01*
X101572997Y-55986691D01*
X101561888Y-55985032D01*
X101552608Y-55983646D01*
X101530682Y-55981680D01*
X101506736Y-55980577D01*
X101506706Y-55980576D01*
X101506695Y-55980576D01*
X101480111Y-55980093D01*
X101480091Y-55980093D01*
X101450072Y-55979982D01*
X101427706Y-55979994D01*
X101419431Y-55976572D01*
X101416000Y-55968294D01*
X101416000Y-55791706D01*
X101419427Y-55783433D01*
X101427706Y-55780006D01*
X101450072Y-55780017D01*
X101480091Y-55779906D01*
X101480111Y-55779906D01*
X101506695Y-55779423D01*
X101506706Y-55779423D01*
X101506736Y-55779422D01*
X101530682Y-55778319D01*
X101552608Y-55776353D01*
X101561888Y-55774967D01*
X101572997Y-55773308D01*
X101573005Y-55773306D01*
X101573189Y-55773279D01*
X101584610Y-55770740D01*
X101592876Y-55768903D01*
X101592884Y-55768901D01*
X101593104Y-55768852D01*
X101613028Y-55762826D01*
X101613206Y-55762758D01*
X101613215Y-55762755D01*
X101623572Y-55758801D01*
X101633640Y-55754957D01*
X101648395Y-55748272D01*
X101657343Y-55747979D01*
X101661332Y-55750496D01*
G37*
%TD.AperFunction*%
%TD*%
%TA.AperFunction,Conductor*%
%TO.N,Net-(F1-Pad1)*%
G36*
X102463284Y-55119844D02*
G01*
X102731959Y-55390475D01*
X102582141Y-55528010D01*
X102580622Y-55529405D01*
X102580621Y-55529405D01*
X102451028Y-55648374D01*
X102442616Y-55651444D01*
X102437753Y-55650153D01*
X102396873Y-55629068D01*
X102353988Y-55607258D01*
X102353941Y-55607236D01*
X102353910Y-55607220D01*
X102314637Y-55588426D01*
X102314620Y-55588418D01*
X102314523Y-55588372D01*
X102276644Y-55572313D01*
X102238517Y-55558986D01*
X102198309Y-55548297D01*
X102198082Y-55548255D01*
X102154385Y-55540185D01*
X102154369Y-55540183D01*
X102154187Y-55540149D01*
X102153999Y-55540128D01*
X102153989Y-55540126D01*
X102104502Y-55534468D01*
X102104496Y-55534468D01*
X102104317Y-55534447D01*
X102104142Y-55534437D01*
X102104133Y-55534436D01*
X102046994Y-55531102D01*
X102046975Y-55531101D01*
X102046866Y-55531095D01*
X102029260Y-55530807D01*
X101991508Y-55530188D01*
X101983292Y-55526627D01*
X101980000Y-55518490D01*
X101980000Y-55241523D01*
X101983427Y-55233250D01*
X101991521Y-55229824D01*
X102048141Y-55228957D01*
X102048158Y-55228956D01*
X102048247Y-55228955D01*
X102062713Y-55228168D01*
X102106699Y-55225777D01*
X102106707Y-55225776D01*
X102106842Y-55225769D01*
X102157698Y-55220367D01*
X102165634Y-55219011D01*
X102202511Y-55212708D01*
X102202522Y-55212706D01*
X102202725Y-55212671D01*
X102202938Y-55212619D01*
X102202942Y-55212618D01*
X102243634Y-55202654D01*
X102243635Y-55202654D01*
X102243834Y-55202605D01*
X102244023Y-55202545D01*
X102244032Y-55202542D01*
X102282773Y-55190145D01*
X102282779Y-55190143D01*
X102282938Y-55190092D01*
X102321947Y-55175056D01*
X102362774Y-55157420D01*
X102407329Y-55137107D01*
X102450097Y-55117456D01*
X102459044Y-55117115D01*
X102463284Y-55119844D01*
G37*
%TD.AperFunction*%
%TD*%
%TA.AperFunction,Conductor*%
%TO.N,/DUSB-*%
G36*
X102124540Y-56781745D02*
G01*
X102163487Y-56784419D01*
X102165258Y-56784678D01*
X102200111Y-56792531D01*
X102217462Y-56796440D01*
X102219196Y-56796976D01*
X102262854Y-56814276D01*
X102264237Y-56814931D01*
X102302206Y-56836096D01*
X102303013Y-56836591D01*
X102337924Y-56859940D01*
X102338063Y-56860034D01*
X102372200Y-56883582D01*
X102372214Y-56883591D01*
X102372343Y-56883680D01*
X102408151Y-56905439D01*
X102447993Y-56923360D01*
X102494424Y-56935520D01*
X102494941Y-56935562D01*
X102494943Y-56935562D01*
X102541719Y-56939333D01*
X102549690Y-56943413D01*
X102552099Y-56948038D01*
X102652159Y-57331109D01*
X102650934Y-57339980D01*
X102643796Y-57345386D01*
X102640611Y-57345764D01*
X102275458Y-57338625D01*
X102267254Y-57335037D01*
X102264370Y-57329896D01*
X102254034Y-57290494D01*
X102253761Y-57289127D01*
X102247048Y-57240553D01*
X102246968Y-57239784D01*
X102246529Y-57233630D01*
X102246499Y-57232797D01*
X102246499Y-57220102D01*
X102246387Y-57219538D01*
X102246386Y-57219530D01*
X102245185Y-57213494D01*
X102244990Y-57212044D01*
X102243496Y-57191085D01*
X102243485Y-57190919D01*
X102240798Y-57143796D01*
X102240798Y-57143793D01*
X102240790Y-57143657D01*
X102236357Y-57099660D01*
X102227645Y-57060428D01*
X102212108Y-57027404D01*
X102208845Y-57024079D01*
X102187983Y-57002822D01*
X102187981Y-57002820D01*
X102187205Y-57002030D01*
X102150389Y-56985747D01*
X102149497Y-56985647D01*
X102109514Y-56981165D01*
X102101674Y-56976838D01*
X102099117Y-56969538D01*
X102099117Y-56792531D01*
X102102544Y-56784258D01*
X102111618Y-56780858D01*
X102124540Y-56781745D01*
G37*
%TD.AperFunction*%
%TD*%
%TA.AperFunction,Conductor*%
%TO.N,/DUSB-*%
G36*
X101793651Y-56748383D02*
G01*
X101803719Y-56753069D01*
X101803757Y-56753086D01*
X101803848Y-56753128D01*
X101820171Y-56759936D01*
X101835904Y-56765532D01*
X101851601Y-56770028D01*
X101851786Y-56770068D01*
X101851794Y-56770070D01*
X101858776Y-56771578D01*
X101867814Y-56773531D01*
X101868001Y-56773559D01*
X101867999Y-56773559D01*
X101884943Y-56776129D01*
X101884961Y-56776131D01*
X101885098Y-56776152D01*
X101885240Y-56776166D01*
X101885249Y-56776167D01*
X101892685Y-56776893D01*
X101904005Y-56777999D01*
X101904111Y-56778005D01*
X101904124Y-56778006D01*
X101924997Y-56779179D01*
X101925008Y-56779179D01*
X101925089Y-56779184D01*
X101925184Y-56779187D01*
X101925196Y-56779187D01*
X101948885Y-56779814D01*
X101948903Y-56779814D01*
X101964381Y-56779920D01*
X101972630Y-56783404D01*
X101976000Y-56791620D01*
X101976000Y-56968379D01*
X101972573Y-56976652D01*
X101964380Y-56980079D01*
X101952734Y-56980159D01*
X101948903Y-56980185D01*
X101948885Y-56980185D01*
X101925196Y-56980812D01*
X101925184Y-56980812D01*
X101925089Y-56980815D01*
X101925008Y-56980820D01*
X101924997Y-56980820D01*
X101904124Y-56981993D01*
X101904111Y-56981994D01*
X101904005Y-56982000D01*
X101892685Y-56983106D01*
X101885249Y-56983832D01*
X101885240Y-56983833D01*
X101885098Y-56983847D01*
X101884961Y-56983868D01*
X101884943Y-56983870D01*
X101869636Y-56986192D01*
X101867814Y-56986468D01*
X101858776Y-56988421D01*
X101851794Y-56989929D01*
X101851786Y-56989931D01*
X101851601Y-56989971D01*
X101835904Y-56994467D01*
X101820171Y-57000063D01*
X101803848Y-57006871D01*
X101798322Y-57009443D01*
X101793651Y-57011617D01*
X101784704Y-57012002D01*
X101780604Y-57009443D01*
X101777930Y-57006871D01*
X101654769Y-56888433D01*
X101651181Y-56880229D01*
X101654769Y-56871567D01*
X101737904Y-56791620D01*
X101780605Y-56750557D01*
X101788943Y-56747292D01*
X101793651Y-56748383D01*
G37*
%TD.AperFunction*%
%TD*%
%TA.AperFunction,Conductor*%
%TO.N,/DUSB+*%
G36*
X104093731Y-56616098D02*
G01*
X104359244Y-56872310D01*
X104362818Y-56880520D01*
X104359215Y-56889176D01*
X104092822Y-57144473D01*
X104084478Y-57147723D01*
X104079330Y-57146407D01*
X104035271Y-57123502D01*
X104034793Y-57123239D01*
X103990762Y-57097672D01*
X103990495Y-57097512D01*
X103951300Y-57073336D01*
X103914880Y-57051065D01*
X103914871Y-57051060D01*
X103914770Y-57050998D01*
X103878775Y-57030988D01*
X103878559Y-57030889D01*
X103878549Y-57030884D01*
X103858556Y-57021728D01*
X103841050Y-57013710D01*
X103799326Y-56999568D01*
X103751337Y-56988966D01*
X103738521Y-56987456D01*
X103695057Y-56982336D01*
X103695053Y-56982336D01*
X103694818Y-56982308D01*
X103665071Y-56981288D01*
X103638799Y-56980387D01*
X103630648Y-56976679D01*
X103627500Y-56968694D01*
X103627500Y-56791306D01*
X103630927Y-56783033D01*
X103638800Y-56779613D01*
X103651864Y-56779166D01*
X103694659Y-56777701D01*
X103694668Y-56777700D01*
X103694911Y-56777692D01*
X103695155Y-56777663D01*
X103695159Y-56777663D01*
X103751224Y-56771074D01*
X103751232Y-56771073D01*
X103751510Y-56771040D01*
X103751789Y-56770978D01*
X103751792Y-56770978D01*
X103799255Y-56760521D01*
X103799256Y-56760521D01*
X103799568Y-56760452D01*
X103841359Y-56746333D01*
X103854347Y-56740408D01*
X103878939Y-56729189D01*
X103878947Y-56729185D01*
X103879153Y-56729091D01*
X103915222Y-56709133D01*
X103951840Y-56686865D01*
X103991145Y-56662776D01*
X103991416Y-56662615D01*
X104035583Y-56637158D01*
X104036065Y-56636896D01*
X104080246Y-56614118D01*
X104089169Y-56613372D01*
X104093731Y-56616098D01*
G37*
%TD.AperFunction*%
%TD*%
%TA.AperFunction,Conductor*%
%TO.N,/DUSB+*%
G36*
X101793651Y-56248383D02*
G01*
X101803719Y-56253069D01*
X101803757Y-56253086D01*
X101803848Y-56253128D01*
X101820171Y-56259936D01*
X101835904Y-56265532D01*
X101851601Y-56270028D01*
X101851786Y-56270068D01*
X101851794Y-56270070D01*
X101858776Y-56271578D01*
X101867814Y-56273531D01*
X101868001Y-56273559D01*
X101867999Y-56273559D01*
X101884943Y-56276129D01*
X101884961Y-56276131D01*
X101885098Y-56276152D01*
X101885240Y-56276166D01*
X101885249Y-56276167D01*
X101892685Y-56276893D01*
X101904005Y-56277999D01*
X101904111Y-56278005D01*
X101904124Y-56278006D01*
X101924997Y-56279179D01*
X101925008Y-56279179D01*
X101925089Y-56279184D01*
X101925184Y-56279187D01*
X101925196Y-56279187D01*
X101948885Y-56279814D01*
X101948903Y-56279814D01*
X101964381Y-56279920D01*
X101972630Y-56283404D01*
X101976000Y-56291620D01*
X101976000Y-56468379D01*
X101972573Y-56476652D01*
X101964380Y-56480079D01*
X101952734Y-56480159D01*
X101948903Y-56480185D01*
X101948885Y-56480185D01*
X101925196Y-56480812D01*
X101925184Y-56480812D01*
X101925089Y-56480815D01*
X101925008Y-56480820D01*
X101924997Y-56480820D01*
X101904124Y-56481993D01*
X101904111Y-56481994D01*
X101904005Y-56482000D01*
X101892685Y-56483106D01*
X101885249Y-56483832D01*
X101885240Y-56483833D01*
X101885098Y-56483847D01*
X101884961Y-56483868D01*
X101884943Y-56483870D01*
X101869636Y-56486192D01*
X101867814Y-56486468D01*
X101858776Y-56488421D01*
X101851794Y-56489929D01*
X101851786Y-56489931D01*
X101851601Y-56489971D01*
X101835904Y-56494467D01*
X101820171Y-56500063D01*
X101803848Y-56506871D01*
X101798322Y-56509443D01*
X101793651Y-56511617D01*
X101784704Y-56512002D01*
X101780604Y-56509443D01*
X101777930Y-56506871D01*
X101654769Y-56388433D01*
X101651181Y-56380229D01*
X101654769Y-56371567D01*
X101737904Y-56291620D01*
X101780605Y-56250557D01*
X101788943Y-56247292D01*
X101793651Y-56248383D01*
G37*
%TD.AperFunction*%
%TD*%
%TA.AperFunction,Conductor*%
%TO.N,Net-(F1-Pad1)*%
G36*
X103094481Y-57733466D02*
G01*
X103098000Y-57741830D01*
X103098000Y-58018707D01*
X103094573Y-58026980D01*
X103086715Y-58030400D01*
X103059132Y-58031379D01*
X103051473Y-58031651D01*
X103051228Y-58031681D01*
X103051216Y-58031682D01*
X103014139Y-58036235D01*
X103010872Y-58036636D01*
X103010553Y-58036711D01*
X103010555Y-58036711D01*
X102975863Y-58044908D01*
X102975858Y-58044910D01*
X102975488Y-58044997D01*
X102975133Y-58045132D01*
X102975128Y-58045134D01*
X102953890Y-58053238D01*
X102944615Y-58056777D01*
X102917542Y-58072020D01*
X102893564Y-58090769D01*
X102871971Y-58113068D01*
X102852056Y-58138961D01*
X102833110Y-58168490D01*
X102833029Y-58168634D01*
X102818336Y-58194750D01*
X102811293Y-58200280D01*
X102806529Y-58200602D01*
X102539264Y-58163479D01*
X102539263Y-58163479D01*
X102539091Y-58163455D01*
X102539086Y-58163455D01*
X102428605Y-58148109D01*
X102550000Y-57760000D01*
X102550078Y-57759999D01*
X102550094Y-57759999D01*
X102578607Y-57759608D01*
X102611280Y-57759160D01*
X102611392Y-57759155D01*
X102611401Y-57759155D01*
X102664830Y-57756885D01*
X102664833Y-57756885D01*
X102664947Y-57756880D01*
X102665025Y-57756875D01*
X102665036Y-57756874D01*
X102694797Y-57754806D01*
X102713316Y-57753520D01*
X102758702Y-57749440D01*
X102803419Y-57745000D01*
X102849755Y-57740563D01*
X102849807Y-57740558D01*
X102900043Y-57736484D01*
X102900220Y-57736472D01*
X102950879Y-57733466D01*
X102956542Y-57733130D01*
X102956826Y-57733116D01*
X102973470Y-57732534D01*
X103021799Y-57730844D01*
X103022034Y-57730839D01*
X103046034Y-57730574D01*
X103086171Y-57730131D01*
X103094481Y-57733466D01*
G37*
%TD.AperFunction*%
%TD*%
%TA.AperFunction,Conductor*%
%TO.N,Net-(F1-Pad1)*%
G36*
X102119234Y-57730409D02*
G01*
X102152019Y-57730838D01*
X102152351Y-57730847D01*
X102177085Y-57731873D01*
X102207013Y-57733114D01*
X102207316Y-57733131D01*
X102254734Y-57736470D01*
X102255032Y-57736495D01*
X102297185Y-57740550D01*
X102297386Y-57740571D01*
X102336313Y-57744995D01*
X102336361Y-57745000D01*
X102373996Y-57749435D01*
X102374026Y-57749438D01*
X102374042Y-57749440D01*
X102412290Y-57753519D01*
X102412395Y-57753528D01*
X102412409Y-57753529D01*
X102431577Y-57755109D01*
X102453062Y-57756880D01*
X102453165Y-57756885D01*
X102453191Y-57756887D01*
X102498188Y-57759154D01*
X102498203Y-57759154D01*
X102498313Y-57759160D01*
X102550000Y-57760000D01*
X102650344Y-58171494D01*
X102539097Y-58163456D01*
X102539091Y-58163455D01*
X102269567Y-58143981D01*
X102261562Y-58139966D01*
X102259334Y-58136080D01*
X102254260Y-58121168D01*
X102254259Y-58121164D01*
X102254157Y-58120866D01*
X102244851Y-58101001D01*
X102240691Y-58094556D01*
X102233967Y-58084137D01*
X102233964Y-58084133D01*
X102233718Y-58083752D01*
X102220559Y-58069045D01*
X102205176Y-58056804D01*
X102187373Y-58046956D01*
X102174198Y-58042098D01*
X102167308Y-58039557D01*
X102167304Y-58039556D01*
X102166952Y-58039426D01*
X102166583Y-58039342D01*
X102144028Y-58034210D01*
X102144020Y-58034209D01*
X102143714Y-58034139D01*
X102117462Y-58031022D01*
X102099295Y-58030392D01*
X102091145Y-58026680D01*
X102088000Y-58018699D01*
X102088000Y-57741854D01*
X102091427Y-57733581D01*
X102099853Y-57730155D01*
X102119234Y-57730409D01*
G37*
%TD.AperFunction*%
%TD*%
%TA.AperFunction,Conductor*%
%TO.N,GND*%
G36*
X120445637Y-51246747D02*
G01*
X120447961Y-51247281D01*
X120457264Y-51249421D01*
X120457266Y-51249421D01*
X120462641Y-51250657D01*
X120468023Y-51249439D01*
X120468024Y-51249439D01*
X120474265Y-51248027D01*
X120487826Y-51246895D01*
X120628000Y-51254767D01*
X120773696Y-51262950D01*
X120779156Y-51263565D01*
X121083237Y-51315230D01*
X121088594Y-51316453D01*
X121311007Y-51380529D01*
X121384972Y-51401838D01*
X121384975Y-51401839D01*
X121390158Y-51403653D01*
X121675117Y-51521687D01*
X121680060Y-51524067D01*
X121815041Y-51598668D01*
X121950017Y-51673267D01*
X121954670Y-51676191D01*
X122206215Y-51854672D01*
X122210511Y-51858098D01*
X122440493Y-52063623D01*
X122444378Y-52067508D01*
X122649903Y-52297489D01*
X122653329Y-52301785D01*
X122831813Y-52553334D01*
X122834732Y-52557980D01*
X122977832Y-52816899D01*
X122983932Y-52827937D01*
X122986314Y-52832884D01*
X123086014Y-53073581D01*
X123104347Y-53117840D01*
X123106161Y-53123024D01*
X123112499Y-53145023D01*
X123191547Y-53419407D01*
X123192770Y-53424764D01*
X123244435Y-53728845D01*
X123245050Y-53734305D01*
X123261081Y-54019747D01*
X123259911Y-54033478D01*
X123258580Y-54039264D01*
X123258580Y-54039267D01*
X123257344Y-54044642D01*
X123261168Y-54061542D01*
X123261292Y-54062088D01*
X123262500Y-54072903D01*
X123262500Y-61016657D01*
X123261254Y-61027637D01*
X123257344Y-61044641D01*
X123258562Y-61050023D01*
X123258562Y-61050024D01*
X123259974Y-61056265D01*
X123261106Y-61069829D01*
X123245051Y-61355696D01*
X123244436Y-61361156D01*
X123192771Y-61665237D01*
X123191548Y-61670594D01*
X123106162Y-61966975D01*
X123104348Y-61972158D01*
X123077666Y-62036576D01*
X122986316Y-62257114D01*
X122983932Y-62262065D01*
X122834734Y-62532017D01*
X122831816Y-62536662D01*
X122653323Y-62788225D01*
X122649903Y-62792512D01*
X122444378Y-63022493D01*
X122440493Y-63026378D01*
X122210512Y-63231903D01*
X122206225Y-63235323D01*
X121954668Y-63413812D01*
X121950017Y-63416734D01*
X121815041Y-63491333D01*
X121680063Y-63565933D01*
X121675118Y-63568314D01*
X121390161Y-63686347D01*
X121384977Y-63688161D01*
X121311007Y-63709472D01*
X121088594Y-63773548D01*
X121083237Y-63774771D01*
X120779156Y-63826436D01*
X120773696Y-63827051D01*
X120542871Y-63840015D01*
X120488254Y-63843082D01*
X120474526Y-63841912D01*
X120463359Y-63839344D01*
X120445910Y-63843292D01*
X120435098Y-63844500D01*
X84491344Y-63844500D01*
X84480363Y-63843254D01*
X84479616Y-63843082D01*
X84478040Y-63842720D01*
X84468737Y-63840580D01*
X84468735Y-63840580D01*
X84463360Y-63839344D01*
X84457978Y-63840562D01*
X84457977Y-63840562D01*
X84451736Y-63841974D01*
X84438175Y-63843106D01*
X84298001Y-63835234D01*
X84152305Y-63827051D01*
X84146845Y-63826436D01*
X83842763Y-63774771D01*
X83837406Y-63773548D01*
X83541025Y-63688163D01*
X83535839Y-63686348D01*
X83535837Y-63686347D01*
X83250883Y-63568315D01*
X83245940Y-63565935D01*
X83110960Y-63491334D01*
X82975984Y-63416735D01*
X82971339Y-63413817D01*
X82719776Y-63235324D01*
X82715489Y-63231904D01*
X82485507Y-63026379D01*
X82481622Y-63022494D01*
X82276097Y-62792512D01*
X82272677Y-62788225D01*
X82094184Y-62536662D01*
X82091266Y-62532017D01*
X81942068Y-62262065D01*
X81939684Y-62257114D01*
X81848335Y-62036576D01*
X81821652Y-61972158D01*
X81819838Y-61966975D01*
X81734452Y-61670594D01*
X81733229Y-61665237D01*
X81681564Y-61361156D01*
X81680949Y-61355695D01*
X81664931Y-61070472D01*
X81666119Y-61056663D01*
X81667301Y-61051565D01*
X81668656Y-61045718D01*
X81668657Y-61045000D01*
X81664728Y-61027776D01*
X81663501Y-61016878D01*
X81663501Y-54073344D01*
X81664747Y-54062363D01*
X81665290Y-54060000D01*
X82102754Y-54060000D01*
X82121720Y-54361457D01*
X82178319Y-54658160D01*
X82271659Y-54945430D01*
X82272307Y-54946808D01*
X82272309Y-54946812D01*
X82386294Y-55189041D01*
X82400267Y-55218736D01*
X82562115Y-55473768D01*
X82754651Y-55706504D01*
X82755770Y-55707554D01*
X82755772Y-55707557D01*
X82833824Y-55780853D01*
X82974838Y-55913274D01*
X83219205Y-56090816D01*
X83220556Y-56091559D01*
X83220558Y-56091560D01*
X83263823Y-56115345D01*
X83483896Y-56236332D01*
X83662194Y-56306925D01*
X83687401Y-56316905D01*
X83764738Y-56347525D01*
X84057302Y-56422642D01*
X84058819Y-56422834D01*
X84058821Y-56422834D01*
X84110068Y-56429308D01*
X84356973Y-56460500D01*
X84659027Y-56460500D01*
X84905932Y-56429308D01*
X84957179Y-56422834D01*
X84957181Y-56422834D01*
X84958698Y-56422642D01*
X85251262Y-56347525D01*
X85328600Y-56316905D01*
X85353806Y-56306925D01*
X85532104Y-56236332D01*
X85752177Y-56115345D01*
X85795442Y-56091560D01*
X85795444Y-56091559D01*
X85796795Y-56090816D01*
X86041162Y-55913274D01*
X86182176Y-55780853D01*
X86260228Y-55707557D01*
X86260230Y-55707554D01*
X86261349Y-55706504D01*
X86453885Y-55473768D01*
X86615733Y-55218736D01*
X86629706Y-55189041D01*
X86743691Y-54946812D01*
X86743693Y-54946808D01*
X86744341Y-54945430D01*
X86837681Y-54658160D01*
X86894280Y-54361457D01*
X86913246Y-54060000D01*
X86912480Y-54047823D01*
X98343391Y-54047823D01*
X98343843Y-54051280D01*
X98343843Y-54051283D01*
X98356983Y-54151769D01*
X98361980Y-54189979D01*
X98363386Y-54193174D01*
X98391060Y-54256068D01*
X98393282Y-54262194D01*
X98400368Y-54286704D01*
X98423194Y-54330786D01*
X98425532Y-54335169D01*
X98425796Y-54335650D01*
X98428092Y-54339724D01*
X98453585Y-54383765D01*
X98455164Y-54386445D01*
X98455237Y-54386566D01*
X98455246Y-54386582D01*
X98455321Y-54386707D01*
X98456553Y-54388736D01*
X98456582Y-54388784D01*
X98480605Y-54427819D01*
X98480695Y-54427967D01*
X98499894Y-54459412D01*
X98500909Y-54461154D01*
X98513570Y-54483950D01*
X98515286Y-54487343D01*
X98523002Y-54504195D01*
X98524856Y-54508862D01*
X98530335Y-54525024D01*
X98531773Y-54530174D01*
X98536619Y-54552101D01*
X98537435Y-54556928D01*
X98541365Y-54590269D01*
X98541673Y-54594320D01*
X98543233Y-54639754D01*
X98543742Y-54642007D01*
X98547296Y-54657745D01*
X98548500Y-54668539D01*
X98548500Y-54812374D01*
X98547999Y-54819195D01*
X98546575Y-54823342D01*
X98546937Y-54832983D01*
X98548466Y-54873720D01*
X98548500Y-54875558D01*
X98548500Y-54895948D01*
X98548914Y-54898169D01*
X98549049Y-54899638D01*
X98549637Y-54904926D01*
X98550774Y-54935208D01*
X98552561Y-54939367D01*
X98552561Y-54939368D01*
X98557513Y-54950894D01*
X98560664Y-54961264D01*
X98562305Y-54970072D01*
X98563791Y-54978053D01*
X98566163Y-54981902D01*
X98566165Y-54981906D01*
X98579691Y-55003849D01*
X98583000Y-55010217D01*
X98594964Y-55038063D01*
X98598978Y-55042949D01*
X98607476Y-55051447D01*
X98614540Y-55060383D01*
X98620157Y-55069496D01*
X98620159Y-55069498D01*
X98622532Y-55073348D01*
X98626134Y-55076087D01*
X98626135Y-55076088D01*
X98648460Y-55093064D01*
X98653449Y-55097420D01*
X99609179Y-56053150D01*
X99613648Y-56058327D01*
X99615575Y-56062269D01*
X99618891Y-56065345D01*
X99652541Y-56096560D01*
X99653865Y-56097836D01*
X99668277Y-56112248D01*
X99670134Y-56113522D01*
X99671271Y-56114467D01*
X99675427Y-56117790D01*
X99697646Y-56138401D01*
X99701841Y-56140075D01*
X99701848Y-56140079D01*
X99713509Y-56144731D01*
X99723067Y-56149834D01*
X99737146Y-56159492D01*
X99741548Y-56160537D01*
X99741549Y-56160537D01*
X99750837Y-56162741D01*
X99766631Y-56166489D01*
X99773473Y-56168653D01*
X99798403Y-56178599D01*
X99798405Y-56178599D01*
X99801622Y-56179883D01*
X99805067Y-56180221D01*
X99805068Y-56180221D01*
X99806729Y-56180384D01*
X99806735Y-56180384D01*
X99807915Y-56180500D01*
X99819936Y-56180500D01*
X99831250Y-56181824D01*
X99841662Y-56184295D01*
X99841663Y-56184295D01*
X99846066Y-56185340D01*
X99878338Y-56180948D01*
X99884946Y-56180500D01*
X101046500Y-56180500D01*
X101081148Y-56194852D01*
X101095500Y-56229500D01*
X101095500Y-56549748D01*
X101107133Y-56608231D01*
X101109403Y-56611628D01*
X101109403Y-56648372D01*
X101107133Y-56651769D01*
X101095500Y-56710252D01*
X101095500Y-57049748D01*
X101107133Y-57108231D01*
X101109403Y-57111628D01*
X101109403Y-57148372D01*
X101107133Y-57151769D01*
X101095500Y-57210252D01*
X101095500Y-57549748D01*
X101107133Y-57608231D01*
X101109403Y-57611628D01*
X101109403Y-57648372D01*
X101107133Y-57651769D01*
X101095500Y-57710252D01*
X101095500Y-58049748D01*
X101107133Y-58108231D01*
X101109403Y-58111628D01*
X101109403Y-58148372D01*
X101107133Y-58151769D01*
X101095500Y-58210252D01*
X101095500Y-58549748D01*
X101095674Y-58550620D01*
X101084903Y-58586135D01*
X101051830Y-58603817D01*
X101015941Y-58592933D01*
X101005469Y-58581019D01*
X100994337Y-58563204D01*
X100994336Y-58563203D01*
X100992884Y-58560879D01*
X100990953Y-58558934D01*
X100876174Y-58443351D01*
X100876171Y-58443349D01*
X100874242Y-58441406D01*
X100732079Y-58351187D01*
X100573462Y-58294706D01*
X100570741Y-58294382D01*
X100570739Y-58294381D01*
X100486970Y-58284392D01*
X100406273Y-58274769D01*
X100403552Y-58275055D01*
X100403549Y-58275055D01*
X100322547Y-58283569D01*
X100238821Y-58292369D01*
X100236228Y-58293252D01*
X100236227Y-58293252D01*
X100225993Y-58296736D01*
X100079431Y-58346630D01*
X99936022Y-58434856D01*
X99934067Y-58436770D01*
X99934065Y-58436772D01*
X99817680Y-58550745D01*
X99817678Y-58550748D01*
X99815724Y-58552661D01*
X99814242Y-58554961D01*
X99814241Y-58554962D01*
X99786563Y-58597910D01*
X99724515Y-58694190D01*
X99666927Y-58852409D01*
X99645825Y-59019455D01*
X99646092Y-59022178D01*
X99646092Y-59022179D01*
X99659823Y-59162216D01*
X99662255Y-59187025D01*
X99715402Y-59346791D01*
X99802624Y-59490812D01*
X99804524Y-59492780D01*
X99804526Y-59492782D01*
X99826431Y-59515465D01*
X99919586Y-59611929D01*
X100060475Y-59704125D01*
X100099505Y-59718640D01*
X100215725Y-59761862D01*
X100215729Y-59761863D01*
X100218289Y-59762815D01*
X100220998Y-59763176D01*
X100221000Y-59763177D01*
X100298071Y-59773460D01*
X100385183Y-59785083D01*
X100387908Y-59784835D01*
X100387910Y-59784835D01*
X100550132Y-59770072D01*
X100550135Y-59770071D01*
X100552864Y-59769823D01*
X100712997Y-59717793D01*
X100857623Y-59631578D01*
X100880036Y-59610235D01*
X100959610Y-59534457D01*
X100979554Y-59515465D01*
X100981070Y-59513184D01*
X100981072Y-59513181D01*
X101006187Y-59475379D01*
X101037315Y-59454462D01*
X101074116Y-59461682D01*
X101095033Y-59492810D01*
X101096000Y-59502495D01*
X101096000Y-59547295D01*
X101096468Y-59552052D01*
X101106663Y-59603303D01*
X101110285Y-59612049D01*
X101149128Y-59670181D01*
X101155819Y-59676872D01*
X101183535Y-59695391D01*
X101204370Y-59726573D01*
X101197054Y-59763356D01*
X101179880Y-59779093D01*
X101168962Y-59785083D01*
X101162724Y-59788505D01*
X100749447Y-60135286D01*
X100747939Y-60137165D01*
X100721009Y-60170718D01*
X100712123Y-60181789D01*
X100710774Y-60186417D01*
X100710773Y-60186419D01*
X100691154Y-60253734D01*
X100689804Y-60258367D01*
X100690329Y-60263163D01*
X100690329Y-60263165D01*
X100695583Y-60311141D01*
X100698487Y-60337657D01*
X100717304Y-60371956D01*
X100725967Y-60387745D01*
X100727168Y-60389935D01*
X100728710Y-60391773D01*
X100728713Y-60391777D01*
X101282533Y-61051795D01*
X101414626Y-61209217D01*
X101461130Y-61246540D01*
X101465762Y-61247890D01*
X101533074Y-61267509D01*
X101533076Y-61267509D01*
X101537707Y-61268859D01*
X101542503Y-61268334D01*
X101542505Y-61268334D01*
X101599217Y-61262123D01*
X101616997Y-61260176D01*
X101639392Y-61247890D01*
X101667162Y-61232655D01*
X101667164Y-61232654D01*
X101669276Y-61231495D01*
X102082553Y-60884714D01*
X102084063Y-60882833D01*
X102085677Y-60881183D01*
X102120167Y-60866454D01*
X102154970Y-60880426D01*
X102159573Y-60885618D01*
X102201171Y-60939829D01*
X102303634Y-61018451D01*
X102306597Y-61019678D01*
X102306600Y-61019680D01*
X102419988Y-61066647D01*
X102419992Y-61066648D01*
X102422954Y-61067875D01*
X102426135Y-61068294D01*
X102426136Y-61068294D01*
X102547817Y-61084314D01*
X102551000Y-61084733D01*
X102679046Y-61067875D01*
X102798367Y-61018451D01*
X102900829Y-60939829D01*
X102942425Y-60885621D01*
X102974903Y-60866870D01*
X103011128Y-60876577D01*
X103016323Y-60881183D01*
X103017937Y-60882833D01*
X103019447Y-60884714D01*
X103432724Y-61231495D01*
X103434836Y-61232654D01*
X103434838Y-61232655D01*
X103462608Y-61247890D01*
X103485003Y-61260176D01*
X103502783Y-61262123D01*
X103559495Y-61268334D01*
X103559497Y-61268334D01*
X103564293Y-61268859D01*
X103568924Y-61267509D01*
X103568926Y-61267509D01*
X103636238Y-61247890D01*
X103640870Y-61246540D01*
X103687374Y-61209217D01*
X103819467Y-61051795D01*
X104373287Y-60391777D01*
X104373290Y-60391773D01*
X104374832Y-60389935D01*
X104376034Y-60387745D01*
X104384696Y-60371956D01*
X104403513Y-60337657D01*
X104406417Y-60311141D01*
X104411671Y-60263165D01*
X104411671Y-60263163D01*
X104412196Y-60258367D01*
X104410846Y-60253734D01*
X104391227Y-60186419D01*
X104391226Y-60186417D01*
X104389877Y-60181789D01*
X104380992Y-60170718D01*
X104354061Y-60137165D01*
X104352553Y-60135286D01*
X103939276Y-59788505D01*
X103933039Y-59785083D01*
X103922120Y-59779093D01*
X103898646Y-59749845D01*
X103902728Y-59712565D01*
X103918465Y-59695391D01*
X103946181Y-59676872D01*
X103952872Y-59670181D01*
X103991715Y-59612049D01*
X103995337Y-59603303D01*
X104005532Y-59552052D01*
X104006000Y-59547295D01*
X104006000Y-59506765D01*
X104020352Y-59472117D01*
X104055000Y-59457765D01*
X104089648Y-59472117D01*
X104096913Y-59481382D01*
X104102624Y-59490812D01*
X104104524Y-59492780D01*
X104104526Y-59492782D01*
X104126431Y-59515465D01*
X104219586Y-59611929D01*
X104360475Y-59704125D01*
X104399505Y-59718640D01*
X104515725Y-59761862D01*
X104515729Y-59761863D01*
X104518289Y-59762815D01*
X104520998Y-59763176D01*
X104521000Y-59763177D01*
X104598071Y-59773460D01*
X104685183Y-59785083D01*
X104687908Y-59784835D01*
X104687910Y-59784835D01*
X104850132Y-59770072D01*
X104850135Y-59770071D01*
X104852864Y-59769823D01*
X105012997Y-59717793D01*
X105157623Y-59631578D01*
X105180036Y-59610235D01*
X105259610Y-59534457D01*
X105279554Y-59515465D01*
X105281070Y-59513184D01*
X105281072Y-59513181D01*
X105371216Y-59377503D01*
X105372731Y-59375223D01*
X105432521Y-59217823D01*
X105455955Y-59051088D01*
X105456008Y-59047338D01*
X105456227Y-59031545D01*
X105456249Y-59030000D01*
X105443642Y-58917604D01*
X105437787Y-58865400D01*
X105437786Y-58865396D01*
X105437481Y-58862676D01*
X105436580Y-58860089D01*
X105436579Y-58860084D01*
X105383009Y-58706254D01*
X105383007Y-58706251D01*
X105382108Y-58703668D01*
X105380659Y-58701349D01*
X105380657Y-58701345D01*
X105294337Y-58563204D01*
X105294336Y-58563203D01*
X105292884Y-58560879D01*
X105290953Y-58558934D01*
X105176174Y-58443351D01*
X105176171Y-58443349D01*
X105174242Y-58441406D01*
X105032079Y-58351187D01*
X104873462Y-58294706D01*
X104870741Y-58294382D01*
X104870739Y-58294381D01*
X104786970Y-58284392D01*
X104706273Y-58274769D01*
X104703552Y-58275055D01*
X104703549Y-58275055D01*
X104622547Y-58283569D01*
X104538821Y-58292369D01*
X104536228Y-58293252D01*
X104536227Y-58293252D01*
X104525993Y-58296736D01*
X104379431Y-58346630D01*
X104236022Y-58434856D01*
X104234067Y-58436770D01*
X104234065Y-58436772D01*
X104117680Y-58550745D01*
X104117678Y-58550748D01*
X104115724Y-58552661D01*
X104114241Y-58554962D01*
X104114238Y-58554966D01*
X104096001Y-58583265D01*
X104065169Y-58604615D01*
X104028270Y-58597910D01*
X104006920Y-58567078D01*
X104006053Y-58551994D01*
X104006500Y-58549748D01*
X104006500Y-58210252D01*
X103994867Y-58151769D01*
X103992597Y-58148372D01*
X103992597Y-58111628D01*
X103994867Y-58108231D01*
X104006500Y-58049748D01*
X104006500Y-57729500D01*
X104020852Y-57694852D01*
X104055500Y-57680500D01*
X105206233Y-57680500D01*
X105240881Y-57694852D01*
X106046029Y-58500000D01*
X106060381Y-58534648D01*
X106059083Y-58545851D01*
X106056206Y-58558101D01*
X106055233Y-58562245D01*
X106053806Y-58603817D01*
X106053673Y-58607677D01*
X106053365Y-58611731D01*
X106051212Y-58630000D01*
X106049435Y-58645071D01*
X106048619Y-58649898D01*
X106048206Y-58651769D01*
X106043774Y-58671820D01*
X106042335Y-58676975D01*
X106036856Y-58693137D01*
X106035002Y-58697804D01*
X106027286Y-58714656D01*
X106025571Y-58718047D01*
X106012917Y-58740832D01*
X106011911Y-58742560D01*
X105992557Y-58774258D01*
X105968588Y-58813205D01*
X105967213Y-58815471D01*
X105967051Y-58815742D01*
X105965585Y-58818234D01*
X105940092Y-58862275D01*
X105937796Y-58866349D01*
X105937532Y-58866830D01*
X105935194Y-58871213D01*
X105912368Y-58915295D01*
X105895676Y-58959210D01*
X105895329Y-58960577D01*
X105894909Y-58961907D01*
X105894736Y-58961852D01*
X105892514Y-58968072D01*
X105877447Y-59000163D01*
X105872561Y-59031545D01*
X105855927Y-59138377D01*
X105855927Y-59138381D01*
X105855391Y-59141823D01*
X105855843Y-59145280D01*
X105855843Y-59145283D01*
X105873394Y-59279500D01*
X105873980Y-59283979D01*
X105931720Y-59415203D01*
X105933966Y-59417875D01*
X106015999Y-59515465D01*
X106023970Y-59524948D01*
X106143313Y-59604390D01*
X106146645Y-59605431D01*
X106167864Y-59612060D01*
X106280157Y-59647142D01*
X106283647Y-59647206D01*
X106303558Y-59647571D01*
X106423499Y-59649770D01*
X106561817Y-59612060D01*
X106564788Y-59610236D01*
X106564790Y-59610235D01*
X106681018Y-59538871D01*
X106681021Y-59538869D01*
X106683991Y-59537045D01*
X106693188Y-59526885D01*
X106777855Y-59433345D01*
X106777856Y-59433344D01*
X106780200Y-59430754D01*
X106787735Y-59415203D01*
X106841189Y-59304872D01*
X106842710Y-59301733D01*
X106845160Y-59287174D01*
X106866183Y-59162216D01*
X106866183Y-59162213D01*
X106866496Y-59160354D01*
X106866647Y-59148000D01*
X106846323Y-59006082D01*
X106842197Y-58997007D01*
X106819117Y-58946242D01*
X106816651Y-58939573D01*
X106810299Y-58917604D01*
X106810299Y-58917603D01*
X106809631Y-58915294D01*
X106786804Y-58871211D01*
X106784467Y-58866830D01*
X106784203Y-58866349D01*
X106781907Y-58862275D01*
X106756414Y-58818234D01*
X106754948Y-58815742D01*
X106754786Y-58815471D01*
X106753411Y-58813205D01*
X106729442Y-58774258D01*
X106710088Y-58742560D01*
X106709082Y-58740832D01*
X106696428Y-58718047D01*
X106694713Y-58714656D01*
X106686997Y-58697804D01*
X106685143Y-58693137D01*
X106679664Y-58676975D01*
X106678225Y-58671820D01*
X106673793Y-58651769D01*
X106673380Y-58649898D01*
X106672564Y-58645071D01*
X106670788Y-58630000D01*
X106668634Y-58611731D01*
X106668326Y-58607676D01*
X106668183Y-58603499D01*
X106666767Y-58562249D01*
X106662704Y-58544257D01*
X106661500Y-58533463D01*
X106661500Y-58445629D01*
X106662001Y-58438808D01*
X106663426Y-58434658D01*
X106661534Y-58384264D01*
X106661500Y-58382427D01*
X106661500Y-58362052D01*
X106661087Y-58359832D01*
X106660948Y-58358331D01*
X106660363Y-58353076D01*
X106659396Y-58327311D01*
X106659396Y-58327309D01*
X106659226Y-58322792D01*
X106657442Y-58318639D01*
X106657441Y-58318636D01*
X106652487Y-58307106D01*
X106649336Y-58296736D01*
X106647037Y-58284392D01*
X106647037Y-58284391D01*
X106646209Y-58279947D01*
X106643837Y-58276098D01*
X106643835Y-58276094D01*
X106630309Y-58254151D01*
X106627000Y-58247783D01*
X106616399Y-58223109D01*
X106616398Y-58223108D01*
X106615036Y-58219937D01*
X106611023Y-58215051D01*
X106602522Y-58206550D01*
X106595458Y-58197614D01*
X106589842Y-58188504D01*
X106587468Y-58184652D01*
X106561538Y-58164935D01*
X106556550Y-58160579D01*
X105602821Y-57206850D01*
X105598352Y-57201673D01*
X105596425Y-57197731D01*
X105559459Y-57163440D01*
X105558135Y-57162164D01*
X105543723Y-57147752D01*
X105541866Y-57146478D01*
X105540729Y-57145533D01*
X105536572Y-57142209D01*
X105517668Y-57124673D01*
X105514354Y-57121599D01*
X105510159Y-57119925D01*
X105510152Y-57119921D01*
X105498491Y-57115269D01*
X105488931Y-57110165D01*
X105479207Y-57103494D01*
X105474854Y-57100508D01*
X105470452Y-57099463D01*
X105470451Y-57099463D01*
X105461163Y-57097259D01*
X105445369Y-57093511D01*
X105438527Y-57091347D01*
X105413597Y-57081401D01*
X105413595Y-57081401D01*
X105410378Y-57080117D01*
X105406933Y-57079779D01*
X105406932Y-57079779D01*
X105405271Y-57079616D01*
X105405265Y-57079616D01*
X105404085Y-57079500D01*
X105392064Y-57079500D01*
X105380750Y-57078176D01*
X105370338Y-57075705D01*
X105370337Y-57075705D01*
X105365934Y-57074660D01*
X105340099Y-57078176D01*
X105333662Y-57079052D01*
X105327054Y-57079500D01*
X104750027Y-57079500D01*
X104715379Y-57065148D01*
X104701027Y-57030500D01*
X104701706Y-57022370D01*
X104723183Y-56894716D01*
X104723183Y-56894713D01*
X104723496Y-56892854D01*
X104723647Y-56880500D01*
X104719370Y-56850637D01*
X104728665Y-56814304D01*
X104754985Y-56796415D01*
X104838817Y-56773560D01*
X104841788Y-56771736D01*
X104841790Y-56771735D01*
X104958018Y-56700371D01*
X104958021Y-56700369D01*
X104960991Y-56698545D01*
X104999043Y-56656506D01*
X105054855Y-56594845D01*
X105054856Y-56594844D01*
X105057200Y-56592254D01*
X105119710Y-56463233D01*
X105125386Y-56429500D01*
X105143183Y-56323716D01*
X105143183Y-56323713D01*
X105143496Y-56321854D01*
X105143552Y-56317277D01*
X105143624Y-56311402D01*
X105143624Y-56311399D01*
X105143647Y-56309500D01*
X105123323Y-56167582D01*
X105063984Y-56037072D01*
X105053275Y-56024643D01*
X104972680Y-55931109D01*
X104970400Y-55928463D01*
X104850095Y-55850485D01*
X104712739Y-55809407D01*
X104641681Y-55808973D01*
X104572868Y-55808552D01*
X104572866Y-55808552D01*
X104569376Y-55808531D01*
X104566021Y-55809490D01*
X104566020Y-55809490D01*
X104480517Y-55833927D01*
X104431529Y-55847928D01*
X104428578Y-55849790D01*
X104326524Y-55914181D01*
X104310280Y-55924430D01*
X104309377Y-55925452D01*
X104274443Y-55954929D01*
X104271888Y-55957121D01*
X104271708Y-55957278D01*
X104270072Y-55958721D01*
X104269990Y-55958794D01*
X104233354Y-55991440D01*
X104233219Y-55991560D01*
X104203076Y-56018467D01*
X104201818Y-56019552D01*
X104180434Y-56037375D01*
X104177582Y-56039580D01*
X104164318Y-56049071D01*
X104159778Y-56051955D01*
X104152005Y-56056314D01*
X104146194Y-56059088D01*
X104138554Y-56062134D01*
X104132392Y-56064128D01*
X104127564Y-56065345D01*
X104118036Y-56067746D01*
X104112443Y-56068815D01*
X104085677Y-56072330D01*
X104081143Y-56072712D01*
X104057343Y-56073608D01*
X104022180Y-56060570D01*
X104006500Y-56024643D01*
X104006500Y-55710252D01*
X103994867Y-55651769D01*
X103992597Y-55648372D01*
X103992597Y-55611628D01*
X103994867Y-55608231D01*
X104006500Y-55549748D01*
X104006500Y-55210252D01*
X103994867Y-55151769D01*
X103992597Y-55148372D01*
X103992597Y-55111628D01*
X103994867Y-55108231D01*
X104006500Y-55049748D01*
X104006500Y-54710252D01*
X104006915Y-54710252D01*
X104017310Y-54675986D01*
X104050386Y-54658309D01*
X104086274Y-54669196D01*
X104097098Y-54681688D01*
X104102624Y-54690812D01*
X104104524Y-54692780D01*
X104104526Y-54692782D01*
X104154902Y-54744947D01*
X104219586Y-54811929D01*
X104360475Y-54904125D01*
X104399505Y-54918640D01*
X104515725Y-54961862D01*
X104515729Y-54961863D01*
X104518289Y-54962815D01*
X104520998Y-54963176D01*
X104521000Y-54963177D01*
X104599180Y-54973608D01*
X104685183Y-54985083D01*
X104687908Y-54984835D01*
X104687910Y-54984835D01*
X104850132Y-54970072D01*
X104850135Y-54970071D01*
X104852864Y-54969823D01*
X105012997Y-54917793D01*
X105157623Y-54831578D01*
X105161530Y-54827858D01*
X105277567Y-54717357D01*
X105279554Y-54715465D01*
X105281070Y-54713184D01*
X105281072Y-54713181D01*
X105371216Y-54577503D01*
X105372731Y-54575223D01*
X105432521Y-54417823D01*
X105443498Y-54339724D01*
X105455740Y-54252620D01*
X105455740Y-54252615D01*
X105455955Y-54251088D01*
X105456053Y-54244105D01*
X105456227Y-54231545D01*
X105456249Y-54230000D01*
X105447061Y-54148084D01*
X105437787Y-54065400D01*
X105437786Y-54065396D01*
X105437481Y-54062676D01*
X105436580Y-54060089D01*
X105436579Y-54060084D01*
X105425754Y-54029000D01*
X118133754Y-54029000D01*
X118152720Y-54330457D01*
X118209319Y-54627160D01*
X118302659Y-54914430D01*
X118303307Y-54915808D01*
X118303309Y-54915812D01*
X118412922Y-55148750D01*
X118431267Y-55187736D01*
X118432094Y-55189039D01*
X118432095Y-55189041D01*
X118450940Y-55218736D01*
X118593115Y-55442768D01*
X118785651Y-55675504D01*
X118786770Y-55676554D01*
X118786772Y-55676557D01*
X118819784Y-55707557D01*
X119005838Y-55882274D01*
X119156093Y-55991440D01*
X119236348Y-56049748D01*
X119250205Y-56059816D01*
X119251556Y-56060559D01*
X119251558Y-56060560D01*
X119285195Y-56079052D01*
X119514896Y-56205332D01*
X119693194Y-56275925D01*
X119782799Y-56311402D01*
X119795738Y-56316525D01*
X120088302Y-56391642D01*
X120089819Y-56391834D01*
X120089821Y-56391834D01*
X120141680Y-56398385D01*
X120387973Y-56429500D01*
X120690027Y-56429500D01*
X120936320Y-56398385D01*
X120988179Y-56391834D01*
X120988181Y-56391834D01*
X120989698Y-56391642D01*
X121282262Y-56316525D01*
X121295202Y-56311402D01*
X121384806Y-56275925D01*
X121563104Y-56205332D01*
X121792805Y-56079052D01*
X121826442Y-56060560D01*
X121826444Y-56060559D01*
X121827795Y-56059816D01*
X121841653Y-56049748D01*
X121921907Y-55991440D01*
X122072162Y-55882274D01*
X122258216Y-55707557D01*
X122291228Y-55676557D01*
X122291230Y-55676554D01*
X122292349Y-55675504D01*
X122484885Y-55442768D01*
X122627060Y-55218736D01*
X122645905Y-55189041D01*
X122645906Y-55189039D01*
X122646733Y-55187736D01*
X122665078Y-55148750D01*
X122774691Y-54915812D01*
X122774693Y-54915808D01*
X122775341Y-54914430D01*
X122868681Y-54627160D01*
X122925280Y-54330457D01*
X122944246Y-54029000D01*
X122925280Y-53727543D01*
X122868681Y-53430840D01*
X122775341Y-53143570D01*
X122768057Y-53128089D01*
X122647389Y-52871658D01*
X122646733Y-52870264D01*
X122641135Y-52861442D01*
X122485715Y-52616540D01*
X122484885Y-52615232D01*
X122437525Y-52557983D01*
X122414447Y-52530088D01*
X122292349Y-52382496D01*
X122274320Y-52365565D01*
X122106299Y-52207783D01*
X122072162Y-52175726D01*
X121867932Y-52027345D01*
X121829045Y-51999092D01*
X121829043Y-51999091D01*
X121827795Y-51998184D01*
X121563104Y-51852668D01*
X121360559Y-51772475D01*
X121283687Y-51742039D01*
X121283684Y-51742038D01*
X121282262Y-51741475D01*
X120989698Y-51666358D01*
X120988181Y-51666166D01*
X120988179Y-51666166D01*
X120935412Y-51659500D01*
X120690027Y-51628500D01*
X120387973Y-51628500D01*
X120142588Y-51659500D01*
X120089821Y-51666166D01*
X120089819Y-51666166D01*
X120088302Y-51666358D01*
X119795738Y-51741475D01*
X119794316Y-51742038D01*
X119794313Y-51742039D01*
X119717441Y-51772475D01*
X119514896Y-51852668D01*
X119250205Y-51998184D01*
X119248957Y-51999091D01*
X119248955Y-51999092D01*
X119210068Y-52027345D01*
X119005838Y-52175726D01*
X118971701Y-52207783D01*
X118803681Y-52365565D01*
X118785651Y-52382496D01*
X118663553Y-52530088D01*
X118640476Y-52557983D01*
X118593115Y-52615232D01*
X118592285Y-52616540D01*
X118436866Y-52861442D01*
X118431267Y-52870264D01*
X118430611Y-52871658D01*
X118309944Y-53128089D01*
X118302659Y-53143570D01*
X118209319Y-53430840D01*
X118152720Y-53727543D01*
X118133754Y-54029000D01*
X105425754Y-54029000D01*
X105383009Y-53906254D01*
X105383007Y-53906251D01*
X105382108Y-53903668D01*
X105380659Y-53901349D01*
X105380657Y-53901345D01*
X105294337Y-53763204D01*
X105294336Y-53763203D01*
X105292884Y-53760879D01*
X105290953Y-53758934D01*
X105176174Y-53643351D01*
X105176171Y-53643349D01*
X105174242Y-53641406D01*
X105032079Y-53551187D01*
X104873462Y-53494706D01*
X104870741Y-53494382D01*
X104870739Y-53494381D01*
X104789867Y-53484737D01*
X104706273Y-53474769D01*
X104703552Y-53475055D01*
X104703549Y-53475055D01*
X104622547Y-53483569D01*
X104538821Y-53492369D01*
X104536228Y-53493252D01*
X104536227Y-53493252D01*
X104526263Y-53496644D01*
X104379431Y-53546630D01*
X104236022Y-53634856D01*
X104234067Y-53636770D01*
X104234065Y-53636772D01*
X104117680Y-53750745D01*
X104117678Y-53750748D01*
X104115724Y-53752661D01*
X104114242Y-53754961D01*
X104114241Y-53754962D01*
X104096188Y-53782975D01*
X104065355Y-53804324D01*
X104028456Y-53797619D01*
X104007107Y-53766786D01*
X104006000Y-53756431D01*
X104006000Y-53712705D01*
X104005532Y-53707948D01*
X103995337Y-53656697D01*
X103991715Y-53647951D01*
X103952872Y-53589819D01*
X103946181Y-53583128D01*
X103918465Y-53564609D01*
X103897630Y-53533427D01*
X103904946Y-53496644D01*
X103922120Y-53480907D01*
X103937162Y-53472655D01*
X103937164Y-53472654D01*
X103939276Y-53471495D01*
X104352553Y-53124714D01*
X104389877Y-53078211D01*
X104391226Y-53073583D01*
X104391227Y-53073581D01*
X104410846Y-53006266D01*
X104410846Y-53006264D01*
X104412196Y-53001633D01*
X104411413Y-52994476D01*
X104404038Y-52927136D01*
X104404038Y-52927135D01*
X104403513Y-52922343D01*
X104374832Y-52870065D01*
X104373290Y-52868227D01*
X104373287Y-52868223D01*
X103688923Y-52052629D01*
X103687374Y-52050783D01*
X103640870Y-52013460D01*
X103594085Y-51999824D01*
X103568926Y-51992491D01*
X103568924Y-51992491D01*
X103564293Y-51991141D01*
X103559497Y-51991666D01*
X103559495Y-51991666D01*
X103506773Y-51997440D01*
X103485003Y-51999824D01*
X103480774Y-52002144D01*
X103460148Y-52013460D01*
X103432724Y-52028505D01*
X103019447Y-52375286D01*
X103017939Y-52377165D01*
X102987829Y-52414680D01*
X102982123Y-52421789D01*
X102980774Y-52426417D01*
X102980773Y-52426419D01*
X102974684Y-52447313D01*
X102951210Y-52476561D01*
X102913930Y-52480645D01*
X102896408Y-52471358D01*
X102894593Y-52469857D01*
X102892333Y-52467399D01*
X102768803Y-52390807D01*
X102629226Y-52350257D01*
X102618918Y-52349500D01*
X102514587Y-52349500D01*
X102512940Y-52349726D01*
X102512934Y-52349726D01*
X102460458Y-52356915D01*
X102406997Y-52364238D01*
X102403931Y-52365565D01*
X102403930Y-52365565D01*
X102276669Y-52420636D01*
X102276668Y-52420637D01*
X102273603Y-52421963D01*
X102271008Y-52424064D01*
X102271007Y-52424065D01*
X102206534Y-52476274D01*
X102170575Y-52486926D01*
X102137617Y-52469031D01*
X102128654Y-52451904D01*
X102121227Y-52426420D01*
X102121226Y-52426419D01*
X102119877Y-52421789D01*
X102114172Y-52414680D01*
X102084061Y-52377165D01*
X102082553Y-52375286D01*
X101669276Y-52028505D01*
X101641853Y-52013460D01*
X101621226Y-52002144D01*
X101616997Y-51999824D01*
X101595227Y-51997440D01*
X101542505Y-51991666D01*
X101542503Y-51991666D01*
X101537707Y-51991141D01*
X101533076Y-51992491D01*
X101533074Y-51992491D01*
X101507915Y-51999824D01*
X101461130Y-52013460D01*
X101414626Y-52050783D01*
X101413077Y-52052629D01*
X100728713Y-52868223D01*
X100728710Y-52868227D01*
X100727168Y-52870065D01*
X100698487Y-52922343D01*
X100697962Y-52927135D01*
X100697962Y-52927136D01*
X100690588Y-52994476D01*
X100689804Y-53001633D01*
X100691154Y-53006264D01*
X100691154Y-53006266D01*
X100710773Y-53073581D01*
X100710774Y-53073583D01*
X100712123Y-53078211D01*
X100749447Y-53124714D01*
X101162724Y-53471495D01*
X101164836Y-53472654D01*
X101164838Y-53472655D01*
X101179880Y-53480907D01*
X101203354Y-53510155D01*
X101199272Y-53547435D01*
X101183535Y-53564609D01*
X101155819Y-53583128D01*
X101149128Y-53589819D01*
X101110285Y-53647951D01*
X101106663Y-53656697D01*
X101096468Y-53707948D01*
X101096000Y-53712705D01*
X101096000Y-53755017D01*
X101081648Y-53789665D01*
X101047000Y-53804017D01*
X101012352Y-53789665D01*
X101005448Y-53780986D01*
X100992884Y-53760879D01*
X100990953Y-53758934D01*
X100876174Y-53643351D01*
X100876171Y-53643349D01*
X100874242Y-53641406D01*
X100732079Y-53551187D01*
X100573462Y-53494706D01*
X100570741Y-53494382D01*
X100570739Y-53494381D01*
X100489867Y-53484737D01*
X100406273Y-53474769D01*
X100403552Y-53475055D01*
X100403549Y-53475055D01*
X100322547Y-53483569D01*
X100238821Y-53492369D01*
X100236228Y-53493252D01*
X100236227Y-53493252D01*
X100226263Y-53496644D01*
X100079431Y-53546630D01*
X99936022Y-53634856D01*
X99934067Y-53636770D01*
X99934065Y-53636772D01*
X99817680Y-53750745D01*
X99817678Y-53750748D01*
X99815724Y-53752661D01*
X99814242Y-53754961D01*
X99814241Y-53754962D01*
X99751000Y-53853094D01*
X99724515Y-53894190D01*
X99666927Y-54052409D01*
X99645825Y-54219455D01*
X99646092Y-54222178D01*
X99646092Y-54222179D01*
X99659897Y-54362972D01*
X99662255Y-54387025D01*
X99715402Y-54546791D01*
X99716821Y-54549135D01*
X99716822Y-54549136D01*
X99788723Y-54667859D01*
X99802624Y-54690812D01*
X99804524Y-54692780D01*
X99804526Y-54692782D01*
X99854902Y-54744947D01*
X99919586Y-54811929D01*
X100060475Y-54904125D01*
X100099505Y-54918640D01*
X100215725Y-54961862D01*
X100215729Y-54961863D01*
X100218289Y-54962815D01*
X100220998Y-54963176D01*
X100221000Y-54963177D01*
X100299180Y-54973608D01*
X100385183Y-54985083D01*
X100387908Y-54984835D01*
X100387910Y-54984835D01*
X100550132Y-54970072D01*
X100550135Y-54970071D01*
X100552864Y-54969823D01*
X100712997Y-54917793D01*
X100857623Y-54831578D01*
X100861530Y-54827858D01*
X100977567Y-54717357D01*
X100979554Y-54715465D01*
X101006498Y-54674911D01*
X101037625Y-54653995D01*
X101074426Y-54661215D01*
X101095343Y-54692343D01*
X101096074Y-54706831D01*
X101095970Y-54707891D01*
X101095500Y-54710252D01*
X101095500Y-55049748D01*
X101107133Y-55108231D01*
X101109403Y-55111628D01*
X101109403Y-55148372D01*
X101107133Y-55151769D01*
X101095500Y-55210252D01*
X101095500Y-55530500D01*
X101081148Y-55565148D01*
X101046500Y-55579500D01*
X100005767Y-55579500D01*
X99971119Y-55565148D01*
X99163852Y-54757881D01*
X99149500Y-54723233D01*
X99149500Y-54667859D01*
X99150797Y-54656658D01*
X99154218Y-54642090D01*
X99154219Y-54642086D01*
X99154767Y-54639750D01*
X99156326Y-54594320D01*
X99156634Y-54590268D01*
X99158139Y-54577503D01*
X99160565Y-54556921D01*
X99161380Y-54552101D01*
X99166226Y-54530174D01*
X99167664Y-54525024D01*
X99173143Y-54508862D01*
X99174997Y-54504195D01*
X99182713Y-54487343D01*
X99184429Y-54483950D01*
X99197090Y-54461154D01*
X99198105Y-54459412D01*
X99217304Y-54427967D01*
X99217394Y-54427819D01*
X99241417Y-54388784D01*
X99241446Y-54388736D01*
X99242678Y-54386707D01*
X99242753Y-54386582D01*
X99242762Y-54386566D01*
X99242835Y-54386445D01*
X99244414Y-54383765D01*
X99269907Y-54339724D01*
X99272203Y-54335650D01*
X99272467Y-54335169D01*
X99274804Y-54330788D01*
X99274976Y-54330457D01*
X99296987Y-54287949D01*
X99296988Y-54287947D01*
X99297630Y-54286707D01*
X99306948Y-54262194D01*
X99313823Y-54244105D01*
X99314323Y-54242790D01*
X99314421Y-54242404D01*
X99316755Y-54236537D01*
X99330710Y-54207733D01*
X99351284Y-54085448D01*
X99354183Y-54068216D01*
X99354183Y-54068213D01*
X99354496Y-54066354D01*
X99354647Y-54054000D01*
X99334323Y-53912082D01*
X99274984Y-53781572D01*
X99268261Y-53773769D01*
X99183680Y-53675609D01*
X99181400Y-53672963D01*
X99061095Y-53594985D01*
X98923739Y-53553907D01*
X98852681Y-53553473D01*
X98783868Y-53553052D01*
X98783866Y-53553052D01*
X98780376Y-53553031D01*
X98777021Y-53553990D01*
X98777020Y-53553990D01*
X98645884Y-53591469D01*
X98642529Y-53592428D01*
X98521280Y-53668930D01*
X98426377Y-53776388D01*
X98365447Y-53906163D01*
X98356222Y-53965415D01*
X98343927Y-54044377D01*
X98343927Y-54044381D01*
X98343391Y-54047823D01*
X86912480Y-54047823D01*
X86912325Y-54045353D01*
X86895602Y-53779548D01*
X86894280Y-53758543D01*
X86837681Y-53461840D01*
X86744341Y-53174570D01*
X86730438Y-53145023D01*
X86616389Y-52902658D01*
X86615733Y-52901264D01*
X86597270Y-52872170D01*
X86454715Y-52647540D01*
X86453885Y-52646232D01*
X86261349Y-52413496D01*
X86228338Y-52382496D01*
X86142389Y-52301785D01*
X86041162Y-52206726D01*
X85846718Y-52065455D01*
X85798045Y-52030092D01*
X85798043Y-52030091D01*
X85796795Y-52029184D01*
X85532104Y-51883668D01*
X85251262Y-51772475D01*
X84958698Y-51697358D01*
X84957181Y-51697166D01*
X84957179Y-51697166D01*
X84905320Y-51690615D01*
X84659027Y-51659500D01*
X84356973Y-51659500D01*
X84110680Y-51690615D01*
X84058821Y-51697166D01*
X84058819Y-51697166D01*
X84057302Y-51697358D01*
X83764738Y-51772475D01*
X83483896Y-51883668D01*
X83219205Y-52029184D01*
X83217957Y-52030091D01*
X83217955Y-52030092D01*
X83169282Y-52065455D01*
X82974838Y-52206726D01*
X82873611Y-52301785D01*
X82787663Y-52382496D01*
X82754651Y-52413496D01*
X82562115Y-52646232D01*
X82561285Y-52647540D01*
X82418731Y-52872170D01*
X82400267Y-52901264D01*
X82399611Y-52902658D01*
X82285563Y-53145023D01*
X82271659Y-53174570D01*
X82178319Y-53461840D01*
X82121720Y-53758543D01*
X82120398Y-53779548D01*
X82103676Y-54045353D01*
X82102754Y-54060000D01*
X81665290Y-54060000D01*
X81667421Y-54050737D01*
X81667421Y-54050735D01*
X81668657Y-54045360D01*
X81666637Y-54036434D01*
X81666027Y-54033736D01*
X81664895Y-54020172D01*
X81665178Y-54015148D01*
X81672767Y-53880001D01*
X81680950Y-53734305D01*
X81681565Y-53728845D01*
X81733230Y-53424764D01*
X81734453Y-53419407D01*
X81813501Y-53145023D01*
X81819839Y-53123024D01*
X81821653Y-53117840D01*
X81847833Y-53054635D01*
X81939686Y-52832883D01*
X81942068Y-52827936D01*
X82091266Y-52557984D01*
X82094184Y-52553339D01*
X82272677Y-52301776D01*
X82276097Y-52297489D01*
X82481622Y-52067507D01*
X82485507Y-52063622D01*
X82715489Y-51858097D01*
X82719776Y-51854677D01*
X82971339Y-51676184D01*
X82975984Y-51673266D01*
X83110960Y-51598667D01*
X83245940Y-51524066D01*
X83250885Y-51521685D01*
X83535843Y-51403652D01*
X83541026Y-51401838D01*
X83837407Y-51316453D01*
X83842764Y-51315230D01*
X84146845Y-51263565D01*
X84152305Y-51262950D01*
X84392876Y-51249439D01*
X84437747Y-51246919D01*
X84451475Y-51248089D01*
X84462642Y-51250657D01*
X84480091Y-51246709D01*
X84490903Y-51245501D01*
X120434657Y-51245501D01*
X120445637Y-51246747D01*
G37*
%TD.AperFunction*%
%TA.AperFunction,Conductor*%
G36*
X102403953Y-58538771D02*
G01*
X102469157Y-58559142D01*
X102472647Y-58559206D01*
X102492558Y-58559571D01*
X102612499Y-58561770D01*
X102615861Y-58560853D01*
X102615864Y-58560853D01*
X102699718Y-58537992D01*
X102736921Y-58542725D01*
X102760663Y-58575706D01*
X102767133Y-58608231D01*
X102769403Y-58611628D01*
X102769403Y-58648372D01*
X102767133Y-58651769D01*
X102755500Y-58710252D01*
X102755500Y-59049748D01*
X102767133Y-59108231D01*
X102769679Y-59112041D01*
X102769677Y-59149419D01*
X102766663Y-59156694D01*
X102756468Y-59207948D01*
X102756000Y-59212705D01*
X102756000Y-59220253D01*
X102758855Y-59227145D01*
X102765747Y-59230000D01*
X102931173Y-59230000D01*
X102934580Y-59230167D01*
X102936252Y-59230500D01*
X103482000Y-59230500D01*
X103516648Y-59244852D01*
X103531000Y-59279500D01*
X103531000Y-59720253D01*
X103533855Y-59727145D01*
X103540747Y-59730000D01*
X103647382Y-59730000D01*
X103682030Y-59744352D01*
X103696382Y-59779000D01*
X103683441Y-59809789D01*
X103684626Y-59810783D01*
X103128036Y-60474102D01*
X103094771Y-60491419D01*
X103059003Y-60480141D01*
X103041686Y-60446876D01*
X103041500Y-60442605D01*
X103041500Y-60388044D01*
X103041501Y-60387745D01*
X103041938Y-60316135D01*
X103041959Y-60312747D01*
X103041629Y-60311591D01*
X103041500Y-60309702D01*
X103041500Y-60198560D01*
X103042766Y-60187495D01*
X103043016Y-60186419D01*
X103046655Y-60170718D01*
X103046656Y-60170000D01*
X103046042Y-60167307D01*
X103046041Y-60167301D01*
X103044983Y-60162665D01*
X103044174Y-60158161D01*
X103041163Y-60135286D01*
X103028875Y-60041954D01*
X103027648Y-60038992D01*
X103027647Y-60038988D01*
X102980680Y-59925600D01*
X102980678Y-59925597D01*
X102979451Y-59922634D01*
X102900829Y-59820171D01*
X102896503Y-59816851D01*
X102877750Y-59784374D01*
X102887456Y-59748149D01*
X102919934Y-59729396D01*
X102931496Y-59729776D01*
X102931543Y-59729295D01*
X102938705Y-59730000D01*
X103221253Y-59730000D01*
X103228145Y-59727145D01*
X103231000Y-59720253D01*
X103231000Y-59539747D01*
X103228145Y-59532855D01*
X103221253Y-59530000D01*
X102765747Y-59530000D01*
X102758855Y-59532855D01*
X102756000Y-59539747D01*
X102756000Y-59547295D01*
X102756468Y-59552052D01*
X102766663Y-59603303D01*
X102770285Y-59612049D01*
X102789440Y-59640716D01*
X102796756Y-59677499D01*
X102775921Y-59708681D01*
X102739138Y-59715997D01*
X102729952Y-59713211D01*
X102679046Y-59692125D01*
X102583306Y-59679520D01*
X102554183Y-59675686D01*
X102551000Y-59675267D01*
X102547817Y-59675686D01*
X102426136Y-59691706D01*
X102426135Y-59691706D01*
X102422954Y-59692125D01*
X102419990Y-59693353D01*
X102419985Y-59693354D01*
X102372053Y-59713208D01*
X102334550Y-59713208D01*
X102308032Y-59686689D01*
X102308032Y-59649186D01*
X102312560Y-59640715D01*
X102331715Y-59612049D01*
X102335337Y-59603303D01*
X102345532Y-59552052D01*
X102346000Y-59547295D01*
X102346000Y-59539747D01*
X102343145Y-59532855D01*
X102336253Y-59530000D01*
X101880747Y-59530000D01*
X101873855Y-59532855D01*
X101871000Y-59539747D01*
X101871000Y-59720253D01*
X101873855Y-59727145D01*
X101880747Y-59730000D01*
X102163295Y-59730000D01*
X102170457Y-59729295D01*
X102170607Y-59730815D01*
X102202887Y-59737232D01*
X102223726Y-59768412D01*
X102216414Y-59805195D01*
X102205498Y-59816850D01*
X102201171Y-59820171D01*
X102122549Y-59922634D01*
X102121322Y-59925597D01*
X102121320Y-59925600D01*
X102074353Y-60038988D01*
X102074352Y-60038992D01*
X102073125Y-60041954D01*
X102060838Y-60135286D01*
X102057919Y-60157455D01*
X102057091Y-60162042D01*
X102056580Y-60164262D01*
X102056580Y-60164266D01*
X102055344Y-60169641D01*
X102057242Y-60178027D01*
X102059292Y-60187087D01*
X102060500Y-60197902D01*
X102060500Y-60371956D01*
X102060499Y-60372255D01*
X102060071Y-60442393D01*
X102045508Y-60476953D01*
X102010773Y-60491093D01*
X101976213Y-60476530D01*
X101973536Y-60473591D01*
X101417374Y-59810783D01*
X101418540Y-59809805D01*
X101405621Y-59779509D01*
X101419612Y-59744713D01*
X101454618Y-59730000D01*
X101561253Y-59730000D01*
X101568145Y-59727145D01*
X101571000Y-59720253D01*
X101571000Y-59279500D01*
X101585352Y-59244852D01*
X101620000Y-59230500D01*
X102165748Y-59230500D01*
X102167420Y-59230167D01*
X102170827Y-59230000D01*
X102336253Y-59230000D01*
X102343145Y-59227145D01*
X102346000Y-59220253D01*
X102346000Y-59212705D01*
X102345532Y-59207948D01*
X102335337Y-59156694D01*
X102332323Y-59149419D01*
X102332321Y-59112041D01*
X102334867Y-59108231D01*
X102346500Y-59049748D01*
X102346500Y-58710252D01*
X102334867Y-58651769D01*
X102332597Y-58648372D01*
X102332597Y-58611628D01*
X102334867Y-58608231D01*
X102341282Y-58575982D01*
X102362118Y-58544800D01*
X102398900Y-58537484D01*
X102403953Y-58538771D01*
G37*
%TD.AperFunction*%
%TA.AperFunction,Conductor*%
G36*
X102002453Y-52828177D02*
G01*
X102019770Y-52861442D01*
X102019824Y-52869299D01*
X102016569Y-52913624D01*
X102045298Y-53056104D01*
X102046814Y-53059080D01*
X102046815Y-53059082D01*
X102109765Y-53182630D01*
X102109767Y-53182633D01*
X102111284Y-53185610D01*
X102209667Y-53292601D01*
X102333197Y-53369193D01*
X102472774Y-53409743D01*
X102483082Y-53410500D01*
X102587413Y-53410500D01*
X102589060Y-53410274D01*
X102589066Y-53410274D01*
X102641542Y-53403085D01*
X102695003Y-53395762D01*
X102698070Y-53394435D01*
X102825331Y-53339364D01*
X102825332Y-53339363D01*
X102828397Y-53338037D01*
X102941354Y-53246567D01*
X103014549Y-53143570D01*
X103023616Y-53130812D01*
X103023616Y-53130811D01*
X103025551Y-53128089D01*
X103026767Y-53124714D01*
X103073655Y-52994476D01*
X103073655Y-52994475D01*
X103074786Y-52991334D01*
X103079501Y-52927136D01*
X103084106Y-52864424D01*
X103100956Y-52830920D01*
X103136563Y-52819145D01*
X103170510Y-52836516D01*
X103460933Y-53182630D01*
X103684626Y-53449217D01*
X103683460Y-53450195D01*
X103696379Y-53480491D01*
X103682388Y-53515287D01*
X103647382Y-53530000D01*
X103540747Y-53530000D01*
X103533855Y-53532855D01*
X103531000Y-53539747D01*
X103531000Y-53980500D01*
X103516648Y-54015148D01*
X103482000Y-54029500D01*
X102936252Y-54029500D01*
X102934580Y-54029833D01*
X102931173Y-54030000D01*
X102765747Y-54030000D01*
X102758855Y-54032855D01*
X102756000Y-54039747D01*
X102756000Y-54047295D01*
X102756468Y-54052052D01*
X102766663Y-54103306D01*
X102769677Y-54110581D01*
X102769679Y-54147959D01*
X102767133Y-54151769D01*
X102755500Y-54210252D01*
X102755500Y-54549748D01*
X102767133Y-54608231D01*
X102769403Y-54611628D01*
X102769403Y-54648372D01*
X102767133Y-54651769D01*
X102755500Y-54710252D01*
X102755500Y-54850644D01*
X102741148Y-54885292D01*
X102706500Y-54899644D01*
X102692460Y-54897590D01*
X102656739Y-54886907D01*
X102585681Y-54886473D01*
X102516868Y-54886052D01*
X102516866Y-54886052D01*
X102513376Y-54886031D01*
X102510021Y-54886990D01*
X102510020Y-54886990D01*
X102408965Y-54915872D01*
X102371707Y-54911594D01*
X102348386Y-54882223D01*
X102346500Y-54868758D01*
X102346500Y-54710252D01*
X102334867Y-54651769D01*
X102332597Y-54648372D01*
X102332597Y-54611628D01*
X102334867Y-54608231D01*
X102346500Y-54549748D01*
X102346500Y-54210252D01*
X102334867Y-54151769D01*
X102332321Y-54147959D01*
X102332323Y-54110581D01*
X102335337Y-54103306D01*
X102345532Y-54052052D01*
X102346000Y-54047295D01*
X102346000Y-54039747D01*
X102343145Y-54032855D01*
X102336253Y-54030000D01*
X102170827Y-54030000D01*
X102167420Y-54029833D01*
X102165748Y-54029500D01*
X101620000Y-54029500D01*
X101585352Y-54015148D01*
X101571000Y-53980500D01*
X101571000Y-53720253D01*
X101871000Y-53720253D01*
X101873855Y-53727145D01*
X101880747Y-53730000D01*
X102336253Y-53730000D01*
X102343145Y-53727145D01*
X102346000Y-53720253D01*
X102756000Y-53720253D01*
X102758855Y-53727145D01*
X102765747Y-53730000D01*
X103221253Y-53730000D01*
X103228145Y-53727145D01*
X103231000Y-53720253D01*
X103231000Y-53539747D01*
X103228145Y-53532855D01*
X103221253Y-53530000D01*
X102938705Y-53530000D01*
X102933948Y-53530468D01*
X102882697Y-53540663D01*
X102873951Y-53544285D01*
X102815819Y-53583128D01*
X102809128Y-53589819D01*
X102770285Y-53647951D01*
X102766663Y-53656697D01*
X102756468Y-53707948D01*
X102756000Y-53712705D01*
X102756000Y-53720253D01*
X102346000Y-53720253D01*
X102346000Y-53712705D01*
X102345532Y-53707948D01*
X102335337Y-53656697D01*
X102331715Y-53647951D01*
X102292872Y-53589819D01*
X102286181Y-53583128D01*
X102228049Y-53544285D01*
X102219303Y-53540663D01*
X102168052Y-53530468D01*
X102163295Y-53530000D01*
X101880747Y-53530000D01*
X101873855Y-53532855D01*
X101871000Y-53539747D01*
X101871000Y-53720253D01*
X101571000Y-53720253D01*
X101571000Y-53539747D01*
X101568145Y-53532855D01*
X101561253Y-53530000D01*
X101454618Y-53530000D01*
X101419970Y-53515648D01*
X101405618Y-53481000D01*
X101418559Y-53450211D01*
X101417374Y-53449217D01*
X101933420Y-52834216D01*
X101966685Y-52816899D01*
X102002453Y-52828177D01*
G37*
%TD.AperFunction*%
%TD*%
M02*
