%TF.GenerationSoftware,KiCad,Pcbnew,(6.0.9)*%
%TF.CreationDate,2022-12-14T22:58:47+01:00*%
%TF.ProjectId,daughterboard,64617567-6874-4657-9262-6f6172642e6b,1.0*%
%TF.SameCoordinates,Original*%
%TF.FileFunction,Legend,Bot*%
%TF.FilePolarity,Positive*%
%FSLAX46Y46*%
G04 Gerber Fmt 4.6, Leading zero omitted, Abs format (unit mm)*
G04 Created by KiCad (PCBNEW (6.0.9)) date 2022-12-14 22:58:47*
%MOMM*%
%LPD*%
G01*
G04 APERTURE LIST*
G04 Aperture macros list*
%AMRotRect*
0 Rectangle, with rotation*
0 The origin of the aperture is its center*
0 $1 length*
0 $2 width*
0 $3 Rotation angle, in degrees counterclockwise*
0 Add horizontal line*
21,1,$1,$2,0,0,$3*%
G04 Aperture macros list end*
%ADD10C,0.200000*%
%ADD11C,4.400000*%
%ADD12C,0.660000*%
%ADD13C,0.580000*%
%ADD14R,0.850000X0.300000*%
%ADD15C,1.100000*%
%ADD16RotRect,1.030000X0.500000X50.000000*%
%ADD17RotRect,1.030000X0.500000X130.000000*%
G04 APERTURE END LIST*
D10*
%TO.C,J1*%
X104826000Y-58130000D02*
X104826000Y-55130000D01*
X100276000Y-58130000D02*
X100276000Y-55130000D01*
X104878000Y-60276000D02*
G75*
G03*
X104878000Y-60276000I-100000J0D01*
G01*
%TD*%
%LPC*%
D11*
%TO.C,H2*%
X84508000Y-54060000D03*
%TD*%
%TO.C,H1*%
X120539000Y-54029000D03*
%TD*%
D12*
%TO.C,J1*%
X102551000Y-52880000D03*
D13*
X102551000Y-60380000D03*
D14*
X103381000Y-59380000D03*
X103381000Y-58880000D03*
X103381000Y-58380000D03*
X103381000Y-57880000D03*
X103381000Y-57380000D03*
X103381000Y-56880000D03*
X103381000Y-56380000D03*
X103381000Y-55880000D03*
X103381000Y-55380000D03*
X103381000Y-54880000D03*
X103381000Y-54380000D03*
X103381000Y-53880000D03*
X101721000Y-53880000D03*
X101721000Y-54380000D03*
X101721000Y-54880000D03*
X101721000Y-55380000D03*
X101721000Y-55880000D03*
X101721000Y-56380000D03*
X101721000Y-56880000D03*
X101721000Y-57380000D03*
X101721000Y-57880000D03*
X101721000Y-58380000D03*
X101721000Y-58880000D03*
X101721000Y-59380000D03*
D15*
X104701000Y-59030000D03*
X100401000Y-59030000D03*
X104701000Y-54230000D03*
X100401000Y-54230000D03*
D16*
X103686000Y-60510000D03*
D17*
X101416000Y-60510000D03*
X103686000Y-52750000D03*
D16*
X101416000Y-52750000D03*
%TD*%
M02*
