%TF.GenerationSoftware,KiCad,Pcbnew,(5.99.0-12192-g74b8f14ec3)*%
%TF.CreationDate,2021-09-17T00:47:21+02:00*%
%TF.ProjectId,daughterboard,64617567-6874-4657-9262-6f6172642e6b,1.0*%
%TF.SameCoordinates,Original*%
%TF.FileFunction,Copper,L2,Bot*%
%TF.FilePolarity,Positive*%
%FSLAX46Y46*%
G04 Gerber Fmt 4.6, Leading zero omitted, Abs format (unit mm)*
G04 Created by KiCad (PCBNEW (5.99.0-12192-g74b8f14ec3)) date 2021-09-17 00:47:21*
%MOMM*%
%LPD*%
G01*
G04 APERTURE LIST*
%TA.AperFunction,ComponentPad*%
%ADD10C,4.400000*%
%TD*%
%TA.AperFunction,SMDPad,CuDef*%
%ADD11R,0.870000X0.300000*%
%TD*%
%TA.AperFunction,ComponentPad*%
%ADD12O,1.100000X2.200000*%
%TD*%
%TA.AperFunction,ViaPad*%
%ADD13C,0.600000*%
%TD*%
%TA.AperFunction,Conductor*%
%ADD14C,0.300000*%
%TD*%
%TA.AperFunction,Conductor*%
%ADD15C,0.200000*%
%TD*%
G04 APERTURE END LIST*
D10*
%TO.P,H2,1,1*%
%TO.N,unconnected-(H2-Pad1)*%
X84508000Y-56560000D03*
%TD*%
%TO.P,H1,1,1*%
%TO.N,Net-(FB2-Pad1)*%
X120539000Y-56529000D03*
%TD*%
D11*
%TO.P,J1,A1,GND*%
%TO.N,GND*%
X103416000Y-59380000D03*
%TO.P,J1,A4,VBUS*%
%TO.N,Net-(F1-Pad1)*%
X103416000Y-57880000D03*
%TO.P,J1,A5,CC1*%
%TO.N,Net-(J1-PadA5)*%
X103416000Y-57380000D03*
%TO.P,J1,A6,D+*%
%TO.N,/DUSB+*%
X103416000Y-56880000D03*
%TO.P,J1,A7,D-*%
%TO.N,/DUSB-*%
X103416000Y-56380000D03*
%TO.P,J1,A8,SBU1*%
%TO.N,unconnected-(J1-PadA8)*%
X103416000Y-55880000D03*
%TO.P,J1,A9,VBUS*%
%TO.N,Net-(F1-Pad1)*%
X103416000Y-55380000D03*
%TO.P,J1,A12,GND*%
%TO.N,GND*%
X103416000Y-53880000D03*
%TO.P,J1,B1,GND*%
X101686000Y-53880000D03*
%TO.P,J1,B4,VBUS*%
%TO.N,Net-(F1-Pad1)*%
X101686000Y-55380000D03*
%TO.P,J1,B5,CC2*%
%TO.N,Net-(J1-PadB5)*%
X101686000Y-55880000D03*
%TO.P,J1,B6,D+*%
%TO.N,/DUSB+*%
X101686000Y-56380000D03*
%TO.P,J1,B7,D-*%
%TO.N,/DUSB-*%
X101686000Y-56880000D03*
%TO.P,J1,B8,SBU2*%
%TO.N,unconnected-(J1-PadB8)*%
X101686000Y-57380000D03*
%TO.P,J1,B9,VBUS*%
%TO.N,Net-(F1-Pad1)*%
X101686000Y-57880000D03*
%TO.P,J1,B12,GND*%
%TO.N,GND*%
X101686000Y-59380000D03*
D12*
%TO.P,J1,S1,SHIELD*%
%TO.N,Net-(FB2-Pad1)*%
X104701000Y-59030000D03*
%TO.P,J1,S2*%
%TO.N,N/C*%
X100401000Y-59030000D03*
%TO.P,J1,S3*%
X104701000Y-54230000D03*
%TO.P,J1,S4*%
X100401000Y-54230000D03*
%TD*%
D13*
%TO.N,GND*%
X102548000Y-54460000D03*
X102555000Y-58809000D03*
%TO.N,Net-(F1-Pad1)*%
X102582000Y-55387000D03*
X102549341Y-57911830D03*
%TO.N,/DUSB+*%
X104218000Y-56880500D03*
%TO.N,/DUSB-*%
X104638000Y-56309500D03*
X102520138Y-57212938D03*
%TO.N,Net-(J1-PadA5)*%
X106361000Y-59148000D03*
%TO.N,Net-(J1-PadB5)*%
X98849000Y-54054000D03*
%TD*%
D14*
%TO.N,Net-(F1-Pad1)*%
X102582000Y-55387000D02*
X102577000Y-55387000D01*
X103416000Y-57880000D02*
X102678000Y-57880000D01*
X102577000Y-55387000D02*
X102570000Y-55380000D01*
X102678000Y-57880000D02*
X101686000Y-57880000D01*
X102570000Y-55380000D02*
X101686000Y-55380000D01*
X103416000Y-55380000D02*
X102570000Y-55380000D01*
D15*
%TO.N,/DUSB+*%
X103416000Y-56880000D02*
X104217500Y-56880000D01*
X102393616Y-56380000D02*
X101686000Y-56380000D01*
X104217500Y-56880000D02*
X104218000Y-56880500D01*
X102893616Y-56880000D02*
X102393616Y-56380000D01*
X103416000Y-56880000D02*
X102893616Y-56880000D01*
%TO.N,/DUSB-*%
X102187200Y-56880000D02*
X102520138Y-57212938D01*
X104638000Y-56309500D02*
X104567500Y-56380000D01*
X101686000Y-56880000D02*
X102187200Y-56880000D01*
X104567500Y-56380000D02*
X103416000Y-56380000D01*
%TO.N,Net-(J1-PadA5)*%
X103416000Y-57380000D02*
X105351000Y-57380000D01*
X106361000Y-58390000D02*
X106361000Y-59148000D01*
X105351000Y-57380000D02*
X106361000Y-58390000D01*
%TO.N,Net-(J1-PadB5)*%
X99861000Y-55880000D02*
X98849000Y-54868000D01*
X98849000Y-54868000D02*
X98849000Y-54054000D01*
X101686000Y-55880000D02*
X99861000Y-55880000D01*
%TD*%
%TA.AperFunction,Conductor*%
%TO.N,GND*%
G36*
X120445695Y-51246247D02*
G01*
X120457265Y-51248908D01*
X120457267Y-51248908D01*
X120462642Y-51250144D01*
X120474223Y-51247524D01*
X120487781Y-51246393D01*
X120599805Y-51252684D01*
X120773751Y-51262453D01*
X120779211Y-51263068D01*
X121083348Y-51314743D01*
X121088705Y-51315966D01*
X121385140Y-51401367D01*
X121390323Y-51403181D01*
X121675334Y-51521236D01*
X121680277Y-51523616D01*
X121815282Y-51598231D01*
X121950283Y-51672844D01*
X121954928Y-51675762D01*
X122206536Y-51854287D01*
X122210818Y-51857702D01*
X122440847Y-52063268D01*
X122444733Y-52067154D01*
X122650299Y-52297183D01*
X122653714Y-52301465D01*
X122832239Y-52553073D01*
X122835157Y-52557718D01*
X122973521Y-52808066D01*
X122984383Y-52827720D01*
X122986765Y-52832667D01*
X123098761Y-53103050D01*
X123104819Y-53117675D01*
X123106634Y-53122861D01*
X123192035Y-53419296D01*
X123193258Y-53424653D01*
X123244933Y-53728790D01*
X123245548Y-53734250D01*
X123261584Y-54019791D01*
X123260415Y-54033517D01*
X123257857Y-54044643D01*
X123260405Y-54055902D01*
X123261792Y-54062033D01*
X123263000Y-54072847D01*
X123263000Y-61016714D01*
X123261754Y-61027695D01*
X123257857Y-61044642D01*
X123260477Y-61056222D01*
X123261608Y-61069783D01*
X123245548Y-61355751D01*
X123244933Y-61361211D01*
X123193258Y-61665348D01*
X123192035Y-61670705D01*
X123106634Y-61967140D01*
X123104819Y-61972326D01*
X122986767Y-62257330D01*
X122984383Y-62262281D01*
X122835157Y-62532283D01*
X122832239Y-62536928D01*
X122653714Y-62788536D01*
X122650299Y-62792818D01*
X122444733Y-63022847D01*
X122440847Y-63026733D01*
X122210818Y-63232299D01*
X122206536Y-63235714D01*
X121954928Y-63414239D01*
X121950283Y-63417157D01*
X121815282Y-63491770D01*
X121680277Y-63566385D01*
X121675334Y-63568765D01*
X121390326Y-63686819D01*
X121385140Y-63688634D01*
X121088705Y-63774035D01*
X121083348Y-63775258D01*
X120779211Y-63826933D01*
X120773751Y-63827548D01*
X120561758Y-63839454D01*
X120488209Y-63843584D01*
X120474484Y-63842415D01*
X120470119Y-63841412D01*
X120468734Y-63841093D01*
X120468733Y-63841093D01*
X120463358Y-63839857D01*
X120446887Y-63843584D01*
X120445968Y-63843792D01*
X120435154Y-63845000D01*
X84491287Y-63845000D01*
X84480306Y-63843754D01*
X84468736Y-63841093D01*
X84468734Y-63841093D01*
X84463359Y-63839857D01*
X84452053Y-63842415D01*
X84451779Y-63842477D01*
X84438220Y-63843608D01*
X84326196Y-63837317D01*
X84152250Y-63827548D01*
X84146790Y-63826933D01*
X83842653Y-63775258D01*
X83837296Y-63774035D01*
X83540861Y-63688634D01*
X83535675Y-63686819D01*
X83250667Y-63568765D01*
X83245724Y-63566385D01*
X83110719Y-63491770D01*
X82975718Y-63417157D01*
X82971073Y-63414239D01*
X82719465Y-63235714D01*
X82715183Y-63232299D01*
X82485154Y-63026733D01*
X82481268Y-63022847D01*
X82275702Y-62792818D01*
X82272287Y-62788536D01*
X82093762Y-62536928D01*
X82090844Y-62532283D01*
X81941618Y-62262281D01*
X81939234Y-62257330D01*
X81821182Y-61972326D01*
X81819367Y-61967140D01*
X81733966Y-61670705D01*
X81732743Y-61665348D01*
X81681068Y-61361211D01*
X81680453Y-61355751D01*
X81664417Y-61070210D01*
X81665586Y-61056481D01*
X81666908Y-61050734D01*
X81666908Y-61050733D01*
X81668144Y-61045358D01*
X81664209Y-61027967D01*
X81663001Y-61017154D01*
X81663001Y-60374316D01*
X102085800Y-60374316D01*
X102086252Y-60377773D01*
X102086252Y-60377776D01*
X102088273Y-60393229D01*
X102102903Y-60505111D01*
X102156029Y-60625848D01*
X102240906Y-60726822D01*
X102243810Y-60728755D01*
X102243811Y-60728756D01*
X102296095Y-60763559D01*
X102350711Y-60799914D01*
X102354037Y-60800953D01*
X102354039Y-60800954D01*
X102373302Y-60806972D01*
X102476618Y-60839250D01*
X102480108Y-60839314D01*
X102497618Y-60839635D01*
X102608504Y-60841668D01*
X102735767Y-60806972D01*
X102738738Y-60805148D01*
X102738740Y-60805147D01*
X102845204Y-60739778D01*
X102845207Y-60739776D01*
X102848177Y-60737952D01*
X102858252Y-60726822D01*
X102934352Y-60642747D01*
X102934353Y-60642746D01*
X102936697Y-60640156D01*
X102994211Y-60521447D01*
X102996960Y-60505111D01*
X103015783Y-60393229D01*
X103015783Y-60393226D01*
X103016096Y-60391367D01*
X103016235Y-60380000D01*
X102997535Y-60249424D01*
X102942938Y-60129345D01*
X102856834Y-60029416D01*
X102848238Y-60023844D01*
X102749074Y-59959569D01*
X102749073Y-59959569D01*
X102746144Y-59957670D01*
X102619766Y-59919875D01*
X102554384Y-59919475D01*
X102491352Y-59919090D01*
X102491350Y-59919090D01*
X102487860Y-59919069D01*
X102484505Y-59920028D01*
X102484504Y-59920028D01*
X102364385Y-59954359D01*
X102361030Y-59955318D01*
X102358079Y-59957180D01*
X102252422Y-60023844D01*
X102252419Y-60023847D01*
X102249472Y-60025706D01*
X102247164Y-60028319D01*
X102247163Y-60028320D01*
X102213317Y-60066643D01*
X102162153Y-60124575D01*
X102160671Y-60127731D01*
X102160670Y-60127733D01*
X102110471Y-60234656D01*
X102106094Y-60243978D01*
X102105557Y-60247427D01*
X102093815Y-60322842D01*
X102085800Y-60374316D01*
X81663001Y-60374316D01*
X81663001Y-56560000D01*
X82102754Y-56560000D01*
X82102851Y-56561542D01*
X82104783Y-56592254D01*
X82121720Y-56861457D01*
X82178319Y-57158160D01*
X82271659Y-57445430D01*
X82272307Y-57446808D01*
X82272309Y-57446812D01*
X82386294Y-57689041D01*
X82400267Y-57718736D01*
X82401094Y-57720039D01*
X82401095Y-57720041D01*
X82423059Y-57754651D01*
X82562115Y-57973768D01*
X82754651Y-58206504D01*
X82755770Y-58207554D01*
X82755772Y-58207557D01*
X82798809Y-58247971D01*
X82974838Y-58413274D01*
X83219205Y-58590816D01*
X83483896Y-58736332D01*
X83662194Y-58806925D01*
X83687401Y-58816905D01*
X83764738Y-58847525D01*
X84057302Y-58922642D01*
X84058819Y-58922834D01*
X84058821Y-58922834D01*
X84110068Y-58929308D01*
X84356973Y-58960500D01*
X84659027Y-58960500D01*
X84905932Y-58929308D01*
X84957179Y-58922834D01*
X84957181Y-58922834D01*
X84958698Y-58922642D01*
X85251262Y-58847525D01*
X85328600Y-58816905D01*
X85353806Y-58806925D01*
X85532104Y-58736332D01*
X85796795Y-58590816D01*
X86041162Y-58413274D01*
X86217191Y-58247971D01*
X86260228Y-58207557D01*
X86260230Y-58207554D01*
X86261349Y-58206504D01*
X86453885Y-57973768D01*
X86592941Y-57754651D01*
X86614905Y-57720041D01*
X86614906Y-57720039D01*
X86615733Y-57718736D01*
X86629706Y-57689041D01*
X86743691Y-57446812D01*
X86743693Y-57446808D01*
X86744341Y-57445430D01*
X86837681Y-57158160D01*
X86894280Y-56861457D01*
X86911217Y-56592254D01*
X86913149Y-56561542D01*
X86913246Y-56560000D01*
X86894280Y-56258543D01*
X86837681Y-55961840D01*
X86744341Y-55674570D01*
X86730438Y-55645023D01*
X86616389Y-55402658D01*
X86615733Y-55401264D01*
X86606345Y-55386470D01*
X86454715Y-55147540D01*
X86453885Y-55146232D01*
X86261349Y-54913496D01*
X86242663Y-54895948D01*
X86058740Y-54723233D01*
X86041162Y-54706726D01*
X85796795Y-54529184D01*
X85532104Y-54383668D01*
X85353806Y-54313075D01*
X85252687Y-54273039D01*
X85252684Y-54273038D01*
X85251262Y-54272475D01*
X84958698Y-54197358D01*
X84957181Y-54197166D01*
X84957179Y-54197166D01*
X84872884Y-54186517D01*
X84659027Y-54159500D01*
X84356973Y-54159500D01*
X84143116Y-54186517D01*
X84058821Y-54197166D01*
X84058819Y-54197166D01*
X84057302Y-54197358D01*
X83764738Y-54272475D01*
X83763316Y-54273038D01*
X83763313Y-54273039D01*
X83662194Y-54313075D01*
X83483896Y-54383668D01*
X83219205Y-54529184D01*
X82974838Y-54706726D01*
X82957260Y-54723233D01*
X82773338Y-54895948D01*
X82754651Y-54913496D01*
X82562115Y-55146232D01*
X82561285Y-55147540D01*
X82409656Y-55386470D01*
X82400267Y-55401264D01*
X82399611Y-55402658D01*
X82285563Y-55645023D01*
X82271659Y-55674570D01*
X82178319Y-55961840D01*
X82121720Y-56258543D01*
X82102754Y-56560000D01*
X81663001Y-56560000D01*
X81663001Y-54073287D01*
X81664247Y-54062306D01*
X81666908Y-54050736D01*
X81666908Y-54050734D01*
X81667577Y-54047823D01*
X98343391Y-54047823D01*
X98343843Y-54051280D01*
X98343843Y-54051283D01*
X98358866Y-54166166D01*
X98361980Y-54189979D01*
X98419720Y-54321203D01*
X98511970Y-54430948D01*
X98526652Y-54440721D01*
X98547542Y-54471866D01*
X98548500Y-54481510D01*
X98548500Y-54812374D01*
X98547999Y-54819195D01*
X98546575Y-54823342D01*
X98548039Y-54862352D01*
X98548466Y-54873720D01*
X98548500Y-54875558D01*
X98548500Y-54895948D01*
X98548914Y-54898169D01*
X98549049Y-54899638D01*
X98549637Y-54904926D01*
X98550774Y-54935208D01*
X98552561Y-54939367D01*
X98552561Y-54939368D01*
X98557513Y-54950894D01*
X98560664Y-54961264D01*
X98563791Y-54978053D01*
X98566163Y-54981902D01*
X98566165Y-54981906D01*
X98579691Y-55003849D01*
X98583000Y-55010217D01*
X98594964Y-55038063D01*
X98598978Y-55042949D01*
X98607476Y-55051447D01*
X98614540Y-55060383D01*
X98620157Y-55069496D01*
X98620159Y-55069498D01*
X98622532Y-55073348D01*
X98626134Y-55076087D01*
X98626135Y-55076088D01*
X98648460Y-55093064D01*
X98653449Y-55097420D01*
X99609179Y-56053150D01*
X99613648Y-56058327D01*
X99615575Y-56062269D01*
X99618891Y-56065345D01*
X99652541Y-56096560D01*
X99653865Y-56097836D01*
X99668277Y-56112248D01*
X99670134Y-56113522D01*
X99671271Y-56114467D01*
X99675427Y-56117790D01*
X99697646Y-56138401D01*
X99701841Y-56140075D01*
X99701848Y-56140079D01*
X99713509Y-56144731D01*
X99723067Y-56149834D01*
X99737146Y-56159492D01*
X99741548Y-56160537D01*
X99741549Y-56160537D01*
X99748406Y-56162164D01*
X99766631Y-56166489D01*
X99773473Y-56168653D01*
X99798403Y-56178599D01*
X99798405Y-56178599D01*
X99801622Y-56179883D01*
X99805067Y-56180221D01*
X99805068Y-56180221D01*
X99806729Y-56180384D01*
X99806735Y-56180384D01*
X99807915Y-56180500D01*
X99819936Y-56180500D01*
X99831250Y-56181824D01*
X99841662Y-56184295D01*
X99841663Y-56184295D01*
X99846066Y-56185340D01*
X99878338Y-56180948D01*
X99884946Y-56180500D01*
X101001500Y-56180500D01*
X101036148Y-56194852D01*
X101050500Y-56229500D01*
X101050500Y-56549748D01*
X101062133Y-56608231D01*
X101064403Y-56611628D01*
X101064403Y-56648372D01*
X101062133Y-56651769D01*
X101050500Y-56710252D01*
X101050500Y-57049748D01*
X101062133Y-57108231D01*
X101064403Y-57111628D01*
X101064403Y-57148372D01*
X101062133Y-57151769D01*
X101050500Y-57210252D01*
X101050500Y-57549748D01*
X101062133Y-57608231D01*
X101064403Y-57611628D01*
X101064403Y-57648372D01*
X101062133Y-57651769D01*
X101050500Y-57710252D01*
X101050500Y-57947545D01*
X101036148Y-57982193D01*
X101001500Y-57996545D01*
X100967802Y-57983118D01*
X100855695Y-57876918D01*
X100853628Y-57874960D01*
X100844706Y-57869778D01*
X100704763Y-57788492D01*
X100704758Y-57788490D01*
X100702298Y-57787061D01*
X100699569Y-57786235D01*
X100699568Y-57786234D01*
X100537532Y-57737158D01*
X100537529Y-57737158D01*
X100534807Y-57736333D01*
X100424664Y-57729500D01*
X100362978Y-57725673D01*
X100362976Y-57725673D01*
X100360138Y-57725497D01*
X100187660Y-57755134D01*
X100185040Y-57756249D01*
X100185036Y-57756250D01*
X100112626Y-57787061D01*
X100026627Y-57823654D01*
X99885676Y-57927383D01*
X99883834Y-57929551D01*
X99883832Y-57929553D01*
X99781719Y-58049748D01*
X99772368Y-58060755D01*
X99692781Y-58216616D01*
X99689499Y-58230030D01*
X99651703Y-58384487D01*
X99651702Y-58384493D01*
X99651185Y-58386606D01*
X99650500Y-58397648D01*
X99650500Y-59623822D01*
X99665657Y-59753828D01*
X99725369Y-59918331D01*
X99726928Y-59920708D01*
X99726929Y-59920711D01*
X99751161Y-59957670D01*
X99821323Y-60064685D01*
X99948372Y-60185040D01*
X99950834Y-60186470D01*
X100097237Y-60271508D01*
X100097242Y-60271510D01*
X100099702Y-60272939D01*
X100102431Y-60273765D01*
X100102432Y-60273766D01*
X100264468Y-60322842D01*
X100264471Y-60322842D01*
X100267193Y-60323667D01*
X100354528Y-60329085D01*
X100439022Y-60334327D01*
X100439024Y-60334327D01*
X100441862Y-60334503D01*
X100614340Y-60304866D01*
X100616960Y-60303751D01*
X100616964Y-60303750D01*
X100752106Y-60246246D01*
X100775373Y-60236346D01*
X100916324Y-60132617D01*
X100920474Y-60127733D01*
X101027791Y-60001412D01*
X101029632Y-59999245D01*
X101049892Y-59959569D01*
X101107926Y-59845917D01*
X101107927Y-59845914D01*
X101109219Y-59843384D01*
X101130193Y-59757669D01*
X101152369Y-59727425D01*
X101187348Y-59721258D01*
X101228938Y-59729531D01*
X101233705Y-59730000D01*
X101526253Y-59730000D01*
X101533145Y-59727145D01*
X101536000Y-59720253D01*
X101536000Y-59539747D01*
X101836000Y-59539747D01*
X101836000Y-59720253D01*
X101838855Y-59727145D01*
X101845747Y-59730000D01*
X102138295Y-59730000D01*
X102143052Y-59729532D01*
X102194303Y-59719337D01*
X102203049Y-59715715D01*
X102261181Y-59676872D01*
X102267872Y-59670181D01*
X102306715Y-59612049D01*
X102310337Y-59603303D01*
X102320532Y-59552052D01*
X102321000Y-59547295D01*
X102321000Y-59539747D01*
X102781000Y-59539747D01*
X102781000Y-59547295D01*
X102781468Y-59552052D01*
X102791663Y-59603303D01*
X102795285Y-59612049D01*
X102834128Y-59670181D01*
X102840819Y-59676872D01*
X102898951Y-59715715D01*
X102907697Y-59719337D01*
X102958948Y-59729532D01*
X102963705Y-59730000D01*
X103256253Y-59730000D01*
X103263145Y-59727145D01*
X103266000Y-59720253D01*
X103266000Y-59539747D01*
X103263145Y-59532855D01*
X103256253Y-59530000D01*
X102790747Y-59530000D01*
X102783855Y-59532855D01*
X102781000Y-59539747D01*
X102321000Y-59539747D01*
X102318145Y-59532855D01*
X102311253Y-59530000D01*
X101845747Y-59530000D01*
X101838855Y-59532855D01*
X101836000Y-59539747D01*
X101536000Y-59539747D01*
X101536000Y-59039747D01*
X101836000Y-59039747D01*
X101836000Y-59220253D01*
X101838855Y-59227145D01*
X101845747Y-59230000D01*
X102311253Y-59230000D01*
X102318145Y-59227145D01*
X102321000Y-59220253D01*
X102321000Y-59212705D01*
X102781000Y-59212705D01*
X102781000Y-59220253D01*
X102783855Y-59227145D01*
X102790747Y-59230000D01*
X103256253Y-59230000D01*
X103263145Y-59227145D01*
X103266000Y-59220253D01*
X103266000Y-59039747D01*
X103263145Y-59032855D01*
X103256253Y-59030000D01*
X102963705Y-59030000D01*
X102958948Y-59030468D01*
X102907697Y-59040663D01*
X102898951Y-59044285D01*
X102840819Y-59083128D01*
X102834128Y-59089819D01*
X102795285Y-59147951D01*
X102791663Y-59156697D01*
X102781468Y-59207948D01*
X102781000Y-59212705D01*
X102321000Y-59212705D01*
X102320532Y-59207948D01*
X102310337Y-59156697D01*
X102306715Y-59147951D01*
X102267872Y-59089819D01*
X102261181Y-59083128D01*
X102203049Y-59044285D01*
X102194303Y-59040663D01*
X102143052Y-59030468D01*
X102138295Y-59030000D01*
X101845747Y-59030000D01*
X101838855Y-59032855D01*
X101836000Y-59039747D01*
X101536000Y-59039747D01*
X101533145Y-59032855D01*
X101526253Y-59030000D01*
X101233705Y-59030000D01*
X101228945Y-59030469D01*
X101210058Y-59034225D01*
X101173276Y-59026907D01*
X101152441Y-58995724D01*
X101151500Y-58986166D01*
X101151500Y-58436178D01*
X101136343Y-58306172D01*
X101135370Y-58303492D01*
X101135369Y-58303487D01*
X101129024Y-58286006D01*
X101130692Y-58248540D01*
X101158364Y-58223228D01*
X101184639Y-58221228D01*
X101231252Y-58230500D01*
X102140500Y-58230500D01*
X102175148Y-58244852D01*
X102178009Y-58247971D01*
X102209981Y-58286006D01*
X102212311Y-58288778D01*
X102331654Y-58368220D01*
X102468498Y-58410972D01*
X102471988Y-58411036D01*
X102491899Y-58411401D01*
X102611840Y-58413600D01*
X102750158Y-58375890D01*
X102753129Y-58374066D01*
X102753131Y-58374065D01*
X102869358Y-58302701D01*
X102872332Y-58300875D01*
X102920218Y-58247971D01*
X102921444Y-58246617D01*
X102957772Y-58230500D01*
X103870748Y-58230500D01*
X103920019Y-58220699D01*
X103956799Y-58228016D01*
X103977635Y-58259199D01*
X103977172Y-58280405D01*
X103951703Y-58384487D01*
X103951702Y-58384493D01*
X103951185Y-58386606D01*
X103950500Y-58397648D01*
X103950500Y-58986166D01*
X103936148Y-59020814D01*
X103901500Y-59035166D01*
X103891942Y-59034225D01*
X103873055Y-59030469D01*
X103868295Y-59030000D01*
X103575747Y-59030000D01*
X103568855Y-59032855D01*
X103566000Y-59039747D01*
X103566000Y-59720253D01*
X103568855Y-59727145D01*
X103575747Y-59730000D01*
X103868295Y-59730000D01*
X103873062Y-59729531D01*
X103909967Y-59722190D01*
X103946749Y-59729506D01*
X103964059Y-59754408D01*
X103965657Y-59753828D01*
X104025369Y-59918331D01*
X104026928Y-59920708D01*
X104026929Y-59920711D01*
X104051161Y-59957670D01*
X104121323Y-60064685D01*
X104248372Y-60185040D01*
X104250834Y-60186470D01*
X104397237Y-60271508D01*
X104397242Y-60271510D01*
X104399702Y-60272939D01*
X104402431Y-60273765D01*
X104402432Y-60273766D01*
X104564468Y-60322842D01*
X104564471Y-60322842D01*
X104567193Y-60323667D01*
X104654528Y-60329085D01*
X104739022Y-60334327D01*
X104739024Y-60334327D01*
X104741862Y-60334503D01*
X104914340Y-60304866D01*
X104916960Y-60303751D01*
X104916964Y-60303750D01*
X105052106Y-60246246D01*
X105075373Y-60236346D01*
X105216324Y-60132617D01*
X105220474Y-60127733D01*
X105327791Y-60001412D01*
X105329632Y-59999245D01*
X105409219Y-59843384D01*
X105431133Y-59753828D01*
X105450297Y-59675513D01*
X105450298Y-59675507D01*
X105450815Y-59673394D01*
X105451500Y-59662352D01*
X105451500Y-58436178D01*
X105436343Y-58306172D01*
X105376631Y-58141669D01*
X105280677Y-57995315D01*
X105153628Y-57874960D01*
X105144706Y-57869778D01*
X105004763Y-57788492D01*
X105004758Y-57788490D01*
X105002298Y-57787061D01*
X104999568Y-57786234D01*
X104992504Y-57784095D01*
X104967083Y-57776396D01*
X104938084Y-57752617D01*
X104934392Y-57715296D01*
X104958171Y-57686296D01*
X104981288Y-57680500D01*
X105206233Y-57680500D01*
X105240881Y-57694852D01*
X106046148Y-58500119D01*
X106060500Y-58534767D01*
X106060500Y-58718734D01*
X106046148Y-58753382D01*
X106037645Y-58760176D01*
X106033280Y-58762930D01*
X105938377Y-58870388D01*
X105877447Y-59000163D01*
X105872357Y-59032855D01*
X105855927Y-59138377D01*
X105855927Y-59138381D01*
X105855391Y-59141823D01*
X105855843Y-59145280D01*
X105855843Y-59145283D01*
X105864660Y-59212705D01*
X105873980Y-59283979D01*
X105931720Y-59415203D01*
X106023970Y-59524948D01*
X106143313Y-59604390D01*
X106146645Y-59605431D01*
X106167864Y-59612060D01*
X106280157Y-59647142D01*
X106283647Y-59647206D01*
X106303558Y-59647571D01*
X106423499Y-59649770D01*
X106561817Y-59612060D01*
X106564788Y-59610236D01*
X106564790Y-59610235D01*
X106681018Y-59538871D01*
X106681021Y-59538869D01*
X106683991Y-59537045D01*
X106693188Y-59526885D01*
X106777855Y-59433345D01*
X106777856Y-59433344D01*
X106780200Y-59430754D01*
X106787735Y-59415203D01*
X106841189Y-59304872D01*
X106842710Y-59301733D01*
X106845160Y-59287174D01*
X106866183Y-59162216D01*
X106866183Y-59162213D01*
X106866496Y-59160354D01*
X106866647Y-59148000D01*
X106846323Y-59006082D01*
X106786984Y-58875572D01*
X106780261Y-58867769D01*
X106695678Y-58769607D01*
X106693400Y-58766963D01*
X106683848Y-58760772D01*
X106662580Y-58729885D01*
X106661500Y-58719654D01*
X106661500Y-58445629D01*
X106662001Y-58438808D01*
X106663426Y-58434658D01*
X106661534Y-58384264D01*
X106661500Y-58382427D01*
X106661500Y-58362052D01*
X106661087Y-58359832D01*
X106660948Y-58358331D01*
X106660363Y-58353076D01*
X106659396Y-58327311D01*
X106659396Y-58327309D01*
X106659226Y-58322792D01*
X106657442Y-58318639D01*
X106657441Y-58318636D01*
X106652487Y-58307106D01*
X106649336Y-58296736D01*
X106647037Y-58284392D01*
X106647037Y-58284391D01*
X106646209Y-58279947D01*
X106643837Y-58276098D01*
X106643835Y-58276094D01*
X106630309Y-58254151D01*
X106627000Y-58247783D01*
X106616399Y-58223109D01*
X106616398Y-58223108D01*
X106615036Y-58219937D01*
X106611023Y-58215051D01*
X106602522Y-58206550D01*
X106595458Y-58197614D01*
X106589842Y-58188504D01*
X106587468Y-58184652D01*
X106561538Y-58164935D01*
X106556550Y-58160579D01*
X105602821Y-57206850D01*
X105598352Y-57201673D01*
X105596425Y-57197731D01*
X105559459Y-57163440D01*
X105558135Y-57162164D01*
X105543723Y-57147752D01*
X105541866Y-57146478D01*
X105540729Y-57145533D01*
X105536572Y-57142209D01*
X105517668Y-57124673D01*
X105514354Y-57121599D01*
X105510159Y-57119925D01*
X105510152Y-57119921D01*
X105498491Y-57115269D01*
X105488931Y-57110165D01*
X105479207Y-57103494D01*
X105474854Y-57100508D01*
X105470452Y-57099463D01*
X105470451Y-57099463D01*
X105461163Y-57097259D01*
X105445369Y-57093511D01*
X105438527Y-57091347D01*
X105413597Y-57081401D01*
X105413595Y-57081401D01*
X105410378Y-57080117D01*
X105406933Y-57079779D01*
X105406932Y-57079779D01*
X105405271Y-57079616D01*
X105405265Y-57079616D01*
X105404085Y-57079500D01*
X105392064Y-57079500D01*
X105380750Y-57078176D01*
X105370338Y-57075705D01*
X105370337Y-57075705D01*
X105365934Y-57074660D01*
X105340099Y-57078176D01*
X105333662Y-57079052D01*
X105327054Y-57079500D01*
X104750027Y-57079500D01*
X104715379Y-57065148D01*
X104701027Y-57030500D01*
X104701706Y-57022370D01*
X104723183Y-56894716D01*
X104723183Y-56894713D01*
X104723496Y-56892854D01*
X104723647Y-56880500D01*
X104719370Y-56850637D01*
X104728665Y-56814304D01*
X104754985Y-56796415D01*
X104838817Y-56773560D01*
X104841788Y-56771736D01*
X104841790Y-56771735D01*
X104958018Y-56700371D01*
X104958021Y-56700369D01*
X104960991Y-56698545D01*
X104999043Y-56656506D01*
X105054855Y-56594845D01*
X105054856Y-56594844D01*
X105057200Y-56592254D01*
X105087846Y-56529000D01*
X118133754Y-56529000D01*
X118152720Y-56830457D01*
X118209319Y-57127160D01*
X118302659Y-57414430D01*
X118303307Y-57415808D01*
X118303309Y-57415812D01*
X118412922Y-57648750D01*
X118431267Y-57687736D01*
X118432094Y-57689039D01*
X118432095Y-57689041D01*
X118462631Y-57737158D01*
X118593115Y-57942768D01*
X118785651Y-58175504D01*
X118786770Y-58176554D01*
X118786772Y-58176557D01*
X118819784Y-58207557D01*
X119005838Y-58382274D01*
X119250205Y-58559816D01*
X119514896Y-58705332D01*
X119795738Y-58816525D01*
X120088302Y-58891642D01*
X120089819Y-58891834D01*
X120089821Y-58891834D01*
X120141680Y-58898385D01*
X120387973Y-58929500D01*
X120690027Y-58929500D01*
X120936320Y-58898385D01*
X120988179Y-58891834D01*
X120988181Y-58891834D01*
X120989698Y-58891642D01*
X121282262Y-58816525D01*
X121563104Y-58705332D01*
X121827795Y-58559816D01*
X122072162Y-58382274D01*
X122258216Y-58207557D01*
X122291228Y-58176557D01*
X122291230Y-58176554D01*
X122292349Y-58175504D01*
X122484885Y-57942768D01*
X122615369Y-57737158D01*
X122645905Y-57689041D01*
X122645906Y-57689039D01*
X122646733Y-57687736D01*
X122665078Y-57648750D01*
X122774691Y-57415812D01*
X122774693Y-57415808D01*
X122775341Y-57414430D01*
X122868681Y-57127160D01*
X122925280Y-56830457D01*
X122944246Y-56529000D01*
X122925280Y-56227543D01*
X122868681Y-55930840D01*
X122775341Y-55643570D01*
X122768956Y-55630000D01*
X122647389Y-55371658D01*
X122646733Y-55370264D01*
X122621465Y-55330447D01*
X122485715Y-55116540D01*
X122484885Y-55115232D01*
X122432118Y-55051447D01*
X122396680Y-55008610D01*
X122292349Y-54882496D01*
X122283969Y-54874626D01*
X122159648Y-54757881D01*
X122072162Y-54675726D01*
X121827795Y-54498184D01*
X121563104Y-54352668D01*
X121360559Y-54272475D01*
X121283687Y-54242039D01*
X121283684Y-54242038D01*
X121282262Y-54241475D01*
X120989698Y-54166358D01*
X120988181Y-54166166D01*
X120988179Y-54166166D01*
X120935412Y-54159500D01*
X120690027Y-54128500D01*
X120387973Y-54128500D01*
X120142588Y-54159500D01*
X120089821Y-54166166D01*
X120089819Y-54166166D01*
X120088302Y-54166358D01*
X119795738Y-54241475D01*
X119794316Y-54242038D01*
X119794313Y-54242039D01*
X119717441Y-54272475D01*
X119514896Y-54352668D01*
X119250205Y-54498184D01*
X119005838Y-54675726D01*
X118918352Y-54757881D01*
X118794032Y-54874626D01*
X118785651Y-54882496D01*
X118681320Y-55008610D01*
X118645883Y-55051447D01*
X118593115Y-55115232D01*
X118592285Y-55116540D01*
X118456536Y-55330447D01*
X118431267Y-55370264D01*
X118430611Y-55371658D01*
X118309045Y-55630000D01*
X118302659Y-55643570D01*
X118209319Y-55930840D01*
X118152720Y-56227543D01*
X118133754Y-56529000D01*
X105087846Y-56529000D01*
X105119710Y-56463233D01*
X105140122Y-56341913D01*
X105143183Y-56323716D01*
X105143183Y-56323713D01*
X105143496Y-56321854D01*
X105143647Y-56309500D01*
X105123323Y-56167582D01*
X105063984Y-56037072D01*
X105057261Y-56029269D01*
X104972680Y-55931109D01*
X104970400Y-55928463D01*
X104850095Y-55850485D01*
X104712739Y-55809407D01*
X104641681Y-55808973D01*
X104572868Y-55808552D01*
X104572866Y-55808552D01*
X104569376Y-55808531D01*
X104566021Y-55809490D01*
X104566020Y-55809490D01*
X104447407Y-55843390D01*
X104431529Y-55847928D01*
X104310280Y-55924430D01*
X104215377Y-56031888D01*
X104213894Y-56035048D01*
X104213890Y-56035053D01*
X104206250Y-56051325D01*
X104178534Y-56076589D01*
X104161896Y-56079500D01*
X104100500Y-56079500D01*
X104065852Y-56065148D01*
X104051500Y-56030500D01*
X104051500Y-55710252D01*
X104039867Y-55651769D01*
X104037597Y-55648372D01*
X104037597Y-55611628D01*
X104039867Y-55608231D01*
X104051500Y-55549748D01*
X104051500Y-55312455D01*
X104065852Y-55277807D01*
X104100500Y-55263455D01*
X104134198Y-55276882D01*
X104232774Y-55370264D01*
X104248372Y-55385040D01*
X104250834Y-55386470D01*
X104397237Y-55471508D01*
X104397242Y-55471510D01*
X104399702Y-55472939D01*
X104402431Y-55473765D01*
X104402432Y-55473766D01*
X104564468Y-55522842D01*
X104564471Y-55522842D01*
X104567193Y-55523667D01*
X104654527Y-55529085D01*
X104739022Y-55534327D01*
X104739024Y-55534327D01*
X104741862Y-55534503D01*
X104914340Y-55504866D01*
X104916960Y-55503751D01*
X104916964Y-55503750D01*
X105072750Y-55437462D01*
X105072749Y-55437462D01*
X105075373Y-55436346D01*
X105216324Y-55332617D01*
X105263675Y-55276882D01*
X105327791Y-55201412D01*
X105329632Y-55199245D01*
X105409219Y-55043384D01*
X105419818Y-55000069D01*
X105450297Y-54875513D01*
X105450298Y-54875507D01*
X105450815Y-54873394D01*
X105451500Y-54862352D01*
X105451500Y-53636178D01*
X105436343Y-53506172D01*
X105376631Y-53341669D01*
X105354607Y-53308076D01*
X105323581Y-53260755D01*
X105280677Y-53195315D01*
X105153628Y-53074960D01*
X105118901Y-53054789D01*
X105004763Y-52988492D01*
X105004758Y-52988490D01*
X105002298Y-52987061D01*
X104999569Y-52986235D01*
X104999568Y-52986234D01*
X104837532Y-52937158D01*
X104837529Y-52937158D01*
X104834807Y-52936333D01*
X104747473Y-52930915D01*
X104662978Y-52925673D01*
X104662976Y-52925673D01*
X104660138Y-52925497D01*
X104487660Y-52955134D01*
X104485040Y-52956249D01*
X104485036Y-52956250D01*
X104400619Y-52992170D01*
X104326627Y-53023654D01*
X104185676Y-53127383D01*
X104072368Y-53260755D01*
X104071076Y-53263284D01*
X104071076Y-53263285D01*
X104029687Y-53344341D01*
X103992781Y-53416616D01*
X103985801Y-53445142D01*
X103971807Y-53502331D01*
X103949631Y-53532575D01*
X103914652Y-53538742D01*
X103873062Y-53530469D01*
X103868295Y-53530000D01*
X103575747Y-53530000D01*
X103568855Y-53532855D01*
X103566000Y-53539747D01*
X103566000Y-54220253D01*
X103568855Y-54227145D01*
X103575747Y-54230000D01*
X103868295Y-54230000D01*
X103873055Y-54229531D01*
X103891942Y-54225775D01*
X103928724Y-54233093D01*
X103949559Y-54264276D01*
X103950500Y-54273834D01*
X103950500Y-54823822D01*
X103965657Y-54953828D01*
X103966629Y-54956505D01*
X103966631Y-54956513D01*
X103972976Y-54973994D01*
X103971308Y-55011460D01*
X103943636Y-55036772D01*
X103917361Y-55038772D01*
X103870748Y-55029500D01*
X102957141Y-55029500D01*
X102920021Y-55012486D01*
X102916681Y-55008610D01*
X102916680Y-55008609D01*
X102914400Y-55005963D01*
X102794095Y-54927985D01*
X102656739Y-54886907D01*
X102585681Y-54886473D01*
X102516868Y-54886052D01*
X102516866Y-54886052D01*
X102513376Y-54886031D01*
X102510021Y-54886990D01*
X102510020Y-54886990D01*
X102420962Y-54912443D01*
X102375529Y-54925428D01*
X102254280Y-55001930D01*
X102244957Y-55012486D01*
X102244560Y-55012936D01*
X102207833Y-55029500D01*
X101231252Y-55029500D01*
X101181981Y-55039301D01*
X101145201Y-55031984D01*
X101124365Y-55000801D01*
X101124828Y-54979595D01*
X101150297Y-54875513D01*
X101150298Y-54875507D01*
X101150815Y-54873394D01*
X101151500Y-54862352D01*
X101151500Y-54273834D01*
X101165852Y-54239186D01*
X101200500Y-54224834D01*
X101210058Y-54225775D01*
X101228945Y-54229531D01*
X101233705Y-54230000D01*
X101526253Y-54230000D01*
X101533145Y-54227145D01*
X101536000Y-54220253D01*
X101536000Y-54039747D01*
X101836000Y-54039747D01*
X101836000Y-54220253D01*
X101838855Y-54227145D01*
X101845747Y-54230000D01*
X102138295Y-54230000D01*
X102143052Y-54229532D01*
X102194303Y-54219337D01*
X102203049Y-54215715D01*
X102261181Y-54176872D01*
X102267872Y-54170181D01*
X102306715Y-54112049D01*
X102310337Y-54103303D01*
X102320532Y-54052052D01*
X102321000Y-54047295D01*
X102321000Y-54039747D01*
X102781000Y-54039747D01*
X102781000Y-54047295D01*
X102781468Y-54052052D01*
X102791663Y-54103303D01*
X102795285Y-54112049D01*
X102834128Y-54170181D01*
X102840819Y-54176872D01*
X102898951Y-54215715D01*
X102907697Y-54219337D01*
X102958948Y-54229532D01*
X102963705Y-54230000D01*
X103256253Y-54230000D01*
X103263145Y-54227145D01*
X103266000Y-54220253D01*
X103266000Y-54039747D01*
X103263145Y-54032855D01*
X103256253Y-54030000D01*
X102790747Y-54030000D01*
X102783855Y-54032855D01*
X102781000Y-54039747D01*
X102321000Y-54039747D01*
X102318145Y-54032855D01*
X102311253Y-54030000D01*
X101845747Y-54030000D01*
X101838855Y-54032855D01*
X101836000Y-54039747D01*
X101536000Y-54039747D01*
X101536000Y-53539747D01*
X101836000Y-53539747D01*
X101836000Y-53720253D01*
X101838855Y-53727145D01*
X101845747Y-53730000D01*
X102311253Y-53730000D01*
X102318145Y-53727145D01*
X102321000Y-53720253D01*
X102321000Y-53712705D01*
X102781000Y-53712705D01*
X102781000Y-53720253D01*
X102783855Y-53727145D01*
X102790747Y-53730000D01*
X103256253Y-53730000D01*
X103263145Y-53727145D01*
X103266000Y-53720253D01*
X103266000Y-53539747D01*
X103263145Y-53532855D01*
X103256253Y-53530000D01*
X102963705Y-53530000D01*
X102958948Y-53530468D01*
X102907697Y-53540663D01*
X102898951Y-53544285D01*
X102840819Y-53583128D01*
X102834128Y-53589819D01*
X102795285Y-53647951D01*
X102791663Y-53656697D01*
X102781468Y-53707948D01*
X102781000Y-53712705D01*
X102321000Y-53712705D01*
X102320532Y-53707948D01*
X102310337Y-53656697D01*
X102306715Y-53647951D01*
X102267872Y-53589819D01*
X102261181Y-53583128D01*
X102203049Y-53544285D01*
X102194303Y-53540663D01*
X102143052Y-53530468D01*
X102138295Y-53530000D01*
X101845747Y-53530000D01*
X101838855Y-53532855D01*
X101836000Y-53539747D01*
X101536000Y-53539747D01*
X101533145Y-53532855D01*
X101526253Y-53530000D01*
X101233705Y-53530000D01*
X101228938Y-53530469D01*
X101192033Y-53537810D01*
X101155251Y-53530494D01*
X101137941Y-53505592D01*
X101136343Y-53506172D01*
X101077601Y-53344341D01*
X101077601Y-53344340D01*
X101076631Y-53341669D01*
X101054607Y-53308076D01*
X101023581Y-53260755D01*
X100980677Y-53195315D01*
X100853628Y-53074960D01*
X100818901Y-53054789D01*
X100704763Y-52988492D01*
X100704758Y-52988490D01*
X100702298Y-52987061D01*
X100699569Y-52986235D01*
X100699568Y-52986234D01*
X100537532Y-52937158D01*
X100537529Y-52937158D01*
X100534807Y-52936333D01*
X100447473Y-52930915D01*
X100362978Y-52925673D01*
X100362976Y-52925673D01*
X100360138Y-52925497D01*
X100187660Y-52955134D01*
X100185040Y-52956249D01*
X100185036Y-52956250D01*
X100100619Y-52992170D01*
X100026627Y-53023654D01*
X99885676Y-53127383D01*
X99772368Y-53260755D01*
X99692781Y-53416616D01*
X99692104Y-53419383D01*
X99651703Y-53584487D01*
X99651702Y-53584493D01*
X99651185Y-53586606D01*
X99650500Y-53597648D01*
X99650500Y-54823822D01*
X99665657Y-54953828D01*
X99725369Y-55118331D01*
X99821323Y-55264685D01*
X99948372Y-55385040D01*
X99950834Y-55386470D01*
X100097237Y-55471508D01*
X100097242Y-55471510D01*
X100099702Y-55472939D01*
X100102428Y-55473765D01*
X100102429Y-55473765D01*
X100109496Y-55475905D01*
X100134917Y-55483604D01*
X100163916Y-55507383D01*
X100167608Y-55544704D01*
X100143829Y-55573704D01*
X100120712Y-55579500D01*
X100005767Y-55579500D01*
X99971119Y-55565148D01*
X99163852Y-54757881D01*
X99149500Y-54723233D01*
X99149500Y-54484080D01*
X99163852Y-54449432D01*
X99167198Y-54446382D01*
X99169020Y-54444869D01*
X99171991Y-54443045D01*
X99253796Y-54352668D01*
X99265855Y-54339345D01*
X99265856Y-54339344D01*
X99268200Y-54336754D01*
X99275735Y-54321203D01*
X99329189Y-54210872D01*
X99330710Y-54207733D01*
X99332392Y-54197739D01*
X99354183Y-54068216D01*
X99354183Y-54068213D01*
X99354496Y-54066354D01*
X99354647Y-54054000D01*
X99334323Y-53912082D01*
X99274984Y-53781572D01*
X99268261Y-53773769D01*
X99183680Y-53675609D01*
X99181400Y-53672963D01*
X99061095Y-53594985D01*
X98923739Y-53553907D01*
X98852681Y-53553473D01*
X98783868Y-53553052D01*
X98783866Y-53553052D01*
X98780376Y-53553031D01*
X98777021Y-53553990D01*
X98777020Y-53553990D01*
X98645884Y-53591469D01*
X98642529Y-53592428D01*
X98521280Y-53668930D01*
X98426377Y-53776388D01*
X98365447Y-53906163D01*
X98356222Y-53965415D01*
X98343927Y-54044377D01*
X98343927Y-54044381D01*
X98343391Y-54047823D01*
X81667577Y-54047823D01*
X81668144Y-54045359D01*
X81665524Y-54033778D01*
X81664393Y-54020218D01*
X81680453Y-53734250D01*
X81681068Y-53728790D01*
X81732743Y-53424653D01*
X81733966Y-53419296D01*
X81819367Y-53122861D01*
X81821182Y-53117675D01*
X81827240Y-53103050D01*
X81921984Y-52874316D01*
X102085800Y-52874316D01*
X102086252Y-52877773D01*
X102086252Y-52877776D01*
X102090586Y-52910917D01*
X102091000Y-52917270D01*
X102091000Y-52951497D01*
X102089734Y-52962561D01*
X102085858Y-52979283D01*
X102085857Y-52979999D01*
X102086473Y-52982700D01*
X102088123Y-52989936D01*
X102088931Y-52994435D01*
X102102840Y-53100084D01*
X102104067Y-53103046D01*
X102104068Y-53103050D01*
X102141475Y-53193357D01*
X102149191Y-53211984D01*
X102222924Y-53308076D01*
X102319016Y-53381809D01*
X102321983Y-53383038D01*
X102427950Y-53426932D01*
X102427954Y-53426933D01*
X102430916Y-53428160D01*
X102434097Y-53428579D01*
X102434098Y-53428579D01*
X102481944Y-53434878D01*
X102535276Y-53441899D01*
X102539936Y-53442744D01*
X102544291Y-53443753D01*
X102547581Y-53444516D01*
X102547583Y-53444516D01*
X102550283Y-53445142D01*
X102550999Y-53445143D01*
X102551001Y-53445143D01*
X102553677Y-53444533D01*
X102553683Y-53444532D01*
X102560938Y-53442877D01*
X102565437Y-53442069D01*
X102667902Y-53428579D01*
X102667903Y-53428579D01*
X102671084Y-53428160D01*
X102674046Y-53426933D01*
X102674050Y-53426932D01*
X102780017Y-53383038D01*
X102782984Y-53381809D01*
X102879076Y-53308076D01*
X102952809Y-53211984D01*
X102960525Y-53193357D01*
X102997932Y-53103050D01*
X102997933Y-53103046D01*
X102999160Y-53100084D01*
X103012899Y-52995722D01*
X103013745Y-52991056D01*
X103014340Y-52988492D01*
X103016142Y-52980715D01*
X103016143Y-52979999D01*
X103012227Y-52962832D01*
X103011000Y-52951934D01*
X103011000Y-52925751D01*
X103011679Y-52917621D01*
X103015783Y-52893229D01*
X103015783Y-52893226D01*
X103016096Y-52891367D01*
X103016235Y-52880000D01*
X103011495Y-52846901D01*
X103011000Y-52839955D01*
X103011000Y-52808503D01*
X103012266Y-52797439D01*
X103015515Y-52783420D01*
X103016142Y-52780717D01*
X103016143Y-52780001D01*
X103015527Y-52777300D01*
X103013877Y-52770064D01*
X103013069Y-52765565D01*
X102999579Y-52663098D01*
X102999579Y-52663097D01*
X102999160Y-52659916D01*
X102997933Y-52656954D01*
X102997932Y-52656950D01*
X102954038Y-52550983D01*
X102952809Y-52548016D01*
X102879076Y-52451924D01*
X102782984Y-52378191D01*
X102780017Y-52376962D01*
X102674050Y-52333068D01*
X102674046Y-52333067D01*
X102671084Y-52331840D01*
X102667903Y-52331421D01*
X102667902Y-52331421D01*
X102620056Y-52325122D01*
X102566724Y-52318101D01*
X102562064Y-52317256D01*
X102557709Y-52316247D01*
X102554419Y-52315484D01*
X102554417Y-52315484D01*
X102551717Y-52314858D01*
X102551001Y-52314857D01*
X102550999Y-52314857D01*
X102548323Y-52315467D01*
X102548317Y-52315468D01*
X102541062Y-52317123D01*
X102536563Y-52317931D01*
X102434098Y-52331421D01*
X102434097Y-52331421D01*
X102430916Y-52331840D01*
X102427954Y-52333067D01*
X102427950Y-52333068D01*
X102321983Y-52376962D01*
X102319016Y-52378191D01*
X102222924Y-52451924D01*
X102149191Y-52548016D01*
X102147962Y-52550983D01*
X102104068Y-52656950D01*
X102104067Y-52656954D01*
X102102840Y-52659916D01*
X102102421Y-52663097D01*
X102102421Y-52663098D01*
X102089101Y-52764276D01*
X102088256Y-52768938D01*
X102085858Y-52779285D01*
X102085857Y-52780001D01*
X102086472Y-52782697D01*
X102089773Y-52797168D01*
X102091000Y-52808066D01*
X102091000Y-52837124D01*
X102090417Y-52844663D01*
X102085800Y-52874316D01*
X81921984Y-52874316D01*
X81939236Y-52832667D01*
X81941618Y-52827720D01*
X81952481Y-52808066D01*
X82090844Y-52557718D01*
X82093762Y-52553073D01*
X82272287Y-52301465D01*
X82275702Y-52297183D01*
X82481268Y-52067154D01*
X82485154Y-52063268D01*
X82715183Y-51857702D01*
X82719465Y-51854287D01*
X82971073Y-51675762D01*
X82975718Y-51672844D01*
X83110719Y-51598231D01*
X83245724Y-51523616D01*
X83250667Y-51521236D01*
X83535678Y-51403181D01*
X83540861Y-51401367D01*
X83837296Y-51315966D01*
X83842653Y-51314743D01*
X84146790Y-51263068D01*
X84152250Y-51262453D01*
X84371427Y-51250144D01*
X84437792Y-51246417D01*
X84451517Y-51247586D01*
X84455882Y-51248589D01*
X84457267Y-51248908D01*
X84457268Y-51248908D01*
X84462643Y-51250144D01*
X84480034Y-51246209D01*
X84490847Y-51245001D01*
X120434714Y-51245001D01*
X120445695Y-51246247D01*
G37*
%TD.AperFunction*%
%TD*%
M02*
