%TF.GenerationSoftware,KiCad,Pcbnew,6.0.0-rc1-unknown-caf406943e~144~ubuntu21.04.1*%
%TF.CreationDate,2021-12-13T18:45:12+01:00*%
%TF.ProjectId,pcb-solder,7063622d-736f-46c6-9465-722e6b696361,1.0*%
%TF.SameCoordinates,Original*%
%TF.FileFunction,Profile,NP*%
%FSLAX46Y46*%
G04 Gerber Fmt 4.6, Leading zero omitted, Abs format (unit mm)*
G04 Created by KiCad (PCBNEW 6.0.0-rc1-unknown-caf406943e~144~ubuntu21.04.1) date 2021-12-13 18:45:12*
%MOMM*%
%LPD*%
G01*
G04 APERTURE LIST*
%TA.AperFunction,Profile*%
%ADD10C,0.100000*%
%TD*%
G04 APERTURE END LIST*
D10*
X356903000Y-108769751D02*
G75*
G03*
X358403004Y-107269753I3J1500001D01*
G01*
X143631000Y-184888750D02*
X143631000Y-184538750D01*
X150431001Y-186388750D02*
X258772000Y-186388750D01*
X74903000Y-132013750D02*
X75003000Y-132013750D01*
X260877999Y-93238750D02*
G75*
G03*
X266178001Y-93238750I2650001J0D01*
G01*
X265572000Y-184888750D02*
G75*
G03*
X267071998Y-186388752I1500000J-2D01*
G01*
X73403000Y-184388750D02*
G75*
G03*
X75402999Y-186388751I2000000J-1D01*
G01*
X260272000Y-184888750D02*
X260272000Y-184538750D01*
X358403000Y-115569750D02*
G75*
G03*
X356903002Y-114069748I-1500000J2D01*
G01*
X358403000Y-107269750D02*
X358403000Y-93388750D01*
X358403000Y-184388750D02*
X358403000Y-151957750D01*
X356903000Y-150457750D02*
X356803000Y-150457750D01*
X265572000Y-184888750D02*
X265572000Y-184538750D01*
X356803000Y-108769750D02*
G75*
G03*
X356803000Y-114069750I0J-2650000D01*
G01*
X148931001Y-184538750D02*
G75*
G03*
X143630999Y-184538750I-2650001J0D01*
G01*
X259378000Y-91388750D02*
X172428000Y-91388750D01*
X73403000Y-133513750D02*
X73403000Y-144263750D01*
X165628000Y-92888750D02*
X165628000Y-93238750D01*
X164128000Y-91388750D02*
X75403000Y-91388750D01*
X74903000Y-151063749D02*
G75*
G03*
X73402996Y-152563747I-3J-1500001D01*
G01*
X148931001Y-184888750D02*
G75*
G03*
X150430999Y-186388752I1500000J-2D01*
G01*
X260878000Y-92888750D02*
X260878000Y-93238750D01*
X73403000Y-125213750D02*
G75*
G03*
X74902998Y-126713752I1500000J-2D01*
G01*
X165628000Y-93238750D02*
G75*
G03*
X170928000Y-93238750I2650000J0D01*
G01*
X75403000Y-186388750D02*
X142131000Y-186388750D01*
X258772000Y-186388750D02*
G75*
G03*
X260272002Y-184888752I2J1500000D01*
G01*
X148931001Y-184888750D02*
X148931001Y-184538750D01*
X266178000Y-92888750D02*
X266178000Y-93238750D01*
X356803000Y-145157750D02*
G75*
G03*
X356803000Y-150457750I0J-2650000D01*
G01*
X75003000Y-132013750D02*
G75*
G03*
X75003000Y-126713750I0J2650000D01*
G01*
X74903000Y-126713750D02*
X75003000Y-126713750D01*
X358403000Y-151957750D02*
G75*
G03*
X356903002Y-150457748I-1500000J2D01*
G01*
X356903000Y-145157750D02*
G75*
G03*
X358403002Y-143657752I2J1500000D01*
G01*
X172428000Y-91388751D02*
G75*
G03*
X170928000Y-92888749I-1J-1499999D01*
G01*
X74903000Y-145763750D02*
X75003000Y-145763750D01*
X356903000Y-145157750D02*
X356803000Y-145157750D01*
X356403000Y-186388750D02*
G75*
G03*
X358403001Y-184388751I1J2000000D01*
G01*
X267072000Y-186388750D02*
X356403000Y-186388750D01*
X358403000Y-143657750D02*
X358403000Y-115569750D01*
X358403000Y-93388750D02*
G75*
G03*
X356403001Y-91388749I-2000000J1D01*
G01*
X356403000Y-91388750D02*
X267678000Y-91388750D01*
X74903000Y-151063750D02*
X75003000Y-151063750D01*
X74903000Y-132013750D02*
G75*
G03*
X73402998Y-133513748I-2J-1500000D01*
G01*
X170928000Y-92888750D02*
X170928000Y-93238750D01*
X260877999Y-92888750D02*
G75*
G03*
X259378001Y-91388750I-1499999J1D01*
G01*
X356903000Y-108769750D02*
X356803000Y-108769750D01*
X75003000Y-151063750D02*
G75*
G03*
X75003000Y-145763750I0J2650000D01*
G01*
X75403000Y-91388750D02*
G75*
G03*
X73402999Y-93388749I-1J-2000000D01*
G01*
X267678000Y-91388750D02*
G75*
G03*
X266177998Y-92888748I-2J-1500000D01*
G01*
X165628000Y-92888750D02*
G75*
G03*
X164128002Y-91388748I-1500000J2D01*
G01*
X73403000Y-93388750D02*
X73403000Y-125213750D01*
X73403000Y-144263750D02*
G75*
G03*
X74902998Y-145763752I1500000J-2D01*
G01*
X142131000Y-186388750D02*
G75*
G03*
X143631002Y-184888752I2J1500000D01*
G01*
X356903000Y-114069750D02*
X356803000Y-114069750D01*
X265572000Y-184538750D02*
G75*
G03*
X260272000Y-184538750I-2650000J0D01*
G01*
X73403000Y-152563750D02*
X73403000Y-184388750D01*
M02*
