M48
; DRILL file {KiCad 7.0.1} date Tue 25 Apr 2023 07:56:53 PM CEST
; FORMAT={-:-/ absolute / metric / decimal}
; #@! TF.CreationDate,2023-04-25T19:56:53+02:00
; #@! TF.GenerationSoftware,Kicad,Pcbnew,7.0.1
; #@! TF.FileFunction,MixedPlating,1,2
FMAT,2
METRIC
; #@! TA.AperFunction,Plated,PTH,ComponentDrill
T1C0.300
; #@! TA.AperFunction,Plated,PTH,ViaDrill
T2C0.400
; #@! TA.AperFunction,Plated,PTH,ComponentDrill
T3C1.000
; #@! TA.AperFunction,Plated,PTH,ComponentDrill
T4C1.500
; #@! TA.AperFunction,NonPlated,NPTH,ComponentDrill
T5C1.750
; #@! TA.AperFunction,NonPlated,NPTH,ComponentDrill
T6C2.000
; #@! TA.AperFunction,NonPlated,NPTH,ComponentDrill
T7C3.048
; #@! TA.AperFunction,NonPlated,NPTH,ComponentDrill
T8C3.988
; #@! TA.AperFunction,NonPlated,NPTH,ComponentDrill
T9C4.000
%
G90
G05
T1
X212.577Y-125.412
X214.238Y-123.751
X214.238Y-125.412
X214.238Y-127.074
X215.9Y-122.089
X215.9Y-123.751
X215.9Y-125.412
X215.9Y-127.074
X215.9Y-128.736
X217.562Y-123.751
X217.562Y-125.412
X217.562Y-127.074
X219.223Y-125.412
T2
X83.504Y-128.706
X89.599Y-135.487
X107.315Y-128.314
X126.365Y-127.936
X145.415Y-127.556
X164.465Y-127.15
X183.515Y-126.792
X196.572Y-120.407
X202.565Y-126.401
X204.924Y-112.572
X207.373Y-181.872
X209.805Y-93.519
X209.923Y-121.274
X210.85Y-121.251
X210.953Y-131.643
X211.13Y-105.582
X211.176Y-169.695
X211.38Y-125.475
X211.777Y-121.274
X212.27Y-129.677
X212.387Y-112.538
X212.704Y-121.294
X213.43Y-129.667
X213.632Y-121.294
X213.735Y-115.429
X214.141Y-110.765
X214.335Y-150.646
X216.014Y-120.633
X216.297Y-131.352
X216.492Y-119.837
X217.29Y-131.422
X217.291Y-130.495
X218.224Y-129.582
X218.234Y-130.515
X219.195Y-129.63
X219.296Y-142.03
X220.435Y-122.51
X220.51Y-127.961
X221.966Y-126.66
X225.1Y-126.657
X225.947Y-127.035
X226.729Y-92.564
X226.804Y-127.412
X227.418Y-123.442
X227.73Y-127.79
X228.253Y-123.846
X228.587Y-128.167
X229.034Y-124.347
X239.582Y-143.14
X240.671Y-128.167
X259.724Y-127.79
X278.768Y-127.412
X297.829Y-127.035
X316.859Y-126.657
X333.319Y-133.823
X347.36Y-138.684
T3
X223.375Y-106.259
X223.375Y-108.799
X223.375Y-111.339
X225.915Y-106.259
X225.915Y-108.799
X225.915Y-111.339
T4
X78.74Y-98.266
X81.121Y-136.366
X81.121Y-155.416
X81.121Y-174.466
X83.502Y-117.316
X83.502Y-174.466
X85.09Y-95.726
X85.884Y-136.366
X87.471Y-133.826
X87.471Y-152.876
X87.471Y-171.926
X89.852Y-114.776
X89.852Y-171.926
X90.646Y-155.416
X92.234Y-133.826
X96.996Y-152.876
X97.79Y-98.266
X102.552Y-155.416
X104.14Y-95.726
X104.934Y-174.466
X107.315Y-117.316
X107.315Y-174.466
X108.902Y-152.876
X111.284Y-171.926
X112.078Y-136.366
X113.665Y-114.776
X113.665Y-171.926
X116.84Y-98.266
X118.427Y-133.826
X121.602Y-155.416
X123.19Y-95.726
X126.365Y-117.316
X127.953Y-152.876
X128.746Y-174.466
X131.127Y-136.366
X131.127Y-174.466
X132.715Y-114.776
X135.096Y-171.926
X135.89Y-98.266
X137.477Y-133.826
X137.477Y-171.926
X140.653Y-155.416
X142.24Y-95.726
X145.415Y-117.316
X147.002Y-152.876
X150.177Y-136.366
X151.765Y-114.776
X154.94Y-98.266
X156.528Y-133.826
X159.702Y-155.416
X161.29Y-95.726
X164.465Y-117.316
X166.052Y-152.876
X169.227Y-136.366
X170.815Y-114.776
X171.609Y-174.466
X173.99Y-98.266
X175.577Y-133.826
X177.959Y-171.926
X178.752Y-155.416
X180.34Y-95.726
X183.515Y-117.316
X185.102Y-152.876
X188.278Y-136.366
X189.865Y-114.776
X193.04Y-98.266
X194.627Y-133.826
X197.802Y-155.416
X199.39Y-95.726
X200.184Y-174.466
X202.565Y-117.316
X204.153Y-152.876
X206.534Y-171.926
X207.327Y-136.366
X207.327Y-174.466
X208.915Y-114.776
X212.09Y-98.266
X212.09Y-174.466
X213.677Y-133.826
X213.677Y-171.926
X216.852Y-155.416
X218.44Y-95.726
X218.44Y-171.926
X221.615Y-117.316
X223.202Y-152.876
X226.377Y-136.366
X227.965Y-114.776
X231.14Y-98.266
X232.727Y-133.826
X235.903Y-155.416
X237.49Y-95.726
X238.284Y-174.466
X240.665Y-117.316
X242.252Y-152.876
X244.634Y-171.926
X245.427Y-136.366
X247.015Y-114.776
X250.19Y-98.266
X251.777Y-133.826
X254.952Y-155.416
X256.54Y-95.726
X259.715Y-117.316
X261.303Y-152.876
X264.477Y-136.366
X266.065Y-114.776
X269.24Y-98.266
X270.827Y-133.826
X271.621Y-174.466
X274.002Y-155.416
X275.59Y-95.726
X277.971Y-171.926
X278.765Y-117.316
X280.352Y-152.876
X283.527Y-136.366
X285.115Y-114.776
X288.29Y-98.266
X289.877Y-133.826
X293.053Y-155.416
X293.053Y-174.466
X294.64Y-95.726
X295.434Y-174.466
X297.815Y-117.316
X299.402Y-152.876
X299.402Y-171.926
X301.784Y-171.926
X302.577Y-136.366
X304.165Y-114.776
X307.34Y-98.266
X308.928Y-133.826
X313.69Y-95.726
X316.865Y-117.316
X316.865Y-174.466
X319.246Y-155.416
X319.246Y-174.466
X321.627Y-136.366
X323.215Y-114.776
X323.215Y-171.926
X325.596Y-152.876
X325.596Y-171.926
X326.39Y-98.266
X327.977Y-133.826
X328.771Y-155.416
X332.74Y-95.726
X333.534Y-136.366
X335.121Y-152.876
X335.915Y-98.266
X339.884Y-133.826
X340.678Y-117.316
X340.678Y-174.466
X342.265Y-95.726
X343.059Y-174.466
X345.44Y-98.266
X345.44Y-155.416
X347.027Y-114.776
X347.027Y-171.926
X349.409Y-125.571
X349.409Y-171.926
X351.79Y-95.726
X351.79Y-152.876
X351.949Y-131.921
T5
X77.47Y-100.806
X79.851Y-138.906
X79.851Y-157.956
X79.851Y-177.006
X82.233Y-119.856
X82.233Y-177.006
X84.614Y-138.906
X87.63Y-100.806
X89.376Y-157.956
X90.011Y-138.906
X90.011Y-157.956
X90.011Y-177.006
X92.392Y-119.856
X92.392Y-177.006
X94.774Y-138.906
X96.52Y-100.806
X99.536Y-157.956
X101.282Y-157.956
X103.664Y-177.006
X106.045Y-119.856
X106.045Y-177.006
X106.68Y-100.806
X110.807Y-138.906
X111.442Y-157.956
X113.824Y-177.006
X115.57Y-100.806
X116.205Y-119.856
X116.205Y-177.006
X120.332Y-157.956
X120.968Y-138.906
X125.095Y-119.856
X125.73Y-100.806
X127.476Y-177.006
X129.857Y-138.906
X129.857Y-177.006
X130.493Y-157.956
X134.62Y-100.806
X135.255Y-119.856
X137.636Y-177.006
X139.382Y-157.956
X140.017Y-138.906
X140.017Y-177.006
X144.145Y-119.856
X144.78Y-100.806
X148.907Y-138.906
X149.542Y-157.956
X153.67Y-100.806
X154.305Y-119.856
X158.433Y-157.956
X159.067Y-138.906
X163.195Y-119.856
X163.83Y-100.806
X167.957Y-138.906
X168.593Y-157.956
X170.339Y-177.006
X172.72Y-100.806
X173.355Y-119.856
X177.482Y-157.956
X178.117Y-138.906
X180.499Y-177.006
X182.245Y-119.856
X182.88Y-100.806
X187.007Y-138.906
X187.642Y-157.956
X191.77Y-100.806
X192.405Y-119.856
X196.532Y-157.956
X197.167Y-138.906
X198.914Y-177.006
X201.295Y-119.856
X201.93Y-100.806
X206.058Y-138.906
X206.058Y-177.006
X206.692Y-157.956
X209.074Y-177.006
X210.82Y-100.806
X210.82Y-177.006
X211.455Y-119.856
X215.582Y-157.956
X216.218Y-138.906
X216.218Y-177.006
X220.345Y-119.856
X220.98Y-100.806
X220.98Y-177.006
X225.107Y-138.906
X225.742Y-157.956
X229.87Y-100.806
X230.505Y-119.856
X234.632Y-157.956
X235.267Y-138.906
X237.014Y-177.006
X239.395Y-119.856
X240.03Y-100.806
X244.157Y-138.906
X244.792Y-157.956
X247.174Y-177.006
X248.92Y-100.806
X249.555Y-119.856
X253.682Y-157.956
X254.317Y-138.906
X258.445Y-119.856
X259.08Y-100.806
X263.207Y-138.906
X263.842Y-157.956
X267.97Y-100.806
X268.605Y-119.856
X270.351Y-177.006
X272.733Y-157.956
X273.368Y-138.906
X277.495Y-119.856
X278.13Y-100.806
X280.511Y-177.006
X282.257Y-138.906
X282.892Y-157.956
X287.02Y-100.806
X287.655Y-119.856
X291.782Y-157.956
X291.782Y-177.006
X292.417Y-138.906
X294.164Y-177.006
X296.545Y-119.856
X297.18Y-100.806
X301.308Y-138.906
X301.942Y-157.956
X301.942Y-177.006
X304.324Y-177.006
X306.07Y-100.806
X306.705Y-119.856
X311.467Y-138.906
X315.595Y-119.856
X315.595Y-177.006
X316.23Y-100.806
X317.976Y-157.956
X317.976Y-177.006
X320.357Y-138.906
X325.12Y-100.806
X325.755Y-119.856
X325.755Y-177.006
X327.501Y-157.956
X328.136Y-157.956
X328.136Y-177.006
X330.517Y-138.906
X332.264Y-138.906
X334.645Y-100.806
X335.28Y-100.806
X337.661Y-157.956
X339.407Y-119.856
X339.407Y-177.006
X341.789Y-177.006
X342.424Y-138.906
X344.17Y-100.806
X344.17Y-157.956
X344.805Y-100.806
X346.869Y-124.301
X346.869Y-134.461
X349.567Y-119.856
X349.567Y-177.006
X351.949Y-177.006
X354.33Y-100.806
X354.33Y-157.956
T6
X76.4Y-119.855
X98.032Y-177.005
X115.89Y-157.954
X146.275Y-177.001
X177.772Y-120.788
X254.007Y-120.772
X262.919Y-177.0
X309.955Y-158.614
X332.58Y-119.85
X333.77Y-177.001
T7
X82.518Y-150.971
X106.394Y-150.971
X153.994Y-183.991
X158.75Y-183.991
X163.481Y-183.991
X187.357Y-183.991
X230.156Y-183.991
X253.994Y-183.991
X254.032Y-183.991
X273.05Y-183.991
X320.643Y-150.971
X325.406Y-131.921
X327.787Y-93.821
X344.519Y-150.971
X349.282Y-131.921
X351.663Y-93.821
X353.854Y-117.443
X353.854Y-141.319
T8
X82.518Y-166.211
X106.394Y-166.211
X153.994Y-168.751
X158.75Y-168.751
X163.481Y-168.751
X187.357Y-168.751
X230.156Y-168.751
X253.994Y-168.751
X254.032Y-168.751
X273.05Y-168.751
X320.643Y-166.211
X325.406Y-147.161
X327.787Y-109.061
X338.614Y-117.443
X338.614Y-141.319
X344.519Y-166.211
X349.282Y-147.161
X351.663Y-109.061
T9
X82.55Y-100.806
X84.931Y-138.906
X84.931Y-157.956
X84.931Y-177.006
X87.312Y-119.856
X87.312Y-177.006
X89.694Y-138.906
X94.456Y-157.956
X101.6Y-100.806
X106.362Y-157.956
X108.744Y-177.006
X111.125Y-119.856
X111.125Y-177.006
X115.887Y-138.906
X120.65Y-100.806
X125.412Y-157.956
X130.175Y-119.856
X132.556Y-177.006
X134.938Y-138.906
X134.938Y-177.006
X139.7Y-100.806
X144.463Y-157.956
X149.225Y-119.856
X153.987Y-138.906
X158.75Y-100.806
X163.512Y-157.956
X168.275Y-119.856
X173.037Y-138.906
X175.419Y-177.006
X177.8Y-100.806
X182.562Y-157.956
X187.325Y-119.856
X192.087Y-138.906
X196.85Y-100.806
X201.612Y-157.956
X203.994Y-177.006
X206.375Y-119.856
X211.137Y-138.906
X211.137Y-177.006
X215.9Y-100.806
X215.9Y-177.006
X220.662Y-157.956
X225.425Y-119.856
X230.188Y-138.906
X234.95Y-100.806
X239.712Y-157.956
X242.094Y-177.006
X244.475Y-119.856
X249.237Y-138.906
X254.0Y-100.806
X258.762Y-157.956
X263.525Y-119.856
X268.287Y-138.906
X273.05Y-100.806
X275.431Y-177.006
X277.812Y-157.956
X282.575Y-119.856
X287.337Y-138.906
X292.1Y-100.806
X296.863Y-157.956
X296.863Y-177.006
X299.244Y-177.006
X301.625Y-119.856
X306.387Y-138.906
X311.15Y-100.806
X320.675Y-119.856
X320.675Y-177.006
X323.056Y-157.956
X323.056Y-177.006
X325.438Y-138.906
X330.2Y-100.806
X332.581Y-157.956
X337.344Y-138.906
X339.725Y-100.806
X344.488Y-119.856
X344.488Y-177.006
X346.869Y-129.381
X346.869Y-177.006
X349.25Y-100.806
X349.25Y-157.956
T0
M30
