%TF.GenerationSoftware,KiCad,Pcbnew,(6.0.9)*%
%TF.CreationDate,2022-12-14T23:03:10+01:00*%
%TF.ProjectId,pcb-solder,7063622d-736f-46c6-9465-722e6b696361,1.0*%
%TF.SameCoordinates,Original*%
%TF.FileFunction,Drillmap*%
%TF.FilePolarity,Positive*%
%FSLAX45Y45*%
G04 Gerber Fmt 4.5, Leading zero omitted, Abs format (unit mm)*
G04 Created by KiCad (PCBNEW (6.0.9)) date 2022-12-14 23:03:10*
%MOMM*%
%LPD*%
G01*
G04 APERTURE LIST*
%ADD10C,0.250000*%
%ADD11C,0.200000*%
%ADD12C,0.030000*%
%ADD13C,0.040000*%
%ADD14C,0.100000*%
%ADD15C,0.150000*%
%ADD16C,0.175000*%
%ADD17C,0.304800*%
%ADD18C,0.398780*%
%ADD19C,0.400000*%
G04 APERTURE END LIST*
D10*
X7491200Y-15172500D02*
G75*
G03*
X7341200Y-15322500I0J-150000D01*
G01*
X35641200Y-18640000D02*
G75*
G03*
X35841200Y-18440000I0J200000D01*
G01*
X7341200Y-14362500D02*
G75*
G03*
X7491200Y-14512500I150000J0D01*
G01*
X7541200Y-18640000D02*
X14149000Y-18640000D01*
X26833700Y-9140000D02*
G75*
G03*
X26683700Y-9290000I0J-150000D01*
G01*
X35691200Y-14451900D02*
G75*
G03*
X35691200Y-15111900I0J-330000D01*
G01*
X7491200Y-13267500D02*
G75*
G03*
X7341200Y-13417500I0J-150000D01*
G01*
X15109000Y-18640000D02*
X25813100Y-18640000D01*
X7491200Y-13267500D02*
G75*
G03*
X7491200Y-12607500I0J330000D01*
G01*
X35841200Y-11623100D02*
G75*
G03*
X35691200Y-11473100I-150000J0D01*
G01*
X35691200Y-10813100D02*
G75*
G03*
X35691200Y-11473100I0J-330000D01*
G01*
X26623100Y-18490000D02*
G75*
G03*
X25963100Y-18490000I-330000J0D01*
G01*
X7491200Y-15172500D02*
G75*
G03*
X7491200Y-14512500I0J330000D01*
G01*
X7341200Y-12457500D02*
G75*
G03*
X7491200Y-12607500I150000J0D01*
G01*
X26623100Y-18490000D02*
G75*
G03*
X26773100Y-18640000I150000J0D01*
G01*
X35641200Y-9140000D02*
X26833700Y-9140000D01*
X25813100Y-18640000D02*
G75*
G03*
X25963100Y-18490000I0J150000D01*
G01*
X17308700Y-9140000D02*
G75*
G03*
X17158700Y-9290000I0J-150000D01*
G01*
X14149000Y-18640000D02*
G75*
G03*
X14299000Y-18490000I0J150000D01*
G01*
X26023700Y-9290000D02*
G75*
G03*
X25873700Y-9140000I-150000J0D01*
G01*
X35691200Y-10813100D02*
G75*
G03*
X35841200Y-10663100I0J150000D01*
G01*
X35841200Y-18440000D02*
X35841200Y-15261900D01*
X7341200Y-13417500D02*
X7341200Y-14362500D01*
X35841200Y-15261900D02*
G75*
G03*
X35691200Y-15111900I-150000J0D01*
G01*
X7341200Y-9340000D02*
X7341200Y-12457500D01*
X26773100Y-18640000D02*
X35641200Y-18640000D01*
X16498700Y-9290000D02*
G75*
G03*
X17158700Y-9290000I330000J0D01*
G01*
X35691200Y-14451900D02*
G75*
G03*
X35841200Y-14301900I0J150000D01*
G01*
X14959000Y-18490000D02*
G75*
G03*
X15109000Y-18640000I150000J0D01*
G01*
X35841200Y-14301900D02*
X35841200Y-11623100D01*
X26023700Y-9290000D02*
G75*
G03*
X26683700Y-9290000I330000J0D01*
G01*
X14959000Y-18490000D02*
G75*
G03*
X14299000Y-18490000I-330000J0D01*
G01*
X16348700Y-9140000D02*
X7541200Y-9140000D01*
X7541200Y-9140000D02*
G75*
G03*
X7341200Y-9340000I0J-200000D01*
G01*
X25873700Y-9140000D02*
X17308700Y-9140000D01*
X16498700Y-9290000D02*
G75*
G03*
X16348700Y-9140000I-150000J0D01*
G01*
X35841200Y-9340000D02*
G75*
G03*
X35641200Y-9140000I-200000J0D01*
G01*
X7341200Y-18440000D02*
G75*
G03*
X7541200Y-18640000I200000J0D01*
G01*
X7341200Y-15322500D02*
X7341200Y-18440000D01*
X35841200Y-10663100D02*
X35841200Y-9340000D01*
D11*
D12*
X21242660Y-12526250D02*
X21272660Y-12556250D01*
X21272660Y-12526250D02*
X21242660Y-12556250D01*
X21408830Y-12360080D02*
X21438830Y-12390080D01*
X21438830Y-12360080D02*
X21408830Y-12390080D01*
X21408830Y-12526250D02*
X21438830Y-12556250D01*
X21438830Y-12526250D02*
X21408830Y-12556250D01*
X21408830Y-12692420D02*
X21438830Y-12722420D01*
X21438830Y-12692420D02*
X21408830Y-12722420D01*
X21575000Y-12193910D02*
X21605000Y-12223910D01*
X21605000Y-12193910D02*
X21575000Y-12223910D01*
X21575000Y-12360080D02*
X21605000Y-12390080D01*
X21605000Y-12360080D02*
X21575000Y-12390080D01*
X21575000Y-12526250D02*
X21605000Y-12556250D01*
X21605000Y-12526250D02*
X21575000Y-12556250D01*
X21575000Y-12692420D02*
X21605000Y-12722420D01*
X21605000Y-12692420D02*
X21575000Y-12722420D01*
X21575000Y-12858590D02*
X21605000Y-12888590D01*
X21605000Y-12858590D02*
X21575000Y-12888590D01*
X21741170Y-12360080D02*
X21771170Y-12390080D01*
X21771170Y-12360080D02*
X21741170Y-12390080D01*
X21741170Y-12526250D02*
X21771170Y-12556250D01*
X21771170Y-12526250D02*
X21741170Y-12556250D01*
X21741170Y-12692420D02*
X21771170Y-12722420D01*
X21771170Y-12692420D02*
X21741170Y-12722420D01*
X21907340Y-12526250D02*
X21937340Y-12556250D01*
X21937340Y-12526250D02*
X21907340Y-12556250D01*
D13*
X8370400Y-12870600D02*
G75*
G03*
X8370400Y-12870600I-20000J0D01*
G01*
X8979900Y-13548700D02*
G75*
G03*
X8979900Y-13548700I-20000J0D01*
G01*
X10751500Y-12831364D02*
G75*
G03*
X10751500Y-12831364I-20000J0D01*
G01*
X12656500Y-12793612D02*
G75*
G03*
X12656500Y-12793612I-20000J0D01*
G01*
X14561500Y-12755600D02*
G75*
G03*
X14561500Y-12755600I-20000J0D01*
G01*
X16466500Y-12715000D02*
G75*
G03*
X16466500Y-12715000I-20000J0D01*
G01*
X18371500Y-12679200D02*
G75*
G03*
X18371500Y-12679200I-20000J0D01*
G01*
X19677200Y-12040700D02*
G75*
G03*
X19677200Y-12040700I-20000J0D01*
G01*
X20276500Y-12640100D02*
G75*
G03*
X20276500Y-12640100I-20000J0D01*
G01*
X20512400Y-11257200D02*
G75*
G03*
X20512400Y-11257200I-20000J0D01*
G01*
X20757300Y-18187200D02*
G75*
G03*
X20757300Y-18187200I-20000J0D01*
G01*
X21000525Y-9351875D02*
G75*
G03*
X21000525Y-9351875I-20000J0D01*
G01*
X21012278Y-12127393D02*
G75*
G03*
X21012278Y-12127393I-20000J0D01*
G01*
X21105000Y-12125088D02*
G75*
G03*
X21105000Y-12125088I-20000J0D01*
G01*
X21115280Y-13164300D02*
G75*
G03*
X21115280Y-13164300I-20000J0D01*
G01*
X21133000Y-10558200D02*
G75*
G03*
X21133000Y-10558200I-20000J0D01*
G01*
X21137599Y-16969499D02*
G75*
G03*
X21137599Y-16969499I-20000J0D01*
G01*
X21157960Y-12547460D02*
G75*
G03*
X21157960Y-12547460I-20000J0D01*
G01*
X21197721Y-12127402D02*
G75*
G03*
X21197721Y-12127402I-20000J0D01*
G01*
X21247000Y-12967700D02*
G75*
G03*
X21247000Y-12967700I-20000J0D01*
G01*
X21258700Y-11253800D02*
G75*
G03*
X21258700Y-11253800I-20000J0D01*
G01*
X21290450Y-12129400D02*
G75*
G03*
X21290450Y-12129400I-20000J0D01*
G01*
X21363000Y-12966700D02*
G75*
G03*
X21363000Y-12966700I-20000J0D01*
G01*
X21383200Y-12129400D02*
G75*
G03*
X21383200Y-12129400I-20000J0D01*
G01*
X21393452Y-11542875D02*
G75*
G03*
X21393452Y-11542875I-20000J0D01*
G01*
X21434099Y-11076501D02*
G75*
G03*
X21434099Y-11076501I-20000J0D01*
G01*
X21453500Y-15064600D02*
G75*
G03*
X21453500Y-15064600I-20000J0D01*
G01*
X21621400Y-12063300D02*
G75*
G03*
X21621400Y-12063300I-20000J0D01*
G01*
X21649698Y-13135164D02*
G75*
G03*
X21649698Y-13135164I-20000J0D01*
G01*
X21669200Y-11983700D02*
G75*
G03*
X21669200Y-11983700I-20000J0D01*
G01*
X21749030Y-13142218D02*
G75*
G03*
X21749030Y-13142218I-20000J0D01*
G01*
X21749106Y-13049468D02*
G75*
G03*
X21749106Y-13049468I-20000J0D01*
G01*
X21842387Y-12958194D02*
G75*
G03*
X21842387Y-12958194I-20000J0D01*
G01*
X21843381Y-13051465D02*
G75*
G03*
X21843381Y-13051465I-20000J0D01*
G01*
X21939485Y-12963015D02*
G75*
G03*
X21939485Y-12963015I-20000J0D01*
G01*
X21949600Y-14203000D02*
G75*
G03*
X21949600Y-14203000I-20000J0D01*
G01*
X22063547Y-12251047D02*
G75*
G03*
X22063547Y-12251047I-20000J0D01*
G01*
X22071000Y-12796100D02*
G75*
G03*
X22071000Y-12796100I-20000J0D01*
G01*
X22216600Y-12666000D02*
G75*
G03*
X22216600Y-12666000I-20000J0D01*
G01*
X22529981Y-12665720D02*
G75*
G03*
X22529981Y-12665720I-20000J0D01*
G01*
X22614700Y-12703472D02*
G75*
G03*
X22614700Y-12703472I-20000J0D01*
G01*
X22692900Y-9256400D02*
G75*
G03*
X22692900Y-9256400I-20000J0D01*
G01*
X22700390Y-12741224D02*
G75*
G03*
X22700390Y-12741224I-20000J0D01*
G01*
X22761814Y-12344250D02*
G75*
G03*
X22761814Y-12344250I-20000J0D01*
G01*
X22793044Y-12778976D02*
G75*
G03*
X22793044Y-12778976I-20000J0D01*
G01*
X22845310Y-12384637D02*
G75*
G03*
X22845310Y-12384637I-20000J0D01*
G01*
X22878734Y-12816728D02*
G75*
G03*
X22878734Y-12816728I-20000J0D01*
G01*
X22923362Y-12434742D02*
G75*
G03*
X22923362Y-12434742I-20000J0D01*
G01*
X23978151Y-14313966D02*
G75*
G03*
X23978151Y-14313966I-20000J0D01*
G01*
X24087100Y-12816728D02*
G75*
G03*
X24087100Y-12816728I-20000J0D01*
G01*
X25992400Y-12778976D02*
G75*
G03*
X25992400Y-12778976I-20000J0D01*
G01*
X27896800Y-12741224D02*
G75*
G03*
X27896800Y-12741224I-20000J0D01*
G01*
X29802900Y-12703472D02*
G75*
G03*
X29802900Y-12703472I-20000J0D01*
G01*
X31705900Y-12665720D02*
G75*
G03*
X31705900Y-12665720I-20000J0D01*
G01*
X33351900Y-13382300D02*
G75*
G03*
X33351900Y-13382300I-20000J0D01*
G01*
X34756000Y-13868400D02*
G75*
G03*
X34756000Y-13868400I-20000J0D01*
G01*
D14*
X22337500Y-10575875D02*
X22337500Y-10675875D01*
X22287500Y-10625875D02*
X22387500Y-10625875D01*
X22337500Y-10829875D02*
X22337500Y-10929875D01*
X22287500Y-10879875D02*
X22387500Y-10879875D01*
X22337500Y-11083875D02*
X22337500Y-11183875D01*
X22287500Y-11133875D02*
X22387500Y-11133875D01*
X22591500Y-10575875D02*
X22591500Y-10675875D01*
X22541500Y-10625875D02*
X22641500Y-10625875D01*
X22591500Y-10829875D02*
X22591500Y-10929875D01*
X22541500Y-10879875D02*
X22641500Y-10879875D01*
X22591500Y-11083875D02*
X22591500Y-11183875D01*
X22541500Y-11133875D02*
X22641500Y-11133875D01*
D15*
X7927033Y-9879659D02*
X7927033Y-9773592D01*
X7820966Y-9773592D01*
X7820966Y-9879659D01*
X7927033Y-9879659D01*
X8165158Y-13689658D02*
X8165158Y-13583591D01*
X8059091Y-13583591D01*
X8059091Y-13689658D01*
X8165158Y-13689658D01*
X8165158Y-15594658D02*
X8165158Y-15488591D01*
X8059091Y-15488591D01*
X8059091Y-15594658D01*
X8165158Y-15594658D01*
X8165158Y-17499659D02*
X8165158Y-17393592D01*
X8059091Y-17393592D01*
X8059091Y-17499659D01*
X8165158Y-17499659D01*
X8403284Y-11784658D02*
X8403284Y-11678591D01*
X8297216Y-11678591D01*
X8297216Y-11784658D01*
X8403284Y-11784658D01*
X8403284Y-17499659D02*
X8403284Y-17393592D01*
X8297216Y-17393592D01*
X8297216Y-17499659D01*
X8403284Y-17499659D01*
X8562034Y-9625659D02*
X8562034Y-9519592D01*
X8455967Y-9519592D01*
X8455967Y-9625659D01*
X8562034Y-9625659D01*
X8641409Y-13689658D02*
X8641409Y-13583591D01*
X8535342Y-13583591D01*
X8535342Y-13689658D01*
X8641409Y-13689658D01*
X8800159Y-13435658D02*
X8800159Y-13329591D01*
X8694092Y-13329591D01*
X8694092Y-13435658D01*
X8800159Y-13435658D01*
X8800159Y-15340658D02*
X8800159Y-15234591D01*
X8694092Y-15234591D01*
X8694092Y-15340658D01*
X8800159Y-15340658D01*
X8800159Y-17245659D02*
X8800159Y-17139592D01*
X8694092Y-17139592D01*
X8694092Y-17245659D01*
X8800159Y-17245659D01*
X9038284Y-11530658D02*
X9038284Y-11424591D01*
X8932217Y-11424591D01*
X8932217Y-11530658D01*
X9038284Y-11530658D01*
X9038284Y-17245659D02*
X9038284Y-17139592D01*
X8932217Y-17139592D01*
X8932217Y-17245659D01*
X9038284Y-17245659D01*
X9117659Y-15594658D02*
X9117659Y-15488591D01*
X9011592Y-15488591D01*
X9011592Y-15594658D01*
X9117659Y-15594658D01*
X9276409Y-13435658D02*
X9276409Y-13329591D01*
X9170342Y-13329591D01*
X9170342Y-13435658D01*
X9276409Y-13435658D01*
X9752659Y-15340658D02*
X9752659Y-15234591D01*
X9646592Y-15234591D01*
X9646592Y-15340658D01*
X9752659Y-15340658D01*
X9832034Y-9879659D02*
X9832034Y-9773592D01*
X9725967Y-9773592D01*
X9725967Y-9879659D01*
X9832034Y-9879659D01*
X10308284Y-15594658D02*
X10308284Y-15488591D01*
X10202217Y-15488591D01*
X10202217Y-15594658D01*
X10308284Y-15594658D01*
X10467034Y-9625659D02*
X10467034Y-9519592D01*
X10360967Y-9519592D01*
X10360967Y-9625659D01*
X10467034Y-9625659D01*
X10546409Y-17499659D02*
X10546409Y-17393592D01*
X10440342Y-17393592D01*
X10440342Y-17499659D01*
X10546409Y-17499659D01*
X10784534Y-11784658D02*
X10784534Y-11678591D01*
X10678467Y-11678591D01*
X10678467Y-11784658D01*
X10784534Y-11784658D01*
X10784534Y-17499659D02*
X10784534Y-17393592D01*
X10678467Y-17393592D01*
X10678467Y-17499659D01*
X10784534Y-17499659D01*
X10943284Y-15340658D02*
X10943284Y-15234591D01*
X10837217Y-15234591D01*
X10837217Y-15340658D01*
X10943284Y-15340658D01*
X11181409Y-17245659D02*
X11181409Y-17139592D01*
X11075342Y-17139592D01*
X11075342Y-17245659D01*
X11181409Y-17245659D01*
X11260783Y-13689658D02*
X11260783Y-13583591D01*
X11154717Y-13583591D01*
X11154717Y-13689658D01*
X11260783Y-13689658D01*
X11419533Y-11530658D02*
X11419533Y-11424591D01*
X11313466Y-11424591D01*
X11313466Y-11530658D01*
X11419533Y-11530658D01*
X11419533Y-17245659D02*
X11419533Y-17139592D01*
X11313466Y-17139592D01*
X11313466Y-17245659D01*
X11419533Y-17245659D01*
X11737033Y-9879659D02*
X11737033Y-9773592D01*
X11630966Y-9773592D01*
X11630966Y-9879659D01*
X11737033Y-9879659D01*
X11895783Y-13435658D02*
X11895783Y-13329591D01*
X11789716Y-13329591D01*
X11789716Y-13435658D01*
X11895783Y-13435658D01*
X12213283Y-15594658D02*
X12213283Y-15488591D01*
X12107216Y-15488591D01*
X12107216Y-15594658D01*
X12213283Y-15594658D01*
X12372033Y-9625659D02*
X12372033Y-9519592D01*
X12265966Y-9519592D01*
X12265966Y-9625659D01*
X12372033Y-9625659D01*
X12689533Y-11784658D02*
X12689533Y-11678591D01*
X12583466Y-11678591D01*
X12583466Y-11784658D01*
X12689533Y-11784658D01*
X12848283Y-15340658D02*
X12848283Y-15234591D01*
X12742216Y-15234591D01*
X12742216Y-15340658D01*
X12848283Y-15340658D01*
X12927658Y-17499659D02*
X12927658Y-17393592D01*
X12821591Y-17393592D01*
X12821591Y-17499659D01*
X12927658Y-17499659D01*
X13165783Y-13689658D02*
X13165783Y-13583591D01*
X13059716Y-13583591D01*
X13059716Y-13689658D01*
X13165783Y-13689658D01*
X13165783Y-17499659D02*
X13165783Y-17393592D01*
X13059716Y-17393592D01*
X13059716Y-17499659D01*
X13165783Y-17499659D01*
X13324533Y-11530658D02*
X13324533Y-11424591D01*
X13218466Y-11424591D01*
X13218466Y-11530658D01*
X13324533Y-11530658D01*
X13562658Y-17245659D02*
X13562658Y-17139592D01*
X13456591Y-17139592D01*
X13456591Y-17245659D01*
X13562658Y-17245659D01*
X13642033Y-9879659D02*
X13642033Y-9773592D01*
X13535966Y-9773592D01*
X13535966Y-9879659D01*
X13642033Y-9879659D01*
X13800783Y-13435658D02*
X13800783Y-13329591D01*
X13694716Y-13329591D01*
X13694716Y-13435658D01*
X13800783Y-13435658D01*
X13800783Y-17245659D02*
X13800783Y-17139592D01*
X13694716Y-17139592D01*
X13694716Y-17245659D01*
X13800783Y-17245659D01*
X14118283Y-15594658D02*
X14118283Y-15488591D01*
X14012216Y-15488591D01*
X14012216Y-15594658D01*
X14118283Y-15594658D01*
X14277033Y-9625659D02*
X14277033Y-9519592D01*
X14170966Y-9519592D01*
X14170966Y-9625659D01*
X14277033Y-9625659D01*
X14594533Y-11784658D02*
X14594533Y-11678591D01*
X14488466Y-11678591D01*
X14488466Y-11784658D01*
X14594533Y-11784658D01*
X14753283Y-15340658D02*
X14753283Y-15234591D01*
X14647216Y-15234591D01*
X14647216Y-15340658D01*
X14753283Y-15340658D01*
X15070783Y-13689658D02*
X15070783Y-13583591D01*
X14964716Y-13583591D01*
X14964716Y-13689658D01*
X15070783Y-13689658D01*
X15229533Y-11530658D02*
X15229533Y-11424591D01*
X15123466Y-11424591D01*
X15123466Y-11530658D01*
X15229533Y-11530658D01*
X15547033Y-9879659D02*
X15547033Y-9773592D01*
X15440966Y-9773592D01*
X15440966Y-9879659D01*
X15547033Y-9879659D01*
X15705783Y-13435658D02*
X15705783Y-13329591D01*
X15599716Y-13329591D01*
X15599716Y-13435658D01*
X15705783Y-13435658D01*
X16023283Y-15594658D02*
X16023283Y-15488591D01*
X15917216Y-15488591D01*
X15917216Y-15594658D01*
X16023283Y-15594658D01*
X16182033Y-9625659D02*
X16182033Y-9519592D01*
X16075966Y-9519592D01*
X16075966Y-9625659D01*
X16182033Y-9625659D01*
X16499533Y-11784658D02*
X16499533Y-11678591D01*
X16393466Y-11678591D01*
X16393466Y-11784658D01*
X16499533Y-11784658D01*
X16658283Y-15340658D02*
X16658283Y-15234591D01*
X16552216Y-15234591D01*
X16552216Y-15340658D01*
X16658283Y-15340658D01*
X16975784Y-13689658D02*
X16975784Y-13583591D01*
X16869717Y-13583591D01*
X16869717Y-13689658D01*
X16975784Y-13689658D01*
X17134534Y-11530658D02*
X17134534Y-11424591D01*
X17028467Y-11424591D01*
X17028467Y-11530658D01*
X17134534Y-11530658D01*
X17213909Y-17499659D02*
X17213909Y-17393592D01*
X17107842Y-17393592D01*
X17107842Y-17499659D01*
X17213909Y-17499659D01*
X17452034Y-9879659D02*
X17452034Y-9773592D01*
X17345967Y-9773592D01*
X17345967Y-9879659D01*
X17452034Y-9879659D01*
X17610784Y-13435658D02*
X17610784Y-13329591D01*
X17504717Y-13329591D01*
X17504717Y-13435658D01*
X17610784Y-13435658D01*
X17848909Y-17245659D02*
X17848909Y-17139592D01*
X17742842Y-17139592D01*
X17742842Y-17245659D01*
X17848909Y-17245659D01*
X17928284Y-15594658D02*
X17928284Y-15488591D01*
X17822217Y-15488591D01*
X17822217Y-15594658D01*
X17928284Y-15594658D01*
X18087034Y-9625659D02*
X18087034Y-9519592D01*
X17980967Y-9519592D01*
X17980967Y-9625659D01*
X18087034Y-9625659D01*
X18404534Y-11784658D02*
X18404534Y-11678591D01*
X18298467Y-11678591D01*
X18298467Y-11784658D01*
X18404534Y-11784658D01*
X18563284Y-15340658D02*
X18563284Y-15234591D01*
X18457217Y-15234591D01*
X18457217Y-15340658D01*
X18563284Y-15340658D01*
X18880784Y-13689658D02*
X18880784Y-13583591D01*
X18774717Y-13583591D01*
X18774717Y-13689658D01*
X18880784Y-13689658D01*
X19039534Y-11530658D02*
X19039534Y-11424591D01*
X18933467Y-11424591D01*
X18933467Y-11530658D01*
X19039534Y-11530658D01*
X19357034Y-9879659D02*
X19357034Y-9773592D01*
X19250967Y-9773592D01*
X19250967Y-9879659D01*
X19357034Y-9879659D01*
X19515784Y-13435658D02*
X19515784Y-13329591D01*
X19409717Y-13329591D01*
X19409717Y-13435658D01*
X19515784Y-13435658D01*
X19833284Y-15594658D02*
X19833284Y-15488591D01*
X19727217Y-15488591D01*
X19727217Y-15594658D01*
X19833284Y-15594658D01*
X19992034Y-9625659D02*
X19992034Y-9519592D01*
X19885967Y-9519592D01*
X19885967Y-9625659D01*
X19992034Y-9625659D01*
X20071409Y-17499659D02*
X20071409Y-17393592D01*
X19965342Y-17393592D01*
X19965342Y-17499659D01*
X20071409Y-17499659D01*
X20309534Y-11784658D02*
X20309534Y-11678591D01*
X20203467Y-11678591D01*
X20203467Y-11784658D01*
X20309534Y-11784658D01*
X20468284Y-15340658D02*
X20468284Y-15234591D01*
X20362217Y-15234591D01*
X20362217Y-15340658D01*
X20468284Y-15340658D01*
X20706409Y-17245659D02*
X20706409Y-17139592D01*
X20600342Y-17139592D01*
X20600342Y-17245659D01*
X20706409Y-17245659D01*
X20785784Y-13689658D02*
X20785784Y-13583591D01*
X20679717Y-13583591D01*
X20679717Y-13689658D01*
X20785784Y-13689658D01*
X20785784Y-17499659D02*
X20785784Y-17393592D01*
X20679717Y-17393592D01*
X20679717Y-17499659D01*
X20785784Y-17499659D01*
X20944534Y-11530658D02*
X20944534Y-11424591D01*
X20838467Y-11424591D01*
X20838467Y-11530658D01*
X20944534Y-11530658D01*
X21262034Y-9879659D02*
X21262034Y-9773592D01*
X21155967Y-9773592D01*
X21155967Y-9879659D01*
X21262034Y-9879659D01*
X21262034Y-17499659D02*
X21262034Y-17393592D01*
X21155967Y-17393592D01*
X21155967Y-17499659D01*
X21262034Y-17499659D01*
X21420784Y-13435658D02*
X21420784Y-13329591D01*
X21314717Y-13329591D01*
X21314717Y-13435658D01*
X21420784Y-13435658D01*
X21420784Y-17245659D02*
X21420784Y-17139592D01*
X21314717Y-17139592D01*
X21314717Y-17245659D01*
X21420784Y-17245659D01*
X21738284Y-15594658D02*
X21738284Y-15488591D01*
X21632217Y-15488591D01*
X21632217Y-15594658D01*
X21738284Y-15594658D01*
X21897034Y-9625659D02*
X21897034Y-9519592D01*
X21790967Y-9519592D01*
X21790967Y-9625659D01*
X21897034Y-9625659D01*
X21897034Y-17245659D02*
X21897034Y-17139592D01*
X21790967Y-17139592D01*
X21790967Y-17245659D01*
X21897034Y-17245659D01*
X22214534Y-11784658D02*
X22214534Y-11678591D01*
X22108467Y-11678591D01*
X22108467Y-11784658D01*
X22214534Y-11784658D01*
X22373283Y-15340658D02*
X22373283Y-15234591D01*
X22267217Y-15234591D01*
X22267217Y-15340658D01*
X22373283Y-15340658D01*
X22690783Y-13689658D02*
X22690783Y-13583591D01*
X22584716Y-13583591D01*
X22584716Y-13689658D01*
X22690783Y-13689658D01*
X22849533Y-11530658D02*
X22849533Y-11424591D01*
X22743466Y-11424591D01*
X22743466Y-11530658D01*
X22849533Y-11530658D01*
X23167033Y-9879659D02*
X23167033Y-9773592D01*
X23060966Y-9773592D01*
X23060966Y-9879659D01*
X23167033Y-9879659D01*
X23325783Y-13435658D02*
X23325783Y-13329591D01*
X23219716Y-13329591D01*
X23219716Y-13435658D01*
X23325783Y-13435658D01*
X23643283Y-15594658D02*
X23643283Y-15488591D01*
X23537216Y-15488591D01*
X23537216Y-15594658D01*
X23643283Y-15594658D01*
X23802033Y-9625659D02*
X23802033Y-9519592D01*
X23695966Y-9519592D01*
X23695966Y-9625659D01*
X23802033Y-9625659D01*
X23881408Y-17499659D02*
X23881408Y-17393592D01*
X23775341Y-17393592D01*
X23775341Y-17499659D01*
X23881408Y-17499659D01*
X24119533Y-11784658D02*
X24119533Y-11678591D01*
X24013466Y-11678591D01*
X24013466Y-11784658D01*
X24119533Y-11784658D01*
X24278283Y-15340658D02*
X24278283Y-15234591D01*
X24172216Y-15234591D01*
X24172216Y-15340658D01*
X24278283Y-15340658D01*
X24516408Y-17245659D02*
X24516408Y-17139592D01*
X24410341Y-17139592D01*
X24410341Y-17245659D01*
X24516408Y-17245659D01*
X24595783Y-13689658D02*
X24595783Y-13583591D01*
X24489716Y-13583591D01*
X24489716Y-13689658D01*
X24595783Y-13689658D01*
X24754533Y-11530658D02*
X24754533Y-11424591D01*
X24648466Y-11424591D01*
X24648466Y-11530658D01*
X24754533Y-11530658D01*
X25072033Y-9879659D02*
X25072033Y-9773592D01*
X24965966Y-9773592D01*
X24965966Y-9879659D01*
X25072033Y-9879659D01*
X25230783Y-13435658D02*
X25230783Y-13329591D01*
X25124716Y-13329591D01*
X25124716Y-13435658D01*
X25230783Y-13435658D01*
X25548283Y-15594658D02*
X25548283Y-15488591D01*
X25442216Y-15488591D01*
X25442216Y-15594658D01*
X25548283Y-15594658D01*
X25707033Y-9625659D02*
X25707033Y-9519592D01*
X25600966Y-9519592D01*
X25600966Y-9625659D01*
X25707033Y-9625659D01*
X26024533Y-11784658D02*
X26024533Y-11678591D01*
X25918466Y-11678591D01*
X25918466Y-11784658D01*
X26024533Y-11784658D01*
X26183283Y-15340658D02*
X26183283Y-15234591D01*
X26077216Y-15234591D01*
X26077216Y-15340658D01*
X26183283Y-15340658D01*
X26500783Y-13689658D02*
X26500783Y-13583591D01*
X26394716Y-13583591D01*
X26394716Y-13689658D01*
X26500783Y-13689658D01*
X26659533Y-11530658D02*
X26659533Y-11424591D01*
X26553466Y-11424591D01*
X26553466Y-11530658D01*
X26659533Y-11530658D01*
X26977033Y-9879659D02*
X26977033Y-9773592D01*
X26870966Y-9773592D01*
X26870966Y-9879659D01*
X26977033Y-9879659D01*
X27135783Y-13435658D02*
X27135783Y-13329591D01*
X27029716Y-13329591D01*
X27029716Y-13435658D01*
X27135783Y-13435658D01*
X27215158Y-17499659D02*
X27215158Y-17393592D01*
X27109091Y-17393592D01*
X27109091Y-17499659D01*
X27215158Y-17499659D01*
X27453283Y-15594658D02*
X27453283Y-15488591D01*
X27347216Y-15488591D01*
X27347216Y-15594658D01*
X27453283Y-15594658D01*
X27612033Y-9625659D02*
X27612033Y-9519592D01*
X27505966Y-9519592D01*
X27505966Y-9625659D01*
X27612033Y-9625659D01*
X27850158Y-17245659D02*
X27850158Y-17139592D01*
X27744091Y-17139592D01*
X27744091Y-17245659D01*
X27850158Y-17245659D01*
X27929533Y-11784658D02*
X27929533Y-11678591D01*
X27823466Y-11678591D01*
X27823466Y-11784658D01*
X27929533Y-11784658D01*
X28088283Y-15340658D02*
X28088283Y-15234591D01*
X27982216Y-15234591D01*
X27982216Y-15340658D01*
X28088283Y-15340658D01*
X28405783Y-13689658D02*
X28405783Y-13583591D01*
X28299716Y-13583591D01*
X28299716Y-13689658D01*
X28405783Y-13689658D01*
X28564533Y-11530658D02*
X28564533Y-11424591D01*
X28458466Y-11424591D01*
X28458466Y-11530658D01*
X28564533Y-11530658D01*
X28882033Y-9879659D02*
X28882033Y-9773592D01*
X28775966Y-9773592D01*
X28775966Y-9879659D01*
X28882033Y-9879659D01*
X29040783Y-13435658D02*
X29040783Y-13329591D01*
X28934716Y-13329591D01*
X28934716Y-13435658D01*
X29040783Y-13435658D01*
X29358283Y-15594658D02*
X29358283Y-15488591D01*
X29252216Y-15488591D01*
X29252216Y-15594658D01*
X29358283Y-15594658D01*
X29358283Y-17499659D02*
X29358283Y-17393592D01*
X29252216Y-17393592D01*
X29252216Y-17499659D01*
X29358283Y-17499659D01*
X29517033Y-9625659D02*
X29517033Y-9519592D01*
X29410966Y-9519592D01*
X29410966Y-9625659D01*
X29517033Y-9625659D01*
X29596408Y-17499659D02*
X29596408Y-17393592D01*
X29490341Y-17393592D01*
X29490341Y-17499659D01*
X29596408Y-17499659D01*
X29834533Y-11784658D02*
X29834533Y-11678591D01*
X29728466Y-11678591D01*
X29728466Y-11784658D01*
X29834533Y-11784658D01*
X29993283Y-15340658D02*
X29993283Y-15234591D01*
X29887216Y-15234591D01*
X29887216Y-15340658D01*
X29993283Y-15340658D01*
X29993283Y-17245659D02*
X29993283Y-17139592D01*
X29887216Y-17139592D01*
X29887216Y-17245659D01*
X29993283Y-17245659D01*
X30231408Y-17245659D02*
X30231408Y-17139592D01*
X30125341Y-17139592D01*
X30125341Y-17245659D01*
X30231408Y-17245659D01*
X30310783Y-13689658D02*
X30310783Y-13583591D01*
X30204716Y-13583591D01*
X30204716Y-13689658D01*
X30310783Y-13689658D01*
X30469533Y-11530658D02*
X30469533Y-11424591D01*
X30363466Y-11424591D01*
X30363466Y-11530658D01*
X30469533Y-11530658D01*
X30787033Y-9879659D02*
X30787033Y-9773592D01*
X30680966Y-9773592D01*
X30680966Y-9879659D01*
X30787033Y-9879659D01*
X30945783Y-13435658D02*
X30945783Y-13329591D01*
X30839716Y-13329591D01*
X30839716Y-13435658D01*
X30945783Y-13435658D01*
X31422033Y-9625659D02*
X31422033Y-9519592D01*
X31315966Y-9519592D01*
X31315966Y-9625659D01*
X31422033Y-9625659D01*
X31739533Y-11784658D02*
X31739533Y-11678591D01*
X31633466Y-11678591D01*
X31633466Y-11784658D01*
X31739533Y-11784658D01*
X31739533Y-17499659D02*
X31739533Y-17393592D01*
X31633466Y-17393592D01*
X31633466Y-17499659D01*
X31739533Y-17499659D01*
X31977658Y-15594658D02*
X31977658Y-15488591D01*
X31871591Y-15488591D01*
X31871591Y-15594658D01*
X31977658Y-15594658D01*
X31977658Y-17499659D02*
X31977658Y-17393592D01*
X31871591Y-17393592D01*
X31871591Y-17499659D01*
X31977658Y-17499659D01*
X32215783Y-13689658D02*
X32215783Y-13583591D01*
X32109716Y-13583591D01*
X32109716Y-13689658D01*
X32215783Y-13689658D01*
X32374533Y-11530658D02*
X32374533Y-11424591D01*
X32268466Y-11424591D01*
X32268466Y-11530658D01*
X32374533Y-11530658D01*
X32374533Y-17245659D02*
X32374533Y-17139592D01*
X32268466Y-17139592D01*
X32268466Y-17245659D01*
X32374533Y-17245659D01*
X32612658Y-15340658D02*
X32612658Y-15234591D01*
X32506591Y-15234591D01*
X32506591Y-15340658D01*
X32612658Y-15340658D01*
X32612658Y-17245659D02*
X32612658Y-17139592D01*
X32506591Y-17139592D01*
X32506591Y-17245659D01*
X32612658Y-17245659D01*
X32692033Y-9879659D02*
X32692033Y-9773592D01*
X32585966Y-9773592D01*
X32585966Y-9879659D01*
X32692033Y-9879659D01*
X32850783Y-13435658D02*
X32850783Y-13329591D01*
X32744716Y-13329591D01*
X32744716Y-13435658D01*
X32850783Y-13435658D01*
X32930158Y-15594658D02*
X32930158Y-15488591D01*
X32824091Y-15488591D01*
X32824091Y-15594658D01*
X32930158Y-15594658D01*
X33327033Y-9625659D02*
X33327033Y-9519592D01*
X33220966Y-9519592D01*
X33220966Y-9625659D01*
X33327033Y-9625659D01*
X33406408Y-13689658D02*
X33406408Y-13583591D01*
X33300341Y-13583591D01*
X33300341Y-13689658D01*
X33406408Y-13689658D01*
X33565159Y-15340658D02*
X33565159Y-15234591D01*
X33459091Y-15234591D01*
X33459091Y-15340658D01*
X33565159Y-15340658D01*
X33644534Y-9879659D02*
X33644534Y-9773592D01*
X33538466Y-9773592D01*
X33538466Y-9879659D01*
X33644534Y-9879659D01*
X34041409Y-13435658D02*
X34041409Y-13329591D01*
X33935342Y-13329591D01*
X33935342Y-13435658D01*
X34041409Y-13435658D01*
X34120784Y-11784658D02*
X34120784Y-11678591D01*
X34014717Y-11678591D01*
X34014717Y-11784658D01*
X34120784Y-11784658D01*
X34120784Y-17499659D02*
X34120784Y-17393592D01*
X34014717Y-17393592D01*
X34014717Y-17499659D01*
X34120784Y-17499659D01*
X34279534Y-9625659D02*
X34279534Y-9519592D01*
X34173467Y-9519592D01*
X34173467Y-9625659D01*
X34279534Y-9625659D01*
X34358909Y-17499659D02*
X34358909Y-17393592D01*
X34252842Y-17393592D01*
X34252842Y-17499659D01*
X34358909Y-17499659D01*
X34597034Y-9879659D02*
X34597034Y-9773592D01*
X34490967Y-9773592D01*
X34490967Y-9879659D01*
X34597034Y-9879659D01*
X34597034Y-15594658D02*
X34597034Y-15488591D01*
X34490967Y-15488591D01*
X34490967Y-15594658D01*
X34597034Y-15594658D01*
X34755784Y-11530658D02*
X34755784Y-11424591D01*
X34649717Y-11424591D01*
X34649717Y-11530658D01*
X34755784Y-11530658D01*
X34755784Y-17245659D02*
X34755784Y-17139592D01*
X34649717Y-17139592D01*
X34649717Y-17245659D01*
X34755784Y-17245659D01*
X34993909Y-12610158D02*
X34993909Y-12504091D01*
X34887842Y-12504091D01*
X34887842Y-12610158D01*
X34993909Y-12610158D01*
X34993909Y-17245659D02*
X34993909Y-17139592D01*
X34887842Y-17139592D01*
X34887842Y-17245659D01*
X34993909Y-17245659D01*
X35232034Y-9625659D02*
X35232034Y-9519592D01*
X35125967Y-9519592D01*
X35125967Y-9625659D01*
X35232034Y-9625659D01*
X35232034Y-15340658D02*
X35232034Y-15234591D01*
X35125967Y-15234591D01*
X35125967Y-15340658D01*
X35232034Y-15340658D01*
X35247909Y-13245158D02*
X35247909Y-13139091D01*
X35141842Y-13139091D01*
X35141842Y-13245158D01*
X35247909Y-13245158D01*
D16*
X7747000Y-10168125D02*
X7834500Y-10080625D01*
X7747000Y-9993125D01*
X7659500Y-10080625D01*
X7747000Y-10168125D01*
X7985125Y-13978125D02*
X8072625Y-13890625D01*
X7985125Y-13803125D01*
X7897625Y-13890625D01*
X7985125Y-13978125D01*
X7985125Y-15883125D02*
X8072625Y-15795625D01*
X7985125Y-15708125D01*
X7897625Y-15795625D01*
X7985125Y-15883125D01*
X7985125Y-17788125D02*
X8072625Y-17700625D01*
X7985125Y-17613125D01*
X7897625Y-17700625D01*
X7985125Y-17788125D01*
X8223250Y-12073125D02*
X8310750Y-11985625D01*
X8223250Y-11898125D01*
X8135750Y-11985625D01*
X8223250Y-12073125D01*
X8223250Y-17788125D02*
X8310750Y-17700625D01*
X8223250Y-17613125D01*
X8135750Y-17700625D01*
X8223250Y-17788125D01*
X8461375Y-13978125D02*
X8548875Y-13890625D01*
X8461375Y-13803125D01*
X8373875Y-13890625D01*
X8461375Y-13978125D01*
X8763000Y-10168125D02*
X8850500Y-10080625D01*
X8763000Y-9993125D01*
X8675500Y-10080625D01*
X8763000Y-10168125D01*
X8937625Y-15883125D02*
X9025125Y-15795625D01*
X8937625Y-15708125D01*
X8850125Y-15795625D01*
X8937625Y-15883125D01*
X9001125Y-13978125D02*
X9088625Y-13890625D01*
X9001125Y-13803125D01*
X8913625Y-13890625D01*
X9001125Y-13978125D01*
X9001125Y-15883125D02*
X9088625Y-15795625D01*
X9001125Y-15708125D01*
X8913625Y-15795625D01*
X9001125Y-15883125D01*
X9001125Y-17788125D02*
X9088625Y-17700625D01*
X9001125Y-17613125D01*
X8913625Y-17700625D01*
X9001125Y-17788125D01*
X9239250Y-12073125D02*
X9326750Y-11985625D01*
X9239250Y-11898125D01*
X9151750Y-11985625D01*
X9239250Y-12073125D01*
X9239250Y-17788125D02*
X9326750Y-17700625D01*
X9239250Y-17613125D01*
X9151750Y-17700625D01*
X9239250Y-17788125D01*
X9477375Y-13978125D02*
X9564875Y-13890625D01*
X9477375Y-13803125D01*
X9389875Y-13890625D01*
X9477375Y-13978125D01*
X9652000Y-10168125D02*
X9739500Y-10080625D01*
X9652000Y-9993125D01*
X9564500Y-10080625D01*
X9652000Y-10168125D01*
X9953625Y-15883125D02*
X10041125Y-15795625D01*
X9953625Y-15708125D01*
X9866125Y-15795625D01*
X9953625Y-15883125D01*
X10128250Y-15883125D02*
X10215750Y-15795625D01*
X10128250Y-15708125D01*
X10040750Y-15795625D01*
X10128250Y-15883125D01*
X10366375Y-17788125D02*
X10453875Y-17700625D01*
X10366375Y-17613125D01*
X10278875Y-17700625D01*
X10366375Y-17788125D01*
X10604500Y-12073125D02*
X10692000Y-11985625D01*
X10604500Y-11898125D01*
X10517000Y-11985625D01*
X10604500Y-12073125D01*
X10604500Y-17788125D02*
X10692000Y-17700625D01*
X10604500Y-17613125D01*
X10517000Y-17700625D01*
X10604500Y-17788125D01*
X10668000Y-10168125D02*
X10755500Y-10080625D01*
X10668000Y-9993125D01*
X10580500Y-10080625D01*
X10668000Y-10168125D01*
X11080750Y-13978125D02*
X11168250Y-13890625D01*
X11080750Y-13803125D01*
X10993250Y-13890625D01*
X11080750Y-13978125D01*
X11144250Y-15883125D02*
X11231750Y-15795625D01*
X11144250Y-15708125D01*
X11056750Y-15795625D01*
X11144250Y-15883125D01*
X11382375Y-17788125D02*
X11469875Y-17700625D01*
X11382375Y-17613125D01*
X11294875Y-17700625D01*
X11382375Y-17788125D01*
X11557000Y-10168125D02*
X11644500Y-10080625D01*
X11557000Y-9993125D01*
X11469500Y-10080625D01*
X11557000Y-10168125D01*
X11620500Y-12073125D02*
X11708000Y-11985625D01*
X11620500Y-11898125D01*
X11533000Y-11985625D01*
X11620500Y-12073125D01*
X11620500Y-17788125D02*
X11708000Y-17700625D01*
X11620500Y-17613125D01*
X11533000Y-17700625D01*
X11620500Y-17788125D01*
X12033250Y-15883125D02*
X12120750Y-15795625D01*
X12033250Y-15708125D01*
X11945750Y-15795625D01*
X12033250Y-15883125D01*
X12096750Y-13978125D02*
X12184250Y-13890625D01*
X12096750Y-13803125D01*
X12009250Y-13890625D01*
X12096750Y-13978125D01*
X12509500Y-12073125D02*
X12597000Y-11985625D01*
X12509500Y-11898125D01*
X12422000Y-11985625D01*
X12509500Y-12073125D01*
X12573000Y-10168125D02*
X12660500Y-10080625D01*
X12573000Y-9993125D01*
X12485500Y-10080625D01*
X12573000Y-10168125D01*
X12747625Y-17788125D02*
X12835125Y-17700625D01*
X12747625Y-17613125D01*
X12660125Y-17700625D01*
X12747625Y-17788125D01*
X12985750Y-13978125D02*
X13073250Y-13890625D01*
X12985750Y-13803125D01*
X12898250Y-13890625D01*
X12985750Y-13978125D01*
X12985750Y-17788125D02*
X13073250Y-17700625D01*
X12985750Y-17613125D01*
X12898250Y-17700625D01*
X12985750Y-17788125D01*
X13049250Y-15883125D02*
X13136750Y-15795625D01*
X13049250Y-15708125D01*
X12961750Y-15795625D01*
X13049250Y-15883125D01*
X13462000Y-10168125D02*
X13549500Y-10080625D01*
X13462000Y-9993125D01*
X13374500Y-10080625D01*
X13462000Y-10168125D01*
X13525500Y-12073125D02*
X13613000Y-11985625D01*
X13525500Y-11898125D01*
X13438000Y-11985625D01*
X13525500Y-12073125D01*
X13763625Y-17788125D02*
X13851125Y-17700625D01*
X13763625Y-17613125D01*
X13676125Y-17700625D01*
X13763625Y-17788125D01*
X13938250Y-15883125D02*
X14025750Y-15795625D01*
X13938250Y-15708125D01*
X13850750Y-15795625D01*
X13938250Y-15883125D01*
X14001750Y-13978125D02*
X14089250Y-13890625D01*
X14001750Y-13803125D01*
X13914250Y-13890625D01*
X14001750Y-13978125D01*
X14001750Y-17788125D02*
X14089250Y-17700625D01*
X14001750Y-17613125D01*
X13914250Y-17700625D01*
X14001750Y-17788125D01*
X14414500Y-12073125D02*
X14502000Y-11985625D01*
X14414500Y-11898125D01*
X14327000Y-11985625D01*
X14414500Y-12073125D01*
X14478000Y-10168125D02*
X14565500Y-10080625D01*
X14478000Y-9993125D01*
X14390500Y-10080625D01*
X14478000Y-10168125D01*
X14890750Y-13978125D02*
X14978250Y-13890625D01*
X14890750Y-13803125D01*
X14803250Y-13890625D01*
X14890750Y-13978125D01*
X14954250Y-15883125D02*
X15041750Y-15795625D01*
X14954250Y-15708125D01*
X14866750Y-15795625D01*
X14954250Y-15883125D01*
X15367000Y-10168125D02*
X15454500Y-10080625D01*
X15367000Y-9993125D01*
X15279500Y-10080625D01*
X15367000Y-10168125D01*
X15430500Y-12073125D02*
X15518000Y-11985625D01*
X15430500Y-11898125D01*
X15343000Y-11985625D01*
X15430500Y-12073125D01*
X15843250Y-15883125D02*
X15930750Y-15795625D01*
X15843250Y-15708125D01*
X15755750Y-15795625D01*
X15843250Y-15883125D01*
X15906750Y-13978125D02*
X15994250Y-13890625D01*
X15906750Y-13803125D01*
X15819250Y-13890625D01*
X15906750Y-13978125D01*
X16319500Y-12073125D02*
X16407000Y-11985625D01*
X16319500Y-11898125D01*
X16232000Y-11985625D01*
X16319500Y-12073125D01*
X16383000Y-10168125D02*
X16470500Y-10080625D01*
X16383000Y-9993125D01*
X16295500Y-10080625D01*
X16383000Y-10168125D01*
X16795750Y-13978125D02*
X16883250Y-13890625D01*
X16795750Y-13803125D01*
X16708250Y-13890625D01*
X16795750Y-13978125D01*
X16859250Y-15883125D02*
X16946750Y-15795625D01*
X16859250Y-15708125D01*
X16771750Y-15795625D01*
X16859250Y-15883125D01*
X17033875Y-17788125D02*
X17121375Y-17700625D01*
X17033875Y-17613125D01*
X16946375Y-17700625D01*
X17033875Y-17788125D01*
X17272000Y-10168125D02*
X17359500Y-10080625D01*
X17272000Y-9993125D01*
X17184500Y-10080625D01*
X17272000Y-10168125D01*
X17335500Y-12073125D02*
X17423000Y-11985625D01*
X17335500Y-11898125D01*
X17248000Y-11985625D01*
X17335500Y-12073125D01*
X17748250Y-15883125D02*
X17835750Y-15795625D01*
X17748250Y-15708125D01*
X17660750Y-15795625D01*
X17748250Y-15883125D01*
X17811750Y-13978125D02*
X17899250Y-13890625D01*
X17811750Y-13803125D01*
X17724250Y-13890625D01*
X17811750Y-13978125D01*
X18049875Y-17788125D02*
X18137375Y-17700625D01*
X18049875Y-17613125D01*
X17962375Y-17700625D01*
X18049875Y-17788125D01*
X18224500Y-12073125D02*
X18312000Y-11985625D01*
X18224500Y-11898125D01*
X18137000Y-11985625D01*
X18224500Y-12073125D01*
X18288000Y-10168125D02*
X18375500Y-10080625D01*
X18288000Y-9993125D01*
X18200500Y-10080625D01*
X18288000Y-10168125D01*
X18700750Y-13978125D02*
X18788250Y-13890625D01*
X18700750Y-13803125D01*
X18613250Y-13890625D01*
X18700750Y-13978125D01*
X18764250Y-15883125D02*
X18851750Y-15795625D01*
X18764250Y-15708125D01*
X18676750Y-15795625D01*
X18764250Y-15883125D01*
X19177000Y-10168125D02*
X19264500Y-10080625D01*
X19177000Y-9993125D01*
X19089500Y-10080625D01*
X19177000Y-10168125D01*
X19240500Y-12073125D02*
X19328000Y-11985625D01*
X19240500Y-11898125D01*
X19153000Y-11985625D01*
X19240500Y-12073125D01*
X19653250Y-15883125D02*
X19740750Y-15795625D01*
X19653250Y-15708125D01*
X19565750Y-15795625D01*
X19653250Y-15883125D01*
X19716750Y-13978125D02*
X19804250Y-13890625D01*
X19716750Y-13803125D01*
X19629250Y-13890625D01*
X19716750Y-13978125D01*
X19891375Y-17788125D02*
X19978875Y-17700625D01*
X19891375Y-17613125D01*
X19803875Y-17700625D01*
X19891375Y-17788125D01*
X20129500Y-12073125D02*
X20217000Y-11985625D01*
X20129500Y-11898125D01*
X20042000Y-11985625D01*
X20129500Y-12073125D01*
X20193000Y-10168125D02*
X20280500Y-10080625D01*
X20193000Y-9993125D01*
X20105500Y-10080625D01*
X20193000Y-10168125D01*
X20605750Y-13978125D02*
X20693250Y-13890625D01*
X20605750Y-13803125D01*
X20518250Y-13890625D01*
X20605750Y-13978125D01*
X20605750Y-17788125D02*
X20693250Y-17700625D01*
X20605750Y-17613125D01*
X20518250Y-17700625D01*
X20605750Y-17788125D01*
X20669250Y-15883125D02*
X20756750Y-15795625D01*
X20669250Y-15708125D01*
X20581750Y-15795625D01*
X20669250Y-15883125D01*
X20907375Y-17788125D02*
X20994875Y-17700625D01*
X20907375Y-17613125D01*
X20819875Y-17700625D01*
X20907375Y-17788125D01*
X21082000Y-10168125D02*
X21169500Y-10080625D01*
X21082000Y-9993125D01*
X20994500Y-10080625D01*
X21082000Y-10168125D01*
X21082000Y-17788125D02*
X21169500Y-17700625D01*
X21082000Y-17613125D01*
X20994500Y-17700625D01*
X21082000Y-17788125D01*
X21145500Y-12073125D02*
X21233000Y-11985625D01*
X21145500Y-11898125D01*
X21058000Y-11985625D01*
X21145500Y-12073125D01*
X21558250Y-15883125D02*
X21645750Y-15795625D01*
X21558250Y-15708125D01*
X21470750Y-15795625D01*
X21558250Y-15883125D01*
X21621750Y-13978125D02*
X21709250Y-13890625D01*
X21621750Y-13803125D01*
X21534250Y-13890625D01*
X21621750Y-13978125D01*
X21621750Y-17788125D02*
X21709250Y-17700625D01*
X21621750Y-17613125D01*
X21534250Y-17700625D01*
X21621750Y-17788125D01*
X22034500Y-12073125D02*
X22122000Y-11985625D01*
X22034500Y-11898125D01*
X21947000Y-11985625D01*
X22034500Y-12073125D01*
X22098000Y-10168125D02*
X22185500Y-10080625D01*
X22098000Y-9993125D01*
X22010500Y-10080625D01*
X22098000Y-10168125D01*
X22098000Y-17788125D02*
X22185500Y-17700625D01*
X22098000Y-17613125D01*
X22010500Y-17700625D01*
X22098000Y-17788125D01*
X22510750Y-13978125D02*
X22598250Y-13890625D01*
X22510750Y-13803125D01*
X22423250Y-13890625D01*
X22510750Y-13978125D01*
X22574250Y-15883125D02*
X22661750Y-15795625D01*
X22574250Y-15708125D01*
X22486750Y-15795625D01*
X22574250Y-15883125D01*
X22987000Y-10168125D02*
X23074500Y-10080625D01*
X22987000Y-9993125D01*
X22899500Y-10080625D01*
X22987000Y-10168125D01*
X23050500Y-12073125D02*
X23138000Y-11985625D01*
X23050500Y-11898125D01*
X22963000Y-11985625D01*
X23050500Y-12073125D01*
X23463250Y-15883125D02*
X23550750Y-15795625D01*
X23463250Y-15708125D01*
X23375750Y-15795625D01*
X23463250Y-15883125D01*
X23526750Y-13978125D02*
X23614250Y-13890625D01*
X23526750Y-13803125D01*
X23439250Y-13890625D01*
X23526750Y-13978125D01*
X23701375Y-17788125D02*
X23788875Y-17700625D01*
X23701375Y-17613125D01*
X23613875Y-17700625D01*
X23701375Y-17788125D01*
X23939500Y-12073125D02*
X24027000Y-11985625D01*
X23939500Y-11898125D01*
X23852000Y-11985625D01*
X23939500Y-12073125D01*
X24003000Y-10168125D02*
X24090500Y-10080625D01*
X24003000Y-9993125D01*
X23915500Y-10080625D01*
X24003000Y-10168125D01*
X24415750Y-13978125D02*
X24503250Y-13890625D01*
X24415750Y-13803125D01*
X24328250Y-13890625D01*
X24415750Y-13978125D01*
X24479250Y-15883125D02*
X24566750Y-15795625D01*
X24479250Y-15708125D01*
X24391750Y-15795625D01*
X24479250Y-15883125D01*
X24717375Y-17788125D02*
X24804875Y-17700625D01*
X24717375Y-17613125D01*
X24629875Y-17700625D01*
X24717375Y-17788125D01*
X24892000Y-10168125D02*
X24979500Y-10080625D01*
X24892000Y-9993125D01*
X24804500Y-10080625D01*
X24892000Y-10168125D01*
X24955500Y-12073125D02*
X25043000Y-11985625D01*
X24955500Y-11898125D01*
X24868000Y-11985625D01*
X24955500Y-12073125D01*
X25368250Y-15883125D02*
X25455750Y-15795625D01*
X25368250Y-15708125D01*
X25280750Y-15795625D01*
X25368250Y-15883125D01*
X25431750Y-13978125D02*
X25519250Y-13890625D01*
X25431750Y-13803125D01*
X25344250Y-13890625D01*
X25431750Y-13978125D01*
X25844500Y-12073125D02*
X25932000Y-11985625D01*
X25844500Y-11898125D01*
X25757000Y-11985625D01*
X25844500Y-12073125D01*
X25908000Y-10168125D02*
X25995500Y-10080625D01*
X25908000Y-9993125D01*
X25820500Y-10080625D01*
X25908000Y-10168125D01*
X26320750Y-13978125D02*
X26408250Y-13890625D01*
X26320750Y-13803125D01*
X26233250Y-13890625D01*
X26320750Y-13978125D01*
X26384250Y-15883125D02*
X26471750Y-15795625D01*
X26384250Y-15708125D01*
X26296750Y-15795625D01*
X26384250Y-15883125D01*
X26797000Y-10168125D02*
X26884500Y-10080625D01*
X26797000Y-9993125D01*
X26709500Y-10080625D01*
X26797000Y-10168125D01*
X26860500Y-12073125D02*
X26948000Y-11985625D01*
X26860500Y-11898125D01*
X26773000Y-11985625D01*
X26860500Y-12073125D01*
X27035125Y-17788125D02*
X27122625Y-17700625D01*
X27035125Y-17613125D01*
X26947625Y-17700625D01*
X27035125Y-17788125D01*
X27273250Y-15883125D02*
X27360750Y-15795625D01*
X27273250Y-15708125D01*
X27185750Y-15795625D01*
X27273250Y-15883125D01*
X27336750Y-13978125D02*
X27424250Y-13890625D01*
X27336750Y-13803125D01*
X27249250Y-13890625D01*
X27336750Y-13978125D01*
X27749500Y-12073125D02*
X27837000Y-11985625D01*
X27749500Y-11898125D01*
X27662000Y-11985625D01*
X27749500Y-12073125D01*
X27813000Y-10168125D02*
X27900500Y-10080625D01*
X27813000Y-9993125D01*
X27725500Y-10080625D01*
X27813000Y-10168125D01*
X28051125Y-17788125D02*
X28138625Y-17700625D01*
X28051125Y-17613125D01*
X27963625Y-17700625D01*
X28051125Y-17788125D01*
X28225750Y-13978125D02*
X28313250Y-13890625D01*
X28225750Y-13803125D01*
X28138250Y-13890625D01*
X28225750Y-13978125D01*
X28289250Y-15883125D02*
X28376750Y-15795625D01*
X28289250Y-15708125D01*
X28201750Y-15795625D01*
X28289250Y-15883125D01*
X28702000Y-10168125D02*
X28789500Y-10080625D01*
X28702000Y-9993125D01*
X28614500Y-10080625D01*
X28702000Y-10168125D01*
X28765500Y-12073125D02*
X28853000Y-11985625D01*
X28765500Y-11898125D01*
X28678000Y-11985625D01*
X28765500Y-12073125D01*
X29178250Y-15883125D02*
X29265750Y-15795625D01*
X29178250Y-15708125D01*
X29090750Y-15795625D01*
X29178250Y-15883125D01*
X29178250Y-17788125D02*
X29265750Y-17700625D01*
X29178250Y-17613125D01*
X29090750Y-17700625D01*
X29178250Y-17788125D01*
X29241750Y-13978125D02*
X29329250Y-13890625D01*
X29241750Y-13803125D01*
X29154250Y-13890625D01*
X29241750Y-13978125D01*
X29416375Y-17788125D02*
X29503875Y-17700625D01*
X29416375Y-17613125D01*
X29328875Y-17700625D01*
X29416375Y-17788125D01*
X29654500Y-12073125D02*
X29742000Y-11985625D01*
X29654500Y-11898125D01*
X29567000Y-11985625D01*
X29654500Y-12073125D01*
X29718000Y-10168125D02*
X29805500Y-10080625D01*
X29718000Y-9993125D01*
X29630500Y-10080625D01*
X29718000Y-10168125D01*
X30130750Y-13978125D02*
X30218250Y-13890625D01*
X30130750Y-13803125D01*
X30043250Y-13890625D01*
X30130750Y-13978125D01*
X30194250Y-15883125D02*
X30281750Y-15795625D01*
X30194250Y-15708125D01*
X30106750Y-15795625D01*
X30194250Y-15883125D01*
X30194250Y-17788125D02*
X30281750Y-17700625D01*
X30194250Y-17613125D01*
X30106750Y-17700625D01*
X30194250Y-17788125D01*
X30432375Y-17788125D02*
X30519875Y-17700625D01*
X30432375Y-17613125D01*
X30344875Y-17700625D01*
X30432375Y-17788125D01*
X30607000Y-10168125D02*
X30694500Y-10080625D01*
X30607000Y-9993125D01*
X30519500Y-10080625D01*
X30607000Y-10168125D01*
X30670500Y-12073125D02*
X30758000Y-11985625D01*
X30670500Y-11898125D01*
X30583000Y-11985625D01*
X30670500Y-12073125D01*
X31146750Y-13978125D02*
X31234250Y-13890625D01*
X31146750Y-13803125D01*
X31059250Y-13890625D01*
X31146750Y-13978125D01*
X31559500Y-12073125D02*
X31647000Y-11985625D01*
X31559500Y-11898125D01*
X31472000Y-11985625D01*
X31559500Y-12073125D01*
X31559500Y-17788125D02*
X31647000Y-17700625D01*
X31559500Y-17613125D01*
X31472000Y-17700625D01*
X31559500Y-17788125D01*
X31623000Y-10168125D02*
X31710500Y-10080625D01*
X31623000Y-9993125D01*
X31535500Y-10080625D01*
X31623000Y-10168125D01*
X31797625Y-15883125D02*
X31885125Y-15795625D01*
X31797625Y-15708125D01*
X31710125Y-15795625D01*
X31797625Y-15883125D01*
X31797625Y-17788125D02*
X31885125Y-17700625D01*
X31797625Y-17613125D01*
X31710125Y-17700625D01*
X31797625Y-17788125D01*
X32035750Y-13978125D02*
X32123250Y-13890625D01*
X32035750Y-13803125D01*
X31948250Y-13890625D01*
X32035750Y-13978125D01*
X32512000Y-10168125D02*
X32599500Y-10080625D01*
X32512000Y-9993125D01*
X32424500Y-10080625D01*
X32512000Y-10168125D01*
X32575500Y-12073125D02*
X32663000Y-11985625D01*
X32575500Y-11898125D01*
X32488000Y-11985625D01*
X32575500Y-12073125D01*
X32575500Y-17788125D02*
X32663000Y-17700625D01*
X32575500Y-17613125D01*
X32488000Y-17700625D01*
X32575500Y-17788125D01*
X32750125Y-15883125D02*
X32837625Y-15795625D01*
X32750125Y-15708125D01*
X32662625Y-15795625D01*
X32750125Y-15883125D01*
X32813625Y-15883125D02*
X32901125Y-15795625D01*
X32813625Y-15708125D01*
X32726125Y-15795625D01*
X32813625Y-15883125D01*
X32813625Y-17788125D02*
X32901125Y-17700625D01*
X32813625Y-17613125D01*
X32726125Y-17700625D01*
X32813625Y-17788125D01*
X33051750Y-13978125D02*
X33139250Y-13890625D01*
X33051750Y-13803125D01*
X32964250Y-13890625D01*
X33051750Y-13978125D01*
X33226375Y-13978125D02*
X33313875Y-13890625D01*
X33226375Y-13803125D01*
X33138875Y-13890625D01*
X33226375Y-13978125D01*
X33464500Y-10168125D02*
X33552000Y-10080625D01*
X33464500Y-9993125D01*
X33377000Y-10080625D01*
X33464500Y-10168125D01*
X33528000Y-10168125D02*
X33615500Y-10080625D01*
X33528000Y-9993125D01*
X33440500Y-10080625D01*
X33528000Y-10168125D01*
X33766125Y-15883125D02*
X33853625Y-15795625D01*
X33766125Y-15708125D01*
X33678625Y-15795625D01*
X33766125Y-15883125D01*
X33940750Y-12073125D02*
X34028250Y-11985625D01*
X33940750Y-11898125D01*
X33853250Y-11985625D01*
X33940750Y-12073125D01*
X33940750Y-17788125D02*
X34028250Y-17700625D01*
X33940750Y-17613125D01*
X33853250Y-17700625D01*
X33940750Y-17788125D01*
X34178875Y-17788125D02*
X34266375Y-17700625D01*
X34178875Y-17613125D01*
X34091375Y-17700625D01*
X34178875Y-17788125D01*
X34242375Y-13978125D02*
X34329875Y-13890625D01*
X34242375Y-13803125D01*
X34154875Y-13890625D01*
X34242375Y-13978125D01*
X34417000Y-10168125D02*
X34504500Y-10080625D01*
X34417000Y-9993125D01*
X34329500Y-10080625D01*
X34417000Y-10168125D01*
X34417000Y-15883125D02*
X34504500Y-15795625D01*
X34417000Y-15708125D01*
X34329500Y-15795625D01*
X34417000Y-15883125D01*
X34480500Y-10168125D02*
X34568000Y-10080625D01*
X34480500Y-9993125D01*
X34393000Y-10080625D01*
X34480500Y-10168125D01*
X34686875Y-12517625D02*
X34774375Y-12430125D01*
X34686875Y-12342625D01*
X34599375Y-12430125D01*
X34686875Y-12517625D01*
X34686875Y-13533625D02*
X34774375Y-13446125D01*
X34686875Y-13358625D01*
X34599375Y-13446125D01*
X34686875Y-13533625D01*
X34956750Y-12073125D02*
X35044250Y-11985625D01*
X34956750Y-11898125D01*
X34869250Y-11985625D01*
X34956750Y-12073125D01*
X34956750Y-17788125D02*
X35044250Y-17700625D01*
X34956750Y-17613125D01*
X34869250Y-17700625D01*
X34956750Y-17788125D01*
X35194875Y-17788125D02*
X35282375Y-17700625D01*
X35194875Y-17613125D01*
X35107375Y-17700625D01*
X35194875Y-17788125D01*
X35433000Y-10168125D02*
X35520500Y-10080625D01*
X35433000Y-9993125D01*
X35345500Y-10080625D01*
X35433000Y-10168125D01*
X35433000Y-15883125D02*
X35520500Y-15795625D01*
X35433000Y-15708125D01*
X35345500Y-15795625D01*
X35433000Y-15883125D01*
D11*
X7540000Y-11885475D02*
X7740000Y-12085475D01*
X7740000Y-11885475D02*
X7540000Y-12085475D01*
X7740000Y-11985475D02*
G75*
G03*
X7740000Y-11985475I-100000J0D01*
G01*
X9703200Y-17600475D02*
X9903200Y-17800475D01*
X9903200Y-17600475D02*
X9703200Y-17800475D01*
X9903200Y-17700475D02*
G75*
G03*
X9903200Y-17700475I-100000J0D01*
G01*
X11489000Y-15695375D02*
X11689000Y-15895375D01*
X11689000Y-15695375D02*
X11489000Y-15895375D01*
X11689000Y-15795375D02*
G75*
G03*
X11689000Y-15795375I-100000J0D01*
G01*
X14527500Y-17600075D02*
X14727500Y-17800075D01*
X14727500Y-17600075D02*
X14527500Y-17800075D01*
X14727500Y-17700075D02*
G75*
G03*
X14727500Y-17700075I-100000J0D01*
G01*
X17677200Y-11978775D02*
X17877200Y-12178775D01*
X17877200Y-11978775D02*
X17677200Y-12178775D01*
X17877200Y-12078775D02*
G75*
G03*
X17877200Y-12078775I-100000J0D01*
G01*
X25300700Y-11977175D02*
X25500700Y-12177175D01*
X25500700Y-11977175D02*
X25300700Y-12177175D01*
X25500700Y-12077175D02*
G75*
G03*
X25500700Y-12077175I-100000J0D01*
G01*
X26191900Y-17599975D02*
X26391900Y-17799975D01*
X26391900Y-17599975D02*
X26191900Y-17799975D01*
X26391900Y-17699975D02*
G75*
G03*
X26391900Y-17699975I-100000J0D01*
G01*
X30895500Y-15761375D02*
X31095500Y-15961375D01*
X31095500Y-15761375D02*
X30895500Y-15961375D01*
X31095500Y-15861375D02*
G75*
G03*
X31095500Y-15861375I-100000J0D01*
G01*
X33158000Y-11884975D02*
X33358000Y-12084975D01*
X33358000Y-11884975D02*
X33158000Y-12084975D01*
X33358000Y-11984975D02*
G75*
G03*
X33358000Y-11984975I-100000J0D01*
G01*
X33277000Y-17600075D02*
X33477000Y-17800075D01*
X33477000Y-17600075D02*
X33277000Y-17800075D01*
X33477000Y-17700075D02*
G75*
G03*
X33477000Y-17700075I-100000J0D01*
G01*
D17*
X8099425Y-14944725D02*
X8404225Y-15249525D01*
X8404225Y-14944725D02*
X8099425Y-15249525D01*
X8251825Y-14944725D02*
X8251825Y-15249525D01*
X8099425Y-15097125D02*
X8404225Y-15097125D01*
X10487025Y-14944725D02*
X10791825Y-15249525D01*
X10791825Y-14944725D02*
X10487025Y-15249525D01*
X10639425Y-14944725D02*
X10639425Y-15249525D01*
X10487025Y-15097125D02*
X10791825Y-15097125D01*
X15246975Y-18246725D02*
X15551775Y-18551525D01*
X15551775Y-18246725D02*
X15246975Y-18551525D01*
X15399375Y-18246725D02*
X15399375Y-18551525D01*
X15246975Y-18399125D02*
X15551775Y-18399125D01*
X15722600Y-18246725D02*
X16027400Y-18551525D01*
X16027400Y-18246725D02*
X15722600Y-18551525D01*
X15875000Y-18246725D02*
X15875000Y-18551525D01*
X15722600Y-18399125D02*
X16027400Y-18399125D01*
X16195675Y-18246725D02*
X16500475Y-18551525D01*
X16500475Y-18246725D02*
X16195675Y-18551525D01*
X16348075Y-18246725D02*
X16348075Y-18551525D01*
X16195675Y-18399125D02*
X16500475Y-18399125D01*
X18583275Y-18246725D02*
X18888075Y-18551525D01*
X18888075Y-18246725D02*
X18583275Y-18551525D01*
X18735675Y-18246725D02*
X18735675Y-18551525D01*
X18583275Y-18399125D02*
X18888075Y-18399125D01*
X22863175Y-18246725D02*
X23167975Y-18551525D01*
X23167975Y-18246725D02*
X22863175Y-18551525D01*
X23015575Y-18246725D02*
X23015575Y-18551525D01*
X22863175Y-18399125D02*
X23167975Y-18399125D01*
X25246975Y-18246725D02*
X25551775Y-18551525D01*
X25551775Y-18246725D02*
X25246975Y-18551525D01*
X25399375Y-18246725D02*
X25399375Y-18551525D01*
X25246975Y-18399125D02*
X25551775Y-18399125D01*
X25250775Y-18246725D02*
X25555575Y-18551525D01*
X25555575Y-18246725D02*
X25250775Y-18551525D01*
X25403175Y-18246725D02*
X25403175Y-18551525D01*
X25250775Y-18399125D02*
X25555575Y-18399125D01*
X27152600Y-18246725D02*
X27457400Y-18551525D01*
X27457400Y-18246725D02*
X27152600Y-18551525D01*
X27305000Y-18246725D02*
X27305000Y-18551525D01*
X27152600Y-18399125D02*
X27457400Y-18399125D01*
X31911925Y-14944725D02*
X32216725Y-15249525D01*
X32216725Y-14944725D02*
X31911925Y-15249525D01*
X32064325Y-14944725D02*
X32064325Y-15249525D01*
X31911925Y-15097125D02*
X32216725Y-15097125D01*
X32388175Y-13039725D02*
X32692975Y-13344525D01*
X32692975Y-13039725D02*
X32388175Y-13344525D01*
X32540575Y-13039725D02*
X32540575Y-13344525D01*
X32388175Y-13192125D02*
X32692975Y-13192125D01*
X32626300Y-9229725D02*
X32931100Y-9534525D01*
X32931100Y-9229725D02*
X32626300Y-9534525D01*
X32778700Y-9229725D02*
X32778700Y-9534525D01*
X32626300Y-9382125D02*
X32931100Y-9382125D01*
X34299525Y-14944725D02*
X34604325Y-15249525D01*
X34604325Y-14944725D02*
X34299525Y-15249525D01*
X34451925Y-14944725D02*
X34451925Y-15249525D01*
X34299525Y-15097125D02*
X34604325Y-15097125D01*
X34775775Y-13039725D02*
X35080575Y-13344525D01*
X35080575Y-13039725D02*
X34775775Y-13344525D01*
X34928175Y-13039725D02*
X34928175Y-13344525D01*
X34775775Y-13192125D02*
X35080575Y-13192125D01*
X35013900Y-9229725D02*
X35318700Y-9534525D01*
X35318700Y-9229725D02*
X35013900Y-9534525D01*
X35166300Y-9229725D02*
X35166300Y-9534525D01*
X35013900Y-9382125D02*
X35318700Y-9382125D01*
X35232975Y-11591925D02*
X35537775Y-11896725D01*
X35537775Y-11591925D02*
X35232975Y-11896725D01*
X35385375Y-11591925D02*
X35385375Y-11896725D01*
X35232975Y-11744325D02*
X35537775Y-11744325D01*
X35232975Y-13979525D02*
X35537775Y-14284325D01*
X35537775Y-13979525D02*
X35232975Y-14284325D01*
X35385375Y-13979525D02*
X35385375Y-14284325D01*
X35232975Y-14131925D02*
X35537775Y-14131925D01*
D18*
X8052435Y-16421735D02*
X8451215Y-16820515D01*
X8451215Y-16421735D02*
X8052435Y-16820515D01*
X8392816Y-16762116D02*
X8392816Y-16480134D01*
X8110834Y-16480134D01*
X8110834Y-16762116D01*
X8392816Y-16762116D01*
X10440035Y-16421735D02*
X10838815Y-16820515D01*
X10838815Y-16421735D02*
X10440035Y-16820515D01*
X10780416Y-16762116D02*
X10780416Y-16480134D01*
X10498434Y-16480134D01*
X10498434Y-16762116D01*
X10780416Y-16762116D01*
X15199985Y-16675735D02*
X15598765Y-17074515D01*
X15598765Y-16675735D02*
X15199985Y-17074515D01*
X15540366Y-17016116D02*
X15540366Y-16734134D01*
X15258384Y-16734134D01*
X15258384Y-17016116D01*
X15540366Y-17016116D01*
X15675610Y-16675735D02*
X16074390Y-17074515D01*
X16074390Y-16675735D02*
X15675610Y-17074515D01*
X16015991Y-17016116D02*
X16015991Y-16734134D01*
X15734009Y-16734134D01*
X15734009Y-17016116D01*
X16015991Y-17016116D01*
X16148685Y-16675735D02*
X16547465Y-17074515D01*
X16547465Y-16675735D02*
X16148685Y-17074515D01*
X16489066Y-17016116D02*
X16489066Y-16734134D01*
X16207084Y-16734134D01*
X16207084Y-17016116D01*
X16489066Y-17016116D01*
X18536285Y-16675735D02*
X18935065Y-17074515D01*
X18935065Y-16675735D02*
X18536285Y-17074515D01*
X18876666Y-17016116D02*
X18876666Y-16734134D01*
X18594684Y-16734134D01*
X18594684Y-17016116D01*
X18876666Y-17016116D01*
X22816185Y-16675735D02*
X23214965Y-17074515D01*
X23214965Y-16675735D02*
X22816185Y-17074515D01*
X23156566Y-17016116D02*
X23156566Y-16734134D01*
X22874584Y-16734134D01*
X22874584Y-17016116D01*
X23156566Y-17016116D01*
X25199985Y-16675735D02*
X25598765Y-17074515D01*
X25598765Y-16675735D02*
X25199985Y-17074515D01*
X25540366Y-17016116D02*
X25540366Y-16734134D01*
X25258384Y-16734134D01*
X25258384Y-17016116D01*
X25540366Y-17016116D01*
X25203785Y-16675735D02*
X25602565Y-17074515D01*
X25602565Y-16675735D02*
X25203785Y-17074515D01*
X25544166Y-17016116D02*
X25544166Y-16734134D01*
X25262184Y-16734134D01*
X25262184Y-17016116D01*
X25544166Y-17016116D01*
X27105610Y-16675735D02*
X27504390Y-17074515D01*
X27504390Y-16675735D02*
X27105610Y-17074515D01*
X27445991Y-17016116D02*
X27445991Y-16734134D01*
X27164009Y-16734134D01*
X27164009Y-17016116D01*
X27445991Y-17016116D01*
X31864935Y-16421735D02*
X32263715Y-16820515D01*
X32263715Y-16421735D02*
X31864935Y-16820515D01*
X32205316Y-16762116D02*
X32205316Y-16480134D01*
X31923334Y-16480134D01*
X31923334Y-16762116D01*
X32205316Y-16762116D01*
X32341185Y-14516735D02*
X32739965Y-14915515D01*
X32739965Y-14516735D02*
X32341185Y-14915515D01*
X32681566Y-14857116D02*
X32681566Y-14575134D01*
X32399584Y-14575134D01*
X32399584Y-14857116D01*
X32681566Y-14857116D01*
X32579310Y-10706735D02*
X32978090Y-11105515D01*
X32978090Y-10706735D02*
X32579310Y-11105515D01*
X32919691Y-11047116D02*
X32919691Y-10765134D01*
X32637709Y-10765134D01*
X32637709Y-11047116D01*
X32919691Y-11047116D01*
X33661985Y-11544935D02*
X34060765Y-11943715D01*
X34060765Y-11544935D02*
X33661985Y-11943715D01*
X34002366Y-11885316D02*
X34002366Y-11603334D01*
X33720384Y-11603334D01*
X33720384Y-11885316D01*
X34002366Y-11885316D01*
X33661985Y-13932535D02*
X34060765Y-14331315D01*
X34060765Y-13932535D02*
X33661985Y-14331315D01*
X34002366Y-14272916D02*
X34002366Y-13990934D01*
X33720384Y-13990934D01*
X33720384Y-14272916D01*
X34002366Y-14272916D01*
X34252535Y-16421735D02*
X34651315Y-16820515D01*
X34651315Y-16421735D02*
X34252535Y-16820515D01*
X34592916Y-16762116D02*
X34592916Y-16480134D01*
X34310934Y-16480134D01*
X34310934Y-16762116D01*
X34592916Y-16762116D01*
X34728785Y-14516735D02*
X35127565Y-14915515D01*
X35127565Y-14516735D02*
X34728785Y-14915515D01*
X35069166Y-14857116D02*
X35069166Y-14575134D01*
X34787184Y-14575134D01*
X34787184Y-14857116D01*
X35069166Y-14857116D01*
X34966910Y-10706735D02*
X35365690Y-11105515D01*
X35365690Y-10706735D02*
X34966910Y-11105515D01*
X35307291Y-11047116D02*
X35307291Y-10765134D01*
X35025309Y-10765134D01*
X35025309Y-11047116D01*
X35307291Y-11047116D01*
D19*
X8055000Y-9880625D02*
X8455000Y-10280625D01*
X8455000Y-9880625D02*
X8055000Y-10280625D01*
X8255000Y-10280625D02*
X8455000Y-10080625D01*
X8255000Y-9880625D01*
X8055000Y-10080625D01*
X8255000Y-10280625D01*
X8293125Y-13690625D02*
X8693125Y-14090625D01*
X8693125Y-13690625D02*
X8293125Y-14090625D01*
X8493125Y-14090625D02*
X8693125Y-13890625D01*
X8493125Y-13690625D01*
X8293125Y-13890625D01*
X8493125Y-14090625D01*
X8293125Y-15595625D02*
X8693125Y-15995625D01*
X8693125Y-15595625D02*
X8293125Y-15995625D01*
X8493125Y-15995625D02*
X8693125Y-15795625D01*
X8493125Y-15595625D01*
X8293125Y-15795625D01*
X8493125Y-15995625D01*
X8293125Y-17500625D02*
X8693125Y-17900625D01*
X8693125Y-17500625D02*
X8293125Y-17900625D01*
X8493125Y-17900625D02*
X8693125Y-17700625D01*
X8493125Y-17500625D01*
X8293125Y-17700625D01*
X8493125Y-17900625D01*
X8531250Y-11785625D02*
X8931250Y-12185625D01*
X8931250Y-11785625D02*
X8531250Y-12185625D01*
X8731250Y-12185625D02*
X8931250Y-11985625D01*
X8731250Y-11785625D01*
X8531250Y-11985625D01*
X8731250Y-12185625D01*
X8531250Y-17500625D02*
X8931250Y-17900625D01*
X8931250Y-17500625D02*
X8531250Y-17900625D01*
X8731250Y-17900625D02*
X8931250Y-17700625D01*
X8731250Y-17500625D01*
X8531250Y-17700625D01*
X8731250Y-17900625D01*
X8769375Y-13690625D02*
X9169375Y-14090625D01*
X9169375Y-13690625D02*
X8769375Y-14090625D01*
X8969375Y-14090625D02*
X9169375Y-13890625D01*
X8969375Y-13690625D01*
X8769375Y-13890625D01*
X8969375Y-14090625D01*
X9245625Y-15595625D02*
X9645625Y-15995625D01*
X9645625Y-15595625D02*
X9245625Y-15995625D01*
X9445625Y-15995625D02*
X9645625Y-15795625D01*
X9445625Y-15595625D01*
X9245625Y-15795625D01*
X9445625Y-15995625D01*
X9960000Y-9880625D02*
X10360000Y-10280625D01*
X10360000Y-9880625D02*
X9960000Y-10280625D01*
X10160000Y-10280625D02*
X10360000Y-10080625D01*
X10160000Y-9880625D01*
X9960000Y-10080625D01*
X10160000Y-10280625D01*
X10436250Y-15595625D02*
X10836250Y-15995625D01*
X10836250Y-15595625D02*
X10436250Y-15995625D01*
X10636250Y-15995625D02*
X10836250Y-15795625D01*
X10636250Y-15595625D01*
X10436250Y-15795625D01*
X10636250Y-15995625D01*
X10674375Y-17500625D02*
X11074375Y-17900625D01*
X11074375Y-17500625D02*
X10674375Y-17900625D01*
X10874375Y-17900625D02*
X11074375Y-17700625D01*
X10874375Y-17500625D01*
X10674375Y-17700625D01*
X10874375Y-17900625D01*
X10912500Y-11785625D02*
X11312500Y-12185625D01*
X11312500Y-11785625D02*
X10912500Y-12185625D01*
X11112500Y-12185625D02*
X11312500Y-11985625D01*
X11112500Y-11785625D01*
X10912500Y-11985625D01*
X11112500Y-12185625D01*
X10912500Y-17500625D02*
X11312500Y-17900625D01*
X11312500Y-17500625D02*
X10912500Y-17900625D01*
X11112500Y-17900625D02*
X11312500Y-17700625D01*
X11112500Y-17500625D01*
X10912500Y-17700625D01*
X11112500Y-17900625D01*
X11388750Y-13690625D02*
X11788750Y-14090625D01*
X11788750Y-13690625D02*
X11388750Y-14090625D01*
X11588750Y-14090625D02*
X11788750Y-13890625D01*
X11588750Y-13690625D01*
X11388750Y-13890625D01*
X11588750Y-14090625D01*
X11865000Y-9880625D02*
X12265000Y-10280625D01*
X12265000Y-9880625D02*
X11865000Y-10280625D01*
X12065000Y-10280625D02*
X12265000Y-10080625D01*
X12065000Y-9880625D01*
X11865000Y-10080625D01*
X12065000Y-10280625D01*
X12341250Y-15595625D02*
X12741250Y-15995625D01*
X12741250Y-15595625D02*
X12341250Y-15995625D01*
X12541250Y-15995625D02*
X12741250Y-15795625D01*
X12541250Y-15595625D01*
X12341250Y-15795625D01*
X12541250Y-15995625D01*
X12817500Y-11785625D02*
X13217500Y-12185625D01*
X13217500Y-11785625D02*
X12817500Y-12185625D01*
X13017500Y-12185625D02*
X13217500Y-11985625D01*
X13017500Y-11785625D01*
X12817500Y-11985625D01*
X13017500Y-12185625D01*
X13055625Y-17500625D02*
X13455625Y-17900625D01*
X13455625Y-17500625D02*
X13055625Y-17900625D01*
X13255625Y-17900625D02*
X13455625Y-17700625D01*
X13255625Y-17500625D01*
X13055625Y-17700625D01*
X13255625Y-17900625D01*
X13293750Y-13690625D02*
X13693750Y-14090625D01*
X13693750Y-13690625D02*
X13293750Y-14090625D01*
X13493750Y-14090625D02*
X13693750Y-13890625D01*
X13493750Y-13690625D01*
X13293750Y-13890625D01*
X13493750Y-14090625D01*
X13293750Y-17500625D02*
X13693750Y-17900625D01*
X13693750Y-17500625D02*
X13293750Y-17900625D01*
X13493750Y-17900625D02*
X13693750Y-17700625D01*
X13493750Y-17500625D01*
X13293750Y-17700625D01*
X13493750Y-17900625D01*
X13770000Y-9880625D02*
X14170000Y-10280625D01*
X14170000Y-9880625D02*
X13770000Y-10280625D01*
X13970000Y-10280625D02*
X14170000Y-10080625D01*
X13970000Y-9880625D01*
X13770000Y-10080625D01*
X13970000Y-10280625D01*
X14246250Y-15595625D02*
X14646250Y-15995625D01*
X14646250Y-15595625D02*
X14246250Y-15995625D01*
X14446250Y-15995625D02*
X14646250Y-15795625D01*
X14446250Y-15595625D01*
X14246250Y-15795625D01*
X14446250Y-15995625D01*
X14722500Y-11785625D02*
X15122500Y-12185625D01*
X15122500Y-11785625D02*
X14722500Y-12185625D01*
X14922500Y-12185625D02*
X15122500Y-11985625D01*
X14922500Y-11785625D01*
X14722500Y-11985625D01*
X14922500Y-12185625D01*
X15198750Y-13690625D02*
X15598750Y-14090625D01*
X15598750Y-13690625D02*
X15198750Y-14090625D01*
X15398750Y-14090625D02*
X15598750Y-13890625D01*
X15398750Y-13690625D01*
X15198750Y-13890625D01*
X15398750Y-14090625D01*
X15675000Y-9880625D02*
X16075000Y-10280625D01*
X16075000Y-9880625D02*
X15675000Y-10280625D01*
X15875000Y-10280625D02*
X16075000Y-10080625D01*
X15875000Y-9880625D01*
X15675000Y-10080625D01*
X15875000Y-10280625D01*
X16151250Y-15595625D02*
X16551250Y-15995625D01*
X16551250Y-15595625D02*
X16151250Y-15995625D01*
X16351250Y-15995625D02*
X16551250Y-15795625D01*
X16351250Y-15595625D01*
X16151250Y-15795625D01*
X16351250Y-15995625D01*
X16627500Y-11785625D02*
X17027500Y-12185625D01*
X17027500Y-11785625D02*
X16627500Y-12185625D01*
X16827500Y-12185625D02*
X17027500Y-11985625D01*
X16827500Y-11785625D01*
X16627500Y-11985625D01*
X16827500Y-12185625D01*
X17103750Y-13690625D02*
X17503750Y-14090625D01*
X17503750Y-13690625D02*
X17103750Y-14090625D01*
X17303750Y-14090625D02*
X17503750Y-13890625D01*
X17303750Y-13690625D01*
X17103750Y-13890625D01*
X17303750Y-14090625D01*
X17341875Y-17500625D02*
X17741875Y-17900625D01*
X17741875Y-17500625D02*
X17341875Y-17900625D01*
X17541875Y-17900625D02*
X17741875Y-17700625D01*
X17541875Y-17500625D01*
X17341875Y-17700625D01*
X17541875Y-17900625D01*
X17580000Y-9880625D02*
X17980000Y-10280625D01*
X17980000Y-9880625D02*
X17580000Y-10280625D01*
X17780000Y-10280625D02*
X17980000Y-10080625D01*
X17780000Y-9880625D01*
X17580000Y-10080625D01*
X17780000Y-10280625D01*
X18056250Y-15595625D02*
X18456250Y-15995625D01*
X18456250Y-15595625D02*
X18056250Y-15995625D01*
X18256250Y-15995625D02*
X18456250Y-15795625D01*
X18256250Y-15595625D01*
X18056250Y-15795625D01*
X18256250Y-15995625D01*
X18532500Y-11785625D02*
X18932500Y-12185625D01*
X18932500Y-11785625D02*
X18532500Y-12185625D01*
X18732500Y-12185625D02*
X18932500Y-11985625D01*
X18732500Y-11785625D01*
X18532500Y-11985625D01*
X18732500Y-12185625D01*
X19008750Y-13690625D02*
X19408750Y-14090625D01*
X19408750Y-13690625D02*
X19008750Y-14090625D01*
X19208750Y-14090625D02*
X19408750Y-13890625D01*
X19208750Y-13690625D01*
X19008750Y-13890625D01*
X19208750Y-14090625D01*
X19485000Y-9880625D02*
X19885000Y-10280625D01*
X19885000Y-9880625D02*
X19485000Y-10280625D01*
X19685000Y-10280625D02*
X19885000Y-10080625D01*
X19685000Y-9880625D01*
X19485000Y-10080625D01*
X19685000Y-10280625D01*
X19961250Y-15595625D02*
X20361250Y-15995625D01*
X20361250Y-15595625D02*
X19961250Y-15995625D01*
X20161250Y-15995625D02*
X20361250Y-15795625D01*
X20161250Y-15595625D01*
X19961250Y-15795625D01*
X20161250Y-15995625D01*
X20199375Y-17500625D02*
X20599375Y-17900625D01*
X20599375Y-17500625D02*
X20199375Y-17900625D01*
X20399375Y-17900625D02*
X20599375Y-17700625D01*
X20399375Y-17500625D01*
X20199375Y-17700625D01*
X20399375Y-17900625D01*
X20437500Y-11785625D02*
X20837500Y-12185625D01*
X20837500Y-11785625D02*
X20437500Y-12185625D01*
X20637500Y-12185625D02*
X20837500Y-11985625D01*
X20637500Y-11785625D01*
X20437500Y-11985625D01*
X20637500Y-12185625D01*
X20913750Y-13690625D02*
X21313750Y-14090625D01*
X21313750Y-13690625D02*
X20913750Y-14090625D01*
X21113750Y-14090625D02*
X21313750Y-13890625D01*
X21113750Y-13690625D01*
X20913750Y-13890625D01*
X21113750Y-14090625D01*
X20913750Y-17500625D02*
X21313750Y-17900625D01*
X21313750Y-17500625D02*
X20913750Y-17900625D01*
X21113750Y-17900625D02*
X21313750Y-17700625D01*
X21113750Y-17500625D01*
X20913750Y-17700625D01*
X21113750Y-17900625D01*
X21390000Y-9880625D02*
X21790000Y-10280625D01*
X21790000Y-9880625D02*
X21390000Y-10280625D01*
X21590000Y-10280625D02*
X21790000Y-10080625D01*
X21590000Y-9880625D01*
X21390000Y-10080625D01*
X21590000Y-10280625D01*
X21390000Y-17500625D02*
X21790000Y-17900625D01*
X21790000Y-17500625D02*
X21390000Y-17900625D01*
X21590000Y-17900625D02*
X21790000Y-17700625D01*
X21590000Y-17500625D01*
X21390000Y-17700625D01*
X21590000Y-17900625D01*
X21866250Y-15595625D02*
X22266250Y-15995625D01*
X22266250Y-15595625D02*
X21866250Y-15995625D01*
X22066250Y-15995625D02*
X22266250Y-15795625D01*
X22066250Y-15595625D01*
X21866250Y-15795625D01*
X22066250Y-15995625D01*
X22342500Y-11785625D02*
X22742500Y-12185625D01*
X22742500Y-11785625D02*
X22342500Y-12185625D01*
X22542500Y-12185625D02*
X22742500Y-11985625D01*
X22542500Y-11785625D01*
X22342500Y-11985625D01*
X22542500Y-12185625D01*
X22818750Y-13690625D02*
X23218750Y-14090625D01*
X23218750Y-13690625D02*
X22818750Y-14090625D01*
X23018750Y-14090625D02*
X23218750Y-13890625D01*
X23018750Y-13690625D01*
X22818750Y-13890625D01*
X23018750Y-14090625D01*
X23295000Y-9880625D02*
X23695000Y-10280625D01*
X23695000Y-9880625D02*
X23295000Y-10280625D01*
X23495000Y-10280625D02*
X23695000Y-10080625D01*
X23495000Y-9880625D01*
X23295000Y-10080625D01*
X23495000Y-10280625D01*
X23771250Y-15595625D02*
X24171250Y-15995625D01*
X24171250Y-15595625D02*
X23771250Y-15995625D01*
X23971250Y-15995625D02*
X24171250Y-15795625D01*
X23971250Y-15595625D01*
X23771250Y-15795625D01*
X23971250Y-15995625D01*
X24009375Y-17500625D02*
X24409375Y-17900625D01*
X24409375Y-17500625D02*
X24009375Y-17900625D01*
X24209375Y-17900625D02*
X24409375Y-17700625D01*
X24209375Y-17500625D01*
X24009375Y-17700625D01*
X24209375Y-17900625D01*
X24247500Y-11785625D02*
X24647500Y-12185625D01*
X24647500Y-11785625D02*
X24247500Y-12185625D01*
X24447500Y-12185625D02*
X24647500Y-11985625D01*
X24447500Y-11785625D01*
X24247500Y-11985625D01*
X24447500Y-12185625D01*
X24723750Y-13690625D02*
X25123750Y-14090625D01*
X25123750Y-13690625D02*
X24723750Y-14090625D01*
X24923750Y-14090625D02*
X25123750Y-13890625D01*
X24923750Y-13690625D01*
X24723750Y-13890625D01*
X24923750Y-14090625D01*
X25200000Y-9880625D02*
X25600000Y-10280625D01*
X25600000Y-9880625D02*
X25200000Y-10280625D01*
X25400000Y-10280625D02*
X25600000Y-10080625D01*
X25400000Y-9880625D01*
X25200000Y-10080625D01*
X25400000Y-10280625D01*
X25676250Y-15595625D02*
X26076250Y-15995625D01*
X26076250Y-15595625D02*
X25676250Y-15995625D01*
X25876250Y-15995625D02*
X26076250Y-15795625D01*
X25876250Y-15595625D01*
X25676250Y-15795625D01*
X25876250Y-15995625D01*
X26152500Y-11785625D02*
X26552500Y-12185625D01*
X26552500Y-11785625D02*
X26152500Y-12185625D01*
X26352500Y-12185625D02*
X26552500Y-11985625D01*
X26352500Y-11785625D01*
X26152500Y-11985625D01*
X26352500Y-12185625D01*
X26628750Y-13690625D02*
X27028750Y-14090625D01*
X27028750Y-13690625D02*
X26628750Y-14090625D01*
X26828750Y-14090625D02*
X27028750Y-13890625D01*
X26828750Y-13690625D01*
X26628750Y-13890625D01*
X26828750Y-14090625D01*
X27105000Y-9880625D02*
X27505000Y-10280625D01*
X27505000Y-9880625D02*
X27105000Y-10280625D01*
X27305000Y-10280625D02*
X27505000Y-10080625D01*
X27305000Y-9880625D01*
X27105000Y-10080625D01*
X27305000Y-10280625D01*
X27343125Y-17500625D02*
X27743125Y-17900625D01*
X27743125Y-17500625D02*
X27343125Y-17900625D01*
X27543125Y-17900625D02*
X27743125Y-17700625D01*
X27543125Y-17500625D01*
X27343125Y-17700625D01*
X27543125Y-17900625D01*
X27581250Y-15595625D02*
X27981250Y-15995625D01*
X27981250Y-15595625D02*
X27581250Y-15995625D01*
X27781250Y-15995625D02*
X27981250Y-15795625D01*
X27781250Y-15595625D01*
X27581250Y-15795625D01*
X27781250Y-15995625D01*
X28057500Y-11785625D02*
X28457500Y-12185625D01*
X28457500Y-11785625D02*
X28057500Y-12185625D01*
X28257500Y-12185625D02*
X28457500Y-11985625D01*
X28257500Y-11785625D01*
X28057500Y-11985625D01*
X28257500Y-12185625D01*
X28533750Y-13690625D02*
X28933750Y-14090625D01*
X28933750Y-13690625D02*
X28533750Y-14090625D01*
X28733750Y-14090625D02*
X28933750Y-13890625D01*
X28733750Y-13690625D01*
X28533750Y-13890625D01*
X28733750Y-14090625D01*
X29010000Y-9880625D02*
X29410000Y-10280625D01*
X29410000Y-9880625D02*
X29010000Y-10280625D01*
X29210000Y-10280625D02*
X29410000Y-10080625D01*
X29210000Y-9880625D01*
X29010000Y-10080625D01*
X29210000Y-10280625D01*
X29486250Y-15595625D02*
X29886250Y-15995625D01*
X29886250Y-15595625D02*
X29486250Y-15995625D01*
X29686250Y-15995625D02*
X29886250Y-15795625D01*
X29686250Y-15595625D01*
X29486250Y-15795625D01*
X29686250Y-15995625D01*
X29486250Y-17500625D02*
X29886250Y-17900625D01*
X29886250Y-17500625D02*
X29486250Y-17900625D01*
X29686250Y-17900625D02*
X29886250Y-17700625D01*
X29686250Y-17500625D01*
X29486250Y-17700625D01*
X29686250Y-17900625D01*
X29724375Y-17500625D02*
X30124375Y-17900625D01*
X30124375Y-17500625D02*
X29724375Y-17900625D01*
X29924375Y-17900625D02*
X30124375Y-17700625D01*
X29924375Y-17500625D01*
X29724375Y-17700625D01*
X29924375Y-17900625D01*
X29962500Y-11785625D02*
X30362500Y-12185625D01*
X30362500Y-11785625D02*
X29962500Y-12185625D01*
X30162500Y-12185625D02*
X30362500Y-11985625D01*
X30162500Y-11785625D01*
X29962500Y-11985625D01*
X30162500Y-12185625D01*
X30438750Y-13690625D02*
X30838750Y-14090625D01*
X30838750Y-13690625D02*
X30438750Y-14090625D01*
X30638750Y-14090625D02*
X30838750Y-13890625D01*
X30638750Y-13690625D01*
X30438750Y-13890625D01*
X30638750Y-14090625D01*
X30915000Y-9880625D02*
X31315000Y-10280625D01*
X31315000Y-9880625D02*
X30915000Y-10280625D01*
X31115000Y-10280625D02*
X31315000Y-10080625D01*
X31115000Y-9880625D01*
X30915000Y-10080625D01*
X31115000Y-10280625D01*
X31867500Y-11785625D02*
X32267500Y-12185625D01*
X32267500Y-11785625D02*
X31867500Y-12185625D01*
X32067500Y-12185625D02*
X32267500Y-11985625D01*
X32067500Y-11785625D01*
X31867500Y-11985625D01*
X32067500Y-12185625D01*
X31867500Y-17500625D02*
X32267500Y-17900625D01*
X32267500Y-17500625D02*
X31867500Y-17900625D01*
X32067500Y-17900625D02*
X32267500Y-17700625D01*
X32067500Y-17500625D01*
X31867500Y-17700625D01*
X32067500Y-17900625D01*
X32105625Y-15595625D02*
X32505625Y-15995625D01*
X32505625Y-15595625D02*
X32105625Y-15995625D01*
X32305625Y-15995625D02*
X32505625Y-15795625D01*
X32305625Y-15595625D01*
X32105625Y-15795625D01*
X32305625Y-15995625D01*
X32105625Y-17500625D02*
X32505625Y-17900625D01*
X32505625Y-17500625D02*
X32105625Y-17900625D01*
X32305625Y-17900625D02*
X32505625Y-17700625D01*
X32305625Y-17500625D01*
X32105625Y-17700625D01*
X32305625Y-17900625D01*
X32343750Y-13690625D02*
X32743750Y-14090625D01*
X32743750Y-13690625D02*
X32343750Y-14090625D01*
X32543750Y-14090625D02*
X32743750Y-13890625D01*
X32543750Y-13690625D01*
X32343750Y-13890625D01*
X32543750Y-14090625D01*
X32820000Y-9880625D02*
X33220000Y-10280625D01*
X33220000Y-9880625D02*
X32820000Y-10280625D01*
X33020000Y-10280625D02*
X33220000Y-10080625D01*
X33020000Y-9880625D01*
X32820000Y-10080625D01*
X33020000Y-10280625D01*
X33058125Y-15595625D02*
X33458125Y-15995625D01*
X33458125Y-15595625D02*
X33058125Y-15995625D01*
X33258125Y-15995625D02*
X33458125Y-15795625D01*
X33258125Y-15595625D01*
X33058125Y-15795625D01*
X33258125Y-15995625D01*
X33534375Y-13690625D02*
X33934375Y-14090625D01*
X33934375Y-13690625D02*
X33534375Y-14090625D01*
X33734375Y-14090625D02*
X33934375Y-13890625D01*
X33734375Y-13690625D01*
X33534375Y-13890625D01*
X33734375Y-14090625D01*
X33772500Y-9880625D02*
X34172500Y-10280625D01*
X34172500Y-9880625D02*
X33772500Y-10280625D01*
X33972500Y-10280625D02*
X34172500Y-10080625D01*
X33972500Y-9880625D01*
X33772500Y-10080625D01*
X33972500Y-10280625D01*
X34248750Y-11785625D02*
X34648750Y-12185625D01*
X34648750Y-11785625D02*
X34248750Y-12185625D01*
X34448750Y-12185625D02*
X34648750Y-11985625D01*
X34448750Y-11785625D01*
X34248750Y-11985625D01*
X34448750Y-12185625D01*
X34248750Y-17500625D02*
X34648750Y-17900625D01*
X34648750Y-17500625D02*
X34248750Y-17900625D01*
X34448750Y-17900625D02*
X34648750Y-17700625D01*
X34448750Y-17500625D01*
X34248750Y-17700625D01*
X34448750Y-17900625D01*
X34486875Y-12738125D02*
X34886875Y-13138125D01*
X34886875Y-12738125D02*
X34486875Y-13138125D01*
X34686875Y-13138125D02*
X34886875Y-12938125D01*
X34686875Y-12738125D01*
X34486875Y-12938125D01*
X34686875Y-13138125D01*
X34486875Y-17500625D02*
X34886875Y-17900625D01*
X34886875Y-17500625D02*
X34486875Y-17900625D01*
X34686875Y-17900625D02*
X34886875Y-17700625D01*
X34686875Y-17500625D01*
X34486875Y-17700625D01*
X34686875Y-17900625D01*
X34725000Y-9880625D02*
X35125000Y-10280625D01*
X35125000Y-9880625D02*
X34725000Y-10280625D01*
X34925000Y-10280625D02*
X35125000Y-10080625D01*
X34925000Y-9880625D01*
X34725000Y-10080625D01*
X34925000Y-10280625D01*
X34725000Y-15595625D02*
X35125000Y-15995625D01*
X35125000Y-15595625D02*
X34725000Y-15995625D01*
X34925000Y-15995625D02*
X35125000Y-15795625D01*
X34925000Y-15595625D01*
X34725000Y-15795625D01*
X34925000Y-15995625D01*
D11*
X7586319Y-18962976D02*
X7586319Y-18762976D01*
X7633938Y-18762976D01*
X7662509Y-18772500D01*
X7681557Y-18791548D01*
X7691081Y-18810595D01*
X7700605Y-18848690D01*
X7700605Y-18877262D01*
X7691081Y-18915357D01*
X7681557Y-18934405D01*
X7662509Y-18953452D01*
X7633938Y-18962976D01*
X7586319Y-18962976D01*
X7786319Y-18962976D02*
X7786319Y-18829643D01*
X7786319Y-18867738D02*
X7795843Y-18848690D01*
X7805367Y-18839167D01*
X7824414Y-18829643D01*
X7843462Y-18829643D01*
X7910128Y-18962976D02*
X7910128Y-18829643D01*
X7910128Y-18762976D02*
X7900605Y-18772500D01*
X7910128Y-18782024D01*
X7919652Y-18772500D01*
X7910128Y-18762976D01*
X7910128Y-18782024D01*
X8033938Y-18962976D02*
X8014890Y-18953452D01*
X8005367Y-18934405D01*
X8005367Y-18762976D01*
X8138700Y-18962976D02*
X8119652Y-18953452D01*
X8110128Y-18934405D01*
X8110128Y-18762976D01*
X8367271Y-18962976D02*
X8367271Y-18762976D01*
X8433938Y-18905833D01*
X8500605Y-18762976D01*
X8500605Y-18962976D01*
X8681557Y-18962976D02*
X8681557Y-18858214D01*
X8672033Y-18839167D01*
X8652986Y-18829643D01*
X8614890Y-18829643D01*
X8595843Y-18839167D01*
X8681557Y-18953452D02*
X8662510Y-18962976D01*
X8614890Y-18962976D01*
X8595843Y-18953452D01*
X8586319Y-18934405D01*
X8586319Y-18915357D01*
X8595843Y-18896310D01*
X8614890Y-18886786D01*
X8662510Y-18886786D01*
X8681557Y-18877262D01*
X8776795Y-18829643D02*
X8776795Y-19029643D01*
X8776795Y-18839167D02*
X8795843Y-18829643D01*
X8833938Y-18829643D01*
X8852986Y-18839167D01*
X8862510Y-18848690D01*
X8872033Y-18867738D01*
X8872033Y-18924881D01*
X8862510Y-18943929D01*
X8852986Y-18953452D01*
X8833938Y-18962976D01*
X8795843Y-18962976D01*
X8776795Y-18953452D01*
X8957748Y-18943929D02*
X8967271Y-18953452D01*
X8957748Y-18962976D01*
X8948224Y-18953452D01*
X8957748Y-18943929D01*
X8957748Y-18962976D01*
X8957748Y-18839167D02*
X8967271Y-18848690D01*
X8957748Y-18858214D01*
X8948224Y-18848690D01*
X8957748Y-18839167D01*
X8957748Y-18858214D01*
D12*
X7298700Y-19277500D02*
X7328700Y-19307500D01*
X7328700Y-19277500D02*
X7298700Y-19307500D01*
D11*
X7624414Y-19182976D02*
X7643462Y-19182976D01*
X7662509Y-19192500D01*
X7672033Y-19202024D01*
X7681557Y-19221071D01*
X7691081Y-19259167D01*
X7691081Y-19306786D01*
X7681557Y-19344881D01*
X7672033Y-19363929D01*
X7662509Y-19373452D01*
X7643462Y-19382976D01*
X7624414Y-19382976D01*
X7605367Y-19373452D01*
X7595843Y-19363929D01*
X7586319Y-19344881D01*
X7576795Y-19306786D01*
X7576795Y-19259167D01*
X7586319Y-19221071D01*
X7595843Y-19202024D01*
X7605367Y-19192500D01*
X7624414Y-19182976D01*
X7776795Y-19363929D02*
X7786319Y-19373452D01*
X7776795Y-19382976D01*
X7767271Y-19373452D01*
X7776795Y-19363929D01*
X7776795Y-19382976D01*
X7852986Y-19182976D02*
X7976795Y-19182976D01*
X7910128Y-19259167D01*
X7938700Y-19259167D01*
X7957748Y-19268690D01*
X7967271Y-19278214D01*
X7976795Y-19297262D01*
X7976795Y-19344881D01*
X7967271Y-19363929D01*
X7957748Y-19373452D01*
X7938700Y-19382976D01*
X7881557Y-19382976D01*
X7862509Y-19373452D01*
X7852986Y-19363929D01*
X8100605Y-19182976D02*
X8119652Y-19182976D01*
X8138700Y-19192500D01*
X8148224Y-19202024D01*
X8157748Y-19221071D01*
X8167271Y-19259167D01*
X8167271Y-19306786D01*
X8157748Y-19344881D01*
X8148224Y-19363929D01*
X8138700Y-19373452D01*
X8119652Y-19382976D01*
X8100605Y-19382976D01*
X8081557Y-19373452D01*
X8072033Y-19363929D01*
X8062509Y-19344881D01*
X8052986Y-19306786D01*
X8052986Y-19259167D01*
X8062509Y-19221071D01*
X8072033Y-19202024D01*
X8081557Y-19192500D01*
X8100605Y-19182976D01*
X8291081Y-19182976D02*
X8310128Y-19182976D01*
X8329176Y-19192500D01*
X8338700Y-19202024D01*
X8348224Y-19221071D01*
X8357748Y-19259167D01*
X8357748Y-19306786D01*
X8348224Y-19344881D01*
X8338700Y-19363929D01*
X8329176Y-19373452D01*
X8310128Y-19382976D01*
X8291081Y-19382976D01*
X8272033Y-19373452D01*
X8262509Y-19363929D01*
X8252986Y-19344881D01*
X8243462Y-19306786D01*
X8243462Y-19259167D01*
X8252986Y-19221071D01*
X8262509Y-19202024D01*
X8272033Y-19192500D01*
X8291081Y-19182976D01*
X8443462Y-19382976D02*
X8443462Y-19249643D01*
X8443462Y-19268690D02*
X8452986Y-19259167D01*
X8472033Y-19249643D01*
X8500605Y-19249643D01*
X8519652Y-19259167D01*
X8529176Y-19278214D01*
X8529176Y-19382976D01*
X8529176Y-19278214D02*
X8538700Y-19259167D01*
X8557748Y-19249643D01*
X8586319Y-19249643D01*
X8605367Y-19259167D01*
X8614890Y-19278214D01*
X8614890Y-19382976D01*
X8710129Y-19382976D02*
X8710129Y-19249643D01*
X8710129Y-19268690D02*
X8719652Y-19259167D01*
X8738700Y-19249643D01*
X8767271Y-19249643D01*
X8786319Y-19259167D01*
X8795843Y-19278214D01*
X8795843Y-19382976D01*
X8795843Y-19278214D02*
X8805367Y-19259167D01*
X8824414Y-19249643D01*
X8852986Y-19249643D01*
X8872033Y-19259167D01*
X8881557Y-19278214D01*
X8881557Y-19382976D01*
X9272033Y-19173452D02*
X9100605Y-19430595D01*
X9529176Y-19182976D02*
X9548224Y-19182976D01*
X9567271Y-19192500D01*
X9576795Y-19202024D01*
X9586319Y-19221071D01*
X9595843Y-19259167D01*
X9595843Y-19306786D01*
X9586319Y-19344881D01*
X9576795Y-19363929D01*
X9567271Y-19373452D01*
X9548224Y-19382976D01*
X9529176Y-19382976D01*
X9510129Y-19373452D01*
X9500605Y-19363929D01*
X9491081Y-19344881D01*
X9481557Y-19306786D01*
X9481557Y-19259167D01*
X9491081Y-19221071D01*
X9500605Y-19202024D01*
X9510129Y-19192500D01*
X9529176Y-19182976D01*
X9681557Y-19363929D02*
X9691081Y-19373452D01*
X9681557Y-19382976D01*
X9672033Y-19373452D01*
X9681557Y-19363929D01*
X9681557Y-19382976D01*
X9814890Y-19182976D02*
X9833938Y-19182976D01*
X9852986Y-19192500D01*
X9862510Y-19202024D01*
X9872033Y-19221071D01*
X9881557Y-19259167D01*
X9881557Y-19306786D01*
X9872033Y-19344881D01*
X9862510Y-19363929D01*
X9852986Y-19373452D01*
X9833938Y-19382976D01*
X9814890Y-19382976D01*
X9795843Y-19373452D01*
X9786319Y-19363929D01*
X9776795Y-19344881D01*
X9767271Y-19306786D01*
X9767271Y-19259167D01*
X9776795Y-19221071D01*
X9786319Y-19202024D01*
X9795843Y-19192500D01*
X9814890Y-19182976D01*
X10072033Y-19382976D02*
X9957748Y-19382976D01*
X10014890Y-19382976D02*
X10014890Y-19182976D01*
X9995843Y-19211548D01*
X9976795Y-19230595D01*
X9957748Y-19240119D01*
X10262510Y-19382976D02*
X10148224Y-19382976D01*
X10205367Y-19382976D02*
X10205367Y-19182976D01*
X10186319Y-19211548D01*
X10167271Y-19230595D01*
X10148224Y-19240119D01*
X10376795Y-19268690D02*
X10357748Y-19259167D01*
X10348224Y-19249643D01*
X10338700Y-19230595D01*
X10338700Y-19221071D01*
X10348224Y-19202024D01*
X10357748Y-19192500D01*
X10376795Y-19182976D01*
X10414890Y-19182976D01*
X10433938Y-19192500D01*
X10443462Y-19202024D01*
X10452986Y-19221071D01*
X10452986Y-19230595D01*
X10443462Y-19249643D01*
X10433938Y-19259167D01*
X10414890Y-19268690D01*
X10376795Y-19268690D01*
X10357748Y-19278214D01*
X10348224Y-19287738D01*
X10338700Y-19306786D01*
X10338700Y-19344881D01*
X10348224Y-19363929D01*
X10357748Y-19373452D01*
X10376795Y-19382976D01*
X10414890Y-19382976D01*
X10433938Y-19373452D01*
X10443462Y-19363929D01*
X10452986Y-19344881D01*
X10452986Y-19306786D01*
X10443462Y-19287738D01*
X10433938Y-19278214D01*
X10414890Y-19268690D01*
X10529176Y-19182976D02*
X10529176Y-19221071D01*
X10605367Y-19182976D02*
X10605367Y-19221071D01*
X10900605Y-19459167D02*
X10891081Y-19449643D01*
X10872033Y-19421071D01*
X10862510Y-19402024D01*
X10852986Y-19373452D01*
X10843462Y-19325833D01*
X10843462Y-19287738D01*
X10852986Y-19240119D01*
X10862510Y-19211548D01*
X10872033Y-19192500D01*
X10891081Y-19163929D01*
X10900605Y-19154405D01*
X11081557Y-19382976D02*
X10967271Y-19382976D01*
X11024414Y-19382976D02*
X11024414Y-19182976D01*
X11005367Y-19211548D01*
X10986319Y-19230595D01*
X10967271Y-19240119D01*
X11148224Y-19182976D02*
X11272033Y-19182976D01*
X11205367Y-19259167D01*
X11233938Y-19259167D01*
X11252986Y-19268690D01*
X11262509Y-19278214D01*
X11272033Y-19297262D01*
X11272033Y-19344881D01*
X11262509Y-19363929D01*
X11252986Y-19373452D01*
X11233938Y-19382976D01*
X11176795Y-19382976D01*
X11157748Y-19373452D01*
X11148224Y-19363929D01*
X11510128Y-19382976D02*
X11510128Y-19182976D01*
X11595843Y-19382976D02*
X11595843Y-19278214D01*
X11586319Y-19259167D01*
X11567271Y-19249643D01*
X11538700Y-19249643D01*
X11519652Y-19259167D01*
X11510128Y-19268690D01*
X11719652Y-19382976D02*
X11700605Y-19373452D01*
X11691081Y-19363929D01*
X11681557Y-19344881D01*
X11681557Y-19287738D01*
X11691081Y-19268690D01*
X11700605Y-19259167D01*
X11719652Y-19249643D01*
X11748224Y-19249643D01*
X11767271Y-19259167D01*
X11776795Y-19268690D01*
X11786319Y-19287738D01*
X11786319Y-19344881D01*
X11776795Y-19363929D01*
X11767271Y-19373452D01*
X11748224Y-19382976D01*
X11719652Y-19382976D01*
X11900605Y-19382976D02*
X11881557Y-19373452D01*
X11872033Y-19354405D01*
X11872033Y-19182976D01*
X12052986Y-19373452D02*
X12033938Y-19382976D01*
X11995843Y-19382976D01*
X11976795Y-19373452D01*
X11967271Y-19354405D01*
X11967271Y-19278214D01*
X11976795Y-19259167D01*
X11995843Y-19249643D01*
X12033938Y-19249643D01*
X12052986Y-19259167D01*
X12062509Y-19278214D01*
X12062509Y-19297262D01*
X11967271Y-19316310D01*
X12138700Y-19373452D02*
X12157748Y-19382976D01*
X12195843Y-19382976D01*
X12214890Y-19373452D01*
X12224414Y-19354405D01*
X12224414Y-19344881D01*
X12214890Y-19325833D01*
X12195843Y-19316310D01*
X12167271Y-19316310D01*
X12148224Y-19306786D01*
X12138700Y-19287738D01*
X12138700Y-19278214D01*
X12148224Y-19259167D01*
X12167271Y-19249643D01*
X12195843Y-19249643D01*
X12214890Y-19259167D01*
X12291081Y-19459167D02*
X12300605Y-19449643D01*
X12319652Y-19421071D01*
X12329176Y-19402024D01*
X12338700Y-19373452D01*
X12348224Y-19325833D01*
X12348224Y-19287738D01*
X12338700Y-19240119D01*
X12329176Y-19211548D01*
X12319652Y-19192500D01*
X12300605Y-19163929D01*
X12291081Y-19154405D01*
D13*
X7328700Y-19556500D02*
G75*
G03*
X7328700Y-19556500I-20000J0D01*
G01*
D11*
X7624414Y-19446976D02*
X7643462Y-19446976D01*
X7662509Y-19456500D01*
X7672033Y-19466024D01*
X7681557Y-19485071D01*
X7691081Y-19523167D01*
X7691081Y-19570786D01*
X7681557Y-19608881D01*
X7672033Y-19627929D01*
X7662509Y-19637452D01*
X7643462Y-19646976D01*
X7624414Y-19646976D01*
X7605367Y-19637452D01*
X7595843Y-19627929D01*
X7586319Y-19608881D01*
X7576795Y-19570786D01*
X7576795Y-19523167D01*
X7586319Y-19485071D01*
X7595843Y-19466024D01*
X7605367Y-19456500D01*
X7624414Y-19446976D01*
X7776795Y-19627929D02*
X7786319Y-19637452D01*
X7776795Y-19646976D01*
X7767271Y-19637452D01*
X7776795Y-19627929D01*
X7776795Y-19646976D01*
X7957748Y-19513643D02*
X7957748Y-19646976D01*
X7910128Y-19437452D02*
X7862509Y-19580310D01*
X7986319Y-19580310D01*
X8100605Y-19446976D02*
X8119652Y-19446976D01*
X8138700Y-19456500D01*
X8148224Y-19466024D01*
X8157748Y-19485071D01*
X8167271Y-19523167D01*
X8167271Y-19570786D01*
X8157748Y-19608881D01*
X8148224Y-19627929D01*
X8138700Y-19637452D01*
X8119652Y-19646976D01*
X8100605Y-19646976D01*
X8081557Y-19637452D01*
X8072033Y-19627929D01*
X8062509Y-19608881D01*
X8052986Y-19570786D01*
X8052986Y-19523167D01*
X8062509Y-19485071D01*
X8072033Y-19466024D01*
X8081557Y-19456500D01*
X8100605Y-19446976D01*
X8291081Y-19446976D02*
X8310128Y-19446976D01*
X8329176Y-19456500D01*
X8338700Y-19466024D01*
X8348224Y-19485071D01*
X8357748Y-19523167D01*
X8357748Y-19570786D01*
X8348224Y-19608881D01*
X8338700Y-19627929D01*
X8329176Y-19637452D01*
X8310128Y-19646976D01*
X8291081Y-19646976D01*
X8272033Y-19637452D01*
X8262509Y-19627929D01*
X8252986Y-19608881D01*
X8243462Y-19570786D01*
X8243462Y-19523167D01*
X8252986Y-19485071D01*
X8262509Y-19466024D01*
X8272033Y-19456500D01*
X8291081Y-19446976D01*
X8443462Y-19646976D02*
X8443462Y-19513643D01*
X8443462Y-19532690D02*
X8452986Y-19523167D01*
X8472033Y-19513643D01*
X8500605Y-19513643D01*
X8519652Y-19523167D01*
X8529176Y-19542214D01*
X8529176Y-19646976D01*
X8529176Y-19542214D02*
X8538700Y-19523167D01*
X8557748Y-19513643D01*
X8586319Y-19513643D01*
X8605367Y-19523167D01*
X8614890Y-19542214D01*
X8614890Y-19646976D01*
X8710129Y-19646976D02*
X8710129Y-19513643D01*
X8710129Y-19532690D02*
X8719652Y-19523167D01*
X8738700Y-19513643D01*
X8767271Y-19513643D01*
X8786319Y-19523167D01*
X8795843Y-19542214D01*
X8795843Y-19646976D01*
X8795843Y-19542214D02*
X8805367Y-19523167D01*
X8824414Y-19513643D01*
X8852986Y-19513643D01*
X8872033Y-19523167D01*
X8881557Y-19542214D01*
X8881557Y-19646976D01*
X9272033Y-19437452D02*
X9100605Y-19694595D01*
X9529176Y-19446976D02*
X9548224Y-19446976D01*
X9567271Y-19456500D01*
X9576795Y-19466024D01*
X9586319Y-19485071D01*
X9595843Y-19523167D01*
X9595843Y-19570786D01*
X9586319Y-19608881D01*
X9576795Y-19627929D01*
X9567271Y-19637452D01*
X9548224Y-19646976D01*
X9529176Y-19646976D01*
X9510129Y-19637452D01*
X9500605Y-19627929D01*
X9491081Y-19608881D01*
X9481557Y-19570786D01*
X9481557Y-19523167D01*
X9491081Y-19485071D01*
X9500605Y-19466024D01*
X9510129Y-19456500D01*
X9529176Y-19446976D01*
X9681557Y-19627929D02*
X9691081Y-19637452D01*
X9681557Y-19646976D01*
X9672033Y-19637452D01*
X9681557Y-19627929D01*
X9681557Y-19646976D01*
X9814890Y-19446976D02*
X9833938Y-19446976D01*
X9852986Y-19456500D01*
X9862510Y-19466024D01*
X9872033Y-19485071D01*
X9881557Y-19523167D01*
X9881557Y-19570786D01*
X9872033Y-19608881D01*
X9862510Y-19627929D01*
X9852986Y-19637452D01*
X9833938Y-19646976D01*
X9814890Y-19646976D01*
X9795843Y-19637452D01*
X9786319Y-19627929D01*
X9776795Y-19608881D01*
X9767271Y-19570786D01*
X9767271Y-19523167D01*
X9776795Y-19485071D01*
X9786319Y-19466024D01*
X9795843Y-19456500D01*
X9814890Y-19446976D01*
X10072033Y-19646976D02*
X9957748Y-19646976D01*
X10014890Y-19646976D02*
X10014890Y-19446976D01*
X9995843Y-19475548D01*
X9976795Y-19494595D01*
X9957748Y-19504119D01*
X10252986Y-19446976D02*
X10157748Y-19446976D01*
X10148224Y-19542214D01*
X10157748Y-19532690D01*
X10176795Y-19523167D01*
X10224414Y-19523167D01*
X10243462Y-19532690D01*
X10252986Y-19542214D01*
X10262510Y-19561262D01*
X10262510Y-19608881D01*
X10252986Y-19627929D01*
X10243462Y-19637452D01*
X10224414Y-19646976D01*
X10176795Y-19646976D01*
X10157748Y-19637452D01*
X10148224Y-19627929D01*
X10329176Y-19446976D02*
X10462510Y-19446976D01*
X10376795Y-19646976D01*
X10529176Y-19446976D02*
X10529176Y-19485071D01*
X10605367Y-19446976D02*
X10605367Y-19485071D01*
X10900605Y-19723167D02*
X10891081Y-19713643D01*
X10872033Y-19685071D01*
X10862510Y-19666024D01*
X10852986Y-19637452D01*
X10843462Y-19589833D01*
X10843462Y-19551738D01*
X10852986Y-19504119D01*
X10862510Y-19475548D01*
X10872033Y-19456500D01*
X10891081Y-19427929D01*
X10900605Y-19418405D01*
X11072033Y-19446976D02*
X10976795Y-19446976D01*
X10967271Y-19542214D01*
X10976795Y-19532690D01*
X10995843Y-19523167D01*
X11043462Y-19523167D01*
X11062510Y-19532690D01*
X11072033Y-19542214D01*
X11081557Y-19561262D01*
X11081557Y-19608881D01*
X11072033Y-19627929D01*
X11062510Y-19637452D01*
X11043462Y-19646976D01*
X10995843Y-19646976D01*
X10976795Y-19637452D01*
X10967271Y-19627929D01*
X11252986Y-19446976D02*
X11214890Y-19446976D01*
X11195843Y-19456500D01*
X11186319Y-19466024D01*
X11167271Y-19494595D01*
X11157748Y-19532690D01*
X11157748Y-19608881D01*
X11167271Y-19627929D01*
X11176795Y-19637452D01*
X11195843Y-19646976D01*
X11233938Y-19646976D01*
X11252986Y-19637452D01*
X11262509Y-19627929D01*
X11272033Y-19608881D01*
X11272033Y-19561262D01*
X11262509Y-19542214D01*
X11252986Y-19532690D01*
X11233938Y-19523167D01*
X11195843Y-19523167D01*
X11176795Y-19532690D01*
X11167271Y-19542214D01*
X11157748Y-19561262D01*
X11510128Y-19646976D02*
X11510128Y-19446976D01*
X11595843Y-19646976D02*
X11595843Y-19542214D01*
X11586319Y-19523167D01*
X11567271Y-19513643D01*
X11538700Y-19513643D01*
X11519652Y-19523167D01*
X11510128Y-19532690D01*
X11719652Y-19646976D02*
X11700605Y-19637452D01*
X11691081Y-19627929D01*
X11681557Y-19608881D01*
X11681557Y-19551738D01*
X11691081Y-19532690D01*
X11700605Y-19523167D01*
X11719652Y-19513643D01*
X11748224Y-19513643D01*
X11767271Y-19523167D01*
X11776795Y-19532690D01*
X11786319Y-19551738D01*
X11786319Y-19608881D01*
X11776795Y-19627929D01*
X11767271Y-19637452D01*
X11748224Y-19646976D01*
X11719652Y-19646976D01*
X11900605Y-19646976D02*
X11881557Y-19637452D01*
X11872033Y-19618405D01*
X11872033Y-19446976D01*
X12052986Y-19637452D02*
X12033938Y-19646976D01*
X11995843Y-19646976D01*
X11976795Y-19637452D01*
X11967271Y-19618405D01*
X11967271Y-19542214D01*
X11976795Y-19523167D01*
X11995843Y-19513643D01*
X12033938Y-19513643D01*
X12052986Y-19523167D01*
X12062509Y-19542214D01*
X12062509Y-19561262D01*
X11967271Y-19580310D01*
X12138700Y-19637452D02*
X12157748Y-19646976D01*
X12195843Y-19646976D01*
X12214890Y-19637452D01*
X12224414Y-19618405D01*
X12224414Y-19608881D01*
X12214890Y-19589833D01*
X12195843Y-19580310D01*
X12167271Y-19580310D01*
X12148224Y-19570786D01*
X12138700Y-19551738D01*
X12138700Y-19542214D01*
X12148224Y-19523167D01*
X12167271Y-19513643D01*
X12195843Y-19513643D01*
X12214890Y-19523167D01*
X12291081Y-19723167D02*
X12300605Y-19713643D01*
X12319652Y-19685071D01*
X12329176Y-19666024D01*
X12338700Y-19637452D01*
X12348224Y-19589833D01*
X12348224Y-19551738D01*
X12338700Y-19504119D01*
X12329176Y-19475548D01*
X12319652Y-19456500D01*
X12300605Y-19427929D01*
X12291081Y-19418405D01*
D14*
X7278700Y-19770500D02*
X7278700Y-19870500D01*
X7228700Y-19820500D02*
X7328700Y-19820500D01*
D11*
X7691081Y-19910976D02*
X7576795Y-19910976D01*
X7633938Y-19910976D02*
X7633938Y-19710976D01*
X7614890Y-19739548D01*
X7595843Y-19758595D01*
X7576795Y-19768119D01*
X7776795Y-19891929D02*
X7786319Y-19901452D01*
X7776795Y-19910976D01*
X7767271Y-19901452D01*
X7776795Y-19891929D01*
X7776795Y-19910976D01*
X7910128Y-19710976D02*
X7929176Y-19710976D01*
X7948224Y-19720500D01*
X7957748Y-19730024D01*
X7967271Y-19749071D01*
X7976795Y-19787167D01*
X7976795Y-19834786D01*
X7967271Y-19872881D01*
X7957748Y-19891929D01*
X7948224Y-19901452D01*
X7929176Y-19910976D01*
X7910128Y-19910976D01*
X7891081Y-19901452D01*
X7881557Y-19891929D01*
X7872033Y-19872881D01*
X7862509Y-19834786D01*
X7862509Y-19787167D01*
X7872033Y-19749071D01*
X7881557Y-19730024D01*
X7891081Y-19720500D01*
X7910128Y-19710976D01*
X8100605Y-19710976D02*
X8119652Y-19710976D01*
X8138700Y-19720500D01*
X8148224Y-19730024D01*
X8157748Y-19749071D01*
X8167271Y-19787167D01*
X8167271Y-19834786D01*
X8157748Y-19872881D01*
X8148224Y-19891929D01*
X8138700Y-19901452D01*
X8119652Y-19910976D01*
X8100605Y-19910976D01*
X8081557Y-19901452D01*
X8072033Y-19891929D01*
X8062509Y-19872881D01*
X8052986Y-19834786D01*
X8052986Y-19787167D01*
X8062509Y-19749071D01*
X8072033Y-19730024D01*
X8081557Y-19720500D01*
X8100605Y-19710976D01*
X8291081Y-19710976D02*
X8310128Y-19710976D01*
X8329176Y-19720500D01*
X8338700Y-19730024D01*
X8348224Y-19749071D01*
X8357748Y-19787167D01*
X8357748Y-19834786D01*
X8348224Y-19872881D01*
X8338700Y-19891929D01*
X8329176Y-19901452D01*
X8310128Y-19910976D01*
X8291081Y-19910976D01*
X8272033Y-19901452D01*
X8262509Y-19891929D01*
X8252986Y-19872881D01*
X8243462Y-19834786D01*
X8243462Y-19787167D01*
X8252986Y-19749071D01*
X8262509Y-19730024D01*
X8272033Y-19720500D01*
X8291081Y-19710976D01*
X8443462Y-19910976D02*
X8443462Y-19777643D01*
X8443462Y-19796690D02*
X8452986Y-19787167D01*
X8472033Y-19777643D01*
X8500605Y-19777643D01*
X8519652Y-19787167D01*
X8529176Y-19806214D01*
X8529176Y-19910976D01*
X8529176Y-19806214D02*
X8538700Y-19787167D01*
X8557748Y-19777643D01*
X8586319Y-19777643D01*
X8605367Y-19787167D01*
X8614890Y-19806214D01*
X8614890Y-19910976D01*
X8710129Y-19910976D02*
X8710129Y-19777643D01*
X8710129Y-19796690D02*
X8719652Y-19787167D01*
X8738700Y-19777643D01*
X8767271Y-19777643D01*
X8786319Y-19787167D01*
X8795843Y-19806214D01*
X8795843Y-19910976D01*
X8795843Y-19806214D02*
X8805367Y-19787167D01*
X8824414Y-19777643D01*
X8852986Y-19777643D01*
X8872033Y-19787167D01*
X8881557Y-19806214D01*
X8881557Y-19910976D01*
X9272033Y-19701452D02*
X9100605Y-19958595D01*
X9529176Y-19710976D02*
X9548224Y-19710976D01*
X9567271Y-19720500D01*
X9576795Y-19730024D01*
X9586319Y-19749071D01*
X9595843Y-19787167D01*
X9595843Y-19834786D01*
X9586319Y-19872881D01*
X9576795Y-19891929D01*
X9567271Y-19901452D01*
X9548224Y-19910976D01*
X9529176Y-19910976D01*
X9510129Y-19901452D01*
X9500605Y-19891929D01*
X9491081Y-19872881D01*
X9481557Y-19834786D01*
X9481557Y-19787167D01*
X9491081Y-19749071D01*
X9500605Y-19730024D01*
X9510129Y-19720500D01*
X9529176Y-19710976D01*
X9681557Y-19891929D02*
X9691081Y-19901452D01*
X9681557Y-19910976D01*
X9672033Y-19901452D01*
X9681557Y-19891929D01*
X9681557Y-19910976D01*
X9814890Y-19710976D02*
X9833938Y-19710976D01*
X9852986Y-19720500D01*
X9862510Y-19730024D01*
X9872033Y-19749071D01*
X9881557Y-19787167D01*
X9881557Y-19834786D01*
X9872033Y-19872881D01*
X9862510Y-19891929D01*
X9852986Y-19901452D01*
X9833938Y-19910976D01*
X9814890Y-19910976D01*
X9795843Y-19901452D01*
X9786319Y-19891929D01*
X9776795Y-19872881D01*
X9767271Y-19834786D01*
X9767271Y-19787167D01*
X9776795Y-19749071D01*
X9786319Y-19730024D01*
X9795843Y-19720500D01*
X9814890Y-19710976D01*
X9948224Y-19710976D02*
X10072033Y-19710976D01*
X10005367Y-19787167D01*
X10033938Y-19787167D01*
X10052986Y-19796690D01*
X10062510Y-19806214D01*
X10072033Y-19825262D01*
X10072033Y-19872881D01*
X10062510Y-19891929D01*
X10052986Y-19901452D01*
X10033938Y-19910976D01*
X9976795Y-19910976D01*
X9957748Y-19901452D01*
X9948224Y-19891929D01*
X10167271Y-19910976D02*
X10205367Y-19910976D01*
X10224414Y-19901452D01*
X10233938Y-19891929D01*
X10252986Y-19863357D01*
X10262510Y-19825262D01*
X10262510Y-19749071D01*
X10252986Y-19730024D01*
X10243462Y-19720500D01*
X10224414Y-19710976D01*
X10186319Y-19710976D01*
X10167271Y-19720500D01*
X10157748Y-19730024D01*
X10148224Y-19749071D01*
X10148224Y-19796690D01*
X10157748Y-19815738D01*
X10167271Y-19825262D01*
X10186319Y-19834786D01*
X10224414Y-19834786D01*
X10243462Y-19825262D01*
X10252986Y-19815738D01*
X10262510Y-19796690D01*
X10433938Y-19777643D02*
X10433938Y-19910976D01*
X10386319Y-19701452D02*
X10338700Y-19844310D01*
X10462510Y-19844310D01*
X10529176Y-19710976D02*
X10529176Y-19749071D01*
X10605367Y-19710976D02*
X10605367Y-19749071D01*
X10900605Y-19987167D02*
X10891081Y-19977643D01*
X10872033Y-19949071D01*
X10862510Y-19930024D01*
X10852986Y-19901452D01*
X10843462Y-19853833D01*
X10843462Y-19815738D01*
X10852986Y-19768119D01*
X10862510Y-19739548D01*
X10872033Y-19720500D01*
X10891081Y-19691929D01*
X10900605Y-19682405D01*
X11062510Y-19710976D02*
X11024414Y-19710976D01*
X11005367Y-19720500D01*
X10995843Y-19730024D01*
X10976795Y-19758595D01*
X10967271Y-19796690D01*
X10967271Y-19872881D01*
X10976795Y-19891929D01*
X10986319Y-19901452D01*
X11005367Y-19910976D01*
X11043462Y-19910976D01*
X11062510Y-19901452D01*
X11072033Y-19891929D01*
X11081557Y-19872881D01*
X11081557Y-19825262D01*
X11072033Y-19806214D01*
X11062510Y-19796690D01*
X11043462Y-19787167D01*
X11005367Y-19787167D01*
X10986319Y-19796690D01*
X10976795Y-19806214D01*
X10967271Y-19825262D01*
X11319652Y-19910976D02*
X11319652Y-19710976D01*
X11405367Y-19910976D02*
X11405367Y-19806214D01*
X11395843Y-19787167D01*
X11376795Y-19777643D01*
X11348224Y-19777643D01*
X11329176Y-19787167D01*
X11319652Y-19796690D01*
X11529176Y-19910976D02*
X11510128Y-19901452D01*
X11500605Y-19891929D01*
X11491081Y-19872881D01*
X11491081Y-19815738D01*
X11500605Y-19796690D01*
X11510128Y-19787167D01*
X11529176Y-19777643D01*
X11557748Y-19777643D01*
X11576795Y-19787167D01*
X11586319Y-19796690D01*
X11595843Y-19815738D01*
X11595843Y-19872881D01*
X11586319Y-19891929D01*
X11576795Y-19901452D01*
X11557748Y-19910976D01*
X11529176Y-19910976D01*
X11710128Y-19910976D02*
X11691081Y-19901452D01*
X11681557Y-19882405D01*
X11681557Y-19710976D01*
X11862509Y-19901452D02*
X11843462Y-19910976D01*
X11805367Y-19910976D01*
X11786319Y-19901452D01*
X11776795Y-19882405D01*
X11776795Y-19806214D01*
X11786319Y-19787167D01*
X11805367Y-19777643D01*
X11843462Y-19777643D01*
X11862509Y-19787167D01*
X11872033Y-19806214D01*
X11872033Y-19825262D01*
X11776795Y-19844310D01*
X11948224Y-19901452D02*
X11967271Y-19910976D01*
X12005367Y-19910976D01*
X12024414Y-19901452D01*
X12033938Y-19882405D01*
X12033938Y-19872881D01*
X12024414Y-19853833D01*
X12005367Y-19844310D01*
X11976795Y-19844310D01*
X11957748Y-19834786D01*
X11948224Y-19815738D01*
X11948224Y-19806214D01*
X11957748Y-19787167D01*
X11976795Y-19777643D01*
X12005367Y-19777643D01*
X12024414Y-19787167D01*
X12100605Y-19987167D02*
X12110128Y-19977643D01*
X12129176Y-19949071D01*
X12138700Y-19930024D01*
X12148224Y-19901452D01*
X12157748Y-19853833D01*
X12157748Y-19815738D01*
X12148224Y-19768119D01*
X12138700Y-19739548D01*
X12129176Y-19720500D01*
X12110128Y-19691929D01*
X12100605Y-19682405D01*
D15*
X7306733Y-20137534D02*
X7306733Y-20031467D01*
X7200666Y-20031467D01*
X7200666Y-20137534D01*
X7306733Y-20137534D01*
D11*
X7691081Y-20174976D02*
X7576795Y-20174976D01*
X7633938Y-20174976D02*
X7633938Y-19974976D01*
X7614890Y-20003548D01*
X7595843Y-20022595D01*
X7576795Y-20032119D01*
X7776795Y-20155929D02*
X7786319Y-20165452D01*
X7776795Y-20174976D01*
X7767271Y-20165452D01*
X7776795Y-20155929D01*
X7776795Y-20174976D01*
X7967271Y-19974976D02*
X7872033Y-19974976D01*
X7862509Y-20070214D01*
X7872033Y-20060690D01*
X7891081Y-20051167D01*
X7938700Y-20051167D01*
X7957748Y-20060690D01*
X7967271Y-20070214D01*
X7976795Y-20089262D01*
X7976795Y-20136881D01*
X7967271Y-20155929D01*
X7957748Y-20165452D01*
X7938700Y-20174976D01*
X7891081Y-20174976D01*
X7872033Y-20165452D01*
X7862509Y-20155929D01*
X8100605Y-19974976D02*
X8119652Y-19974976D01*
X8138700Y-19984500D01*
X8148224Y-19994024D01*
X8157748Y-20013071D01*
X8167271Y-20051167D01*
X8167271Y-20098786D01*
X8157748Y-20136881D01*
X8148224Y-20155929D01*
X8138700Y-20165452D01*
X8119652Y-20174976D01*
X8100605Y-20174976D01*
X8081557Y-20165452D01*
X8072033Y-20155929D01*
X8062509Y-20136881D01*
X8052986Y-20098786D01*
X8052986Y-20051167D01*
X8062509Y-20013071D01*
X8072033Y-19994024D01*
X8081557Y-19984500D01*
X8100605Y-19974976D01*
X8291081Y-19974976D02*
X8310128Y-19974976D01*
X8329176Y-19984500D01*
X8338700Y-19994024D01*
X8348224Y-20013071D01*
X8357748Y-20051167D01*
X8357748Y-20098786D01*
X8348224Y-20136881D01*
X8338700Y-20155929D01*
X8329176Y-20165452D01*
X8310128Y-20174976D01*
X8291081Y-20174976D01*
X8272033Y-20165452D01*
X8262509Y-20155929D01*
X8252986Y-20136881D01*
X8243462Y-20098786D01*
X8243462Y-20051167D01*
X8252986Y-20013071D01*
X8262509Y-19994024D01*
X8272033Y-19984500D01*
X8291081Y-19974976D01*
X8443462Y-20174976D02*
X8443462Y-20041643D01*
X8443462Y-20060690D02*
X8452986Y-20051167D01*
X8472033Y-20041643D01*
X8500605Y-20041643D01*
X8519652Y-20051167D01*
X8529176Y-20070214D01*
X8529176Y-20174976D01*
X8529176Y-20070214D02*
X8538700Y-20051167D01*
X8557748Y-20041643D01*
X8586319Y-20041643D01*
X8605367Y-20051167D01*
X8614890Y-20070214D01*
X8614890Y-20174976D01*
X8710129Y-20174976D02*
X8710129Y-20041643D01*
X8710129Y-20060690D02*
X8719652Y-20051167D01*
X8738700Y-20041643D01*
X8767271Y-20041643D01*
X8786319Y-20051167D01*
X8795843Y-20070214D01*
X8795843Y-20174976D01*
X8795843Y-20070214D02*
X8805367Y-20051167D01*
X8824414Y-20041643D01*
X8852986Y-20041643D01*
X8872033Y-20051167D01*
X8881557Y-20070214D01*
X8881557Y-20174976D01*
X9272033Y-19965452D02*
X9100605Y-20222595D01*
X9529176Y-19974976D02*
X9548224Y-19974976D01*
X9567271Y-19984500D01*
X9576795Y-19994024D01*
X9586319Y-20013071D01*
X9595843Y-20051167D01*
X9595843Y-20098786D01*
X9586319Y-20136881D01*
X9576795Y-20155929D01*
X9567271Y-20165452D01*
X9548224Y-20174976D01*
X9529176Y-20174976D01*
X9510129Y-20165452D01*
X9500605Y-20155929D01*
X9491081Y-20136881D01*
X9481557Y-20098786D01*
X9481557Y-20051167D01*
X9491081Y-20013071D01*
X9500605Y-19994024D01*
X9510129Y-19984500D01*
X9529176Y-19974976D01*
X9681557Y-20155929D02*
X9691081Y-20165452D01*
X9681557Y-20174976D01*
X9672033Y-20165452D01*
X9681557Y-20155929D01*
X9681557Y-20174976D01*
X9814890Y-19974976D02*
X9833938Y-19974976D01*
X9852986Y-19984500D01*
X9862510Y-19994024D01*
X9872033Y-20013071D01*
X9881557Y-20051167D01*
X9881557Y-20098786D01*
X9872033Y-20136881D01*
X9862510Y-20155929D01*
X9852986Y-20165452D01*
X9833938Y-20174976D01*
X9814890Y-20174976D01*
X9795843Y-20165452D01*
X9786319Y-20155929D01*
X9776795Y-20136881D01*
X9767271Y-20098786D01*
X9767271Y-20051167D01*
X9776795Y-20013071D01*
X9786319Y-19994024D01*
X9795843Y-19984500D01*
X9814890Y-19974976D01*
X10062510Y-19974976D02*
X9967271Y-19974976D01*
X9957748Y-20070214D01*
X9967271Y-20060690D01*
X9986319Y-20051167D01*
X10033938Y-20051167D01*
X10052986Y-20060690D01*
X10062510Y-20070214D01*
X10072033Y-20089262D01*
X10072033Y-20136881D01*
X10062510Y-20155929D01*
X10052986Y-20165452D01*
X10033938Y-20174976D01*
X9986319Y-20174976D01*
X9967271Y-20165452D01*
X9957748Y-20155929D01*
X10167271Y-20174976D02*
X10205367Y-20174976D01*
X10224414Y-20165452D01*
X10233938Y-20155929D01*
X10252986Y-20127357D01*
X10262510Y-20089262D01*
X10262510Y-20013071D01*
X10252986Y-19994024D01*
X10243462Y-19984500D01*
X10224414Y-19974976D01*
X10186319Y-19974976D01*
X10167271Y-19984500D01*
X10157748Y-19994024D01*
X10148224Y-20013071D01*
X10148224Y-20060690D01*
X10157748Y-20079738D01*
X10167271Y-20089262D01*
X10186319Y-20098786D01*
X10224414Y-20098786D01*
X10243462Y-20089262D01*
X10252986Y-20079738D01*
X10262510Y-20060690D01*
X10452986Y-20174976D02*
X10338700Y-20174976D01*
X10395843Y-20174976D02*
X10395843Y-19974976D01*
X10376795Y-20003548D01*
X10357748Y-20022595D01*
X10338700Y-20032119D01*
X10529176Y-19974976D02*
X10529176Y-20013071D01*
X10605367Y-19974976D02*
X10605367Y-20013071D01*
X10900605Y-20251167D02*
X10891081Y-20241643D01*
X10872033Y-20213071D01*
X10862510Y-20194024D01*
X10852986Y-20165452D01*
X10843462Y-20117833D01*
X10843462Y-20079738D01*
X10852986Y-20032119D01*
X10862510Y-20003548D01*
X10872033Y-19984500D01*
X10891081Y-19955929D01*
X10900605Y-19946405D01*
X11081557Y-20174976D02*
X10967271Y-20174976D01*
X11024414Y-20174976D02*
X11024414Y-19974976D01*
X11005367Y-20003548D01*
X10986319Y-20022595D01*
X10967271Y-20032119D01*
X11252986Y-19974976D02*
X11214890Y-19974976D01*
X11195843Y-19984500D01*
X11186319Y-19994024D01*
X11167271Y-20022595D01*
X11157748Y-20060690D01*
X11157748Y-20136881D01*
X11167271Y-20155929D01*
X11176795Y-20165452D01*
X11195843Y-20174976D01*
X11233938Y-20174976D01*
X11252986Y-20165452D01*
X11262509Y-20155929D01*
X11272033Y-20136881D01*
X11272033Y-20089262D01*
X11262509Y-20070214D01*
X11252986Y-20060690D01*
X11233938Y-20051167D01*
X11195843Y-20051167D01*
X11176795Y-20060690D01*
X11167271Y-20070214D01*
X11157748Y-20089262D01*
X11395843Y-19974976D02*
X11414890Y-19974976D01*
X11433938Y-19984500D01*
X11443462Y-19994024D01*
X11452986Y-20013071D01*
X11462509Y-20051167D01*
X11462509Y-20098786D01*
X11452986Y-20136881D01*
X11443462Y-20155929D01*
X11433938Y-20165452D01*
X11414890Y-20174976D01*
X11395843Y-20174976D01*
X11376795Y-20165452D01*
X11367271Y-20155929D01*
X11357748Y-20136881D01*
X11348224Y-20098786D01*
X11348224Y-20051167D01*
X11357748Y-20013071D01*
X11367271Y-19994024D01*
X11376795Y-19984500D01*
X11395843Y-19974976D01*
X11700605Y-20174976D02*
X11700605Y-19974976D01*
X11786319Y-20174976D02*
X11786319Y-20070214D01*
X11776795Y-20051167D01*
X11757748Y-20041643D01*
X11729176Y-20041643D01*
X11710128Y-20051167D01*
X11700605Y-20060690D01*
X11910128Y-20174976D02*
X11891081Y-20165452D01*
X11881557Y-20155929D01*
X11872033Y-20136881D01*
X11872033Y-20079738D01*
X11881557Y-20060690D01*
X11891081Y-20051167D01*
X11910128Y-20041643D01*
X11938700Y-20041643D01*
X11957748Y-20051167D01*
X11967271Y-20060690D01*
X11976795Y-20079738D01*
X11976795Y-20136881D01*
X11967271Y-20155929D01*
X11957748Y-20165452D01*
X11938700Y-20174976D01*
X11910128Y-20174976D01*
X12091081Y-20174976D02*
X12072033Y-20165452D01*
X12062509Y-20146405D01*
X12062509Y-19974976D01*
X12243462Y-20165452D02*
X12224414Y-20174976D01*
X12186319Y-20174976D01*
X12167271Y-20165452D01*
X12157748Y-20146405D01*
X12157748Y-20070214D01*
X12167271Y-20051167D01*
X12186319Y-20041643D01*
X12224414Y-20041643D01*
X12243462Y-20051167D01*
X12252986Y-20070214D01*
X12252986Y-20089262D01*
X12157748Y-20108310D01*
X12329176Y-20165452D02*
X12348224Y-20174976D01*
X12386319Y-20174976D01*
X12405367Y-20165452D01*
X12414890Y-20146405D01*
X12414890Y-20136881D01*
X12405367Y-20117833D01*
X12386319Y-20108310D01*
X12357748Y-20108310D01*
X12338700Y-20098786D01*
X12329176Y-20079738D01*
X12329176Y-20070214D01*
X12338700Y-20051167D01*
X12357748Y-20041643D01*
X12386319Y-20041643D01*
X12405367Y-20051167D01*
X12481557Y-20251167D02*
X12491081Y-20241643D01*
X12510128Y-20213071D01*
X12519652Y-20194024D01*
X12529176Y-20165452D01*
X12538700Y-20117833D01*
X12538700Y-20079738D01*
X12529176Y-20032119D01*
X12519652Y-20003548D01*
X12510128Y-19984500D01*
X12491081Y-19955929D01*
X12481557Y-19946405D01*
D16*
X7241200Y-20442000D02*
X7328700Y-20354500D01*
X7241200Y-20267000D01*
X7153700Y-20354500D01*
X7241200Y-20442000D01*
D11*
X7691081Y-20444976D02*
X7576795Y-20444976D01*
X7633938Y-20444976D02*
X7633938Y-20244976D01*
X7614890Y-20273548D01*
X7595843Y-20292595D01*
X7576795Y-20302119D01*
X7776795Y-20425929D02*
X7786319Y-20435452D01*
X7776795Y-20444976D01*
X7767271Y-20435452D01*
X7776795Y-20425929D01*
X7776795Y-20444976D01*
X7852986Y-20244976D02*
X7986319Y-20244976D01*
X7900605Y-20444976D01*
X8157748Y-20244976D02*
X8062509Y-20244976D01*
X8052986Y-20340214D01*
X8062509Y-20330690D01*
X8081557Y-20321167D01*
X8129176Y-20321167D01*
X8148224Y-20330690D01*
X8157748Y-20340214D01*
X8167271Y-20359262D01*
X8167271Y-20406881D01*
X8157748Y-20425929D01*
X8148224Y-20435452D01*
X8129176Y-20444976D01*
X8081557Y-20444976D01*
X8062509Y-20435452D01*
X8052986Y-20425929D01*
X8291081Y-20244976D02*
X8310128Y-20244976D01*
X8329176Y-20254500D01*
X8338700Y-20264024D01*
X8348224Y-20283071D01*
X8357748Y-20321167D01*
X8357748Y-20368786D01*
X8348224Y-20406881D01*
X8338700Y-20425929D01*
X8329176Y-20435452D01*
X8310128Y-20444976D01*
X8291081Y-20444976D01*
X8272033Y-20435452D01*
X8262509Y-20425929D01*
X8252986Y-20406881D01*
X8243462Y-20368786D01*
X8243462Y-20321167D01*
X8252986Y-20283071D01*
X8262509Y-20264024D01*
X8272033Y-20254500D01*
X8291081Y-20244976D01*
X8443462Y-20444976D02*
X8443462Y-20311643D01*
X8443462Y-20330690D02*
X8452986Y-20321167D01*
X8472033Y-20311643D01*
X8500605Y-20311643D01*
X8519652Y-20321167D01*
X8529176Y-20340214D01*
X8529176Y-20444976D01*
X8529176Y-20340214D02*
X8538700Y-20321167D01*
X8557748Y-20311643D01*
X8586319Y-20311643D01*
X8605367Y-20321167D01*
X8614890Y-20340214D01*
X8614890Y-20444976D01*
X8710129Y-20444976D02*
X8710129Y-20311643D01*
X8710129Y-20330690D02*
X8719652Y-20321167D01*
X8738700Y-20311643D01*
X8767271Y-20311643D01*
X8786319Y-20321167D01*
X8795843Y-20340214D01*
X8795843Y-20444976D01*
X8795843Y-20340214D02*
X8805367Y-20321167D01*
X8824414Y-20311643D01*
X8852986Y-20311643D01*
X8872033Y-20321167D01*
X8881557Y-20340214D01*
X8881557Y-20444976D01*
X9272033Y-20235452D02*
X9100605Y-20492595D01*
X9529176Y-20244976D02*
X9548224Y-20244976D01*
X9567271Y-20254500D01*
X9576795Y-20264024D01*
X9586319Y-20283071D01*
X9595843Y-20321167D01*
X9595843Y-20368786D01*
X9586319Y-20406881D01*
X9576795Y-20425929D01*
X9567271Y-20435452D01*
X9548224Y-20444976D01*
X9529176Y-20444976D01*
X9510129Y-20435452D01*
X9500605Y-20425929D01*
X9491081Y-20406881D01*
X9481557Y-20368786D01*
X9481557Y-20321167D01*
X9491081Y-20283071D01*
X9500605Y-20264024D01*
X9510129Y-20254500D01*
X9529176Y-20244976D01*
X9681557Y-20425929D02*
X9691081Y-20435452D01*
X9681557Y-20444976D01*
X9672033Y-20435452D01*
X9681557Y-20425929D01*
X9681557Y-20444976D01*
X9814890Y-20244976D02*
X9833938Y-20244976D01*
X9852986Y-20254500D01*
X9862510Y-20264024D01*
X9872033Y-20283071D01*
X9881557Y-20321167D01*
X9881557Y-20368786D01*
X9872033Y-20406881D01*
X9862510Y-20425929D01*
X9852986Y-20435452D01*
X9833938Y-20444976D01*
X9814890Y-20444976D01*
X9795843Y-20435452D01*
X9786319Y-20425929D01*
X9776795Y-20406881D01*
X9767271Y-20368786D01*
X9767271Y-20321167D01*
X9776795Y-20283071D01*
X9786319Y-20264024D01*
X9795843Y-20254500D01*
X9814890Y-20244976D01*
X10052986Y-20244976D02*
X10014890Y-20244976D01*
X9995843Y-20254500D01*
X9986319Y-20264024D01*
X9967271Y-20292595D01*
X9957748Y-20330690D01*
X9957748Y-20406881D01*
X9967271Y-20425929D01*
X9976795Y-20435452D01*
X9995843Y-20444976D01*
X10033938Y-20444976D01*
X10052986Y-20435452D01*
X10062510Y-20425929D01*
X10072033Y-20406881D01*
X10072033Y-20359262D01*
X10062510Y-20340214D01*
X10052986Y-20330690D01*
X10033938Y-20321167D01*
X9995843Y-20321167D01*
X9976795Y-20330690D01*
X9967271Y-20340214D01*
X9957748Y-20359262D01*
X10186319Y-20330690D02*
X10167271Y-20321167D01*
X10157748Y-20311643D01*
X10148224Y-20292595D01*
X10148224Y-20283071D01*
X10157748Y-20264024D01*
X10167271Y-20254500D01*
X10186319Y-20244976D01*
X10224414Y-20244976D01*
X10243462Y-20254500D01*
X10252986Y-20264024D01*
X10262510Y-20283071D01*
X10262510Y-20292595D01*
X10252986Y-20311643D01*
X10243462Y-20321167D01*
X10224414Y-20330690D01*
X10186319Y-20330690D01*
X10167271Y-20340214D01*
X10157748Y-20349738D01*
X10148224Y-20368786D01*
X10148224Y-20406881D01*
X10157748Y-20425929D01*
X10167271Y-20435452D01*
X10186319Y-20444976D01*
X10224414Y-20444976D01*
X10243462Y-20435452D01*
X10252986Y-20425929D01*
X10262510Y-20406881D01*
X10262510Y-20368786D01*
X10252986Y-20349738D01*
X10243462Y-20340214D01*
X10224414Y-20330690D01*
X10357748Y-20444976D02*
X10395843Y-20444976D01*
X10414890Y-20435452D01*
X10424414Y-20425929D01*
X10443462Y-20397357D01*
X10452986Y-20359262D01*
X10452986Y-20283071D01*
X10443462Y-20264024D01*
X10433938Y-20254500D01*
X10414890Y-20244976D01*
X10376795Y-20244976D01*
X10357748Y-20254500D01*
X10348224Y-20264024D01*
X10338700Y-20283071D01*
X10338700Y-20330690D01*
X10348224Y-20349738D01*
X10357748Y-20359262D01*
X10376795Y-20368786D01*
X10414890Y-20368786D01*
X10433938Y-20359262D01*
X10443462Y-20349738D01*
X10452986Y-20330690D01*
X10529176Y-20244976D02*
X10529176Y-20283071D01*
X10605367Y-20244976D02*
X10605367Y-20283071D01*
X10900605Y-20521167D02*
X10891081Y-20511643D01*
X10872033Y-20483071D01*
X10862510Y-20464024D01*
X10852986Y-20435452D01*
X10843462Y-20387833D01*
X10843462Y-20349738D01*
X10852986Y-20302119D01*
X10862510Y-20273548D01*
X10872033Y-20254500D01*
X10891081Y-20225929D01*
X10900605Y-20216405D01*
X11081557Y-20444976D02*
X10967271Y-20444976D01*
X11024414Y-20444976D02*
X11024414Y-20244976D01*
X11005367Y-20273548D01*
X10986319Y-20292595D01*
X10967271Y-20302119D01*
X11252986Y-20244976D02*
X11214890Y-20244976D01*
X11195843Y-20254500D01*
X11186319Y-20264024D01*
X11167271Y-20292595D01*
X11157748Y-20330690D01*
X11157748Y-20406881D01*
X11167271Y-20425929D01*
X11176795Y-20435452D01*
X11195843Y-20444976D01*
X11233938Y-20444976D01*
X11252986Y-20435452D01*
X11262509Y-20425929D01*
X11272033Y-20406881D01*
X11272033Y-20359262D01*
X11262509Y-20340214D01*
X11252986Y-20330690D01*
X11233938Y-20321167D01*
X11195843Y-20321167D01*
X11176795Y-20330690D01*
X11167271Y-20340214D01*
X11157748Y-20359262D01*
X11395843Y-20244976D02*
X11414890Y-20244976D01*
X11433938Y-20254500D01*
X11443462Y-20264024D01*
X11452986Y-20283071D01*
X11462509Y-20321167D01*
X11462509Y-20368786D01*
X11452986Y-20406881D01*
X11443462Y-20425929D01*
X11433938Y-20435452D01*
X11414890Y-20444976D01*
X11395843Y-20444976D01*
X11376795Y-20435452D01*
X11367271Y-20425929D01*
X11357748Y-20406881D01*
X11348224Y-20368786D01*
X11348224Y-20321167D01*
X11357748Y-20283071D01*
X11367271Y-20264024D01*
X11376795Y-20254500D01*
X11395843Y-20244976D01*
X11700605Y-20444976D02*
X11700605Y-20244976D01*
X11786319Y-20444976D02*
X11786319Y-20340214D01*
X11776795Y-20321167D01*
X11757748Y-20311643D01*
X11729176Y-20311643D01*
X11710128Y-20321167D01*
X11700605Y-20330690D01*
X11910128Y-20444976D02*
X11891081Y-20435452D01*
X11881557Y-20425929D01*
X11872033Y-20406881D01*
X11872033Y-20349738D01*
X11881557Y-20330690D01*
X11891081Y-20321167D01*
X11910128Y-20311643D01*
X11938700Y-20311643D01*
X11957748Y-20321167D01*
X11967271Y-20330690D01*
X11976795Y-20349738D01*
X11976795Y-20406881D01*
X11967271Y-20425929D01*
X11957748Y-20435452D01*
X11938700Y-20444976D01*
X11910128Y-20444976D01*
X12091081Y-20444976D02*
X12072033Y-20435452D01*
X12062509Y-20416405D01*
X12062509Y-20244976D01*
X12243462Y-20435452D02*
X12224414Y-20444976D01*
X12186319Y-20444976D01*
X12167271Y-20435452D01*
X12157748Y-20416405D01*
X12157748Y-20340214D01*
X12167271Y-20321167D01*
X12186319Y-20311643D01*
X12224414Y-20311643D01*
X12243462Y-20321167D01*
X12252986Y-20340214D01*
X12252986Y-20359262D01*
X12157748Y-20378310D01*
X12329176Y-20435452D02*
X12348224Y-20444976D01*
X12386319Y-20444976D01*
X12405367Y-20435452D01*
X12414890Y-20416405D01*
X12414890Y-20406881D01*
X12405367Y-20387833D01*
X12386319Y-20378310D01*
X12357748Y-20378310D01*
X12338700Y-20368786D01*
X12329176Y-20349738D01*
X12329176Y-20340214D01*
X12338700Y-20321167D01*
X12357748Y-20311643D01*
X12386319Y-20311643D01*
X12405367Y-20321167D01*
X12481557Y-20521167D02*
X12491081Y-20511643D01*
X12510128Y-20483071D01*
X12519652Y-20464024D01*
X12529176Y-20435452D01*
X12538700Y-20387833D01*
X12538700Y-20349738D01*
X12529176Y-20302119D01*
X12519652Y-20273548D01*
X12510128Y-20254500D01*
X12491081Y-20225929D01*
X12481557Y-20216405D01*
X12843462Y-20521167D02*
X12833938Y-20511643D01*
X12814890Y-20483071D01*
X12805367Y-20464024D01*
X12795843Y-20435452D01*
X12786319Y-20387833D01*
X12786319Y-20349738D01*
X12795843Y-20302119D01*
X12805367Y-20273548D01*
X12814890Y-20254500D01*
X12833938Y-20225929D01*
X12843462Y-20216405D01*
X12919652Y-20311643D02*
X12919652Y-20444976D01*
X12919652Y-20330690D02*
X12929176Y-20321167D01*
X12948224Y-20311643D01*
X12976795Y-20311643D01*
X12995843Y-20321167D01*
X13005367Y-20340214D01*
X13005367Y-20444976D01*
X13129176Y-20444976D02*
X13110128Y-20435452D01*
X13100605Y-20425929D01*
X13091081Y-20406881D01*
X13091081Y-20349738D01*
X13100605Y-20330690D01*
X13110128Y-20321167D01*
X13129176Y-20311643D01*
X13157748Y-20311643D01*
X13176795Y-20321167D01*
X13186319Y-20330690D01*
X13195843Y-20349738D01*
X13195843Y-20406881D01*
X13186319Y-20425929D01*
X13176795Y-20435452D01*
X13157748Y-20444976D01*
X13129176Y-20444976D01*
X13252986Y-20311643D02*
X13329176Y-20311643D01*
X13281557Y-20244976D02*
X13281557Y-20416405D01*
X13291081Y-20435452D01*
X13310128Y-20444976D01*
X13329176Y-20444976D01*
X13548224Y-20311643D02*
X13548224Y-20511643D01*
X13548224Y-20321167D02*
X13567271Y-20311643D01*
X13605367Y-20311643D01*
X13624414Y-20321167D01*
X13633938Y-20330690D01*
X13643462Y-20349738D01*
X13643462Y-20406881D01*
X13633938Y-20425929D01*
X13624414Y-20435452D01*
X13605367Y-20444976D01*
X13567271Y-20444976D01*
X13548224Y-20435452D01*
X13757748Y-20444976D02*
X13738700Y-20435452D01*
X13729176Y-20416405D01*
X13729176Y-20244976D01*
X13919652Y-20444976D02*
X13919652Y-20340214D01*
X13910128Y-20321167D01*
X13891081Y-20311643D01*
X13852986Y-20311643D01*
X13833938Y-20321167D01*
X13919652Y-20435452D02*
X13900605Y-20444976D01*
X13852986Y-20444976D01*
X13833938Y-20435452D01*
X13824414Y-20416405D01*
X13824414Y-20397357D01*
X13833938Y-20378310D01*
X13852986Y-20368786D01*
X13900605Y-20368786D01*
X13919652Y-20359262D01*
X13986319Y-20311643D02*
X14062509Y-20311643D01*
X14014890Y-20244976D02*
X14014890Y-20416405D01*
X14024414Y-20435452D01*
X14043462Y-20444976D01*
X14062509Y-20444976D01*
X14205367Y-20435452D02*
X14186319Y-20444976D01*
X14148224Y-20444976D01*
X14129176Y-20435452D01*
X14119652Y-20416405D01*
X14119652Y-20340214D01*
X14129176Y-20321167D01*
X14148224Y-20311643D01*
X14186319Y-20311643D01*
X14205367Y-20321167D01*
X14214890Y-20340214D01*
X14214890Y-20359262D01*
X14119652Y-20378310D01*
X14386319Y-20444976D02*
X14386319Y-20244976D01*
X14386319Y-20435452D02*
X14367271Y-20444976D01*
X14329176Y-20444976D01*
X14310128Y-20435452D01*
X14300605Y-20425929D01*
X14291081Y-20406881D01*
X14291081Y-20349738D01*
X14300605Y-20330690D01*
X14310128Y-20321167D01*
X14329176Y-20311643D01*
X14367271Y-20311643D01*
X14386319Y-20321167D01*
X14462509Y-20521167D02*
X14472033Y-20511643D01*
X14491081Y-20483071D01*
X14500605Y-20464024D01*
X14510128Y-20435452D01*
X14519652Y-20387833D01*
X14519652Y-20349738D01*
X14510128Y-20302119D01*
X14500605Y-20273548D01*
X14491081Y-20254500D01*
X14472033Y-20225929D01*
X14462509Y-20216405D01*
X7128700Y-20549500D02*
X7328700Y-20749500D01*
X7328700Y-20549500D02*
X7128700Y-20749500D01*
X7328700Y-20649500D02*
G75*
G03*
X7328700Y-20649500I-100000J0D01*
G01*
X7576795Y-20559024D02*
X7586319Y-20549500D01*
X7605367Y-20539976D01*
X7652986Y-20539976D01*
X7672033Y-20549500D01*
X7681557Y-20559024D01*
X7691081Y-20578071D01*
X7691081Y-20597119D01*
X7681557Y-20625690D01*
X7567271Y-20739976D01*
X7691081Y-20739976D01*
X7776795Y-20720929D02*
X7786319Y-20730452D01*
X7776795Y-20739976D01*
X7767271Y-20730452D01*
X7776795Y-20720929D01*
X7776795Y-20739976D01*
X7910128Y-20539976D02*
X7929176Y-20539976D01*
X7948224Y-20549500D01*
X7957748Y-20559024D01*
X7967271Y-20578071D01*
X7976795Y-20616167D01*
X7976795Y-20663786D01*
X7967271Y-20701881D01*
X7957748Y-20720929D01*
X7948224Y-20730452D01*
X7929176Y-20739976D01*
X7910128Y-20739976D01*
X7891081Y-20730452D01*
X7881557Y-20720929D01*
X7872033Y-20701881D01*
X7862509Y-20663786D01*
X7862509Y-20616167D01*
X7872033Y-20578071D01*
X7881557Y-20559024D01*
X7891081Y-20549500D01*
X7910128Y-20539976D01*
X8100605Y-20539976D02*
X8119652Y-20539976D01*
X8138700Y-20549500D01*
X8148224Y-20559024D01*
X8157748Y-20578071D01*
X8167271Y-20616167D01*
X8167271Y-20663786D01*
X8157748Y-20701881D01*
X8148224Y-20720929D01*
X8138700Y-20730452D01*
X8119652Y-20739976D01*
X8100605Y-20739976D01*
X8081557Y-20730452D01*
X8072033Y-20720929D01*
X8062509Y-20701881D01*
X8052986Y-20663786D01*
X8052986Y-20616167D01*
X8062509Y-20578071D01*
X8072033Y-20559024D01*
X8081557Y-20549500D01*
X8100605Y-20539976D01*
X8291081Y-20539976D02*
X8310128Y-20539976D01*
X8329176Y-20549500D01*
X8338700Y-20559024D01*
X8348224Y-20578071D01*
X8357748Y-20616167D01*
X8357748Y-20663786D01*
X8348224Y-20701881D01*
X8338700Y-20720929D01*
X8329176Y-20730452D01*
X8310128Y-20739976D01*
X8291081Y-20739976D01*
X8272033Y-20730452D01*
X8262509Y-20720929D01*
X8252986Y-20701881D01*
X8243462Y-20663786D01*
X8243462Y-20616167D01*
X8252986Y-20578071D01*
X8262509Y-20559024D01*
X8272033Y-20549500D01*
X8291081Y-20539976D01*
X8443462Y-20739976D02*
X8443462Y-20606643D01*
X8443462Y-20625690D02*
X8452986Y-20616167D01*
X8472033Y-20606643D01*
X8500605Y-20606643D01*
X8519652Y-20616167D01*
X8529176Y-20635214D01*
X8529176Y-20739976D01*
X8529176Y-20635214D02*
X8538700Y-20616167D01*
X8557748Y-20606643D01*
X8586319Y-20606643D01*
X8605367Y-20616167D01*
X8614890Y-20635214D01*
X8614890Y-20739976D01*
X8710129Y-20739976D02*
X8710129Y-20606643D01*
X8710129Y-20625690D02*
X8719652Y-20616167D01*
X8738700Y-20606643D01*
X8767271Y-20606643D01*
X8786319Y-20616167D01*
X8795843Y-20635214D01*
X8795843Y-20739976D01*
X8795843Y-20635214D02*
X8805367Y-20616167D01*
X8824414Y-20606643D01*
X8852986Y-20606643D01*
X8872033Y-20616167D01*
X8881557Y-20635214D01*
X8881557Y-20739976D01*
X9272033Y-20530452D02*
X9100605Y-20787595D01*
X9529176Y-20539976D02*
X9548224Y-20539976D01*
X9567271Y-20549500D01*
X9576795Y-20559024D01*
X9586319Y-20578071D01*
X9595843Y-20616167D01*
X9595843Y-20663786D01*
X9586319Y-20701881D01*
X9576795Y-20720929D01*
X9567271Y-20730452D01*
X9548224Y-20739976D01*
X9529176Y-20739976D01*
X9510129Y-20730452D01*
X9500605Y-20720929D01*
X9491081Y-20701881D01*
X9481557Y-20663786D01*
X9481557Y-20616167D01*
X9491081Y-20578071D01*
X9500605Y-20559024D01*
X9510129Y-20549500D01*
X9529176Y-20539976D01*
X9681557Y-20720929D02*
X9691081Y-20730452D01*
X9681557Y-20739976D01*
X9672033Y-20730452D01*
X9681557Y-20720929D01*
X9681557Y-20739976D01*
X9814890Y-20539976D02*
X9833938Y-20539976D01*
X9852986Y-20549500D01*
X9862510Y-20559024D01*
X9872033Y-20578071D01*
X9881557Y-20616167D01*
X9881557Y-20663786D01*
X9872033Y-20701881D01*
X9862510Y-20720929D01*
X9852986Y-20730452D01*
X9833938Y-20739976D01*
X9814890Y-20739976D01*
X9795843Y-20730452D01*
X9786319Y-20720929D01*
X9776795Y-20701881D01*
X9767271Y-20663786D01*
X9767271Y-20616167D01*
X9776795Y-20578071D01*
X9786319Y-20559024D01*
X9795843Y-20549500D01*
X9814890Y-20539976D01*
X9948224Y-20539976D02*
X10081557Y-20539976D01*
X9995843Y-20739976D01*
X10186319Y-20625690D02*
X10167271Y-20616167D01*
X10157748Y-20606643D01*
X10148224Y-20587595D01*
X10148224Y-20578071D01*
X10157748Y-20559024D01*
X10167271Y-20549500D01*
X10186319Y-20539976D01*
X10224414Y-20539976D01*
X10243462Y-20549500D01*
X10252986Y-20559024D01*
X10262510Y-20578071D01*
X10262510Y-20587595D01*
X10252986Y-20606643D01*
X10243462Y-20616167D01*
X10224414Y-20625690D01*
X10186319Y-20625690D01*
X10167271Y-20635214D01*
X10157748Y-20644738D01*
X10148224Y-20663786D01*
X10148224Y-20701881D01*
X10157748Y-20720929D01*
X10167271Y-20730452D01*
X10186319Y-20739976D01*
X10224414Y-20739976D01*
X10243462Y-20730452D01*
X10252986Y-20720929D01*
X10262510Y-20701881D01*
X10262510Y-20663786D01*
X10252986Y-20644738D01*
X10243462Y-20635214D01*
X10224414Y-20625690D01*
X10329176Y-20539976D02*
X10462510Y-20539976D01*
X10376795Y-20739976D01*
X10529176Y-20539976D02*
X10529176Y-20578071D01*
X10605367Y-20539976D02*
X10605367Y-20578071D01*
X10900605Y-20816167D02*
X10891081Y-20806643D01*
X10872033Y-20778071D01*
X10862510Y-20759024D01*
X10852986Y-20730452D01*
X10843462Y-20682833D01*
X10843462Y-20644738D01*
X10852986Y-20597119D01*
X10862510Y-20568548D01*
X10872033Y-20549500D01*
X10891081Y-20520929D01*
X10900605Y-20511405D01*
X11081557Y-20739976D02*
X10967271Y-20739976D01*
X11024414Y-20739976D02*
X11024414Y-20539976D01*
X11005367Y-20568548D01*
X10986319Y-20587595D01*
X10967271Y-20597119D01*
X11205367Y-20539976D02*
X11224414Y-20539976D01*
X11243462Y-20549500D01*
X11252986Y-20559024D01*
X11262509Y-20578071D01*
X11272033Y-20616167D01*
X11272033Y-20663786D01*
X11262509Y-20701881D01*
X11252986Y-20720929D01*
X11243462Y-20730452D01*
X11224414Y-20739976D01*
X11205367Y-20739976D01*
X11186319Y-20730452D01*
X11176795Y-20720929D01*
X11167271Y-20701881D01*
X11157748Y-20663786D01*
X11157748Y-20616167D01*
X11167271Y-20578071D01*
X11176795Y-20559024D01*
X11186319Y-20549500D01*
X11205367Y-20539976D01*
X11510128Y-20739976D02*
X11510128Y-20539976D01*
X11595843Y-20739976D02*
X11595843Y-20635214D01*
X11586319Y-20616167D01*
X11567271Y-20606643D01*
X11538700Y-20606643D01*
X11519652Y-20616167D01*
X11510128Y-20625690D01*
X11719652Y-20739976D02*
X11700605Y-20730452D01*
X11691081Y-20720929D01*
X11681557Y-20701881D01*
X11681557Y-20644738D01*
X11691081Y-20625690D01*
X11700605Y-20616167D01*
X11719652Y-20606643D01*
X11748224Y-20606643D01*
X11767271Y-20616167D01*
X11776795Y-20625690D01*
X11786319Y-20644738D01*
X11786319Y-20701881D01*
X11776795Y-20720929D01*
X11767271Y-20730452D01*
X11748224Y-20739976D01*
X11719652Y-20739976D01*
X11900605Y-20739976D02*
X11881557Y-20730452D01*
X11872033Y-20711405D01*
X11872033Y-20539976D01*
X12052986Y-20730452D02*
X12033938Y-20739976D01*
X11995843Y-20739976D01*
X11976795Y-20730452D01*
X11967271Y-20711405D01*
X11967271Y-20635214D01*
X11976795Y-20616167D01*
X11995843Y-20606643D01*
X12033938Y-20606643D01*
X12052986Y-20616167D01*
X12062509Y-20635214D01*
X12062509Y-20654262D01*
X11967271Y-20673310D01*
X12138700Y-20730452D02*
X12157748Y-20739976D01*
X12195843Y-20739976D01*
X12214890Y-20730452D01*
X12224414Y-20711405D01*
X12224414Y-20701881D01*
X12214890Y-20682833D01*
X12195843Y-20673310D01*
X12167271Y-20673310D01*
X12148224Y-20663786D01*
X12138700Y-20644738D01*
X12138700Y-20635214D01*
X12148224Y-20616167D01*
X12167271Y-20606643D01*
X12195843Y-20606643D01*
X12214890Y-20616167D01*
X12291081Y-20816167D02*
X12300605Y-20806643D01*
X12319652Y-20778071D01*
X12329176Y-20759024D01*
X12338700Y-20730452D01*
X12348224Y-20682833D01*
X12348224Y-20644738D01*
X12338700Y-20597119D01*
X12329176Y-20568548D01*
X12319652Y-20549500D01*
X12300605Y-20520929D01*
X12291081Y-20511405D01*
X12652986Y-20816167D02*
X12643462Y-20806643D01*
X12624414Y-20778071D01*
X12614890Y-20759024D01*
X12605367Y-20730452D01*
X12595843Y-20682833D01*
X12595843Y-20644738D01*
X12605367Y-20597119D01*
X12614890Y-20568548D01*
X12624414Y-20549500D01*
X12643462Y-20520929D01*
X12652986Y-20511405D01*
X12729176Y-20606643D02*
X12729176Y-20739976D01*
X12729176Y-20625690D02*
X12738700Y-20616167D01*
X12757748Y-20606643D01*
X12786319Y-20606643D01*
X12805367Y-20616167D01*
X12814890Y-20635214D01*
X12814890Y-20739976D01*
X12938700Y-20739976D02*
X12919652Y-20730452D01*
X12910128Y-20720929D01*
X12900605Y-20701881D01*
X12900605Y-20644738D01*
X12910128Y-20625690D01*
X12919652Y-20616167D01*
X12938700Y-20606643D01*
X12967271Y-20606643D01*
X12986319Y-20616167D01*
X12995843Y-20625690D01*
X13005367Y-20644738D01*
X13005367Y-20701881D01*
X12995843Y-20720929D01*
X12986319Y-20730452D01*
X12967271Y-20739976D01*
X12938700Y-20739976D01*
X13062509Y-20606643D02*
X13138700Y-20606643D01*
X13091081Y-20539976D02*
X13091081Y-20711405D01*
X13100605Y-20730452D01*
X13119652Y-20739976D01*
X13138700Y-20739976D01*
X13357748Y-20606643D02*
X13357748Y-20806643D01*
X13357748Y-20616167D02*
X13376795Y-20606643D01*
X13414890Y-20606643D01*
X13433938Y-20616167D01*
X13443462Y-20625690D01*
X13452986Y-20644738D01*
X13452986Y-20701881D01*
X13443462Y-20720929D01*
X13433938Y-20730452D01*
X13414890Y-20739976D01*
X13376795Y-20739976D01*
X13357748Y-20730452D01*
X13567271Y-20739976D02*
X13548224Y-20730452D01*
X13538700Y-20711405D01*
X13538700Y-20539976D01*
X13729176Y-20739976D02*
X13729176Y-20635214D01*
X13719652Y-20616167D01*
X13700605Y-20606643D01*
X13662509Y-20606643D01*
X13643462Y-20616167D01*
X13729176Y-20730452D02*
X13710128Y-20739976D01*
X13662509Y-20739976D01*
X13643462Y-20730452D01*
X13633938Y-20711405D01*
X13633938Y-20692357D01*
X13643462Y-20673310D01*
X13662509Y-20663786D01*
X13710128Y-20663786D01*
X13729176Y-20654262D01*
X13795843Y-20606643D02*
X13872033Y-20606643D01*
X13824414Y-20539976D02*
X13824414Y-20711405D01*
X13833938Y-20730452D01*
X13852986Y-20739976D01*
X13872033Y-20739976D01*
X14014890Y-20730452D02*
X13995843Y-20739976D01*
X13957748Y-20739976D01*
X13938700Y-20730452D01*
X13929176Y-20711405D01*
X13929176Y-20635214D01*
X13938700Y-20616167D01*
X13957748Y-20606643D01*
X13995843Y-20606643D01*
X14014890Y-20616167D01*
X14024414Y-20635214D01*
X14024414Y-20654262D01*
X13929176Y-20673310D01*
X14195843Y-20739976D02*
X14195843Y-20539976D01*
X14195843Y-20730452D02*
X14176795Y-20739976D01*
X14138700Y-20739976D01*
X14119652Y-20730452D01*
X14110128Y-20720929D01*
X14100605Y-20701881D01*
X14100605Y-20644738D01*
X14110128Y-20625690D01*
X14119652Y-20616167D01*
X14138700Y-20606643D01*
X14176795Y-20606643D01*
X14195843Y-20616167D01*
X14272033Y-20816167D02*
X14281557Y-20806643D01*
X14300605Y-20778071D01*
X14310128Y-20759024D01*
X14319652Y-20730452D01*
X14329176Y-20682833D01*
X14329176Y-20644738D01*
X14319652Y-20597119D01*
X14310128Y-20568548D01*
X14300605Y-20549500D01*
X14281557Y-20520929D01*
X14272033Y-20511405D01*
X7128700Y-20869500D02*
X7328700Y-21069500D01*
X7328700Y-20869500D02*
X7128700Y-21069500D01*
X7228700Y-20869500D02*
X7228700Y-21069500D01*
X7128700Y-20969500D02*
X7328700Y-20969500D01*
X7567271Y-20859976D02*
X7691081Y-20859976D01*
X7624414Y-20936167D01*
X7652986Y-20936167D01*
X7672033Y-20945690D01*
X7681557Y-20955214D01*
X7691081Y-20974262D01*
X7691081Y-21021881D01*
X7681557Y-21040929D01*
X7672033Y-21050452D01*
X7652986Y-21059976D01*
X7595843Y-21059976D01*
X7576795Y-21050452D01*
X7567271Y-21040929D01*
X7776795Y-21040929D02*
X7786319Y-21050452D01*
X7776795Y-21059976D01*
X7767271Y-21050452D01*
X7776795Y-21040929D01*
X7776795Y-21059976D01*
X7910128Y-20859976D02*
X7929176Y-20859976D01*
X7948224Y-20869500D01*
X7957748Y-20879024D01*
X7967271Y-20898071D01*
X7976795Y-20936167D01*
X7976795Y-20983786D01*
X7967271Y-21021881D01*
X7957748Y-21040929D01*
X7948224Y-21050452D01*
X7929176Y-21059976D01*
X7910128Y-21059976D01*
X7891081Y-21050452D01*
X7881557Y-21040929D01*
X7872033Y-21021881D01*
X7862509Y-20983786D01*
X7862509Y-20936167D01*
X7872033Y-20898071D01*
X7881557Y-20879024D01*
X7891081Y-20869500D01*
X7910128Y-20859976D01*
X8148224Y-20926643D02*
X8148224Y-21059976D01*
X8100605Y-20850452D02*
X8052986Y-20993310D01*
X8176795Y-20993310D01*
X8281557Y-20945690D02*
X8262509Y-20936167D01*
X8252986Y-20926643D01*
X8243462Y-20907595D01*
X8243462Y-20898071D01*
X8252986Y-20879024D01*
X8262509Y-20869500D01*
X8281557Y-20859976D01*
X8319652Y-20859976D01*
X8338700Y-20869500D01*
X8348224Y-20879024D01*
X8357748Y-20898071D01*
X8357748Y-20907595D01*
X8348224Y-20926643D01*
X8338700Y-20936167D01*
X8319652Y-20945690D01*
X8281557Y-20945690D01*
X8262509Y-20955214D01*
X8252986Y-20964738D01*
X8243462Y-20983786D01*
X8243462Y-21021881D01*
X8252986Y-21040929D01*
X8262509Y-21050452D01*
X8281557Y-21059976D01*
X8319652Y-21059976D01*
X8338700Y-21050452D01*
X8348224Y-21040929D01*
X8357748Y-21021881D01*
X8357748Y-20983786D01*
X8348224Y-20964738D01*
X8338700Y-20955214D01*
X8319652Y-20945690D01*
X8443462Y-21059976D02*
X8443462Y-20926643D01*
X8443462Y-20945690D02*
X8452986Y-20936167D01*
X8472033Y-20926643D01*
X8500605Y-20926643D01*
X8519652Y-20936167D01*
X8529176Y-20955214D01*
X8529176Y-21059976D01*
X8529176Y-20955214D02*
X8538700Y-20936167D01*
X8557748Y-20926643D01*
X8586319Y-20926643D01*
X8605367Y-20936167D01*
X8614890Y-20955214D01*
X8614890Y-21059976D01*
X8710129Y-21059976D02*
X8710129Y-20926643D01*
X8710129Y-20945690D02*
X8719652Y-20936167D01*
X8738700Y-20926643D01*
X8767271Y-20926643D01*
X8786319Y-20936167D01*
X8795843Y-20955214D01*
X8795843Y-21059976D01*
X8795843Y-20955214D02*
X8805367Y-20936167D01*
X8824414Y-20926643D01*
X8852986Y-20926643D01*
X8872033Y-20936167D01*
X8881557Y-20955214D01*
X8881557Y-21059976D01*
X9272033Y-20850452D02*
X9100605Y-21107595D01*
X9529176Y-20859976D02*
X9548224Y-20859976D01*
X9567271Y-20869500D01*
X9576795Y-20879024D01*
X9586319Y-20898071D01*
X9595843Y-20936167D01*
X9595843Y-20983786D01*
X9586319Y-21021881D01*
X9576795Y-21040929D01*
X9567271Y-21050452D01*
X9548224Y-21059976D01*
X9529176Y-21059976D01*
X9510129Y-21050452D01*
X9500605Y-21040929D01*
X9491081Y-21021881D01*
X9481557Y-20983786D01*
X9481557Y-20936167D01*
X9491081Y-20898071D01*
X9500605Y-20879024D01*
X9510129Y-20869500D01*
X9529176Y-20859976D01*
X9681557Y-21040929D02*
X9691081Y-21050452D01*
X9681557Y-21059976D01*
X9672033Y-21050452D01*
X9681557Y-21040929D01*
X9681557Y-21059976D01*
X9881557Y-21059976D02*
X9767271Y-21059976D01*
X9824414Y-21059976D02*
X9824414Y-20859976D01*
X9805367Y-20888548D01*
X9786319Y-20907595D01*
X9767271Y-20917119D01*
X9957748Y-20879024D02*
X9967271Y-20869500D01*
X9986319Y-20859976D01*
X10033938Y-20859976D01*
X10052986Y-20869500D01*
X10062510Y-20879024D01*
X10072033Y-20898071D01*
X10072033Y-20917119D01*
X10062510Y-20945690D01*
X9948224Y-21059976D01*
X10072033Y-21059976D01*
X10195843Y-20859976D02*
X10214890Y-20859976D01*
X10233938Y-20869500D01*
X10243462Y-20879024D01*
X10252986Y-20898071D01*
X10262510Y-20936167D01*
X10262510Y-20983786D01*
X10252986Y-21021881D01*
X10243462Y-21040929D01*
X10233938Y-21050452D01*
X10214890Y-21059976D01*
X10195843Y-21059976D01*
X10176795Y-21050452D01*
X10167271Y-21040929D01*
X10157748Y-21021881D01*
X10148224Y-20983786D01*
X10148224Y-20936167D01*
X10157748Y-20898071D01*
X10167271Y-20879024D01*
X10176795Y-20869500D01*
X10195843Y-20859976D01*
X10386319Y-20859976D02*
X10405367Y-20859976D01*
X10424414Y-20869500D01*
X10433938Y-20879024D01*
X10443462Y-20898071D01*
X10452986Y-20936167D01*
X10452986Y-20983786D01*
X10443462Y-21021881D01*
X10433938Y-21040929D01*
X10424414Y-21050452D01*
X10405367Y-21059976D01*
X10386319Y-21059976D01*
X10367271Y-21050452D01*
X10357748Y-21040929D01*
X10348224Y-21021881D01*
X10338700Y-20983786D01*
X10338700Y-20936167D01*
X10348224Y-20898071D01*
X10357748Y-20879024D01*
X10367271Y-20869500D01*
X10386319Y-20859976D01*
X10529176Y-20859976D02*
X10529176Y-20898071D01*
X10605367Y-20859976D02*
X10605367Y-20898071D01*
X10900605Y-21136167D02*
X10891081Y-21126643D01*
X10872033Y-21098071D01*
X10862510Y-21079024D01*
X10852986Y-21050452D01*
X10843462Y-21002833D01*
X10843462Y-20964738D01*
X10852986Y-20917119D01*
X10862510Y-20888548D01*
X10872033Y-20869500D01*
X10891081Y-20840929D01*
X10900605Y-20831405D01*
X11081557Y-21059976D02*
X10967271Y-21059976D01*
X11024414Y-21059976D02*
X11024414Y-20859976D01*
X11005367Y-20888548D01*
X10986319Y-20907595D01*
X10967271Y-20917119D01*
X11195843Y-20945690D02*
X11176795Y-20936167D01*
X11167271Y-20926643D01*
X11157748Y-20907595D01*
X11157748Y-20898071D01*
X11167271Y-20879024D01*
X11176795Y-20869500D01*
X11195843Y-20859976D01*
X11233938Y-20859976D01*
X11252986Y-20869500D01*
X11262509Y-20879024D01*
X11272033Y-20898071D01*
X11272033Y-20907595D01*
X11262509Y-20926643D01*
X11252986Y-20936167D01*
X11233938Y-20945690D01*
X11195843Y-20945690D01*
X11176795Y-20955214D01*
X11167271Y-20964738D01*
X11157748Y-20983786D01*
X11157748Y-21021881D01*
X11167271Y-21040929D01*
X11176795Y-21050452D01*
X11195843Y-21059976D01*
X11233938Y-21059976D01*
X11252986Y-21050452D01*
X11262509Y-21040929D01*
X11272033Y-21021881D01*
X11272033Y-20983786D01*
X11262509Y-20964738D01*
X11252986Y-20955214D01*
X11233938Y-20945690D01*
X11510128Y-21059976D02*
X11510128Y-20859976D01*
X11595843Y-21059976D02*
X11595843Y-20955214D01*
X11586319Y-20936167D01*
X11567271Y-20926643D01*
X11538700Y-20926643D01*
X11519652Y-20936167D01*
X11510128Y-20945690D01*
X11719652Y-21059976D02*
X11700605Y-21050452D01*
X11691081Y-21040929D01*
X11681557Y-21021881D01*
X11681557Y-20964738D01*
X11691081Y-20945690D01*
X11700605Y-20936167D01*
X11719652Y-20926643D01*
X11748224Y-20926643D01*
X11767271Y-20936167D01*
X11776795Y-20945690D01*
X11786319Y-20964738D01*
X11786319Y-21021881D01*
X11776795Y-21040929D01*
X11767271Y-21050452D01*
X11748224Y-21059976D01*
X11719652Y-21059976D01*
X11900605Y-21059976D02*
X11881557Y-21050452D01*
X11872033Y-21031405D01*
X11872033Y-20859976D01*
X12052986Y-21050452D02*
X12033938Y-21059976D01*
X11995843Y-21059976D01*
X11976795Y-21050452D01*
X11967271Y-21031405D01*
X11967271Y-20955214D01*
X11976795Y-20936167D01*
X11995843Y-20926643D01*
X12033938Y-20926643D01*
X12052986Y-20936167D01*
X12062509Y-20955214D01*
X12062509Y-20974262D01*
X11967271Y-20993310D01*
X12138700Y-21050452D02*
X12157748Y-21059976D01*
X12195843Y-21059976D01*
X12214890Y-21050452D01*
X12224414Y-21031405D01*
X12224414Y-21021881D01*
X12214890Y-21002833D01*
X12195843Y-20993310D01*
X12167271Y-20993310D01*
X12148224Y-20983786D01*
X12138700Y-20964738D01*
X12138700Y-20955214D01*
X12148224Y-20936167D01*
X12167271Y-20926643D01*
X12195843Y-20926643D01*
X12214890Y-20936167D01*
X12291081Y-21136167D02*
X12300605Y-21126643D01*
X12319652Y-21098071D01*
X12329176Y-21079024D01*
X12338700Y-21050452D01*
X12348224Y-21002833D01*
X12348224Y-20964738D01*
X12338700Y-20917119D01*
X12329176Y-20888548D01*
X12319652Y-20869500D01*
X12300605Y-20840929D01*
X12291081Y-20831405D01*
X12652986Y-21136167D02*
X12643462Y-21126643D01*
X12624414Y-21098071D01*
X12614890Y-21079024D01*
X12605367Y-21050452D01*
X12595843Y-21002833D01*
X12595843Y-20964738D01*
X12605367Y-20917119D01*
X12614890Y-20888548D01*
X12624414Y-20869500D01*
X12643462Y-20840929D01*
X12652986Y-20831405D01*
X12729176Y-20926643D02*
X12729176Y-21059976D01*
X12729176Y-20945690D02*
X12738700Y-20936167D01*
X12757748Y-20926643D01*
X12786319Y-20926643D01*
X12805367Y-20936167D01*
X12814890Y-20955214D01*
X12814890Y-21059976D01*
X12938700Y-21059976D02*
X12919652Y-21050452D01*
X12910128Y-21040929D01*
X12900605Y-21021881D01*
X12900605Y-20964738D01*
X12910128Y-20945690D01*
X12919652Y-20936167D01*
X12938700Y-20926643D01*
X12967271Y-20926643D01*
X12986319Y-20936167D01*
X12995843Y-20945690D01*
X13005367Y-20964738D01*
X13005367Y-21021881D01*
X12995843Y-21040929D01*
X12986319Y-21050452D01*
X12967271Y-21059976D01*
X12938700Y-21059976D01*
X13062509Y-20926643D02*
X13138700Y-20926643D01*
X13091081Y-20859976D02*
X13091081Y-21031405D01*
X13100605Y-21050452D01*
X13119652Y-21059976D01*
X13138700Y-21059976D01*
X13357748Y-20926643D02*
X13357748Y-21126643D01*
X13357748Y-20936167D02*
X13376795Y-20926643D01*
X13414890Y-20926643D01*
X13433938Y-20936167D01*
X13443462Y-20945690D01*
X13452986Y-20964738D01*
X13452986Y-21021881D01*
X13443462Y-21040929D01*
X13433938Y-21050452D01*
X13414890Y-21059976D01*
X13376795Y-21059976D01*
X13357748Y-21050452D01*
X13567271Y-21059976D02*
X13548224Y-21050452D01*
X13538700Y-21031405D01*
X13538700Y-20859976D01*
X13729176Y-21059976D02*
X13729176Y-20955214D01*
X13719652Y-20936167D01*
X13700605Y-20926643D01*
X13662509Y-20926643D01*
X13643462Y-20936167D01*
X13729176Y-21050452D02*
X13710128Y-21059976D01*
X13662509Y-21059976D01*
X13643462Y-21050452D01*
X13633938Y-21031405D01*
X13633938Y-21012357D01*
X13643462Y-20993310D01*
X13662509Y-20983786D01*
X13710128Y-20983786D01*
X13729176Y-20974262D01*
X13795843Y-20926643D02*
X13872033Y-20926643D01*
X13824414Y-20859976D02*
X13824414Y-21031405D01*
X13833938Y-21050452D01*
X13852986Y-21059976D01*
X13872033Y-21059976D01*
X14014890Y-21050452D02*
X13995843Y-21059976D01*
X13957748Y-21059976D01*
X13938700Y-21050452D01*
X13929176Y-21031405D01*
X13929176Y-20955214D01*
X13938700Y-20936167D01*
X13957748Y-20926643D01*
X13995843Y-20926643D01*
X14014890Y-20936167D01*
X14024414Y-20955214D01*
X14024414Y-20974262D01*
X13929176Y-20993310D01*
X14195843Y-21059976D02*
X14195843Y-20859976D01*
X14195843Y-21050452D02*
X14176795Y-21059976D01*
X14138700Y-21059976D01*
X14119652Y-21050452D01*
X14110128Y-21040929D01*
X14100605Y-21021881D01*
X14100605Y-20964738D01*
X14110128Y-20945690D01*
X14119652Y-20936167D01*
X14138700Y-20926643D01*
X14176795Y-20926643D01*
X14195843Y-20936167D01*
X14272033Y-21136167D02*
X14281557Y-21126643D01*
X14300605Y-21098071D01*
X14310128Y-21079024D01*
X14319652Y-21050452D01*
X14329176Y-21002833D01*
X14329176Y-20964738D01*
X14319652Y-20917119D01*
X14310128Y-20888548D01*
X14300605Y-20869500D01*
X14281557Y-20840929D01*
X14272033Y-20831405D01*
X7128700Y-21189500D02*
X7328700Y-21389500D01*
X7328700Y-21189500D02*
X7128700Y-21389500D01*
X7299411Y-21360211D02*
X7299411Y-21218789D01*
X7157989Y-21218789D01*
X7157989Y-21360211D01*
X7299411Y-21360211D01*
X7567271Y-21179976D02*
X7691081Y-21179976D01*
X7624414Y-21256167D01*
X7652986Y-21256167D01*
X7672033Y-21265690D01*
X7681557Y-21275214D01*
X7691081Y-21294262D01*
X7691081Y-21341881D01*
X7681557Y-21360929D01*
X7672033Y-21370452D01*
X7652986Y-21379976D01*
X7595843Y-21379976D01*
X7576795Y-21370452D01*
X7567271Y-21360929D01*
X7776795Y-21360929D02*
X7786319Y-21370452D01*
X7776795Y-21379976D01*
X7767271Y-21370452D01*
X7776795Y-21360929D01*
X7776795Y-21379976D01*
X7881557Y-21379976D02*
X7919652Y-21379976D01*
X7938700Y-21370452D01*
X7948224Y-21360929D01*
X7967271Y-21332357D01*
X7976795Y-21294262D01*
X7976795Y-21218071D01*
X7967271Y-21199024D01*
X7957748Y-21189500D01*
X7938700Y-21179976D01*
X7900605Y-21179976D01*
X7881557Y-21189500D01*
X7872033Y-21199024D01*
X7862509Y-21218071D01*
X7862509Y-21265690D01*
X7872033Y-21284738D01*
X7881557Y-21294262D01*
X7900605Y-21303786D01*
X7938700Y-21303786D01*
X7957748Y-21294262D01*
X7967271Y-21284738D01*
X7976795Y-21265690D01*
X8091081Y-21265690D02*
X8072033Y-21256167D01*
X8062509Y-21246643D01*
X8052986Y-21227595D01*
X8052986Y-21218071D01*
X8062509Y-21199024D01*
X8072033Y-21189500D01*
X8091081Y-21179976D01*
X8129176Y-21179976D01*
X8148224Y-21189500D01*
X8157748Y-21199024D01*
X8167271Y-21218071D01*
X8167271Y-21227595D01*
X8157748Y-21246643D01*
X8148224Y-21256167D01*
X8129176Y-21265690D01*
X8091081Y-21265690D01*
X8072033Y-21275214D01*
X8062509Y-21284738D01*
X8052986Y-21303786D01*
X8052986Y-21341881D01*
X8062509Y-21360929D01*
X8072033Y-21370452D01*
X8091081Y-21379976D01*
X8129176Y-21379976D01*
X8148224Y-21370452D01*
X8157748Y-21360929D01*
X8167271Y-21341881D01*
X8167271Y-21303786D01*
X8157748Y-21284738D01*
X8148224Y-21275214D01*
X8129176Y-21265690D01*
X8281557Y-21265690D02*
X8262509Y-21256167D01*
X8252986Y-21246643D01*
X8243462Y-21227595D01*
X8243462Y-21218071D01*
X8252986Y-21199024D01*
X8262509Y-21189500D01*
X8281557Y-21179976D01*
X8319652Y-21179976D01*
X8338700Y-21189500D01*
X8348224Y-21199024D01*
X8357748Y-21218071D01*
X8357748Y-21227595D01*
X8348224Y-21246643D01*
X8338700Y-21256167D01*
X8319652Y-21265690D01*
X8281557Y-21265690D01*
X8262509Y-21275214D01*
X8252986Y-21284738D01*
X8243462Y-21303786D01*
X8243462Y-21341881D01*
X8252986Y-21360929D01*
X8262509Y-21370452D01*
X8281557Y-21379976D01*
X8319652Y-21379976D01*
X8338700Y-21370452D01*
X8348224Y-21360929D01*
X8357748Y-21341881D01*
X8357748Y-21303786D01*
X8348224Y-21284738D01*
X8338700Y-21275214D01*
X8319652Y-21265690D01*
X8443462Y-21379976D02*
X8443462Y-21246643D01*
X8443462Y-21265690D02*
X8452986Y-21256167D01*
X8472033Y-21246643D01*
X8500605Y-21246643D01*
X8519652Y-21256167D01*
X8529176Y-21275214D01*
X8529176Y-21379976D01*
X8529176Y-21275214D02*
X8538700Y-21256167D01*
X8557748Y-21246643D01*
X8586319Y-21246643D01*
X8605367Y-21256167D01*
X8614890Y-21275214D01*
X8614890Y-21379976D01*
X8710129Y-21379976D02*
X8710129Y-21246643D01*
X8710129Y-21265690D02*
X8719652Y-21256167D01*
X8738700Y-21246643D01*
X8767271Y-21246643D01*
X8786319Y-21256167D01*
X8795843Y-21275214D01*
X8795843Y-21379976D01*
X8795843Y-21275214D02*
X8805367Y-21256167D01*
X8824414Y-21246643D01*
X8852986Y-21246643D01*
X8872033Y-21256167D01*
X8881557Y-21275214D01*
X8881557Y-21379976D01*
X9272033Y-21170452D02*
X9100605Y-21427595D01*
X9529176Y-21179976D02*
X9548224Y-21179976D01*
X9567271Y-21189500D01*
X9576795Y-21199024D01*
X9586319Y-21218071D01*
X9595843Y-21256167D01*
X9595843Y-21303786D01*
X9586319Y-21341881D01*
X9576795Y-21360929D01*
X9567271Y-21370452D01*
X9548224Y-21379976D01*
X9529176Y-21379976D01*
X9510129Y-21370452D01*
X9500605Y-21360929D01*
X9491081Y-21341881D01*
X9481557Y-21303786D01*
X9481557Y-21256167D01*
X9491081Y-21218071D01*
X9500605Y-21199024D01*
X9510129Y-21189500D01*
X9529176Y-21179976D01*
X9681557Y-21360929D02*
X9691081Y-21370452D01*
X9681557Y-21379976D01*
X9672033Y-21370452D01*
X9681557Y-21360929D01*
X9681557Y-21379976D01*
X9881557Y-21379976D02*
X9767271Y-21379976D01*
X9824414Y-21379976D02*
X9824414Y-21179976D01*
X9805367Y-21208548D01*
X9786319Y-21227595D01*
X9767271Y-21237119D01*
X10062510Y-21179976D02*
X9967271Y-21179976D01*
X9957748Y-21275214D01*
X9967271Y-21265690D01*
X9986319Y-21256167D01*
X10033938Y-21256167D01*
X10052986Y-21265690D01*
X10062510Y-21275214D01*
X10072033Y-21294262D01*
X10072033Y-21341881D01*
X10062510Y-21360929D01*
X10052986Y-21370452D01*
X10033938Y-21379976D01*
X9986319Y-21379976D01*
X9967271Y-21370452D01*
X9957748Y-21360929D01*
X10138700Y-21179976D02*
X10272033Y-21179976D01*
X10186319Y-21379976D01*
X10386319Y-21179976D02*
X10405367Y-21179976D01*
X10424414Y-21189500D01*
X10433938Y-21199024D01*
X10443462Y-21218071D01*
X10452986Y-21256167D01*
X10452986Y-21303786D01*
X10443462Y-21341881D01*
X10433938Y-21360929D01*
X10424414Y-21370452D01*
X10405367Y-21379976D01*
X10386319Y-21379976D01*
X10367271Y-21370452D01*
X10357748Y-21360929D01*
X10348224Y-21341881D01*
X10338700Y-21303786D01*
X10338700Y-21256167D01*
X10348224Y-21218071D01*
X10357748Y-21199024D01*
X10367271Y-21189500D01*
X10386319Y-21179976D01*
X10529176Y-21179976D02*
X10529176Y-21218071D01*
X10605367Y-21179976D02*
X10605367Y-21218071D01*
X10900605Y-21456167D02*
X10891081Y-21446643D01*
X10872033Y-21418071D01*
X10862510Y-21399024D01*
X10852986Y-21370452D01*
X10843462Y-21322833D01*
X10843462Y-21284738D01*
X10852986Y-21237119D01*
X10862510Y-21208548D01*
X10872033Y-21189500D01*
X10891081Y-21160929D01*
X10900605Y-21151405D01*
X11081557Y-21379976D02*
X10967271Y-21379976D01*
X11024414Y-21379976D02*
X11024414Y-21179976D01*
X11005367Y-21208548D01*
X10986319Y-21227595D01*
X10967271Y-21237119D01*
X11195843Y-21265690D02*
X11176795Y-21256167D01*
X11167271Y-21246643D01*
X11157748Y-21227595D01*
X11157748Y-21218071D01*
X11167271Y-21199024D01*
X11176795Y-21189500D01*
X11195843Y-21179976D01*
X11233938Y-21179976D01*
X11252986Y-21189500D01*
X11262509Y-21199024D01*
X11272033Y-21218071D01*
X11272033Y-21227595D01*
X11262509Y-21246643D01*
X11252986Y-21256167D01*
X11233938Y-21265690D01*
X11195843Y-21265690D01*
X11176795Y-21275214D01*
X11167271Y-21284738D01*
X11157748Y-21303786D01*
X11157748Y-21341881D01*
X11167271Y-21360929D01*
X11176795Y-21370452D01*
X11195843Y-21379976D01*
X11233938Y-21379976D01*
X11252986Y-21370452D01*
X11262509Y-21360929D01*
X11272033Y-21341881D01*
X11272033Y-21303786D01*
X11262509Y-21284738D01*
X11252986Y-21275214D01*
X11233938Y-21265690D01*
X11510128Y-21379976D02*
X11510128Y-21179976D01*
X11595843Y-21379976D02*
X11595843Y-21275214D01*
X11586319Y-21256167D01*
X11567271Y-21246643D01*
X11538700Y-21246643D01*
X11519652Y-21256167D01*
X11510128Y-21265690D01*
X11719652Y-21379976D02*
X11700605Y-21370452D01*
X11691081Y-21360929D01*
X11681557Y-21341881D01*
X11681557Y-21284738D01*
X11691081Y-21265690D01*
X11700605Y-21256167D01*
X11719652Y-21246643D01*
X11748224Y-21246643D01*
X11767271Y-21256167D01*
X11776795Y-21265690D01*
X11786319Y-21284738D01*
X11786319Y-21341881D01*
X11776795Y-21360929D01*
X11767271Y-21370452D01*
X11748224Y-21379976D01*
X11719652Y-21379976D01*
X11900605Y-21379976D02*
X11881557Y-21370452D01*
X11872033Y-21351405D01*
X11872033Y-21179976D01*
X12052986Y-21370452D02*
X12033938Y-21379976D01*
X11995843Y-21379976D01*
X11976795Y-21370452D01*
X11967271Y-21351405D01*
X11967271Y-21275214D01*
X11976795Y-21256167D01*
X11995843Y-21246643D01*
X12033938Y-21246643D01*
X12052986Y-21256167D01*
X12062509Y-21275214D01*
X12062509Y-21294262D01*
X11967271Y-21313310D01*
X12138700Y-21370452D02*
X12157748Y-21379976D01*
X12195843Y-21379976D01*
X12214890Y-21370452D01*
X12224414Y-21351405D01*
X12224414Y-21341881D01*
X12214890Y-21322833D01*
X12195843Y-21313310D01*
X12167271Y-21313310D01*
X12148224Y-21303786D01*
X12138700Y-21284738D01*
X12138700Y-21275214D01*
X12148224Y-21256167D01*
X12167271Y-21246643D01*
X12195843Y-21246643D01*
X12214890Y-21256167D01*
X12291081Y-21456167D02*
X12300605Y-21446643D01*
X12319652Y-21418071D01*
X12329176Y-21399024D01*
X12338700Y-21370452D01*
X12348224Y-21322833D01*
X12348224Y-21284738D01*
X12338700Y-21237119D01*
X12329176Y-21208548D01*
X12319652Y-21189500D01*
X12300605Y-21160929D01*
X12291081Y-21151405D01*
X12652986Y-21456167D02*
X12643462Y-21446643D01*
X12624414Y-21418071D01*
X12614890Y-21399024D01*
X12605367Y-21370452D01*
X12595843Y-21322833D01*
X12595843Y-21284738D01*
X12605367Y-21237119D01*
X12614890Y-21208548D01*
X12624414Y-21189500D01*
X12643462Y-21160929D01*
X12652986Y-21151405D01*
X12729176Y-21246643D02*
X12729176Y-21379976D01*
X12729176Y-21265690D02*
X12738700Y-21256167D01*
X12757748Y-21246643D01*
X12786319Y-21246643D01*
X12805367Y-21256167D01*
X12814890Y-21275214D01*
X12814890Y-21379976D01*
X12938700Y-21379976D02*
X12919652Y-21370452D01*
X12910128Y-21360929D01*
X12900605Y-21341881D01*
X12900605Y-21284738D01*
X12910128Y-21265690D01*
X12919652Y-21256167D01*
X12938700Y-21246643D01*
X12967271Y-21246643D01*
X12986319Y-21256167D01*
X12995843Y-21265690D01*
X13005367Y-21284738D01*
X13005367Y-21341881D01*
X12995843Y-21360929D01*
X12986319Y-21370452D01*
X12967271Y-21379976D01*
X12938700Y-21379976D01*
X13062509Y-21246643D02*
X13138700Y-21246643D01*
X13091081Y-21179976D02*
X13091081Y-21351405D01*
X13100605Y-21370452D01*
X13119652Y-21379976D01*
X13138700Y-21379976D01*
X13357748Y-21246643D02*
X13357748Y-21446643D01*
X13357748Y-21256167D02*
X13376795Y-21246643D01*
X13414890Y-21246643D01*
X13433938Y-21256167D01*
X13443462Y-21265690D01*
X13452986Y-21284738D01*
X13452986Y-21341881D01*
X13443462Y-21360929D01*
X13433938Y-21370452D01*
X13414890Y-21379976D01*
X13376795Y-21379976D01*
X13357748Y-21370452D01*
X13567271Y-21379976D02*
X13548224Y-21370452D01*
X13538700Y-21351405D01*
X13538700Y-21179976D01*
X13729176Y-21379976D02*
X13729176Y-21275214D01*
X13719652Y-21256167D01*
X13700605Y-21246643D01*
X13662509Y-21246643D01*
X13643462Y-21256167D01*
X13729176Y-21370452D02*
X13710128Y-21379976D01*
X13662509Y-21379976D01*
X13643462Y-21370452D01*
X13633938Y-21351405D01*
X13633938Y-21332357D01*
X13643462Y-21313310D01*
X13662509Y-21303786D01*
X13710128Y-21303786D01*
X13729176Y-21294262D01*
X13795843Y-21246643D02*
X13872033Y-21246643D01*
X13824414Y-21179976D02*
X13824414Y-21351405D01*
X13833938Y-21370452D01*
X13852986Y-21379976D01*
X13872033Y-21379976D01*
X14014890Y-21370452D02*
X13995843Y-21379976D01*
X13957748Y-21379976D01*
X13938700Y-21370452D01*
X13929176Y-21351405D01*
X13929176Y-21275214D01*
X13938700Y-21256167D01*
X13957748Y-21246643D01*
X13995843Y-21246643D01*
X14014890Y-21256167D01*
X14024414Y-21275214D01*
X14024414Y-21294262D01*
X13929176Y-21313310D01*
X14195843Y-21379976D02*
X14195843Y-21179976D01*
X14195843Y-21370452D02*
X14176795Y-21379976D01*
X14138700Y-21379976D01*
X14119652Y-21370452D01*
X14110128Y-21360929D01*
X14100605Y-21341881D01*
X14100605Y-21284738D01*
X14110128Y-21265690D01*
X14119652Y-21256167D01*
X14138700Y-21246643D01*
X14176795Y-21246643D01*
X14195843Y-21256167D01*
X14272033Y-21456167D02*
X14281557Y-21446643D01*
X14300605Y-21418071D01*
X14310128Y-21399024D01*
X14319652Y-21370452D01*
X14329176Y-21322833D01*
X14329176Y-21284738D01*
X14319652Y-21237119D01*
X14310128Y-21208548D01*
X14300605Y-21189500D01*
X14281557Y-21160929D01*
X14272033Y-21151405D01*
X7128700Y-21509500D02*
X7328700Y-21709500D01*
X7328700Y-21509500D02*
X7128700Y-21709500D01*
X7228700Y-21709500D02*
X7328700Y-21609500D01*
X7228700Y-21509500D01*
X7128700Y-21609500D01*
X7228700Y-21709500D01*
X7672033Y-21566643D02*
X7672033Y-21699976D01*
X7624414Y-21490452D02*
X7576795Y-21633310D01*
X7700605Y-21633310D01*
X7776795Y-21680929D02*
X7786319Y-21690452D01*
X7776795Y-21699976D01*
X7767271Y-21690452D01*
X7776795Y-21680929D01*
X7776795Y-21699976D01*
X7910128Y-21499976D02*
X7929176Y-21499976D01*
X7948224Y-21509500D01*
X7957748Y-21519024D01*
X7967271Y-21538071D01*
X7976795Y-21576167D01*
X7976795Y-21623786D01*
X7967271Y-21661881D01*
X7957748Y-21680929D01*
X7948224Y-21690452D01*
X7929176Y-21699976D01*
X7910128Y-21699976D01*
X7891081Y-21690452D01*
X7881557Y-21680929D01*
X7872033Y-21661881D01*
X7862509Y-21623786D01*
X7862509Y-21576167D01*
X7872033Y-21538071D01*
X7881557Y-21519024D01*
X7891081Y-21509500D01*
X7910128Y-21499976D01*
X8100605Y-21499976D02*
X8119652Y-21499976D01*
X8138700Y-21509500D01*
X8148224Y-21519024D01*
X8157748Y-21538071D01*
X8167271Y-21576167D01*
X8167271Y-21623786D01*
X8157748Y-21661881D01*
X8148224Y-21680929D01*
X8138700Y-21690452D01*
X8119652Y-21699976D01*
X8100605Y-21699976D01*
X8081557Y-21690452D01*
X8072033Y-21680929D01*
X8062509Y-21661881D01*
X8052986Y-21623786D01*
X8052986Y-21576167D01*
X8062509Y-21538071D01*
X8072033Y-21519024D01*
X8081557Y-21509500D01*
X8100605Y-21499976D01*
X8291081Y-21499976D02*
X8310128Y-21499976D01*
X8329176Y-21509500D01*
X8338700Y-21519024D01*
X8348224Y-21538071D01*
X8357748Y-21576167D01*
X8357748Y-21623786D01*
X8348224Y-21661881D01*
X8338700Y-21680929D01*
X8329176Y-21690452D01*
X8310128Y-21699976D01*
X8291081Y-21699976D01*
X8272033Y-21690452D01*
X8262509Y-21680929D01*
X8252986Y-21661881D01*
X8243462Y-21623786D01*
X8243462Y-21576167D01*
X8252986Y-21538071D01*
X8262509Y-21519024D01*
X8272033Y-21509500D01*
X8291081Y-21499976D01*
X8443462Y-21699976D02*
X8443462Y-21566643D01*
X8443462Y-21585690D02*
X8452986Y-21576167D01*
X8472033Y-21566643D01*
X8500605Y-21566643D01*
X8519652Y-21576167D01*
X8529176Y-21595214D01*
X8529176Y-21699976D01*
X8529176Y-21595214D02*
X8538700Y-21576167D01*
X8557748Y-21566643D01*
X8586319Y-21566643D01*
X8605367Y-21576167D01*
X8614890Y-21595214D01*
X8614890Y-21699976D01*
X8710129Y-21699976D02*
X8710129Y-21566643D01*
X8710129Y-21585690D02*
X8719652Y-21576167D01*
X8738700Y-21566643D01*
X8767271Y-21566643D01*
X8786319Y-21576167D01*
X8795843Y-21595214D01*
X8795843Y-21699976D01*
X8795843Y-21595214D02*
X8805367Y-21576167D01*
X8824414Y-21566643D01*
X8852986Y-21566643D01*
X8872033Y-21576167D01*
X8881557Y-21595214D01*
X8881557Y-21699976D01*
X9272033Y-21490452D02*
X9100605Y-21747595D01*
X9529176Y-21499976D02*
X9548224Y-21499976D01*
X9567271Y-21509500D01*
X9576795Y-21519024D01*
X9586319Y-21538071D01*
X9595843Y-21576167D01*
X9595843Y-21623786D01*
X9586319Y-21661881D01*
X9576795Y-21680929D01*
X9567271Y-21690452D01*
X9548224Y-21699976D01*
X9529176Y-21699976D01*
X9510129Y-21690452D01*
X9500605Y-21680929D01*
X9491081Y-21661881D01*
X9481557Y-21623786D01*
X9481557Y-21576167D01*
X9491081Y-21538071D01*
X9500605Y-21519024D01*
X9510129Y-21509500D01*
X9529176Y-21499976D01*
X9681557Y-21680929D02*
X9691081Y-21690452D01*
X9681557Y-21699976D01*
X9672033Y-21690452D01*
X9681557Y-21680929D01*
X9681557Y-21699976D01*
X9881557Y-21699976D02*
X9767271Y-21699976D01*
X9824414Y-21699976D02*
X9824414Y-21499976D01*
X9805367Y-21528548D01*
X9786319Y-21547595D01*
X9767271Y-21557119D01*
X10062510Y-21499976D02*
X9967271Y-21499976D01*
X9957748Y-21595214D01*
X9967271Y-21585690D01*
X9986319Y-21576167D01*
X10033938Y-21576167D01*
X10052986Y-21585690D01*
X10062510Y-21595214D01*
X10072033Y-21614262D01*
X10072033Y-21661881D01*
X10062510Y-21680929D01*
X10052986Y-21690452D01*
X10033938Y-21699976D01*
X9986319Y-21699976D01*
X9967271Y-21690452D01*
X9957748Y-21680929D01*
X10138700Y-21499976D02*
X10272033Y-21499976D01*
X10186319Y-21699976D01*
X10443462Y-21499976D02*
X10348224Y-21499976D01*
X10338700Y-21595214D01*
X10348224Y-21585690D01*
X10367271Y-21576167D01*
X10414890Y-21576167D01*
X10433938Y-21585690D01*
X10443462Y-21595214D01*
X10452986Y-21614262D01*
X10452986Y-21661881D01*
X10443462Y-21680929D01*
X10433938Y-21690452D01*
X10414890Y-21699976D01*
X10367271Y-21699976D01*
X10348224Y-21690452D01*
X10338700Y-21680929D01*
X10529176Y-21499976D02*
X10529176Y-21538071D01*
X10605367Y-21499976D02*
X10605367Y-21538071D01*
X10900605Y-21776167D02*
X10891081Y-21766643D01*
X10872033Y-21738071D01*
X10862510Y-21719024D01*
X10852986Y-21690452D01*
X10843462Y-21642833D01*
X10843462Y-21604738D01*
X10852986Y-21557119D01*
X10862510Y-21528548D01*
X10872033Y-21509500D01*
X10891081Y-21480929D01*
X10900605Y-21471405D01*
X11005367Y-21585690D02*
X10986319Y-21576167D01*
X10976795Y-21566643D01*
X10967271Y-21547595D01*
X10967271Y-21538071D01*
X10976795Y-21519024D01*
X10986319Y-21509500D01*
X11005367Y-21499976D01*
X11043462Y-21499976D01*
X11062510Y-21509500D01*
X11072033Y-21519024D01*
X11081557Y-21538071D01*
X11081557Y-21547595D01*
X11072033Y-21566643D01*
X11062510Y-21576167D01*
X11043462Y-21585690D01*
X11005367Y-21585690D01*
X10986319Y-21595214D01*
X10976795Y-21604738D01*
X10967271Y-21623786D01*
X10967271Y-21661881D01*
X10976795Y-21680929D01*
X10986319Y-21690452D01*
X11005367Y-21699976D01*
X11043462Y-21699976D01*
X11062510Y-21690452D01*
X11072033Y-21680929D01*
X11081557Y-21661881D01*
X11081557Y-21623786D01*
X11072033Y-21604738D01*
X11062510Y-21595214D01*
X11043462Y-21585690D01*
X11205367Y-21499976D02*
X11224414Y-21499976D01*
X11243462Y-21509500D01*
X11252986Y-21519024D01*
X11262509Y-21538071D01*
X11272033Y-21576167D01*
X11272033Y-21623786D01*
X11262509Y-21661881D01*
X11252986Y-21680929D01*
X11243462Y-21690452D01*
X11224414Y-21699976D01*
X11205367Y-21699976D01*
X11186319Y-21690452D01*
X11176795Y-21680929D01*
X11167271Y-21661881D01*
X11157748Y-21623786D01*
X11157748Y-21576167D01*
X11167271Y-21538071D01*
X11176795Y-21519024D01*
X11186319Y-21509500D01*
X11205367Y-21499976D01*
X11510128Y-21699976D02*
X11510128Y-21499976D01*
X11595843Y-21699976D02*
X11595843Y-21595214D01*
X11586319Y-21576167D01*
X11567271Y-21566643D01*
X11538700Y-21566643D01*
X11519652Y-21576167D01*
X11510128Y-21585690D01*
X11719652Y-21699976D02*
X11700605Y-21690452D01*
X11691081Y-21680929D01*
X11681557Y-21661881D01*
X11681557Y-21604738D01*
X11691081Y-21585690D01*
X11700605Y-21576167D01*
X11719652Y-21566643D01*
X11748224Y-21566643D01*
X11767271Y-21576167D01*
X11776795Y-21585690D01*
X11786319Y-21604738D01*
X11786319Y-21661881D01*
X11776795Y-21680929D01*
X11767271Y-21690452D01*
X11748224Y-21699976D01*
X11719652Y-21699976D01*
X11900605Y-21699976D02*
X11881557Y-21690452D01*
X11872033Y-21671405D01*
X11872033Y-21499976D01*
X12052986Y-21690452D02*
X12033938Y-21699976D01*
X11995843Y-21699976D01*
X11976795Y-21690452D01*
X11967271Y-21671405D01*
X11967271Y-21595214D01*
X11976795Y-21576167D01*
X11995843Y-21566643D01*
X12033938Y-21566643D01*
X12052986Y-21576167D01*
X12062509Y-21595214D01*
X12062509Y-21614262D01*
X11967271Y-21633310D01*
X12138700Y-21690452D02*
X12157748Y-21699976D01*
X12195843Y-21699976D01*
X12214890Y-21690452D01*
X12224414Y-21671405D01*
X12224414Y-21661881D01*
X12214890Y-21642833D01*
X12195843Y-21633310D01*
X12167271Y-21633310D01*
X12148224Y-21623786D01*
X12138700Y-21604738D01*
X12138700Y-21595214D01*
X12148224Y-21576167D01*
X12167271Y-21566643D01*
X12195843Y-21566643D01*
X12214890Y-21576167D01*
X12291081Y-21776167D02*
X12300605Y-21766643D01*
X12319652Y-21738071D01*
X12329176Y-21719024D01*
X12338700Y-21690452D01*
X12348224Y-21642833D01*
X12348224Y-21604738D01*
X12338700Y-21557119D01*
X12329176Y-21528548D01*
X12319652Y-21509500D01*
X12300605Y-21480929D01*
X12291081Y-21471405D01*
X12652986Y-21776167D02*
X12643462Y-21766643D01*
X12624414Y-21738071D01*
X12614890Y-21719024D01*
X12605367Y-21690452D01*
X12595843Y-21642833D01*
X12595843Y-21604738D01*
X12605367Y-21557119D01*
X12614890Y-21528548D01*
X12624414Y-21509500D01*
X12643462Y-21480929D01*
X12652986Y-21471405D01*
X12729176Y-21566643D02*
X12729176Y-21699976D01*
X12729176Y-21585690D02*
X12738700Y-21576167D01*
X12757748Y-21566643D01*
X12786319Y-21566643D01*
X12805367Y-21576167D01*
X12814890Y-21595214D01*
X12814890Y-21699976D01*
X12938700Y-21699976D02*
X12919652Y-21690452D01*
X12910128Y-21680929D01*
X12900605Y-21661881D01*
X12900605Y-21604738D01*
X12910128Y-21585690D01*
X12919652Y-21576167D01*
X12938700Y-21566643D01*
X12967271Y-21566643D01*
X12986319Y-21576167D01*
X12995843Y-21585690D01*
X13005367Y-21604738D01*
X13005367Y-21661881D01*
X12995843Y-21680929D01*
X12986319Y-21690452D01*
X12967271Y-21699976D01*
X12938700Y-21699976D01*
X13062509Y-21566643D02*
X13138700Y-21566643D01*
X13091081Y-21499976D02*
X13091081Y-21671405D01*
X13100605Y-21690452D01*
X13119652Y-21699976D01*
X13138700Y-21699976D01*
X13357748Y-21566643D02*
X13357748Y-21766643D01*
X13357748Y-21576167D02*
X13376795Y-21566643D01*
X13414890Y-21566643D01*
X13433938Y-21576167D01*
X13443462Y-21585690D01*
X13452986Y-21604738D01*
X13452986Y-21661881D01*
X13443462Y-21680929D01*
X13433938Y-21690452D01*
X13414890Y-21699976D01*
X13376795Y-21699976D01*
X13357748Y-21690452D01*
X13567271Y-21699976D02*
X13548224Y-21690452D01*
X13538700Y-21671405D01*
X13538700Y-21499976D01*
X13729176Y-21699976D02*
X13729176Y-21595214D01*
X13719652Y-21576167D01*
X13700605Y-21566643D01*
X13662509Y-21566643D01*
X13643462Y-21576167D01*
X13729176Y-21690452D02*
X13710128Y-21699976D01*
X13662509Y-21699976D01*
X13643462Y-21690452D01*
X13633938Y-21671405D01*
X13633938Y-21652357D01*
X13643462Y-21633310D01*
X13662509Y-21623786D01*
X13710128Y-21623786D01*
X13729176Y-21614262D01*
X13795843Y-21566643D02*
X13872033Y-21566643D01*
X13824414Y-21499976D02*
X13824414Y-21671405D01*
X13833938Y-21690452D01*
X13852986Y-21699976D01*
X13872033Y-21699976D01*
X14014890Y-21690452D02*
X13995843Y-21699976D01*
X13957748Y-21699976D01*
X13938700Y-21690452D01*
X13929176Y-21671405D01*
X13929176Y-21595214D01*
X13938700Y-21576167D01*
X13957748Y-21566643D01*
X13995843Y-21566643D01*
X14014890Y-21576167D01*
X14024414Y-21595214D01*
X14024414Y-21614262D01*
X13929176Y-21633310D01*
X14195843Y-21699976D02*
X14195843Y-21499976D01*
X14195843Y-21690452D02*
X14176795Y-21699976D01*
X14138700Y-21699976D01*
X14119652Y-21690452D01*
X14110128Y-21680929D01*
X14100605Y-21661881D01*
X14100605Y-21604738D01*
X14110128Y-21585690D01*
X14119652Y-21576167D01*
X14138700Y-21566643D01*
X14176795Y-21566643D01*
X14195843Y-21576167D01*
X14272033Y-21776167D02*
X14281557Y-21766643D01*
X14300605Y-21738071D01*
X14310128Y-21719024D01*
X14319652Y-21690452D01*
X14329176Y-21642833D01*
X14329176Y-21604738D01*
X14319652Y-21557119D01*
X14310128Y-21528548D01*
X14300605Y-21509500D01*
X14281557Y-21480929D01*
X14272033Y-21471405D01*
M02*
