%TF.GenerationSoftware,KiCad,Pcbnew,(6.0.2)*%
%TF.CreationDate,2022-03-01T17:44:05+01:00*%
%TF.ProjectId,pcb-solder,7063622d-736f-46c6-9465-722e6b696361,1.0*%
%TF.SameCoordinates,Original*%
%TF.FileFunction,Profile,NP*%
%FSLAX46Y46*%
G04 Gerber Fmt 4.6, Leading zero omitted, Abs format (unit mm)*
G04 Created by KiCad (PCBNEW (6.0.2)) date 2022-03-01 17:44:05*
%MOMM*%
%LPD*%
G01*
G04 APERTURE LIST*
%TA.AperFunction,Profile*%
%ADD10C,0.250000*%
%TD*%
G04 APERTURE END LIST*
D10*
X74912000Y-151425000D02*
G75*
G03*
X73412000Y-152925000I1J-1500001D01*
G01*
X260537000Y-92900000D02*
X260537000Y-93600000D01*
X356412000Y-186400000D02*
G75*
G03*
X358412000Y-184400000I1J1999999D01*
G01*
X73412000Y-143925000D02*
G75*
G03*
X74912000Y-145425000I1500001J1D01*
G01*
X75412000Y-186400000D02*
X141790000Y-186400000D01*
X268037000Y-91400000D02*
G75*
G03*
X266537000Y-92900000I1J-1500001D01*
G01*
X356462000Y-144819000D02*
G75*
G03*
X356462000Y-150819000I0J-3000000D01*
G01*
X74912000Y-132375000D02*
G75*
G03*
X73412000Y-133875000I1J-1500001D01*
G01*
X150790000Y-186400000D02*
X258431000Y-186400000D01*
X75362000Y-132375000D02*
G75*
G03*
X75362000Y-126375000I0J3000000D01*
G01*
X358412000Y-115931000D02*
G75*
G03*
X356912000Y-114431000I-1500001J-1D01*
G01*
X74912000Y-132375000D02*
X75362000Y-132375000D01*
X356462000Y-108431000D02*
G75*
G03*
X356462000Y-114431000I0J-3000000D01*
G01*
X265931000Y-184900000D02*
X265931000Y-184200000D01*
X265931000Y-184200000D02*
G75*
G03*
X259931000Y-184200000I-3000000J0D01*
G01*
X74912000Y-145425000D02*
X75362000Y-145425000D01*
X75362000Y-151425000D02*
G75*
G03*
X75362000Y-145425000I0J3000000D01*
G01*
X73412000Y-124875000D02*
G75*
G03*
X74912000Y-126375000I1500001J1D01*
G01*
X259931000Y-184900000D02*
X259931000Y-184200000D01*
X265931000Y-184900000D02*
G75*
G03*
X267431000Y-186400000I1500001J1D01*
G01*
X356412000Y-91400000D02*
X268037000Y-91400000D01*
X258431000Y-186400000D02*
G75*
G03*
X259931000Y-184900000I-1J1500001D01*
G01*
X172787000Y-91400000D02*
G75*
G03*
X171287000Y-92900000I1J-1500001D01*
G01*
X141790000Y-186400000D02*
G75*
G03*
X143290000Y-184900000I-1J1500001D01*
G01*
X260537000Y-92900000D02*
G75*
G03*
X259037000Y-91400000I-1500001J-1D01*
G01*
X356912000Y-108431000D02*
G75*
G03*
X358412000Y-106931000I-1J1500001D01*
G01*
X356912000Y-114431000D02*
X356462000Y-114431000D01*
X165287000Y-92900000D02*
X165287000Y-93600000D01*
X149290000Y-184900000D02*
X149290000Y-184200000D01*
X358412000Y-184400000D02*
X358412000Y-152319000D01*
X74912000Y-151425000D02*
X75362000Y-151425000D01*
X73412000Y-133875000D02*
X73412000Y-143925000D01*
X143290000Y-184900000D02*
X143290000Y-184200000D01*
X358412000Y-152319000D02*
G75*
G03*
X356912000Y-150819000I-1500001J-1D01*
G01*
X356912000Y-150819000D02*
X356462000Y-150819000D01*
X73412000Y-93400000D02*
X73412000Y-124875000D01*
X267431000Y-186400000D02*
X356412000Y-186400000D01*
X165287000Y-93600000D02*
G75*
G03*
X171287000Y-93600000I3000000J0D01*
G01*
X356912000Y-144819000D02*
G75*
G03*
X358412000Y-143319000I-1J1500001D01*
G01*
X149290000Y-184900000D02*
G75*
G03*
X150790000Y-186400000I1500001J1D01*
G01*
X358412000Y-143319000D02*
X358412000Y-115931000D01*
X260537000Y-93600000D02*
G75*
G03*
X266537000Y-93600000I3000000J0D01*
G01*
X149290000Y-184200000D02*
G75*
G03*
X143290000Y-184200000I-3000000J0D01*
G01*
X266537000Y-92900000D02*
X266537000Y-93600000D01*
X171287000Y-92900000D02*
X171287000Y-93600000D01*
X163787000Y-91400000D02*
X75412000Y-91400000D01*
X356912000Y-108431000D02*
X356462000Y-108431000D01*
X75412000Y-91400000D02*
G75*
G03*
X73412000Y-93400000I-1J-1999999D01*
G01*
X259037000Y-91400000D02*
X172787000Y-91400000D01*
X356912000Y-144819000D02*
X356462000Y-144819000D01*
X165287000Y-92900000D02*
G75*
G03*
X163787000Y-91400000I-1500001J-1D01*
G01*
X358412000Y-93400000D02*
G75*
G03*
X356412000Y-91400000I-1999999J1D01*
G01*
X73412000Y-184400000D02*
G75*
G03*
X75412000Y-186400000I1999999J-1D01*
G01*
X73412000Y-152925000D02*
X73412000Y-184400000D01*
X74912000Y-126375000D02*
X75362000Y-126375000D01*
X358412000Y-106931000D02*
X358412000Y-93400000D01*
M02*
