%TF.GenerationSoftware,KiCad,Pcbnew,(6.0.9)*%
%TF.CreationDate,2022-12-14T23:04:18+01:00*%
%TF.ProjectId,pcb-solder,7063622d-736f-46c6-9465-722e6b696361,1.0*%
%TF.SameCoordinates,Original*%
%TF.FileFunction,Legend,Bot*%
%TF.FilePolarity,Positive*%
%FSLAX46Y46*%
G04 Gerber Fmt 4.6, Leading zero omitted, Abs format (unit mm)*
G04 Created by KiCad (PCBNEW (6.0.9)) date 2022-12-14 23:04:18*
%MOMM*%
%LPD*%
G01*
G04 APERTURE LIST*
G04 Aperture macros list*
%AMRoundRect*
0 Rectangle with rounded corners*
0 $1 Rounding radius*
0 $2 $3 $4 $5 $6 $7 $8 $9 X,Y pos of 4 corners*
0 Add a 4 corners polygon primitive as box body*
4,1,4,$2,$3,$4,$5,$6,$7,$8,$9,$2,$3,0*
0 Add four circle primitives for the rounded corners*
1,1,$1+$1,$2,$3*
1,1,$1+$1,$4,$5*
1,1,$1+$1,$6,$7*
1,1,$1+$1,$8,$9*
0 Add four rect primitives between the rounded corners*
20,1,$1+$1,$2,$3,$4,$5,0*
20,1,$1+$1,$4,$5,$6,$7,0*
20,1,$1+$1,$6,$7,$8,$9,0*
20,1,$1+$1,$8,$9,$2,$3,0*%
%AMRotRect*
0 Rectangle, with rotation*
0 The origin of the aperture is its center*
0 $1 length*
0 $2 width*
0 $3 Rotation angle, in degrees counterclockwise*
0 Add horizontal line*
21,1,$1,$2,0,0,$3*%
G04 Aperture macros list end*
%ADD10C,0.150000*%
%ADD11C,0.120000*%
%ADD12C,4.000000*%
%ADD13C,1.750000*%
%ADD14C,2.500000*%
%ADD15C,3.987800*%
%ADD16C,3.048000*%
%ADD17C,2.400000*%
%ADD18RoundRect,0.150000X0.150000X-0.587500X0.150000X0.587500X-0.150000X0.587500X-0.150000X-0.587500X0*%
%ADD19RoundRect,0.225000X0.225000X0.250000X-0.225000X0.250000X-0.225000X-0.250000X0.225000X-0.250000X0*%
%ADD20C,1.500000*%
%ADD21RoundRect,0.225000X-0.225000X-0.250000X0.225000X-0.250000X0.225000X0.250000X-0.225000X0.250000X0*%
%ADD22RoundRect,0.225000X-0.335876X-0.017678X-0.017678X-0.335876X0.335876X0.017678X0.017678X0.335876X0*%
%ADD23RoundRect,0.300000X0.070711X0.494975X-0.494975X-0.070711X-0.070711X-0.494975X0.494975X0.070711X0*%
%ADD24RoundRect,0.225000X-0.250000X0.225000X-0.250000X-0.225000X0.250000X-0.225000X0.250000X0.225000X0*%
%ADD25C,1.700000*%
%ADD26RoundRect,0.200000X-0.200000X-0.275000X0.200000X-0.275000X0.200000X0.275000X-0.200000X0.275000X0*%
%ADD27RoundRect,0.225000X0.335876X0.017678X0.017678X0.335876X-0.335876X-0.017678X-0.017678X-0.335876X0*%
%ADD28RoundRect,0.062500X0.291682X0.380070X-0.380070X-0.291682X-0.291682X-0.380070X0.380070X0.291682X0*%
%ADD29RoundRect,0.062500X-0.291682X0.380070X-0.380070X0.291682X0.291682X-0.380070X0.380070X-0.291682X0*%
%ADD30RotRect,5.200000X5.200000X225.000000*%
%ADD31R,1.200000X1.800000*%
%ADD32R,0.600000X1.550000*%
%ADD33R,1.000000X1.700000*%
%ADD34RoundRect,0.200000X0.275000X-0.200000X0.275000X0.200000X-0.275000X0.200000X-0.275000X-0.200000X0*%
G04 APERTURE END LIST*
D10*
X227076000Y-110051500D02*
X227810000Y-110051500D01*
X227810000Y-110051500D02*
X227810000Y-107628500D01*
X227810000Y-107628500D02*
X227076000Y-107628500D01*
X227076000Y-107628500D02*
X227076000Y-110051500D01*
G36*
X227076000Y-110051500D02*
G01*
X227810000Y-110051500D01*
X227810000Y-107628500D01*
X227076000Y-107628500D01*
X227076000Y-110051500D01*
G37*
D11*
%TO.C,D1*%
X92896250Y-94456250D02*
X92896250Y-95106250D01*
X96016250Y-94456250D02*
X96016250Y-93806250D01*
X92896250Y-94456250D02*
X92896250Y-93806250D01*
X96016250Y-94456250D02*
X96016250Y-96131250D01*
%TO.C,C8*%
X220175580Y-120958750D02*
X219894420Y-120958750D01*
X220175580Y-121978750D02*
X219894420Y-121978750D01*
%TO.C,PB0*%
X223920000Y-122196000D02*
G75*
G03*
X223920000Y-122196000I-950000J0D01*
G01*
%TO.C,D26*%
X250058750Y-151606250D02*
X250058750Y-152256250D01*
X253178750Y-151606250D02*
X253178750Y-153281250D01*
X253178750Y-151606250D02*
X253178750Y-150956250D01*
X250058750Y-151606250D02*
X250058750Y-150956250D01*
%TO.C,D6*%
X286516250Y-94456250D02*
X286516250Y-96131250D01*
X283396250Y-94456250D02*
X283396250Y-93806250D01*
X283396250Y-94456250D02*
X283396250Y-95106250D01*
X286516250Y-94456250D02*
X286516250Y-93806250D01*
%TO.C,D20*%
X300803750Y-132556250D02*
X300803750Y-134231250D01*
X300803750Y-132556250D02*
X300803750Y-131906250D01*
X297683750Y-132556250D02*
X297683750Y-131906250D01*
X297683750Y-132556250D02*
X297683750Y-133206250D01*
%TO.C,D11*%
X216721250Y-113506250D02*
X216721250Y-112856250D01*
X216721250Y-113506250D02*
X216721250Y-114156250D01*
X219841250Y-113506250D02*
X219841250Y-115181250D01*
X219841250Y-113506250D02*
X219841250Y-112856250D01*
%TO.C,D4*%
X207196250Y-94456250D02*
X207196250Y-93806250D01*
X210316250Y-94456250D02*
X210316250Y-93806250D01*
X210316250Y-94456250D02*
X210316250Y-96131250D01*
X207196250Y-94456250D02*
X207196250Y-95106250D01*
%TO.C,D7*%
X321496250Y-94456250D02*
X321496250Y-95106250D01*
X321496250Y-94456250D02*
X321496250Y-93806250D01*
X324616250Y-94456250D02*
X324616250Y-93806250D01*
X324616250Y-94456250D02*
X324616250Y-96131250D01*
%TO.C,D8*%
X105541250Y-113506250D02*
X105541250Y-115181250D01*
X102421250Y-113506250D02*
X102421250Y-112856250D01*
X102421250Y-113506250D02*
X102421250Y-114156250D01*
X105541250Y-113506250D02*
X105541250Y-112856250D01*
%TO.C,C2*%
X213824420Y-119258750D02*
X214105580Y-119258750D01*
X213824420Y-118238750D02*
X214105580Y-118238750D01*
%TO.C,D16*%
X145283750Y-132556250D02*
X145283750Y-133206250D01*
X148403750Y-132556250D02*
X148403750Y-134231250D01*
X148403750Y-132556250D02*
X148403750Y-131906250D01*
X145283750Y-132556250D02*
X145283750Y-131906250D01*
%TO.C,C6*%
X223634970Y-129219969D02*
X223833781Y-129418780D01*
X224356219Y-128498720D02*
X224555030Y-128697531D01*
%TO.C,D25*%
X215078750Y-151606250D02*
X215078750Y-153281250D01*
X211958750Y-151606250D02*
X211958750Y-150956250D01*
X215078750Y-151606250D02*
X215078750Y-150956250D01*
X211958750Y-151606250D02*
X211958750Y-152256250D01*
%TO.C,D5*%
X245296250Y-94456250D02*
X245296250Y-95106250D01*
X248416250Y-94456250D02*
X248416250Y-96131250D01*
X245296250Y-94456250D02*
X245296250Y-93806250D01*
X248416250Y-94456250D02*
X248416250Y-93806250D01*
%TO.C,D9*%
X140521250Y-113506250D02*
X140521250Y-114156250D01*
X143641250Y-113506250D02*
X143641250Y-112856250D01*
X140521250Y-113506250D02*
X140521250Y-112856250D01*
X143641250Y-113506250D02*
X143641250Y-115181250D01*
%TO.C,D2*%
X134116250Y-94456250D02*
X134116250Y-96131250D01*
X134116250Y-94456250D02*
X134116250Y-93806250D01*
X130996250Y-94456250D02*
X130996250Y-95106250D01*
X130996250Y-94456250D02*
X130996250Y-93806250D01*
%TO.C,PE6*%
X219998000Y-116662000D02*
G75*
G03*
X219998000Y-116662000I-950000J0D01*
G01*
%TO.C,C1*%
X209913000Y-109847420D02*
X209913000Y-110128580D01*
X210933000Y-109847420D02*
X210933000Y-110128580D01*
%TO.C,D24*%
X176978750Y-151606250D02*
X176978750Y-153281250D01*
X176978750Y-151606250D02*
X176978750Y-150956250D01*
X173858750Y-151606250D02*
X173858750Y-150956250D01*
X173858750Y-151606250D02*
X173858750Y-152256250D01*
%TO.C,D18*%
X224603750Y-135731250D02*
X224603750Y-135081250D01*
X221483750Y-135731250D02*
X221483750Y-135081250D01*
X221483750Y-135731250D02*
X221483750Y-136381250D01*
X224603750Y-135731250D02*
X224603750Y-137406250D01*
%TO.C,J1*%
X222275000Y-112438750D02*
X222275000Y-105158750D01*
X222275000Y-105158750D02*
X226145000Y-105158750D01*
X226145000Y-105158750D02*
X227015000Y-106048750D01*
X227015000Y-106048750D02*
X227015000Y-112438750D01*
X227015000Y-112438750D02*
X222275000Y-112438750D01*
%TO.C,D23*%
X138878750Y-151606250D02*
X138878750Y-153281250D01*
X135758750Y-151606250D02*
X135758750Y-152256250D01*
X135758750Y-151606250D02*
X135758750Y-150956250D01*
X138878750Y-151606250D02*
X138878750Y-150956250D01*
%TO.C,D32*%
X233400000Y-170670000D02*
X233400000Y-170020000D01*
X236520000Y-170670000D02*
X236520000Y-172345000D01*
X233400000Y-170670000D02*
X233400000Y-171320000D01*
X236520000Y-170670000D02*
X236520000Y-170020000D01*
%TO.C,D28*%
X340546250Y-154781250D02*
X340546250Y-154131250D01*
X343666250Y-154781250D02*
X343666250Y-154131250D01*
X343666250Y-154781250D02*
X343666250Y-156456250D01*
X340546250Y-154781250D02*
X340546250Y-155431250D01*
%TO.C,PF7*%
X206454000Y-125158000D02*
G75*
G03*
X206454000Y-125158000I-950000J0D01*
G01*
%TO.C,R2*%
X208291742Y-126438500D02*
X208766258Y-126438500D01*
X208291742Y-125393500D02*
X208766258Y-125393500D01*
%TO.C,C4*%
X208404420Y-124917000D02*
X208685580Y-124917000D01*
X208404420Y-123897000D02*
X208685580Y-123897000D01*
%TO.C,D34*%
X335783750Y-170656250D02*
X335783750Y-171306250D01*
X338903750Y-170656250D02*
X338903750Y-172331250D01*
X338903750Y-170656250D02*
X338903750Y-170006250D01*
X335783750Y-170656250D02*
X335783750Y-170006250D01*
%TO.C,C7*%
X220695030Y-132417531D02*
X220496219Y-132218720D01*
X219973781Y-133138780D02*
X219774970Y-132939969D01*
%TO.C,U1*%
X215900000Y-130517811D02*
X215387348Y-130005159D01*
X220492659Y-125925152D02*
X221005311Y-125412500D01*
X221005311Y-125412500D02*
X220492659Y-124899848D01*
X215387348Y-120819841D02*
X215900000Y-120307189D01*
X210794689Y-125412500D02*
X211307341Y-125925152D01*
X211307341Y-124899848D02*
X210794689Y-125412500D01*
X216412652Y-130005159D02*
X215900000Y-130517811D01*
D10*
%TO.C,J2*%
X208385000Y-106218750D02*
X204385000Y-106218750D01*
X203385000Y-108018750D02*
X203385000Y-110418750D01*
X208385000Y-110418750D02*
X209385000Y-110418750D01*
X209385000Y-110418750D02*
X209385000Y-108018750D01*
X203385000Y-110418750D02*
X204385000Y-110418750D01*
D11*
%TO.C,SW1*%
X245705000Y-105678750D02*
X246155000Y-106128750D01*
X241105000Y-109078750D02*
X240655000Y-108628750D01*
X245705000Y-109078750D02*
X246155000Y-108628750D01*
X241105000Y-105678750D02*
X240655000Y-106128750D01*
X246155000Y-108628750D02*
X246155000Y-106128750D01*
X244405000Y-110128750D02*
X242405000Y-110128750D01*
X240655000Y-108628750D02*
X240655000Y-106128750D01*
X244405000Y-104628750D02*
X242405000Y-104628750D01*
%TO.C,D30*%
X140521250Y-170656250D02*
X140521250Y-171306250D01*
X143641250Y-170656250D02*
X143641250Y-170006250D01*
X143641250Y-170656250D02*
X143641250Y-172331250D01*
X140521250Y-170656250D02*
X140521250Y-170006250D01*
%TO.C,D33*%
X288158750Y-170656250D02*
X288158750Y-171306250D01*
X291278750Y-170656250D02*
X291278750Y-172331250D01*
X291278750Y-170656250D02*
X291278750Y-170006250D01*
X288158750Y-170656250D02*
X288158750Y-170006250D01*
%TO.C,D13*%
X296041250Y-113506250D02*
X296041250Y-115181250D01*
X292921250Y-113506250D02*
X292921250Y-114156250D01*
X296041250Y-113506250D02*
X296041250Y-112856250D01*
X292921250Y-113506250D02*
X292921250Y-112856250D01*
%TO.C,D15*%
X107183750Y-132556250D02*
X107183750Y-133206250D01*
X110303750Y-132556250D02*
X110303750Y-131906250D01*
X107183750Y-132556250D02*
X107183750Y-131906250D01*
X110303750Y-132556250D02*
X110303750Y-134231250D01*
%TO.C,D12*%
X254821250Y-113506250D02*
X254821250Y-112856250D01*
X257941250Y-113506250D02*
X257941250Y-115181250D01*
X254821250Y-113506250D02*
X254821250Y-114156250D01*
X257941250Y-113506250D02*
X257941250Y-112856250D01*
%TO.C,D14*%
X331021250Y-113506250D02*
X331021250Y-112856250D01*
X334141250Y-113506250D02*
X334141250Y-115181250D01*
X331021250Y-113506250D02*
X331021250Y-114156250D01*
X334141250Y-113506250D02*
X334141250Y-112856250D01*
%TO.C,D21*%
X334935000Y-132556250D02*
X334935000Y-131906250D01*
X331815000Y-132556250D02*
X331815000Y-133206250D01*
X334935000Y-132556250D02*
X334935000Y-134231250D01*
X331815000Y-132556250D02*
X331815000Y-131906250D01*
%TO.C,D27*%
X288158750Y-151606250D02*
X288158750Y-152256250D01*
X291278750Y-151606250D02*
X291278750Y-153281250D01*
X291278750Y-151606250D02*
X291278750Y-150956250D01*
X288158750Y-151606250D02*
X288158750Y-150956250D01*
%TO.C,D22*%
X100040000Y-151606250D02*
X100040000Y-150956250D01*
X103160000Y-151606250D02*
X103160000Y-150956250D01*
X100040000Y-151606250D02*
X100040000Y-152256250D01*
X103160000Y-151606250D02*
X103160000Y-153281250D01*
%TO.C,C5*%
X212443420Y-130215000D02*
X212724580Y-130215000D01*
X212443420Y-131235000D02*
X212724580Y-131235000D01*
%TO.C,C3*%
X213835420Y-119628750D02*
X214116580Y-119628750D01*
X213835420Y-120648750D02*
X214116580Y-120648750D01*
%TO.C,D29*%
X100040000Y-170656250D02*
X100040000Y-171306250D01*
X103160000Y-170656250D02*
X103160000Y-170006250D01*
X100040000Y-170656250D02*
X100040000Y-170006250D01*
X103160000Y-170656250D02*
X103160000Y-172331250D01*
%TO.C,R1*%
X229404500Y-110722258D02*
X229404500Y-110247742D01*
X228359500Y-110722258D02*
X228359500Y-110247742D01*
%TO.C,D3*%
X172540000Y-94450000D02*
X172540000Y-93800000D01*
X175660000Y-94450000D02*
X175660000Y-96125000D01*
X175660000Y-94450000D02*
X175660000Y-93800000D01*
X172540000Y-94450000D02*
X172540000Y-95100000D01*
%TO.C,D19*%
X259583750Y-132556250D02*
X259583750Y-131906250D01*
X262703750Y-132556250D02*
X262703750Y-134231250D01*
X259583750Y-132556250D02*
X259583750Y-133206250D01*
X262703750Y-132556250D02*
X262703750Y-131906250D01*
%TO.C,D17*%
X183383750Y-132556250D02*
X183383750Y-131906250D01*
X183383750Y-132556250D02*
X183383750Y-133206250D01*
X186503750Y-132556250D02*
X186503750Y-131906250D01*
X186503750Y-132556250D02*
X186503750Y-134231250D01*
%TO.C,D10*%
X181741250Y-113506250D02*
X181741250Y-112856250D01*
X178621250Y-113506250D02*
X178621250Y-114156250D01*
X178621250Y-113506250D02*
X178621250Y-112856250D01*
X181741250Y-113506250D02*
X181741250Y-115181250D01*
%TO.C,D31*%
X195290000Y-170656250D02*
X195290000Y-170006250D01*
X198410000Y-170656250D02*
X198410000Y-172331250D01*
X198410000Y-170656250D02*
X198410000Y-170006250D01*
X195290000Y-170656250D02*
X195290000Y-171306250D01*
%TD*%
%LPC*%
D12*
%TO.C,MX8*%
X196850000Y-100806250D03*
D13*
X201930000Y-100806250D03*
X191770000Y-100806250D03*
D14*
X193040000Y-98266250D03*
X199390000Y-95726250D03*
%TD*%
D12*
%TO.C,MX23*%
X206375000Y-119856250D03*
D13*
X201295000Y-119856250D03*
X211455000Y-119856250D03*
D14*
X202565000Y-117316250D03*
X208915000Y-114776250D03*
%TD*%
D12*
%TO.C,MX49*%
X125412500Y-157956250D03*
D13*
X120332500Y-157956250D03*
X130492500Y-157956250D03*
D14*
X121602500Y-155416250D03*
X127952500Y-152876250D03*
%TD*%
D13*
%TO.C,MX40*%
X273367500Y-138906250D03*
D12*
X268287500Y-138906250D03*
D13*
X263207500Y-138906250D03*
D14*
X264477500Y-136366250D03*
X270827500Y-133826250D03*
%TD*%
D15*
%TO.C,REF\u002A\u002A*%
X253993750Y-168751250D03*
X153993750Y-168751250D03*
D16*
X153993750Y-183991250D03*
X253993750Y-183991250D03*
%TD*%
D13*
%TO.C,MX28*%
X306705000Y-119856250D03*
D12*
X301625000Y-119856250D03*
D13*
X296545000Y-119856250D03*
D14*
X297815000Y-117316250D03*
X304165000Y-114776250D03*
%TD*%
D12*
%TO.C,MX18*%
X111125000Y-119856250D03*
D13*
X106045000Y-119856250D03*
X116205000Y-119856250D03*
D14*
X107315000Y-117316250D03*
X113665000Y-114776250D03*
%TD*%
D17*
%TO.C,*%
X98032000Y-177004750D03*
%TD*%
%TO.C,*%
X115890000Y-157953750D03*
%TD*%
D12*
%TO.C,MX25*%
X244475000Y-119856250D03*
D13*
X249555000Y-119856250D03*
X239395000Y-119856250D03*
D14*
X240665000Y-117316250D03*
X247015000Y-114776250D03*
%TD*%
D13*
%TO.C,MX74*%
X198913750Y-177006250D03*
D12*
X203993750Y-177006250D03*
D13*
X209073750Y-177006250D03*
D14*
X200183750Y-174466250D03*
X206533750Y-171926250D03*
%TD*%
D13*
%TO.C,MX53*%
X206692500Y-157956250D03*
X196532500Y-157956250D03*
D12*
X201612500Y-157956250D03*
D14*
X197802500Y-155416250D03*
X204152500Y-152876250D03*
%TD*%
D12*
%TO.C,MX37*%
X211137500Y-138906250D03*
D13*
X216217500Y-138906250D03*
X206057500Y-138906250D03*
D14*
X207327500Y-136366250D03*
X213677500Y-133826250D03*
%TD*%
D12*
%TO.C,MX5*%
X139700000Y-100806250D03*
D13*
X134620000Y-100806250D03*
X144780000Y-100806250D03*
D14*
X135890000Y-98266250D03*
X142240000Y-95726250D03*
%TD*%
D15*
%TO.C,REF\u002A\u002A*%
X158750000Y-168751250D03*
D16*
X273050000Y-183991250D03*
D15*
X273050000Y-168751250D03*
D16*
X158750000Y-183991250D03*
%TD*%
D17*
%TO.C,*%
X309955000Y-158613750D03*
%TD*%
D13*
%TO.C,MX71*%
X304323750Y-177006250D03*
D12*
X299243750Y-177006250D03*
D13*
X294163750Y-177006250D03*
D14*
X295433750Y-174466250D03*
X301783750Y-171926250D03*
%TD*%
D16*
%TO.C,REF\u002A\u002A*%
X349281750Y-131921250D03*
D15*
X349281750Y-147161250D03*
X325405750Y-147161250D03*
D16*
X325405750Y-131921250D03*
%TD*%
D13*
%TO.C,MX16*%
X354330000Y-100806250D03*
X344170000Y-100806250D03*
D12*
X349250000Y-100806250D03*
D14*
X345440000Y-98266250D03*
X351790000Y-95726250D03*
%TD*%
D13*
%TO.C,MX15*%
X325120000Y-100806250D03*
D12*
X330200000Y-100806250D03*
D13*
X335280000Y-100806250D03*
D14*
X326390000Y-98266250D03*
X332740000Y-95726250D03*
%TD*%
D12*
%TO.C,MX4*%
X120650000Y-100806250D03*
D13*
X125730000Y-100806250D03*
X115570000Y-100806250D03*
D14*
X116840000Y-98266250D03*
X123190000Y-95726250D03*
%TD*%
D12*
%TO.C,MX24*%
X225425000Y-119856250D03*
D13*
X220345000Y-119856250D03*
X230505000Y-119856250D03*
D14*
X221615000Y-117316250D03*
X227965000Y-114776250D03*
%TD*%
D13*
%TO.C,MX60*%
X354330000Y-157956250D03*
D12*
X349250000Y-157956250D03*
D13*
X344170000Y-157956250D03*
D14*
X345440000Y-155416250D03*
X351790000Y-152876250D03*
%TD*%
D13*
%TO.C,MX73*%
X339407500Y-177006250D03*
D12*
X344487500Y-177006250D03*
D13*
X349567500Y-177006250D03*
D14*
X340677500Y-174466250D03*
X347027500Y-171926250D03*
%TD*%
D13*
%TO.C,MX14*%
X306070000Y-100806250D03*
X316230000Y-100806250D03*
D12*
X311150000Y-100806250D03*
D14*
X307340000Y-98266250D03*
X313690000Y-95726250D03*
%TD*%
D12*
%TO.C,MX75*%
X296862500Y-177006250D03*
D13*
X301942500Y-177006250D03*
X291782500Y-177006250D03*
D14*
X293052500Y-174466250D03*
X299402500Y-171926250D03*
%TD*%
D12*
%TO.C,MX10*%
X234950000Y-100806250D03*
D13*
X229870000Y-100806250D03*
X240030000Y-100806250D03*
D14*
X231140000Y-98266250D03*
X237490000Y-95726250D03*
%TD*%
D13*
%TO.C,MX77*%
X341788750Y-177006250D03*
X351948750Y-177006250D03*
D12*
X346868750Y-177006250D03*
D14*
X343058750Y-174466250D03*
X349408750Y-171926250D03*
%TD*%
D13*
%TO.C,MX54*%
X225742500Y-157956250D03*
X215582500Y-157956250D03*
D12*
X220662500Y-157956250D03*
D14*
X216852500Y-155416250D03*
X223202500Y-152876250D03*
%TD*%
D12*
%TO.C,MX26*%
X263525000Y-119856250D03*
D13*
X258445000Y-119856250D03*
X268605000Y-119856250D03*
D14*
X259715000Y-117316250D03*
X266065000Y-114776250D03*
%TD*%
D13*
%TO.C,MX59*%
X317976250Y-157956250D03*
D12*
X323056250Y-157956250D03*
D13*
X328136250Y-157956250D03*
D14*
X319246250Y-155416250D03*
X325596250Y-152876250D03*
%TD*%
D16*
%TO.C,REF\u002A\u002A*%
X82518250Y-150971250D03*
D15*
X82518250Y-166211250D03*
D16*
X106394250Y-150971250D03*
D15*
X106394250Y-166211250D03*
%TD*%
D12*
%TO.C,MX65*%
X134937500Y-177006250D03*
D13*
X129857500Y-177006250D03*
X140017500Y-177006250D03*
D14*
X131127500Y-174466250D03*
X137477500Y-171926250D03*
%TD*%
D12*
%TO.C,MX32*%
X115887500Y-138906250D03*
D13*
X110807500Y-138906250D03*
X120967500Y-138906250D03*
D14*
X112077500Y-136366250D03*
X118427500Y-133826250D03*
%TD*%
D13*
%TO.C,MX20*%
X154305000Y-119856250D03*
D12*
X149225000Y-119856250D03*
D13*
X144145000Y-119856250D03*
D14*
X145415000Y-117316250D03*
X151765000Y-114776250D03*
%TD*%
D13*
%TO.C,MX79*%
X103663750Y-177006250D03*
D12*
X108743750Y-177006250D03*
D13*
X113823750Y-177006250D03*
D14*
X104933750Y-174466250D03*
X111283750Y-171926250D03*
%TD*%
D13*
%TO.C,MX66*%
X137636250Y-177006250D03*
D12*
X132556250Y-177006250D03*
D13*
X127476250Y-177006250D03*
D14*
X128746250Y-174466250D03*
X135096250Y-171926250D03*
%TD*%
D13*
%TO.C,MX68*%
X216217500Y-177006250D03*
D12*
X211137500Y-177006250D03*
D13*
X206057500Y-177006250D03*
D14*
X207327500Y-174466250D03*
X213677500Y-171926250D03*
%TD*%
D13*
%TO.C,MX36*%
X197167500Y-138906250D03*
D12*
X192087500Y-138906250D03*
D13*
X187007500Y-138906250D03*
D14*
X188277500Y-136366250D03*
X194627500Y-133826250D03*
%TD*%
D13*
%TO.C,MX12*%
X278130000Y-100806250D03*
X267970000Y-100806250D03*
D12*
X273050000Y-100806250D03*
D14*
X269240000Y-98266250D03*
X275590000Y-95726250D03*
%TD*%
D13*
%TO.C,MX33*%
X140017500Y-138906250D03*
X129857500Y-138906250D03*
D12*
X134937500Y-138906250D03*
D14*
X131127500Y-136366250D03*
X137477500Y-133826250D03*
%TD*%
D13*
%TO.C,MX57*%
X272732500Y-157956250D03*
D12*
X277812500Y-157956250D03*
D13*
X282892500Y-157956250D03*
D14*
X274002500Y-155416250D03*
X280352500Y-152876250D03*
%TD*%
D13*
%TO.C,MX43*%
X320357500Y-138906250D03*
X330517500Y-138906250D03*
D12*
X325437500Y-138906250D03*
D14*
X321627500Y-136366250D03*
X327977500Y-133826250D03*
%TD*%
D13*
%TO.C,MX46*%
X99536250Y-157956250D03*
X89376250Y-157956250D03*
D12*
X94456250Y-157956250D03*
D14*
X90646250Y-155416250D03*
X96996250Y-152876250D03*
%TD*%
D16*
%TO.C,REF\u002A\u002A*%
X344519250Y-150971250D03*
D15*
X320643250Y-166211250D03*
D16*
X320643250Y-150971250D03*
D15*
X344519250Y-166211250D03*
%TD*%
D12*
%TO.C,MX7*%
X177800000Y-100806250D03*
D13*
X172720000Y-100806250D03*
X182880000Y-100806250D03*
D14*
X173990000Y-98266250D03*
X180340000Y-95726250D03*
%TD*%
D15*
%TO.C,REF\u002A\u002A*%
X187356750Y-168751250D03*
D16*
X187356750Y-183991250D03*
X163480750Y-183991250D03*
D15*
X163480750Y-168751250D03*
%TD*%
D13*
%TO.C,MX27*%
X277495000Y-119856250D03*
D12*
X282575000Y-119856250D03*
D13*
X287655000Y-119856250D03*
D14*
X278765000Y-117316250D03*
X285115000Y-114776250D03*
%TD*%
D12*
%TO.C,MX1*%
X339725000Y-100806250D03*
D13*
X344805000Y-100806250D03*
X334645000Y-100806250D03*
D14*
X335915000Y-98266250D03*
X342265000Y-95726250D03*
%TD*%
D13*
%TO.C,MX62*%
X92392500Y-177006250D03*
D12*
X87312500Y-177006250D03*
D13*
X82232500Y-177006250D03*
D14*
X83502500Y-174466250D03*
X89852500Y-171926250D03*
%TD*%
D13*
%TO.C,MX47*%
X79851250Y-157956250D03*
X90011250Y-157956250D03*
D12*
X84931250Y-157956250D03*
D14*
X81121250Y-155416250D03*
X87471250Y-152876250D03*
%TD*%
D13*
%TO.C,MX48*%
X111442500Y-157956250D03*
D12*
X106362500Y-157956250D03*
D13*
X101282500Y-157956250D03*
D14*
X102552500Y-155416250D03*
X108902500Y-152876250D03*
%TD*%
D12*
%TO.C,MX41*%
X287337500Y-138906250D03*
D13*
X292417500Y-138906250D03*
X282257500Y-138906250D03*
D14*
X283527500Y-136366250D03*
X289877500Y-133826250D03*
%TD*%
D13*
%TO.C,MX70*%
X270351250Y-177006250D03*
X280511250Y-177006250D03*
D12*
X275431250Y-177006250D03*
D14*
X271621250Y-174466250D03*
X277971250Y-171926250D03*
%TD*%
D13*
%TO.C,MX38*%
X225107500Y-138906250D03*
D12*
X230187500Y-138906250D03*
D13*
X235267500Y-138906250D03*
D14*
X226377500Y-136366250D03*
X232727500Y-133826250D03*
%TD*%
D12*
%TO.C,MX17*%
X87312500Y-119856250D03*
D13*
X82232500Y-119856250D03*
X92392500Y-119856250D03*
D14*
X83502500Y-117316250D03*
X89852500Y-114776250D03*
%TD*%
D13*
%TO.C,MX63*%
X79851250Y-177006250D03*
D12*
X84931250Y-177006250D03*
D13*
X90011250Y-177006250D03*
D14*
X81121250Y-174466250D03*
X87471250Y-171926250D03*
%TD*%
D12*
%TO.C,MX6*%
X158750000Y-100806250D03*
D13*
X163830000Y-100806250D03*
X153670000Y-100806250D03*
D14*
X154940000Y-98266250D03*
X161290000Y-95726250D03*
%TD*%
D13*
%TO.C,MX64*%
X106045000Y-177006250D03*
D12*
X111125000Y-177006250D03*
D13*
X116205000Y-177006250D03*
D14*
X107315000Y-174466250D03*
X113665000Y-171926250D03*
%TD*%
D13*
%TO.C,MX50*%
X139382500Y-157956250D03*
D12*
X144462500Y-157956250D03*
D13*
X149542500Y-157956250D03*
D14*
X140652500Y-155416250D03*
X147002500Y-152876250D03*
%TD*%
D17*
%TO.C,*%
X146275000Y-177000750D03*
%TD*%
D13*
%TO.C,MX9*%
X220980000Y-100806250D03*
X210820000Y-100806250D03*
D12*
X215900000Y-100806250D03*
D14*
X212090000Y-98266250D03*
X218440000Y-95726250D03*
%TD*%
D17*
%TO.C,*%
X76400000Y-119854750D03*
%TD*%
D13*
%TO.C,MX42*%
X311467500Y-138906250D03*
X301307500Y-138906250D03*
D12*
X306387500Y-138906250D03*
D14*
X302577500Y-136366250D03*
X308927500Y-133826250D03*
%TD*%
D13*
%TO.C,MX39*%
X254317500Y-138906250D03*
D12*
X249237500Y-138906250D03*
D13*
X244157500Y-138906250D03*
D14*
X245427500Y-136366250D03*
X251777500Y-133826250D03*
%TD*%
D12*
%TO.C,MX52*%
X182562500Y-157956250D03*
D13*
X177482500Y-157956250D03*
X187642500Y-157956250D03*
D14*
X178752500Y-155416250D03*
X185102500Y-152876250D03*
%TD*%
D12*
%TO.C,MX51*%
X163512500Y-157956250D03*
D13*
X158432500Y-157956250D03*
X168592500Y-157956250D03*
D14*
X159702500Y-155416250D03*
X166052500Y-152876250D03*
%TD*%
D15*
%TO.C,REF\u002A\u002A*%
X338613750Y-117443250D03*
D16*
X353853750Y-117443250D03*
X353853750Y-141319250D03*
D15*
X338613750Y-141319250D03*
%TD*%
D13*
%TO.C,MX30*%
X349567500Y-119856250D03*
D12*
X344487500Y-119856250D03*
D13*
X339407500Y-119856250D03*
D14*
X340677500Y-117316250D03*
X347027500Y-114776250D03*
%TD*%
D12*
%TO.C,MX76*%
X323056250Y-177006250D03*
D13*
X328136250Y-177006250D03*
X317976250Y-177006250D03*
D14*
X319246250Y-174466250D03*
X325596250Y-171926250D03*
%TD*%
D17*
%TO.C,*%
X262919000Y-176999750D03*
%TD*%
D13*
%TO.C,MX58*%
X291782500Y-157956250D03*
X301942500Y-157956250D03*
D12*
X296862500Y-157956250D03*
D14*
X293052500Y-155416250D03*
X299402500Y-152876250D03*
%TD*%
D13*
%TO.C,MX2*%
X77470000Y-100806250D03*
D12*
X82550000Y-100806250D03*
D13*
X87630000Y-100806250D03*
D14*
X78740000Y-98266250D03*
X85090000Y-95726250D03*
%TD*%
D13*
%TO.C,MX35*%
X178117500Y-138906250D03*
X167957500Y-138906250D03*
D12*
X173037500Y-138906250D03*
D14*
X169227500Y-136366250D03*
X175577500Y-133826250D03*
%TD*%
D13*
%TO.C,MX3*%
X106680000Y-100806250D03*
X96520000Y-100806250D03*
D12*
X101600000Y-100806250D03*
D14*
X97790000Y-98266250D03*
X104140000Y-95726250D03*
%TD*%
D13*
%TO.C,MX67*%
X170338750Y-177006250D03*
D12*
X175418750Y-177006250D03*
D13*
X180498750Y-177006250D03*
D14*
X171608750Y-174466250D03*
X177958750Y-171926250D03*
%TD*%
D13*
%TO.C,MX45*%
X346868750Y-134461250D03*
D12*
X346868750Y-129381250D03*
D13*
X346868750Y-124301250D03*
D14*
X349408750Y-125571250D03*
X351948750Y-131921250D03*
%TD*%
D13*
%TO.C,MX61*%
X327501250Y-157956250D03*
X337661250Y-157956250D03*
D12*
X332581250Y-157956250D03*
D14*
X328771250Y-155416250D03*
X335121250Y-152876250D03*
%TD*%
D12*
%TO.C,MX34*%
X153987500Y-138906250D03*
D13*
X159067500Y-138906250D03*
X148907500Y-138906250D03*
D14*
X150177500Y-136366250D03*
X156527500Y-133826250D03*
%TD*%
D17*
%TO.C,*%
X177772000Y-120787750D03*
%TD*%
D13*
%TO.C,MX56*%
X253682500Y-157956250D03*
X263842500Y-157956250D03*
D12*
X258762500Y-157956250D03*
D14*
X254952500Y-155416250D03*
X261302500Y-152876250D03*
%TD*%
D13*
%TO.C,MX19*%
X135255000Y-119856250D03*
X125095000Y-119856250D03*
D12*
X130175000Y-119856250D03*
D14*
X126365000Y-117316250D03*
X132715000Y-114776250D03*
%TD*%
D13*
%TO.C,MX78*%
X220980000Y-177006250D03*
X210820000Y-177006250D03*
D12*
X215900000Y-177006250D03*
D14*
X212090000Y-174466250D03*
X218440000Y-171926250D03*
%TD*%
D15*
%TO.C,REF\u002A\u002A*%
X254031750Y-168751250D03*
D16*
X254031750Y-183991250D03*
X230155750Y-183991250D03*
D15*
X230155750Y-168751250D03*
%TD*%
D13*
%TO.C,MX80*%
X90011250Y-138906250D03*
D12*
X84931250Y-138906250D03*
D13*
X79851250Y-138906250D03*
D14*
X81121250Y-136366250D03*
X87471250Y-133826250D03*
%TD*%
D13*
%TO.C,MX29*%
X315595000Y-119856250D03*
D12*
X320675000Y-119856250D03*
D13*
X325755000Y-119856250D03*
D14*
X316865000Y-117316250D03*
X323215000Y-114776250D03*
%TD*%
D13*
%TO.C,MX55*%
X244792500Y-157956250D03*
X234632500Y-157956250D03*
D12*
X239712500Y-157956250D03*
D14*
X235902500Y-155416250D03*
X242252500Y-152876250D03*
%TD*%
D13*
%TO.C,MX11*%
X248920000Y-100806250D03*
D12*
X254000000Y-100806250D03*
D13*
X259080000Y-100806250D03*
D14*
X250190000Y-98266250D03*
X256540000Y-95726250D03*
%TD*%
D13*
%TO.C,MX69*%
X237013750Y-177006250D03*
X247173750Y-177006250D03*
D12*
X242093750Y-177006250D03*
D14*
X238283750Y-174466250D03*
X244633750Y-171926250D03*
%TD*%
D17*
%TO.C,*%
X333770000Y-177000750D03*
%TD*%
%TO.C,*%
X254007000Y-120771750D03*
%TD*%
D13*
%TO.C,MX72*%
X325755000Y-177006250D03*
D12*
X320675000Y-177006250D03*
D13*
X315595000Y-177006250D03*
D14*
X316865000Y-174466250D03*
X323215000Y-171926250D03*
%TD*%
D12*
%TO.C,MX22*%
X187325000Y-119856250D03*
D13*
X182245000Y-119856250D03*
X192405000Y-119856250D03*
D14*
X183515000Y-117316250D03*
X189865000Y-114776250D03*
%TD*%
D13*
%TO.C,MX21*%
X173355000Y-119856250D03*
X163195000Y-119856250D03*
D12*
X168275000Y-119856250D03*
D14*
X164465000Y-117316250D03*
X170815000Y-114776250D03*
%TD*%
D16*
%TO.C,REF\u002A\u002A*%
X327787000Y-93821250D03*
D15*
X351663000Y-109061250D03*
D16*
X351663000Y-93821250D03*
D15*
X327787000Y-109061250D03*
%TD*%
D13*
%TO.C,MX44*%
X332263750Y-138906250D03*
D12*
X337343750Y-138906250D03*
D13*
X342423750Y-138906250D03*
D14*
X333533750Y-136366250D03*
X339883750Y-133826250D03*
%TD*%
D17*
%TO.C,*%
X332580000Y-119849750D03*
%TD*%
D13*
%TO.C,MX13*%
X287020000Y-100806250D03*
X297180000Y-100806250D03*
D12*
X292100000Y-100806250D03*
D14*
X288290000Y-98266250D03*
X294640000Y-95726250D03*
%TD*%
D13*
%TO.C,MX31*%
X94773750Y-138906250D03*
D12*
X89693750Y-138906250D03*
D13*
X84613750Y-138906250D03*
D14*
X85883750Y-136366250D03*
X92233750Y-133826250D03*
%TD*%
D18*
%TO.C,D1*%
X95406250Y-95393750D03*
X93506250Y-95393750D03*
X94456250Y-93518750D03*
%TD*%
D19*
%TO.C,C8*%
X220810000Y-121468750D03*
X219260000Y-121468750D03*
%TD*%
D20*
%TO.C,PB0*%
X222970000Y-122196000D03*
%TD*%
D18*
%TO.C,D26*%
X252568750Y-152543750D03*
X250668750Y-152543750D03*
X251618750Y-150668750D03*
%TD*%
%TO.C,D6*%
X285906250Y-95393750D03*
X284006250Y-95393750D03*
X284956250Y-93518750D03*
%TD*%
%TO.C,D20*%
X300193750Y-133493750D03*
X298293750Y-133493750D03*
X299243750Y-131618750D03*
%TD*%
%TO.C,D11*%
X219231250Y-114443750D03*
X217331250Y-114443750D03*
X218281250Y-112568750D03*
%TD*%
%TO.C,D4*%
X209706250Y-95393750D03*
X207806250Y-95393750D03*
X208756250Y-93518750D03*
%TD*%
%TO.C,D7*%
X324006250Y-95393750D03*
X322106250Y-95393750D03*
X323056250Y-93518750D03*
%TD*%
%TO.C,D8*%
X104931250Y-114443750D03*
X103031250Y-114443750D03*
X103981250Y-112568750D03*
%TD*%
D21*
%TO.C,C2*%
X213190000Y-118748750D03*
X214740000Y-118748750D03*
%TD*%
D18*
%TO.C,D16*%
X147793750Y-133493750D03*
X145893750Y-133493750D03*
X146843750Y-131618750D03*
%TD*%
D22*
%TO.C,C6*%
X223546992Y-128410742D03*
X224643008Y-129506758D03*
%TD*%
D18*
%TO.C,D25*%
X214468750Y-152543750D03*
X212568750Y-152543750D03*
X213518750Y-150668750D03*
%TD*%
%TO.C,D5*%
X247806250Y-95393750D03*
X245906250Y-95393750D03*
X246856250Y-93518750D03*
%TD*%
%TO.C,D9*%
X143031250Y-114443750D03*
X141131250Y-114443750D03*
X142081250Y-112568750D03*
%TD*%
D23*
%TO.C,Y1*%
X223528858Y-130641973D03*
X221973223Y-132197608D03*
X220771142Y-130995527D03*
X222326777Y-129439892D03*
%TD*%
D18*
%TO.C,D2*%
X133506250Y-95393750D03*
X131606250Y-95393750D03*
X132556250Y-93518750D03*
%TD*%
D20*
%TO.C,PE6*%
X219048000Y-116662000D03*
%TD*%
D24*
%TO.C,C1*%
X210423000Y-109213000D03*
X210423000Y-110763000D03*
%TD*%
D18*
%TO.C,D24*%
X176368750Y-152543750D03*
X174468750Y-152543750D03*
X175418750Y-150668750D03*
%TD*%
%TO.C,D18*%
X223993750Y-136668750D03*
X222093750Y-136668750D03*
X223043750Y-134793750D03*
%TD*%
D25*
%TO.C,J1*%
X225915000Y-106258750D03*
X223375000Y-106258750D03*
X225915000Y-108798750D03*
X223375000Y-108798750D03*
X225915000Y-111338750D03*
X223375000Y-111338750D03*
%TD*%
D18*
%TO.C,D23*%
X138268750Y-152543750D03*
X136368750Y-152543750D03*
X137318750Y-150668750D03*
%TD*%
%TO.C,D32*%
X235910000Y-171607500D03*
X234010000Y-171607500D03*
X234960000Y-169732500D03*
%TD*%
%TO.C,D28*%
X343056250Y-155718750D03*
X341156250Y-155718750D03*
X342106250Y-153843750D03*
%TD*%
D20*
%TO.C,PF7*%
X205504000Y-125158000D03*
%TD*%
D26*
%TO.C,R2*%
X207704000Y-125916000D03*
X209354000Y-125916000D03*
%TD*%
D21*
%TO.C,C4*%
X207770000Y-124407000D03*
X209320000Y-124407000D03*
%TD*%
D18*
%TO.C,D34*%
X338293750Y-171593750D03*
X336393750Y-171593750D03*
X337343750Y-169718750D03*
%TD*%
D27*
%TO.C,C7*%
X220783008Y-133226758D03*
X219686992Y-132130742D03*
%TD*%
D28*
%TO.C,U1*%
X216492202Y-121284764D03*
X216845755Y-121638318D03*
X217199309Y-121991871D03*
X217552862Y-122345424D03*
X217906415Y-122698978D03*
X218259969Y-123052531D03*
X218613522Y-123406085D03*
X218967076Y-123759638D03*
X219320629Y-124113191D03*
X219674182Y-124466745D03*
X220027736Y-124820298D03*
D29*
X220027736Y-126004702D03*
X219674182Y-126358255D03*
X219320629Y-126711809D03*
X218967076Y-127065362D03*
X218613522Y-127418915D03*
X218259969Y-127772469D03*
X217906415Y-128126022D03*
X217552862Y-128479576D03*
X217199309Y-128833129D03*
X216845755Y-129186682D03*
X216492202Y-129540236D03*
D28*
X215307798Y-129540236D03*
X214954245Y-129186682D03*
X214600691Y-128833129D03*
X214247138Y-128479576D03*
X213893585Y-128126022D03*
X213540031Y-127772469D03*
X213186478Y-127418915D03*
X212832924Y-127065362D03*
X212479371Y-126711809D03*
X212125818Y-126358255D03*
X211772264Y-126004702D03*
D29*
X211772264Y-124820298D03*
X212125818Y-124466745D03*
X212479371Y-124113191D03*
X212832924Y-123759638D03*
X213186478Y-123406085D03*
X213540031Y-123052531D03*
X213893585Y-122698978D03*
X214247138Y-122345424D03*
X214600691Y-121991871D03*
X214954245Y-121638318D03*
X215307798Y-121284764D03*
D30*
X215900000Y-125412500D03*
%TD*%
D31*
%TO.C,J2*%
X209185000Y-106918750D03*
X203585000Y-106918750D03*
D32*
X204885000Y-110793750D03*
X205885000Y-110793750D03*
X206885000Y-110793750D03*
X207885000Y-110793750D03*
%TD*%
D33*
%TO.C,SW1*%
X245305000Y-110528750D03*
X245305000Y-104228750D03*
X241505000Y-110528750D03*
X241505000Y-104228750D03*
%TD*%
D18*
%TO.C,D30*%
X143031250Y-171593750D03*
X141131250Y-171593750D03*
X142081250Y-169718750D03*
%TD*%
%TO.C,D33*%
X290668750Y-171593750D03*
X288768750Y-171593750D03*
X289718750Y-169718750D03*
%TD*%
%TO.C,D13*%
X295431250Y-114443750D03*
X293531250Y-114443750D03*
X294481250Y-112568750D03*
%TD*%
%TO.C,D15*%
X109693750Y-133493750D03*
X107793750Y-133493750D03*
X108743750Y-131618750D03*
%TD*%
%TO.C,D12*%
X257331250Y-114443750D03*
X255431250Y-114443750D03*
X256381250Y-112568750D03*
%TD*%
%TO.C,D14*%
X333531250Y-114443750D03*
X331631250Y-114443750D03*
X332581250Y-112568750D03*
%TD*%
%TO.C,D21*%
X334325000Y-133493750D03*
X332425000Y-133493750D03*
X333375000Y-131618750D03*
%TD*%
%TO.C,D27*%
X290668750Y-152543750D03*
X288768750Y-152543750D03*
X289718750Y-150668750D03*
%TD*%
%TO.C,D22*%
X102550000Y-152543750D03*
X100650000Y-152543750D03*
X101600000Y-150668750D03*
%TD*%
D21*
%TO.C,C5*%
X211809000Y-130725000D03*
X213359000Y-130725000D03*
%TD*%
%TO.C,C3*%
X213201000Y-120138750D03*
X214751000Y-120138750D03*
%TD*%
D18*
%TO.C,D29*%
X102550000Y-171593750D03*
X100650000Y-171593750D03*
X101600000Y-169718750D03*
%TD*%
D34*
%TO.C,R1*%
X228882000Y-111310000D03*
X228882000Y-109660000D03*
%TD*%
D18*
%TO.C,D3*%
X175050000Y-95387500D03*
X173150000Y-95387500D03*
X174100000Y-93512500D03*
%TD*%
%TO.C,D19*%
X262093750Y-133493750D03*
X260193750Y-133493750D03*
X261143750Y-131618750D03*
%TD*%
%TO.C,D17*%
X185893750Y-133493750D03*
X183993750Y-133493750D03*
X184943750Y-131618750D03*
%TD*%
%TO.C,D10*%
X181131250Y-114443750D03*
X179231250Y-114443750D03*
X180181250Y-112568750D03*
%TD*%
%TO.C,D31*%
X197800000Y-171593750D03*
X195900000Y-171593750D03*
X196850000Y-169718750D03*
%TD*%
M02*
