%TF.GenerationSoftware,KiCad,Pcbnew,7.0.1*%
%TF.CreationDate,2023-04-25T19:56:54+02:00*%
%TF.ProjectId,pcb-solder,7063622d-736f-46c6-9465-722e6b696361,1.0*%
%TF.SameCoordinates,Original*%
%TF.FileFunction,Profile,NP*%
%FSLAX46Y46*%
G04 Gerber Fmt 4.6, Leading zero omitted, Abs format (unit mm)*
G04 Created by KiCad (PCBNEW 7.0.1) date 2023-04-25 19:56:54*
%MOMM*%
%LPD*%
G01*
G04 APERTURE LIST*
%TA.AperFunction,Profile*%
%ADD10C,0.250000*%
%TD*%
G04 APERTURE END LIST*
D10*
X74912000Y-151725000D02*
G75*
G03*
X73412000Y-153225000I0J-1500000D01*
G01*
X356412000Y-186400000D02*
G75*
G03*
X358412000Y-184400000I0J2000000D01*
G01*
X73412000Y-143625000D02*
G75*
G03*
X74912000Y-145125000I1500000J0D01*
G01*
X75412000Y-186400000D02*
X141490000Y-186400000D01*
X268337000Y-91400000D02*
G75*
G03*
X266837000Y-92900000I0J-1500000D01*
G01*
X356912000Y-144519000D02*
G75*
G03*
X356912000Y-151119000I0J-3300000D01*
G01*
X74912000Y-132675000D02*
G75*
G03*
X73412000Y-134175000I0J-1500000D01*
G01*
X151090000Y-186400000D02*
X258131000Y-186400000D01*
X74912000Y-132675000D02*
G75*
G03*
X74912000Y-126075000I0J3300000D01*
G01*
X358412000Y-116231000D02*
G75*
G03*
X356912000Y-114731000I-1500000J0D01*
G01*
X356912000Y-108131000D02*
G75*
G03*
X356912000Y-114731000I0J-3300000D01*
G01*
X266231000Y-184900000D02*
G75*
G03*
X259631000Y-184900000I-3300000J0D01*
G01*
X74912000Y-151725000D02*
G75*
G03*
X74912000Y-145125000I0J3300000D01*
G01*
X73412000Y-124575000D02*
G75*
G03*
X74912000Y-126075000I1500000J0D01*
G01*
X266231000Y-184900000D02*
G75*
G03*
X267731000Y-186400000I1500000J0D01*
G01*
X356412000Y-91400000D02*
X268337000Y-91400000D01*
X258131000Y-186400000D02*
G75*
G03*
X259631000Y-184900000I0J1500000D01*
G01*
X173087000Y-91400000D02*
G75*
G03*
X171587000Y-92900000I0J-1500000D01*
G01*
X141490000Y-186400000D02*
G75*
G03*
X142990000Y-184900000I0J1500000D01*
G01*
X260237000Y-92900000D02*
G75*
G03*
X258737000Y-91400000I-1500000J0D01*
G01*
X356912000Y-108131000D02*
G75*
G03*
X358412000Y-106631000I0J1500000D01*
G01*
X358412000Y-184400000D02*
X358412000Y-152619000D01*
X73412000Y-134175000D02*
X73412000Y-143625000D01*
X358412000Y-152619000D02*
G75*
G03*
X356912000Y-151119000I-1500000J0D01*
G01*
X73412000Y-93400000D02*
X73412000Y-124575000D01*
X267731000Y-186400000D02*
X356412000Y-186400000D01*
X164987000Y-92900000D02*
G75*
G03*
X171587000Y-92900000I3300000J0D01*
G01*
X356912000Y-144519000D02*
G75*
G03*
X358412000Y-143019000I0J1500000D01*
G01*
X149590000Y-184900000D02*
G75*
G03*
X151090000Y-186400000I1500000J0D01*
G01*
X358412000Y-143019000D02*
X358412000Y-116231000D01*
X260237000Y-92900000D02*
G75*
G03*
X266837000Y-92900000I3300000J0D01*
G01*
X149590000Y-184900000D02*
G75*
G03*
X142990000Y-184900000I-3300000J0D01*
G01*
X163487000Y-91400000D02*
X75412000Y-91400000D01*
X75412000Y-91400000D02*
G75*
G03*
X73412000Y-93400000I0J-2000000D01*
G01*
X258737000Y-91400000D02*
X173087000Y-91400000D01*
X164987000Y-92900000D02*
G75*
G03*
X163487000Y-91400000I-1500000J0D01*
G01*
X358412000Y-93400000D02*
G75*
G03*
X356412000Y-91400000I-2000000J0D01*
G01*
X73412000Y-184400000D02*
G75*
G03*
X75412000Y-186400000I2000000J0D01*
G01*
X73412000Y-153225000D02*
X73412000Y-184400000D01*
X358412000Y-106631000D02*
X358412000Y-93400000D01*
M02*
