%TF.GenerationSoftware,KiCad,Pcbnew,(5.99.0-12192-g74b8f14ec3)*%
%TF.CreationDate,2021-09-19T19:10:20+02:00*%
%TF.ProjectId,pcb-solder,7063622d-736f-46c6-9465-722e6b696361,1.0*%
%TF.SameCoordinates,Original*%
%TF.FileFunction,Legend,Top*%
%TF.FilePolarity,Positive*%
%FSLAX46Y46*%
G04 Gerber Fmt 4.6, Leading zero omitted, Abs format (unit mm)*
G04 Created by KiCad (PCBNEW (5.99.0-12192-g74b8f14ec3)) date 2021-09-19 19:10:20*
%MOMM*%
%LPD*%
G01*
G04 APERTURE LIST*
%ADD10C,0.150000*%
%ADD11C,0.100000*%
%ADD12C,0.400000*%
%ADD13C,4.000000*%
%ADD14C,1.750000*%
%ADD15C,2.500000*%
%ADD16C,3.987800*%
%ADD17C,3.048000*%
%ADD18C,2.400000*%
%ADD19C,1.700000*%
G04 APERTURE END LIST*
D10*
%TO.C,*%
%TD*%
%LPC*%
D11*
X232790095Y-179131190D02*
X232790095Y-178631190D01*
X232980571Y-178631190D01*
X233028190Y-178655000D01*
X233052000Y-178678809D01*
X233075809Y-178726428D01*
X233075809Y-178797857D01*
X233052000Y-178845476D01*
X233028190Y-178869285D01*
X232980571Y-178893095D01*
X232790095Y-178893095D01*
X233575809Y-179083571D02*
X233552000Y-179107380D01*
X233480571Y-179131190D01*
X233432952Y-179131190D01*
X233361523Y-179107380D01*
X233313904Y-179059761D01*
X233290095Y-179012142D01*
X233266285Y-178916904D01*
X233266285Y-178845476D01*
X233290095Y-178750238D01*
X233313904Y-178702619D01*
X233361523Y-178655000D01*
X233432952Y-178631190D01*
X233480571Y-178631190D01*
X233552000Y-178655000D01*
X233575809Y-178678809D01*
X233956761Y-178869285D02*
X234028190Y-178893095D01*
X234052000Y-178916904D01*
X234075809Y-178964523D01*
X234075809Y-179035952D01*
X234052000Y-179083571D01*
X234028190Y-179107380D01*
X233980571Y-179131190D01*
X233790095Y-179131190D01*
X233790095Y-178631190D01*
X233956761Y-178631190D01*
X234004380Y-178655000D01*
X234028190Y-178678809D01*
X234052000Y-178726428D01*
X234052000Y-178774047D01*
X234028190Y-178821666D01*
X234004380Y-178845476D01*
X233956761Y-178869285D01*
X233790095Y-178869285D01*
X234885333Y-179131190D02*
X234885333Y-178631190D01*
X234885333Y-179107380D02*
X234837714Y-179131190D01*
X234742476Y-179131190D01*
X234694857Y-179107380D01*
X234671047Y-179083571D01*
X234647238Y-179035952D01*
X234647238Y-178893095D01*
X234671047Y-178845476D01*
X234694857Y-178821666D01*
X234742476Y-178797857D01*
X234837714Y-178797857D01*
X234885333Y-178821666D01*
X235313904Y-179107380D02*
X235266285Y-179131190D01*
X235171047Y-179131190D01*
X235123428Y-179107380D01*
X235099619Y-179059761D01*
X235099619Y-178869285D01*
X235123428Y-178821666D01*
X235171047Y-178797857D01*
X235266285Y-178797857D01*
X235313904Y-178821666D01*
X235337714Y-178869285D01*
X235337714Y-178916904D01*
X235099619Y-178964523D01*
X235528190Y-179107380D02*
X235575809Y-179131190D01*
X235671047Y-179131190D01*
X235718666Y-179107380D01*
X235742476Y-179059761D01*
X235742476Y-179035952D01*
X235718666Y-178988333D01*
X235671047Y-178964523D01*
X235599619Y-178964523D01*
X235552000Y-178940714D01*
X235528190Y-178893095D01*
X235528190Y-178869285D01*
X235552000Y-178821666D01*
X235599619Y-178797857D01*
X235671047Y-178797857D01*
X235718666Y-178821666D01*
X235956761Y-179131190D02*
X235956761Y-178797857D01*
X235956761Y-178631190D02*
X235932952Y-178655000D01*
X235956761Y-178678809D01*
X235980571Y-178655000D01*
X235956761Y-178631190D01*
X235956761Y-178678809D01*
X236409142Y-178797857D02*
X236409142Y-179202619D01*
X236385333Y-179250238D01*
X236361523Y-179274047D01*
X236313904Y-179297857D01*
X236242476Y-179297857D01*
X236194857Y-179274047D01*
X236409142Y-179107380D02*
X236361523Y-179131190D01*
X236266285Y-179131190D01*
X236218666Y-179107380D01*
X236194857Y-179083571D01*
X236171047Y-179035952D01*
X236171047Y-178893095D01*
X236194857Y-178845476D01*
X236218666Y-178821666D01*
X236266285Y-178797857D01*
X236361523Y-178797857D01*
X236409142Y-178821666D01*
X236647238Y-178797857D02*
X236647238Y-179131190D01*
X236647238Y-178845476D02*
X236671047Y-178821666D01*
X236718666Y-178797857D01*
X236790095Y-178797857D01*
X236837714Y-178821666D01*
X236861523Y-178869285D01*
X236861523Y-179131190D01*
X237480571Y-179131190D02*
X237480571Y-178631190D01*
X237480571Y-178821666D02*
X237528190Y-178797857D01*
X237623428Y-178797857D01*
X237671047Y-178821666D01*
X237694857Y-178845476D01*
X237718666Y-178893095D01*
X237718666Y-179035952D01*
X237694857Y-179083571D01*
X237671047Y-179107380D01*
X237623428Y-179131190D01*
X237528190Y-179131190D01*
X237480571Y-179107380D01*
X237885333Y-178797857D02*
X238004380Y-179131190D01*
X238123428Y-178797857D02*
X238004380Y-179131190D01*
X237956761Y-179250238D01*
X237932952Y-179274047D01*
X237885333Y-179297857D01*
X238313904Y-179083571D02*
X238337714Y-179107380D01*
X238313904Y-179131190D01*
X238290095Y-179107380D01*
X238313904Y-179083571D01*
X238313904Y-179131190D01*
X238313904Y-178821666D02*
X238337714Y-178845476D01*
X238313904Y-178869285D01*
X238290095Y-178845476D01*
X238313904Y-178821666D01*
X238313904Y-178869285D01*
D12*
X170274190Y-182119523D02*
X170559904Y-182214761D01*
X171036095Y-182214761D01*
X171226571Y-182119523D01*
X171321809Y-182024285D01*
X171417047Y-181833809D01*
X171417047Y-181643333D01*
X171321809Y-181452857D01*
X171226571Y-181357619D01*
X171036095Y-181262380D01*
X170655142Y-181167142D01*
X170464666Y-181071904D01*
X170369428Y-180976666D01*
X170274190Y-180786190D01*
X170274190Y-180595714D01*
X170369428Y-180405238D01*
X170464666Y-180310000D01*
X170655142Y-180214761D01*
X171131333Y-180214761D01*
X171417047Y-180310000D01*
X172083714Y-180881428D02*
X172559904Y-182214761D01*
X173036095Y-180881428D02*
X172559904Y-182214761D01*
X172369428Y-182690952D01*
X172274190Y-182786190D01*
X172083714Y-182881428D01*
X173798000Y-180881428D02*
X173798000Y-182214761D01*
X173798000Y-181071904D02*
X173893238Y-180976666D01*
X174083714Y-180881428D01*
X174369428Y-180881428D01*
X174559904Y-180976666D01*
X174655142Y-181167142D01*
X174655142Y-182214761D01*
X175321809Y-180881428D02*
X176083714Y-180881428D01*
X175607523Y-180214761D02*
X175607523Y-181929047D01*
X175702761Y-182119523D01*
X175893238Y-182214761D01*
X176083714Y-182214761D01*
X176750380Y-182214761D02*
X176750380Y-180214761D01*
X177607523Y-182214761D02*
X177607523Y-181167142D01*
X177512285Y-180976666D01*
X177321809Y-180881428D01*
X177036095Y-180881428D01*
X176845619Y-180976666D01*
X176750380Y-181071904D01*
X181036095Y-182214761D02*
X180083714Y-182214761D01*
X180083714Y-180214761D01*
X182559904Y-182214761D02*
X182559904Y-181167142D01*
X182464666Y-180976666D01*
X182274190Y-180881428D01*
X181893238Y-180881428D01*
X181702761Y-180976666D01*
X182559904Y-182119523D02*
X182369428Y-182214761D01*
X181893238Y-182214761D01*
X181702761Y-182119523D01*
X181607523Y-181929047D01*
X181607523Y-181738571D01*
X181702761Y-181548095D01*
X181893238Y-181452857D01*
X182369428Y-181452857D01*
X182559904Y-181357619D01*
X183512285Y-182214761D02*
X183512285Y-180214761D01*
X183512285Y-180976666D02*
X183702761Y-180881428D01*
X184083714Y-180881428D01*
X184274190Y-180976666D01*
X184369428Y-181071904D01*
X184464666Y-181262380D01*
X184464666Y-181833809D01*
X184369428Y-182024285D01*
X184274190Y-182119523D01*
X184083714Y-182214761D01*
X183702761Y-182214761D01*
X183512285Y-182119523D01*
X185226571Y-182119523D02*
X185417047Y-182214761D01*
X185798000Y-182214761D01*
X185988476Y-182119523D01*
X186083714Y-181929047D01*
X186083714Y-181833809D01*
X185988476Y-181643333D01*
X185798000Y-181548095D01*
X185512285Y-181548095D01*
X185321809Y-181452857D01*
X185226571Y-181262380D01*
X185226571Y-181167142D01*
X185321809Y-180976666D01*
X185512285Y-180881428D01*
X185798000Y-180881428D01*
X185988476Y-180976666D01*
X188845619Y-180214761D02*
X189036095Y-180214761D01*
X189226571Y-180310000D01*
X189321809Y-180405238D01*
X189417047Y-180595714D01*
X189512285Y-180976666D01*
X189512285Y-181452857D01*
X189417047Y-181833809D01*
X189321809Y-182024285D01*
X189226571Y-182119523D01*
X189036095Y-182214761D01*
X188845619Y-182214761D01*
X188655142Y-182119523D01*
X188559904Y-182024285D01*
X188464666Y-181833809D01*
X188369428Y-181452857D01*
X188369428Y-180976666D01*
X188464666Y-180595714D01*
X188559904Y-180405238D01*
X188655142Y-180310000D01*
X188845619Y-180214761D01*
X191226571Y-180214761D02*
X190845619Y-180214761D01*
X190655142Y-180310000D01*
X190559904Y-180405238D01*
X190369428Y-180690952D01*
X190274190Y-181071904D01*
X190274190Y-181833809D01*
X190369428Y-182024285D01*
X190464666Y-182119523D01*
X190655142Y-182214761D01*
X191036095Y-182214761D01*
X191226571Y-182119523D01*
X191321809Y-182024285D01*
X191417047Y-181833809D01*
X191417047Y-181357619D01*
X191321809Y-181167142D01*
X191226571Y-181071904D01*
X191036095Y-180976666D01*
X190655142Y-180976666D01*
X190464666Y-181071904D01*
X190369428Y-181167142D01*
X190274190Y-181357619D01*
X192655142Y-180214761D02*
X192845619Y-180214761D01*
X193036095Y-180310000D01*
X193131333Y-180405238D01*
X193226571Y-180595714D01*
X193321809Y-180976666D01*
X193321809Y-181452857D01*
X193226571Y-181833809D01*
X193131333Y-182024285D01*
X193036095Y-182119523D01*
X192845619Y-182214761D01*
X192655142Y-182214761D01*
X192464666Y-182119523D01*
X192369428Y-182024285D01*
X192274190Y-181833809D01*
X192178952Y-181452857D01*
X192178952Y-180976666D01*
X192274190Y-180595714D01*
X192369428Y-180405238D01*
X192464666Y-180310000D01*
X192655142Y-180214761D01*
X232631238Y-179929761D02*
X232821714Y-179929761D01*
X233012190Y-180025000D01*
X233107428Y-180120238D01*
X233202666Y-180310714D01*
X233297904Y-180691666D01*
X233297904Y-181167857D01*
X233202666Y-181548809D01*
X233107428Y-181739285D01*
X233012190Y-181834523D01*
X232821714Y-181929761D01*
X232631238Y-181929761D01*
X232440761Y-181834523D01*
X232345523Y-181739285D01*
X232250285Y-181548809D01*
X232155047Y-181167857D01*
X232155047Y-180691666D01*
X232250285Y-180310714D01*
X232345523Y-180120238D01*
X232440761Y-180025000D01*
X232631238Y-179929761D01*
X233964571Y-181929761D02*
X235012190Y-180596428D01*
X233964571Y-180596428D02*
X235012190Y-181929761D01*
X236916952Y-181739285D02*
X236821714Y-181834523D01*
X236536000Y-181929761D01*
X236345523Y-181929761D01*
X236059809Y-181834523D01*
X235869333Y-181644047D01*
X235774095Y-181453571D01*
X235678857Y-181072619D01*
X235678857Y-180786904D01*
X235774095Y-180405952D01*
X235869333Y-180215476D01*
X236059809Y-180025000D01*
X236345523Y-179929761D01*
X236536000Y-179929761D01*
X236821714Y-180025000D01*
X236916952Y-180120238D01*
X238440761Y-180882142D02*
X238726476Y-180977380D01*
X238821714Y-181072619D01*
X238916952Y-181263095D01*
X238916952Y-181548809D01*
X238821714Y-181739285D01*
X238726476Y-181834523D01*
X238536000Y-181929761D01*
X237774095Y-181929761D01*
X237774095Y-179929761D01*
X238440761Y-179929761D01*
X238631238Y-180025000D01*
X238726476Y-180120238D01*
X238821714Y-180310714D01*
X238821714Y-180501190D01*
X238726476Y-180691666D01*
X238631238Y-180786904D01*
X238440761Y-180882142D01*
X237774095Y-180882142D01*
%TO.C,G\u002A\u002A\u002A*%
G36*
X252576604Y-181748397D02*
G01*
X252593955Y-181698676D01*
X252617740Y-181655307D01*
X252647361Y-181618668D01*
X252682222Y-181589138D01*
X252721725Y-181567093D01*
X252765274Y-181552913D01*
X252812271Y-181546975D01*
X252862121Y-181549658D01*
X252884270Y-181553552D01*
X252925983Y-181566896D01*
X252965955Y-181588238D01*
X253002215Y-181616201D01*
X253032792Y-181649411D01*
X253043521Y-181664677D01*
X253057186Y-181688905D01*
X253067591Y-181714660D01*
X253075144Y-181743686D01*
X253080252Y-181777732D01*
X253083323Y-181818541D01*
X253084120Y-181838642D01*
X253086582Y-181917167D01*
X252694873Y-181917167D01*
X252697425Y-181945313D01*
X252704531Y-181977037D01*
X252719088Y-182006609D01*
X252739633Y-182031312D01*
X252747259Y-182037765D01*
X252776871Y-182054869D01*
X252810232Y-182064452D01*
X252845691Y-182066659D01*
X252881599Y-182061634D01*
X252916307Y-182049523D01*
X252948164Y-182030472D01*
X252961989Y-182018877D01*
X252976990Y-182004857D01*
X253023921Y-182045496D01*
X253045373Y-182064666D01*
X253059587Y-182078816D01*
X253066957Y-182088373D01*
X253068084Y-182093348D01*
X253062073Y-182101474D01*
X253049961Y-182112852D01*
X253033722Y-182125974D01*
X253015334Y-182139334D01*
X252996773Y-182151421D01*
X252980013Y-182160730D01*
X252979391Y-182161032D01*
X252958461Y-182169854D01*
X252935006Y-182177927D01*
X252920790Y-182181852D01*
X252896482Y-182185764D01*
X252866305Y-182187945D01*
X252833535Y-182188401D01*
X252801453Y-182187138D01*
X252773338Y-182184163D01*
X252759693Y-182181547D01*
X252713884Y-182166104D01*
X252673981Y-182143405D01*
X252640063Y-182113541D01*
X252612210Y-182076605D01*
X252590499Y-182032685D01*
X252575012Y-181981875D01*
X252571737Y-181966083D01*
X252568130Y-181938786D01*
X252566107Y-181905703D01*
X252565609Y-181869433D01*
X252566579Y-181832577D01*
X252568958Y-181797734D01*
X252569156Y-181796128D01*
X252696175Y-181796128D01*
X252696175Y-181809342D01*
X252825097Y-181809342D01*
X252858764Y-181809219D01*
X252889145Y-181808874D01*
X252915046Y-181808338D01*
X252935271Y-181807644D01*
X252948623Y-181806825D01*
X252953907Y-181805914D01*
X252953946Y-181805825D01*
X252951909Y-181792182D01*
X252946978Y-181773626D01*
X252940295Y-181753708D01*
X252933005Y-181735978D01*
X252928858Y-181727940D01*
X252909263Y-181702455D01*
X252884669Y-181684649D01*
X252854687Y-181674320D01*
X252820409Y-181671250D01*
X252799797Y-181672192D01*
X252783957Y-181675428D01*
X252768367Y-181682040D01*
X252762743Y-181685016D01*
X252746123Y-181696117D01*
X252730736Y-181709711D01*
X252723911Y-181717589D01*
X252712012Y-181737967D01*
X252702550Y-181761969D01*
X252697011Y-181785383D01*
X252696175Y-181796128D01*
X252569156Y-181796128D01*
X252572688Y-181767505D01*
X252576604Y-181748397D01*
G37*
G36*
X252642176Y-180566241D02*
G01*
X252681348Y-180581038D01*
X252701855Y-180592886D01*
X252714157Y-180602852D01*
X252718020Y-180610727D01*
X252717727Y-180612041D01*
X252713865Y-180617972D01*
X252705075Y-180629530D01*
X252692532Y-180645223D01*
X252677412Y-180663563D01*
X252671825Y-180670218D01*
X252628571Y-180721494D01*
X252616664Y-180713657D01*
X252586225Y-180697424D01*
X252556761Y-180689914D01*
X252526734Y-180690816D01*
X252515159Y-180693222D01*
X252484411Y-180705362D01*
X252459608Y-180724694D01*
X252441040Y-180750986D01*
X252439857Y-180753334D01*
X252426611Y-180780309D01*
X252425212Y-180987756D01*
X252423814Y-181195203D01*
X252293001Y-181195203D01*
X252293001Y-180567001D01*
X252424267Y-180567001D01*
X252424267Y-180628743D01*
X252445954Y-180609653D01*
X252480051Y-180585659D01*
X252518280Y-180569218D01*
X252559083Y-180560433D01*
X252600901Y-180559407D01*
X252642176Y-180566241D01*
G37*
G36*
X251165679Y-181772648D02*
G01*
X251179584Y-181815413D01*
X251192629Y-181855106D01*
X251204534Y-181890904D01*
X251215020Y-181921985D01*
X251223805Y-181947527D01*
X251230609Y-181966707D01*
X251235153Y-181978702D01*
X251237156Y-181982691D01*
X251237213Y-181982588D01*
X251238713Y-181976792D01*
X251242446Y-181962886D01*
X251248160Y-181941800D01*
X251255601Y-181914463D01*
X251264515Y-181881807D01*
X251274649Y-181844760D01*
X251285750Y-181804253D01*
X251295934Y-181767149D01*
X251353235Y-181558529D01*
X251422656Y-181557230D01*
X251450008Y-181556852D01*
X251469234Y-181556973D01*
X251481578Y-181557690D01*
X251488280Y-181559099D01*
X251490584Y-181561296D01*
X251490536Y-181562486D01*
X251488881Y-181567951D01*
X251484602Y-181581605D01*
X251477935Y-181602707D01*
X251469115Y-181630518D01*
X251458377Y-181664296D01*
X251445957Y-181703301D01*
X251432090Y-181746792D01*
X251417013Y-181794030D01*
X251400960Y-181844273D01*
X251390546Y-181876843D01*
X251292096Y-182184645D01*
X251234093Y-182183344D01*
X251176089Y-182182044D01*
X251112231Y-181967770D01*
X251099400Y-181924969D01*
X251087319Y-181885152D01*
X251076258Y-181849175D01*
X251066486Y-181817892D01*
X251058272Y-181792158D01*
X251051886Y-181772826D01*
X251047599Y-181760752D01*
X251045679Y-181756789D01*
X251045658Y-181756807D01*
X251043816Y-181761840D01*
X251039593Y-181774971D01*
X251033265Y-181795306D01*
X251025102Y-181821950D01*
X251015378Y-181854009D01*
X251004365Y-181890586D01*
X250992337Y-181930787D01*
X250980000Y-181972252D01*
X250917057Y-182184388D01*
X250859186Y-182184388D01*
X250834750Y-182184251D01*
X250818126Y-182183698D01*
X250807748Y-182182515D01*
X250802055Y-182180489D01*
X250799482Y-182177407D01*
X250799068Y-182176184D01*
X250797290Y-182170429D01*
X250792892Y-182156496D01*
X250786111Y-182135132D01*
X250777187Y-182107089D01*
X250766358Y-182073114D01*
X250753865Y-182033960D01*
X250739946Y-181990374D01*
X250724840Y-181943107D01*
X250708786Y-181892908D01*
X250699297Y-181863254D01*
X250601773Y-181558529D01*
X250669818Y-181557228D01*
X250694020Y-181556868D01*
X250714646Y-181556757D01*
X250729999Y-181556888D01*
X250738382Y-181557256D01*
X250739413Y-181557477D01*
X250740918Y-181562175D01*
X250744625Y-181575030D01*
X250750284Y-181595147D01*
X250757649Y-181621632D01*
X250766473Y-181653592D01*
X250776506Y-181690131D01*
X250787503Y-181730356D01*
X250798534Y-181770873D01*
X250810220Y-181813694D01*
X250821208Y-181853616D01*
X250831249Y-181889752D01*
X250840092Y-181921218D01*
X250847486Y-181947127D01*
X250853181Y-181966594D01*
X250856926Y-181978733D01*
X250858449Y-181982672D01*
X250860312Y-181978341D01*
X250864742Y-181965948D01*
X250871450Y-181946359D01*
X250880146Y-181920444D01*
X250890541Y-181889069D01*
X250902347Y-181853102D01*
X250915274Y-181813411D01*
X250929033Y-181770865D01*
X250929125Y-181770577D01*
X250997458Y-181558529D01*
X251046511Y-181557209D01*
X251095565Y-181555888D01*
X251165679Y-181772648D01*
G37*
G36*
X253260841Y-180745383D02*
G01*
X253279026Y-180697506D01*
X253303598Y-180656190D01*
X253334490Y-180621565D01*
X253371635Y-180593761D01*
X253414966Y-180572908D01*
X253429515Y-180567916D01*
X253453183Y-180563134D01*
X253485868Y-180560806D01*
X253504869Y-180560562D01*
X253530670Y-180561005D01*
X253550314Y-180562508D01*
X253567000Y-180565519D01*
X253583926Y-180570489D01*
X253589732Y-180572502D01*
X253634706Y-180593116D01*
X253673916Y-180620741D01*
X253706715Y-180654831D01*
X253730905Y-180691868D01*
X253741323Y-180713324D01*
X253749070Y-180734307D01*
X253754498Y-180756755D01*
X253757956Y-180782606D01*
X253759796Y-180813799D01*
X253760367Y-180852273D01*
X253760369Y-180854823D01*
X253760369Y-180932671D01*
X253371148Y-180932671D01*
X253374200Y-180952596D01*
X253383746Y-180989486D01*
X253399920Y-181021039D01*
X253422070Y-181046404D01*
X253449548Y-181064730D01*
X253464363Y-181070751D01*
X253499421Y-181077769D01*
X253536669Y-181077135D01*
X253573663Y-181069346D01*
X253607957Y-181054901D01*
X253635189Y-181036010D01*
X253647446Y-181027007D01*
X253657069Y-181023219D01*
X253659629Y-181023461D01*
X253665833Y-181027468D01*
X253677391Y-181036323D01*
X253692611Y-181048688D01*
X253708611Y-181062200D01*
X253727540Y-181078699D01*
X253739672Y-181090723D01*
X253745324Y-181099902D01*
X253744814Y-181107869D01*
X253738458Y-181116255D01*
X253726576Y-181126692D01*
X253721902Y-181130532D01*
X253679261Y-181160842D01*
X253635406Y-181182420D01*
X253588705Y-181195902D01*
X253538931Y-181201856D01*
X253516315Y-181202419D01*
X253494155Y-181202024D01*
X253476279Y-181200765D01*
X253472052Y-181200189D01*
X253420944Y-181187949D01*
X253376341Y-181168982D01*
X253338229Y-181143272D01*
X253306593Y-181110799D01*
X253281416Y-181071546D01*
X253262685Y-181025494D01*
X253250384Y-180972625D01*
X253245272Y-180927074D01*
X253243897Y-180860297D01*
X253246946Y-180824845D01*
X253371148Y-180824845D01*
X253633556Y-180824845D01*
X253630907Y-180809609D01*
X253624254Y-180778975D01*
X253615668Y-180755026D01*
X253604020Y-180735109D01*
X253594003Y-180722765D01*
X253571626Y-180702279D01*
X253547389Y-180689595D01*
X253518919Y-180683682D01*
X253502415Y-180682944D01*
X253468042Y-180686970D01*
X253438127Y-180699032D01*
X253413144Y-180718683D01*
X253393565Y-180745471D01*
X253379862Y-180778948D01*
X253374200Y-180804921D01*
X253371148Y-180824845D01*
X253246946Y-180824845D01*
X253249109Y-180799690D01*
X253260841Y-180745383D01*
G37*
G36*
X253044916Y-180565187D02*
G01*
X253091178Y-180579032D01*
X253135281Y-180600521D01*
X253176128Y-180629663D01*
X253186216Y-180638621D01*
X253218067Y-180668209D01*
X253121893Y-180754531D01*
X253100073Y-180735119D01*
X253071545Y-180713307D01*
X253042946Y-180699464D01*
X253011594Y-180692551D01*
X252986836Y-180691281D01*
X252952066Y-180693873D01*
X252923060Y-180702124D01*
X252897533Y-180716880D01*
X252881953Y-180730143D01*
X252862525Y-180754729D01*
X252847667Y-180786254D01*
X252837724Y-180823285D01*
X252833044Y-180864390D01*
X252833973Y-180908135D01*
X252835469Y-180922123D01*
X252841927Y-180958085D01*
X252851686Y-180987249D01*
X252865675Y-181011889D01*
X252878890Y-181028104D01*
X252902079Y-181048505D01*
X252928346Y-181061931D01*
X252959441Y-181069073D01*
X252986836Y-181070720D01*
X253008932Y-181070341D01*
X253025325Y-181068438D01*
X253039652Y-181064350D01*
X253052735Y-181058751D01*
X253071501Y-181048139D01*
X253090497Y-181034608D01*
X253099207Y-181027107D01*
X253110271Y-181016825D01*
X253118338Y-181009783D01*
X253121305Y-181007680D01*
X253125189Y-181010655D01*
X253134680Y-181018815D01*
X253148471Y-181031012D01*
X253165254Y-181046098D01*
X253170528Y-181050881D01*
X253218075Y-181094082D01*
X253186089Y-181123361D01*
X253149908Y-181151928D01*
X253110329Y-181175176D01*
X253070363Y-181191355D01*
X253067668Y-181192166D01*
X253043955Y-181197247D01*
X253014979Y-181200704D01*
X252984664Y-181202286D01*
X252956931Y-181201744D01*
X252942299Y-181200158D01*
X252894117Y-181189157D01*
X252852423Y-181172482D01*
X252815724Y-181149380D01*
X252783344Y-181119970D01*
X252757046Y-181087724D01*
X252736387Y-181052057D01*
X252720148Y-181010683D01*
X252714151Y-180990315D01*
X252708421Y-180960997D01*
X252704873Y-180925444D01*
X252703504Y-180886538D01*
X252704314Y-180847164D01*
X252707300Y-180810204D01*
X252712459Y-180778541D01*
X252714315Y-180770933D01*
X252729146Y-180726117D01*
X252748311Y-180687816D01*
X252773069Y-180653687D01*
X252783468Y-180642103D01*
X252819638Y-180610285D01*
X252860232Y-180586053D01*
X252904155Y-180569418D01*
X252950308Y-180560389D01*
X252997594Y-180558976D01*
X253044916Y-180565187D01*
G37*
G36*
X251080638Y-175894161D02*
G01*
X251082643Y-175900499D01*
X251086169Y-175915261D01*
X251091056Y-175937649D01*
X251097144Y-175966862D01*
X251104270Y-176002103D01*
X251112274Y-176042570D01*
X251120995Y-176087466D01*
X251130273Y-176135990D01*
X251139945Y-176187343D01*
X251143510Y-176206458D01*
X251154821Y-176267163D01*
X251164597Y-176319314D01*
X251172981Y-176363583D01*
X251180119Y-176400642D01*
X251186154Y-176431162D01*
X251191230Y-176455814D01*
X251195492Y-176475270D01*
X251199084Y-176490201D01*
X251202151Y-176501279D01*
X251204835Y-176509174D01*
X251207282Y-176514558D01*
X251209636Y-176518102D01*
X251210702Y-176519275D01*
X251217893Y-176523911D01*
X251232637Y-176531405D01*
X251253885Y-176541331D01*
X251280591Y-176553261D01*
X251311705Y-176566768D01*
X251346180Y-176581424D01*
X251382969Y-176596803D01*
X251421023Y-176612477D01*
X251459294Y-176628018D01*
X251496735Y-176643000D01*
X251532297Y-176656995D01*
X251564933Y-176669576D01*
X251593595Y-176680315D01*
X251617236Y-176688786D01*
X251634806Y-176694560D01*
X251645258Y-176697211D01*
X251647265Y-176697292D01*
X251653288Y-176694271D01*
X251666339Y-176686365D01*
X251685737Y-176674025D01*
X251710799Y-176657702D01*
X251740846Y-176637847D01*
X251775195Y-176614912D01*
X251813164Y-176589347D01*
X251854074Y-176561605D01*
X251897241Y-176532136D01*
X251913047Y-176521299D01*
X251965276Y-176485497D01*
X252010350Y-176454726D01*
X252048795Y-176428643D01*
X252081140Y-176406906D01*
X252107913Y-176389174D01*
X252129643Y-176375105D01*
X252146858Y-176364357D01*
X252160085Y-176356587D01*
X252169853Y-176351454D01*
X252176690Y-176348617D01*
X252181124Y-176347732D01*
X252181170Y-176347732D01*
X252184733Y-176348182D01*
X252189066Y-176349847D01*
X252194678Y-176353203D01*
X252202082Y-176358725D01*
X252211786Y-176366886D01*
X252224302Y-176378162D01*
X252240141Y-176393028D01*
X252259812Y-176411958D01*
X252283827Y-176435426D01*
X252312696Y-176463909D01*
X252346930Y-176497879D01*
X252387039Y-176537813D01*
X252406809Y-176557524D01*
X252443805Y-176594518D01*
X252478948Y-176629848D01*
X252511651Y-176662911D01*
X252541328Y-176693105D01*
X252567391Y-176719830D01*
X252589256Y-176742482D01*
X252606335Y-176760461D01*
X252618043Y-176773165D01*
X252623793Y-176779991D01*
X252624176Y-176780598D01*
X252628682Y-176794916D01*
X252626744Y-176806382D01*
X252623361Y-176812359D01*
X252615111Y-176825357D01*
X252602456Y-176844686D01*
X252585862Y-176869657D01*
X252565792Y-176899577D01*
X252542708Y-176933756D01*
X252517077Y-176971503D01*
X252489360Y-177012128D01*
X252460022Y-177054939D01*
X252453104Y-177065008D01*
X252414051Y-177122003D01*
X252379965Y-177172145D01*
X252350919Y-177215323D01*
X252326982Y-177251428D01*
X252308227Y-177280353D01*
X252294725Y-177301988D01*
X252286547Y-177316224D01*
X252283766Y-177322953D01*
X252283766Y-177322967D01*
X252285569Y-177329841D01*
X252290754Y-177344255D01*
X252298880Y-177365189D01*
X252309510Y-177391619D01*
X252322204Y-177422524D01*
X252336525Y-177456881D01*
X252352034Y-177493668D01*
X252368291Y-177531864D01*
X252384859Y-177570445D01*
X252401299Y-177608391D01*
X252417173Y-177644678D01*
X252432040Y-177678285D01*
X252445464Y-177708189D01*
X252457006Y-177733369D01*
X252466226Y-177752802D01*
X252472686Y-177765467D01*
X252475635Y-177770102D01*
X252479047Y-177772293D01*
X252485591Y-177774846D01*
X252495880Y-177777893D01*
X252510530Y-177781562D01*
X252530155Y-177785984D01*
X252555370Y-177791287D01*
X252586790Y-177797601D01*
X252625030Y-177805056D01*
X252670703Y-177813781D01*
X252724427Y-177823906D01*
X252781543Y-177834580D01*
X252841944Y-177845858D01*
X252893780Y-177855604D01*
X252937713Y-177863959D01*
X252974402Y-177871064D01*
X253004510Y-177877061D01*
X253028696Y-177882092D01*
X253047622Y-177886297D01*
X253061949Y-177889820D01*
X253072337Y-177892800D01*
X253079447Y-177895380D01*
X253083941Y-177897701D01*
X253086458Y-177899880D01*
X253088101Y-177902382D01*
X253089510Y-177906034D01*
X253090703Y-177911524D01*
X253091697Y-177919539D01*
X253092510Y-177930767D01*
X253093161Y-177945898D01*
X253093667Y-177965619D01*
X253094046Y-177990617D01*
X253094316Y-178021582D01*
X253094495Y-178059201D01*
X253094600Y-178104162D01*
X253094650Y-178157153D01*
X253094662Y-178215931D01*
X253094649Y-178277238D01*
X253094597Y-178329857D01*
X253094489Y-178374475D01*
X253094307Y-178411781D01*
X253094033Y-178442463D01*
X253093648Y-178467207D01*
X253093137Y-178486704D01*
X253092479Y-178501639D01*
X253091658Y-178512701D01*
X253090656Y-178520578D01*
X253089455Y-178525959D01*
X253088036Y-178529529D01*
X253086458Y-178531889D01*
X253083828Y-178534116D01*
X253079144Y-178536472D01*
X253071737Y-178539101D01*
X253060937Y-178542146D01*
X253046073Y-178545750D01*
X253026476Y-178550057D01*
X253001476Y-178555211D01*
X252970402Y-178561355D01*
X252932584Y-178568633D01*
X252887353Y-178577188D01*
X252834038Y-178587163D01*
X252791127Y-178595146D01*
X252739949Y-178604730D01*
X252691404Y-178613974D01*
X252646306Y-178622711D01*
X252605468Y-178630778D01*
X252569702Y-178638010D01*
X252539823Y-178644242D01*
X252516642Y-178649310D01*
X252500974Y-178653049D01*
X252493631Y-178655294D01*
X252493374Y-178655438D01*
X252489229Y-178661329D01*
X252482202Y-178674968D01*
X252472691Y-178695366D01*
X252461090Y-178721531D01*
X252447797Y-178752472D01*
X252433207Y-178787199D01*
X252417717Y-178824720D01*
X252401722Y-178864045D01*
X252385619Y-178904183D01*
X252369804Y-178944143D01*
X252354672Y-178982934D01*
X252340621Y-179019566D01*
X252328046Y-179053046D01*
X252317343Y-179082386D01*
X252308908Y-179106593D01*
X252303138Y-179124677D01*
X252300428Y-179135647D01*
X252300368Y-179138236D01*
X252303572Y-179143932D01*
X252311629Y-179156635D01*
X252324066Y-179175637D01*
X252340408Y-179200232D01*
X252360179Y-179229710D01*
X252382906Y-179263366D01*
X252408114Y-179300490D01*
X252435329Y-179340375D01*
X252462873Y-179380563D01*
X252497195Y-179430573D01*
X252526555Y-179473463D01*
X252551331Y-179509818D01*
X252571903Y-179540225D01*
X252588649Y-179565270D01*
X252601947Y-179585539D01*
X252612176Y-179601618D01*
X252619714Y-179614093D01*
X252624941Y-179623549D01*
X252628234Y-179630575D01*
X252629973Y-179635754D01*
X252630536Y-179639673D01*
X252630542Y-179640123D01*
X252627311Y-179644288D01*
X252617982Y-179654505D01*
X252603103Y-179670212D01*
X252583222Y-179690849D01*
X252558887Y-179715852D01*
X252530646Y-179744661D01*
X252499046Y-179776712D01*
X252464635Y-179811445D01*
X252427961Y-179848297D01*
X252411442Y-179864845D01*
X252366951Y-179909323D01*
X252328572Y-179947563D01*
X252295839Y-179980006D01*
X252268285Y-180007095D01*
X252245442Y-180029270D01*
X252226842Y-180046972D01*
X252212018Y-180060644D01*
X252200504Y-180070727D01*
X252191832Y-180077662D01*
X252185534Y-180081891D01*
X252181143Y-180083854D01*
X252179295Y-180084129D01*
X252173893Y-180082446D01*
X252163793Y-180077236D01*
X252148625Y-180068258D01*
X252128021Y-180055272D01*
X252101610Y-180038036D01*
X252069024Y-180016311D01*
X252029894Y-179989854D01*
X251983850Y-179958426D01*
X251933104Y-179923563D01*
X251884075Y-179889836D01*
X251842140Y-179861093D01*
X251806703Y-179836951D01*
X251777168Y-179817028D01*
X251752940Y-179800943D01*
X251733423Y-179788313D01*
X251718020Y-179778756D01*
X251706137Y-179771890D01*
X251697177Y-179767334D01*
X251690546Y-179764705D01*
X251685646Y-179763622D01*
X251683551Y-179763543D01*
X251673751Y-179765776D01*
X251657632Y-179772152D01*
X251634782Y-179782865D01*
X251604787Y-179798109D01*
X251567234Y-179818078D01*
X251566349Y-179818556D01*
X251530439Y-179837732D01*
X251501714Y-179852444D01*
X251479282Y-179862989D01*
X251462250Y-179869663D01*
X251449728Y-179872763D01*
X251440821Y-179872586D01*
X251434638Y-179869428D01*
X251430385Y-179863772D01*
X251427905Y-179858174D01*
X251422133Y-179844595D01*
X251413344Y-179823703D01*
X251401815Y-179796164D01*
X251387822Y-179762646D01*
X251371642Y-179723816D01*
X251353551Y-179680342D01*
X251333826Y-179632890D01*
X251312743Y-179582128D01*
X251290578Y-179528724D01*
X251267607Y-179473344D01*
X251244108Y-179416657D01*
X251220357Y-179359329D01*
X251196629Y-179302027D01*
X251173202Y-179245419D01*
X251150351Y-179190173D01*
X251128354Y-179136955D01*
X251107486Y-179086432D01*
X251088024Y-179039273D01*
X251070244Y-178996145D01*
X251054423Y-178957714D01*
X251040837Y-178924648D01*
X251029763Y-178897614D01*
X251021477Y-178877280D01*
X251016255Y-178864313D01*
X251014389Y-178859444D01*
X251013188Y-178846421D01*
X251018012Y-178834282D01*
X251029764Y-178821736D01*
X251049352Y-178807489D01*
X251051948Y-178805811D01*
X251124281Y-178755782D01*
X251187676Y-178703948D01*
X251242473Y-178649836D01*
X251289017Y-178592972D01*
X251327648Y-178532883D01*
X251358710Y-178469095D01*
X251382544Y-178401134D01*
X251399493Y-178328527D01*
X251400344Y-178323756D01*
X251404811Y-178288052D01*
X251407116Y-178246542D01*
X251407267Y-178202539D01*
X251405270Y-178159360D01*
X251401131Y-178120320D01*
X251399899Y-178112406D01*
X251382811Y-178037609D01*
X251357408Y-177966446D01*
X251324220Y-177899437D01*
X251283777Y-177837104D01*
X251236607Y-177779968D01*
X251183242Y-177728549D01*
X251124211Y-177683369D01*
X251060042Y-177644949D01*
X250991267Y-177613811D01*
X250918415Y-177590474D01*
X250856234Y-177577562D01*
X250825604Y-177574181D01*
X250789016Y-177572466D01*
X250749292Y-177572352D01*
X250709254Y-177573770D01*
X250671724Y-177576653D01*
X250639525Y-177580932D01*
X250628733Y-177583027D01*
X250554267Y-177603910D01*
X250483711Y-177632868D01*
X250417605Y-177669342D01*
X250356487Y-177712769D01*
X250300895Y-177762591D01*
X250251368Y-177818244D01*
X250208445Y-177879170D01*
X250172663Y-177944808D01*
X250144562Y-178014595D01*
X250124679Y-178087973D01*
X250120028Y-178112793D01*
X250116005Y-178144803D01*
X250113471Y-178181870D01*
X250112459Y-178220984D01*
X250113003Y-178259134D01*
X250115137Y-178293307D01*
X250117778Y-178314380D01*
X250135212Y-178392835D01*
X250160788Y-178466678D01*
X250194469Y-178535837D01*
X250236218Y-178600243D01*
X250285997Y-178659823D01*
X250313638Y-178687547D01*
X250338642Y-178709845D01*
X250369287Y-178734615D01*
X250406271Y-178762384D01*
X250450294Y-178793683D01*
X250487885Y-178819476D01*
X250500358Y-178829442D01*
X250505972Y-178838666D01*
X250506843Y-178845487D01*
X250505095Y-178850941D01*
X250500029Y-178864394D01*
X250491919Y-178885184D01*
X250481035Y-178912648D01*
X250467650Y-178946124D01*
X250452034Y-178984948D01*
X250434459Y-179028458D01*
X250415197Y-179075992D01*
X250394519Y-179126885D01*
X250372696Y-179180476D01*
X250350001Y-179236102D01*
X250326705Y-179293100D01*
X250303079Y-179350807D01*
X250279395Y-179408560D01*
X250255924Y-179465698D01*
X250232938Y-179521556D01*
X250210708Y-179575472D01*
X250189507Y-179626784D01*
X250169605Y-179674828D01*
X250151274Y-179718942D01*
X250134785Y-179758464D01*
X250120411Y-179792729D01*
X250108422Y-179821076D01*
X250099090Y-179842842D01*
X250092687Y-179857364D01*
X250089825Y-179863377D01*
X250085505Y-179869180D01*
X250079451Y-179872359D01*
X250070759Y-179872616D01*
X250058526Y-179869655D01*
X250041850Y-179863177D01*
X250019827Y-179852884D01*
X249991554Y-179838477D01*
X249956128Y-179819660D01*
X249954231Y-179818640D01*
X249916187Y-179798492D01*
X249885753Y-179783085D01*
X249862556Y-179772242D01*
X249846221Y-179765790D01*
X249836449Y-179763555D01*
X249832166Y-179763973D01*
X249826475Y-179765742D01*
X249818767Y-179769251D01*
X249808435Y-179774891D01*
X249794870Y-179783050D01*
X249777464Y-179794116D01*
X249755611Y-179808480D01*
X249728701Y-179826529D01*
X249696128Y-179848654D01*
X249657283Y-179875243D01*
X249611557Y-179906685D01*
X249595013Y-179918084D01*
X249553769Y-179946482D01*
X249514621Y-179973386D01*
X249478285Y-179998307D01*
X249445480Y-180020755D01*
X249416923Y-180040239D01*
X249393332Y-180056270D01*
X249375424Y-180068359D01*
X249363918Y-180076014D01*
X249359745Y-180078650D01*
X249354880Y-180081142D01*
X249350231Y-180082816D01*
X249345283Y-180083236D01*
X249339520Y-180081961D01*
X249332427Y-180078553D01*
X249323488Y-180072572D01*
X249312187Y-180063579D01*
X249298009Y-180051136D01*
X249280438Y-180034803D01*
X249258959Y-180014141D01*
X249233056Y-179988712D01*
X249202213Y-179958075D01*
X249165914Y-179921793D01*
X249123645Y-179879425D01*
X249111561Y-179867306D01*
X249074253Y-179829808D01*
X249038898Y-179794116D01*
X249006056Y-179760805D01*
X248976288Y-179730452D01*
X248950153Y-179703632D01*
X248928212Y-179680921D01*
X248911026Y-179662894D01*
X248899155Y-179650128D01*
X248893158Y-179643197D01*
X248892544Y-179642237D01*
X248891894Y-179631395D01*
X248893720Y-179623473D01*
X248897038Y-179617795D01*
X248905202Y-179605105D01*
X248917736Y-179586111D01*
X248934165Y-179561519D01*
X248954011Y-179532037D01*
X248976800Y-179498372D01*
X249002054Y-179461232D01*
X249029299Y-179421324D01*
X249056992Y-179380906D01*
X249085690Y-179339002D01*
X249112837Y-179299181D01*
X249137961Y-179262150D01*
X249160586Y-179228617D01*
X249180239Y-179199288D01*
X249196445Y-179174872D01*
X249208731Y-179156076D01*
X249216622Y-179143607D01*
X249219627Y-179138236D01*
X249218705Y-179131411D01*
X249214509Y-179116949D01*
X249207437Y-179095841D01*
X249197883Y-179069078D01*
X249186245Y-179037651D01*
X249172919Y-179002550D01*
X249158301Y-178964767D01*
X249142788Y-178925293D01*
X249126776Y-178885118D01*
X249110661Y-178845233D01*
X249094840Y-178806630D01*
X249079709Y-178770300D01*
X249065665Y-178737232D01*
X249053104Y-178708420D01*
X249042421Y-178684852D01*
X249034015Y-178667521D01*
X249028280Y-178657416D01*
X249026471Y-178655337D01*
X249019962Y-178653203D01*
X249004997Y-178649557D01*
X248982343Y-178644556D01*
X248952772Y-178638354D01*
X248917052Y-178631109D01*
X248875953Y-178622977D01*
X248830245Y-178614113D01*
X248780697Y-178604674D01*
X248728718Y-178594934D01*
X248669210Y-178583845D01*
X248618262Y-178574277D01*
X248575208Y-178566088D01*
X248539381Y-178559136D01*
X248510114Y-178553277D01*
X248486740Y-178548370D01*
X248468594Y-178544270D01*
X248455007Y-178540837D01*
X248445314Y-178537926D01*
X248438847Y-178535396D01*
X248434939Y-178533104D01*
X248433542Y-178531778D01*
X248431898Y-178529318D01*
X248430490Y-178525706D01*
X248429297Y-178520254D01*
X248428303Y-178512276D01*
X248427489Y-178501082D01*
X248426838Y-178485986D01*
X248426332Y-178466300D01*
X248425953Y-178441336D01*
X248425683Y-178410406D01*
X248425505Y-178372823D01*
X248425399Y-178327900D01*
X248425349Y-178274948D01*
X248425337Y-178215931D01*
X248425351Y-178154623D01*
X248425402Y-178102003D01*
X248425511Y-178057383D01*
X248425693Y-178020075D01*
X248425967Y-177989391D01*
X248426351Y-177964643D01*
X248426863Y-177945143D01*
X248427521Y-177930202D01*
X248428342Y-177919134D01*
X248429345Y-177911250D01*
X248430546Y-177905861D01*
X248431965Y-177902280D01*
X248433542Y-177899912D01*
X248436116Y-177897702D01*
X248440670Y-177895375D01*
X248447868Y-177892790D01*
X248458377Y-177889805D01*
X248472860Y-177886278D01*
X248491983Y-177882068D01*
X248516411Y-177877033D01*
X248546809Y-177871032D01*
X248583843Y-177863922D01*
X248628178Y-177855562D01*
X248680478Y-177845811D01*
X248734750Y-177835757D01*
X248802672Y-177823118D01*
X248861568Y-177811983D01*
X248911662Y-177802304D01*
X248953176Y-177794037D01*
X248986334Y-177787135D01*
X249011357Y-177781553D01*
X249028469Y-177777246D01*
X249037891Y-177774168D01*
X249039475Y-177773330D01*
X249044283Y-177766951D01*
X249052154Y-177752906D01*
X249062644Y-177732225D01*
X249075304Y-177705936D01*
X249089691Y-177675067D01*
X249105356Y-177640648D01*
X249121855Y-177603708D01*
X249138741Y-177565275D01*
X249155567Y-177526377D01*
X249171888Y-177488045D01*
X249187258Y-177451305D01*
X249201230Y-177417189D01*
X249213358Y-177386723D01*
X249223196Y-177360937D01*
X249230297Y-177340859D01*
X249234217Y-177327520D01*
X249234839Y-177322852D01*
X249233376Y-177317654D01*
X249229426Y-177309279D01*
X249222671Y-177297237D01*
X249212790Y-177281033D01*
X249199463Y-177260177D01*
X249182370Y-177234174D01*
X249161190Y-177202534D01*
X249135604Y-177164763D01*
X249105290Y-177120368D01*
X249069930Y-177068858D01*
X249065668Y-177062664D01*
X249036152Y-177019692D01*
X249008152Y-176978778D01*
X248982133Y-176940613D01*
X248958562Y-176905886D01*
X248937904Y-176875288D01*
X248920625Y-176849510D01*
X248907192Y-176829243D01*
X248898070Y-176815176D01*
X248893725Y-176808000D01*
X248893478Y-176807474D01*
X248891955Y-176791070D01*
X248894159Y-176783690D01*
X248898307Y-176778282D01*
X248908540Y-176766870D01*
X248924279Y-176750050D01*
X248944949Y-176728415D01*
X248969972Y-176702562D01*
X248998772Y-176673086D01*
X249030771Y-176640581D01*
X249065394Y-176605643D01*
X249102063Y-176568867D01*
X249111414Y-176559524D01*
X249154445Y-176516593D01*
X249191376Y-176479838D01*
X249222714Y-176448786D01*
X249248969Y-176422965D01*
X249270649Y-176401899D01*
X249288263Y-176385117D01*
X249302319Y-176372145D01*
X249313326Y-176362508D01*
X249321792Y-176355734D01*
X249328227Y-176351349D01*
X249333139Y-176348880D01*
X249337036Y-176347854D01*
X249338942Y-176347732D01*
X249343329Y-176348567D01*
X249350036Y-176351299D01*
X249359594Y-176356275D01*
X249372537Y-176363837D01*
X249389395Y-176374331D01*
X249410703Y-176388101D01*
X249436991Y-176405490D01*
X249468791Y-176426843D01*
X249506636Y-176452505D01*
X249551058Y-176482820D01*
X249602589Y-176518131D01*
X249607260Y-176521337D01*
X249651070Y-176551314D01*
X249692859Y-176579725D01*
X249731947Y-176606120D01*
X249767654Y-176630048D01*
X249799297Y-176651057D01*
X249826197Y-176668697D01*
X249847674Y-176682516D01*
X249863045Y-176692063D01*
X249871631Y-176696888D01*
X249872926Y-176697381D01*
X249880119Y-176696172D01*
X249894864Y-176691656D01*
X249916114Y-176684261D01*
X249942819Y-176674415D01*
X249973933Y-176662546D01*
X250008406Y-176649081D01*
X250045191Y-176634449D01*
X250083240Y-176619077D01*
X250121504Y-176603392D01*
X250158936Y-176587824D01*
X250194487Y-176572798D01*
X250227109Y-176558744D01*
X250255755Y-176546089D01*
X250279376Y-176535261D01*
X250296923Y-176526687D01*
X250307350Y-176520796D01*
X250309313Y-176519265D01*
X250311720Y-176516352D01*
X250314112Y-176512090D01*
X250316635Y-176505801D01*
X250319433Y-176496810D01*
X250322653Y-176484441D01*
X250326440Y-176468018D01*
X250330940Y-176446864D01*
X250336298Y-176420304D01*
X250342660Y-176387662D01*
X250350171Y-176348261D01*
X250358976Y-176301425D01*
X250369223Y-176246478D01*
X250376690Y-176206278D01*
X250386441Y-176154112D01*
X250395856Y-176104487D01*
X250404774Y-176058201D01*
X250413034Y-176016056D01*
X250420476Y-175978850D01*
X250426939Y-175947383D01*
X250432263Y-175922455D01*
X250436286Y-175904865D01*
X250438849Y-175895414D01*
X250439381Y-175894161D01*
X250446115Y-175883613D01*
X251073885Y-175883613D01*
X251080638Y-175894161D01*
G37*
G36*
X249938230Y-180566585D02*
G01*
X249947318Y-180569148D01*
X249982997Y-180584597D01*
X250015981Y-180607788D01*
X250044695Y-180637151D01*
X250067561Y-180671120D01*
X250081152Y-180702231D01*
X250083521Y-180709621D01*
X250085510Y-180716936D01*
X250087157Y-180725055D01*
X250088505Y-180734859D01*
X250089593Y-180747227D01*
X250090461Y-180763041D01*
X250091152Y-180783179D01*
X250091704Y-180808523D01*
X250092160Y-180839951D01*
X250092559Y-180878346D01*
X250092941Y-180924585D01*
X250093238Y-180964316D01*
X250094924Y-181195203D01*
X249963484Y-181195203D01*
X249962083Y-180990100D01*
X249961737Y-180940888D01*
X249961401Y-180900138D01*
X249961025Y-180866937D01*
X249960561Y-180840372D01*
X249959961Y-180819528D01*
X249959175Y-180803492D01*
X249958155Y-180791351D01*
X249956851Y-180782190D01*
X249955216Y-180775097D01*
X249953200Y-180769158D01*
X249950755Y-180763459D01*
X249949883Y-180761556D01*
X249932644Y-180732166D01*
X249911465Y-180711093D01*
X249885542Y-180697818D01*
X249854071Y-180691822D01*
X249841137Y-180691345D01*
X249820877Y-180691856D01*
X249806008Y-180694130D01*
X249792582Y-180699058D01*
X249781558Y-180704767D01*
X249765519Y-180715591D01*
X249751097Y-180728537D01*
X249744904Y-180735955D01*
X249738969Y-180744857D01*
X249734026Y-180753527D01*
X249729985Y-180762887D01*
X249726755Y-180773856D01*
X249724246Y-180787355D01*
X249722367Y-180804306D01*
X249721027Y-180825629D01*
X249720137Y-180852244D01*
X249719604Y-180885073D01*
X249719340Y-180925035D01*
X249719252Y-180973052D01*
X249719247Y-180996705D01*
X249719247Y-181195203D01*
X249587980Y-181195203D01*
X249587980Y-180567001D01*
X249719247Y-180567001D01*
X249719247Y-180629140D01*
X249739877Y-180610124D01*
X249772780Y-180586004D01*
X249810388Y-180569329D01*
X249851379Y-180560361D01*
X249894433Y-180559359D01*
X249938230Y-180566585D01*
G37*
G36*
X252469680Y-181550500D02*
G01*
X252506628Y-181560989D01*
X252514717Y-181564534D01*
X252531565Y-181573079D01*
X252546507Y-181581681D01*
X252555324Y-181587737D01*
X252566836Y-181597212D01*
X252521162Y-181651708D01*
X252505218Y-181670605D01*
X252491472Y-181686658D01*
X252481004Y-181698626D01*
X252474891Y-181705268D01*
X252473794Y-181706204D01*
X252469099Y-181704192D01*
X252458498Y-181698937D01*
X252445363Y-181692140D01*
X252414879Y-181680834D01*
X252383994Y-181677884D01*
X252354159Y-181682708D01*
X252326822Y-181694727D01*
X252303432Y-181713360D01*
X252285439Y-181738026D01*
X252276458Y-181759796D01*
X252274711Y-181767238D01*
X252273271Y-181777337D01*
X252272111Y-181790955D01*
X252271206Y-181808951D01*
X252270528Y-181832187D01*
X252270051Y-181861524D01*
X252269749Y-181897823D01*
X252269595Y-181941944D01*
X252269560Y-181983651D01*
X252269560Y-182184388D01*
X252138294Y-182184388D01*
X252138294Y-181556185D01*
X252269560Y-181556185D01*
X252269560Y-181617582D01*
X252287141Y-181600457D01*
X252316701Y-181577863D01*
X252351732Y-181561255D01*
X252390236Y-181550948D01*
X252430218Y-181547258D01*
X252469680Y-181550500D01*
G37*
G36*
X251787632Y-180772105D02*
G01*
X251787976Y-180821291D01*
X251788308Y-180862018D01*
X251788678Y-180895204D01*
X251789136Y-180921765D01*
X251789731Y-180942618D01*
X251790515Y-180958681D01*
X251791536Y-180970870D01*
X251792844Y-180980103D01*
X251794490Y-180987297D01*
X251796524Y-180993368D01*
X251798995Y-180999234D01*
X251800141Y-181001781D01*
X251817724Y-181030120D01*
X251841503Y-181051606D01*
X251870855Y-181065693D01*
X251874007Y-181066654D01*
X251908028Y-181072181D01*
X251940077Y-181068638D01*
X251969544Y-181056195D01*
X251995820Y-181035024D01*
X251998879Y-181031740D01*
X252006070Y-181023465D01*
X252012079Y-181015352D01*
X252017012Y-181006507D01*
X252020975Y-180996038D01*
X252024074Y-180983050D01*
X252026414Y-180966653D01*
X252028103Y-180945951D01*
X252029245Y-180920054D01*
X252029946Y-180888067D01*
X252030313Y-180849098D01*
X252030451Y-180802253D01*
X252030468Y-180765394D01*
X252030468Y-180567001D01*
X252161735Y-180567001D01*
X252161735Y-181195203D01*
X252030468Y-181195203D01*
X252030468Y-181133064D01*
X252009035Y-181152821D01*
X251978610Y-181174901D01*
X251942717Y-181191087D01*
X251903627Y-181200780D01*
X251863610Y-181203382D01*
X251831225Y-181199708D01*
X251788005Y-181186367D01*
X251749729Y-181165489D01*
X251717128Y-181137848D01*
X251690935Y-181104214D01*
X251671880Y-181065358D01*
X251660695Y-181022052D01*
X251660300Y-181019401D01*
X251659312Y-181007813D01*
X251658390Y-180987992D01*
X251657558Y-180961085D01*
X251656837Y-180928233D01*
X251656251Y-180890582D01*
X251655821Y-180849276D01*
X251655571Y-180805458D01*
X251655515Y-180776793D01*
X251655422Y-180567001D01*
X251786231Y-180567001D01*
X251787632Y-180772105D01*
G37*
G36*
X250754550Y-180560796D02*
G01*
X250804813Y-180569441D01*
X250812913Y-180571429D01*
X250840393Y-180580226D01*
X250870297Y-180592689D01*
X250899466Y-180607283D01*
X250924742Y-180622471D01*
X250937922Y-180632211D01*
X250954107Y-180645660D01*
X250919170Y-180686416D01*
X250904716Y-180703328D01*
X250892182Y-180718082D01*
X250883034Y-180728949D01*
X250878988Y-180733872D01*
X250875112Y-180736567D01*
X250868854Y-180735869D01*
X250858416Y-180731192D01*
X250841999Y-180721950D01*
X250841484Y-180721648D01*
X250802034Y-180701707D01*
X250763530Y-180689341D01*
X250722872Y-180683668D01*
X250706087Y-180683083D01*
X250682254Y-180683415D01*
X250664605Y-180685288D01*
X250650009Y-180689161D01*
X250641751Y-180692484D01*
X250621014Y-180705793D01*
X250606962Y-180723596D01*
X250600801Y-180744249D01*
X250600623Y-180748444D01*
X250603436Y-180768532D01*
X250612391Y-180784258D01*
X250628184Y-180796101D01*
X250651509Y-180804540D01*
X250683064Y-180810053D01*
X250691339Y-180810937D01*
X250715917Y-180813307D01*
X250744935Y-180816089D01*
X250773500Y-180818814D01*
X250784024Y-180819814D01*
X250822602Y-180824985D01*
X250853970Y-180832850D01*
X250880083Y-180844118D01*
X250902897Y-180859499D01*
X250910051Y-180865614D01*
X250935454Y-180894144D01*
X250953080Y-180927244D01*
X250963072Y-180965313D01*
X250965571Y-181008752D01*
X250965066Y-181020113D01*
X250959998Y-181056304D01*
X250949028Y-181086840D01*
X250931052Y-181114122D01*
X250913124Y-181133123D01*
X250883445Y-181156963D01*
X250850118Y-181175117D01*
X250810718Y-181188858D01*
X250803202Y-181190857D01*
X250772628Y-181196839D01*
X250737544Y-181200785D01*
X250701618Y-181202483D01*
X250668520Y-181201719D01*
X250649830Y-181199736D01*
X250592883Y-181186451D01*
X250537158Y-181164694D01*
X250484629Y-181135339D01*
X250453533Y-181112913D01*
X250426006Y-181091034D01*
X250517476Y-180999220D01*
X250543650Y-181020539D01*
X250579608Y-181045783D01*
X250616748Y-181063303D01*
X250656862Y-181073661D01*
X250701740Y-181077414D01*
X250724482Y-181077077D01*
X250761554Y-181073362D01*
X250790543Y-181065409D01*
X250811856Y-181052954D01*
X250825902Y-181035733D01*
X250833089Y-181013486D01*
X250833909Y-181006544D01*
X250833971Y-180989665D01*
X250830520Y-180975992D01*
X250822689Y-180965077D01*
X250809609Y-180956473D01*
X250790411Y-180949735D01*
X250764226Y-180944414D01*
X250730186Y-180940065D01*
X250699055Y-180937178D01*
X250653818Y-180932501D01*
X250616511Y-180926421D01*
X250585732Y-180918470D01*
X250560080Y-180908177D01*
X250538156Y-180895075D01*
X250518557Y-180878695D01*
X250515581Y-180875776D01*
X250494240Y-180848076D01*
X250479354Y-180815159D01*
X250471117Y-180778788D01*
X250469721Y-180740724D01*
X250475361Y-180702729D01*
X250488230Y-180666565D01*
X250491846Y-180659411D01*
X250512593Y-180630255D01*
X250540657Y-180605650D01*
X250575002Y-180585879D01*
X250614598Y-180571225D01*
X250658409Y-180561971D01*
X250705404Y-180558400D01*
X250754550Y-180560796D01*
G37*
G36*
X248509723Y-180567001D02*
G01*
X248509723Y-180629037D01*
X248529069Y-180611559D01*
X248544073Y-180600021D01*
X248563095Y-180588062D01*
X248577929Y-180580270D01*
X248620000Y-180565325D01*
X248662824Y-180559004D01*
X248705186Y-180561116D01*
X248745868Y-180571466D01*
X248783653Y-180589864D01*
X248817326Y-180616117D01*
X248819762Y-180618507D01*
X248845850Y-180649207D01*
X248863917Y-180682041D01*
X248875311Y-180719534D01*
X248876314Y-180724574D01*
X248878319Y-180740499D01*
X248879934Y-180763917D01*
X248881159Y-180793160D01*
X248881991Y-180826559D01*
X248882431Y-180862445D01*
X248882477Y-180899148D01*
X248882127Y-180935000D01*
X248881381Y-180968333D01*
X248880238Y-180997477D01*
X248878696Y-181020764D01*
X248876753Y-181036524D01*
X248876530Y-181037657D01*
X248863223Y-181079915D01*
X248842353Y-181117101D01*
X248814643Y-181148535D01*
X248780812Y-181173536D01*
X248741584Y-181191424D01*
X248703700Y-181200659D01*
X248661055Y-181202933D01*
X248619488Y-181196190D01*
X248578592Y-181180315D01*
X248537961Y-181155191D01*
X248534335Y-181152496D01*
X248509723Y-181133955D01*
X248509723Y-181613572D01*
X248529647Y-181597272D01*
X248565909Y-181573058D01*
X248604776Y-181556830D01*
X248645084Y-181548363D01*
X248685669Y-181547431D01*
X248725365Y-181553810D01*
X248763009Y-181567274D01*
X248797435Y-181587599D01*
X248827478Y-181614558D01*
X248851974Y-181647928D01*
X248858947Y-181660926D01*
X248867789Y-181681065D01*
X248875339Y-181702000D01*
X248880004Y-181719297D01*
X248880087Y-181719736D01*
X248881113Y-181730020D01*
X248882049Y-181748749D01*
X248882875Y-181774990D01*
X248883575Y-181807811D01*
X248884130Y-181846283D01*
X248884523Y-181889472D01*
X248884735Y-181936447D01*
X248884769Y-181964688D01*
X248884769Y-182184388D01*
X248753503Y-182184388D01*
X248753503Y-181985890D01*
X248753465Y-181934196D01*
X248753293Y-181890952D01*
X248752895Y-181855227D01*
X248752182Y-181826095D01*
X248751064Y-181802627D01*
X248749450Y-181783896D01*
X248747251Y-181768973D01*
X248744376Y-181756932D01*
X248740735Y-181746843D01*
X248736239Y-181737780D01*
X248730796Y-181728814D01*
X248728145Y-181724760D01*
X248709043Y-181703900D01*
X248684567Y-181689150D01*
X248656588Y-181680669D01*
X248626976Y-181678614D01*
X248597599Y-181683142D01*
X248570328Y-181694409D01*
X248549819Y-181709770D01*
X248536860Y-181724676D01*
X248525350Y-181741793D01*
X248521879Y-181748397D01*
X248519530Y-181753784D01*
X248517580Y-181759525D01*
X248515984Y-181766520D01*
X248514698Y-181775669D01*
X248513679Y-181787872D01*
X248512881Y-181804029D01*
X248512261Y-181825040D01*
X248511775Y-181851805D01*
X248511379Y-181885225D01*
X248511027Y-181926198D01*
X248510677Y-181975626D01*
X248510668Y-181976940D01*
X248509270Y-182184388D01*
X248378457Y-182184388D01*
X248378457Y-180884773D01*
X248510948Y-180884773D01*
X248512340Y-180922219D01*
X248516012Y-180957168D01*
X248521964Y-180987303D01*
X248528232Y-181006077D01*
X248544189Y-181033297D01*
X248565334Y-181053911D01*
X248589961Y-181066577D01*
X248614171Y-181071181D01*
X248641742Y-181071331D01*
X248668805Y-181067333D01*
X248691491Y-181059494D01*
X248693689Y-181058336D01*
X248712681Y-181044709D01*
X248727659Y-181026573D01*
X248738916Y-181003059D01*
X248746744Y-180973296D01*
X248751436Y-180936415D01*
X248753285Y-180891545D01*
X248753340Y-180881102D01*
X248751724Y-180831891D01*
X248746672Y-180790975D01*
X248737882Y-180757813D01*
X248725048Y-180731861D01*
X248707867Y-180712579D01*
X248686036Y-180699424D01*
X248659249Y-180691854D01*
X248646310Y-180690197D01*
X248611465Y-180690850D01*
X248581433Y-180699479D01*
X248556413Y-180715974D01*
X248536602Y-180740223D01*
X248528189Y-180756390D01*
X248520457Y-180780639D01*
X248515006Y-180811665D01*
X248511837Y-180847149D01*
X248510948Y-180884773D01*
X248378457Y-180884773D01*
X248378457Y-180567001D01*
X248509723Y-180567001D01*
G37*
G36*
X248985376Y-180739019D02*
G01*
X249003174Y-180693741D01*
X249018842Y-180667813D01*
X249040166Y-180641327D01*
X249064782Y-180616681D01*
X249090332Y-180596273D01*
X249111376Y-180583879D01*
X249156511Y-180567425D01*
X249202609Y-180559413D01*
X249248579Y-180559481D01*
X249293331Y-180567261D01*
X249335773Y-180582390D01*
X249374813Y-180604502D01*
X249409361Y-180633233D01*
X249438326Y-180668219D01*
X249456107Y-180699129D01*
X249466356Y-180722167D01*
X249473932Y-180743896D01*
X249479201Y-180766411D01*
X249482531Y-180791805D01*
X249484288Y-180822173D01*
X249484840Y-180859609D01*
X249484843Y-180863211D01*
X249484843Y-180932671D01*
X249095732Y-180932671D01*
X249095732Y-180942912D01*
X249098226Y-180961472D01*
X249104804Y-180983886D01*
X249114107Y-181006371D01*
X249124780Y-181025144D01*
X249125696Y-181026433D01*
X249141758Y-181043771D01*
X249162015Y-181059011D01*
X249166426Y-181061593D01*
X249178593Y-181067964D01*
X249189109Y-181072046D01*
X249200637Y-181074333D01*
X249215840Y-181075324D01*
X249237380Y-181075513D01*
X249241063Y-181075503D01*
X249270893Y-181074505D01*
X249294480Y-181071069D01*
X249314841Y-181064219D01*
X249334997Y-181052976D01*
X249355133Y-181038539D01*
X249367762Y-181029598D01*
X249377658Y-181023888D01*
X249382045Y-181022654D01*
X249388414Y-181026605D01*
X249399534Y-181035159D01*
X249413699Y-181046826D01*
X249429204Y-181060119D01*
X249444343Y-181073547D01*
X249457410Y-181085623D01*
X249466699Y-181094857D01*
X249470504Y-181099760D01*
X249470521Y-181099877D01*
X249467093Y-181106655D01*
X249457554Y-181117096D01*
X249443651Y-181129751D01*
X249427131Y-181143168D01*
X249409740Y-181155896D01*
X249393226Y-181166485D01*
X249384867Y-181171011D01*
X249340358Y-181188291D01*
X249291477Y-181199104D01*
X249241005Y-181203041D01*
X249191724Y-181199695D01*
X249190455Y-181199503D01*
X249141301Y-181187813D01*
X249097983Y-181168831D01*
X249060593Y-181142676D01*
X249029226Y-181109469D01*
X249003975Y-181069330D01*
X248984933Y-181022379D01*
X248972195Y-180968736D01*
X248966012Y-180911575D01*
X248966000Y-180850504D01*
X248970158Y-180813619D01*
X249095732Y-180813619D01*
X249095732Y-180824845D01*
X249354883Y-180824845D01*
X249352107Y-180801410D01*
X249343858Y-180765916D01*
X249328609Y-180735746D01*
X249307139Y-180711636D01*
X249280228Y-180694326D01*
X249248656Y-180684553D01*
X249226682Y-180682598D01*
X249194667Y-180686279D01*
X249164649Y-180697302D01*
X249139074Y-180714600D01*
X249128506Y-180725522D01*
X249118951Y-180740512D01*
X249109585Y-180760834D01*
X249101749Y-180782885D01*
X249096785Y-180803057D01*
X249095732Y-180813619D01*
X248970158Y-180813619D01*
X248972538Y-180792501D01*
X248985376Y-180739019D01*
G37*
G36*
X251503539Y-181948981D02*
G01*
X251517119Y-181912220D01*
X251537683Y-181879665D01*
X251553262Y-181862794D01*
X251571211Y-181847681D01*
X251590152Y-181835568D01*
X251611326Y-181826163D01*
X251635973Y-181819171D01*
X251665335Y-181814298D01*
X251700653Y-181811250D01*
X251743166Y-181809732D01*
X251778484Y-181809423D01*
X251875762Y-181809342D01*
X251875762Y-181771686D01*
X251874012Y-181741170D01*
X251868208Y-181717136D01*
X251857524Y-181698927D01*
X251841130Y-181685886D01*
X251818198Y-181677353D01*
X251787899Y-181672673D01*
X251749405Y-181671187D01*
X251749184Y-181671186D01*
X251724641Y-181671361D01*
X251707056Y-181672243D01*
X251694015Y-181674175D01*
X251683106Y-181677499D01*
X251673021Y-181682012D01*
X251658262Y-181690601D01*
X251645930Y-181700041D01*
X251641874Y-181704269D01*
X251634530Y-181712254D01*
X251629357Y-181715580D01*
X251629353Y-181715580D01*
X251624480Y-181712929D01*
X251614026Y-181705836D01*
X251599717Y-181695595D01*
X251583277Y-181683497D01*
X251566432Y-181670834D01*
X251550906Y-181658899D01*
X251538425Y-181648983D01*
X251530713Y-181642379D01*
X251529075Y-181640467D01*
X251532093Y-181633887D01*
X251540646Y-181623480D01*
X251552846Y-181611145D01*
X251566803Y-181598781D01*
X251580628Y-181588286D01*
X251581762Y-181587524D01*
X251608474Y-181572059D01*
X251636352Y-181560941D01*
X251667675Y-181553548D01*
X251704720Y-181549255D01*
X251725743Y-181548090D01*
X251785362Y-181548538D01*
X251837930Y-181554947D01*
X251883396Y-181567287D01*
X251921707Y-181585525D01*
X251952812Y-181609632D01*
X251976659Y-181639575D01*
X251993197Y-181675323D01*
X252002215Y-181715580D01*
X252003154Y-181727557D01*
X252004034Y-181747777D01*
X252004833Y-181775107D01*
X252005531Y-181808413D01*
X252006105Y-181846561D01*
X252006537Y-181888420D01*
X252006804Y-181932855D01*
X252006883Y-181967564D01*
X252007028Y-182184388D01*
X251875762Y-182184388D01*
X251875762Y-182132099D01*
X251863827Y-182146284D01*
X251852962Y-182156151D01*
X251837382Y-182166808D01*
X251825150Y-182173560D01*
X251813763Y-182178833D01*
X251803428Y-182182513D01*
X251792026Y-182184928D01*
X251777435Y-182186405D01*
X251757536Y-182187271D01*
X251732776Y-182187808D01*
X251699211Y-182187922D01*
X251673321Y-182186854D01*
X251653462Y-182184499D01*
X251641849Y-182181910D01*
X251600543Y-182166057D01*
X251565491Y-182143524D01*
X251537138Y-182114795D01*
X251515930Y-182080353D01*
X251502312Y-182040680D01*
X251499747Y-182027677D01*
X251497781Y-181992305D01*
X251622623Y-181992305D01*
X251626788Y-182016536D01*
X251639197Y-182036444D01*
X251659661Y-182051803D01*
X251678863Y-182059784D01*
X251694922Y-182063094D01*
X251717341Y-182065373D01*
X251743154Y-182066556D01*
X251769395Y-182066578D01*
X251793097Y-182065375D01*
X251811293Y-182062881D01*
X251812110Y-182062697D01*
X251834251Y-182055110D01*
X251850808Y-182043268D01*
X251862493Y-182026040D01*
X251870019Y-182002293D01*
X251874101Y-181970895D01*
X251874570Y-181963534D01*
X251877180Y-181916181D01*
X251781537Y-181917998D01*
X251748455Y-181918713D01*
X251723239Y-181919532D01*
X251704382Y-181920609D01*
X251690373Y-181922095D01*
X251679705Y-181924143D01*
X251670868Y-181926906D01*
X251663751Y-181929893D01*
X251642086Y-181943976D01*
X251628453Y-181962887D01*
X251622801Y-181986703D01*
X251622623Y-181992305D01*
X251497781Y-181992305D01*
X251497547Y-181988087D01*
X251503539Y-181948981D01*
G37*
G36*
X247760715Y-180821265D02*
G01*
X247762218Y-180792146D01*
X247764578Y-180768718D01*
X247766197Y-180759212D01*
X247780470Y-180712134D01*
X247802030Y-180670440D01*
X247830178Y-180634604D01*
X247864214Y-180605101D01*
X247903439Y-180582405D01*
X247947152Y-180566989D01*
X247994654Y-180559328D01*
X248045246Y-180559897D01*
X248058234Y-180561372D01*
X248105176Y-180572124D01*
X248147929Y-180590848D01*
X248185717Y-180616820D01*
X248217763Y-180649319D01*
X248243289Y-180687624D01*
X248261517Y-180731012D01*
X248268039Y-180756235D01*
X248271068Y-180776968D01*
X248273372Y-180804764D01*
X248274927Y-180837338D01*
X248275706Y-180872402D01*
X248275683Y-180907669D01*
X248274831Y-180940855D01*
X248273124Y-180969671D01*
X248270731Y-180990645D01*
X248258733Y-181038706D01*
X248239162Y-181081834D01*
X248212538Y-181119423D01*
X248179377Y-181150868D01*
X248140198Y-181175564D01*
X248098306Y-181192095D01*
X248073640Y-181197401D01*
X248043652Y-181200877D01*
X248012259Y-181202284D01*
X247983380Y-181201385D01*
X247970362Y-181199880D01*
X247923513Y-181187983D01*
X247881128Y-181168085D01*
X247843856Y-181140750D01*
X247812341Y-181106541D01*
X247787230Y-181066019D01*
X247771212Y-181026433D01*
X247767707Y-181010149D01*
X247764812Y-180986388D01*
X247762561Y-180957031D01*
X247760991Y-180923958D01*
X247760136Y-180889053D01*
X247760098Y-180876462D01*
X247887404Y-180876462D01*
X247888054Y-180912580D01*
X247890917Y-180946658D01*
X247896007Y-180976483D01*
X247903340Y-180999842D01*
X247904990Y-181003370D01*
X247924065Y-181032195D01*
X247948293Y-181053222D01*
X247977402Y-181066303D01*
X248011123Y-181071291D01*
X248028081Y-181070830D01*
X248047441Y-181067770D01*
X248066622Y-181062288D01*
X248074961Y-181058786D01*
X248097419Y-181045333D01*
X248113802Y-181029504D01*
X248127375Y-181008068D01*
X248128613Y-181005668D01*
X248136949Y-180982795D01*
X248142909Y-180953095D01*
X248146498Y-180918811D01*
X248147717Y-180882187D01*
X248146570Y-180845465D01*
X248143059Y-180810889D01*
X248137187Y-180780701D01*
X248128956Y-180757145D01*
X248128311Y-180755839D01*
X248109651Y-180728701D01*
X248084997Y-180708122D01*
X248057645Y-180695789D01*
X248023082Y-180689752D01*
X247990077Y-180692157D01*
X247959863Y-180702513D01*
X247933674Y-180720330D01*
X247912744Y-180745116D01*
X247906639Y-180755839D01*
X247898585Y-180777991D01*
X247892684Y-180806955D01*
X247888953Y-180840516D01*
X247887404Y-180876462D01*
X247760098Y-180876462D01*
X247760032Y-180854195D01*
X247760715Y-180821265D01*
G37*
G36*
X250037074Y-181800920D02*
G01*
X250038381Y-181767645D01*
X250040161Y-181739106D01*
X250042404Y-181717043D01*
X250044134Y-181706864D01*
X250057448Y-181666780D01*
X250077741Y-181631825D01*
X250103924Y-181602350D01*
X250134908Y-181578707D01*
X250169604Y-181561248D01*
X250206924Y-181550326D01*
X250245778Y-181546291D01*
X250285077Y-181549496D01*
X250323733Y-181560293D01*
X250360656Y-181579033D01*
X250384632Y-181596846D01*
X250395512Y-181605734D01*
X250403382Y-181611382D01*
X250405623Y-181612442D01*
X250406286Y-181607936D01*
X250406892Y-181595147D01*
X250407422Y-181575167D01*
X250407856Y-181549088D01*
X250408174Y-181518003D01*
X250408357Y-181483006D01*
X250408394Y-181457736D01*
X250408394Y-181303029D01*
X250539660Y-181303029D01*
X250539660Y-182184388D01*
X250408394Y-182184388D01*
X250408394Y-182122352D01*
X250389853Y-182139102D01*
X250356643Y-182162983D01*
X250318417Y-182179089D01*
X250275007Y-182187478D01*
X250244632Y-182188824D01*
X250213778Y-182187074D01*
X250186785Y-182182553D01*
X250178251Y-182180185D01*
X250140251Y-182163260D01*
X250107042Y-182138782D01*
X250079415Y-182107679D01*
X250058158Y-182070877D01*
X250044058Y-182029301D01*
X250042130Y-182020305D01*
X250039808Y-182002595D01*
X250038038Y-181977441D01*
X250036809Y-181946584D01*
X250036109Y-181911763D01*
X250035927Y-181874719D01*
X250036084Y-181856699D01*
X250165456Y-181856699D01*
X250165897Y-181889139D01*
X250167560Y-181921057D01*
X250170339Y-181949924D01*
X250174127Y-181973207D01*
X250176285Y-181981694D01*
X250189700Y-182011023D01*
X250209891Y-182034420D01*
X250235880Y-182050973D01*
X250258375Y-182058302D01*
X250280162Y-182060266D01*
X250305160Y-182058530D01*
X250328910Y-182053629D01*
X250343430Y-182048092D01*
X250364618Y-182032673D01*
X250382786Y-182010665D01*
X250395748Y-181984818D01*
X250397209Y-181980456D01*
X250401060Y-181962621D01*
X250404107Y-181937871D01*
X250406259Y-181908637D01*
X250407426Y-181877354D01*
X250407518Y-181846454D01*
X250406444Y-181818371D01*
X250404115Y-181795537D01*
X250404075Y-181795277D01*
X250395338Y-181756775D01*
X250382177Y-181726359D01*
X250364224Y-181703664D01*
X250341113Y-181688324D01*
X250312475Y-181679973D01*
X250286504Y-181678075D01*
X250253470Y-181681264D01*
X250226241Y-181691078D01*
X250204459Y-181707891D01*
X250187763Y-181732077D01*
X250175792Y-181764011D01*
X250168666Y-181800385D01*
X250166344Y-181826270D01*
X250165456Y-181856699D01*
X250036084Y-181856699D01*
X250036253Y-181837192D01*
X250037074Y-181800920D01*
G37*
G36*
X249923987Y-181548520D02*
G01*
X249965125Y-181557065D01*
X250004155Y-181573389D01*
X250030193Y-181590020D01*
X250033164Y-181593010D01*
X250033724Y-181596903D01*
X250031144Y-181602918D01*
X250024695Y-181612279D01*
X250013648Y-181626205D01*
X249997274Y-181645918D01*
X249995694Y-181647804D01*
X249979980Y-181666518D01*
X249966281Y-181682773D01*
X249955793Y-181695158D01*
X249949706Y-181702262D01*
X249948833Y-181703244D01*
X249943054Y-181703335D01*
X249931460Y-181699675D01*
X249916449Y-181693030D01*
X249915778Y-181692696D01*
X249883862Y-181681310D01*
X249852093Y-181678402D01*
X249821813Y-181683562D01*
X249794369Y-181696380D01*
X249771104Y-181716446D01*
X249754027Y-181741993D01*
X249751889Y-181746785D01*
X249750107Y-181752358D01*
X249748643Y-181759588D01*
X249747457Y-181769347D01*
X249746511Y-181782513D01*
X249745764Y-181799959D01*
X249745179Y-181822559D01*
X249744715Y-181851190D01*
X249744333Y-181886726D01*
X249743995Y-181930041D01*
X249743721Y-181972252D01*
X249742412Y-182184388D01*
X249611421Y-182184388D01*
X249611421Y-181556185D01*
X249742687Y-181556185D01*
X249742687Y-181612550D01*
X249768044Y-181591897D01*
X249802769Y-181569440D01*
X249841324Y-181554717D01*
X249882225Y-181547740D01*
X249923987Y-181548520D01*
G37*
G36*
X248971800Y-181975845D02*
G01*
X248972616Y-181959079D01*
X248974650Y-181946132D01*
X248978390Y-181934231D01*
X248984324Y-181920597D01*
X248986272Y-181916458D01*
X249007438Y-181881577D01*
X249034550Y-181853895D01*
X249067837Y-181833184D01*
X249069239Y-181832526D01*
X249086934Y-181825171D01*
X249105488Y-181819478D01*
X249126374Y-181815259D01*
X249151064Y-181812327D01*
X249181031Y-181810496D01*
X249217748Y-181809579D01*
X249251611Y-181809377D01*
X249344200Y-181809342D01*
X249344183Y-181765977D01*
X249343053Y-181737806D01*
X249339105Y-181717013D01*
X249331464Y-181701802D01*
X249319257Y-181690377D01*
X249303055Y-181681586D01*
X249291070Y-181676989D01*
X249278081Y-181673991D01*
X249261662Y-181672265D01*
X249239384Y-181671485D01*
X249226999Y-181671356D01*
X249195664Y-181671858D01*
X249171566Y-181674142D01*
X249152645Y-181678755D01*
X249136842Y-181686245D01*
X249122099Y-181697157D01*
X249118737Y-181700123D01*
X249105859Y-181710018D01*
X249096793Y-181713321D01*
X249094737Y-181712777D01*
X249084117Y-181705742D01*
X249069847Y-181695297D01*
X249053625Y-181682812D01*
X249037149Y-181669657D01*
X249022116Y-181657200D01*
X249010225Y-181646812D01*
X249003174Y-181639862D01*
X249001971Y-181637949D01*
X249005574Y-181630806D01*
X249015133Y-181620112D01*
X249028771Y-181607471D01*
X249044611Y-181594488D01*
X249060776Y-181582767D01*
X249075390Y-181573910D01*
X249078945Y-181572164D01*
X249109260Y-181560435D01*
X249141215Y-181552695D01*
X249176965Y-181548620D01*
X249218666Y-181547883D01*
X249236375Y-181548405D01*
X249264849Y-181550082D01*
X249291672Y-181552643D01*
X249314116Y-181555784D01*
X249327497Y-181558620D01*
X249370152Y-181574280D01*
X249406142Y-181595675D01*
X249434998Y-181622429D01*
X249456248Y-181654164D01*
X249461888Y-181666592D01*
X249473123Y-181694484D01*
X249475859Y-182184388D01*
X249344200Y-182184388D01*
X249344200Y-182136710D01*
X249323165Y-182155226D01*
X249304524Y-182168911D01*
X249283362Y-182178658D01*
X249257972Y-182184912D01*
X249226644Y-182188114D01*
X249193874Y-182188767D01*
X249166814Y-182187948D01*
X249141711Y-182185983D01*
X249121592Y-182183145D01*
X249115011Y-182181666D01*
X249073666Y-182166238D01*
X249037923Y-182143968D01*
X249008538Y-182115460D01*
X248986265Y-182081321D01*
X248983960Y-182076562D01*
X248978460Y-182063664D01*
X248974907Y-182051539D01*
X248972878Y-182037512D01*
X248971948Y-182018906D01*
X248971734Y-182000857D01*
X249092357Y-182000857D01*
X249099564Y-182021170D01*
X249114214Y-182039428D01*
X249136251Y-182054158D01*
X249143991Y-182057549D01*
X249163037Y-182062578D01*
X249187934Y-182065678D01*
X249216040Y-182066883D01*
X249244714Y-182066228D01*
X249271314Y-182063749D01*
X249293200Y-182059481D01*
X249304352Y-182055422D01*
X249321193Y-182043845D01*
X249333043Y-182027715D01*
X249340416Y-182005807D01*
X249343823Y-181976898D01*
X249344200Y-181960222D01*
X249344200Y-181916189D01*
X249251611Y-181918160D01*
X249217744Y-181919026D01*
X249191802Y-181920083D01*
X249172333Y-181921464D01*
X249157887Y-181923304D01*
X249147013Y-181925735D01*
X249139080Y-181928541D01*
X249115954Y-181942332D01*
X249100496Y-181959964D01*
X249092649Y-181979964D01*
X249092357Y-182000857D01*
X248971734Y-182000857D01*
X248971714Y-181999209D01*
X248971800Y-181975845D01*
G37*
G36*
X251036720Y-180831189D02*
G01*
X251039434Y-180789144D01*
X251044442Y-180753579D01*
X251052142Y-180723108D01*
X251062934Y-180696341D01*
X251077217Y-180671892D01*
X251095392Y-180648371D01*
X251106409Y-180636157D01*
X251141602Y-180604816D01*
X251180606Y-180581848D01*
X251224167Y-180566876D01*
X251255064Y-180561282D01*
X251306935Y-180558892D01*
X251355643Y-180564875D01*
X251400551Y-180578836D01*
X251441025Y-180600382D01*
X251476427Y-180629121D01*
X251506122Y-180664657D01*
X251529473Y-180706599D01*
X251541323Y-180738316D01*
X251544105Y-180748523D01*
X251546231Y-180759726D01*
X251547784Y-180773312D01*
X251548847Y-180790666D01*
X251549506Y-180813175D01*
X251549842Y-180842223D01*
X251549940Y-180879197D01*
X251549941Y-180881102D01*
X251549851Y-180918472D01*
X251549528Y-180947853D01*
X251548886Y-180970631D01*
X251547842Y-180988191D01*
X251546314Y-181001919D01*
X251544216Y-181013201D01*
X251541466Y-181023423D01*
X251541323Y-181023888D01*
X251527831Y-181060195D01*
X251510852Y-181090758D01*
X251488271Y-181119107D01*
X251477760Y-181130055D01*
X251445313Y-181158183D01*
X251411113Y-181178731D01*
X251373349Y-181192472D01*
X251330209Y-181200177D01*
X251309296Y-181201841D01*
X251286992Y-181202376D01*
X251264861Y-181201769D01*
X251247082Y-181200157D01*
X251244497Y-181199740D01*
X251197277Y-181186812D01*
X251154978Y-181166145D01*
X251118188Y-181138315D01*
X251087496Y-181103898D01*
X251063489Y-181063471D01*
X251046756Y-181017610D01*
X251043174Y-181002551D01*
X251039824Y-180981274D01*
X251037540Y-180953919D01*
X251036256Y-180919362D01*
X251036081Y-180900557D01*
X251164188Y-180900557D01*
X251167872Y-180946725D01*
X251176276Y-180985400D01*
X251189351Y-181016362D01*
X251207044Y-181039391D01*
X251210732Y-181042691D01*
X251237643Y-181059503D01*
X251268601Y-181069202D01*
X251301246Y-181071520D01*
X251333215Y-181066187D01*
X251351927Y-181058786D01*
X251374512Y-181045237D01*
X251390951Y-181029319D01*
X251404444Y-181007887D01*
X251405209Y-181006398D01*
X251413438Y-180983781D01*
X251419349Y-180954304D01*
X251422944Y-180920193D01*
X251424226Y-180883670D01*
X251423198Y-180846962D01*
X251419863Y-180812293D01*
X251414223Y-180781886D01*
X251406280Y-180757968D01*
X251404907Y-180755109D01*
X251386708Y-180728731D01*
X251363101Y-180708876D01*
X251335618Y-180695767D01*
X251305793Y-180689626D01*
X251275159Y-180690676D01*
X251245251Y-180699138D01*
X251217601Y-180715234D01*
X251205144Y-180726173D01*
X251191674Y-180741496D01*
X251181673Y-180757898D01*
X251174523Y-180777256D01*
X251169603Y-180801448D01*
X251166295Y-180832352D01*
X251165278Y-180847117D01*
X251164188Y-180900557D01*
X251036081Y-180900557D01*
X251035899Y-180881102D01*
X251036720Y-180831189D01*
G37*
G36*
X256233283Y-180389535D02*
G01*
X256326170Y-180400892D01*
X256368168Y-180423359D01*
X256375042Y-180446392D01*
X256355290Y-180482575D01*
X256285985Y-180501204D01*
X256155042Y-180506392D01*
X255935042Y-180506392D01*
X255935042Y-180786392D01*
X256135042Y-180786392D01*
X256260814Y-180792815D01*
X256322243Y-180815054D01*
X256335042Y-180846392D01*
X256313631Y-180884123D01*
X256239501Y-180902552D01*
X256135042Y-180906392D01*
X255935042Y-180906392D01*
X255935042Y-181266392D01*
X256155042Y-181266392D01*
X256287715Y-181271778D01*
X256356020Y-181290680D01*
X256375042Y-181326392D01*
X256359326Y-181358040D01*
X256302537Y-181376617D01*
X256190204Y-181385017D01*
X256075042Y-181386392D01*
X255775042Y-181386392D01*
X255775042Y-180386392D01*
X256075042Y-180386392D01*
X256233283Y-180389535D01*
G37*
G36*
X260538948Y-180840235D02*
G01*
X260569453Y-180665541D01*
X260635387Y-180520207D01*
X260733503Y-180427215D01*
X260838881Y-180395313D01*
X260952235Y-180395335D01*
X261044723Y-180423524D01*
X261087043Y-180473256D01*
X261078228Y-180521073D01*
X261018012Y-180518758D01*
X260873076Y-180513281D01*
X260759581Y-180572894D01*
X260701119Y-180666150D01*
X260685110Y-180750177D01*
X260701329Y-180789046D01*
X260739822Y-180767944D01*
X260755042Y-180746392D01*
X260819580Y-180708988D01*
X260919746Y-180712089D01*
X261025219Y-180750908D01*
X261088069Y-180798970D01*
X261159666Y-180926116D01*
X261176958Y-181076619D01*
X261140288Y-181219786D01*
X261082463Y-181299419D01*
X260964555Y-181367084D01*
X260829436Y-181383538D01*
X260708896Y-181347163D01*
X260674549Y-181320184D01*
X260590041Y-181189587D01*
X260555368Y-181059841D01*
X260696617Y-181059841D01*
X260713955Y-181168382D01*
X260743042Y-181218392D01*
X260838650Y-181266021D01*
X260940893Y-181249458D01*
X261018130Y-181174760D01*
X261023054Y-181164780D01*
X261048122Y-181043890D01*
X261021239Y-180936673D01*
X260956710Y-180858827D01*
X260868838Y-180826052D01*
X260771928Y-180854046D01*
X260752840Y-180868219D01*
X260709949Y-180946530D01*
X260696617Y-181059841D01*
X260555368Y-181059841D01*
X260545325Y-181022261D01*
X260538948Y-180840235D01*
G37*
G36*
X259595042Y-177126392D02*
G01*
X259607667Y-177236065D01*
X259620292Y-177345739D01*
X257307667Y-177356065D01*
X254995042Y-177366392D01*
X254973776Y-179586392D01*
X260415042Y-179586392D01*
X260415042Y-177106392D01*
X260656092Y-177106392D01*
X260635042Y-179846392D01*
X257711966Y-179856649D01*
X257235480Y-179857961D01*
X256782410Y-179858507D01*
X256359100Y-179858324D01*
X255971890Y-179857447D01*
X255627121Y-179855913D01*
X255331136Y-179853758D01*
X255090276Y-179851016D01*
X254910882Y-179847724D01*
X254799296Y-179843918D01*
X254761966Y-179839983D01*
X254755587Y-179794971D01*
X254749748Y-179679411D01*
X254744632Y-179502755D01*
X254740425Y-179274453D01*
X254737310Y-179003958D01*
X254735471Y-178700719D01*
X254735042Y-178459415D01*
X254735042Y-177105772D01*
X259595042Y-177126392D01*
G37*
G36*
X258524600Y-180820692D02*
G01*
X258535042Y-180863459D01*
X258508688Y-180931844D01*
X258452109Y-180946392D01*
X258388359Y-180924839D01*
X258382568Y-180876851D01*
X258419751Y-180812110D01*
X258477406Y-180792485D01*
X258524600Y-180820692D01*
G37*
G36*
X255132811Y-180386392D02*
G01*
X255283674Y-180399329D01*
X255393887Y-180445665D01*
X255442811Y-180482928D01*
X255500068Y-180538144D01*
X255533636Y-180596336D01*
X255549780Y-180680031D01*
X255554767Y-180811756D01*
X255555042Y-180886392D01*
X255552860Y-181044855D01*
X255542140Y-181145877D01*
X255516614Y-181211984D01*
X255470016Y-181265704D01*
X255442811Y-181289855D01*
X255339230Y-181356153D01*
X255212329Y-181383656D01*
X255132811Y-181386392D01*
X254935042Y-181386392D01*
X254935042Y-180886392D01*
X255095042Y-180886392D01*
X255096358Y-181063292D01*
X255102295Y-181174973D01*
X255115834Y-181236197D01*
X255139955Y-181261727D01*
X255171770Y-181266392D01*
X255271914Y-181253803D01*
X255311336Y-181242279D01*
X255367486Y-181183770D01*
X255411519Y-181071944D01*
X255436756Y-180933300D01*
X255436520Y-180794333D01*
X255431923Y-180763836D01*
X255377568Y-180609418D01*
X255285003Y-180524755D01*
X255192184Y-180506392D01*
X255147178Y-180509353D01*
X255118794Y-180528226D01*
X255103200Y-180577993D01*
X255096567Y-180673636D01*
X255095064Y-180830138D01*
X255095042Y-180886392D01*
X254935042Y-180886392D01*
X254935042Y-180386392D01*
X255132811Y-180386392D01*
G37*
G36*
X260194702Y-176758638D02*
G01*
X260215042Y-176781306D01*
X260206919Y-176827213D01*
X260184254Y-176939399D01*
X260149596Y-177105989D01*
X260105498Y-177315110D01*
X260054511Y-177554887D01*
X259999187Y-177813448D01*
X259942077Y-178078919D01*
X259885733Y-178339425D01*
X259832707Y-178583093D01*
X259785549Y-178798049D01*
X259746811Y-178972419D01*
X259719046Y-179094329D01*
X259708982Y-179136295D01*
X259667735Y-179208658D01*
X259600167Y-179218535D01*
X259558441Y-179202302D01*
X259523265Y-179157782D01*
X259488490Y-179071108D01*
X259447968Y-178928411D01*
X259417424Y-178806392D01*
X259319807Y-178406392D01*
X259247635Y-178726392D01*
X259211003Y-178888454D01*
X259178937Y-179029678D01*
X259157290Y-179124312D01*
X259154490Y-179136392D01*
X259110284Y-179201268D01*
X259038126Y-179229641D01*
X258973139Y-179210581D01*
X258961682Y-179196392D01*
X258949755Y-179148059D01*
X258929142Y-179035341D01*
X258902349Y-178873067D01*
X258871883Y-178676064D01*
X258858574Y-178586392D01*
X258826809Y-178372851D01*
X258797505Y-178181580D01*
X258773313Y-178029474D01*
X258756884Y-177933425D01*
X258753311Y-177915513D01*
X258763074Y-177835472D01*
X258815165Y-177791013D01*
X258882618Y-177800907D01*
X258898858Y-177814208D01*
X258918231Y-177866790D01*
X258943092Y-177982234D01*
X258970329Y-178143864D01*
X258996833Y-178335004D01*
X258998516Y-178348532D01*
X259027497Y-178569691D01*
X259052742Y-178735891D01*
X259073092Y-178841502D01*
X259087390Y-178880892D01*
X259094478Y-178848429D01*
X259095042Y-178817965D01*
X259103495Y-178750133D01*
X259125747Y-178629551D01*
X259157134Y-178481307D01*
X259159876Y-178469108D01*
X259195069Y-178321826D01*
X259224050Y-178237097D01*
X259256472Y-178199061D01*
X259301989Y-178191859D01*
X259327222Y-178194201D01*
X259380245Y-178207290D01*
X259417631Y-178242517D01*
X259448101Y-178316566D01*
X259480374Y-178446118D01*
X259495525Y-178516196D01*
X259528500Y-178663778D01*
X259557113Y-178778110D01*
X259576243Y-178839079D01*
X259578903Y-178843586D01*
X259591372Y-178810875D01*
X259617614Y-178709714D01*
X259655347Y-178550023D01*
X259702290Y-178341725D01*
X259756159Y-178094741D01*
X259814674Y-177818992D01*
X259815765Y-177813782D01*
X259881928Y-177499512D01*
X259934743Y-177254840D01*
X259976777Y-177070964D01*
X260010598Y-176939079D01*
X260038775Y-176850383D01*
X260063875Y-176796074D01*
X260088467Y-176767348D01*
X260115118Y-176755403D01*
X260125042Y-176753609D01*
X260194702Y-176758638D01*
G37*
G36*
X260124348Y-180389991D02*
G01*
X260150137Y-180408986D01*
X260165254Y-180457819D01*
X260172547Y-180550384D01*
X260174860Y-180700579D01*
X260175042Y-180826392D01*
X260175042Y-181266392D01*
X260275042Y-181266392D01*
X260355469Y-181287255D01*
X260375042Y-181326392D01*
X260358575Y-181358991D01*
X260299366Y-181377648D01*
X260182701Y-181385517D01*
X260095042Y-181386392D01*
X259942913Y-181382863D01*
X259855845Y-181370175D01*
X259819124Y-181345176D01*
X259815042Y-181326392D01*
X259850359Y-181279022D01*
X259936543Y-181266392D01*
X260058044Y-181266392D01*
X260035042Y-180526392D01*
X259925042Y-180539254D01*
X259838328Y-180533344D01*
X259815042Y-180493919D01*
X259851788Y-180438684D01*
X259950347Y-180400706D01*
X260085042Y-180386938D01*
X260124348Y-180389991D01*
G37*
G36*
X258172727Y-180622391D02*
G01*
X258203715Y-180549596D01*
X258252014Y-180489614D01*
X258380920Y-180402266D01*
X258528388Y-180392553D01*
X258593249Y-180411239D01*
X258678466Y-180483343D01*
X258736723Y-180610194D01*
X258768021Y-180771218D01*
X258772361Y-180945841D01*
X258749742Y-181113489D01*
X258700163Y-181253587D01*
X258623626Y-181345563D01*
X258593249Y-181361544D01*
X258439384Y-181383945D01*
X258302359Y-181328315D01*
X258252014Y-181283169D01*
X258200430Y-181217863D01*
X258171023Y-181143422D01*
X258157873Y-181035616D01*
X258155042Y-180886392D01*
X258295042Y-180886392D01*
X258302216Y-181026144D01*
X258320631Y-181142285D01*
X258336449Y-181189021D01*
X258408530Y-181254974D01*
X258501416Y-181256094D01*
X258580144Y-181200244D01*
X258614016Y-181115529D01*
X258632604Y-180972259D01*
X258635042Y-180886392D01*
X258620347Y-180692861D01*
X258574828Y-180569558D01*
X258496330Y-180512022D01*
X258451551Y-180506392D01*
X258370092Y-180540663D01*
X258318614Y-180644924D01*
X258296222Y-180821349D01*
X258295042Y-180886392D01*
X258155042Y-180886392D01*
X258158476Y-180726580D01*
X258172727Y-180622391D01*
G37*
G36*
X257724600Y-180820692D02*
G01*
X257735042Y-180863459D01*
X257708688Y-180931844D01*
X257652109Y-180946392D01*
X257588359Y-180924839D01*
X257582568Y-180876851D01*
X257619751Y-180812110D01*
X257677406Y-180792485D01*
X257724600Y-180820692D01*
G37*
G36*
X256924600Y-180820692D02*
G01*
X256935042Y-180863459D01*
X256908688Y-180931844D01*
X256852109Y-180946392D01*
X256788359Y-180924839D01*
X256782568Y-180876851D01*
X256819751Y-180812110D01*
X256877406Y-180792485D01*
X256924600Y-180820692D01*
G37*
G36*
X258615042Y-179226392D02*
G01*
X258515042Y-179226392D01*
X258466617Y-179223270D01*
X258437063Y-179203345D01*
X258421721Y-179150780D01*
X258415934Y-179049734D01*
X258415042Y-178886392D01*
X258415042Y-178546392D01*
X257895042Y-178546392D01*
X257895042Y-178886392D01*
X257893597Y-179051615D01*
X257886765Y-179152527D01*
X257870802Y-179204798D01*
X257841962Y-179224101D01*
X257813786Y-179226392D01*
X257738439Y-179204111D01*
X257712755Y-179174856D01*
X257706756Y-179119107D01*
X257702845Y-178997987D01*
X257701199Y-178826100D01*
X257702001Y-178618051D01*
X257704010Y-178464856D01*
X257708426Y-178221761D01*
X257713417Y-178047052D01*
X257720730Y-177929127D01*
X257732111Y-177856381D01*
X257749307Y-177817209D01*
X257774065Y-177800008D01*
X257805042Y-177793609D01*
X257850653Y-177791581D01*
X257877493Y-177812252D01*
X257890524Y-177871615D01*
X257894710Y-177985664D01*
X257895042Y-178083609D01*
X257895042Y-178386392D01*
X258411537Y-178386392D01*
X258423289Y-178096392D01*
X258431493Y-177945719D01*
X258444876Y-177857264D01*
X258469410Y-177813247D01*
X258511072Y-177795892D01*
X258525042Y-177793609D01*
X258615042Y-177780827D01*
X258615042Y-179226392D01*
G37*
G36*
X257250042Y-177811392D02*
G01*
X257340312Y-177843164D01*
X257373050Y-177902660D01*
X257375042Y-177935671D01*
X257363457Y-178005780D01*
X257319173Y-178012781D01*
X257305042Y-178007870D01*
X257113104Y-177956262D01*
X256951451Y-177957310D01*
X256832137Y-178009148D01*
X256773621Y-178090128D01*
X256754509Y-178198698D01*
X256795517Y-178283226D01*
X256903636Y-178351558D01*
X257051742Y-178402264D01*
X257248089Y-178477219D01*
X257374713Y-178577181D01*
X257440417Y-178711885D01*
X257455042Y-178848230D01*
X257443379Y-178973484D01*
X257396204Y-179061410D01*
X257331972Y-179122836D01*
X257241098Y-179185917D01*
X257142389Y-179216398D01*
X257002144Y-179224006D01*
X256981972Y-179223856D01*
X256838672Y-179216126D01*
X256716120Y-179199034D01*
X256665042Y-179185145D01*
X256589636Y-179118772D01*
X256575042Y-179046653D01*
X256579430Y-178979376D01*
X256607443Y-178966195D01*
X256681348Y-178999321D01*
X256693055Y-179005364D01*
X256826524Y-179049742D01*
X256977068Y-179064493D01*
X257111849Y-179048879D01*
X257183357Y-179016392D01*
X257267320Y-178915974D01*
X257276070Y-178812877D01*
X257213774Y-178714366D01*
X257084598Y-178627705D01*
X256926907Y-178569230D01*
X256745611Y-178499379D01*
X256633681Y-178406023D01*
X256581615Y-178279048D01*
X256575042Y-178194862D01*
X256607385Y-178018913D01*
X256700852Y-177890519D01*
X256850099Y-177812717D01*
X257049779Y-177788542D01*
X257250042Y-177811392D01*
G37*
G36*
X255434537Y-178125425D02*
G01*
X255475567Y-178025375D01*
X255586325Y-177881850D01*
X255725770Y-177802323D01*
X255878327Y-177784150D01*
X256028421Y-177824690D01*
X256160475Y-177921302D01*
X256258913Y-178071342D01*
X256290152Y-178163546D01*
X256328907Y-178411433D01*
X256324869Y-178656119D01*
X256281039Y-178877708D01*
X256200419Y-179056300D01*
X256145076Y-179125448D01*
X256009642Y-179209032D01*
X255848104Y-179233582D01*
X255687850Y-179199547D01*
X255564139Y-179115888D01*
X255473909Y-178973113D01*
X255413919Y-178779100D01*
X255386083Y-178557428D01*
X255387567Y-178503701D01*
X255597429Y-178503701D01*
X255605117Y-178690510D01*
X255628628Y-178851667D01*
X255667959Y-178961156D01*
X255669297Y-178963238D01*
X255765221Y-179049533D01*
X255879911Y-179067965D01*
X255990277Y-179018848D01*
X256044119Y-178958151D01*
X256087173Y-178844298D01*
X256112388Y-178679227D01*
X256119764Y-178489704D01*
X256109301Y-178302497D01*
X256081000Y-178144373D01*
X256044119Y-178054632D01*
X255947175Y-177965720D01*
X255832251Y-177944171D01*
X255722441Y-177990300D01*
X255669297Y-178049545D01*
X255629519Y-178157201D01*
X255605563Y-178317259D01*
X255597429Y-178503701D01*
X255387567Y-178503701D01*
X255392317Y-178331677D01*
X255434537Y-178125425D01*
G37*
G36*
X259324348Y-180389991D02*
G01*
X259350137Y-180408986D01*
X259365254Y-180457819D01*
X259372547Y-180550384D01*
X259374860Y-180700579D01*
X259375042Y-180826392D01*
X259375042Y-181266392D01*
X259475042Y-181266392D01*
X259555469Y-181287255D01*
X259575042Y-181326392D01*
X259558575Y-181358991D01*
X259499366Y-181377648D01*
X259382701Y-181385517D01*
X259295042Y-181386392D01*
X259142913Y-181382863D01*
X259055845Y-181370175D01*
X259019124Y-181345176D01*
X259015042Y-181326392D01*
X259050359Y-181279022D01*
X259136543Y-181266392D01*
X259258044Y-181266392D01*
X259235042Y-180526392D01*
X259125042Y-180539254D01*
X259038328Y-180533344D01*
X259015042Y-180493919D01*
X259051788Y-180438684D01*
X259150347Y-180400706D01*
X259285042Y-180386938D01*
X259324348Y-180389991D01*
G37*
G36*
X256572727Y-180622391D02*
G01*
X256603715Y-180549596D01*
X256652014Y-180489614D01*
X256780920Y-180402266D01*
X256928388Y-180392553D01*
X256993249Y-180411239D01*
X257078466Y-180483343D01*
X257136723Y-180610194D01*
X257168021Y-180771218D01*
X257172361Y-180945841D01*
X257149742Y-181113489D01*
X257100163Y-181253587D01*
X257023626Y-181345563D01*
X256993249Y-181361544D01*
X256839384Y-181383945D01*
X256702359Y-181328315D01*
X256652014Y-181283169D01*
X256600430Y-181217863D01*
X256571023Y-181143422D01*
X256557873Y-181035616D01*
X256555042Y-180886392D01*
X256695042Y-180886392D01*
X256702216Y-181026144D01*
X256720631Y-181142285D01*
X256736449Y-181189021D01*
X256808530Y-181254974D01*
X256901416Y-181256094D01*
X256980144Y-181200244D01*
X257014016Y-181115529D01*
X257032604Y-180972259D01*
X257035042Y-180886392D01*
X257020347Y-180692861D01*
X256974828Y-180569558D01*
X256896330Y-180512022D01*
X256851551Y-180506392D01*
X256770092Y-180540663D01*
X256718614Y-180644924D01*
X256696222Y-180821349D01*
X256695042Y-180886392D01*
X256555042Y-180886392D01*
X256558476Y-180726580D01*
X256572727Y-180622391D01*
G37*
G36*
X257372727Y-180622391D02*
G01*
X257403715Y-180549596D01*
X257452014Y-180489614D01*
X257580920Y-180402266D01*
X257728388Y-180392553D01*
X257793249Y-180411239D01*
X257878466Y-180483343D01*
X257936723Y-180610194D01*
X257968021Y-180771218D01*
X257972361Y-180945841D01*
X257949742Y-181113489D01*
X257900163Y-181253587D01*
X257823626Y-181345563D01*
X257793249Y-181361544D01*
X257639384Y-181383945D01*
X257502359Y-181328315D01*
X257452014Y-181283169D01*
X257400430Y-181217863D01*
X257371023Y-181143422D01*
X257357873Y-181035616D01*
X257355042Y-180886392D01*
X257495042Y-180886392D01*
X257502216Y-181026144D01*
X257520631Y-181142285D01*
X257536449Y-181189021D01*
X257608530Y-181254974D01*
X257701416Y-181256094D01*
X257780144Y-181200244D01*
X257814016Y-181115529D01*
X257832604Y-180972259D01*
X257835042Y-180886392D01*
X257820347Y-180692861D01*
X257774828Y-180569558D01*
X257696330Y-180512022D01*
X257651551Y-180506392D01*
X257570092Y-180540663D01*
X257518614Y-180644924D01*
X257496222Y-180821349D01*
X257495042Y-180886392D01*
X257355042Y-180886392D01*
X257358476Y-180726580D01*
X257372727Y-180622391D01*
G37*
G36*
X161416093Y-171563573D02*
G01*
X161589969Y-171624386D01*
X161749274Y-171716025D01*
X161889665Y-171835442D01*
X162006800Y-171979590D01*
X162096336Y-172145420D01*
X162153232Y-172326560D01*
X162156600Y-172362531D01*
X162159778Y-172436301D01*
X162162764Y-172545670D01*
X162165561Y-172688436D01*
X162168166Y-172862400D01*
X162170582Y-173065361D01*
X162172806Y-173295119D01*
X162174841Y-173549472D01*
X162176684Y-173826221D01*
X162178338Y-174123164D01*
X162179800Y-174438102D01*
X162181072Y-174768833D01*
X162182154Y-175113158D01*
X162183045Y-175468875D01*
X162183746Y-175833785D01*
X162184256Y-176205686D01*
X162184575Y-176582379D01*
X162184704Y-176961662D01*
X162184643Y-177341335D01*
X162184391Y-177719197D01*
X162183948Y-178093049D01*
X162183315Y-178460689D01*
X162182492Y-178819917D01*
X162181478Y-179168533D01*
X162180273Y-179504335D01*
X162178878Y-179825124D01*
X162177292Y-180128699D01*
X162175516Y-180412859D01*
X162173549Y-180675404D01*
X162171392Y-180914133D01*
X162169045Y-181126846D01*
X162166506Y-181311343D01*
X162163778Y-181465422D01*
X162160858Y-181586883D01*
X162157749Y-181673526D01*
X162154448Y-181723150D01*
X162153232Y-181731439D01*
X162093873Y-181918689D01*
X162001079Y-182087560D01*
X161878676Y-182234229D01*
X161730489Y-182354871D01*
X161560341Y-182445662D01*
X161384439Y-182500232D01*
X161255261Y-182521533D01*
X161140647Y-182524578D01*
X161019545Y-182509322D01*
X160970218Y-182499322D01*
X160786543Y-182439578D01*
X160620070Y-182346188D01*
X160474900Y-182223298D01*
X160355137Y-182075058D01*
X160264881Y-181905614D01*
X160210767Y-181731439D01*
X160207399Y-181695468D01*
X160204221Y-181621698D01*
X160201235Y-181512329D01*
X160198438Y-181369563D01*
X160195833Y-181195599D01*
X160193417Y-180992638D01*
X160191193Y-180762880D01*
X160189158Y-180508527D01*
X160187315Y-180231778D01*
X160185661Y-179934835D01*
X160184199Y-179619897D01*
X160182927Y-179289166D01*
X160181845Y-178944841D01*
X160180954Y-178589124D01*
X160180253Y-178224214D01*
X160179743Y-177852313D01*
X160179424Y-177475620D01*
X160179295Y-177096337D01*
X160179356Y-176716664D01*
X160179608Y-176338802D01*
X160180051Y-175964950D01*
X160180684Y-175597310D01*
X160181507Y-175238082D01*
X160182521Y-174889466D01*
X160183726Y-174553664D01*
X160185121Y-174232875D01*
X160186707Y-173929300D01*
X160188483Y-173645140D01*
X160190450Y-173382595D01*
X160192607Y-173143866D01*
X160194954Y-172931153D01*
X160197493Y-172746656D01*
X160200221Y-172592577D01*
X160203141Y-172471116D01*
X160206250Y-172384473D01*
X160209551Y-172334849D01*
X160210767Y-172326560D01*
X160270107Y-172138969D01*
X160362602Y-171970440D01*
X160484583Y-171824417D01*
X160632379Y-171704342D01*
X160802322Y-171613659D01*
X160990743Y-171555809D01*
X161042000Y-171546619D01*
X161231989Y-171536635D01*
X161416093Y-171563573D01*
G37*
G36*
X156322000Y-174546619D02*
G01*
X156514599Y-174595421D01*
X156689669Y-174677948D01*
X156843542Y-174790756D01*
X156972547Y-174930403D01*
X157073015Y-175093444D01*
X157141276Y-175276438D01*
X157153232Y-175326560D01*
X157158962Y-175374324D01*
X157164107Y-175458195D01*
X157168666Y-175574284D01*
X157172639Y-175718702D01*
X157176027Y-175887561D01*
X157178829Y-176076971D01*
X157181045Y-176283045D01*
X157182676Y-176501892D01*
X157183721Y-176729624D01*
X157184181Y-176962352D01*
X157184054Y-177196188D01*
X157183343Y-177427242D01*
X157182046Y-177651627D01*
X157180163Y-177865452D01*
X157177694Y-178064829D01*
X157174640Y-178245870D01*
X157171000Y-178404685D01*
X157166775Y-178537386D01*
X157161964Y-178640083D01*
X157156568Y-178708889D01*
X157153232Y-178731439D01*
X157093873Y-178918689D01*
X157001079Y-179087560D01*
X156878676Y-179234229D01*
X156730489Y-179354871D01*
X156560341Y-179445662D01*
X156384439Y-179500232D01*
X156255261Y-179521533D01*
X156140647Y-179524578D01*
X156019545Y-179509322D01*
X155970218Y-179499322D01*
X155786543Y-179439578D01*
X155620070Y-179346188D01*
X155474900Y-179223298D01*
X155355137Y-179075058D01*
X155264881Y-178905614D01*
X155210767Y-178731439D01*
X155205037Y-178683675D01*
X155199892Y-178599804D01*
X155195333Y-178483715D01*
X155191360Y-178339297D01*
X155187972Y-178170438D01*
X155185170Y-177981028D01*
X155182954Y-177774954D01*
X155181323Y-177556107D01*
X155180278Y-177328375D01*
X155179818Y-177095647D01*
X155179945Y-176861811D01*
X155180656Y-176630757D01*
X155181953Y-176406372D01*
X155183836Y-176192547D01*
X155186305Y-175993170D01*
X155189359Y-175812129D01*
X155192999Y-175653314D01*
X155197224Y-175520613D01*
X155202035Y-175417916D01*
X155207431Y-175349110D01*
X155210767Y-175326560D01*
X155268950Y-175142391D01*
X155358999Y-174976909D01*
X155476573Y-174833162D01*
X155617327Y-174714199D01*
X155776921Y-174623066D01*
X155951010Y-174562812D01*
X156135252Y-174536485D01*
X156322000Y-174546619D01*
G37*
G36*
X166322000Y-174546619D02*
G01*
X166514599Y-174595421D01*
X166689669Y-174677948D01*
X166843542Y-174790756D01*
X166972547Y-174930403D01*
X167073015Y-175093444D01*
X167141276Y-175276438D01*
X167153232Y-175326560D01*
X167158962Y-175374324D01*
X167164107Y-175458195D01*
X167168666Y-175574284D01*
X167172639Y-175718702D01*
X167176027Y-175887561D01*
X167178829Y-176076971D01*
X167181045Y-176283045D01*
X167182676Y-176501892D01*
X167183721Y-176729624D01*
X167184181Y-176962352D01*
X167184054Y-177196188D01*
X167183343Y-177427242D01*
X167182046Y-177651627D01*
X167180163Y-177865452D01*
X167177694Y-178064829D01*
X167174640Y-178245870D01*
X167171000Y-178404685D01*
X167166775Y-178537386D01*
X167161964Y-178640083D01*
X167156568Y-178708889D01*
X167153232Y-178731439D01*
X167093873Y-178918689D01*
X167001079Y-179087560D01*
X166878676Y-179234229D01*
X166730489Y-179354871D01*
X166560341Y-179445662D01*
X166384439Y-179500232D01*
X166255261Y-179521533D01*
X166140647Y-179524578D01*
X166019545Y-179509322D01*
X165970218Y-179499322D01*
X165786543Y-179439578D01*
X165620070Y-179346188D01*
X165474900Y-179223298D01*
X165355137Y-179075058D01*
X165264881Y-178905614D01*
X165210767Y-178731439D01*
X165205037Y-178683675D01*
X165199892Y-178599804D01*
X165195333Y-178483715D01*
X165191360Y-178339297D01*
X165187972Y-178170438D01*
X165185170Y-177981028D01*
X165182954Y-177774954D01*
X165181323Y-177556107D01*
X165180278Y-177328375D01*
X165179818Y-177095647D01*
X165179945Y-176861811D01*
X165180656Y-176630757D01*
X165181953Y-176406372D01*
X165183836Y-176192547D01*
X165186305Y-175993170D01*
X165189359Y-175812129D01*
X165192999Y-175653314D01*
X165197224Y-175520613D01*
X165202035Y-175417916D01*
X165207431Y-175349110D01*
X165210767Y-175326560D01*
X165268950Y-175142391D01*
X165358999Y-174976909D01*
X165476573Y-174833162D01*
X165617327Y-174714199D01*
X165776921Y-174623066D01*
X165951010Y-174562812D01*
X166135252Y-174536485D01*
X166322000Y-174546619D01*
G37*
G36*
X163916093Y-173063573D02*
G01*
X164089969Y-173124386D01*
X164249274Y-173216025D01*
X164389665Y-173335442D01*
X164506800Y-173479590D01*
X164596336Y-173645420D01*
X164653232Y-173826560D01*
X164657335Y-173866139D01*
X164661149Y-173943008D01*
X164664676Y-174054459D01*
X164667916Y-174197781D01*
X164670868Y-174370266D01*
X164673532Y-174569205D01*
X164675909Y-174791888D01*
X164677998Y-175035608D01*
X164679800Y-175297654D01*
X164681314Y-175575317D01*
X164682540Y-175865890D01*
X164683479Y-176166662D01*
X164684130Y-176474924D01*
X164684494Y-176787968D01*
X164684570Y-177103085D01*
X164684359Y-177417565D01*
X164683860Y-177728699D01*
X164683074Y-178033779D01*
X164682000Y-178330095D01*
X164680638Y-178614938D01*
X164678989Y-178885600D01*
X164677052Y-179139371D01*
X164674828Y-179373543D01*
X164672316Y-179585405D01*
X164669516Y-179772250D01*
X164666429Y-179931368D01*
X164663055Y-180060049D01*
X164659392Y-180155586D01*
X164655443Y-180215269D01*
X164653232Y-180231439D01*
X164593873Y-180418689D01*
X164501079Y-180587560D01*
X164378676Y-180734229D01*
X164230489Y-180854871D01*
X164060341Y-180945662D01*
X163884439Y-181000232D01*
X163755261Y-181021533D01*
X163640647Y-181024578D01*
X163519545Y-181009322D01*
X163470218Y-180999322D01*
X163286543Y-180939578D01*
X163120070Y-180846188D01*
X162974900Y-180723298D01*
X162855137Y-180575058D01*
X162764881Y-180405614D01*
X162710767Y-180231439D01*
X162706664Y-180191860D01*
X162702850Y-180114991D01*
X162699323Y-180003540D01*
X162696083Y-179860218D01*
X162693131Y-179687733D01*
X162690467Y-179488794D01*
X162688090Y-179266111D01*
X162686001Y-179022391D01*
X162684199Y-178760345D01*
X162682685Y-178482682D01*
X162681459Y-178192109D01*
X162680520Y-177891337D01*
X162679869Y-177583075D01*
X162679505Y-177270031D01*
X162679429Y-176954914D01*
X162679640Y-176640434D01*
X162680139Y-176329300D01*
X162680925Y-176024220D01*
X162681999Y-175727904D01*
X162683361Y-175443061D01*
X162685010Y-175172399D01*
X162686947Y-174918628D01*
X162689171Y-174684456D01*
X162691683Y-174472594D01*
X162694483Y-174285749D01*
X162697570Y-174126631D01*
X162700944Y-173997950D01*
X162704607Y-173902413D01*
X162708556Y-173842730D01*
X162710767Y-173826560D01*
X162770107Y-173638969D01*
X162862602Y-173470440D01*
X162984583Y-173324417D01*
X163132379Y-173204342D01*
X163302322Y-173113659D01*
X163490743Y-173055809D01*
X163542000Y-173046619D01*
X163731989Y-173036635D01*
X163916093Y-173063573D01*
G37*
G36*
X158916093Y-173063573D02*
G01*
X159089969Y-173124386D01*
X159249274Y-173216025D01*
X159389665Y-173335442D01*
X159506800Y-173479590D01*
X159596336Y-173645420D01*
X159653232Y-173826560D01*
X159657335Y-173866139D01*
X159661149Y-173943008D01*
X159664676Y-174054459D01*
X159667916Y-174197781D01*
X159670868Y-174370266D01*
X159673532Y-174569205D01*
X159675909Y-174791888D01*
X159677998Y-175035608D01*
X159679800Y-175297654D01*
X159681314Y-175575317D01*
X159682540Y-175865890D01*
X159683479Y-176166662D01*
X159684130Y-176474924D01*
X159684494Y-176787968D01*
X159684570Y-177103085D01*
X159684359Y-177417565D01*
X159683860Y-177728699D01*
X159683074Y-178033779D01*
X159682000Y-178330095D01*
X159680638Y-178614938D01*
X159678989Y-178885600D01*
X159677052Y-179139371D01*
X159674828Y-179373543D01*
X159672316Y-179585405D01*
X159669516Y-179772250D01*
X159666429Y-179931368D01*
X159663055Y-180060049D01*
X159659392Y-180155586D01*
X159655443Y-180215269D01*
X159653232Y-180231439D01*
X159593873Y-180418689D01*
X159501079Y-180587560D01*
X159378676Y-180734229D01*
X159230489Y-180854871D01*
X159060341Y-180945662D01*
X158884439Y-181000232D01*
X158755261Y-181021533D01*
X158640647Y-181024578D01*
X158519545Y-181009322D01*
X158470218Y-180999322D01*
X158286543Y-180939578D01*
X158120070Y-180846188D01*
X157974900Y-180723298D01*
X157855137Y-180575058D01*
X157764881Y-180405614D01*
X157710767Y-180231439D01*
X157706664Y-180191860D01*
X157702850Y-180114991D01*
X157699323Y-180003540D01*
X157696083Y-179860218D01*
X157693131Y-179687733D01*
X157690467Y-179488794D01*
X157688090Y-179266111D01*
X157686001Y-179022391D01*
X157684199Y-178760345D01*
X157682685Y-178482682D01*
X157681459Y-178192109D01*
X157680520Y-177891337D01*
X157679869Y-177583075D01*
X157679505Y-177270031D01*
X157679429Y-176954914D01*
X157679640Y-176640434D01*
X157680139Y-176329300D01*
X157680925Y-176024220D01*
X157681999Y-175727904D01*
X157683361Y-175443061D01*
X157685010Y-175172399D01*
X157686947Y-174918628D01*
X157689171Y-174684456D01*
X157691683Y-174472594D01*
X157694483Y-174285749D01*
X157697570Y-174126631D01*
X157700944Y-173997950D01*
X157704607Y-173902413D01*
X157708556Y-173842730D01*
X157710767Y-173826560D01*
X157770107Y-173638969D01*
X157862602Y-173470440D01*
X157984583Y-173324417D01*
X158132379Y-173204342D01*
X158302322Y-173113659D01*
X158490743Y-173055809D01*
X158542000Y-173046619D01*
X158731989Y-173036635D01*
X158916093Y-173063573D01*
G37*
G36*
X228555000Y-178166170D02*
G01*
X228210000Y-178329002D01*
X228132671Y-178365424D01*
X228061000Y-178399038D01*
X227996999Y-178428909D01*
X227942685Y-178454104D01*
X227900073Y-178473687D01*
X227871177Y-178486725D01*
X227858014Y-178492284D01*
X227857500Y-178492417D01*
X227856032Y-178482849D01*
X227854659Y-178455172D01*
X227853409Y-178411275D01*
X227852311Y-178353050D01*
X227851394Y-178282387D01*
X227850685Y-178201175D01*
X227850213Y-178111307D01*
X227850007Y-178014671D01*
X227850000Y-177993000D01*
X227850000Y-177493000D01*
X228560266Y-177493000D01*
X228555000Y-178166170D01*
G37*
G36*
X231039726Y-174253088D02*
G01*
X231063449Y-174164474D01*
X231101486Y-174087392D01*
X231151673Y-174022177D01*
X231211844Y-173969168D01*
X231279836Y-173928702D01*
X231353484Y-173901115D01*
X231430624Y-173886745D01*
X231509091Y-173885929D01*
X231586721Y-173899004D01*
X231661349Y-173926308D01*
X231730812Y-173968176D01*
X231792944Y-174024947D01*
X231845581Y-174096958D01*
X231861027Y-174125163D01*
X231893222Y-174209466D01*
X231906982Y-174295671D01*
X231903318Y-174381293D01*
X231883242Y-174463845D01*
X231847767Y-174540839D01*
X231797903Y-174609790D01*
X231734664Y-174668211D01*
X231659061Y-174713615D01*
X231614213Y-174731590D01*
X231555000Y-174751577D01*
X231550000Y-175392066D01*
X231545000Y-176032556D01*
X231489550Y-176088000D01*
X229815000Y-176093350D01*
X229811979Y-176513247D01*
X229808959Y-176933144D01*
X230465171Y-176930572D01*
X231121382Y-176928000D01*
X231138352Y-176877869D01*
X231176689Y-176793208D01*
X231229196Y-176720403D01*
X231293648Y-176660822D01*
X231367824Y-176615831D01*
X231449499Y-176586798D01*
X231536450Y-176575090D01*
X231620881Y-176581083D01*
X231711032Y-176605896D01*
X231791871Y-176646870D01*
X231861436Y-176702252D01*
X231917764Y-176770283D01*
X231958892Y-176849209D01*
X231974576Y-176897600D01*
X231988598Y-176988992D01*
X231984019Y-177077887D01*
X231962235Y-177162136D01*
X231924641Y-177239594D01*
X231872632Y-177308111D01*
X231807605Y-177365542D01*
X231730955Y-177409738D01*
X231644079Y-177438552D01*
X231619911Y-177443273D01*
X231532460Y-177448211D01*
X231446403Y-177434741D01*
X231364625Y-177404400D01*
X231290015Y-177358724D01*
X231225461Y-177299248D01*
X231173848Y-177227511D01*
X231158407Y-177197733D01*
X231128114Y-177132999D01*
X230470631Y-177133000D01*
X229813148Y-177133000D01*
X229806604Y-177305500D01*
X229804507Y-177372250D01*
X229802685Y-177452108D01*
X229801254Y-177538184D01*
X229800331Y-177623585D01*
X229800030Y-177695333D01*
X229800000Y-177912666D01*
X231489550Y-177918000D01*
X231545000Y-177973444D01*
X231555000Y-179284422D01*
X231614213Y-179304409D01*
X231695847Y-179341949D01*
X231766425Y-179394387D01*
X231824432Y-179459203D01*
X231868354Y-179533876D01*
X231896676Y-179615886D01*
X231907883Y-179702711D01*
X231902007Y-179783349D01*
X231877748Y-179871926D01*
X231838605Y-179949710D01*
X231786805Y-180015980D01*
X231724580Y-180070012D01*
X231654157Y-180111083D01*
X231577765Y-180138472D01*
X231497634Y-180151455D01*
X231415994Y-180149310D01*
X231335072Y-180131314D01*
X231257099Y-180096744D01*
X231184303Y-180044878D01*
X231161396Y-180023443D01*
X231104812Y-179953753D01*
X231065272Y-179876880D01*
X231042351Y-179795387D01*
X231035628Y-179711835D01*
X231037022Y-179699043D01*
X231200852Y-179699043D01*
X231207202Y-179766297D01*
X231229270Y-179828305D01*
X231265167Y-179882451D01*
X231313005Y-179926118D01*
X231370895Y-179956690D01*
X231436948Y-179971550D01*
X231460000Y-179972560D01*
X231515960Y-179966322D01*
X231560000Y-179952214D01*
X231619604Y-179915533D01*
X231666584Y-179866873D01*
X231699595Y-179809509D01*
X231717294Y-179746715D01*
X231718336Y-179681766D01*
X231701378Y-179617937D01*
X231699214Y-179613000D01*
X231660991Y-179551031D01*
X231610240Y-179503141D01*
X231549827Y-179470642D01*
X231482622Y-179454848D01*
X231411492Y-179457070D01*
X231376160Y-179465109D01*
X231339495Y-179483001D01*
X231299464Y-179513594D01*
X231261382Y-179551571D01*
X231230566Y-179591617D01*
X231212331Y-179628415D01*
X231212109Y-179629160D01*
X231200852Y-179699043D01*
X231037022Y-179699043D01*
X231044679Y-179628785D01*
X231069080Y-179548799D01*
X231108408Y-179474437D01*
X231162241Y-179408261D01*
X231230154Y-179352831D01*
X231276594Y-179326237D01*
X231350000Y-179289958D01*
X231350000Y-178113000D01*
X229803113Y-178113000D01*
X229796952Y-178255500D01*
X229786251Y-178391261D01*
X229766121Y-178511966D01*
X229735805Y-178620582D01*
X229694544Y-178720073D01*
X229663646Y-178777603D01*
X229624091Y-178835889D01*
X229572398Y-178898622D01*
X229513784Y-178960314D01*
X229453471Y-179015477D01*
X229396675Y-179058623D01*
X229395992Y-179059075D01*
X229377444Y-179070647D01*
X229343178Y-179091334D01*
X229294771Y-179120208D01*
X229233798Y-179156340D01*
X229161836Y-179198800D01*
X229080461Y-179246660D01*
X228991250Y-179298989D01*
X228895778Y-179354860D01*
X228795623Y-179413343D01*
X228735992Y-179448102D01*
X228135000Y-179798205D01*
X228132442Y-180635602D01*
X228129885Y-181473000D01*
X228705256Y-181473000D01*
X228827237Y-181472970D01*
X228930745Y-181472850D01*
X229017308Y-181472595D01*
X229088453Y-181472158D01*
X229145709Y-181471493D01*
X229190601Y-181470554D01*
X229224659Y-181469295D01*
X229249409Y-181467671D01*
X229266380Y-181465634D01*
X229277097Y-181463140D01*
X229283089Y-181460141D01*
X229285884Y-181456593D01*
X229286300Y-181455500D01*
X229308497Y-181401468D01*
X229339453Y-181344833D01*
X229374393Y-181293625D01*
X229400476Y-181263476D01*
X229470425Y-181206479D01*
X229547031Y-181166754D01*
X229627892Y-181143744D01*
X229710604Y-181136892D01*
X229792762Y-181145641D01*
X229871964Y-181169433D01*
X229945806Y-181207711D01*
X230011884Y-181259919D01*
X230067795Y-181325497D01*
X230111135Y-181403890D01*
X230121628Y-181430669D01*
X230137095Y-181495278D01*
X230142621Y-181568799D01*
X230138206Y-181642793D01*
X230123850Y-181708817D01*
X230121628Y-181715330D01*
X230082499Y-181797505D01*
X230029221Y-181868007D01*
X229964267Y-181925666D01*
X229890105Y-181969311D01*
X229809206Y-181997774D01*
X229724042Y-182009885D01*
X229637083Y-182004473D01*
X229556871Y-181982731D01*
X229473131Y-181940597D01*
X229401678Y-181883041D01*
X229343851Y-181811374D01*
X229304072Y-181734692D01*
X229281034Y-181678000D01*
X228635739Y-181673000D01*
X227990443Y-181668000D01*
X227962721Y-181640276D01*
X227935000Y-181612552D01*
X227934893Y-181594415D01*
X229445391Y-181594415D01*
X229456864Y-181658519D01*
X229483330Y-181716902D01*
X229523190Y-181766975D01*
X229574843Y-181806152D01*
X229636691Y-181831844D01*
X229707133Y-181841464D01*
X229710000Y-181841478D01*
X229747896Y-181839281D01*
X229782910Y-181833687D01*
X229796840Y-181829739D01*
X229860615Y-181796274D01*
X229912277Y-181748829D01*
X229949732Y-181690364D01*
X229970888Y-181623838D01*
X229974907Y-181578000D01*
X229965663Y-181507233D01*
X229939461Y-181444162D01*
X229898600Y-181391071D01*
X229845376Y-181350244D01*
X229782085Y-181323966D01*
X229711027Y-181314523D01*
X229710000Y-181314521D01*
X229637407Y-181323655D01*
X229573250Y-181350257D01*
X229519488Y-181393123D01*
X229478081Y-181451052D01*
X229473822Y-181459394D01*
X229450511Y-181527177D01*
X229445391Y-181594415D01*
X227934893Y-181594415D01*
X227925000Y-179915638D01*
X227840000Y-179966866D01*
X227747408Y-180015028D01*
X227645929Y-180054372D01*
X227539383Y-180084257D01*
X227431591Y-180104042D01*
X227326375Y-180113087D01*
X227227556Y-180110750D01*
X227138953Y-180096390D01*
X227112500Y-180088870D01*
X227090000Y-180081652D01*
X227090000Y-180667639D01*
X227090028Y-180790823D01*
X227090145Y-180895521D01*
X227090394Y-180983245D01*
X227090820Y-181055509D01*
X227091468Y-181113827D01*
X227092382Y-181159712D01*
X227093608Y-181194678D01*
X227095190Y-181220237D01*
X227097173Y-181237903D01*
X227099602Y-181249190D01*
X227102521Y-181255610D01*
X227105975Y-181258678D01*
X227107500Y-181259300D01*
X227195987Y-181297686D01*
X227272375Y-181350724D01*
X227335175Y-181416687D01*
X227382900Y-181493851D01*
X227414062Y-181580488D01*
X227422705Y-181624965D01*
X227425828Y-181713486D01*
X227410678Y-181798831D01*
X227378962Y-181878711D01*
X227332388Y-181950835D01*
X227272661Y-182012916D01*
X227201491Y-182062664D01*
X227120583Y-182097790D01*
X227059138Y-182112442D01*
X227020375Y-182118415D01*
X226993080Y-182121012D01*
X226969009Y-182120246D01*
X226939921Y-182116129D01*
X226920000Y-182112654D01*
X226831958Y-182087692D01*
X226753100Y-182046987D01*
X226685024Y-181992727D01*
X226629325Y-181927102D01*
X226587600Y-181852304D01*
X226561447Y-181770520D01*
X226552462Y-181683943D01*
X226554535Y-181659043D01*
X226740852Y-181659043D01*
X226747202Y-181726297D01*
X226769270Y-181788305D01*
X226805167Y-181842451D01*
X226853005Y-181886118D01*
X226910895Y-181916690D01*
X226976948Y-181931550D01*
X227000000Y-181932560D01*
X227055960Y-181926322D01*
X227100000Y-181912214D01*
X227159604Y-181875533D01*
X227206584Y-181826873D01*
X227239595Y-181769509D01*
X227257294Y-181706715D01*
X227258336Y-181641766D01*
X227241378Y-181577937D01*
X227239214Y-181573000D01*
X227200991Y-181511031D01*
X227150240Y-181463141D01*
X227089827Y-181430642D01*
X227022622Y-181414848D01*
X226951492Y-181417070D01*
X226916160Y-181425109D01*
X226879495Y-181443001D01*
X226839464Y-181473594D01*
X226801382Y-181511571D01*
X226770566Y-181551617D01*
X226752331Y-181588415D01*
X226752109Y-181589160D01*
X226740852Y-181659043D01*
X226554535Y-181659043D01*
X226558092Y-181616320D01*
X226582721Y-181526487D01*
X226624536Y-181445360D01*
X226681958Y-181374734D01*
X226753404Y-181316406D01*
X226837295Y-181272169D01*
X226872500Y-181259300D01*
X226876212Y-181257123D01*
X226879361Y-181252173D01*
X226881993Y-181242920D01*
X226884153Y-181227836D01*
X226885888Y-181205392D01*
X226887243Y-181174060D01*
X226888266Y-181132310D01*
X226889002Y-181078614D01*
X226889497Y-181011443D01*
X226889797Y-180929268D01*
X226889949Y-180830560D01*
X226889998Y-180713791D01*
X226890000Y-180679233D01*
X226890000Y-180104838D01*
X226839777Y-180120899D01*
X226789291Y-180129903D01*
X226724484Y-180130344D01*
X226648809Y-180122827D01*
X226565721Y-180107958D01*
X226478674Y-180086342D01*
X226391121Y-180058584D01*
X226315000Y-180028959D01*
X226267361Y-180007633D01*
X226220693Y-179985129D01*
X226181764Y-179964783D01*
X226165000Y-179955037D01*
X226115000Y-179923902D01*
X226105000Y-181612552D01*
X226077277Y-181640276D01*
X226049555Y-181668000D01*
X224738613Y-181678000D01*
X224721645Y-181728130D01*
X224683356Y-181812680D01*
X224630896Y-181885435D01*
X224566503Y-181945017D01*
X224492414Y-181990049D01*
X224410865Y-182019151D01*
X224324092Y-182030948D01*
X224239650Y-182025007D01*
X224150854Y-182000721D01*
X224072903Y-181961576D01*
X224006519Y-181909792D01*
X223952420Y-181847593D01*
X223911328Y-181777199D01*
X223883962Y-181700831D01*
X223871043Y-181620713D01*
X223871767Y-181594415D01*
X224045391Y-181594415D01*
X224056864Y-181658519D01*
X224083330Y-181716902D01*
X224123190Y-181766975D01*
X224174843Y-181806152D01*
X224236691Y-181831844D01*
X224307133Y-181841464D01*
X224310000Y-181841478D01*
X224347896Y-181839281D01*
X224382910Y-181833687D01*
X224396840Y-181829739D01*
X224461094Y-181796309D01*
X224512125Y-181749941D01*
X224548749Y-181693568D01*
X224569783Y-181630126D01*
X224574043Y-181562547D01*
X224560348Y-181493767D01*
X224546177Y-181459394D01*
X224506473Y-181399645D01*
X224454166Y-181354807D01*
X224391215Y-181326081D01*
X224319582Y-181314670D01*
X224310000Y-181314521D01*
X224237407Y-181323655D01*
X224173250Y-181350257D01*
X224119488Y-181393123D01*
X224078081Y-181451052D01*
X224073822Y-181459394D01*
X224050511Y-181527177D01*
X224045391Y-181594415D01*
X223871767Y-181594415D01*
X223873291Y-181539065D01*
X223891426Y-181458108D01*
X223926169Y-181380065D01*
X223978239Y-181307158D01*
X223999556Y-181284396D01*
X224069246Y-181227812D01*
X224146119Y-181188272D01*
X224227612Y-181165351D01*
X224311164Y-181158628D01*
X224394214Y-181167679D01*
X224474200Y-181192080D01*
X224548562Y-181231408D01*
X224614738Y-181285241D01*
X224670168Y-181353154D01*
X224696762Y-181399594D01*
X224733041Y-181473000D01*
X225920114Y-181473000D01*
X225917557Y-180640862D01*
X225915000Y-179808725D01*
X225303569Y-179468362D01*
X225199990Y-179410611D01*
X225100256Y-179354825D01*
X225005952Y-179301903D01*
X224918662Y-179252741D01*
X224839972Y-179208239D01*
X224771467Y-179169292D01*
X224714732Y-179136800D01*
X224671352Y-179111660D01*
X224642911Y-179094769D01*
X224633569Y-179088896D01*
X224580402Y-179048949D01*
X224522190Y-178997913D01*
X224464793Y-178941469D01*
X224414068Y-178885294D01*
X224384181Y-178847112D01*
X224322266Y-178744745D01*
X224273275Y-178630010D01*
X224238167Y-178506565D01*
X224217906Y-178378070D01*
X224213451Y-178248185D01*
X224215625Y-178205500D01*
X224222378Y-178113000D01*
X222650000Y-178113000D01*
X222650000Y-179289958D01*
X222723405Y-179326237D01*
X222800505Y-179374811D01*
X222863782Y-179436123D01*
X222912412Y-179507709D01*
X222945572Y-179587110D01*
X222962438Y-179671864D01*
X222962188Y-179759510D01*
X222943999Y-179847586D01*
X222918893Y-179910796D01*
X222872289Y-179985729D01*
X222813272Y-180047179D01*
X222744437Y-180094786D01*
X222668379Y-180128191D01*
X222587695Y-180147036D01*
X222504980Y-180150963D01*
X222422830Y-180139613D01*
X222343839Y-180112628D01*
X222270604Y-180069648D01*
X222205720Y-180010316D01*
X222204933Y-180009424D01*
X222150678Y-179933990D01*
X222114353Y-179853402D01*
X222095336Y-179769980D01*
X222093642Y-179709007D01*
X222280760Y-179709007D01*
X222288832Y-179778203D01*
X222313490Y-179840927D01*
X222352190Y-179894767D01*
X222402389Y-179937307D01*
X222461544Y-179966137D01*
X222527112Y-179978843D01*
X222564394Y-179978140D01*
X222602262Y-179970734D01*
X222645023Y-179956882D01*
X222667999Y-179946970D01*
X222724966Y-179908467D01*
X222768420Y-179856587D01*
X222796736Y-179794036D01*
X222808290Y-179723519D01*
X222808478Y-179713000D01*
X222799344Y-179640407D01*
X222772742Y-179576250D01*
X222729876Y-179522488D01*
X222671947Y-179481081D01*
X222663605Y-179476822D01*
X222596035Y-179453638D01*
X222528841Y-179448601D01*
X222464651Y-179460116D01*
X222406094Y-179486589D01*
X222355797Y-179526428D01*
X222316388Y-179578039D01*
X222290495Y-179639827D01*
X222280760Y-179709007D01*
X222093642Y-179709007D01*
X222093004Y-179686043D01*
X222106736Y-179603909D01*
X222135909Y-179525897D01*
X222179902Y-179454327D01*
X222238092Y-179391517D01*
X222309858Y-179339786D01*
X222394577Y-179301453D01*
X222394869Y-179301354D01*
X222445000Y-179284386D01*
X222455000Y-177973444D01*
X222482724Y-177945722D01*
X222510449Y-177918000D01*
X224219999Y-177912670D01*
X224219999Y-177522835D01*
X224220000Y-177133000D01*
X222873041Y-177133000D01*
X222836762Y-177206405D01*
X222788188Y-177283505D01*
X222726876Y-177346782D01*
X222655290Y-177395412D01*
X222575889Y-177428572D01*
X222491135Y-177445438D01*
X222403489Y-177445188D01*
X222315413Y-177426999D01*
X222252203Y-177401893D01*
X222177270Y-177355289D01*
X222115820Y-177296272D01*
X222068213Y-177227437D01*
X222034808Y-177151379D01*
X222015963Y-177070695D01*
X222014715Y-177044415D01*
X222185391Y-177044415D01*
X222196864Y-177108519D01*
X222223330Y-177166902D01*
X222263190Y-177216975D01*
X222314843Y-177256152D01*
X222376691Y-177281844D01*
X222447133Y-177291464D01*
X222450000Y-177291478D01*
X222487896Y-177289281D01*
X222522910Y-177283687D01*
X222536840Y-177279739D01*
X222601094Y-177246309D01*
X222652125Y-177199941D01*
X222688749Y-177143568D01*
X222702037Y-177103490D01*
X224820344Y-177103490D01*
X224820347Y-177218000D01*
X224820351Y-177389234D01*
X224820401Y-177541690D01*
X224820550Y-177676590D01*
X224820854Y-177795155D01*
X224821367Y-177898606D01*
X224822143Y-177988167D01*
X224823238Y-178065057D01*
X224824705Y-178130499D01*
X224826600Y-178185715D01*
X224828977Y-178231926D01*
X224831891Y-178270354D01*
X224835396Y-178302221D01*
X224839547Y-178328748D01*
X224844399Y-178351157D01*
X224850006Y-178370670D01*
X224856422Y-178388509D01*
X224863703Y-178405895D01*
X224871903Y-178424049D01*
X224874516Y-178429752D01*
X224887024Y-178455199D01*
X224901037Y-178478778D01*
X224917996Y-178501534D01*
X224939345Y-178524511D01*
X224966526Y-178548756D01*
X225000980Y-178575312D01*
X225044150Y-178605225D01*
X225097480Y-178639540D01*
X225162410Y-178679301D01*
X225240384Y-178725553D01*
X225332844Y-178779341D01*
X225441232Y-178841711D01*
X225450571Y-178847067D01*
X225537654Y-178897069D01*
X225620923Y-178945024D01*
X225698472Y-178989826D01*
X225768396Y-179030368D01*
X225828791Y-179065541D01*
X225877750Y-179094240D01*
X225913369Y-179115356D01*
X225933743Y-179127783D01*
X225935000Y-179128590D01*
X225953871Y-179140051D01*
X225986980Y-179159323D01*
X226031896Y-179185047D01*
X226086186Y-179215867D01*
X226147422Y-179250423D01*
X226213170Y-179287359D01*
X226281001Y-179325317D01*
X226348483Y-179362938D01*
X226413185Y-179398865D01*
X226472677Y-179431741D01*
X226524527Y-179460206D01*
X226566304Y-179482905D01*
X226595577Y-179498478D01*
X226609915Y-179505567D01*
X226610000Y-179505600D01*
X226640331Y-179511323D01*
X226680089Y-179511401D01*
X226719652Y-179506284D01*
X226743288Y-179499359D01*
X226782746Y-179473576D01*
X226816357Y-179434572D01*
X226838404Y-179389123D01*
X226839559Y-179385189D01*
X226841572Y-179367609D01*
X226843375Y-179330272D01*
X226844965Y-179273422D01*
X226846341Y-179197302D01*
X226847498Y-179102153D01*
X226848435Y-178988220D01*
X226849150Y-178855744D01*
X226849638Y-178704969D01*
X226849898Y-178536137D01*
X226849944Y-178430500D01*
X226850000Y-177513000D01*
X226170617Y-177513000D01*
X226167808Y-177942203D01*
X226165000Y-178371406D01*
X226140900Y-178397050D01*
X226106408Y-178421648D01*
X226063496Y-178429957D01*
X226010488Y-178422194D01*
X225991946Y-178416626D01*
X225967749Y-178406768D01*
X225929078Y-178388740D01*
X225878962Y-178364056D01*
X225820424Y-178334234D01*
X225756492Y-178300786D01*
X225697500Y-178269194D01*
X225460000Y-178140568D01*
X225460000Y-177139762D01*
X227180015Y-177139762D01*
X227180015Y-177209511D01*
X227180023Y-177456473D01*
X227180047Y-177684224D01*
X227180094Y-177893553D01*
X227180170Y-178085250D01*
X227180280Y-178260104D01*
X227180432Y-178418905D01*
X227180632Y-178562441D01*
X227180885Y-178691501D01*
X227181197Y-178806876D01*
X227181576Y-178909354D01*
X227182027Y-178999724D01*
X227182557Y-179078776D01*
X227183171Y-179147298D01*
X227183877Y-179206081D01*
X227184679Y-179255914D01*
X227185585Y-179297585D01*
X227186600Y-179331884D01*
X227187731Y-179359600D01*
X227188984Y-179381522D01*
X227190366Y-179398440D01*
X227191881Y-179411143D01*
X227193538Y-179420420D01*
X227195341Y-179427061D01*
X227197297Y-179431854D01*
X227197515Y-179432289D01*
X227229313Y-179474183D01*
X227272659Y-179502633D01*
X227323151Y-179516257D01*
X227376385Y-179513674D01*
X227415000Y-179500496D01*
X227426415Y-179494177D01*
X227453901Y-179478571D01*
X227496211Y-179454395D01*
X227552098Y-179422365D01*
X227620315Y-179383199D01*
X227699614Y-179337613D01*
X227788748Y-179286325D01*
X227886472Y-179230050D01*
X227991536Y-179169507D01*
X228102695Y-179105412D01*
X228218701Y-179038483D01*
X228234432Y-179029404D01*
X228380206Y-178945164D01*
X228509454Y-178870239D01*
X228623061Y-178804098D01*
X228721910Y-178746212D01*
X228806884Y-178696049D01*
X228878867Y-178653079D01*
X228938741Y-178616771D01*
X228987391Y-178586595D01*
X229025700Y-178562020D01*
X229054552Y-178542516D01*
X229074830Y-178527551D01*
X229085990Y-178518000D01*
X229100711Y-178504118D01*
X229113644Y-178491629D01*
X229124919Y-178479213D01*
X229134665Y-178465546D01*
X229143011Y-178449307D01*
X229150088Y-178429174D01*
X229156024Y-178403827D01*
X229160949Y-178371941D01*
X229164993Y-178332197D01*
X229168284Y-178283273D01*
X229170953Y-178223846D01*
X229173128Y-178152594D01*
X229174939Y-178068197D01*
X229176516Y-177969332D01*
X229177987Y-177854678D01*
X229179483Y-177722912D01*
X229181133Y-177572713D01*
X229181463Y-177543000D01*
X229182900Y-177406330D01*
X229184192Y-177267542D01*
X229185328Y-177129101D01*
X229185931Y-177044415D01*
X231285391Y-177044415D01*
X231296864Y-177108519D01*
X231323330Y-177166902D01*
X231363190Y-177216975D01*
X231414843Y-177256152D01*
X231476691Y-177281844D01*
X231547133Y-177291464D01*
X231550000Y-177291478D01*
X231587896Y-177289281D01*
X231622910Y-177283687D01*
X231636840Y-177279739D01*
X231700615Y-177246274D01*
X231752277Y-177198829D01*
X231789732Y-177140364D01*
X231810888Y-177073838D01*
X231814907Y-177028000D01*
X231805663Y-176957233D01*
X231779461Y-176894162D01*
X231738600Y-176841071D01*
X231685376Y-176800244D01*
X231622085Y-176773966D01*
X231551027Y-176764523D01*
X231550000Y-176764521D01*
X231477407Y-176773655D01*
X231413250Y-176800257D01*
X231359488Y-176843123D01*
X231318081Y-176901052D01*
X231313822Y-176909394D01*
X231290511Y-176977177D01*
X231285391Y-177044415D01*
X229185931Y-177044415D01*
X229186294Y-176993469D01*
X229187076Y-176863111D01*
X229187661Y-176740491D01*
X229188036Y-176628071D01*
X229188188Y-176528315D01*
X229188102Y-176443688D01*
X229187777Y-176378000D01*
X229187015Y-176285132D01*
X229186254Y-176210031D01*
X229185342Y-176150465D01*
X229184126Y-176104202D01*
X229182453Y-176069009D01*
X229180172Y-176042655D01*
X229177129Y-176022906D01*
X229173172Y-176007531D01*
X229168149Y-175994298D01*
X229161906Y-175980974D01*
X229160448Y-175978000D01*
X229151524Y-175960255D01*
X229142338Y-175943817D01*
X229131833Y-175928009D01*
X229118954Y-175912153D01*
X229102646Y-175895572D01*
X229081853Y-175877590D01*
X229055519Y-175857531D01*
X229022589Y-175834716D01*
X228982008Y-175808470D01*
X228932719Y-175778116D01*
X228873668Y-175742976D01*
X228803799Y-175702374D01*
X228722055Y-175655633D01*
X228627383Y-175602076D01*
X228518725Y-175541027D01*
X228395027Y-175471809D01*
X228255233Y-175393744D01*
X228209186Y-175368045D01*
X228070683Y-175290763D01*
X227948530Y-175222659D01*
X227841619Y-175163152D01*
X227748843Y-175111662D01*
X227669092Y-175067609D01*
X227601259Y-175030414D01*
X227544236Y-174999498D01*
X227496914Y-174974279D01*
X227458185Y-174954178D01*
X227426942Y-174938616D01*
X227402075Y-174927013D01*
X227382476Y-174918789D01*
X227367038Y-174913363D01*
X227354653Y-174910157D01*
X227344211Y-174908590D01*
X227334605Y-174908082D01*
X227330000Y-174908045D01*
X227274775Y-174915735D01*
X227231770Y-174939134D01*
X227200402Y-174978585D01*
X227196232Y-174986814D01*
X227194395Y-174991867D01*
X227192700Y-174999493D01*
X227191143Y-175010476D01*
X227189717Y-175025597D01*
X227188417Y-175045639D01*
X227187237Y-175071384D01*
X227186171Y-175103615D01*
X227185214Y-175143113D01*
X227184360Y-175190662D01*
X227183603Y-175247044D01*
X227182938Y-175313041D01*
X227182359Y-175389435D01*
X227181859Y-175477009D01*
X227181434Y-175576546D01*
X227181078Y-175688827D01*
X227180785Y-175814634D01*
X227180548Y-175954751D01*
X227180364Y-176109960D01*
X227180225Y-176281043D01*
X227180127Y-176468782D01*
X227180063Y-176673960D01*
X227180027Y-176897359D01*
X227180015Y-177139762D01*
X225460000Y-177139762D01*
X225460000Y-176285039D01*
X225689026Y-176158966D01*
X225753183Y-176123810D01*
X225813844Y-176090868D01*
X225868107Y-176061694D01*
X225913067Y-176037841D01*
X225945820Y-176020864D01*
X225961526Y-176013166D01*
X226001364Y-176000404D01*
X226046035Y-175994093D01*
X226087926Y-175994704D01*
X226119422Y-176002711D01*
X226120553Y-176003296D01*
X226132180Y-176010148D01*
X226141826Y-176018340D01*
X226149677Y-176029680D01*
X226155917Y-176045974D01*
X226160730Y-176069031D01*
X226164302Y-176100657D01*
X226166817Y-176142662D01*
X226168459Y-176196851D01*
X226169412Y-176265034D01*
X226169863Y-176349017D01*
X226169995Y-176450608D01*
X226170000Y-176487503D01*
X226170000Y-176903000D01*
X226850000Y-176903000D01*
X226849944Y-175990500D01*
X226849828Y-175810991D01*
X226849502Y-175651134D01*
X226848961Y-175510585D01*
X226848201Y-175388995D01*
X226847219Y-175286019D01*
X226846010Y-175201311D01*
X226844571Y-175134524D01*
X226842897Y-175085312D01*
X226840984Y-175053329D01*
X226839015Y-175038838D01*
X226815404Y-174985688D01*
X226779082Y-174944103D01*
X226733399Y-174916485D01*
X226681702Y-174905234D01*
X226654503Y-174906517D01*
X226634510Y-174912979D01*
X226599350Y-174928402D01*
X226551122Y-174951661D01*
X226491929Y-174981629D01*
X226423870Y-175017179D01*
X226349048Y-175057184D01*
X226269562Y-175100517D01*
X226187515Y-175146052D01*
X226105007Y-175192661D01*
X226024138Y-175239218D01*
X225947010Y-175284597D01*
X225925000Y-175297761D01*
X225890398Y-175318302D01*
X225840955Y-175347307D01*
X225779194Y-175383314D01*
X225707636Y-175424860D01*
X225628802Y-175470482D01*
X225545214Y-175518718D01*
X225459395Y-175568105D01*
X225415000Y-175593597D01*
X225311628Y-175653093D01*
X225224161Y-175704013D01*
X225151031Y-175747518D01*
X225090673Y-175784772D01*
X225041522Y-175816934D01*
X225002012Y-175845169D01*
X224970578Y-175870636D01*
X224945653Y-175894499D01*
X224925672Y-175917918D01*
X224909069Y-175942057D01*
X224894279Y-175968077D01*
X224884549Y-175987253D01*
X224874531Y-176007554D01*
X224865613Y-176026229D01*
X224857730Y-176044503D01*
X224850819Y-176063602D01*
X224844817Y-176084749D01*
X224839658Y-176109171D01*
X224835280Y-176138091D01*
X224831619Y-176172736D01*
X224828609Y-176214329D01*
X224826189Y-176264096D01*
X224824293Y-176323263D01*
X224822857Y-176393053D01*
X224821819Y-176474691D01*
X224821114Y-176569404D01*
X224820677Y-176678415D01*
X224820446Y-176802950D01*
X224820356Y-176944233D01*
X224820344Y-177103490D01*
X222702037Y-177103490D01*
X222709783Y-177080126D01*
X222714043Y-177012547D01*
X222700348Y-176943767D01*
X222686177Y-176909394D01*
X222646473Y-176849645D01*
X222594166Y-176804807D01*
X222531215Y-176776081D01*
X222459582Y-176764670D01*
X222450000Y-176764521D01*
X222377407Y-176773655D01*
X222313250Y-176800257D01*
X222259488Y-176843123D01*
X222218081Y-176901052D01*
X222213822Y-176909394D01*
X222190511Y-176977177D01*
X222185391Y-177044415D01*
X222014715Y-177044415D01*
X222012036Y-176987980D01*
X222023386Y-176905830D01*
X222050371Y-176826839D01*
X222093351Y-176753604D01*
X222152683Y-176688720D01*
X222153575Y-176687933D01*
X222229010Y-176633677D01*
X222309598Y-176597352D01*
X222393020Y-176578334D01*
X222476957Y-176576003D01*
X222559091Y-176589735D01*
X222637103Y-176618910D01*
X222708673Y-176662904D01*
X222771484Y-176721097D01*
X222823217Y-176792866D01*
X222861552Y-176877589D01*
X222861647Y-176877869D01*
X222878617Y-176928000D01*
X223549308Y-176930570D01*
X224220000Y-176933140D01*
X224219999Y-176513235D01*
X224219999Y-176093329D01*
X223365224Y-176090664D01*
X222510449Y-176088000D01*
X222482724Y-176060278D01*
X222455000Y-176032556D01*
X222445000Y-174751612D01*
X222394869Y-174734645D01*
X222310212Y-174696312D01*
X222237409Y-174643809D01*
X222177827Y-174579358D01*
X222132835Y-174505184D01*
X222103801Y-174423510D01*
X222092091Y-174336560D01*
X222092243Y-174334415D01*
X222275391Y-174334415D01*
X222286864Y-174398519D01*
X222313330Y-174456902D01*
X222353190Y-174506975D01*
X222404843Y-174546152D01*
X222466691Y-174571844D01*
X222537133Y-174581464D01*
X222540000Y-174581478D01*
X222577896Y-174579281D01*
X222612910Y-174573687D01*
X222626840Y-174569739D01*
X222691094Y-174536309D01*
X222742125Y-174489941D01*
X222778749Y-174433568D01*
X222799783Y-174370126D01*
X222804043Y-174302547D01*
X222790348Y-174233767D01*
X222776177Y-174199394D01*
X222736473Y-174139645D01*
X222684166Y-174094807D01*
X222621215Y-174066081D01*
X222549582Y-174054670D01*
X222540000Y-174054521D01*
X222467407Y-174063655D01*
X222403250Y-174090257D01*
X222349488Y-174133123D01*
X222308081Y-174191052D01*
X222303822Y-174199394D01*
X222280511Y-174267177D01*
X222275391Y-174334415D01*
X222092243Y-174334415D01*
X222098083Y-174252118D01*
X222122896Y-174161967D01*
X222163870Y-174081128D01*
X222219252Y-174011563D01*
X222287283Y-173955235D01*
X222366209Y-173914107D01*
X222414600Y-173898423D01*
X222505992Y-173884401D01*
X222594887Y-173888980D01*
X222679136Y-173910764D01*
X222756594Y-173948358D01*
X222825111Y-174000367D01*
X222882542Y-174065394D01*
X222926738Y-174142044D01*
X222955552Y-174228920D01*
X222960273Y-174253088D01*
X222965211Y-174340539D01*
X222951741Y-174426596D01*
X222921400Y-174508374D01*
X222875724Y-174582984D01*
X222816248Y-174647538D01*
X222744511Y-174699151D01*
X222714733Y-174714592D01*
X222650000Y-174744885D01*
X222649999Y-175324002D01*
X222649999Y-175903118D01*
X224250901Y-175898000D01*
X224277950Y-175818000D01*
X224323595Y-175708569D01*
X224384056Y-175607962D01*
X224460665Y-175514497D01*
X224554755Y-175426495D01*
X224640478Y-175361030D01*
X224659326Y-175348723D01*
X224693843Y-175327231D01*
X224742454Y-175297499D01*
X224803585Y-175260473D01*
X224875661Y-175217100D01*
X224957108Y-175168325D01*
X225046350Y-175115096D01*
X225141813Y-175058356D01*
X225241923Y-174999054D01*
X225303241Y-174962826D01*
X225905000Y-174607653D01*
X225907549Y-173640326D01*
X225910099Y-172673000D01*
X224751885Y-172673000D01*
X224721428Y-172738085D01*
X224674635Y-172816575D01*
X224615879Y-172880893D01*
X224547579Y-172930761D01*
X224472157Y-172965900D01*
X224392036Y-172986031D01*
X224309636Y-172990877D01*
X224227379Y-172980158D01*
X224147686Y-172953597D01*
X224072979Y-172910916D01*
X224005680Y-172851835D01*
X223981091Y-172823188D01*
X223942622Y-172767602D01*
X223916751Y-172711849D01*
X223901674Y-172650247D01*
X223896191Y-172584415D01*
X224065391Y-172584415D01*
X224076864Y-172648519D01*
X224103330Y-172706902D01*
X224143190Y-172756975D01*
X224194843Y-172796152D01*
X224256691Y-172821844D01*
X224327133Y-172831464D01*
X224330000Y-172831478D01*
X224367896Y-172829281D01*
X224402910Y-172823687D01*
X224416840Y-172819739D01*
X224481094Y-172786309D01*
X224532125Y-172739941D01*
X224568749Y-172683568D01*
X224589783Y-172620126D01*
X224594043Y-172552547D01*
X224580348Y-172483767D01*
X224566177Y-172449394D01*
X224526473Y-172389645D01*
X224474166Y-172344807D01*
X224411215Y-172316081D01*
X224339582Y-172304670D01*
X224330000Y-172304521D01*
X224257407Y-172313655D01*
X224193250Y-172340257D01*
X224139488Y-172383123D01*
X224098081Y-172441052D01*
X224093822Y-172449394D01*
X224070511Y-172517177D01*
X224065391Y-172584415D01*
X223896191Y-172584415D01*
X223895583Y-172577113D01*
X223895240Y-172553000D01*
X223895525Y-172504701D01*
X223897494Y-172469947D01*
X223902432Y-172442285D01*
X223911618Y-172415263D01*
X223926335Y-172382430D01*
X223931130Y-172372345D01*
X223980513Y-172290459D01*
X224043263Y-172223157D01*
X224118736Y-172171098D01*
X224137433Y-172161539D01*
X224173693Y-172145327D01*
X224205506Y-172135048D01*
X224240326Y-172129031D01*
X224285605Y-172125607D01*
X224301129Y-172124888D01*
X224376537Y-172125126D01*
X224439760Y-172134081D01*
X224497321Y-172153394D01*
X224555741Y-172184710D01*
X224567013Y-172191853D01*
X224632581Y-172245416D01*
X224687603Y-172312888D01*
X224728289Y-172389354D01*
X224736622Y-172411783D01*
X224758903Y-172478000D01*
X225396951Y-172483000D01*
X225533056Y-172484154D01*
X225650365Y-172485353D01*
X225750082Y-172486629D01*
X225833411Y-172488013D01*
X225901558Y-172489540D01*
X225955725Y-172491240D01*
X225997118Y-172493147D01*
X226026940Y-172495292D01*
X226046396Y-172497709D01*
X226056689Y-172500430D01*
X226057396Y-172500796D01*
X226066013Y-172505559D01*
X226073635Y-172510203D01*
X226080323Y-172515916D01*
X226086137Y-172523885D01*
X226091140Y-172535300D01*
X226095391Y-172551348D01*
X226098951Y-172573219D01*
X226101883Y-172602100D01*
X226104246Y-172639180D01*
X226106101Y-172685647D01*
X226107511Y-172742689D01*
X226108534Y-172811496D01*
X226109234Y-172893254D01*
X226109670Y-172989153D01*
X226109904Y-173100382D01*
X226109996Y-173228127D01*
X226110007Y-173373578D01*
X226110000Y-173525891D01*
X226110000Y-174479775D01*
X226217500Y-174426646D01*
X226337589Y-174374391D01*
X226456510Y-174337915D01*
X226581822Y-174315002D01*
X226609529Y-174311720D01*
X226679914Y-174306202D01*
X226742670Y-174306707D01*
X226804334Y-174313970D01*
X226871438Y-174328729D01*
X226942581Y-174349243D01*
X227028284Y-174375813D01*
X227091985Y-174350312D01*
X227192957Y-174318800D01*
X227297179Y-174304213D01*
X227405824Y-174306688D01*
X227520067Y-174326363D01*
X227641081Y-174363378D01*
X227770039Y-174417869D01*
X227803241Y-174434031D01*
X227847332Y-174455868D01*
X227884621Y-174474049D01*
X227911661Y-174486914D01*
X227925003Y-174492804D01*
X227925741Y-174493000D01*
X227926348Y-174483227D01*
X227926929Y-174454823D01*
X227927478Y-174409153D01*
X227927989Y-174347586D01*
X227928456Y-174271489D01*
X227928873Y-174182229D01*
X227929234Y-174081174D01*
X227929532Y-173969691D01*
X227929762Y-173849149D01*
X227929918Y-173720913D01*
X227929993Y-173586352D01*
X227930000Y-173534492D01*
X227930087Y-173355055D01*
X227930353Y-173195084D01*
X227930803Y-173054042D01*
X227931444Y-172931394D01*
X227932281Y-172826607D01*
X227933321Y-172739146D01*
X227934569Y-172668475D01*
X227936031Y-172614060D01*
X227937714Y-172575367D01*
X227939163Y-172557521D01*
X229440964Y-172557521D01*
X229446838Y-172622701D01*
X229467551Y-172682676D01*
X229500920Y-172735419D01*
X229544767Y-172778908D01*
X229596909Y-172811115D01*
X229655168Y-172830018D01*
X229717361Y-172833589D01*
X229781308Y-172819806D01*
X229800000Y-172812214D01*
X229859604Y-172775533D01*
X229906584Y-172726873D01*
X229939595Y-172669509D01*
X229957294Y-172606715D01*
X229958336Y-172541766D01*
X229941378Y-172477937D01*
X229939214Y-172473000D01*
X229900991Y-172411031D01*
X229850240Y-172363141D01*
X229789827Y-172330642D01*
X229722622Y-172314848D01*
X229651492Y-172317070D01*
X229616160Y-172325109D01*
X229579495Y-172343001D01*
X229539464Y-172373594D01*
X229501382Y-172411571D01*
X229470566Y-172451617D01*
X229452331Y-172488415D01*
X229452109Y-172489160D01*
X229440964Y-172557521D01*
X227939163Y-172557521D01*
X227939622Y-172551860D01*
X227941051Y-172544281D01*
X227955152Y-172518287D01*
X227973541Y-172500294D01*
X227973551Y-172500288D01*
X227983450Y-172497590D01*
X228003922Y-172495176D01*
X228036051Y-172493016D01*
X228080920Y-172491083D01*
X228139611Y-172489349D01*
X228213208Y-172487784D01*
X228302794Y-172486361D01*
X228409451Y-172485051D01*
X228534262Y-172483827D01*
X228633629Y-172483000D01*
X229272259Y-172478000D01*
X229290010Y-172420619D01*
X229325381Y-172337028D01*
X229376265Y-172265570D01*
X229443231Y-172205602D01*
X229519789Y-172159897D01*
X229548461Y-172146307D01*
X229572365Y-172137248D01*
X229596814Y-172131805D01*
X229627120Y-172129061D01*
X229668595Y-172128101D01*
X229704789Y-172128000D01*
X229756473Y-172128270D01*
X229793529Y-172129713D01*
X229821328Y-172133272D01*
X229845241Y-172139894D01*
X229870639Y-172150522D01*
X229892566Y-172161042D01*
X229971278Y-172210400D01*
X230037223Y-172274980D01*
X230089667Y-172354034D01*
X230098869Y-172372345D01*
X230115202Y-172407694D01*
X230125678Y-172435586D01*
X230131578Y-172462471D01*
X230134183Y-172494803D01*
X230134776Y-172539032D01*
X230134759Y-172553000D01*
X230131366Y-172627525D01*
X230120311Y-172688957D01*
X230099710Y-172743348D01*
X230067678Y-172796750D01*
X230052332Y-172817761D01*
X229990199Y-172884477D01*
X229919372Y-172934830D01*
X229842275Y-172969078D01*
X229761332Y-172987481D01*
X229678968Y-172990300D01*
X229597608Y-172977792D01*
X229519676Y-172950220D01*
X229447597Y-172907841D01*
X229383796Y-172850917D01*
X229330697Y-172779706D01*
X229308571Y-172738085D01*
X229278114Y-172673000D01*
X228119901Y-172673000D01*
X228122450Y-173645335D01*
X228125000Y-174617671D01*
X228715000Y-174960233D01*
X228816331Y-175019172D01*
X228913925Y-175076140D01*
X229006183Y-175130189D01*
X229091501Y-175180372D01*
X229168281Y-175225742D01*
X229234919Y-175265351D01*
X229289816Y-175298253D01*
X229331371Y-175323499D01*
X229357981Y-175340143D01*
X229365000Y-175344815D01*
X229475103Y-175434025D01*
X229571814Y-175537721D01*
X229654267Y-175654802D01*
X229721596Y-175784163D01*
X229735500Y-175817140D01*
X229768119Y-175898000D01*
X230559059Y-175900560D01*
X231350000Y-175903120D01*
X231350000Y-174744885D01*
X231285266Y-174714592D01*
X231209322Y-174668583D01*
X231145064Y-174608548D01*
X231094028Y-174537374D01*
X231057751Y-174457948D01*
X231037769Y-174373158D01*
X231036434Y-174319007D01*
X231190760Y-174319007D01*
X231198832Y-174388203D01*
X231223490Y-174450927D01*
X231262190Y-174504767D01*
X231312389Y-174547307D01*
X231371544Y-174576137D01*
X231437112Y-174588843D01*
X231474394Y-174588140D01*
X231512262Y-174580734D01*
X231555023Y-174566882D01*
X231577999Y-174556970D01*
X231634966Y-174518467D01*
X231678420Y-174466587D01*
X231706736Y-174404036D01*
X231718290Y-174333519D01*
X231718478Y-174323000D01*
X231709344Y-174250407D01*
X231682742Y-174186250D01*
X231639876Y-174132488D01*
X231581947Y-174091081D01*
X231573605Y-174086822D01*
X231506035Y-174063638D01*
X231438841Y-174058601D01*
X231374651Y-174070116D01*
X231316094Y-174096589D01*
X231265797Y-174136428D01*
X231226388Y-174188039D01*
X231200495Y-174249827D01*
X231190760Y-174319007D01*
X231036434Y-174319007D01*
X231035617Y-174285893D01*
X231039726Y-174253088D01*
G37*
G36*
X227867500Y-175947533D02*
G01*
X227880316Y-175953136D01*
X227909149Y-175966168D01*
X227951865Y-175985653D01*
X228006334Y-176010613D01*
X228070422Y-176040071D01*
X228141998Y-176073051D01*
X228218930Y-176108574D01*
X228222500Y-176110224D01*
X228560000Y-176266243D01*
X228560000Y-176933000D01*
X227850000Y-176933000D01*
X227850000Y-176436930D01*
X227850031Y-176324507D01*
X227850165Y-176230478D01*
X227850458Y-176153237D01*
X227850967Y-176091177D01*
X227851751Y-176042694D01*
X227852866Y-176006179D01*
X227854370Y-175980028D01*
X227856321Y-175962634D01*
X227858775Y-175952391D01*
X227861791Y-175947693D01*
X227865426Y-175946934D01*
X227867500Y-175947533D01*
G37*
%TD*%
D13*
%TO.C,MX8*%
X196850000Y-100806250D03*
D14*
X201930000Y-100806250D03*
X191770000Y-100806250D03*
D15*
X193040000Y-98266250D03*
X199390000Y-95726250D03*
%TD*%
D13*
%TO.C,MX23*%
X206375000Y-119856250D03*
D14*
X201295000Y-119856250D03*
X211455000Y-119856250D03*
D15*
X202565000Y-117316250D03*
X208915000Y-114776250D03*
%TD*%
D13*
%TO.C,MX49*%
X125412500Y-157956250D03*
D14*
X120332500Y-157956250D03*
X130492500Y-157956250D03*
D15*
X121602500Y-155416250D03*
X127952500Y-152876250D03*
%TD*%
D14*
%TO.C,MX40*%
X273367500Y-138906250D03*
D13*
X268287500Y-138906250D03*
D14*
X263207500Y-138906250D03*
D15*
X264477500Y-136366250D03*
X270827500Y-133826250D03*
%TD*%
D16*
%TO.C,REF\u002A\u002A*%
X253993750Y-168751250D03*
X153993750Y-168751250D03*
D17*
X153993750Y-183991250D03*
X253993750Y-183991250D03*
%TD*%
D14*
%TO.C,MX28*%
X306705000Y-119856250D03*
D13*
X301625000Y-119856250D03*
D14*
X296545000Y-119856250D03*
D15*
X297815000Y-117316250D03*
X304165000Y-114776250D03*
%TD*%
D13*
%TO.C,MX18*%
X111125000Y-119856250D03*
D14*
X106045000Y-119856250D03*
X116205000Y-119856250D03*
D15*
X107315000Y-117316250D03*
X113665000Y-114776250D03*
%TD*%
D18*
%TO.C,*%
X98032000Y-177004750D03*
%TD*%
%TO.C,*%
X115890000Y-157953750D03*
%TD*%
D13*
%TO.C,MX25*%
X244475000Y-119856250D03*
D14*
X249555000Y-119856250D03*
X239395000Y-119856250D03*
D15*
X240665000Y-117316250D03*
X247015000Y-114776250D03*
%TD*%
D14*
%TO.C,MX74*%
X198913750Y-177006250D03*
D13*
X203993750Y-177006250D03*
D14*
X209073750Y-177006250D03*
D15*
X200183750Y-174466250D03*
X206533750Y-171926250D03*
%TD*%
D14*
%TO.C,MX53*%
X206692500Y-157956250D03*
X196532500Y-157956250D03*
D13*
X201612500Y-157956250D03*
D15*
X197802500Y-155416250D03*
X204152500Y-152876250D03*
%TD*%
D13*
%TO.C,MX37*%
X211137500Y-138906250D03*
D14*
X216217500Y-138906250D03*
X206057500Y-138906250D03*
D15*
X207327500Y-136366250D03*
X213677500Y-133826250D03*
%TD*%
D13*
%TO.C,MX5*%
X139700000Y-100806250D03*
D14*
X134620000Y-100806250D03*
X144780000Y-100806250D03*
D15*
X135890000Y-98266250D03*
X142240000Y-95726250D03*
%TD*%
D16*
%TO.C,REF\u002A\u002A*%
X158750000Y-168751250D03*
D17*
X273050000Y-183991250D03*
D16*
X273050000Y-168751250D03*
D17*
X158750000Y-183991250D03*
%TD*%
D18*
%TO.C,*%
X309955000Y-158613750D03*
%TD*%
D14*
%TO.C,MX71*%
X304323750Y-177006250D03*
D13*
X299243750Y-177006250D03*
D14*
X294163750Y-177006250D03*
D15*
X295433750Y-174466250D03*
X301783750Y-171926250D03*
%TD*%
D17*
%TO.C,REF\u002A\u002A*%
X349281750Y-131921250D03*
D16*
X349281750Y-147161250D03*
X325405750Y-147161250D03*
D17*
X325405750Y-131921250D03*
%TD*%
D14*
%TO.C,MX16*%
X354330000Y-100806250D03*
X344170000Y-100806250D03*
D13*
X349250000Y-100806250D03*
D15*
X345440000Y-98266250D03*
X351790000Y-95726250D03*
%TD*%
D14*
%TO.C,MX15*%
X325120000Y-100806250D03*
D13*
X330200000Y-100806250D03*
D14*
X335280000Y-100806250D03*
D15*
X326390000Y-98266250D03*
X332740000Y-95726250D03*
%TD*%
D13*
%TO.C,MX4*%
X120650000Y-100806250D03*
D14*
X125730000Y-100806250D03*
X115570000Y-100806250D03*
D15*
X116840000Y-98266250D03*
X123190000Y-95726250D03*
%TD*%
D13*
%TO.C,MX24*%
X225425000Y-119856250D03*
D14*
X220345000Y-119856250D03*
X230505000Y-119856250D03*
D15*
X221615000Y-117316250D03*
X227965000Y-114776250D03*
%TD*%
D14*
%TO.C,MX60*%
X354330000Y-157956250D03*
D13*
X349250000Y-157956250D03*
D14*
X344170000Y-157956250D03*
D15*
X345440000Y-155416250D03*
X351790000Y-152876250D03*
%TD*%
D14*
%TO.C,MX73*%
X339407500Y-177006250D03*
D13*
X344487500Y-177006250D03*
D14*
X349567500Y-177006250D03*
D15*
X340677500Y-174466250D03*
X347027500Y-171926250D03*
%TD*%
D14*
%TO.C,MX14*%
X306070000Y-100806250D03*
X316230000Y-100806250D03*
D13*
X311150000Y-100806250D03*
D15*
X307340000Y-98266250D03*
X313690000Y-95726250D03*
%TD*%
D13*
%TO.C,MX75*%
X296862500Y-177006250D03*
D14*
X301942500Y-177006250D03*
X291782500Y-177006250D03*
D15*
X293052500Y-174466250D03*
X299402500Y-171926250D03*
%TD*%
D13*
%TO.C,MX10*%
X234950000Y-100806250D03*
D14*
X229870000Y-100806250D03*
X240030000Y-100806250D03*
D15*
X231140000Y-98266250D03*
X237490000Y-95726250D03*
%TD*%
D14*
%TO.C,MX77*%
X341788750Y-177006250D03*
X351948750Y-177006250D03*
D13*
X346868750Y-177006250D03*
D15*
X343058750Y-174466250D03*
X349408750Y-171926250D03*
%TD*%
D14*
%TO.C,MX54*%
X225742500Y-157956250D03*
X215582500Y-157956250D03*
D13*
X220662500Y-157956250D03*
D15*
X216852500Y-155416250D03*
X223202500Y-152876250D03*
%TD*%
D13*
%TO.C,MX26*%
X263525000Y-119856250D03*
D14*
X258445000Y-119856250D03*
X268605000Y-119856250D03*
D15*
X259715000Y-117316250D03*
X266065000Y-114776250D03*
%TD*%
D14*
%TO.C,MX59*%
X317976250Y-157956250D03*
D13*
X323056250Y-157956250D03*
D14*
X328136250Y-157956250D03*
D15*
X319246250Y-155416250D03*
X325596250Y-152876250D03*
%TD*%
D17*
%TO.C,REF\u002A\u002A*%
X82518250Y-150971250D03*
D16*
X82518250Y-166211250D03*
D17*
X106394250Y-150971250D03*
D16*
X106394250Y-166211250D03*
%TD*%
D13*
%TO.C,MX65*%
X134937500Y-177006250D03*
D14*
X129857500Y-177006250D03*
X140017500Y-177006250D03*
D15*
X131127500Y-174466250D03*
X137477500Y-171926250D03*
%TD*%
D13*
%TO.C,MX32*%
X115887500Y-138906250D03*
D14*
X110807500Y-138906250D03*
X120967500Y-138906250D03*
D15*
X112077500Y-136366250D03*
X118427500Y-133826250D03*
%TD*%
D14*
%TO.C,MX20*%
X154305000Y-119856250D03*
D13*
X149225000Y-119856250D03*
D14*
X144145000Y-119856250D03*
D15*
X145415000Y-117316250D03*
X151765000Y-114776250D03*
%TD*%
D14*
%TO.C,MX79*%
X103663750Y-177006250D03*
D13*
X108743750Y-177006250D03*
D14*
X113823750Y-177006250D03*
D15*
X104933750Y-174466250D03*
X111283750Y-171926250D03*
%TD*%
D14*
%TO.C,MX66*%
X137636250Y-177006250D03*
D13*
X132556250Y-177006250D03*
D14*
X127476250Y-177006250D03*
D15*
X128746250Y-174466250D03*
X135096250Y-171926250D03*
%TD*%
D14*
%TO.C,MX68*%
X216217500Y-177006250D03*
D13*
X211137500Y-177006250D03*
D14*
X206057500Y-177006250D03*
D15*
X207327500Y-174466250D03*
X213677500Y-171926250D03*
%TD*%
D14*
%TO.C,MX36*%
X197167500Y-138906250D03*
D13*
X192087500Y-138906250D03*
D14*
X187007500Y-138906250D03*
D15*
X188277500Y-136366250D03*
X194627500Y-133826250D03*
%TD*%
D14*
%TO.C,MX12*%
X278130000Y-100806250D03*
X267970000Y-100806250D03*
D13*
X273050000Y-100806250D03*
D15*
X269240000Y-98266250D03*
X275590000Y-95726250D03*
%TD*%
D14*
%TO.C,MX33*%
X140017500Y-138906250D03*
X129857500Y-138906250D03*
D13*
X134937500Y-138906250D03*
D15*
X131127500Y-136366250D03*
X137477500Y-133826250D03*
%TD*%
D14*
%TO.C,MX57*%
X272732500Y-157956250D03*
D13*
X277812500Y-157956250D03*
D14*
X282892500Y-157956250D03*
D15*
X274002500Y-155416250D03*
X280352500Y-152876250D03*
%TD*%
D14*
%TO.C,MX43*%
X320357500Y-138906250D03*
X330517500Y-138906250D03*
D13*
X325437500Y-138906250D03*
D15*
X321627500Y-136366250D03*
X327977500Y-133826250D03*
%TD*%
D14*
%TO.C,MX46*%
X99536250Y-157956250D03*
X89376250Y-157956250D03*
D13*
X94456250Y-157956250D03*
D15*
X90646250Y-155416250D03*
X96996250Y-152876250D03*
%TD*%
D17*
%TO.C,REF\u002A\u002A*%
X344519250Y-150971250D03*
D16*
X320643250Y-166211250D03*
D17*
X320643250Y-150971250D03*
D16*
X344519250Y-166211250D03*
%TD*%
D13*
%TO.C,MX7*%
X177800000Y-100806250D03*
D14*
X172720000Y-100806250D03*
X182880000Y-100806250D03*
D15*
X173990000Y-98266250D03*
X180340000Y-95726250D03*
%TD*%
D16*
%TO.C,REF\u002A\u002A*%
X187356750Y-168751250D03*
D17*
X187356750Y-183991250D03*
X163480750Y-183991250D03*
D16*
X163480750Y-168751250D03*
%TD*%
D14*
%TO.C,MX27*%
X277495000Y-119856250D03*
D13*
X282575000Y-119856250D03*
D14*
X287655000Y-119856250D03*
D15*
X278765000Y-117316250D03*
X285115000Y-114776250D03*
%TD*%
D13*
%TO.C,MX1*%
X339725000Y-100806250D03*
D14*
X344805000Y-100806250D03*
X334645000Y-100806250D03*
D15*
X335915000Y-98266250D03*
X342265000Y-95726250D03*
%TD*%
D14*
%TO.C,MX62*%
X92392500Y-177006250D03*
D13*
X87312500Y-177006250D03*
D14*
X82232500Y-177006250D03*
D15*
X83502500Y-174466250D03*
X89852500Y-171926250D03*
%TD*%
D14*
%TO.C,MX47*%
X79851250Y-157956250D03*
X90011250Y-157956250D03*
D13*
X84931250Y-157956250D03*
D15*
X81121250Y-155416250D03*
X87471250Y-152876250D03*
%TD*%
D14*
%TO.C,MX48*%
X111442500Y-157956250D03*
D13*
X106362500Y-157956250D03*
D14*
X101282500Y-157956250D03*
D15*
X102552500Y-155416250D03*
X108902500Y-152876250D03*
%TD*%
D13*
%TO.C,MX41*%
X287337500Y-138906250D03*
D14*
X292417500Y-138906250D03*
X282257500Y-138906250D03*
D15*
X283527500Y-136366250D03*
X289877500Y-133826250D03*
%TD*%
D14*
%TO.C,MX70*%
X270351250Y-177006250D03*
X280511250Y-177006250D03*
D13*
X275431250Y-177006250D03*
D15*
X271621250Y-174466250D03*
X277971250Y-171926250D03*
%TD*%
D14*
%TO.C,MX38*%
X225107500Y-138906250D03*
D13*
X230187500Y-138906250D03*
D14*
X235267500Y-138906250D03*
D15*
X226377500Y-136366250D03*
X232727500Y-133826250D03*
%TD*%
D13*
%TO.C,MX17*%
X87312500Y-119856250D03*
D14*
X82232500Y-119856250D03*
X92392500Y-119856250D03*
D15*
X83502500Y-117316250D03*
X89852500Y-114776250D03*
%TD*%
D14*
%TO.C,MX63*%
X79851250Y-177006250D03*
D13*
X84931250Y-177006250D03*
D14*
X90011250Y-177006250D03*
D15*
X81121250Y-174466250D03*
X87471250Y-171926250D03*
%TD*%
D13*
%TO.C,MX6*%
X158750000Y-100806250D03*
D14*
X163830000Y-100806250D03*
X153670000Y-100806250D03*
D15*
X154940000Y-98266250D03*
X161290000Y-95726250D03*
%TD*%
D14*
%TO.C,MX64*%
X106045000Y-177006250D03*
D13*
X111125000Y-177006250D03*
D14*
X116205000Y-177006250D03*
D15*
X107315000Y-174466250D03*
X113665000Y-171926250D03*
%TD*%
D14*
%TO.C,MX50*%
X139382500Y-157956250D03*
D13*
X144462500Y-157956250D03*
D14*
X149542500Y-157956250D03*
D15*
X140652500Y-155416250D03*
X147002500Y-152876250D03*
%TD*%
D18*
%TO.C,*%
X146275000Y-177000750D03*
%TD*%
D14*
%TO.C,MX9*%
X220980000Y-100806250D03*
X210820000Y-100806250D03*
D13*
X215900000Y-100806250D03*
D15*
X212090000Y-98266250D03*
X218440000Y-95726250D03*
%TD*%
D18*
%TO.C,*%
X76400000Y-119854750D03*
%TD*%
D14*
%TO.C,MX42*%
X311467500Y-138906250D03*
X301307500Y-138906250D03*
D13*
X306387500Y-138906250D03*
D15*
X302577500Y-136366250D03*
X308927500Y-133826250D03*
%TD*%
D14*
%TO.C,MX39*%
X254317500Y-138906250D03*
D13*
X249237500Y-138906250D03*
D14*
X244157500Y-138906250D03*
D15*
X245427500Y-136366250D03*
X251777500Y-133826250D03*
%TD*%
D13*
%TO.C,MX52*%
X182562500Y-157956250D03*
D14*
X177482500Y-157956250D03*
X187642500Y-157956250D03*
D15*
X178752500Y-155416250D03*
X185102500Y-152876250D03*
%TD*%
D13*
%TO.C,MX51*%
X163512500Y-157956250D03*
D14*
X158432500Y-157956250D03*
X168592500Y-157956250D03*
D15*
X159702500Y-155416250D03*
X166052500Y-152876250D03*
%TD*%
D16*
%TO.C,REF\u002A\u002A*%
X338613750Y-117443250D03*
D17*
X353853750Y-117443250D03*
X353853750Y-141319250D03*
D16*
X338613750Y-141319250D03*
%TD*%
D14*
%TO.C,MX30*%
X349567500Y-119856250D03*
D13*
X344487500Y-119856250D03*
D14*
X339407500Y-119856250D03*
D15*
X340677500Y-117316250D03*
X347027500Y-114776250D03*
%TD*%
D13*
%TO.C,MX76*%
X323056250Y-177006250D03*
D14*
X328136250Y-177006250D03*
X317976250Y-177006250D03*
D15*
X319246250Y-174466250D03*
X325596250Y-171926250D03*
%TD*%
D18*
%TO.C,*%
X262919000Y-176999750D03*
%TD*%
D14*
%TO.C,MX58*%
X291782500Y-157956250D03*
X301942500Y-157956250D03*
D13*
X296862500Y-157956250D03*
D15*
X293052500Y-155416250D03*
X299402500Y-152876250D03*
%TD*%
D14*
%TO.C,MX2*%
X77470000Y-100806250D03*
D13*
X82550000Y-100806250D03*
D14*
X87630000Y-100806250D03*
D15*
X78740000Y-98266250D03*
X85090000Y-95726250D03*
%TD*%
D14*
%TO.C,MX35*%
X178117500Y-138906250D03*
X167957500Y-138906250D03*
D13*
X173037500Y-138906250D03*
D15*
X169227500Y-136366250D03*
X175577500Y-133826250D03*
%TD*%
D14*
%TO.C,MX3*%
X106680000Y-100806250D03*
X96520000Y-100806250D03*
D13*
X101600000Y-100806250D03*
D15*
X97790000Y-98266250D03*
X104140000Y-95726250D03*
%TD*%
D14*
%TO.C,MX67*%
X170338750Y-177006250D03*
D13*
X175418750Y-177006250D03*
D14*
X180498750Y-177006250D03*
D15*
X171608750Y-174466250D03*
X177958750Y-171926250D03*
%TD*%
D14*
%TO.C,MX45*%
X346868750Y-134461250D03*
D13*
X346868750Y-129381250D03*
D14*
X346868750Y-124301250D03*
D15*
X349408750Y-125571250D03*
X351948750Y-131921250D03*
%TD*%
D14*
%TO.C,MX61*%
X327501250Y-157956250D03*
X337661250Y-157956250D03*
D13*
X332581250Y-157956250D03*
D15*
X328771250Y-155416250D03*
X335121250Y-152876250D03*
%TD*%
D13*
%TO.C,MX34*%
X153987500Y-138906250D03*
D14*
X159067500Y-138906250D03*
X148907500Y-138906250D03*
D15*
X150177500Y-136366250D03*
X156527500Y-133826250D03*
%TD*%
D18*
%TO.C,*%
X177772000Y-120787750D03*
%TD*%
D14*
%TO.C,MX56*%
X253682500Y-157956250D03*
X263842500Y-157956250D03*
D13*
X258762500Y-157956250D03*
D15*
X254952500Y-155416250D03*
X261302500Y-152876250D03*
%TD*%
D14*
%TO.C,MX19*%
X135255000Y-119856250D03*
X125095000Y-119856250D03*
D13*
X130175000Y-119856250D03*
D15*
X126365000Y-117316250D03*
X132715000Y-114776250D03*
%TD*%
D14*
%TO.C,MX78*%
X220980000Y-177006250D03*
X210820000Y-177006250D03*
D13*
X215900000Y-177006250D03*
D15*
X212090000Y-174466250D03*
X218440000Y-171926250D03*
%TD*%
D16*
%TO.C,REF\u002A\u002A*%
X254031750Y-168751250D03*
D17*
X254031750Y-183991250D03*
X230155750Y-183991250D03*
D16*
X230155750Y-168751250D03*
%TD*%
D14*
%TO.C,MX80*%
X90011250Y-138906250D03*
D13*
X84931250Y-138906250D03*
D14*
X79851250Y-138906250D03*
D15*
X81121250Y-136366250D03*
X87471250Y-133826250D03*
%TD*%
D14*
%TO.C,MX29*%
X315595000Y-119856250D03*
D13*
X320675000Y-119856250D03*
D14*
X325755000Y-119856250D03*
D15*
X316865000Y-117316250D03*
X323215000Y-114776250D03*
%TD*%
D14*
%TO.C,MX55*%
X244792500Y-157956250D03*
X234632500Y-157956250D03*
D13*
X239712500Y-157956250D03*
D15*
X235902500Y-155416250D03*
X242252500Y-152876250D03*
%TD*%
D14*
%TO.C,MX11*%
X248920000Y-100806250D03*
D13*
X254000000Y-100806250D03*
D14*
X259080000Y-100806250D03*
D15*
X250190000Y-98266250D03*
X256540000Y-95726250D03*
%TD*%
D14*
%TO.C,MX69*%
X237013750Y-177006250D03*
X247173750Y-177006250D03*
D13*
X242093750Y-177006250D03*
D15*
X238283750Y-174466250D03*
X244633750Y-171926250D03*
%TD*%
D18*
%TO.C,*%
X333770000Y-177000750D03*
%TD*%
%TO.C,*%
X254007000Y-120771750D03*
%TD*%
D14*
%TO.C,MX72*%
X325755000Y-177006250D03*
D13*
X320675000Y-177006250D03*
D14*
X315595000Y-177006250D03*
D15*
X316865000Y-174466250D03*
X323215000Y-171926250D03*
%TD*%
D13*
%TO.C,MX22*%
X187325000Y-119856250D03*
D14*
X182245000Y-119856250D03*
X192405000Y-119856250D03*
D15*
X183515000Y-117316250D03*
X189865000Y-114776250D03*
%TD*%
D14*
%TO.C,MX21*%
X173355000Y-119856250D03*
X163195000Y-119856250D03*
D13*
X168275000Y-119856250D03*
D15*
X164465000Y-117316250D03*
X170815000Y-114776250D03*
%TD*%
D17*
%TO.C,REF\u002A\u002A*%
X327787000Y-93821250D03*
D16*
X351663000Y-109061250D03*
D17*
X351663000Y-93821250D03*
D16*
X327787000Y-109061250D03*
%TD*%
D14*
%TO.C,MX44*%
X332263750Y-138906250D03*
D13*
X337343750Y-138906250D03*
D14*
X342423750Y-138906250D03*
D15*
X333533750Y-136366250D03*
X339883750Y-133826250D03*
%TD*%
D18*
%TO.C,*%
X332580000Y-119849750D03*
%TD*%
D14*
%TO.C,MX13*%
X287020000Y-100806250D03*
X297180000Y-100806250D03*
D13*
X292100000Y-100806250D03*
D15*
X288290000Y-98266250D03*
X294640000Y-95726250D03*
%TD*%
D14*
%TO.C,MX31*%
X94773750Y-138906250D03*
D13*
X89693750Y-138906250D03*
D14*
X84613750Y-138906250D03*
D15*
X85883750Y-136366250D03*
X92233750Y-133826250D03*
%TD*%
D19*
%TO.C,J1*%
X225915000Y-106258750D03*
X223375000Y-106258750D03*
X225915000Y-108798750D03*
X223375000Y-108798750D03*
X225915000Y-111338750D03*
X223375000Y-111338750D03*
%TD*%
M02*
