%TF.GenerationSoftware,KiCad,Pcbnew,(5.99.0-12192-g74b8f14ec3)*%
%TF.CreationDate,2021-09-17T16:22:24+02:00*%
%TF.ProjectId,pcb-solder,7063622d-736f-46c6-9465-722e6b696361,1.0*%
%TF.SameCoordinates,Original*%
%TF.FileFunction,Profile,NP*%
%FSLAX46Y46*%
G04 Gerber Fmt 4.6, Leading zero omitted, Abs format (unit mm)*
G04 Created by KiCad (PCBNEW (5.99.0-12192-g74b8f14ec3)) date 2021-09-17 16:22:24*
%MOMM*%
%LPD*%
G01*
G04 APERTURE LIST*
%TA.AperFunction,Profile*%
%ADD10C,0.100000*%
%TD*%
G04 APERTURE END LIST*
D10*
X260272000Y-186388750D02*
X260272000Y-184538750D01*
X75003000Y-164813750D02*
G75*
G02*
X75003000Y-170113750I0J-2650000D01*
G01*
X75003000Y-126713750D02*
G75*
G02*
X75003000Y-132013750I0J-2650000D01*
G01*
X358403000Y-165313750D02*
X356803000Y-165313750D01*
X356803000Y-170613751D02*
G75*
G02*
X356803000Y-165313749I0J2650001D01*
G01*
X358403000Y-114069750D02*
X356803000Y-114069750D01*
X356403000Y-91388750D02*
X266178000Y-91388750D01*
X73403000Y-93388750D02*
X73403000Y-126713750D01*
X265572000Y-186388750D02*
X356403000Y-186388750D01*
X148931001Y-186388750D02*
X260272000Y-186388750D01*
X260878000Y-91388750D02*
X170928000Y-91388750D01*
X260878000Y-91388750D02*
X260878000Y-93238750D01*
X358403000Y-165313750D02*
X358403000Y-114069750D01*
X170928000Y-93238750D02*
G75*
G02*
X165628000Y-93238750I-2650000J0D01*
G01*
X165628000Y-91388750D02*
X165628000Y-93238750D01*
X356803000Y-114069750D02*
G75*
G02*
X356803000Y-108769750I0J2650000D01*
G01*
X143630999Y-184538750D02*
G75*
G02*
X148931001Y-184538750I2650001J0D01*
G01*
X358403000Y-170613750D02*
X356803000Y-170613750D01*
X260272000Y-184538750D02*
G75*
G02*
X265572000Y-184538750I2650000J0D01*
G01*
X143631000Y-186388750D02*
X143631000Y-184538750D01*
X73402999Y-93388749D02*
G75*
G02*
X75403000Y-91388750I2000000J-1D01*
G01*
X73403000Y-126713750D02*
X75003000Y-126713750D01*
X265572000Y-186388750D02*
X265572000Y-184538750D01*
X170928000Y-91388750D02*
X170928000Y-93238750D01*
X73403000Y-170113750D02*
X75003000Y-170113750D01*
X165628000Y-91388750D02*
X75403000Y-91388750D01*
X266178000Y-91388750D02*
X266178000Y-93238750D01*
X73403000Y-132013750D02*
X75003000Y-132013750D01*
X73403000Y-132013750D02*
X73403000Y-164813750D01*
X358403000Y-184388750D02*
X358403000Y-170613750D01*
X356403001Y-91388749D02*
G75*
G02*
X358403000Y-93388750I-1J-2000000D01*
G01*
X266178001Y-93238750D02*
G75*
G02*
X260877999Y-93238750I-2650001J0D01*
G01*
X358403000Y-108769750D02*
X358403000Y-93388750D01*
X75403000Y-186388750D02*
X143631000Y-186388750D01*
X148931001Y-186388750D02*
X148931001Y-184538750D01*
X358403000Y-108769750D02*
X356803000Y-108769750D01*
X73403000Y-164813750D02*
X75003000Y-164813750D01*
X75402999Y-186388751D02*
G75*
G02*
X73403000Y-184388750I1J2000000D01*
G01*
X358403001Y-184388751D02*
G75*
G02*
X356403000Y-186388750I-2000000J1D01*
G01*
X73403000Y-170113750D02*
X73403000Y-184388750D01*
M02*
