%TF.GenerationSoftware,KiCad,Pcbnew,(6.0.2)*%
%TF.CreationDate,2022-03-01T17:44:05+01:00*%
%TF.ProjectId,pcb-solder,7063622d-736f-46c6-9465-722e6b696361,1.0*%
%TF.SameCoordinates,Original*%
%TF.FileFunction,Paste,Bot*%
%TF.FilePolarity,Positive*%
%FSLAX46Y46*%
G04 Gerber Fmt 4.6, Leading zero omitted, Abs format (unit mm)*
G04 Created by KiCad (PCBNEW (6.0.2)) date 2022-03-01 17:44:05*
%MOMM*%
%LPD*%
G01*
G04 APERTURE LIST*
G04 Aperture macros list*
%AMRoundRect*
0 Rectangle with rounded corners*
0 $1 Rounding radius*
0 $2 $3 $4 $5 $6 $7 $8 $9 X,Y pos of 4 corners*
0 Add a 4 corners polygon primitive as box body*
4,1,4,$2,$3,$4,$5,$6,$7,$8,$9,$2,$3,0*
0 Add four circle primitives for the rounded corners*
1,1,$1+$1,$2,$3*
1,1,$1+$1,$4,$5*
1,1,$1+$1,$6,$7*
1,1,$1+$1,$8,$9*
0 Add four rect primitives between the rounded corners*
20,1,$1+$1,$2,$3,$4,$5,0*
20,1,$1+$1,$4,$5,$6,$7,0*
20,1,$1+$1,$6,$7,$8,$9,0*
20,1,$1+$1,$8,$9,$2,$3,0*%
G04 Aperture macros list end*
%ADD10RoundRect,0.150000X0.150000X-0.587500X0.150000X0.587500X-0.150000X0.587500X-0.150000X-0.587500X0*%
%ADD11RoundRect,0.225000X0.225000X0.250000X-0.225000X0.250000X-0.225000X-0.250000X0.225000X-0.250000X0*%
%ADD12RoundRect,0.225000X-0.225000X-0.250000X0.225000X-0.250000X0.225000X0.250000X-0.225000X0.250000X0*%
%ADD13RoundRect,0.225000X-0.335876X-0.017678X-0.017678X-0.335876X0.335876X0.017678X0.017678X0.335876X0*%
%ADD14RoundRect,0.230000X0.063640X0.502046X-0.502046X-0.063640X-0.063640X-0.502046X0.502046X0.063640X0*%
%ADD15RoundRect,0.225000X-0.250000X0.225000X-0.250000X-0.225000X0.250000X-0.225000X0.250000X0.225000X0*%
%ADD16RoundRect,0.200000X-0.200000X-0.275000X0.200000X-0.275000X0.200000X0.275000X-0.200000X0.275000X0*%
%ADD17RoundRect,0.225000X0.335876X0.017678X0.017678X0.335876X-0.335876X-0.017678X-0.017678X-0.335876X0*%
%ADD18RoundRect,0.250000X0.000000X0.358486X-0.358486X0.000000X0.000000X-0.358486X0.358486X0.000000X0*%
%ADD19RoundRect,0.062500X0.291682X0.380070X-0.380070X-0.291682X-0.291682X-0.380070X0.380070X0.291682X0*%
%ADD20RoundRect,0.062500X-0.291682X0.380070X-0.380070X0.291682X0.291682X-0.380070X0.380070X-0.291682X0*%
%ADD21R,1.200000X1.800000*%
%ADD22R,0.600000X1.550000*%
%ADD23R,1.000000X1.700000*%
%ADD24RoundRect,0.200000X0.275000X-0.200000X0.275000X0.200000X-0.275000X0.200000X-0.275000X-0.200000X0*%
G04 APERTURE END LIST*
D10*
%TO.C,D1*%
X95406250Y-95393750D03*
X93506250Y-95393750D03*
X94456250Y-93518750D03*
%TD*%
D11*
%TO.C,C8*%
X220810000Y-121468750D03*
X219260000Y-121468750D03*
%TD*%
D10*
%TO.C,D26*%
X252568750Y-152543750D03*
X250668750Y-152543750D03*
X251618750Y-150668750D03*
%TD*%
%TO.C,D6*%
X285906250Y-95393750D03*
X284006250Y-95393750D03*
X284956250Y-93518750D03*
%TD*%
%TO.C,D20*%
X300193750Y-133493750D03*
X298293750Y-133493750D03*
X299243750Y-131618750D03*
%TD*%
%TO.C,D11*%
X219231250Y-114443750D03*
X217331250Y-114443750D03*
X218281250Y-112568750D03*
%TD*%
%TO.C,D4*%
X209706250Y-95393750D03*
X207806250Y-95393750D03*
X208756250Y-93518750D03*
%TD*%
%TO.C,D7*%
X324006250Y-95393750D03*
X322106250Y-95393750D03*
X323056250Y-93518750D03*
%TD*%
%TO.C,D8*%
X104931250Y-114443750D03*
X103031250Y-114443750D03*
X103981250Y-112568750D03*
%TD*%
D12*
%TO.C,C2*%
X213190000Y-118748750D03*
X214740000Y-118748750D03*
%TD*%
D10*
%TO.C,D16*%
X147793750Y-133493750D03*
X145893750Y-133493750D03*
X146843750Y-131618750D03*
%TD*%
D13*
%TO.C,C6*%
X223546992Y-128410742D03*
X224643008Y-129506758D03*
%TD*%
D10*
%TO.C,D25*%
X214468750Y-152543750D03*
X212568750Y-152543750D03*
X213518750Y-150668750D03*
%TD*%
%TO.C,D5*%
X247806250Y-95393750D03*
X245906250Y-95393750D03*
X246856250Y-93518750D03*
%TD*%
%TO.C,D9*%
X143031250Y-114443750D03*
X141131250Y-114443750D03*
X142081250Y-112568750D03*
%TD*%
D14*
%TO.C,Y1*%
X223528858Y-130641973D03*
X221973223Y-132197608D03*
X220771142Y-130995527D03*
X222326777Y-129439892D03*
%TD*%
D10*
%TO.C,D2*%
X133506250Y-95393750D03*
X131606250Y-95393750D03*
X132556250Y-93518750D03*
%TD*%
D15*
%TO.C,C1*%
X210423000Y-109213000D03*
X210423000Y-110763000D03*
%TD*%
D10*
%TO.C,D24*%
X176368750Y-152543750D03*
X174468750Y-152543750D03*
X175418750Y-150668750D03*
%TD*%
%TO.C,D18*%
X223993750Y-136668750D03*
X222093750Y-136668750D03*
X223043750Y-134793750D03*
%TD*%
%TO.C,D23*%
X138268750Y-152543750D03*
X136368750Y-152543750D03*
X137318750Y-150668750D03*
%TD*%
%TO.C,D32*%
X235910000Y-171607500D03*
X234010000Y-171607500D03*
X234960000Y-169732500D03*
%TD*%
%TO.C,D28*%
X343056250Y-155718750D03*
X341156250Y-155718750D03*
X342106250Y-153843750D03*
%TD*%
D16*
%TO.C,R2*%
X207704000Y-125916000D03*
X209354000Y-125916000D03*
%TD*%
D12*
%TO.C,C4*%
X207770000Y-124407000D03*
X209320000Y-124407000D03*
%TD*%
D10*
%TO.C,D34*%
X338293750Y-171593750D03*
X336393750Y-171593750D03*
X337343750Y-169718750D03*
%TD*%
D17*
%TO.C,C7*%
X220783008Y-133226758D03*
X219686992Y-132130742D03*
%TD*%
D18*
%TO.C,U1*%
X215069150Y-125412500D03*
X215069150Y-123750799D03*
X216730850Y-123750799D03*
X216730850Y-127074201D03*
X217561701Y-124581650D03*
X218392551Y-125412500D03*
X215900000Y-126243350D03*
X215069150Y-127074201D03*
X217561701Y-126243350D03*
X215900000Y-122919949D03*
X216730850Y-125412500D03*
X215900000Y-124581650D03*
X214238299Y-124581650D03*
X214238299Y-126243350D03*
X215900000Y-127905051D03*
X213407449Y-125412500D03*
D19*
X216492202Y-121284764D03*
X216845755Y-121638318D03*
X217199309Y-121991871D03*
X217552862Y-122345424D03*
X217906415Y-122698978D03*
X218259969Y-123052531D03*
X218613522Y-123406085D03*
X218967076Y-123759638D03*
X219320629Y-124113191D03*
X219674182Y-124466745D03*
X220027736Y-124820298D03*
D20*
X220027736Y-126004702D03*
X219674182Y-126358255D03*
X219320629Y-126711809D03*
X218967076Y-127065362D03*
X218613522Y-127418915D03*
X218259969Y-127772469D03*
X217906415Y-128126022D03*
X217552862Y-128479576D03*
X217199309Y-128833129D03*
X216845755Y-129186682D03*
X216492202Y-129540236D03*
D19*
X215307798Y-129540236D03*
X214954245Y-129186682D03*
X214600691Y-128833129D03*
X214247138Y-128479576D03*
X213893585Y-128126022D03*
X213540031Y-127772469D03*
X213186478Y-127418915D03*
X212832924Y-127065362D03*
X212479371Y-126711809D03*
X212125818Y-126358255D03*
X211772264Y-126004702D03*
D20*
X211772264Y-124820298D03*
X212125818Y-124466745D03*
X212479371Y-124113191D03*
X212832924Y-123759638D03*
X213186478Y-123406085D03*
X213540031Y-123052531D03*
X213893585Y-122698978D03*
X214247138Y-122345424D03*
X214600691Y-121991871D03*
X214954245Y-121638318D03*
X215307798Y-121284764D03*
%TD*%
D21*
%TO.C,J2*%
X209185000Y-106918750D03*
X203585000Y-106918750D03*
D22*
X204885000Y-110793750D03*
X205885000Y-110793750D03*
X206885000Y-110793750D03*
X207885000Y-110793750D03*
%TD*%
D23*
%TO.C,SW1*%
X245305000Y-110528750D03*
X245305000Y-104228750D03*
X241505000Y-110528750D03*
X241505000Y-104228750D03*
%TD*%
D10*
%TO.C,D30*%
X143031250Y-171593750D03*
X141131250Y-171593750D03*
X142081250Y-169718750D03*
%TD*%
%TO.C,D33*%
X290668750Y-171593750D03*
X288768750Y-171593750D03*
X289718750Y-169718750D03*
%TD*%
%TO.C,D13*%
X295431250Y-114443750D03*
X293531250Y-114443750D03*
X294481250Y-112568750D03*
%TD*%
%TO.C,D15*%
X109693750Y-133493750D03*
X107793750Y-133493750D03*
X108743750Y-131618750D03*
%TD*%
%TO.C,D12*%
X257331250Y-114443750D03*
X255431250Y-114443750D03*
X256381250Y-112568750D03*
%TD*%
%TO.C,D14*%
X333531250Y-114443750D03*
X331631250Y-114443750D03*
X332581250Y-112568750D03*
%TD*%
%TO.C,D21*%
X334325000Y-133493750D03*
X332425000Y-133493750D03*
X333375000Y-131618750D03*
%TD*%
%TO.C,D27*%
X290668750Y-152543750D03*
X288768750Y-152543750D03*
X289718750Y-150668750D03*
%TD*%
%TO.C,D22*%
X102550000Y-152543750D03*
X100650000Y-152543750D03*
X101600000Y-150668750D03*
%TD*%
D12*
%TO.C,C5*%
X211809000Y-130725000D03*
X213359000Y-130725000D03*
%TD*%
%TO.C,C3*%
X213201000Y-120138750D03*
X214751000Y-120138750D03*
%TD*%
D10*
%TO.C,D29*%
X102550000Y-171593750D03*
X100650000Y-171593750D03*
X101600000Y-169718750D03*
%TD*%
D24*
%TO.C,R1*%
X228882000Y-111310000D03*
X228882000Y-109660000D03*
%TD*%
D10*
%TO.C,D3*%
X175050000Y-95387500D03*
X173150000Y-95387500D03*
X174100000Y-93512500D03*
%TD*%
%TO.C,D19*%
X262093750Y-133493750D03*
X260193750Y-133493750D03*
X261143750Y-131618750D03*
%TD*%
%TO.C,D17*%
X185893750Y-133493750D03*
X183993750Y-133493750D03*
X184943750Y-131618750D03*
%TD*%
%TO.C,D10*%
X181131250Y-114443750D03*
X179231250Y-114443750D03*
X180181250Y-112568750D03*
%TD*%
%TO.C,D31*%
X197800000Y-171593750D03*
X195900000Y-171593750D03*
X196850000Y-169718750D03*
%TD*%
M02*
